<?xml version="1.0" encoding="utf-8"?>
<!-- Generator: Adobe Illustrator 26.3.1, SVG Export Plug-In . SVG Version: 6.00 Build 0)  -->
<svg version="1.1" id="Layer_1" xmlns="http://www.w3.org/2000/svg" xmlns:xlink="http://www.w3.org/1999/xlink" x="0px" y="0px"
	 viewBox="0 0 120 116" style="enable-background:new 0 0 120 116;" xml:space="preserve">
<style type="text/css">
	.st0{fill:#330000;}
	.st1{fill:#FDFDFD;}
	.st2{fill:#FE9900;}
	.st3{fill:#FE9E00;}
</style>
<g>
	<g>
		<path class="st0" d="M0.06,98.95c0-27.32,0-54.64,0-81.96C1.23,7.03,7.08,1.17,17.04,0c28.64,0,57.28,0,85.91,0
			c9.96,1.17,15.81,7.03,16.98,16.99c0,27.32,0,54.64,0,81.96c-1.17,9.97-7.02,15.82-16.98,16.99c-28.64,0-57.28,0-85.91,0
			C7.08,114.77,1.23,108.92,0.06,98.95z"/>
		<path class="st1" d="M17.04,0C8.41,2.69,2.74,8.35,0.06,16.99C0.14,11.33,0.22,5.66,0.31,0C5.88,0,11.46,0,17.04,0z"/>
		<path class="st1" d="M119.94,16.99C117.25,8.35,111.6,2.68,102.96,0c5.66,0.08,11.32,0.16,16.98,0.25
			C119.94,5.83,119.94,11.41,119.94,16.99z"/>
		<path class="st1" d="M0.06,98.95c2.69,8.64,8.35,14.3,16.98,16.99c-5,0-9.99-0.1-14.98,0.05c-1.74,0.05-2.11-0.31-2.05-2.06
			C0.16,108.95,0.06,103.95,0.06,98.95z"/>
		<path class="st1" d="M102.96,115.94c8.64-2.68,14.3-8.35,16.98-16.99c0,5-0.1,10,0.05,14.99c0.05,1.74-0.31,2.11-2.05,2.06
			C112.95,115.84,107.95,115.94,102.96,115.94z"/>
		<path class="st2" d="M73.98,80.86c-1.37,0.14-1.86,0.23-2.35,0.24c-9.17,0.2-9.32,0.25-12.25-8.36c-0.96-2.82-2.11-4.3-5.2-3.81
			c-1.14,0.18-2.32,0.01-3.49,0.03c-3.65,0.06-8.01-1.05-10.72,0.58c-2.27,1.36-2.59,5.95-3.8,9.1c-0.8,2.09-9.21,3.73-10.68,2.03
			c-1.11-1.28,0.08-2.44,0.49-3.63c4.71-13.41,9.31-26.86,14.21-40.2c0.82-2.22,0.13-5.92,2.67-6.48c3.81-0.84,7.92-0.3,11.9-0.31
			c1.13,0,1.04,0.97,1.32,1.74C61.99,48.05,67.93,64.3,73.98,80.86z"/>
		<path class="st2" d="M90.05,81.17c-3.38,1.19-6.76,1.31-10.12-0.07c-0.69-12.65-0.8-25.31,0.05-37.96c3.33,0,6.66,0,9.99,0
			C90.84,55.82,90.68,68.5,90.05,81.17z"/>
		<path class="st2" d="M91.01,32c0.24,4.15-1.79,6.24-5.78,6.37c-4.01,0.13-6.31-2.32-6.24-6.48c0.07-4.17,2.62-5.88,6.38-5.86
			C89.15,26.06,90.82,28.44,91.01,32z"/>
		<path class="st3" d="M79.98,43.14c-0.02,12.65-0.03,25.3-0.05,37.96c-0.91-0.44-0.93-1.27-0.93-2.11c0-11.3-0.01-22.61,0-33.91
			C79,44.3,78.85,43.38,79.98,43.14z"/>
		<path class="st3" d="M90.05,81.17C90.02,68.5,90,55.82,89.97,43.14c1.13,0.24,0.98,1.16,0.98,1.94c0.01,11.32,0.01,22.63,0,33.95
			C90.96,79.87,90.91,80.7,90.05,81.17z"/>
		<path class="st0" d="M48.61,39.34c2.04,6.6,4,12.92,6.03,19.46c-4.1,0-8.01,0-11.95,0C44.63,52.42,46.56,46.07,48.61,39.34z"/>
	</g>
</g>
</svg>
