<?xml version="1.0" encoding="utf-8"?>
<!-- Generator: Adobe Illustrator 26.3.1, SVG Export Plug-In . SVG Version: 6.00 Build 0)  -->
<svg version="1.1" id="Layer_1" xmlns="http://www.w3.org/2000/svg" xmlns:xlink="http://www.w3.org/1999/xlink" x="0px" y="0px"
	 viewBox="0 0 156 156" style="enable-background:new 0 0 156 156;" xml:space="preserve">
<style type="text/css">
	.st0{fill:#C2002F;}
	.st1{fill:#DC0031;}
	.st2{fill:#FEFEFE;}
</style>
<path class="st0" d="M78.02,4.49c17.8,5.01,34.82,12.3,52.38,18.05c4.81,1.57,9.54,3.39,14.34,4.99c2.34,0.78,3.57,1.93,3.19,4.68
	c-2.05,15.21-4.07,30.43-5.91,45.67c-1.4,11.57-2.96,23.14-3.58,34.76c-0.33,6.13-2.17,9.57-7.86,12.53
	c-16.68,8.66-32.92,18.17-49.31,27.37c-1.02,0.57-1.88,1.56-3.24,0.94c-1.19-1.19-1.74-2.71-1.74-4.32
	c-0.02-16.87-0.88-33.74,0.46-50.59c0.75-2.28,2.67-2.76,4.74-2.98c1.6-0.16,3.2-0.13,4.81-0.14c11.34-0.06,11.34-0.06,15.62,10.6
	c0.82,2.05,1.58,4.12,2.48,6.13c1.96,4.36,7.62,6.59,12.04,4.73c3.19-1.34,1.07-3.36,0.4-4.95c-4.5-10.5-9.22-20.9-13.84-31.35
	c-8.74-19.79-17.68-39.5-26.27-59.37C76.42,15.61,74.84,9.86,78.02,4.49z"/>
<path class="st1" d="M78.02,97.26c0,18.74,0,37.48,0,56.23c-9.61-3.47-17.94-9.4-26.9-14.11c-9.57-5.02-18.76-10.78-28.41-15.63
	c-3.14-1.58-4.45-3.8-4.77-6.53c-1.44-11.99-2.44-24.02-3.81-36.02c-1.39-12.15-3-24.28-4.55-36.41c-0.52-4.12,0.11-8.33-1.37-12.4
	c-1.06-2.9,1.05-4,3.52-4.87c16.23-5.68,32.41-11.46,48.62-17.19c5.85-2.07,11.47-4.84,17.67-5.83c0,5.88,0,11.76,0,17.63
	c-0.5,5.33-3.38,9.79-5.47,14.5c-10.78,24.34-21.79,48.57-32.42,72.97c-0.93,2.14-4.14,4.91-0.7,7.23
	c3.15,2.13,9.83-0.16,11.47-3.56c1.91-3.96,3.44-8.11,4.99-12.23c1.47-3.91,4.13-5.87,8.24-5.49
	C68.78,95.97,73.74,93.96,78.02,97.26z"/>
<path class="st2" d="M78.02,97.26c-3.01-0.07-6.01-0.18-9.02-0.19c-10.28-0.02-10.28-0.01-13.77,9.2c-5.2,13.71-5.2,13.71-20.62,12
	c4.53-10.46,8.91-20.85,13.51-31.15c9.51-21.28,19.14-42.51,28.75-63.74c0.22-0.49,0.76-0.84,1.15-1.26
	c7.31,12.7,12.24,26.5,18.36,39.75c8.27,17.9,16.03,36.03,24.02,54.06c0.3,0.68,0.66,1.33,1.39,2.81c-5.2,0-9.72-0.04-14.23,0.02
	c-1.83,0.02-2.53-0.57-3.21-2.51c-1.94-5.53-4.73-10.77-6.63-16.32c-0.82-2.38-1.76-3.02-4.07-2.92
	C88.44,97.23,83.23,97.19,78.02,97.26z"/>
<path class="st1" d="M78.02,82.61c-3.93,0.44-7.86,0.54-12.38-0.16c4.14-9.75,7.38-19.52,12.38-28.56
	c2.61,7.76,1.91,15.78,1.79,23.75C79.78,79.47,79.29,81.19,78.02,82.61z"/>
<path class="st0" d="M78.02,82.61c0-9.57,0-19.15,0-28.72c4.99,9.04,8.24,18.81,12.38,28.56C85.88,83.14,81.95,83.05,78.02,82.61z"
	/>
</svg>
