<svg xmlns="http://www.w3.org/2000/svg" width="84.209" height="47.168" viewBox="0 0 84.209 47.168">
  <g id="Group_8655" data-name="Group 8655" transform="translate(-14820.803 359)">
    <path id="Path_34857" data-name="Path 34857" d="M175.627,173.383H165.37a.915.915,0,0,0-.915.915v5.276a.915.915,0,0,0,.915.915h10.257a.915.915,0,0,0,.915-.915V174.3A.915.915,0,0,0,175.627,173.383Zm-.915,5.276h-8.427v-3.446h8.427Zm-8.355-17.935a.915.915,0,0,1,.915-.915h6.454a.915.915,0,1,1,0,1.831h-6.454A.915.915,0,0,1,166.357,160.723Zm-1.566,3.888a.915.915,0,0,1,.915-.915h9.586a.915.915,0,1,1,0,1.831h-9.586A.914.914,0,0,1,164.79,164.611Zm0,3.887a.915.915,0,0,1,.915-.915h9.586a.915.915,0,1,1,0,1.831h-9.586A.914.914,0,0,1,164.79,168.5Zm-5.17-32.831H94.164a1.832,1.832,0,0,0-1.83,1.83v43.508a1.832,1.832,0,0,0,1.83,1.83H159.62a1.832,1.832,0,0,0,1.83-1.83V137.5A1.832,1.832,0,0,0,159.62,135.667ZM94.164,181.005V137.5H159.62v43.508Zm59.56-39.92H100.059a.915.915,0,0,0-.915.915v34.5a.915.915,0,0,0,.915.915h53.664a.915.915,0,0,0,.915-.915V142a.914.914,0,0,0-.915-.915Zm-15.795,19.288,3.783-7.892h11.1v12.165Zm14.88-9.723H142.588l3.708-7.736h6.513Zm-16.664,9.21-16.733-4.805,10.678-12.141h14.177Zm-14.9,4.693H100.975V151.666l22.64,6.5ZM117.465,154.5l-5.862-1.683v-9.9h16.048Zm-16.489-11.582h8.8v9.373l-8.8-2.526Zm0,23.47H120.57l-3.411,9.2H100.976Zm24.4-7.711,17.761,5.1-9.968,11.81H119.11Zm27.429,16.911H135.567l9.3-11.022a.892.892,0,0,0,.139-.253l7.8,2.24Z" transform="translate(14728.469 -494.667)" fill="#fafafa"/>
  </g>
</svg>
