<svg xmlns="http://www.w3.org/2000/svg" width="41.255" height="61.135" viewBox="0 0 41.255 61.135">
  <g id="Group_5349" data-name="Group 5349" transform="translate(-8108.08 -705)">
    <path id="Path_34756" data-name="Path 34756" d="M200.577,191.89A20.627,20.627,0,1,0,221.2,212.517,20.628,20.628,0,0,0,200.577,191.89Zm12.464,16.951c-.6-.141-1.174-.253-1.733-.35a2.822,2.822,0,0,0-2.522-2.9.521.521,0,0,0-.584.436.516.516,0,0,0,.436.584,1.776,1.776,0,0,1,1.627,1.715c-1-.145-1.93-.243-2.743-.325a12.468,12.468,0,0,1-2.859-.465c-.8-.331-1.032-1.816-1.069-2.526a2.938,2.938,0,0,1,3.013-1.22,6.824,6.824,0,0,0,2.3.417,6.272,6.272,0,0,0,2.707-.622,4.37,4.37,0,0,1,3.073,2.669.516.516,0,0,0,.492.362.535.535,0,0,0,.153-.023.516.516,0,0,0,.34-.645,5.343,5.343,0,0,0-2.891-3.052,6.735,6.735,0,0,1,3.838-.8,17.069,17.069,0,0,1,2.127,4.525c-.725.853-2.814,2.9-5.708,2.222Zm-22.555-12.414a2.437,2.437,0,0,1,1.32,3,.516.516,0,0,0,.959.38,3.473,3.473,0,0,0-1.272-3.943,19.653,19.653,0,0,1,4.275-1.642,5.006,5.006,0,0,1,1.538,3.391.516.516,0,0,0,.512.52h0a.516.516,0,0,0,.516-.512,5.744,5.744,0,0,0-1.417-3.659,19.455,19.455,0,0,1,3.143-.336v3.731a.516.516,0,1,0,1.031,0v-3.731a19.407,19.407,0,0,1,3.139.336,5.748,5.748,0,0,0-1.417,3.658.515.515,0,0,0,.516.512h0a.515.515,0,0,0,.512-.519,5.03,5.03,0,0,1,1.539-3.39,19.609,19.609,0,0,1,4.271,1.643,3.474,3.474,0,0,0-1.269,3.941.514.514,0,0,0,.478.323.509.509,0,0,0,.189-.036.518.518,0,0,0,.293-.667,2.435,2.435,0,0,1,1.314-2.994,18.936,18.936,0,0,1,5.205,4.619,6.884,6.884,0,0,0-3.828,1.1,5.39,5.39,0,0,1-5.287.6,4.592,4.592,0,0,1-2.915-2.772.516.516,0,0,0-1.014.192,4.661,4.661,0,0,0,2.023,2.707,4.475,4.475,0,0,0-2.048,1.472,2.621,2.621,0,0,1-4.446,0,4.477,4.477,0,0,0-2.048-1.472,4.659,4.659,0,0,0,2.023-2.708.515.515,0,1,0-1.013-.191,4.592,4.592,0,0,1-2.915,2.771,5.391,5.391,0,0,1-5.287-.6,6.887,6.887,0,0,0-3.841-1.1,18.906,18.906,0,0,1,5.213-4.621Zm.4,11.9a1.782,1.782,0,0,1,1.625-1.714.516.516,0,0,0-.149-1.021,2.822,2.822,0,0,0-2.522,2.9c-.559.1-1.134.209-1.733.351-2.9.684-5-1.384-5.714-2.231a16.988,16.988,0,0,1,2.12-4.516,6.751,6.751,0,0,1,3.852.8,5.34,5.34,0,0,0-2.89,3.052.515.515,0,1,0,.985.3,4.4,4.4,0,0,1,3.073-2.668,6.27,6.27,0,0,0,2.707.622,6.817,6.817,0,0,0,2.3-.417,2.937,2.937,0,0,1,3.013,1.221c-.036.709-.269,2.192-1.069,2.525a12.479,12.479,0,0,1-2.857.464c-.813.082-1.738.18-2.743.325Zm-9.185,2.991a16.381,16.381,0,0,1,.384-3.525,7.324,7.324,0,0,0,4.045,2.156,6.714,6.714,0,0,0-1.384,2.471c-1.924-.167-3.044-.492-3.044-1.1Zm4.1,1.175a6.5,6.5,0,0,1,1.731-2.514,6.252,6.252,0,0,0,.808-.131,36.162,36.162,0,0,1,4.529-.731c.747.99.272,2.639-.038,3.454-2.762.021-5.167.02-7.03-.079Zm15.627.028v-2.48a.86.86,0,1,0-1.719,0v2.48h0c-2.028,0-3.97.025-5.78.041a5.108,5.108,0,0,0,.068-3.563,11.487,11.487,0,0,0,2.88-.51,3.226,3.226,0,0,0,1.61-2.565,3.468,3.468,0,0,0,4.161,0,3.226,3.226,0,0,0,1.61,2.566,11.485,11.485,0,0,0,2.88.51,5.063,5.063,0,0,0,.054,3.515c-1.806.008-3.743.006-5.765.006Zm6.859-.012c-.307-.835-.737-2.432-.019-3.391a35.973,35.973,0,0,1,4.528.73,6.186,6.186,0,0,0,.809.131,6.612,6.612,0,0,1,1.675,2.354c-1.86.111-4.253.157-6.994.175Zm8.059-.252a6.819,6.819,0,0,0-1.334-2.309,7.325,7.325,0,0,0,4.04-2.152,16.528,16.528,0,0,1,.392,3.578c0,.443-1.141.715-3.1.882Z" transform="translate(7928.13 532.99)" fill="#141418"/>
    <path id="Path_34757" data-name="Path 34757" d="M326.683,45.681l3.3-10.272-3.185.725L326.89,28l-3.3,10.272,3.185-.725Z" transform="translate(7801.917 676.996)" fill="#141418"/>
    <path id="Path_34758" data-name="Path 34758" d="M428.413,68.8l5.85-9.067L431,59.613l2.19-7.83-5.85,9.067,3.264.124Z" transform="translate(7710.75 656.101)" fill="#141418"/>
    <path id="Path_34759" data-name="Path 34759" d="M228.834,74.4l.533-10.777-2.888,1.524-2.019-7.876-.533,10.777,2.888-1.524Z" transform="translate(7889.487 651.278)" fill="#141418"/>
  </g>
</svg>
