<svg xmlns="http://www.w3.org/2000/svg" width="116.621" height="116.376" viewBox="0 0 116.621 116.376">
  <g id="Group_5428" data-name="Group 5428" transform="translate(-1661.014 -3959)">
    <path id="Path_34842" data-name="Path 34842" d="M142.868,14.559a17.8,17.8,0,1,0,17.8,17.8,17.812,17.812,0,0,0-17.8-17.8Zm5.033,24.92a5.976,5.976,0,0,1-2.946,1.964.858.858,0,0,0-.736.982v1.6a.651.651,0,0,1-.736.736h-1.719a.651.651,0,0,1-.736-.736v-1.1c0-.86,0-.86-.86-.982a8.79,8.79,0,0,1-3.069-.86c-.736-.368-.86-.491-.614-1.35.122-.614.368-1.228.491-1.719.246-.614.368-.736.982-.491a11.338,11.338,0,0,0,3.315.982,4.568,4.568,0,0,0,2.209-.246,1.654,1.654,0,0,0,.368-2.946,6.52,6.52,0,0,0-1.228-.736,21.511,21.511,0,0,1-3.437-1.6c-1.719-1.1-2.823-2.455-2.7-4.665a5.121,5.121,0,0,1,3.683-4.788c.86-.368.86-.368.982-1.228V21.31c0-.736.122-.86.86-.86h.614c1.473,0,1.473,0,1.6,1.473,0,1.1,0,1.1,1.1,1.228a7.4,7.4,0,0,1,2.333.736c.368.246.614.491.491.982-.246.614-.368,1.35-.614,1.964s-.368.736-.982.368a6.843,6.843,0,0,0-3.805-.736,2.306,2.306,0,0,0-.982.246,1.465,1.465,0,0,0-.368,2.578,5.1,5.1,0,0,0,1.6.86,21.591,21.591,0,0,1,2.946,1.35,5.053,5.053,0,0,1,1.964,7.979ZM99.289,70.537h40.142V59.366a3.437,3.437,0,0,1,6.875,0V70.537h40.02a3.431,3.431,0,0,1,3.437,3.437V87.723a3.437,3.437,0,1,1-6.875,0V77.412H146.306V87.723a3.437,3.437,0,1,1-6.875,0V77.412H102.726V87.723a3.431,3.431,0,0,1-3.437,3.437,3.513,3.513,0,0,1-3.437-3.437V73.975a3.287,3.287,0,0,1,3.438-3.437Zm-6.138,49.472a6.08,6.08,0,0,0,.614-1.964,9.491,9.491,0,0,1-1.719-4.419c-.368,0-.86-.614-1.473-2.578-.736-2.7,0-3.069.736-2.946a6.561,6.561,0,0,1-.122-4.051,7.839,7.839,0,0,1,2.087-3.683,21.523,21.523,0,0,1,1.841-1.6,13.5,13.5,0,0,1,1.841-.982c.491-.122,1.1-.246,1.719-.368a6.838,6.838,0,0,1,4.174.86,5.894,5.894,0,0,1,2.087,1.964s3.683.246,2.087,8.225c.491.122.86.86.246,2.946-.736,2.578-1.35,2.7-1.719,2.455a10.369,10.369,0,0,1-1.6,4.051,5.229,5.229,0,0,0,.736,2.209,45.413,45.413,0,0,0,7.488,2.578l1.1.368a17.034,17.034,0,0,1-14.363,7.611,17.335,17.335,0,0,1-14.363-7.611,2.94,2.94,0,0,1,1.1-.368,44.294,44.294,0,0,0,7.489-2.7Zm43.948,0a6.08,6.08,0,0,0,.614-1.964,9.491,9.491,0,0,1-1.719-4.419c-.368,0-.86-.614-1.473-2.578-.736-2.7,0-3.069.736-2.946a6.561,6.561,0,0,1-.122-4.051,7.839,7.839,0,0,1,2.087-3.683,21.521,21.521,0,0,1,1.841-1.6,13.5,13.5,0,0,1,1.841-.982c.491-.122,1.1-.246,1.719-.368a6.838,6.838,0,0,1,4.174.86,5.894,5.894,0,0,1,2.087,1.964s3.683.246,2.087,8.225c.491.122.86.86.246,2.946-.736,2.578-1.35,2.7-1.719,2.455a10.368,10.368,0,0,1-1.6,4.051,5.229,5.229,0,0,0,.736,2.209,45.413,45.413,0,0,0,7.488,2.578l1.1.368a17.034,17.034,0,0,1-14.363,7.611,17.335,17.335,0,0,1-14.363-7.611,2.94,2.94,0,0,1,1.1-.368,44.258,44.258,0,0,0,7.489-2.7Zm49.595,10.926a17.335,17.335,0,0,1-14.363-7.611,2.939,2.939,0,0,1,1.1-.368,43.259,43.259,0,0,0,7.611-2.7,6.08,6.08,0,0,0,.614-1.964,9.49,9.49,0,0,1-1.719-4.419c-.368,0-.86-.614-1.473-2.578-.736-2.7,0-3.069.736-2.946a6.561,6.561,0,0,1-.122-4.051,7.839,7.839,0,0,1,2.087-3.683,21.525,21.525,0,0,1,1.841-1.6,13.5,13.5,0,0,1,1.841-.982c.491-.122,1.1-.246,1.719-.368a6.838,6.838,0,0,1,4.174.86,5.894,5.894,0,0,1,2.087,1.964s3.805.246,2.087,8.225c.491.122.86.86.246,2.946-.736,2.578-1.35,2.7-1.719,2.455a10.368,10.368,0,0,1-1.6,4.051,5.229,5.229,0,0,0,.736,2.209,45.415,45.415,0,0,0,7.488,2.578l1.1.368a17.723,17.723,0,0,1-14.484,7.612Z" transform="translate(1576.457 3944.441)" fill="#ff5851"/>
  </g>
</svg>
