<svg xmlns="http://www.w3.org/2000/svg" width="17.291" height="17.371" viewBox="0 0 17.291 17.371">
  <g id="Group_25" data-name="Group 25" transform="translate(-160.495 -1362.048)">
    <path id="Path_1910" data-name="Path 1910" d="M101.886,23.169a.782.782,0,0,0-.878.658A7.057,7.057,0,0,1,99,27.851a7.126,7.126,0,1,1,0-10.078l.2.2H98.027a.786.786,0,0,0,0,1.573h3.054a.781.781,0,0,0,.786-.786V15.706a.786.786,0,1,0-1.573,0v1.171l-.2-.2a8.688,8.688,0,1,0,0,12.291,8.552,8.552,0,0,0,2.451-4.9.773.773,0,0,0-.659-.9Z" transform="translate(75.23 1347.91)" fill="#141418"/>
    <path id="Path_1911" data-name="Path 1911" d="M330.394,131.578l-2.323-1.061-.037-3.749a.777.777,0,0,0-.786-.768.765.765,0,0,0-.768.786l.018,4.243a.743.743,0,0,0,.457.7l2.78,1.262a.717.717,0,0,0,.329.073.776.776,0,0,0,.329-1.481Z" transform="translate(-158.107 1239.701)" fill="#141418"/>
  </g>
</svg>
