<svg xmlns="http://www.w3.org/2000/svg" width="61.528" height="69.778" viewBox="0 0 61.528 69.778">
  <path id="Path_34844" data-name="Path 34844" d="M189.094,46.186l-26.9-34.393a3.084,3.084,0,0,0-5.02,0l-28.4,34.393a3.152,3.152,0,0,0,2.547,5.02h12.513v26a3.086,3.086,0,0,0,3.072,3.072h25.7a3.086,3.086,0,0,0,3.072-3.072V51.131H186.7a3.117,3.117,0,0,0,2.4-4.945ZM166.016,57.5a8.351,8.351,0,0,1-4.346,2.922v3.072c0,.3-.15.375-.45.375h-4.645c-.3,0-.375-.15-.375-.375V60.423a9.921,9.921,0,0,1-2.547-1.2,8.956,8.956,0,0,1-1.948-1.8,8.294,8.294,0,0,1-1.274-2.248,7.617,7.617,0,0,1-.449-2.547c0-.3.15-.375.449-.375h5.62c.15,0,.225,0,.3.075a.39.39,0,0,1,.15.3,1.363,1.363,0,0,0,.749,1.2,3.337,3.337,0,0,0,1.723.525,2.374,2.374,0,0,0,1.723-.674,1.942,1.942,0,0,0,.674-1.348v-.525a.647.647,0,0,0-.225-.449,7.638,7.638,0,0,0-3-1.274c-1.124-.3-2.1-.674-2.922-.974a8.739,8.739,0,0,1-2.173-1.274,7.049,7.049,0,0,1-3-5.919,6.506,6.506,0,0,1,.824-3.072,7.064,7.064,0,0,1,2.248-2.473,9.768,9.768,0,0,1,3.222-1.5V31.8c0-.15,0-.225.075-.3a.39.39,0,0,1,.3-.15h4.645a.531.531,0,0,1,.449.449v3.147a8.569,8.569,0,0,1,3.672,2.1,8.176,8.176,0,0,1,2.173,3.372c.075.3,0,.449-.225.525l-5.395,1.723h-.15c-.225,0-.3-.075-.375-.3a1.675,1.675,0,0,0-.974-1.049,3.667,3.667,0,0,0-1.424-.375,3.459,3.459,0,0,0-1.723.375,5.254,5.254,0,0,0-.75.525.566.566,0,0,0,.075.3,1.271,1.271,0,0,0,.449.449,9.881,9.881,0,0,0,.974.525,12.486,12.486,0,0,0,1.8.6,22.833,22.833,0,0,1,2.7.9,8.776,8.776,0,0,1,2.547,1.5,7.528,7.528,0,0,1,2.173,2.7,8.6,8.6,0,0,1,.749,3.447,10.124,10.124,0,0,1-2.1,5.245Z" transform="translate(-128.167 -10.501)" fill="#ff5851"/>
</svg>
