<svg xmlns="http://www.w3.org/2000/svg" width="49.891" height="62.364" viewBox="0 0 49.891 62.364">
  <g id="Group_32" data-name="Group 32" transform="translate(-37.614 -3166)">
    <path id="Path_1968" data-name="Path 1968" d="M186.772,28.933H169.1V20.618a3.062,3.062,0,0,0-3.118-3.118H143.118A3.063,3.063,0,0,0,140,20.618V48.682a6.255,6.255,0,0,0,6.236,6.236h14.551V76.745h2.079V35.17a6.622,6.622,0,0,0-1.559-4.158h25.466a.982.982,0,0,1,1.039,1.039V76.745h2.079V32.051a3.063,3.063,0,0,0-3.118-3.118ZM142.079,48.682V20.618a.982.982,0,0,1,1.039-1.039h22.866a.982.982,0,0,1,1.039,1.039v8.315H156.63a6.255,6.255,0,0,0-6.236,6.236V48.682a4.158,4.158,0,1,1-8.315,0ZM160.788,35.17v17.67h-9.874a6.082,6.082,0,0,0,1.559-4.158V35.17a4.158,4.158,0,1,1,8.315,0Z" transform="translate(-102.386 3148.5)" fill="#fafafa"/>
    <path id="Path_1969" data-name="Path 1969" d="M227.5,61.25h8.315v2.079H227.5Z" transform="translate(-179.492 3109.947)" fill="#fafafa"/>
    <path id="Path_1970" data-name="Path 1970" d="M183.75,96.25h6.236v2.079H183.75Z" transform="translate(-140.939 3079.104)" fill="#fafafa"/>
    <path id="Path_1971" data-name="Path 1971" d="M183.75,140h4.158v2.079H183.75Z" transform="translate(-140.939 3040.552)" fill="#fafafa"/>
    <path id="Path_1972" data-name="Path 1972" d="M183.75,183.75h3.118v2.079H183.75Z" transform="translate(-140.939 3001.998)" fill="#fafafa"/>
    <path id="Path_1973" data-name="Path 1973" d="M183.75,227.5h3.118v2.079H183.75Z" transform="translate(-140.939 2963.445)" fill="#fafafa"/>
    <path id="Path_1974" data-name="Path 1974" d="M183.75,271.25h3.118v2.079H183.75Z" transform="translate(-140.939 2924.892)" fill="#fafafa"/>
    <path id="Path_1975" data-name="Path 1975" d="M358.75,166.25h10.394v2.079H358.75Z" transform="translate(-295.152 3017.42)" fill="#fafafa"/>
    <path id="Path_1976" data-name="Path 1976" d="M358.75,210h10.394v2.079H358.75Z" transform="translate(-295.152 2978.866)" fill="#fafafa"/>
    <path id="Path_1977" data-name="Path 1977" d="M358.75,253.75h10.394v2.079H358.75Z" transform="translate(-295.152 2940.313)" fill="#fafafa"/>
    <path id="Path_1978" data-name="Path 1978" d="M358.75,297.5h10.394v2.079H358.75Z" transform="translate(-295.152 2901.76)" fill="#fafafa"/>
    <path id="Path_1979" data-name="Path 1979" d="M481.25,166.25h4.158v2.079H481.25Z" transform="translate(-403.1 3017.42)" fill="#fafafa"/>
    <path id="Path_1980" data-name="Path 1980" d="M481.25,210h4.158v2.079H481.25Z" transform="translate(-403.1 2978.866)" fill="#fafafa"/>
    <path id="Path_1981" data-name="Path 1981" d="M481.25,253.75h4.158v2.079H481.25Z" transform="translate(-403.1 2940.313)" fill="#fafafa"/>
    <path id="Path_1982" data-name="Path 1982" d="M481.25,297.5h4.158v2.079H481.25Z" transform="translate(-403.1 2901.76)" fill="#fafafa"/>
    <path id="Path_1983" data-name="Path 1983" d="M358.75,525h3.118v2.079H358.75Z" transform="translate(-295.152 2701.284)" fill="#fafafa"/>
    <path id="Path_1984" data-name="Path 1984" d="M402.5,525h3.118v2.079H402.5Z" transform="translate(-333.705 2701.284)" fill="#fafafa"/>
    <path id="Path_1985" data-name="Path 1985" d="M446.25,525h3.118v2.079H446.25Z" transform="translate(-372.258 2701.284)" fill="#fafafa"/>
    <path id="Path_1986" data-name="Path 1986" d="M490,525h3.118v2.079H490Z" transform="translate(-410.811 2701.284)" fill="#fafafa"/>
    <path id="Path_1987" data-name="Path 1987" d="M358.75,341.25h10.394v2.079H358.75Z" transform="translate(-295.152 2863.207)" fill="#fafafa"/>
    <path id="Path_1988" data-name="Path 1988" d="M358.75,385h10.394v2.079H358.75Z" transform="translate(-295.152 2824.654)" fill="#fafafa"/>
    <path id="Path_1989" data-name="Path 1989" d="M358.75,428.75h10.394v2.079H358.75Z" transform="translate(-295.152 2786.101)" fill="#fafafa"/>
    <path id="Path_1990" data-name="Path 1990" d="M358.75,472.5h10.394v2.079H358.75Z" transform="translate(-295.152 2747.548)" fill="#fafafa"/>
    <path id="Path_1991" data-name="Path 1991" d="M481.25,341.25h4.158v2.079H481.25Z" transform="translate(-403.1 2863.207)" fill="#fafafa"/>
    <path id="Path_1992" data-name="Path 1992" d="M481.25,385h4.158v2.079H481.25Z" transform="translate(-403.1 2824.654)" fill="#fafafa"/>
    <path id="Path_1993" data-name="Path 1993" d="M481.25,428.75h4.158v2.079H481.25Z" transform="translate(-403.1 2786.101)" fill="#fafafa"/>
    <path id="Path_1994" data-name="Path 1994" d="M481.25,472.5h4.158v2.079H481.25Z" transform="translate(-403.1 2747.548)" fill="#fafafa"/>
    <path id="Path_1995" data-name="Path 1995" d="M315,525h3.118v2.079H315Z" transform="translate(-256.599 2701.284)" fill="#fafafa"/>
    <path id="Path_1996" data-name="Path 1996" d="M533.75,525h3.118v2.079H533.75Z" transform="translate(-449.364 2701.284)" fill="#fafafa"/>
  </g>
</svg>
