<?xml version="1.0" encoding="utf-8"?>
<!-- Generator: Adobe Illustrator 26.3.1, SVG Export Plug-In . SVG Version: 6.00 Build 0)  -->
<svg version="1.1" id="Layer_1" xmlns="http://www.w3.org/2000/svg" xmlns:xlink="http://www.w3.org/1999/xlink" x="0px" y="0px"
	 viewBox="0 0 94 116" style="enable-background:new 0 0 94 116;" xml:space="preserve">
<style type="text/css">
	.st0{fill:#FEFEFE;}
	.st1{fill:#55D1FE;}
	.st2{fill:#1A68A7;}
	.st3{fill:#47C4FA;}
	.st4{fill:#00569D;}
	.st5{fill:#00B4F7;}
	.st6{fill:#003F75;}
	.st7{fill:#003562;}
	.st8{fill:#003D70;}
</style>
<g>
	<g>
		<path class="st0" d="M94,1.29c0,17.24,0,34.49,0,51.73c-1.92,1.72-4.3,1.33-6.57,1.38c-9.35,0.22-18.71-0.41-28.04,0.37
			c-5.19,3.15-9.44,7.41-13.65,11.71c-4.64,4.45-9.14,9.02-13.68,13.57c-3.79,3.79-3.77,3.85,0.17,7.8
			c4.42,4.43,8.86,8.85,13.32,13.24c4.13,4.58,9.05,8.39,12.78,13.35c0.14,0.48,0.03,0.89-0.3,1.26c-18.24,0-36.48-0.08-54.72,0.08
			c-2.76,0.02-3.34-0.55-3.31-3.3C0.16,94.32,0.08,76.16,0.08,58c0.38-0.33,0.81-0.42,1.3-0.28c4.24,2.99,7.5,7.02,11.19,10.6
			c5.55,5.37,5.35,5.28,10.84,0.17C46.63,46.86,68.68,24.04,91.37,1.87C92.18,1.38,92.99,0.85,94,1.29z"/>
		<path class="st0" d="M0.83,58.01C0.58,58,0.33,58,0.08,58c0-18.24,0.06-36.48-0.07-54.72C0,0.79,0.58,0.21,3.08,0.23
			C21.4,0.35,39.71,0.3,58.03,0.3c0.33,0.38,0.42,0.82,0.28,1.3c-0.83,1.66-2.27,2.82-3.55,4.1C38.5,21.91,22.23,38.12,5.93,54.3
			C4.44,55.78,3.22,57.71,0.83,58.01z"/>
		<path class="st0" d="M57.02,53.98c1.49-1.56,3.43-0.92,5.18-0.93C72.8,53,83.4,53.03,94,53.03c0,20.56,0,41.12,0,61.68
			c-0.39,0.35-0.82,0.42-1.29,0.17c-10.36-8.85-19.52-18.91-29.13-28.52c-0.83-0.83-1.3-1.92-1.07-3.18c1-2.77,3.34-4.46,5.32-6.41
			c7.13-7.03,13.95-14.37,22.09-21.44c-9.39-0.01-18.09,0.03-26.8-0.03C61.03,55.29,58.77,55.73,57.02,53.98z"/>
		<path class="st1" d="M57.74,1.17c0.05-0.31,0.14-0.6,0.29-0.88c11.16,0,22.31-0.03,33.47,0.07c0.75,0.01,2.42-1.28,2.5,0.92
			c-0.68,0.31-1.36,0.62-2.03,0.93c-10.38,1.27-20.79,0.57-31.19,0.4C59.61,2.61,58.5,2.17,57.74,1.17z"/>
		<path class="st2" d="M93.08,114.69c0.31,0,0.61,0,0.92,0.02c-0.08,2.21-1.75,0.92-2.5,0.92c-11.16,0.1-22.31,0.07-33.47,0.07
			c0.01-0.33,0-0.65-0.05-0.97c1.39-1.49,3.25-1.54,5.06-1.57c8.12-0.12,16.24-0.07,24.35-0.03
			C89.44,113.13,91.32,113.69,93.08,114.69z"/>
		<path class="st3" d="M57.74,1.17c9.7,0.04,19.39,0.05,29.09,0.15c1.73,0.02,3.65-0.65,5.14,0.91
			C73.79,20.42,55.84,38.85,37.3,56.68c-5.47,5.26-11.06,10.46-16.47,15.81c-2.23,2.2-3.43,2.14-5.52-0.07
			c-4.67-4.95-9.63-9.62-14.47-14.4c5.18-5.33,10.29-10.73,15.57-15.97C30.14,28.38,43.96,14.79,57.74,1.17z"/>
		<path class="st4" d="M93.08,114.69c-11.7,0.01-23.4,0.03-35.1,0.04c-4.35-4.35-8.69-8.69-13.04-13.04
			c-0.18-1.2,0.72-1.5,1.56-1.86c1.04-0.32,2.1-0.56,3.12-0.97c0.38-0.19,0.78-0.35,1.17-0.52c2.74-1.86,2.99-5.09,4.32-7.73
			c1.55-2.89,3.86-5.06,6.51-6.92c0.47-0.16,0.89-0.07,1.27,0.24C72.95,94.18,83.01,104.43,93.08,114.69z"/>
		<path class="st3" d="M62.88,83.93c-0.26,0-0.52,0.01-0.77,0.03c-6.69-4.4-11.69-10.54-17.04-16.32c-0.46-0.5-0.42-1.22-0.07-1.85
			c3.01-4.94,8.59-7.29,12.02-11.81c11.76,0,23.51,0,36.41,0C82.25,63.88,72.39,73.73,62.88,83.93z"/>
		<path class="st5" d="M45,65.79c5.7,6.06,11.4,12.11,17.11,18.17c-2.03,2.24-4.06,4.49-6.1,6.73c-0.99,1.62-2.12,3.14-3.39,4.56
			c-0.76,0.76-1.52,1.52-2.26,2.3c-1.07,1.11-2.28,2.08-3.32,3.22c-0.83,0.01-1.64,0.07-2.1,0.92c-5.56-5.4-11.09-10.83-16.7-16.17
			c-1.42-1.35-1.39-2.29,0.01-3.62C33.88,76.58,39.43,71.17,45,65.79z"/>
		<path class="st6" d="M52,94.72c1.34-1.34,2.67-2.68,4.01-4.02c-1.22,3.25-1.38,7.08-4.98,9.02C49.4,97.67,51.33,96.32,52,94.72z"
			/>
		<path class="st7" d="M47.04,100.78c-0.06-2.12,1.49-3.09,2.96-4.12c0.74,1.02,0.72,2.05,0.02,3.08
			C49.03,100.08,48.03,100.43,47.04,100.78z"/>
		<path class="st8" d="M50.02,99.73c-0.01-1.03-0.01-2.05-0.02-3.08c0.67-0.65,1.33-1.29,2-1.93c-0.32,1.67-0.65,3.34-0.97,5
			C50.69,99.72,50.36,99.73,50.02,99.73z"/>
	</g>
</g>
</svg>
