<?xml version="1.0" encoding="utf-8"?>
<!-- Generator: Adobe Illustrator 26.3.1, SVG Export Plug-In . SVG Version: 6.00 Build 0)  -->
<svg version="1.1" id="Layer_1" xmlns="http://www.w3.org/2000/svg" xmlns:xlink="http://www.w3.org/1999/xlink" x="0px" y="0px"
	 viewBox="0 0 134 134" style="enable-background:new 0 0 134 134;" xml:space="preserve">
<style type="text/css">
	.st0{fill:#FEFEFE;}
	.st1{fill:#488BFE;}
	.st2{fill:#488AFE;}
</style>
<g>
	<g>
		<path class="st0" d="M133.94,66.97c0,21.29-0.03,42.58,0.05,63.87c0.01,2.27-0.23,3.17-2.95,3.17
			c-42.75-0.11-85.49-0.11-128.24-0.01c-2.44,0.01-2.77-0.59-2.77-2.85C0.11,88.4,0.13,45.65,0,2.91c-0.01-2.89,1.13-2.87,3.24-2.87
			C45.82,0.08,88.4,0.1,130.98,0c2.58-0.01,3.03,0.68,3.02,3.1C133.9,24.39,133.94,45.68,133.94,66.97z"/>
		<path class="st1" d="M84.43,7.45c-0.71,0.65-1.4,1-1.64,1.55c-1.43,3.19-3.04,3.45-6.67,2.37c-12.49-3.7-23.7-0.81-32.17,9.4
			c-7.53,9.08-9.32,19.63-4.71,30.56c5,11.86,14.22,18.14,27.3,18.7c18.78,0.8,35.13-17.91,29.31-37.51
			c-1.49-5.02,1.57-5.86,4.31-7.65c8.72,15.61,1.6,34.32-8.74,42.8C73.84,82.1,54.36,79.24,41.24,66.33
			c-13.11-12.91-15.51-31.1-4.44-47.4C47.41,3.31,66.6-1.16,84.43,7.45z"/>
		<path class="st2" d="M50.04,39.79c0.17-9.11,8.35-16.98,17.41-16.74c8.85,0.23,16.65,8.3,16.55,17.1
			C83.89,49.1,75.38,57.33,66.59,57C57.76,56.67,49.88,48.47,50.04,39.79z"/>
		<path class="st1" d="M52.12,113.58c-0.01-3.98-0.06-7.97,0.03-11.95c0.03-1.21-0.65-3.04,1.08-3.4c1.72-0.36,5.02-0.42,5.17,0.11
			c1.23,4.21,3.16,1.26,4.6,0.58c8.1-3.79,15.78-1.88,18.95,5.23c1.23,2.77,1.72,6,1.93,9.07c0.32,4.46-0.1,8.97,0.14,13.44
			c0.18,3.29-1.62,3.34-4,3.3c-2.27-0.04-4.25,0.2-4.08-3.2c0.25-4.8,0.14-9.63,0.04-14.44c-0.11-5.06-2.95-8.32-7.09-8.37
			c-5.38-0.06-8.75,3.09-8.85,8.41c-0.08,4.48-0.2,8.97,0.05,13.44c0.18,3.22-0.8,4.29-4.12,4.24c-3.08-0.05-4.06-0.98-3.89-4.01
			C52.3,121.89,52.13,117.73,52.12,113.58z"/>
		<path class="st1" d="M49.04,114.04c-0.04,9.39-7.75,17.16-16.97,16.85c-10.8-0.35-16.99-8.72-16.78-17.28
			c0.23-9.21,7.01-16.44,16.98-16.61C41.59,96.85,49.08,104.63,49.04,114.04z"/>
		<path class="st1" d="M106.79,115.12c-0.53,3.24,1.71,6.32,5.33,8.09c3.47,1.7,7.34,1.44,10.03-1.66c2.93-3.38,5.11-0.51,6.55,0.93
			c2.33,2.34-1.17,3.31-2.24,4.23c-5.17,4.44-10.97,5.52-17.39,2.43c-6.33-3.04-9.74-8.36-9.86-14.89
			c-0.12-6.53,3.04-12.07,9.33-15.17c6.82-3.36,12.89-2.69,18.26,2.32c1.03,0.96,4.01,2.01,1.99,3.93c-1.49,1.42-3.3,4.29-6.6,1.27
			c-4.79-4.4-10.35-3.38-14.03,1.64C106.81,110.05,107.06,111.99,106.79,115.12z"/>
		<path class="st2" d="M4.09,113.95c0-4.14,0.23-8.3-0.07-12.43c-0.26-3.5,1.54-3.65,4.19-3.62c2.43,0.03,4.02,0.12,3.94,3.36
			c-0.21,8.45-0.21,16.91,0,25.36c0.08,3.22-1.5,3.34-3.94,3.36c-2.64,0.03-4.45-0.1-4.19-3.61C4.32,122.25,4.09,118.09,4.09,113.95
			z"/>
		<path class="st2" d="M95.98,113.73c0,4.31-0.19,8.63,0.06,12.93c0.2,3.28-1.58,3.38-3.97,3.3c-2.19-0.07-4.22,0.34-4.14-3.12
			c0.2-8.61,0.2-17.24,0-25.86c-0.08-3.55,2.11-2.91,4.22-3.04c2.49-0.16,4.1,0.18,3.9,3.37C95.79,105.43,95.98,109.59,95.98,113.73
			z"/>
		<path class="st1" d="M83.58,17.05c-0.04-3.79,3.64-7.82,7.28-7.97c3.61-0.14,8.04,4.15,8.11,7.84c0.07,3.6-4.48,8.13-8.05,8.01
			C87.17,24.81,83.62,20.99,83.58,17.05z"/>
		<path class="st0" d="M23.06,113.7c0.05-5.91,3.78-9.76,9.44-9.75c5.36,0.01,9.47,4.33,9.49,9.98c0.02,5.85-4.24,10.11-9.98,10
			C26.45,123.82,23.01,119.89,23.06,113.7z"/>
	</g>
</g>
</svg>
