<svg xmlns="http://www.w3.org/2000/svg" width="41.041" height="44.191" viewBox="0 0 41.041 44.191">
  <g id="Group_5423" data-name="Group 5423" transform="translate(-299.629 -3739.838)">
    <path id="Path_34808" data-name="Path 34808" d="M239.37,119.412a2.589,2.589,0,0,0-3.33-2.635l-25.568,8.16a2.745,2.745,0,0,0-1.784,2.636v22.585a10.3,10.3,0,0,0-2.62-.347c-4.23,0-7.734,2.494-7.734,5.54s3.5,5.508,7.734,5.508,7.67-2.478,7.67-5.54V135.164l20.518-6.487v15.957a10.344,10.344,0,0,0-2.557-.347c-4.23,0-7.67,2.478-7.67,5.54s3.441,5.524,7.67,5.524,7.671-2.477,7.671-5.539Z" transform="translate(101.295 3623.172)" fill="#fafafa"/>
  </g>
</svg>
