<svg xmlns="http://www.w3.org/2000/svg" width="35.646" height="42.248" viewBox="0 0 35.646 42.248">
  <g id="Group_65" data-name="Group 65" transform="translate(-7032.328 -3475)">
    <path id="Path_26398" data-name="Path 26398" d="M305.621,163.242a4.626,4.626,0,1,0-3.266-1.355A4.622,4.622,0,0,0,305.621,163.242Zm0-6.6a1.981,1.981,0,1,1-1.4.58A1.979,1.979,0,0,1,305.621,156.64Z" transform="translate(6744.53 3330.242)" fill="#fafafa"/>
    <path id="Path_26399" data-name="Path 26399" d="M267.582,129.163a8.591,8.591,0,1,0-6.065-2.516A8.582,8.582,0,0,0,267.582,129.163Zm0-14.523a5.948,5.948,0,1,1-4.2,1.742A5.94,5.94,0,0,1,267.582,114.64Z" transform="translate(6782.57 3368.281)" fill="#fafafa"/>
    <path id="Path_26400" data-name="Path 26400" d="M422.64,106.32a1.32,1.32,0,1,1-1.32-1.32,1.32,1.32,0,0,1,1.32,1.32" transform="translate(6636.752 3374.621)" fill="#fafafa"/>
    <path id="Path_26401" data-name="Path 26401" d="M203,59.961v19.8a3.965,3.965,0,0,0,3.961,3.961h19.8a3.965,3.965,0,0,0,3.961-3.961v-19.8A3.965,3.965,0,0,0,226.764,56h-19.8A3.965,3.965,0,0,0,203,59.961Zm25.085,0v19.8a1.321,1.321,0,0,1-1.32,1.32h-19.8a1.32,1.32,0,0,1-1.32-1.32v-19.8a1.32,1.32,0,0,1,1.32-1.32h19.8a1.321,1.321,0,0,1,1.32,1.32Z" transform="translate(6833.289 3419)" fill="#fafafa"/>
    <path id="Path_26402" data-name="Path 26402" d="M164.961,218.705h27.725a3.965,3.965,0,0,0,3.961-3.961V190.32a1.32,1.32,0,0,0-2.64,0v18.054a3.942,3.942,0,0,0-1.32-.231H164.961a3.943,3.943,0,0,0-1.32.231V190.32a1.32,1.32,0,0,0-2.64,0v24.424a3.965,3.965,0,0,0,3.961,3.961Zm0-7.921h27.725a1.321,1.321,0,0,1,1.32,1.32v2.64a1.321,1.321,0,0,1-1.32,1.32H164.961a1.32,1.32,0,0,1-1.32-1.32V212.1A1.32,1.32,0,0,1,164.961,210.784Z" transform="translate(6871.328 3298.542)" fill="#fafafa"/>
  </g>
</svg>
