<svg xmlns="http://www.w3.org/2000/svg" width="334.869" height="62.788" viewBox="0 0 334.869 62.788">
  <g id="onekana-logo" transform="translate(-53.037 -34.835)">
    <path id="Path_26246" data-name="Path 26246" d="M118.061,156.485a27.17,27.17,0,0,1-12.261-1.449c.47-1.214,1.606-1.606,2.585-2.194,2.86-1.645,5.758-3.251,8.579-4.936.823-.509,1.724-.9,2.154-1.88.392-.509,1.018-.509,1.567-.666a17.909,17.909,0,0,0,7.834-4.5,5.342,5.342,0,0,1,2.272-1.763c2.272-.353,3.956-1.841,5.876-2.9,2.154-1.175,4.231-2.507,6.385-3.643a2.954,2.954,0,0,1,2.35-.666,24.742,24.742,0,0,1-4.191,10.968c-6.855,3.761-13.514,7.756-20.33,11.595A24.622,24.622,0,0,0,118.061,156.485Z" transform="translate(-32.095 -58.989)" fill="#4b7abc"/>
    <path id="Path_26247" data-name="Path 26247" d="M494.987,89.511c-2.233,3.095-4.583,6.111-7.051,9.01-5.092,3.525-10.655,6.307-15.943,9.48-2.468,1.489-4.975,2.86-7.443,4.309-.705.392-1.41.979-2.35.705v-5.092a3.352,3.352,0,0,1,1.88-1.567c2.585-1.293,4.818-3.212,7.639-4.035.705.235.117,1.018.548,1.332,1.018-1.175,2.037-2.389,3.055-3.565,5.6-3.8,11.712-6.816,17.471-10.341C493.5,89.315,494.2,88.884,494.987,89.511Z" transform="translate(-248.886 -33.067)" fill="#3a83c3"/>
    <path id="Path_26248" data-name="Path 26248" d="M823.086,84.1a11.126,11.126,0,0,1,5.092,2.272c.2,1.018-.627,1.332-1.254,1.763-2.272,1.528-4.818,2.585-7.012,4.27-.627.509-1.528.313-2.272.588-4.152.47-6.894,3.134-9.4,6.111-3.134,1.489-6.111,3.408-9.127,5.092-.666.392-1.293,1.175-2.272.627a14.388,14.388,0,0,1,1.1-6.777,7.944,7.944,0,0,0,3.917-1.645C808.905,92.287,816.074,88.291,823.086,84.1Z" transform="translate(-452.418 -29.967)" fill="#248bc8"/>
    <path id="Path_26249" data-name="Path 26249" d="M60.1,57.029a26.167,26.167,0,0,1,9.48-11.791,29.634,29.634,0,0,1,20.252-5.445c.078.94-.705,1.175-1.293,1.489-8.775,5.092-17.51,10.224-26.324,15.238C61.589,56.873,61,57.578,60.1,57.029Z" transform="translate(-4.296 -2.935)" fill="#1c8eca"/>
    <path id="Path_26250" data-name="Path 26250" d="M553.635,103.277a9.208,9.208,0,0,1,.744-4.348c3.917-1.684,7.4-4.113,11.047-6.189,4.857-2.781,9.832-5.367,14.454-8.539a11.818,11.818,0,0,1,5.092,2.311c.157,1.1-.744,1.449-1.41,1.88-2.194,1.371-4.544,2.546-6.659,4.035-.744.509-1.645.353-2.429.627-3.682.627-6.777,2.194-8.735,5.523a3.264,3.264,0,0,1-1.1,1.1c-2.86,1.175-5.367,2.977-8.069,4.426-.392.2-.783.47-1.175.666-.548.235-1.136.627-1.645.157C553.243,104.491,553.361,103.864,553.635,103.277Z" transform="translate(-304.361 -30.028)" fill="#248bc8"/>
    <path id="Path_26251" data-name="Path 26251" d="M462.2,127.494c7.834-4.5,15.63-8.97,23.464-13.475A20.605,20.605,0,0,1,487.975,113c-1.919,2.507-3.8,5.014-5.719,7.482-.353.47-.823.823-.862,1.449-.783,1.606-6.542,4.9-8.226,4.74-.274-.274-.548-.548-.862-.823-.392.548.039,1.254-.313,1.8a57.026,57.026,0,0,1-8.657,5.21,1.172,1.172,0,0,1-1.136.078Z" transform="translate(-248.886 -47.546)" fill="#3d82c1"/>
    <path id="Path_26252" data-name="Path 26252" d="M833.717,163.406a7.392,7.392,0,0,1-3.917-1.175c.431-1.214,1.606-1.606,2.585-2.194,2.389-1.371,4.818-2.742,7.169-4.191.509-.313,1.253-.509,1.175-1.371a1.673,1.673,0,0,1,1.175-.627,10.335,10.335,0,0,0,5.523-3.055,2.762,2.762,0,0,1,1.449-.94,4.934,4.934,0,0,0,2.7-1.058c2.194-1.293,4.426-2.507,6.62-3.8.627-.353,1.293-.979,2.154-.431v3.917c-.235.666-.862.94-1.41,1.293-7.443,4.309-14.846,8.618-22.328,12.888C835.715,163.171,834.892,163.915,833.717,163.406Z" transform="translate(-472.49 -66.615)" fill="#447ebf"/>
    <path id="Path_26253" data-name="Path 26253" d="M590.656,164.068a7.856,7.856,0,0,1-3.956-1.136c.274-.979,1.1-1.371,1.88-1.841,2.389-1.41,4.779-2.82,7.208-4.191a3.978,3.978,0,0,0,1.959-1.8,23.5,23.5,0,0,0,7.443-3.956c3.29-1.136,5.993-3.33,9.088-4.818.862-.431,1.724-1.606,2.9-.47.039,1.136,0,2.272,0,3.408-.078.588-.588.823-1.018,1.058-7.756,4.348-15.434,8.814-23.111,13.279A2.518,2.518,0,0,1,590.656,164.068Z" transform="translate(-324.617 -67.237)" fill="#447ebf"/>
    <path id="Path_26254" data-name="Path 26254" d="M347.265,131.976a8.842,8.842,0,0,1-1.763.039c-.979-.118-1.018.47-.979,1.175-2.076,2.233-4.857,3.33-7.482,4.583-.235.118-.509-.078-.705-.274a15.841,15.841,0,0,1-1.136-5.876c2.311-2.037,5.171-3.212,7.756-4.779a20.667,20.667,0,0,1,4.035-2.311,74.408,74.408,0,0,1,10.655.039c1.567,1.1,0,1.528-.548,1.841-3.055,1.841-6.111,3.721-9.323,5.288A2.111,2.111,0,0,1,347.265,131.976Z" transform="translate(-171.634 -54.457)" fill="#3187c5"/>
    <path id="Path_26255" data-name="Path 26255" d="M58.2,57.3c5.249-2.977,10.5-5.915,15.708-8.892,3.956-2.233,7.874-4.544,11.791-6.816.783-.47,1.489-.979,2.272-1.489,1.449.157,2.86.313,4.309.47.392,1.449-.862,1.724-1.684,2.194l-15.16,8.814c-5.014,2.86-9.989,5.8-15.042,8.657a8.68,8.68,0,0,1-2.272,1.1c-.509.157-1.254.431-1.136-.627A8.3,8.3,0,0,1,58.2,57.3Z" transform="translate(-2.391 -3.203)" fill="#208cc9"/>
    <path id="Path_26256" data-name="Path 26256" d="M839.8,169.885c2.272-.392,3.917-1.919,5.837-2.977C852.609,163.03,859.5,159,866.4,155v5.092c-3.016,1.8-5.8,4.113-9.323,4.975-2.742,3.29-6.463,4.661-10.537,5.171A14.007,14.007,0,0,1,839.8,169.885Z" transform="translate(-478.572 -73.094)" fill="#477cbe"/>
    <path id="Path_26257" data-name="Path 26257" d="M596.8,170.594c2.076-.353,3.565-1.8,5.288-2.742,6.346-3.565,12.574-7.247,18.881-10.851a17.749,17.749,0,0,1,2.154-.9c.431,1.449.118,2.938.2,4.387a1.049,1.049,0,0,1-.627,1.1c-2.389,1.293-4.622,2.82-7.129,3.878a1.428,1.428,0,0,1-1.136.039C609.492,170.476,603.577,171.965,596.8,170.594Z" transform="translate(-330.76 -73.763)" fill="#477cbe"/>
    <path id="Path_26258" data-name="Path 26258" d="M387.2,160.964a17.925,17.925,0,0,0,6.15-5.21c.47-.705.862-.548,1.41-.078,1.41,1.175,2.86,2.35,4.309,3.525.039,1.175-.9,1.528-1.645,1.959-4.152,2.311-8.148,4.9-12.378,7.09a6.745,6.745,0,0,0-1.841,1.1,5.534,5.534,0,0,1-5.288,1.136,7.882,7.882,0,0,1-3.917-.744c.353-1.1,1.41-1.489,2.272-2,3.055-1.841,6.15-3.525,9.245-5.327C386.065,161.982,386.848,161.747,387.2,160.964Z" transform="translate(-195.235 -73.261)" fill="#4a7abd"/>
    <path id="Path_26259" data-name="Path 26259" d="M708.255,93.369c-1.606.039-3.251-.157-4.818.47-2.35.9-3.447,2.86-4.231,5.053-2.781,1.645-5.6,3.251-8.461,4.779a1.773,1.773,0,0,1-1.645.313c0-1.449,0-2.86.039-4.309.823-1.214,2.194-1.606,3.369-2.311,6.5-3.76,12.966-7.56,19.469-11.242a5.36,5.36,0,0,1,2.154-.823,6.163,6.163,0,0,1,3.134,1.88c.2.823-.431,1.175-.94,1.489C713.622,90.314,711,91.92,708.255,93.369Z" transform="translate(-386.905 -30.697)" fill="#278bc8"/>
    <path id="Path_26260" data-name="Path 26260" d="M882.882,84.756c0,2.625.039,5.21.039,7.834-1.018,1.567-2.82,2-4.27,2.938-1.489.94-3.055,1.724-4.544,2.664a2.314,2.314,0,0,1-2,.509c-1.606-1.8-3.76-3.016-5.21-4.975,2.35-1.684,4.975-2.938,7.364-4.544,2.272-1.489,4.7-2.742,7.051-4.113C881.707,84.8,882.255,84.364,882.882,84.756Z" transform="translate(-495.057 -30.27)" fill="#3187c5"/>
    <path id="Path_26261" data-name="Path 26261" d="M462.2,97.31V86.733a84.55,84.55,0,0,1,8.109-4.779c.47-.274,1.371-1.175,1.8.2v9.558c.039.627-.392.9-.862,1.175-2.429,1.41-4.818,2.86-7.247,4.191C463.453,97.388,462.866,97.819,462.2,97.31Z" transform="translate(-248.886 -28.331)" fill="#3187c5"/>
    <path id="Path_26262" data-name="Path 26262" d="M184.1,119.527c-4.191,2.35-8.383,4.74-12.613,7.09-.509.274-1.1,1.136-1.841.274a1.126,1.126,0,0,1,.235-1.41,19.523,19.523,0,0,0,2.938-7.247,2.044,2.044,0,0,1,.627-1.175c2.9-1.724,5.837-3.33,8.775-5.014.705-.392,1.449-.979,2.311-.313A25.017,25.017,0,0,1,184.1,119.527Z" transform="translate(-70.829 -46.591)" fill="#467dbe"/>
    <path id="Path_26263" data-name="Path 26263" d="M252.169,85.2a8.191,8.191,0,0,1,3.525,1.919c.2.823-.431,1.175-.94,1.489-2.664,1.567-5.288,3.212-8.03,4.7-1.724,0-3.486-.235-5.132.47a7.254,7.254,0,0,0-3.917,4.27c-.705,1.136-1.959,1.449-3.016,2.076-1.684,1.018-3.369,2-5.092,2.9-.705.392-1.41,1.058-2.311.509,0-1.841-.353-3.721.313-5.523.705.9,1.41.548,2.194.078,7.168-4.231,14.454-8.226,21.545-12.535A2.844,2.844,0,0,1,252.169,85.2Z" transform="translate(-105.917 -30.636)" fill="#278bc8"/>
    <path id="Path_26264" data-name="Path 26264" d="M335.893,102.062a6.824,6.824,0,0,1,.744-3.525c3.486-1.018,6.385-3.173,9.48-4.936,5.484-3.095,10.851-6.424,16.413-9.4a8.884,8.884,0,0,1,4.309,1.489c.157,1.058-.744,1.254-1.371,1.645-2.429,1.528-5.053,2.7-7.286,4.5a6.391,6.391,0,0,1-2.115.235,11.336,11.336,0,0,0-8.657,4.857,5.082,5.082,0,0,1-1.254,1.489c-2.938,1.371-5.6,3.173-8.461,4.7C336.245,103.943,335.853,103.668,335.893,102.062Z" transform="translate(-172.053 -30.028)" fill="#258bc8"/>
    <path id="Path_26265" data-name="Path 26265" d="M55.063,122.712a26.238,26.238,0,0,1-1.763-8.657c2.977-2.076,6.228-3.643,9.362-5.523.627-.392,1.371-.509,1.841.313.509,2.742.118,5.562.353,8.3-.118.666-.666.9-1.175,1.175-2.233,1.293-4.426,2.585-6.659,3.878C56.434,122.555,55.807,123.025,55.063,122.712Z" transform="translate(-0.16 -44.645)" fill="#3187c5"/>
    <path id="Path_26266" data-name="Path 26266" d="M824.848,82.795c-.588,1.528-2.154,1.841-3.33,2.507-6.62,3.917-13.279,7.678-19.938,11.517-.666.392-1.293.666-1.88-.078a11.588,11.588,0,0,1,2.35-5.132c1.528-.078,2.625-1.058,3.878-1.724,3.486-1.88,6.855-3.956,10.263-5.915.548-.313,1.724-.548.744-1.645a11.029,11.029,0,0,1,6.072.118C823.634,82.638,824.261,82.6,824.848,82.795Z" transform="translate(-454.181 -28.662)" fill="#1e8dca"/>
    <path id="Path_26267" data-name="Path 26267" d="M581.4,82.9c-.274,1.645-1.88,1.88-2.977,2.546-6.855,4.074-13.749,7.991-20.683,11.908-.509.274-1.1,1.136-1.841.274a11.864,11.864,0,0,1,2-5.014c2.389-.705,4.387-2.233,6.5-3.408,3.447-1.919,6.816-3.956,10.263-5.876-.235-.666-1.018-.392-1.214-.94C576.152,81.643,578.776,82.309,581.4,82.9Z" transform="translate(-305.882 -28.724)" fill="#1e8dca"/>
    <path id="Path_26268" data-name="Path 26268" d="M229,94.057c.705-5.523,5.68-10.459,11.83-11.712a22.146,22.146,0,0,1,7.364-.313c1.136.274,1.293.823.392,1.528a28.633,28.633,0,0,1-2.977,1.8c-4.661,2.7-9.284,5.406-13.984,8.03C230.841,93.861,230.1,94.684,229,94.057Z" transform="translate(-107.035 -28.604)" fill="#1d8dca"/>
    <path id="Path_26269" data-name="Path 26269" d="M521.409,167.1c2.35,3.134,4.7,6.268,7.364,9.832H517.3c-.627,0-.9-.392-1.214-.823-.94-1.332-1.88-2.664-2.781-3.956.823-1.449,2.507-1.724,3.76-2.585A19.793,19.793,0,0,1,521.409,167.1Z" transform="translate(-279.969 -80.454)" fill="#4c79bc"/>
    <path id="Path_26270" data-name="Path 26270" d="M515.425,86.464c-2.938.509-5.053,2.585-7.56,3.917-3.721,1.959-7.325,4.191-10.968,6.307a5.053,5.053,0,0,1-1.1.313c3.212-4.074,6.424-8.109,9.636-12.182a1.393,1.393,0,0,1,1.332-.627h10.3A5.693,5.693,0,0,1,515.425,86.464Z" transform="translate(-269.324 -30.02)" fill="#3785c4"/>
    <path id="Path_26271" data-name="Path 26271" d="M160.319,53a20.279,20.279,0,0,1,6.307,5.8.539.539,0,0,1-.157.705c-2.86,1.8-5.562,3.8-8.853,4.818-2.35-1.567-4.857-2.938-6.816-5.014,1.332-1.684,3.369-2.35,5.132-3.408A36.945,36.945,0,0,0,160.319,53Z" transform="translate(-59.467 -11.049)" fill="#3187c5"/>
    <path id="Path_26272" data-name="Path 26272" d="M408.233,114.551a10.321,10.321,0,0,1,1.1,4.309c-1.528,1.684-3.682,2.389-5.562,3.525a67,67,0,0,1-6.15,3.447H389c0-1.332,1.136-1.606,1.959-2.154,2.585-1.763,5.562-2.86,7.952-4.975.431-.313.666-.823,1.1-1.136,2.272.118,3.721-1.606,5.562-2.429C406.432,114.786,407.137,113.768,408.233,114.551Z" transform="translate(-204.36 -48.314)" fill="#3c82c2"/>
    <path id="Path_26273" data-name="Path 26273" d="M690.9,93.649c.705-5.21,5.68-10.028,11.673-11.321a22.1,22.1,0,0,1,7.521-.313c1.136,1.058-.039,1.489-.627,1.841-1.528.979-3.134,1.841-4.74,2.742-4,2.311-7.991,4.661-12.065,6.816C692.154,93.728,691.566,94.159,690.9,93.649Z" transform="translate(-388 -28.587)" fill="#1d8dca"/>
    <path id="Path_26274" data-name="Path 26274" d="M641.8,121.652c2.664-1.449,5.327-2.938,8.03-4.309.705-.353.666-.862.666-1.449v-7.6c-.94-1.332-.431-2.86-.548-4.309-.078-1.841,0-3.643,0-5.484-.078-2.076,0-4.152,0-6.189-.078-2.233.078-4.466-.078-6.659-.274-.862-1.018-.627-1.645-.627-1.41-.078-2.82,0-4.231-.039a2.407,2.407,0,0,1-1.959-.588c2.664-.744,5.367-.157,8.069-.313.862-.039.783.666.783,1.254v4.113c0,11.517-.078,23.033.039,34.55.039,2.076-.627,2.546-2.507,2.389a36.819,36.819,0,0,0-5.092,0c-1.1.039-1.528-.313-1.449-1.41C641.918,123.845,641.8,122.749,641.8,121.652Z" transform="translate(-358.133 -29.914)" fill="#4c79bc"/>
    <path id="Path_26275" data-name="Path 26275" d="M137.1,173.6c.47-1.88,2.272-2.154,3.6-2.977,5.758-3.369,11.556-6.659,17.353-9.989a3.388,3.388,0,0,1,2.194-.666c-4.113,6.894-10.3,10.929-17.98,12.888A17.752,17.752,0,0,1,137.1,173.6Z" transform="translate(-51.134 -76.102)" fill="#4d78bb"/>
    <path id="Path_26276" data-name="Path 26276" d="M689.8,93.873a106.03,106.03,0,0,0,10.381-5.6c2.585-1.449,5.171-2.938,7.717-4.426.588-.353,1.645-.47,1.136-1.645a13.244,13.244,0,0,1,5.053,1.175c-8.265,4.936-16.531,9.793-24.992,14.376A8.856,8.856,0,0,1,689.8,93.873Z" transform="translate(-386.897 -28.811)" fill="#228cc9"/>
    <path id="Path_26277" data-name="Path 26277" d="M228.37,94.265c2.585-.783,4.7-2.468,7.012-3.721,4.035-2.194,7.952-4.622,11.947-6.894.783-.431,1.214-.783.274-1.449a13.243,13.243,0,0,1,5.053,1.175c-2.194,2.311-5.21,3.369-7.874,4.975-4.857,2.977-9.871,5.8-14.846,8.618-.9.509-2.115,1.489-1.959-.783A2.775,2.775,0,0,1,228.37,94.265Z" transform="translate(-106.405 -28.811)" fill="#238cc9"/>
    <path id="Path_26278" data-name="Path 26278" d="M490.1,140.64a48.792,48.792,0,0,0,8.226-4.74,61.41,61.41,0,0,1,4.661,6.346c.078.2.117.431-.039.548a25.388,25.388,0,0,1-8.03,4.5C493.273,145.066,491.706,142.833,490.1,140.64Z" transform="translate(-265.857 -61.476)" fill="#427fc0"/>
    <path id="Path_26279" data-name="Path 26279" d="M471.717,147.545c.235-.509-.313-1.254.392-1.645-.039,5.367-.117,10.772-.078,16.139,0,1.449-.2,2.115-1.88,2a62.2,62.2,0,0,0-6.62,0c-1.1.039-1.724-.2-1.567-1.489a30.765,30.765,0,0,0,.078-3.29,43.714,43.714,0,0,1,7.364-4.426,3.033,3.033,0,0,0,1.88-3.095C471.247,150.326,470.933,148.877,471.717,147.545Z" transform="translate(-248.727 -67.559)" fill="#467dbe"/>
    <path id="Path_26280" data-name="Path 26280" d="M301.267,141.9c.039,2.742,0,5.484.078,8.226.039.94-.274,1.253-1.214,1.253q-3.819-.059-7.639,0c-1.1.039-1.293-.431-1.293-1.41.039-8.3.039-16.57.078-24.874,1.136.47.744,1.528.823,2.35.078.783,0,1.567,0,2.35.078,1.763.039,3.565,0,5.327.039,1.449.039,2.938,0,4.387-.078,1.684-.039,3.369-.039,5.053-.039,1.332.392,1.645,1.606.979,1.8-1.058,3.6-2.076,5.445-3.095A2.742,2.742,0,0,1,301.267,141.9Z" transform="translate(-144.87 -54.906)" fill="#4c79bc"/>
    <path id="Path_26281" data-name="Path 26281" d="M363.793,82.979c-1.841,2-4.466,2.82-6.659,4.27-4.27,2.781-8.892,4.975-13.123,7.8a50.535,50.535,0,0,1-4.779,2.546c-.509.274-.979.353-1.332-.235A6.542,6.542,0,0,1,339,94.3c4.818-2.938,9.715-5.719,14.611-8.5a61.248,61.248,0,0,1,6.268-3.525C361.286,81.921,362.461,82.822,363.793,82.979Z" transform="translate(-173.277 -28.807)" fill="#1f8dc9"/>
    <path id="Path_26282" data-name="Path 26282" d="M762.705,122a2.525,2.525,0,0,1,.235,1.684c0,7.913-.039,15.865.039,23.777,0,1.645-.47,2.115-2.076,2.037a44.291,44.291,0,0,0-6.033,0c-1.724.118-2.194-.509-1.959-2.076.078-.627.039-1.293.078-1.959.274-.744.94-1.018,1.567-1.371,2.115-1.136,4.113-2.429,6.228-3.525a2.354,2.354,0,0,0,1.41-2.311c-.039-1.724,0-3.486-.039-5.249-.039-1.606-.039-3.173,0-4.779-.039-1.645-.078-3.33.039-4.975A1.418,1.418,0,0,1,762.705,122Z" transform="translate(-425.686 -53.021)" fill="#4c79bc"/>
    <path id="Path_26283" data-name="Path 26283" d="M227.2,140.018v-7.443c2.468-2.311,5.68-3.525,8.539-5.249.47-.274,1.175-.313,1.371.509v6.228a1.908,1.908,0,0,1-1.018,1.567c-2.507,1.567-5.053,2.938-7.639,4.387A.952.952,0,0,1,227.2,140.018Z" transform="translate(-105.94 -56.153)" fill="#3187c5"/>
    <path id="Path_26284" data-name="Path 26284" d="M361.579,82.3c-1.1,1.528-2.938,2.037-4.426,2.938-4.661,2.82-9.4,5.484-14.1,8.187a4.1,4.1,0,0,1-2.35.862,19.384,19.384,0,0,1,15.786-11.712c.627-.392,1.332,0,1.959-.274Z" transform="translate(-174.98 -28.872)" fill="#1c8eca"/>
    <path id="Path_26285" data-name="Path 26285" d="M502.3,157.053c2.585-1.841,5.641-2.938,8.109-5.053a56.465,56.465,0,0,1,4.309,5.876c-1.763,1.959-4.309,2.7-6.424,4.152a17.76,17.76,0,0,1-1.724.9C505.16,160.97,503.71,159.012,502.3,157.053Z" transform="translate(-273.278 -71.269)" fill="#477cbe"/>
    <path id="Path_26286" data-name="Path 26286" d="M55.811,61.5c.705.979,1.332.118,1.8-.2,4.9-2.742,9.715-5.523,14.572-8.3,5.445-3.134,10.929-6.268,16.374-9.44.979-.548,2.233-.862,2.585-2.154,1.018.274,2.076.509,3.095.783.039,1.058-.9,1.332-1.567,1.763-2.82,1.841-5.837,3.33-8.7,5.092-1.136.705-2.272,1.449-3.369,2.272a38.02,38.02,0,0,0-8.226,4c-2.507.392-4.466,1.959-6.581,3.173-2.938,1.684-5.837,3.33-8.735,5.053-.588.353-1.136.979-1.919.431A3.638,3.638,0,0,1,55.811,61.5Z" transform="translate(-1.261 -3.993)" fill="#238cc8"/>
    <path id="Path_26287" data-name="Path 26287" d="M799.333,146.6a19.606,19.606,0,0,1-2.233-7.834,2.607,2.607,0,0,0,2.546-.353c1.684-1.136,3.447-2.076,5.21-3.055.666-.392,1.371-1.136,2.233-.274.392,2.194.9,4.387,1.136,6.62-.274.823-1.058,1.1-1.724,1.489-1.724,1.018-3.486,2-5.249,3.016C800.7,146.519,800.116,147.106,799.333,146.6Z" transform="translate(-452.599 -60.735)" fill="#3187c5"/>
    <path id="Path_26288" data-name="Path 26288" d="M556.415,146.628a17.643,17.643,0,0,1-2.115-6.7,78.314,78.314,0,0,1,8.383-4.936c.47-.274,1.058-.588,1.567.039.313,2.076.627,4.152.9,6.228-.039.2-.039.431-.157.548A19.9,19.9,0,0,1,556.415,146.628Z" transform="translate(-304.908 -60.727)" fill="#3187c5"/>
    <path id="Path_26289" data-name="Path 26289" d="M167.7,73.049a52.188,52.188,0,0,0,9.205-5.249,17.652,17.652,0,0,1,3.525,5.562,1.548,1.548,0,0,1-.783,1.058,78.347,78.347,0,0,1-7.286,4.074,1.756,1.756,0,0,1-1.332.157C169.659,76.927,168.17,75.282,167.7,73.049Z" transform="translate(-69.747 -20.052)" fill="#3884c3"/>
    <path id="Path_26290" data-name="Path 26290" d="M301.815,157.172c-2.781,1.567-5.562,3.055-8.3,4.661-1.058.627-1.41.313-1.41-.783v-5.837c2.468-1.8,5.249-3.095,7.913-4.661a1.416,1.416,0,0,1,1.8-.039Z" transform="translate(-145.417 -70.174)" fill="#467cbe"/>
    <path id="Path_26291" data-name="Path 26291" d="M110.255,167.871c.353.94-.509,1.018-.979,1.293l-12.457,7.4a16.087,16.087,0,0,1-5.719-2.429,80.247,80.247,0,0,1,8.618-5.249,5.1,5.1,0,0,0,2.115-1.645,4.047,4.047,0,0,1,2.35.274,12.869,12.869,0,0,0,4.9,0A1.3,1.3,0,0,1,110.255,167.871Z" transform="translate(-23.153 -80.481)" fill="#477cbe"/>
    <path id="Path_26292" data-name="Path 26292" d="M57.8,137.232c2.546-1.449,5.053-2.938,7.6-4.348a13.612,13.612,0,0,1,1.959-.783c1.489,1.332,1.684,3.29,2.272,5.014a1.813,1.813,0,0,1-.94,1.606c-2.389,1.567-4.9,2.938-7.364,4.387a.83.83,0,0,1-.744,0A19.721,19.721,0,0,1,57.8,137.232Z" transform="translate(-2.897 -59.164)" fill="#3884c3"/>
    <path id="Path_26293" data-name="Path 26293" d="M762.775,150.624c0,1.841,0,3.643.078,5.484a1.876,1.876,0,0,1-1.175,2c-2.9,1.489-5.719,3.095-8.579,4.661v-7.051c2.585-2.076,5.6-3.447,8.422-5.132A1,1,0,0,1,762.775,150.624Z" transform="translate(-425.835 -70.285)" fill="#467dbe"/>
    <path id="Path_26294" data-name="Path 26294" d="M54.141,85c4.387-2.507,8.775-5.014,13.2-7.521,1.214-.666,2.389-1.567,3.917-1.489a.451.451,0,0,1-.078.666A25.383,25.383,0,0,0,66.6,82.848a1.983,1.983,0,0,1-.783.823A74.3,74.3,0,0,0,57,88.567a9.062,9.062,0,0,1-1.371.705c-.588.274-1.254.783-1.8.392-.588-.47-.353-1.293-.118-1.959A5,5,0,0,1,54.141,85Z" transform="translate(-0.256 -25.032)" fill="#268bc8"/>
    <path id="Path_26295" data-name="Path 26295" d="M190.423,102.107c-3.095.744-5.445,2.9-8.265,4.27a9.4,9.4,0,0,1-2.625,1.214,1.23,1.23,0,0,1-.353-1.136,10.782,10.782,0,0,0,.039-4.191,1.775,1.775,0,0,1,.078-.9c2.272-2.115,5.21-3.173,7.756-4.818.666-.431,1.371-1.058,2.311-.705C190.423,97.8,189.875,100.031,190.423,102.107Z" transform="translate(-76.723 -37.045)" fill="#4180c0"/>
    <path id="Path_26296" data-name="Path 26296" d="M698.815,129.512v6.268a3.829,3.829,0,0,1-1.684,1.567c-2.076,1.214-4.152,2.429-6.267,3.565-.548.274-1.058.862-1.763.353v-7.051c2.507-1.684,5.21-3.055,7.8-4.583C697.444,129.277,698.149,128.924,698.815,129.512Z" transform="translate(-386.905 -57.399)" fill="#3187c5"/>
    <path id="Path_26297" data-name="Path 26297" d="M383.9,176.542c2.154.313,3.721-.862,5.523-1.841,4.27-2.35,8.422-4.936,12.692-7.247a8.549,8.549,0,0,0,2.977-2.154c1.489.627,1.489,1.332.47,2.585-5.327,6.542-12.222,9.362-20.565,8.97A5.054,5.054,0,0,1,383.9,176.542Z" transform="translate(-201.257 -79.359)" fill="#4d78bb"/>
    <path id="Path_26298" data-name="Path 26298" d="M748.52,105.846a10.744,10.744,0,0,0-2.82-5.445c.235-.94,1.1-1.214,1.8-1.606,2.194-1.293,4.466-2.507,6.542-4a12.42,12.42,0,0,1,3.486,6.346c-2.468,1.919-5.288,3.212-7.952,4.818A.844.844,0,0,1,748.52,105.846Z" transform="translate(-421.333 -36.476)" fill="#3187c5"/>
    <path id="Path_26299" data-name="Path 26299" d="M883.9,172.975c3.173-1.528,5.954-3.839,9.323-4.975.039,2.742,0,5.445.078,8.187.039,1.058-.392,1.332-1.371,1.293-2-.039-4.035-.078-6.032,0-1.254.078-1.449-.509-1.567-1.567C884.292,174.933,884.8,173.837,883.9,172.975Z" transform="translate(-505.398 -81.002)" fill="#4c79bc"/>
    <path id="Path_26300" data-name="Path 26300" d="M292.6,95.8a11.589,11.589,0,0,1,3.212,5.915c-2.35,1.959-5.171,3.212-7.8,4.74a.954.954,0,0,1-1.254-.039,9.844,9.844,0,0,0-2.86-5.445A32.548,32.548,0,0,1,292.6,95.8Z" transform="translate(-140.429 -37.084)" fill="#3187c5"/>
    <path id="Path_26301" data-name="Path 26301" d="M471.875,150.1c.274,6.542.313,6.542-5.406,9.558-1.41.744-2.585,2-4.27,2.194v-6.268C465.412,153.7,468.624,151.9,471.875,150.1Z" transform="translate(-248.886 -70.113)" fill="#417fc0"/>
    <path id="Path_26302" data-name="Path 26302" d="M64.9,150.732c2.468-1.489,4.936-3.016,7.443-4.5.627-.392,1.253-.666,1.293-1.528a12.63,12.63,0,0,1,4.074,4.9,1.316,1.316,0,0,1-.548.979,88.7,88.7,0,0,1-7.913,4.622.9.9,0,0,1-1.058-.2A16.6,16.6,0,0,1,64.9,150.732Z" transform="translate(-7.216 -66.829)" fill="#3d82c2"/>
    <path id="Path_26303" data-name="Path 26303" d="M187.517,87.445c-3.251,1.841-6.542,3.682-9.793,5.523a8.914,8.914,0,0,1-1.567-5.876c3.369-1.254,6.307-3.29,9.362-5.092A14.285,14.285,0,0,1,187.517,87.445Z" transform="translate(-74.875 -28.69)" fill="#3d82c2"/>
    <path id="Path_26304" data-name="Path 26304" d="M385.194,124.868c-1.175,1.88-3.408,2.311-5.092,3.486s-3.761,1.8-5.092,3.486H366c2.154-2.115,5.014-3.016,7.482-4.661,1.175-.783,2.546-1.214,3.486-2.311A11.06,11.06,0,0,1,385.194,124.868Z" transform="translate(-190.369 -54.283)" fill="#3884c3"/>
    <path id="Path_26305" data-name="Path 26305" d="M120.1,52.153c1.959-2.115,4.661-3.134,7.051-4.622,2.194-1.41,4.7-2.389,6.659-4.231a11.314,11.314,0,0,1,4.348,1.88c.509.94-.235,1.332-.823,1.684-2.82,1.763-5.758,3.33-8.618,5.014a6.212,6.212,0,0,1-2.664.509,34.114,34.114,0,0,0-4,.2A1.905,1.905,0,0,1,120.1,52.153Z" transform="translate(-40.793 -5.149)" fill="#278ac8"/>
    <path id="Path_26306" data-name="Path 26306" d="M879.992,110.937c2.233-.431,3.839-2.076,5.8-2.977,1.763-.823,3.369-1.919,5.053-2.86v6.268c-2.311,2.037-5.132,3.29-7.8,4.818a1.475,1.475,0,0,1-1.684-.039C880.7,114.423,879.913,112.817,879.992,110.937Z" transform="translate(-503.017 -42.741)" fill="#3884c3"/>
    <path id="Path_26307" data-name="Path 26307" d="M752.9,115.7c2.35-.783,4.231-2.389,6.424-3.486A9.4,9.4,0,0,1,761.949,111a8.922,8.922,0,0,1,.783,4.27c-.039.392-.039.823-.078,1.214-2.429,2.194-5.406,3.447-8.226,5.014a1.174,1.174,0,0,1-1.449.039C752.978,119.618,752.939,117.659,752.9,115.7Z" transform="translate(-425.713 -46.33)" fill="#3884c3"/>
    <path id="Path_26308" data-name="Path 26308" d="M379.719,169.8c.548.9-.353,1.018-.783,1.293-4.113,2.585-8.5,4.7-12.5,7.443a11.21,11.21,0,0,1-4.74-1.959,2.016,2.016,0,0,1,1.058-1.332,52.427,52.427,0,0,1,8.069-4.5A17.642,17.642,0,0,0,379.719,169.8Z" transform="translate(-187.754 -82.097)" fill="#477cbe"/>
    <path id="Path_26309" data-name="Path 26309" d="M576.551,82.868c.744.2,1.919-.353,2.115.353.313,1.058-1.058,1.1-1.684,1.489-4.661,2.781-9.4,5.484-14.1,8.187-.548.313-1.175.979-1.88.2A19.271,19.271,0,0,1,576.551,82.868Z" transform="translate(-308.984 -29.205)" fill="#1a8fcb"/>
    <path id="Path_26310" data-name="Path 26310" d="M53.453,99.309c.078.548-.157,1.175.274,1.763,2.938-1.1,5.406-3.016,8.148-4.466,1.214-.627,2.272-1.528,3.682-1.606a7.656,7.656,0,0,1-1.528,5.484c-2.311.548-4,2.194-6.072,3.134-1.606.744-2.9,2.154-4.779,2.35C53.1,103.735,52.787,101.5,53.453,99.309Z" transform="translate(0 -36.597)" fill="#2b89c7"/>
    <path id="Path_26311" data-name="Path 26311" d="M227.2,171.441v-6.268a71.966,71.966,0,0,1,8.03-4.74,1.374,1.374,0,0,1,1.8.078c.313,5.719.353,5.8-4.7,8.461C230.686,169.874,229.315,171.441,227.2,171.441Z" transform="translate(-105.94 -76.217)" fill="#3c82c2"/>
    <path id="Path_26312" data-name="Path 26312" d="M689,151.484c3.408-1.567,6.5-3.643,9.754-5.484v6.268c-2.507,1.684-5.21,3.055-7.8,4.622-.588.353-1.293.666-1.959.078Z" transform="translate(-386.844 -67.619)" fill="#3884c3"/>
    <path id="Path_26313" data-name="Path 26313" d="M462.2,114.092c2.625-.94,4.857-2.585,7.247-3.956A9.171,9.171,0,0,1,471.875,109a11.794,11.794,0,0,1,0,5.484c-3.212,1.841-6.424,3.643-9.675,5.484Z" transform="translate(-248.886 -45.113)" fill="#3784c4"/>
    <path id="Path_26314" data-name="Path 26314" d="M462.2,65.026V59.542c.431-.979,1.371-1.332,2.194-1.8,1.8-1.018,3.525-2.154,5.367-3.095.705-.353,1.606-1.1,2.311.118v4.818a.891.891,0,0,1-.47.783c-2.664,1.567-5.327,3.134-7.991,4.622C463.179,65.222,462.67,65.457,462.2,65.026Z" transform="translate(-248.886 -11.715)" fill="#278ac8"/>
    <path id="Path_26315" data-name="Path 26315" d="M570.856,170.827a12.53,12.53,0,0,1-3.956-3.486c.2-.862.979-1.136,1.645-1.567,2.154-1.41,4.544-2.507,6.62-4.074a20.66,20.66,0,0,1,5.249,3.251,1.055,1.055,0,0,1-.627,1.293c-2.507,1.489-5.053,2.938-7.6,4.387A1.745,1.745,0,0,1,570.856,170.827Z" transform="translate(-312.573 -77.169)" fill="#3c82c2"/>
    <path id="Path_26316" data-name="Path 26316" d="M292.1,132.082V126.6c2-1.88,4.544-2.9,6.855-4.27A5.876,5.876,0,0,0,301.5,119.9a24.268,24.268,0,0,1,.313,6.738,3.006,3.006,0,0,1-1.332,1.371c-2.233,1.332-4.5,2.625-6.777,3.878C293.2,132.122,292.727,132.553,292.1,132.082Z" transform="translate(-145.417 -51.743)" fill="#3c82c2"/>
    <path id="Path_26317" data-name="Path 26317" d="M363.771,168.246c-1.959,1.8-4.544,2.664-6.7,4.231-.783.548-1.606,1.058-2.389,1.606a11.74,11.74,0,0,1-4.583-3.565c.509-1.136,1.606-1.489,2.546-2a34.645,34.645,0,0,1,5.327-2.82A17.466,17.466,0,0,0,363.771,168.246Z" transform="translate(-180.698 -79.603)" fill="#427fc0"/>
    <path id="Path_26318" data-name="Path 26318" d="M802.8,157.8c2.9-1.567,5.758-3.134,8.657-4.7,1.684.783,2.076,2.507,2.938,3.956a.866.866,0,0,1-.235.705,30.807,30.807,0,0,1-8.148,4.74A16.445,16.445,0,0,1,802.8,157.8Z" transform="translate(-456.066 -71.938)" fill="#3884c3"/>
    <path id="Path_26319" data-name="Path 26319" d="M300.954,114.547c.2,1.254-.353,1.919-1.567,2.468-2.7,1.214-5.053,3.173-7.834,4.27-.2-1.528.313-3.134-.274-4.661-.039-.274-.039-.548-.078-.823,2.625-.862,4.7-2.7,7.129-3.878a4.929,4.929,0,0,1,1.919-.823A6.438,6.438,0,0,1,300.954,114.547Z" transform="translate(-144.87 -46.39)" fill="#3884c3"/>
    <path id="Path_26320" data-name="Path 26320" d="M688.939,166.688c2.938-.548,5.014-2.742,7.6-3.956.705-.313,1.293-.823,2.115-.744v5.092c-3.095,2.115-6.111,4.348-9.754,5.484C688.939,170.605,688.939,168.647,688.939,166.688Z" transform="translate(-386.783 -77.339)" fill="#3d82c2"/>
    <path id="Path_26321" data-name="Path 26321" d="M883.059,125.7c2.9-.548,4.936-2.742,7.482-3.917a5.71,5.71,0,0,1,1.724-.783v5.484c-2.389,2.233-5.406,3.447-8.226,5.014-.744.431-1.371.157-1.567-.783C882.51,129.03,881.844,127.268,883.059,125.7Z" transform="translate(-504.439 -52.412)" fill="#3d82c2"/>
    <path id="Path_26322" data-name="Path 26322" d="M236.875,151.876c-3.055.666-5.288,2.9-8.069,4.113-.509.235-.979.666-1.606.588v-5.092A84.1,84.1,0,0,0,236.875,146,14.836,14.836,0,0,1,236.875,151.876Z" transform="translate(-105.94 -67.619)" fill="#3784c3"/>
    <path id="Path_26323" data-name="Path 26323" d="M810.9,168.606c2.194-1.371,4.387-2.742,6.581-4.074a4.205,4.205,0,0,0,1.645-1.332c2.115.157,3.447,1.724,5.171,2.664.078.627-.313.94-.783,1.254-2.585,1.645-5.249,3.134-7.913,4.661a1.137,1.137,0,0,1-.94.078A14.259,14.259,0,0,1,810.9,168.606Z" transform="translate(-460.993 -78.082)" fill="#3d82c2"/>
    <path id="Path_26324" data-name="Path 26324" d="M462.2,74.092c2.625-.9,4.779-2.7,7.208-3.956A10.589,10.589,0,0,1,471.836,69a10.192,10.192,0,0,1,0,5.092c-2.625,1.528-5.249,3.016-7.834,4.544a3.292,3.292,0,0,1-1.8.588Z" transform="translate(-248.886 -20.782)" fill="#2b89c7"/>
    <path id="Path_26325" data-name="Path 26325" d="M96.263,164.854c.392.588-.078.783-.47,1.018L86.509,171.4c-.2.118-.509.039-.744.078a11.285,11.285,0,0,1-3.565-2.35c.235-.94,1.1-1.175,1.8-1.606,2.429-1.606,5.327-2.625,7.364-4.818A9.7,9.7,0,0,1,96.263,164.854Z" transform="translate(-17.739 -77.778)" fill="#447ebf"/>
    <path id="Path_26326" data-name="Path 26326" d="M471.775,46.1c-2.82.509-4.779,2.7-7.325,3.761-.823.353-1.567.9-2.35,1.332V45.712a86.748,86.748,0,0,1,8.422-5.014c.509-.274,1.214-.705,1.489.353C471.893,42.734,472.363,44.458,471.775,46.1Z" transform="translate(-248.825 -3.369)" fill="#228cc9"/>
    <path id="Path_26327" data-name="Path 26327" d="M753.1,130.153c3.486-1.175,6.307-3.643,9.675-5.053v5.053a35.286,35.286,0,0,1-9.675,5.484Z" transform="translate(-425.835 -54.906)" fill="#3c82c2"/>
    <path id="Path_26328" data-name="Path 26328" d="M236.758,137.338V124.411c-.47-.862-.783-1.684.353-2.311-.039,8.657-.078,17.353-.039,26.01,0,1.136-.353,1.489-1.449,1.449-2.429-.078-4.818-.039-7.247,0-.9,0-1.606-.078-1.293-1.253,2.742-1.567,5.445-3.173,8.187-4.7a2.557,2.557,0,0,0,1.567-2.781A25.907,25.907,0,0,1,236.758,137.338Z" transform="translate(-105.822 -53.082)" fill="#417fc0"/>
    <path id="Path_26329" data-name="Path 26329" d="M570.786,155.913c-1.724,2.076-4.387,2.7-6.463,4.27a13.8,13.8,0,0,1-1.8,1.1,13.512,13.512,0,0,1-2.82-4.27c2.389-1.332,4.818-2.664,7.208-4a2.528,2.528,0,0,0,1.175-1.214A7.041,7.041,0,0,1,570.786,155.913Z" transform="translate(-308.193 -71.147)" fill="#3884c3"/>
    <path id="Path_26330" data-name="Path 26330" d="M753.1,143.484c3.212-1.88,6.307-3.878,9.675-5.484v5.092c-2.625.9-4.779,2.7-7.247,3.956a10.588,10.588,0,0,1-2.429,1.136Z" transform="translate(-425.835 -62.753)" fill="#417fc0"/>
    <path id="Path_26331" data-name="Path 26331" d="M471.708,37.25c-2.742,1.528-5.484,3.055-8.226,4.622a2.434,2.434,0,0,1-1.41.47c-.039-2.076-.039-4.113-.078-6.189,0-.627-.118-1.332.9-1.293,2.977.118,5.915-.235,8.892.2A2.3,2.3,0,0,1,471.708,37.25Z" transform="translate(-248.758)" fill="#1c8eca"/>
    <path id="Path_26332" data-name="Path 26332" d="M292.1,142.484c3.369-1.567,6.5-3.6,9.715-5.484v5.484c-3.055.666-5.327,2.9-8.109,4.152-.548.235-.979.627-1.606.548Z" transform="translate(-145.417 -62.145)" fill="#4180c0"/>
    <path id="Path_26333" data-name="Path 26333" d="M806.732,127.151c-2.585,1.489-5.171,2.938-7.756,4.466-.94.548-1.606.666-2.037-.509,0-1.058-.039-2.115-.039-3.134,2.82-1.567,5.641-3.134,8.422-4.74a5.405,5.405,0,0,1,2.82-1.136A6.918,6.918,0,0,1,806.732,127.151Z" transform="translate(-452.477 -53.079)" fill="#2b89c7"/>
    <path id="Path_26334" data-name="Path 26334" d="M411.2,93.1a12.858,12.858,0,0,1,4.074,4.622,30.787,30.787,0,0,1-7.521,4.191,16.372,16.372,0,0,1-4.152-3.721,1.7,1.7,0,0,1,.9-1.41C406.812,95.725,408.927,94.236,411.2,93.1Z" transform="translate(-213.241 -35.441)" fill="#3287c5"/>
    <path id="Path_26335" data-name="Path 26335" d="M820.746,83c.47.118,1.175-.235,1.41.353.235.666-.509.823-.9,1.058-4.622,2.7-9.245,5.406-13.867,8.069-.548.313-1.1.509-1.489-.2A18.765,18.765,0,0,1,820.746,83Z" transform="translate(-457.952 -29.298)" fill="#1b8fcb"/>
    <path id="Path_26336" data-name="Path 26336" d="M411,132.973c1.332-1.567,3.251-2.272,4.975-3.212,2.233-1.253,4.466-2.507,6.738-3.76.627,1.959.353,4,.431,6.032.039.94-.431,1.058-1.214,1.058C418.325,133.012,414.643,133.012,411,132.973Z" transform="translate(-217.742 -55.454)" fill="#417fc0"/>
    <path id="Path_26337" data-name="Path 26337" d="M563.352,127.637c-2.742,1.528-5.484,3.055-8.226,4.622a2.347,2.347,0,0,1-1.41.47,15.026,15.026,0,0,1-.117-5.915c-.118,1.41.353,1.763,1.606.979,2.194-1.332,4.426-2.625,6.659-3.878a5.071,5.071,0,0,1,2.664-1.018A5.545,5.545,0,0,1,563.352,127.637Z" transform="translate(-304.324 -53.565)" fill="#2c89c7"/>
    <path id="Path_26338" data-name="Path 26338" d="M85.757,159.411c.548.94-.274,1.1-.783,1.41-2.7,1.606-5.445,3.212-8.187,4.857a12.688,12.688,0,0,1-3.486-3.134c2.233-.47,4-1.919,5.876-3.095,1.175-.705,2.7-.979,3.447-2.35A3.462,3.462,0,0,1,85.757,159.411Z" transform="translate(-12.326 -74.371)" fill="#4180c0"/>
    <path id="Path_26339" data-name="Path 26339" d="M136,54.82c2.076.235,3.408-1.293,5.014-2.115,1.919-1.018,3.8-2.154,5.719-3.251.548-.313,1.018-.548,1.018-1.254a7.537,7.537,0,0,1,3.525,1.88,1.421,1.421,0,0,1-.744,1.293c-2.9,1.684-5.8,3.33-8.7,5.014C139.761,56.5,137.684,56.309,136,54.82Z" transform="translate(-50.465 -8.13)" fill="#2c89c7"/>
    <path id="Path_26340" data-name="Path 26340" d="M820.6,175.392l8.344-4.936c.431-.274.94-.431,1.175-.979a6.155,6.155,0,0,1,5.053.353c.392.705.431.705-.313,1.136-2.35,1.371-4.7,2.742-7.012,4.113-1.214.705-2.429,1.489-3.643,2.194A8.4,8.4,0,0,1,820.6,175.392Z" transform="translate(-466.893 -81.656)" fill="#417fc0"/>
    <path id="Path_26341" data-name="Path 26341" d="M577,175.226c2.9-1.645,5.837-3.33,8.735-4.975a1.1,1.1,0,0,0,.627-.9,6.927,6.927,0,0,1,5.445.353c-.353,1.175-.392,1.136-1.724,1.88a98.288,98.288,0,0,0-9.323,5.641A8.988,8.988,0,0,1,577,175.226Z" transform="translate(-318.716 -81.568)" fill="#4180c0"/>
    <path id="Path_26342" data-name="Path 26342" d="M353.411,159.617c-2.35,2.076-5.288,3.134-7.913,4.818a10.861,10.861,0,0,1-2.9-3.878,26.822,26.822,0,0,1,4.74-2.977c.979-.627,2-1.214,2.938-1.88A24.993,24.993,0,0,0,353.411,159.617Z" transform="translate(-176.135 -73.52)" fill="#3c82c2"/>
    <path id="Path_26343" data-name="Path 26343" d="M880.7,139.622c2.272.039,3.721-1.8,5.6-2.625,1.293-.548,2.507-1.332,3.76-2v3.917c-3.447,1.41-6.463,3.6-9.715,5.327-.588.313-1.058.862-1.645,0A6.5,6.5,0,0,1,880.7,139.622Z" transform="translate(-502.235 -60.928)" fill="#4180c0"/>
    <path id="Path_26344" data-name="Path 26344" d="M864,92.742c-2.39,1.645-4.661,3.447-7.482,4.348a13.637,13.637,0,0,1-6.62-.9A37.7,37.7,0,0,0,860.476,90a6.408,6.408,0,0,1,2.742,2.35C863.453,92.585,863.845,92.429,864,92.742Z" transform="translate(-484.716 -33.556)" fill="#2b89c7"/>
    <path id="Path_26345" data-name="Path 26345" d="M347.662,150.408c-.157.353-.2.9-.47,1.018-2.468,1.175-4.5,3.134-7.168,3.839a11.49,11.49,0,0,1-1.724-3.956c2.507-.627,4.426-2.389,6.659-3.447.509-.235,1.018-.588,1.528-.862Q347.016,148.7,347.662,150.408Z" transform="translate(-173.52 -68.228)" fill="#3884c3"/>
    <path id="Path_26346" data-name="Path 26346" d="M688.9,180.484c3.251-1.841,6.307-4,9.754-5.484.039,1.8.039,3.6.078,5.445.039.862-.157,1.332-1.175,1.293-2.507-.039-5.053-.039-7.56,0C689.053,181.738,688.661,181.424,688.9,180.484Z" transform="translate(-386.74 -85.26)" fill="#4180c0"/>
    <path id="Path_26347" data-name="Path 26347" d="M607,96.311A34.391,34.391,0,0,0,617.576,90.2a7.036,7.036,0,0,1,2.742,2.389c.862.431.431.9.078,1.371-2.037,1.41-4.231,2.585-6.346,3.917C611.74,97.055,609.233,97.329,607,96.311Z" transform="translate(-336.965 -33.677)" fill="#2c89c7"/>
    <path id="Path_26348" data-name="Path 26348" d="M413.683,108.9c2.664-1.136,4.857-3.173,7.678-4a9.193,9.193,0,0,1,1.841,3.956c-2.35.548-4.191,2.194-6.268,3.29-.705.392-1.332.862-1.919-.157A2.994,2.994,0,0,1,413.683,108.9Z" transform="translate(-219.328 -42.619)" fill="#3884c3"/>
    <path id="Path_26349" data-name="Path 26349" d="M335.329,123.835c-.039,1.175.431,1.371,1.41.783,2.233-1.293,4.5-2.585,6.738-3.917a3.614,3.614,0,0,1,1.959-.705c.353.783-.2,1.88.9,2.389-2.076,2-4.779,3.016-7.168,4.5-1.293.783-2.507,1.841-4.074,2.154A13.681,13.681,0,0,1,335.329,123.835Z" transform="translate(-171.489 -51.8)" fill="#2b89c7"/>
    <path id="Path_26350" data-name="Path 26350" d="M698.815,123.964c-2.938.548-5.014,2.742-7.6,3.956-.705.313-1.293.823-2.115.744v-3.525c2.664-1.449,5.288-2.9,7.952-4.348a3.824,3.824,0,0,1,2.154-.705C699.05,121.339,698.932,122.671,698.815,123.964Z" transform="translate(-386.905 -51.851)" fill="#2c88c7"/>
    <path id="Path_26351" data-name="Path 26351" d="M404.691,90c-1.41,1.919-3.721,2.507-5.641,3.682a6.862,6.862,0,0,0-1.8,1.371,4.916,4.916,0,0,1-4.348-1.214c1.919-2.389,4.975-3.055,7.325-4.779.47-.313,1.058-.47,1.293-1.058A7.689,7.689,0,0,1,404.691,90Z" transform="translate(-206.732 -32.339)" fill="#2c89c7"/>
    <path id="Path_26352" data-name="Path 26352" d="M237.228,119.667c-.548.705-.157,1.567-.353,2.311-2.233.509-3.917,2.154-5.954,3.095-1.254.588-2.468,1.332-3.721,2v-3.525c3.055-1.018,5.523-3.095,8.383-4.426.705-.313,1.371-.705,2.076-1.018C237.5,118.609,237.385,119.118,237.228,119.667Z" transform="translate(-105.94 -50.648)" fill="#2b89c7"/>
    <path id="Path_26353" data-name="Path 26353" d="M749.36,91.88c0,.979-.823,1.214-1.489,1.606-2.311,1.332-4.583,2.664-6.855,4-1.018-.431-2.037-.862-3.016-1.293,2.037-2.272,5.014-3.134,7.4-4.818A3.807,3.807,0,0,0,746.97,90C748.146,90.2,748.694,91.1,749.36,91.88Z" transform="translate(-416.65 -33.556)" fill="#2b89c7"/>
    <path id="Path_26354" data-name="Path 26354" d="M288.4,92.394a75.074,75.074,0,0,1-8.7,5.21c-.9-.392-1.8-.823-2.7-1.214,2-2.311,4.975-3.173,7.4-4.818.588-.392,1.254-.666,1.567-1.371A5.98,5.98,0,0,1,288.4,92.394Z" transform="translate(-136.232 -33.677)" fill="#2c89c7"/>
    <path id="Path_26355" data-name="Path 26355" d="M641,90.423a.883.883,0,0,0,0-1.1c.94-1.371.039-2.977.509-4.426,2.35,0,4.661,0,7.012.039.627,0,1.371-.2,1.489.783-2.468,2.115-5.445,3.408-8.265,4.9A.672.672,0,0,1,641,90.423Z" transform="translate(-357.646 -30.454)" fill="#2e8ac7"/>
    <path id="Path_26356" data-name="Path 26356" d="M884.683,89.114a.8.8,0,0,1-.783-.392c.94-.9.353-2.076.47-3.095.118-1.1.353-1.684,1.606-1.567,2.389.235,4.857-.392,7.247.353C890.363,85.98,887.543,87.547,884.683,89.114Z" transform="translate(-505.398 -29.927)" fill="#2f8bc8"/>
    <path id="Path_26357" data-name="Path 26357" d="M486.8,37.533c.039-.744.039-1.489.078-2.233.509.627.235,1.371.235,2.076V68.518c0,.783.078,1.567.118,2.35-.862-.157-.118-.862-.431-1.214V37.533Z" transform="translate(-263.845 -0.283)" fill="#3d82c1"/>
    <path id="Path_26358" data-name="Path 26358" d="M382.959,82.221c-.588.509-1.293.235-1.959.274A2.8,2.8,0,0,1,382.959,82.221Z" transform="translate(-199.493 -28.793)" fill="#1f8dc9"/>
    <path id="Path_26359" data-name="Path 26359" d="M102.537,65.1c1.959.509,3.917,1.018,5.915,1.567a29.992,29.992,0,0,1,6.542,4.74,36.813,36.813,0,0,1,3.33,5.445c.509,1.959,1.018,3.917,1.567,5.876.039.274.039.548.078.823a25.428,25.428,0,0,1,0,4.231c-.039.392-.039.823-.078,1.214a26.07,26.07,0,0,1-4,9.715,21.487,21.487,0,0,1-11.752,7.129c-.392.039-.783.078-1.175.078a27.22,27.22,0,0,1-5.053,0c-.783-.118-1.567-.274-2.389-.392-1.684-.666-3.408-1.332-5.092-2-1.058-.783-2.076-1.528-3.134-2.311-1.293-1.606-2.585-3.251-3.839-4.857-.666-1.645-1.293-3.33-1.959-4.975-.823-2.977-.392-5.993-.47-9.01.509-1.841,1.018-3.643,1.528-5.484a23.837,23.837,0,0,1,5.484-7.443,24.249,24.249,0,0,1,8.3-3.956C98.384,65.335,100.461,65.218,102.537,65.1Z" transform="translate(-17.001 -18.41)" fill="#fefefe"/>
    <path id="Path_26360" data-name="Path 26360" d="M832.916,105.778a18.175,18.175,0,0,1,6.62.9,14.439,14.439,0,0,1,5.171,4.661,21.378,21.378,0,0,1,1.606,5.092q-.059,2.7-.117,5.406c-.666,1.567-1.332,3.095-2,4.661a13.71,13.71,0,0,1-8.187,4.818,27.184,27.184,0,0,1-5.053-.353c-1.959-.353-3.369-1.8-5.092-2.664-.9-1.332-1.841-2.664-2.742-4a20.621,20.621,0,0,1-1.136-7.051,32.824,32.824,0,0,1,1.449-5.092A12.449,12.449,0,0,1,832.916,105.778Z" transform="translate(-467.732 -43.144)" fill="#fefefe"/>
    <path id="Path_26361" data-name="Path 26361" d="M589.89,105.769a15.51,15.51,0,0,1,7.4,1.371c2.35.588,3.526,2.468,4.74,4.309a16.184,16.184,0,0,1,1.645,5.21,18.749,18.749,0,0,1-.039,4.191,15.617,15.617,0,0,1-1.528,4.74,3.756,3.756,0,0,1-1.724,1.763,14.218,14.218,0,0,1-7.4,3.917,35.989,35.989,0,0,1-5.445-.353,20.314,20.314,0,0,1-5.092-3.016,25.677,25.677,0,0,1-2.7-4.113,22.025,22.025,0,0,1-.862-6.581c.392-1.567.783-3.134,1.214-4.7A12.381,12.381,0,0,1,589.89,105.769Z" transform="translate(-319.855 -43.135)" fill="#fefefe"/>
    <path id="Path_26362" data-name="Path 26362" d="M633.8,144.956a17.68,17.68,0,0,0,2.781-6.268c.431-.274-.157,1.175.823.392,2.076-1.567,4.466-2.664,6.7-4.035a1.456,1.456,0,0,1,1.489-.235v4.309c-3.173,1.1-5.837,3.173-8.814,4.7C635.837,144.329,634.975,145.073,633.8,144.956Z" transform="translate(-353.267 -60.739)" fill="#417fc0"/>
    <path id="Path_26363" data-name="Path 26363" d="M373.059,102.98c1.449.392,2.9.783,4.348,1.214a14.97,14.97,0,0,1,3.8,3.565c.431,1.018.9,2.076,1.332,3.095.118.705-.078,1.175-.862,1.214H361.7c-2.625.078-.979-1.449-.9-2.389C363.462,104.821,367.692,102.784,373.059,102.98Z" transform="translate(-186.852 -41.443)" fill="#fefefe"/>
    <path id="Path_26364" data-name="Path 26364" d="M630.17,99.966a16.241,16.241,0,0,0-4.27-4.231c1.41-2.194,3.917-2.7,5.915-4.035,2.468-.823,4.426-2.546,6.777-3.6.744-.353,1.489-.744,2.233-1.1v7.051a3.963,3.963,0,0,1-1.606,1.606c-2.272,1.371-4.583,2.625-6.855,3.917C631.658,99.966,630.992,100.475,630.17,99.966Z" transform="translate(-348.461 -31.731)" fill="#3187c5"/>
    <path id="Path_26365" data-name="Path 26365" d="M636.8,110.976c3.76-1.528,7.129-3.839,10.616-5.876v6.268c-2.429,2.076-5.288,3.369-8.069,4.857a.793.793,0,0,1-.9-.157A27.617,27.617,0,0,0,636.8,110.976Z" transform="translate(-355.092 -42.741)" fill="#3884c3"/>
    <path id="Path_26366" data-name="Path 26366" d="M640.937,125.7c2.507-.705,4.387-2.585,6.738-3.6.744-.313,1.489-.744,2.233-1.1v5.484c-2.507,1.449-5.014,2.938-7.56,4.348-.548.313-1.489,1.175-1.449-.47C640.937,128.8,640.937,127.268,640.937,125.7Z" transform="translate(-357.584 -52.412)" fill="#3d82c2"/>
    <path id="Path_26367" data-name="Path 26367" d="M124.1,169.2h5.053A8.548,8.548,0,0,1,124.1,169.2Z" transform="translate(-43.226 -81.732)" fill="#4b7abc"/>
    <path id="Path_26368" data-name="Path 26368" d="M180.3,116.331V112.1A6.522,6.522,0,0,1,180.3,116.331Z" transform="translate(-77.412 -46.999)" fill="#467dbe"/>
  </g>
</svg>
