<svg xmlns="http://www.w3.org/2000/svg" width="22.043" height="17.789" viewBox="0 0 22.043 17.789">
  <g id="Group_24" data-name="Group 24" transform="translate(-412.901 -1411.772)">
    <path id="Path_1907" data-name="Path 1907" d="M174.845,143.791H155.2a1.2,1.2,0,0,1-1.2-1.2V127.2a1.2,1.2,0,0,1,1.2-1.2h19.645a1.2,1.2,0,0,1,1.2,1.2v15.391A1.2,1.2,0,0,1,174.845,143.791ZM155.2,126.775a.429.429,0,0,0-.425.425v15.391a.429.429,0,0,0,.425.425h19.645a.429.429,0,0,0,.425-.425V127.2a.429.429,0,0,0-.425-.425Z" transform="translate(258.9 1285.77)" fill="#2196f3"/>
    <path id="Path_1908" data-name="Path 1908" d="M271.339,206.058h-.619a.791.791,0,0,1-.773-.7l-.039-.619a2.748,2.748,0,0,1-.7-.309l-.464.387a.772.772,0,0,1-1.044-.039l-.425-.425a.772.772,0,0,1-.039-1.044l.387-.464a5.476,5.476,0,0,1-.309-.7l-.619-.039a.763.763,0,0,1-.7-.773v-.619a.791.791,0,0,1,.7-.773l.619-.039a2.748,2.748,0,0,1,.309-.7l-.387-.464a.773.773,0,0,1,.039-1.044l.425-.425a.772.772,0,0,1,1.044-.039l.464.387a5.472,5.472,0,0,1,.7-.309l.039-.619a.763.763,0,0,1,.773-.7h.619a.791.791,0,0,1,.773.7l.039.619a2.748,2.748,0,0,1,.7.309l.464-.387a.772.772,0,0,1,1.044.039l.425.425a.772.772,0,0,1,.039,1.044l-.387.464a5.466,5.466,0,0,1,.309.7l.619.039a.763.763,0,0,1,.7.773v.619a.791.791,0,0,1-.7.773l-.619.039a2.746,2.746,0,0,1-.309.7l.387.464a.772.772,0,0,1-.039,1.044l-.425.425a.774.774,0,0,1-1.044.039l-.464-.387a5.475,5.475,0,0,1-.7.309l-.039.619A.791.791,0,0,1,271.339,206.058Zm0-.773v0Zm-2.2-1.817.232.155a3.279,3.279,0,0,0,1.005.425l.271.077.077,1.16h.619l.077-1.16.271-.077a3.276,3.276,0,0,0,1.005-.425l.232-.155.89.773.425-.425-.773-.89.155-.232a3.28,3.28,0,0,0,.425-1.005l.078-.271,1.16-.077v-.619l-1.16-.077-.077-.271a3.277,3.277,0,0,0-.425-1.005l-.155-.232.773-.89-.425-.425-.89.773-.232-.155a3.28,3.28,0,0,0-1.005-.425l-.271-.077-.077-1.16h-.619l-.077,1.16-.271.077a3.277,3.277,0,0,0-1.005.425l-.232.155-.89-.773-.425.425.773.89-.155.232a3.28,3.28,0,0,0-.425,1.005l-.077.271-1.16.077v.619l1.16.077.077.271a3.276,3.276,0,0,0,.425,1.005l.155.232-.773.89.425.425Z" transform="translate(153.086 1219.636)" fill="#2196f3"/>
    <path id="Path_1909" data-name="Path 1909" d="M327.9,259.6a1.7,1.7,0,1,1,1.7-1.7A1.717,1.717,0,0,1,327.9,259.6Zm0-2.63a.928.928,0,1,0,.928.928A.941.941,0,0,0,327.9,256.971Z" transform="translate(96.215 1162.767)" fill="#2196f3"/>
  </g>
</svg>
