<svg xmlns="http://www.w3.org/2000/svg" xmlns:xlink="http://www.w3.org/1999/xlink" width="64" height="64" viewBox="0 0 64 64">
  <defs>
    <filter id="Ellipse_14" x="0" y="0" width="64" height="64" filterUnits="userSpaceOnUse">
      <feOffset dy="3" input="SourceAlpha"/>
      <feGaussianBlur stdDeviation="5" result="blur"/>
      <feFlood flood-opacity="0.161"/>
      <feComposite operator="in" in2="blur"/>
      <feComposite in="SourceGraphic"/>
    </filter>
  </defs>
  <g id="Group_3171" data-name="Group 3171" transform="translate(-1490 -1730)">
    <g id="Group_3167" data-name="Group 3167" transform="translate(0 55)">
      <g id="Group_62" data-name="Group 62" transform="translate(109 15)">
        <g transform="matrix(1, 0, 0, 1, 1381, 1660)" filter="url(#Ellipse_14)">
          <circle id="Ellipse_14-2" data-name="Ellipse 14" cx="17" cy="17" r="17" transform="translate(15 12)" fill="#2e87c5"/>
        </g>
      </g>
      <g id="Group_63" data-name="Group 63" transform="translate(-210.978 212.061)">
        <path id="Path_26370" data-name="Path 26370" d="M100.108,304.487l-.675-2.024a.338.338,0,0,0-.05-.1l-1.656-2.208a.984.984,0,0,0-1.642,1.079l.5.87-.3-.152-.935-.935-1.52-3.04a.851.851,0,0,0-1.574.63l1.145,3.72a.325.325,0,0,0,.042.088l1.349,2.024a.337.337,0,0,0,.093.094l1.723,1.149a.337.337,0,0,1,.15.281v1.325h.675v-1.325a1.009,1.009,0,0,0-.451-.843l-1.667-1.111-1.284-1.925-1.13-3.673a.176.176,0,0,1,.325-.131l1.544,3.089a.341.341,0,0,0,.063.088l1.012,1.012a.34.34,0,0,0,.088.063l1.349.675a.337.337,0,0,0,.443-.471L96.671,300.9h0a.31.31,0,0,1,.517-.339l1.623,2.166.647,1.94.333,2.664.669-.084-.337-2.7a.313.313,0,0,0-.014-.064Z" transform="translate(1630.829 1196.403)" fill="#fafafa"/>
        <path id="Path_26371" data-name="Path 26371" d="M200.828,141.311a1.491,1.491,0,0,0-.78-1.294,1.806,1.806,0,0,0-1.618-.077,1.528,1.528,0,0,0-.923,1.213,1.463,1.463,0,0,0,.645,1.355,2.266,2.266,0,0,0-1.535.835,1.507,1.507,0,0,0-.95-.5,1.314,1.314,0,0,0,.534-.955,1.281,1.281,0,0,0-.4-1.008,1.58,1.58,0,0,0-2.158,0,1.281,1.281,0,0,0-.4,1.008,1.313,1.313,0,0,0,.533.955,1.525,1.525,0,0,0-.911.447,1.28,1.28,0,0,0-.365.883v2.361a.323.323,0,0,0,.108.238.389.389,0,0,0,.262.1h3.33a.323.323,0,0,0,.108.238.389.389,0,0,0,.262.1h5.18a.389.389,0,0,0,.262-.1.323.323,0,0,0,.108-.238h3.33a.389.389,0,0,0,.262-.1.323.323,0,0,0,.108-.238v-2.361a1.279,1.279,0,0,0-.365-.883,1.523,1.523,0,0,0-.911-.448,1.314,1.314,0,0,0,.534-.955,1.281,1.281,0,0,0-.4-1.008,1.58,1.58,0,0,0-2.158,0,1.281,1.281,0,0,0-.4,1.008,1.313,1.313,0,0,0,.534.955,1.507,1.507,0,0,0-.95.5,2.265,2.265,0,0,0-1.535-.835,1.469,1.469,0,0,0,.653-1.2Zm-6.1-.169a.778.778,0,0,1,.523.2.633.633,0,0,1,0,.954.792.792,0,0,1-1.047,0,.633.633,0,0,1,0-.954A.778.778,0,0,1,194.723,141.143Zm1.48,5.059h-2.96v-2.024a.646.646,0,0,1,.217-.477.778.778,0,0,1,.523-.2h1.48a.778.778,0,0,1,.523.2.646.646,0,0,1,.217.477Zm7.4-5.059a.778.778,0,0,1,.523.2.633.633,0,0,1,0,.954.792.792,0,0,1-1.047,0,.633.633,0,0,1,0-.954A.778.778,0,0,1,203.6,141.143Zm-1.48,3.035a.646.646,0,0,1,.217-.477.778.778,0,0,1,.523-.2h1.48a.778.778,0,0,1,.523.2.646.646,0,0,1,.217.477V146.2h-2.96Zm-2.96-3.71a.973.973,0,0,1,.654.247.792.792,0,0,1,0,1.193.99.99,0,0,1-1.308,0,.792.792,0,0,1,0-1.193A.972.972,0,0,1,199.163,140.468Zm2.22,4.047v2.024h-4.44v-2.024a1.292,1.292,0,0,1,.433-.954,1.557,1.557,0,0,1,1.047-.4h1.48a1.557,1.557,0,0,1,1.047.4A1.292,1.292,0,0,1,201.383,144.515Z" transform="translate(1534.404 1346.388)" fill="#fafafa"/>
        <path id="Path_26372" data-name="Path 26372" d="M148.992,47.627a.337.337,0,0,0-.24.323v3.035h.675V48.2l3.132-.94a.337.337,0,0,0,.24-.323v-1.8l.589.675.508-.444-1.18-1.349h0a.347.347,0,0,0-.508,0l-1.18,1.349.508.444.589-.675v1.551Z" transform="translate(1576.469 1437.58)" fill="#fafafa"/>
        <path id="Path_26369" data-name="Path 26369" d="M401.22,297.5a.845.845,0,0,0-.761.47l-1.52,3.04-.935.935-.3.152.5-.869h0a.984.984,0,0,0-1.642-1.079l-1.656,2.209a.338.338,0,0,0-.05.1l-.675,2.024a.31.31,0,0,0-.015.065l-.337,2.7.669.084.333-2.664.648-1.941,1.624-2.164a.31.31,0,0,1,.517.339l-1.05,1.835a.337.337,0,0,0,.443.472l1.349-.675a.338.338,0,0,0,.088-.063l1.012-1.012a.338.338,0,0,0,.063-.088l1.544-3.089a.174.174,0,0,1,.157-.1.176.176,0,0,1,.169.228l-1.131,3.673L398.974,304l-1.667,1.111a1.009,1.009,0,0,0-.451.842v1.325h.675v-1.325a.337.337,0,0,1,.15-.281l1.723-1.149a.337.337,0,0,0,.094-.094l1.349-2.024a.324.324,0,0,0,.042-.088l1.145-3.72h0a.85.85,0,0,0-.813-1.1Z" transform="translate(1342.022 1196.416)" fill="#fafafa"/>
        <path id="Path_26373" data-name="Path 26373" d="M313.385,9.108l-1.18,1.686.552.386.567-.809v2.64H314v-2.64l.567.809.552-.386-1.18-1.686h0a.35.35,0,0,0-.553,0Z" transform="translate(1419.905 1471.17)" fill="#fafafa"/>
        <path id="Path_26374" data-name="Path 26374" d="M420.151,45.782l.508-.444-1.18-1.349h0a.348.348,0,0,0-.508,0l-1.18,1.349.508.444.589-.675v1.8a.337.337,0,0,0,.231.32l2.8.935v2.792h.675V47.921a.337.337,0,0,0-.231-.32l-2.8-.935V45.109Z" transform="translate(1318.979 1437.609)" fill="#fafafa"/>
      </g>
    </g>
  </g>
</svg>
