<svg xmlns="http://www.w3.org/2000/svg" width="81.368" height="47.865" viewBox="0 0 81.368 47.865">
  <g id="Group_8659" data-name="Group 8659" transform="translate(-12576 -995)">
    <path id="Path_34886" data-name="Path 34886" d="M74.621,126.823h7.31V150.08h-7.31Zm64.809,0h7.311V150.08H139.43Zm-27.983,34.67a6.5,6.5,0,0,0,8.18-1.473A6.28,6.28,0,0,0,127.3,157.4a6.122,6.122,0,0,0,6.5-6.547h1.011V154.7h16.554V122.2H134.808v4.254l-3,.005-3.4-2.408a81.063,81.063,0,0,0-11.683-7.2c-3.793-1.824-7.074-2.514-10.492.506-1.087.96-2.128,1.963-3.164,2.978l-13.766,6.292H86.554V122.2H70v32.5H86.554v-3.674h2.488l15.333,11.329c2.513,1.11,5.025,1.258,7.071-.864Zm-.741-29.815c2.983,2.845,6.579,6.544,10.153,10.223,2.641,2.719,5.274,5.429,7.666,7.8,1.528,1.808.125,3.852-1.779,2.809L123.3,154.1c.329,1.935-1.777,2.265-2.826.925l-4.117,1.282c-.1,1.782-2.58,1.761-3.606.5l-4.05.573c-.449,1.082-.845,1.421-1.98.976L90.54,146.4H86.554V131.248h3.719l4.945-2.261c-1,1.193-2.042,2.148-2.389,3.756a4.908,4.908,0,0,0,3.763,5.837,9.5,9.5,0,0,0,5.425-.679,24.5,24.5,0,0,0,8.688-6.223Zm4.034-10.673a77.673,77.673,0,0,1,11.015,6.819c2.674,1.891,4.584,3.24,6.054,3.24l3-.005v15.168h-3.24c-2.3-2.283-4.849-4.908-7.406-7.54-3.793-3.9-7.606-7.827-10.717-10.768-2.884-2.726-5.056-.477-6.01.511A21.768,21.768,0,0,1,101.649,133a8.109,8.109,0,0,1-3.761,1.11c-.682-.047-.706-.313-.276-.815l2.1-2.492a100.582,100.582,0,0,1,7.126-7.712c3.286-3.2,3.644-4.136,7.9-2.091Z" transform="translate(12506.003 879.712)" fill="#fafafa" fill-rule="evenodd"/>
  </g>
</svg>
