<svg xmlns="http://www.w3.org/2000/svg" width="64.217" height="62" viewBox="0 0 64.217 62">
  <g id="Group_33" data-name="Group 33" transform="translate(-122.107 -3850.648)">
    <path id="Path_1997" data-name="Path 1997" d="M473.775,31.187a11.119,11.119,0,0,0-6.129-5.89,10.961,10.961,0,0,0-8.49.186,11.087,11.087,0,0,0-3.4,2.335,1.313,1.313,0,0,0,1.857,1.857,8.391,8.391,0,0,1,2.6-1.778,8.494,8.494,0,0,1,6.845,15.548,8.834,8.834,0,0,1-3.078.716,1.314,1.314,0,0,0,.053,2.627h.053a11.079,11.079,0,0,0,9.684-15.6Z" transform="translate(-288.39 3826.117)" fill="#fafafa"/>
    <path id="Path_1998" data-name="Path 1998" d="M331.085,93.244a11.218,11.218,0,0,0,4.033.769,10.954,10.954,0,0,0,4.457-.955,11.119,11.119,0,0,0,5.89-6.129,10.961,10.961,0,0,0-.186-8.49,11.119,11.119,0,0,0-6.129-5.89,10.961,10.961,0,0,0-8.49.186,11.119,11.119,0,0,0-5.89,6.129,11.128,11.128,0,0,0,6.315,14.38Zm-3.874-13.425a8.458,8.458,0,0,1,7.88-5.413,8.234,8.234,0,0,1,3.078.584,8.484,8.484,0,1,1-10.852,11.329,8.614,8.614,0,0,1-.106-6.5Z" transform="translate(-172.948 3784.596)" fill="#fafafa"/>
    <path id="Path_1999" data-name="Path 1999" d="M243.507,158.667a1.24,1.24,0,0,0,.451-.08,22.588,22.588,0,0,1,4.776-1.247,1.3,1.3,0,0,0-.4-2.574,26.473,26.473,0,0,0-5.306,1.38,1.33,1.33,0,0,0-.769,1.671,1.385,1.385,0,0,0,1.247.849Z" transform="translate(-101.051 3711.69)" fill="#fafafa"/>
    <path id="Path_2000" data-name="Path 2000" d="M139.624,183.154a19.428,19.428,0,0,0-2.653-5.81,1.3,1.3,0,1,0-2.176,1.433,17.272,17.272,0,0,1,2.308,5.041,13.867,13.867,0,0,1,.318,1.433,17.2,17.2,0,0,1-4.537,14.99,3.67,3.67,0,0,0-.929,1.645l-2.441,8.437H124.05l-.637-2.494a1.307,1.307,0,0,0-1.274-.982l-13.982-.053a1.33,1.33,0,0,0-1.274.982l-.663,2.547h-5.439L99.216,204.8a3.959,3.959,0,0,0-2.149-2.494,47.552,47.552,0,0,1-8.809-5.174.893.893,0,0,1-.345-.716L87.94,186.1l1.406-.027a1.375,1.375,0,0,0,1.035-.531l5.6-7.429c.027-.053.08-.106.106-.159a1.8,1.8,0,0,0-.159-1.751c-.053-.159-.133-.318-.186-.478l-.106-.239c-.212-.5-.451-1.008-.69-1.486-.425-.9-.9-1.8-1.38-2.68-.053-.106-.106-.186-.159-.292h.371a10.816,10.816,0,0,1,3.661.584c.318.106.982.425,1.141.5a.026.026,0,0,1,.027.027c.239.133,1.645.955,1.963,1.194a11.552,11.552,0,0,1,3.4,4.086,1.305,1.305,0,0,0,2.335-1.167,14.37,14.37,0,0,0-4.166-5.015c-.451-.345-1.831-1.141-2.2-1.353a6.551,6.551,0,0,0-1.645-.743,13.107,13.107,0,0,0-4.4-.716c-.318,0-.637,0-.9.027l-.5.027a.336.336,0,0,0-.159.027c-.053,0-.106.027-.159.027a2.243,2.243,0,0,0-1.565,1.327,2.274,2.274,0,0,0,.133,1.645,3.834,3.834,0,0,0,.4.822c0,.027.053.08.08.106l.08.133c.451.849.9,1.7,1.327,2.574.212.478.451.929.637,1.38l.106.265a1.843,1.843,0,0,1,.133.345l-4.776,6.341-2.069.027a1.28,1.28,0,0,0-1.274,1.3l-.053,11.647a3.506,3.506,0,0,0,1.38,2.812,49.813,49.813,0,0,0,9.313,5.492,1.263,1.263,0,0,1,.69.822l1.857,6.447a1.305,1.305,0,0,0,1.247.955h7.455a1.33,1.33,0,0,0,1.274-.982l.663-2.547,11.939.053.637,2.494a1.307,1.307,0,0,0,1.274.982h7.482a1.305,1.305,0,0,0,1.247-.955l2.733-9.445a1.222,1.222,0,0,1,.265-.478,19.84,19.84,0,0,0,5.253-17.273q-.159-.836-.4-1.671Z" transform="translate(36.793 3699.673)" fill="#fafafa"/>
    <path id="Path_2001" data-name="Path 2001" d="M179.85,283.4a2.1,2.1,0,1,1-2.1-2.1A2.118,2.118,0,0,1,179.85,283.4Z" transform="translate(-42.593 3600.483)" fill="#fafafa"/>
  </g>
</svg>
