<svg xmlns="http://www.w3.org/2000/svg" width="22.043" height="22.039" viewBox="0 0 22.043 22.039">
  <path id="Path_1894" data-name="Path 1894" d="M108.126,32.991l4.423-4.422a.479.479,0,0,0,.136-.294.473.473,0,0,0,.291-.136,2.964,2.964,0,1,0-4.191-4.191.475.475,0,0,0-.136.3.47.47,0,0,0-.292.131L103.934,28.8l-6.168-6.168a.493.493,0,0,0-.678,0l-4.558,4.56a.479.479,0,0,0,0,.678L98.7,34.037l-4,4a.475.475,0,0,0-.111.173l-1.477,4.009a1.271,1.271,0,0,0,.16,1.436,1.047,1.047,0,0,0,.766.294,1.929,1.929,0,0,0,.669-.134l4-1.474a.474.474,0,0,0,.182-.114h0l4-4,6.167,6.167a.479.479,0,0,0,.678,0l4.559-4.56a.479.479,0,0,0,0-.678Zm2.754-8.953a2.006,2.006,0,0,1,1.418,3.424.466.466,0,0,0-.076.1L109.359,24.7a.478.478,0,0,0,.1-.076,1.992,1.992,0,0,1,1.418-.587ZM98.3,32.286l1.233-1.233a.479.479,0,0,0-.678-.678l-1.233,1.233-1.661-1.661,1.232-1.232a.479.479,0,1,0-.678-.678l-1.232,1.232L93.546,27.53l3.881-3.882,5.829,5.829-3.882,3.882Zm.249,8.924-1.576-1.577a.479.479,0,0,0-.678.678L97.682,41.7l-3.307,1.218a.694.694,0,0,1-.424.064c-.013-.021-.043-.154.059-.429h0l1.441-3.911L99.7,34.385l.01-.008a.117.117,0,0,0,.008-.01l4.531-4.531c.007-.006.015-.011.022-.018s.011-.015.018-.022l4.4-4.4,2.837,2.837L102.566,37.2c-.006.005-.013.009-.018.015s-.01.012-.015.018Zm10.844,2.169-1.74-1.74,1.233-1.233a.479.479,0,0,0-.678-.678l-1.233,1.233L105.316,39.3l1.233-1.233a.479.479,0,0,0-.678-.678l-1.233,1.233-1.073-1.072,3.882-3.882,5.827,5.828Z" transform="translate(-92.389 -22.496)" fill="#ff5851"/>
</svg>
