<svg id="sisitech" xmlns="http://www.w3.org/2000/svg" width="181.294" height="39.155" viewBox="0 0 181.294 39.155">
  <path id="Path_346" data-name="Path 346" d="M21.864,141.168c.178.333.58.563.536,1-.306-.259-.614-.515-.913-.78-.126-.113-.2-.266.034-.328C21.616,141.029,21.749,141.125,21.864,141.168Z" transform="translate(-20.586 -113.791)" fill="#c2c2c2"/>
  <path id="Path_347" data-name="Path 347" d="M18.386,135.3l.465,0c.01.211.1.57-.112.582C18.412,135.906,18.342,135.585,18.386,135.3Z" transform="translate(-18.374 -109.416)" fill="#bababa"/>
  <path id="Path_348" data-name="Path 348" d="M39.724,100.273A24.562,24.562,0,0,1,27.7,97.082c-1.1-.62-1.5-1.084-.633-2.284,2.194-3.023,2.11-3.081,5.564-1.4A14.818,14.818,0,0,0,40.6,95.062c1.747-.158,3.143-.874,3.532-2.5.395-1.654-1.075-2.3-2.358-2.949a29.063,29.063,0,0,0-5.313-1.781A18.8,18.8,0,0,1,31.7,85.879c-4.325-2.638-4.866-7.839-1.135-11.119,4.325-3.8,12.848-3.9,18.59-.529a.728.728,0,0,1,.314,1.161c-.6,1.06-.92,2.408-1.841,3.124-1.1.857-2.1-.591-3.2-.9a15.528,15.528,0,0,0-7.1-.594c-1.5.268-2.842.914-2.981,2.494s1.208,2.174,2.557,2.564c2.424.7,4.926,1.163,7.292,2.051,5.14,1.929,6.973,4.457,6.291,8.761-.635,4-4.207,6.87-9.068,7.272C40.7,100.218,39.977,100.254,39.724,100.273Z" transform="translate(-24.447 -61.118)" fill="#555"/>
  <path id="Path_349" data-name="Path 349" d="M579.458,80.306c3.192-3.552,6.89-4.572,10.856-3.3,3.43,1.1,5.237,3.794,5.258,7.909.018,3.583-.139,7.172.06,10.745.107,1.944-1.035,1.8-2.4,1.747-1.234-.048-2.591.4-2.455-1.656.212-3.174.107-6.367.039-9.551-.081-3.933-1.8-5.778-5.234-5.774-3.747,0-6.1,2.336-6.123,6.1-.021,3.184-.05,6.37.021,9.553.024,1.053-.345,1.326-1.477,1.345-3.292.05-3.289.1-3.289-2.9,0-8.029.076-16.06-.055-24.086-.031-1.92,1.03-1.791,2.408-1.755,1.281.034,2.581-.335,2.445,1.69C579.3,73.532,579.458,76.7,579.458,80.306Z" transform="translate(-429.21 -58.738)" fill="#555"/>
  <path id="Path_350" data-name="Path 350" d="M388.78,113.69c-2.4,0-4.811.067-7.209-.022-1.825-.067-1.728.644-1.116,1.781,1.475,2.731,5.872,4,9.776,2.767a8.425,8.425,0,0,0,1.574-.673c1.71-.962,2.85-.673,3.9.926.366.56.136.831-.3,1.147a13.872,13.872,0,0,1-12.916,2.111c-4.4-1.4-6.8-4.407-7.229-8.637-.468-4.629,1.135-8.431,5.841-10.652a12.55,12.55,0,0,1,12.772.864c3.71,2.387,3.959,5.946,3.762,9.632-.052.969-.829.744-1.428.747C393.735,113.7,391.259,113.69,388.78,113.69Z" transform="translate(-281.89 -83.397)" fill="#555"/>
  <path id="Path_351" data-name="Path 351" d="M189.107,101.565a12.657,12.657,0,0,1,5.1.9c2.416.919,2.392,1,1.292,3.1-.523,1-.991,1.223-2.084.63a9.855,9.855,0,0,0-5.925-.924c-1.192.139-2.309.572-2.51,1.853-.222,1.415.941,1.788,2.089,2.114a43.252,43.252,0,0,1,6.591,2.054c2.212,1.032,3.483,2.609,3.491,4.883a5.85,5.85,0,0,1-3.347,5.451c-4.442,2.422-10.9.6-14.048-1.453-1.391-.907.146-1.577.444-2.317.533-1.319,1.281-1.558,2.667-.622a10.372,10.372,0,0,0,6.808,1.683c1.36-.117,2.426-.713,2.675-1.97.235-1.2-.842-1.8-1.843-2.185-2.272-.874-4.706-1.443-6.882-2.478-4.369-2.075-4.487-6.889-.353-9.355A10.429,10.429,0,0,1,189.107,101.565Z" transform="translate(-137.139 -83.748)" fill="#555"/>
  <path id="Path_352" data-name="Path 352" d="M475.528,112.2A9.8,9.8,0,0,1,482,102.363a13.292,13.292,0,0,1,13.209,1.1c.782.517,1.422,1.142.306,1.817-.946.57-.954,2.808-2.965,1.539a8.434,8.434,0,0,0-7.211-1.281c-2.769.833-4.623,2.478-4.97,5.242a6.4,6.4,0,0,0,3.755,6.844,7.817,7.817,0,0,0,8.2-.653c.753-.507,1.286-1.41,2.426-.22,1.982,2.063,2.113,2.042-.416,3.567a12.928,12.928,0,0,1-12.822.859C477.478,119.262,475.5,116.1,475.528,112.2Z" transform="translate(-355.999 -83.411)" fill="#555"/>
  <path id="Path_353" data-name="Path 353" d="M309.114,91.4c0-1.261-.013-2.523,0-3.784.016-1.3.421-2.628-2.026-2.525-1.4.06-.557-1.35-.722-2.08-.152-.685-.037-1.427,1.054-1.285,1.613.208,1.788-.61,1.7-1.757-.065-.859.094-1.738-.034-2.585-.261-1.726.369-2.238,2.35-2.248,2.063-.01,2.518.572,2.458,2.336-.136,4.084-.042,4.165,4.346,4.2,1.639.012,1.65.721,1.7,1.829.055,1.247-.28,1.723-1.786,1.721-4.3-.012-4.3.055-4.3,4.084,0,2.059-.042,4.117.01,6.176.076,2.98,2.3,4.261,5.122,2.8,1.208-.625,1.522-.172,1.9.62s1.689,1.554.094,2.466a8.256,8.256,0,0,1-7.677.677,6.4,6.4,0,0,1-4.176-5.855C309.036,94.586,309.114,92.989,309.114,91.4Z" transform="translate(-230.993 -63.649)" fill="#555"/>
  <path id="Path_354" data-name="Path 354" d="M141.33,112.618c0-2.918.086-5.836-.029-8.749-.081-2.027,1.467-1.362,2.526-1.405s2.322-.467,2.288,1.386c-.107,5.965-.068,11.933-.016,17.9.01,1.068-.379,1.312-1.49,1.329-3.279.05-3.279.1-3.279-2.9Z" transform="translate(-109.158 -84.386)" fill="#565656"/>
  <path id="Path_355" data-name="Path 355" d="M268.208,112.769c0-2.983.107-5.97-.042-8.948-.084-1.633.947-1.566,2.042-1.412,1.059.148,2.792-.831,2.766,1.376-.063,5.965-.034,11.933-.008,17.9.005.871-.186,1.278-1.3,1.338-3.464.184-3.462.235-3.462-2.9Z" transform="translate(-202.852 -84.329)" fill="#565656"/>
  <path id="Path_356" data-name="Path 356" d="M660.941,41.115c-4.27.01-7.656-3.04-7.671-6.915s3.36-6.992,7.59-7.03c4.152-.038,7.677,3.143,7.7,6.951C668.586,37.955,665.156,41.105,660.941,41.115Z" transform="translate(-487.269 -27.169)" fill="#575757"/>
  <path id="Path_357" data-name="Path 357" d="M145.211,68.692a2.875,2.875,0,0,1-3.03,2.741,2.789,2.789,0,0,1-2.952-2.789,3.008,3.008,0,0,1,5.982.048Z" transform="translate(-107.629 -56.687)" fill="#565656"/>
  <path id="Path_358" data-name="Path 358" d="M268.788,71.44a2.875,2.875,0,0,1-2.934-2.837,3.01,3.01,0,0,1,2.991-2.614,2.739,2.739,0,1,1-.058,5.451Z" transform="translate(-201.147 -56.697)" fill="#565656"/>
  <path id="Path_359" data-name="Path 359" d="M399.945,122.219c-1.673,0-3.349-.045-5.02.014-1.19.043-1.331-.481-1.13-1.352.481-2.078,3.449-3.981,6.369-4.06,2.879-.079,5.506,1.446,6.189,3.557.431,1.336.092,1.982-1.608,1.865C403.153,122.132,401.545,122.219,399.945,122.219Z" transform="translate(-295.581 -95.358)" fill="#fcfcfc"/>
  <path id="Path_360" data-name="Path 360" d="M665.863,44.6c-3.145.022-5.862-2.415-5.893-5.285-.031-2.849,2.643-5.383,5.755-5.458,3.143-.074,6.042,2.537,6.019,5.427C671.722,42.142,669.029,44.577,665.863,44.6Z" transform="translate(-492.216 -32.253)" fill="#fdfdfd"/>
  <path id="Path_361" data-name="Path 361" d="M676.576,47.155a2.946,2.946,0,0,1-3.036,2.973A3.092,3.092,0,0,1,670.3,47.3a3.023,3.023,0,0,1,3.085-2.959A2.945,2.945,0,0,1,676.576,47.155Z" transform="translate(-499.842 -40.232)" fill="#575757"/>
</svg>
