<?xml version="1.0" encoding="utf-8"?>
<!-- Generator: Adobe Illustrator 26.3.1, SVG Export Plug-In . SVG Version: 6.00 Build 0)  -->
<svg version="1.1" id="Layer_1" xmlns="http://www.w3.org/2000/svg" xmlns:xlink="http://www.w3.org/1999/xlink" x="0px" y="0px"
	 viewBox="0 0 128 116" style="enable-background:new 0 0 128 116;" xml:space="preserve">
<style type="text/css">
	.st0{fill:#FEFEFE;}
	.st1{fill:#E96C00;}
	.st2{fill:#FCD131;}
	.st3{fill:#FCAC00;}
	.st4{fill:#FDEDB6;}
</style>
<g>
	<g>
		<path class="st0" d="M63.01,115.92c-19.9,0-39.81-0.07-59.71,0.08c-2.81,0.02-3.31-0.62-3.29-3.34
			c0.13-23.55,0.08-47.1,0.08-70.65c2.51-0.56,3.43,1.49,4.66,2.93c17.37,20.24,34.65,40.55,52.13,60.69
			c1.85,2.13,3.39,4.51,5.43,6.47c0.63,0.74,1.14,1.54,1.26,2.54C63.53,115.13,63.35,115.56,63.01,115.92z"/>
		<path class="st0" d="M63.01,115.92c0.01-0.37,0.02-0.74,0.04-1.11c0.77-1.11,1.85-1.91,2.77-2.88
			c13.44-15.61,26.84-31.26,40.31-46.83c6.19-7.16,12.36-14.35,18.5-21.55c0.83-0.98,1.68-2.17,3.31-1.53
			c0,23.64-0.04,47.27,0.07,70.91c0.01,2.5-0.56,3.08-3.06,3.06C104.29,115.87,83.65,115.92,63.01,115.92z"/>
		<path class="st1" d="M61.94,112.99c-7.17-8.15-14.39-16.25-21.49-24.47c-6.99-8.09-13.86-16.29-20.79-24.43
			C14.23,57.7,8.81,51.3,3.33,44.95c-0.95-1.1-2.16-1.96-3.25-2.94c0-0.33,0-0.67,0-1c0.47-0.39,0.98-0.72,1.53-0.99
			c7.73-0.88,15.46-0.76,23.19-0.08c2.49,0.74,3.56,2.85,4.58,4.94c10.16,20.9,21.15,41.37,31.54,62.15
			C61.83,108.85,63.56,110.68,61.94,112.99z"/>
		<path class="st1" d="M127.93,42.01c-4.84,5.34-9.8,10.59-14.49,16.06c-6.87,7.99-13.5,16.18-20.32,24.21
			c-7.99,9.41-16.06,18.75-24.13,28.09c-0.85,0.98-1.94,1.75-2.92,2.62c-1.29-1.42-0.54-2.88,0.15-4.14
			c12.17-22.22,22.36-45.46,34.9-67.48c0.16-0.28,0.43-0.5,0.68-0.74c0.47-0.33,0.98-0.56,1.53-0.71c7.7-0.56,15.4-0.79,23.09,0.1
			c0.54,0.27,1.05,0.6,1.51,0.99C127.93,41.35,127.93,41.68,127.93,42.01z"/>
		<path class="st0" d="M0.98,40.92c-0.3,0.02-0.6,0.05-0.9,0.09c0-12.65,0.08-25.3-0.07-37.95C-0.02,0.56,0.57-0.02,3.07,0
			c18.64,0.12,37.29,0.07,55.94,0.07c0.32,0.58,0.21,1.07-0.31,1.47c-7.38,1.79-14.99,1.79-22.46,2.89
			c-2.11,0.31-4.27,0.37-6.34,0.91c-2.37,0.48-3.41,2.5-4.68,4.19c-6.7,8.85-13.07,17.93-19.82,26.74
			C4.08,37.99,2.78,39.68,0.98,40.92z"/>
		<path class="st0" d="M127.93,41.01l-0.28-0.33l-0.4,0.18c-1.77-0.76-2.68-2.36-3.77-3.8c-6.95-9.2-13.84-18.44-20.79-27.64
			c-1.27-1.68-2.31-3.68-4.7-4.1c-8.07-1.23-16.19-1.9-24.27-2.85c-1.8-0.21-4.18,0.41-4.72-2.4c18.65,0,37.29,0.06,55.94-0.07
			c2.5-0.02,3.09,0.56,3.06,3.06C127.85,15.71,127.93,28.36,127.93,41.01z"/>
		<path class="st2" d="M69,0.07c4.28,1.84,8.94,1.17,13.39,1.9c5.83,0.96,11.82,0.89,17.62,2.25c1.9,4.47,2.62,9.15,2.5,13.98
			c-0.1,4.29,0.21,8.54,0.72,12.81c0.4,3.36,1.06,6.92-1.27,10.01l0.01-0.01c-0.38,0.34-0.81,0.41-1.29,0.24
			C89.44,29.76,78.9,17.62,67.79,6.01c-1.76-1.84-3.5-3.62-6.39-2.98C60.23,2.78,58.72,2.94,58.98,1c0.07-0.31,0.08-0.62,0.03-0.93
			C62.34,0.07,65.67,0.07,69,0.07z"/>
		<path class="st3" d="M100.84,40.93c0.38,0.03,0.75,0.06,1.13,0.08c-1.27,4.71-4.19,8.6-6.37,12.86
			c-9.48,18.44-18.87,36.92-28.26,55.41c-0.59,1.15-0.85,2.47-1.26,3.71c-0.66,1.19-1.37,2.29-3.03,1.81
			c-0.37-0.6-0.74-1.21-1.1-1.81c-2.06-6.69-5.75-12.61-8.87-18.8c-8.94-17.75-18.05-35.41-27.1-53.1c0.23-0.23,0.47-0.46,0.7-0.69
			c0.57-0.32,1.19-0.53,1.84-0.65c15.74-0.73,31.49-0.16,47.24-0.32c6.14-0.06,12.27-0.01,18.41-0.01
			C96.5,39.42,98.8,39.57,100.84,40.93z"/>
		<path class="st3" d="M0.98,40.92c4.32-7.77,10.39-14.29,15.41-21.57c3.6-5.22,7.72-10.08,11.6-15.11c1.45,1.4,1.69,3.25,1.46,5.04
			c-1.23,9.31-0.56,18.74-1.95,28.04c-0.2,1.32-0.45,2.59-1.38,3.62c0,0-0.15,0.15-0.15,0.15C17.64,41.04,9.31,40.98,0.98,40.92z"/>
		<path class="st3" d="M101.96,41.02c-0.65-12.27-1.3-24.53-1.95-36.8c9.43,11.95,18.69,24.03,27.24,36.63
			C118.82,40.91,110.39,40.97,101.96,41.02z"/>
		<path class="st2" d="M26.12,40.94c0.63-12.23,1.25-24.47,1.88-36.7C38.25,2.51,48.58,1.37,58.98,1c0.74,1.24,1.98,1.03,3.13,1.09
			c0.37,1.1-0.17,1.98-0.84,2.7C50.33,16.59,39.65,28.61,28.42,40.12c-0.34,0.34-0.84,0.52-1.25,0.8
			C26.82,40.93,26.47,40.94,26.12,40.94z"/>
		<path class="st4" d="M27.17,40.93c4.86-7.74,12.15-13.34,17.92-20.31c5.34-6.45,11.32-12.37,17.02-18.53
			c1.35-1.02,2.45-1.17,3.8,0.3c7.29,7.91,14.97,15.48,21.92,23.67c4.27,5.02,10.16,8.63,13.01,14.87
			C76.28,40.93,51.73,40.93,27.17,40.93z"/>
	</g>
</g>
</svg>
