<svg xmlns="http://www.w3.org/2000/svg" width="99.148" height="90.814" viewBox="0 0 99.148 90.814">
  <g id="Group_5427" data-name="Group 5427" transform="translate(-1618.386 -4056)">
    <path id="Path_34831" data-name="Path 34831" d="M80.038,62.941H75.949v84.618h64.017V143.47H80.039Z" transform="translate(1542.438 3999.256)" fill="#ff5851"/>
    <path id="Path_34832" data-name="Path 34832" d="M152.036,98.071a22.677,22.677,0,0,1,1.254-33.2h-3.762a1.054,1.054,0,0,1,0-2.108h6.649a22.7,22.7,0,0,1,18.083-2.508V50.979h-22.34V28.638H110.242v84.618h64.017v-9.42a22.676,22.676,0,0,1-22.224-5.764Zm-2.509-41.666h14.616a1.054,1.054,0,1,1,0,2.107H149.527a1.054,1.054,0,0,1,0-2.107ZM127.62,98.283H116.6a1.054,1.054,0,1,1,0-2.108H127.62a1.054,1.054,0,0,1,0,2.108Zm.748-25.417H116.6a1.054,1.054,0,1,1,0-2.107h11.77a1.054,1.054,0,1,1,0,2.107Zm4.163,4.215a1.054,1.054,0,1,1,0,2.107H124.2a1.054,1.054,0,1,1,0-2.107Zm-15.933,0h3.709a1.054,1.054,0,1,1,0,2.107H116.6a1.054,1.054,0,1,1,0-2.107Zm0,6.323h8.3a1.054,1.054,0,1,1,0,2.107h-8.3a1.054,1.054,0,1,1,0-2.107Zm0,6.323h4.815a1.054,1.054,0,1,1,0,2.107H116.6a1.054,1.054,0,1,1,0-2.107Zm22.055,2.108H126.419a1.054,1.054,0,1,1,0-2.107h12.234a1.054,1.054,0,1,1,0,2.107Zm0-6.323h-7.471a1.054,1.054,0,1,1,0-2.107h7.471a1.054,1.054,0,1,1,0,2.107Zm0-6.323h-2.107a1.054,1.054,0,1,1,0-2.107h2.107a1.054,1.054,0,1,1,0,2.107Zm0-6.323h-4.131a1.054,1.054,0,1,1,0-2.107h4.131a1.054,1.054,0,1,1,0,2.107Zm2.108-7.092H114.49V32.885h26.271Z" transform="translate(1514.339 4027.362)" fill="#ff5851"/>
    <path id="Path_34833" data-name="Path 34833" d="M167.485,63.816H145.43v28.7h22.055Zm-12.244,13.3h2.423a2.56,2.56,0,0,1,2.593,2.571v1.675a3.488,3.488,0,0,1-2.729,3.393v1.538a1.054,1.054,0,0,1-2.107,0V84.744c-2.835-.632-3.561-4.447-1.665-4.447h0a1.053,1.053,0,0,1,1.054,1.054,1.381,1.381,0,0,0,1.37,1.37h.59a1.38,1.38,0,0,0,1.38-1.37V79.686a.463.463,0,0,0-.464-.453h-2.423a2.561,2.561,0,0,1-2.561-2.561V74.986A3.456,3.456,0,0,1,155.42,71.6V70.044a1.054,1.054,0,1,1,2.107,0v1.549c2.845.632,3.561,4.447,1.675,4.447h0a1.054,1.054,0,0,1-1.054-1.054,1.38,1.38,0,0,0-1.38-1.37h-.59a1.37,1.37,0,0,0-1.37,1.37v1.676a.454.454,0,0,0,.433.453Z" transform="translate(1485.508 3998.539)" fill="#ff5851"/>
    <path id="Path_34834" data-name="Path 34834" d="M352.62,28.641V48.873h20.232Z" transform="translate(1315.746 4027.36)" fill="#ff5851"/>
    <path id="Path_34839" data-name="Path 34839" d="M322.734,216.611a20.55,20.55,0,1,0,14.527-6.014,20.537,20.537,0,0,0-14.527,6.014Zm32.077,14.521a17.577,17.577,0,1,1-5.152-12.422A17.578,17.578,0,0,1,354.812,231.132Z" transform="translate(1345.158 3878.273)" fill="#ff5851"/>
    <path id="Path_34840" data-name="Path 34840" d="M349.225,265.295a15.459,15.459,0,1,0-4.53-10.932,15.46,15.46,0,0,0,4.53,10.932Zm2.465-13.51h0a4.627,4.627,0,0,1,6.249-.295l4.11-4.11a4.65,4.65,0,0,1,6.576,6.576l-7.376,7.376h0a4.658,4.658,0,0,1-6.575,0l-2.982-2.982a4.626,4.626,0,0,1,0-6.6Z" transform="translate(1322.238 3855.08)" fill="#ff5851"/>
    <path id="Path_34835" data-name="Path 34835" d="M512.893,402.8l-2.108-2.108a22.578,22.578,0,0,1-4.215,4.215l2.108,2.108c.19-.263.19-.242,3.8-3.857a2.836,2.836,0,0,1,.411-.358Z" transform="translate(1189.606 3722.518)" fill="#ff5851"/>
    <path id="Path_34836" data-name="Path 34836" d="M533.588,421.464l-1.507-1.517h0a1.887,1.887,0,0,0-2.666,0l-3.477,3.477a1.887,1.887,0,0,0,0,2.666l1.486,1.518a4.019,4.019,0,0,1,1.053-1.676c3.572-3.593,3.846-4.078,5.111-4.467Z" transform="translate(1174.19 3707.193)" fill="#ff5851"/>
    <path id="Path_34837" data-name="Path 34837" d="M586.907,475.057l-1.517-1.507a3.991,3.991,0,0,1-1.054,1.665c-3.625,3.625-3.857,4.078-5.142,4.468l1.517,1.517h0a1.886,1.886,0,0,0,2.667,0l3.477-3.477a1.886,1.886,0,0,0,.052-2.666Z" transform="translate(1130.101 3662.821)" fill="#ff5851"/>
    <path id="Path_34838" data-name="Path 34838" d="M548.1,445.815l3.473-3.473a2.026,2.026,0,0,1,2.667,0l2.727,2.727a1.886,1.886,0,0,1,0,2.667L553.5,451.21a2.026,2.026,0,0,1-2.667,0l-2.727-2.727A1.886,1.886,0,0,1,548.1,445.815Z" transform="translate(1156.028 3688.802)" fill="#ff5851"/>
    <path id="Path_34841" data-name="Path 34841" d="M391.248,301.538a2.541,2.541,0,0,0,3.594,0l7.376-7.376h0a2.541,2.541,0,0,0-3.593-3.593l-5.585,5.585-1.19-1.19h0a2.56,2.56,0,0,0-3.615,3.625Z" transform="translate(1287.181 3813.358)" fill="#ff5851"/>
  </g>
</svg>
