<svg xmlns="http://www.w3.org/2000/svg" xmlns:xlink="http://www.w3.org/1999/xlink" width="64" height="64" viewBox="0 0 64 64">
  <defs>
    <filter id="Ellipse_11" x="0" y="0" width="64" height="64" filterUnits="userSpaceOnUse">
      <feOffset dy="3" input="SourceAlpha"/>
      <feGaussianBlur stdDeviation="5" result="blur"/>
      <feFlood flood-opacity="0.161"/>
      <feComposite operator="in" in2="blur"/>
      <feComposite in="SourceGraphic"/>
    </filter>
  </defs>
  <g id="Group_38" data-name="Group 38" transform="translate(-720 -1660)">
    <g transform="matrix(1, 0, 0, 1, 720, 1660)" filter="url(#Ellipse_11)">
      <circle id="Ellipse_11-2" data-name="Ellipse 11" cx="17" cy="17" r="17" transform="translate(15 12)" fill="#3a499f"/>
    </g>
    <g id="Group_28" data-name="Group 28" transform="translate(-73.269 7.382)">
      <path id="Path_1919" data-name="Path 1919" d="M216.639,153.277a6.647,6.647,0,1,1,4.692-1.947A6.639,6.639,0,0,1,216.639,153.277Zm0-12.447a5.815,5.815,0,1,0,4.106,1.7A5.809,5.809,0,0,0,216.639,140.83Z" transform="translate(608.63 1534.98)" fill="#fafafa"/>
      <path id="Path_1920" data-name="Path 1920" d="M262.779,221.091l-4.149,4.979c-.005.006-.014.009-.019.015h0a.407.407,0,0,1-.1.079c-.013.007-.025.014-.039.02h0a.374.374,0,0,1-.315,0,.4.4,0,0,1-.039-.02h0a.407.407,0,0,1-.1-.079c-.006-.006-.014-.009-.019-.015l-4.149-4.979h0a.415.415,0,0,1-.013-.515l1.245-1.66a.415.415,0,0,1,.332-.166h5.809a.415.415,0,0,1,.332.166l1.245,1.66A.415.415,0,0,1,262.779,221.091Zm-2.509.149-.871,2.609,2.176-2.609Zm-5.222,0,2.174,2.609-.87-2.609Zm3.263,3.252,1.084-3.252h-2.168Zm-3.319-4.082h1.4l.415-.83h-1.2Zm2.746-.83-.415.83H259.3l-.415-.83Zm3.27,0h-1.2l.415.83h1.4Z" transform="translate(566.958 1459.963)" fill="#fafafa"/>
      <path id="Path_1921" data-name="Path 1921" d="M112.324,117.678a.415.415,0,0,1-.344.182h-5.109a8.282,8.282,0,0,1-14.1-.415H87.915a.415.415,0,0,1-.379-.583l1.585-3.566-1.585-3.566h0a.415.415,0,0,1,.379-.583h4.857a8.281,8.281,0,0,1,14.113-.392.421.421,0,0,1,.116-.023h4.979a.415.415,0,0,1,.385.569l-1.6,4,1.6,4a.415.415,0,0,1-.042.387Zm-23.77-7.7,1.4,3.151a.413.413,0,0,1,0,.337l-1.4,3.151h3.794a8.242,8.242,0,0,1,0-6.639Zm11.394-4.149a7.453,7.453,0,0,0-6.68,10.788h.041v.086a7.455,7.455,0,0,0,12.871.7.4.4,0,0,1,.178-.293,7.452,7.452,0,0,0-6.411-11.28Zm9.987,7.622a.415.415,0,0,1,0-.308l1.432-3.58h-4.019a8.216,8.216,0,0,1,0,7.468h4.019Z" transform="translate(725.321 1568.323)" fill="#fafafa"/>
    </g>
  </g>
</svg>
