<svg xmlns="http://www.w3.org/2000/svg" width="72.567" height="72.499" viewBox="0 0 72.567 72.499">
  <g id="Group_5429" data-name="Group 5429" transform="translate(-720.716 -3738)">
    <path id="Path_34814" data-name="Path 34814" d="M241.07,166.25a4.82,4.82,0,1,0,4.82,4.82A4.834,4.834,0,0,0,241.07,166.25Zm0,7.23a2.41,2.41,0,1,1,2.41-2.41A2.417,2.417,0,0,1,241.07,173.48Z" transform="translate(505.173 3592.407)" fill="#ff5851"/>
    <path id="Path_34815" data-name="Path 34815" d="M175.713,143.667a20.571,20.571,0,0,0-27.834,0l-3.494,3.253,3.494,3.253a20.571,20.571,0,0,0,27.834,0l3.494-3.253Zm-1.566,4.7a18.009,18.009,0,0,1-24.46,0L148,146.921l1.687-1.446a18.009,18.009,0,0,1,24.46,0l1.687,1.446Z" transform="translate(584.387 3616.555)" fill="#ff5851"/>
    <path id="Path_34816" data-name="Path 34816" d="M157.082,80.886,139.972,63.775a3.036,3.036,0,0,0-3.133-.723l-5.663-5.663a25.349,25.349,0,1,0-39.764-31.45,25.08,25.08,0,0,0,4.217,35.546,25.356,25.356,0,0,0,31.57,0l5.663,5.663a3.036,3.036,0,0,0,.723,3.133L150.7,87.392a4.582,4.582,0,0,0,6.507,0,4.7,4.7,0,0,0-.12-6.507ZM88.519,41.724a22.894,22.894,0,1,1,22.894,22.894A22.884,22.884,0,0,1,88.519,41.724Zm40.366,18.194.723-.723,5.422,5.422-.723.723Zm24.942,26.388a2.291,2.291,0,0,1-1.566-.6L135.15,68.593a.452.452,0,0,1,0-.723l2.41-2.41a.452.452,0,0,1,.723,0l17.111,17.111a2.256,2.256,0,0,1,0,3.133A2.538,2.538,0,0,1,153.827,86.306Z" transform="translate(634.829 3721.752)" fill="#ff5851"/>
    <path id="Path_34817" data-name="Path 34817" d="M135.439,43.75a21.689,21.689,0,1,0,21.689,21.689A21.753,21.753,0,0,0,135.439,43.75Zm0,40.969a19.279,19.279,0,1,1,19.279-19.279A19.336,19.336,0,0,1,135.439,84.719Z" transform="translate(610.803 3698.037)" fill="#ff5851"/>
    <path id="Path_34818" data-name="Path 34818" d="M445.62,67.275v42.174h2.41V67.275A5.966,5.966,0,0,0,442,61.25H428.75v2.41H442A3.55,3.55,0,0,1,445.62,67.275Z" transform="translate(339.182 3682.947)" fill="#ff5851"/>
    <path id="Path_34819" data-name="Path 34819" d="M133.66,379.55V367.5h-2.41v12.05a5.966,5.966,0,0,0,6.025,6.025h42.174v-2.41H137.275A3.55,3.55,0,0,1,133.66,379.55Z" transform="translate(595.713 3418.871)" fill="#ff5851"/>
    <path id="Path_34820" data-name="Path 34820" d="M463.75,105h9.64v2.41h-9.64Z" transform="translate(309.002 3645.222)" fill="#ff5851"/>
    <path id="Path_34821" data-name="Path 34821" d="M463.75,148.75h9.64v2.41h-9.64Z" transform="translate(309.002 3607.497)" fill="#ff5851"/>
    <path id="Path_34822" data-name="Path 34822" d="M463.75,192.5h9.64v2.41h-9.64Z" transform="translate(309.002 3569.772)" fill="#ff5851"/>
    <path id="Path_34823" data-name="Path 34823" d="M463.75,236.25h9.64v2.41h-9.64Z" transform="translate(309.002 3532.047)" fill="#ff5851"/>
    <path id="Path_34824" data-name="Path 34824" d="M446.25,280H458.3v2.41H446.25Z" transform="translate(324.092 3494.321)" fill="#ff5851"/>
    <path id="Path_34825" data-name="Path 34825" d="M446.25,323.75H458.3v2.41H446.25Z" transform="translate(324.092 3456.596)" fill="#ff5851"/>
    <path id="Path_34826" data-name="Path 34826" d="M507.5,367.5h3.615v2.41H507.5Z" transform="translate(271.277 3418.871)" fill="#ff5851"/>
    <path id="Path_34827" data-name="Path 34827" d="M166.25,393.75h32.534v2.41H166.25Z" transform="translate(565.533 3396.236)" fill="#ff5851"/>
    <path id="Path_34828" data-name="Path 34828" d="M166.25,437.5H203.6v2.41H166.25Z" transform="translate(565.533 3358.511)" fill="#ff5851"/>
    <path id="Path_34829" data-name="Path 34829" d="M192.5,280h21.689v2.41H192.5Z" transform="translate(542.898 3494.321)" fill="#ff5851"/>
    <path id="Path_34830" data-name="Path 34830" d="M192.5,105h21.689v2.41H192.5Z" transform="translate(542.898 3645.222)" fill="#ff5851"/>
  </g>
</svg>
