<svg id="ujam" xmlns="http://www.w3.org/2000/svg" width="104.711" height="50.719" viewBox="0 0 104.711 50.719">
  <path id="Path_394" data-name="Path 394" d="M104.7,35.37c0,4.95-.005,9.9.011,14.849,0,.408-.093.5-.5.5q-52.1-.016-104.2-.01Q.009,25.607,0,.5C0,.1.092,0,.5,0q14.19.02,28.379.01a.106.106,0,0,1-.013.149,4.593,4.593,0,0,0-1.85,1.085,3.46,3.46,0,0,0-.827,3.424,3.194,3.194,0,0,0,2.548,2.466A3.492,3.492,0,0,0,32.98,4.7,3.558,3.558,0,0,0,30.524.3c-.167-.05-.425.005-.447-.286q37.046,0,74.09-.015c.493,0,.543.142.542.57q-.021,10.383-.01,20.767c-.394-.127-.3-.5-.359-.769a11.1,11.1,0,0,0-2.97-5.533,11.725,11.725,0,0,0-6.955-3.418A10.86,10.86,0,0,0,85.344,14.5c-.476.43-.6.445-1.041.005A11.193,11.193,0,0,0,71.66,12.667a1.146,1.146,0,0,1-1.338-.064,3.194,3.194,0,0,0-4.835,1.477,2.775,2.775,0,0,0-.178,1.065q0,9.843,0,19.687a2.961,2.961,0,0,0,2.464,2.956,3.152,3.152,0,0,0,3.59-1.9,4.337,4.337,0,0,0,.281-1.6q-.011-5.71,0-11.42a5.068,5.068,0,0,1,4.976-5.03,4.967,4.967,0,0,1,5.024,4.906c.024,3.952.009,7.9,0,11.855a3.137,3.137,0,0,0,.941,2.353,3.041,3.041,0,0,0,3.375.671,2.9,2.9,0,0,0,2.006-2.781c.058-1.484.014-2.972.014-4.459,0-2.375-.019-4.749.008-7.124a5.529,5.529,0,0,1,1.633-4.019,5.142,5.142,0,0,1,7.593.624,4.917,4.917,0,0,1,.994,3.044q0,5.874,0,11.746a3.083,3.083,0,0,0,1.921,2.96,3.2,3.2,0,0,0,4.182-1.716C104.406,35.7,104.393,35.415,104.7,35.37Z" fill="#fefefe"/>
  <path id="Path_395" data-name="Path 395" d="M636.707,127.815a4.272,4.272,0,0,1-1.072,1.781,3.317,3.317,0,0,1-3.658.561,3.043,3.043,0,0,1-1.908-2.97c-.031-1.758-.008-3.517-.008-5.275v-6.471a4.872,4.872,0,0,0-4.644-5,4.93,4.93,0,0,0-5.149,4.054,6.775,6.775,0,0,0-.123,1.3q.008,5.656,0,11.311a3.263,3.263,0,0,1-3.273,3.342,3.183,3.183,0,0,1-3.366-3.28c-.021-3.933-.005-7.867-.007-11.8a4.87,4.87,0,0,0-4.865-4.936,4.979,4.979,0,0,0-4.848,4.934c0,3.9.011,7.794-.008,11.692a3.17,3.17,0,0,1-1.884,3.057,3.268,3.268,0,0,1-3.538-.348,3.048,3.048,0,0,1-1.218-2.6q.008-4.786,0-9.571,0-4.949,0-9.9a3.133,3.133,0,0,1,1.88-3.051,3.23,3.23,0,0,1,3.656.485c.263.221.4.1.6,0a11.329,11.329,0,0,1,11.951.725,6.312,6.312,0,0,1,1.319,1.129c.233.271.357.205.578-.013a10.642,10.642,0,0,1,7.9-3.164,11.674,11.674,0,0,1,11.557,9.711c.015.1-.037.227.116.265Q636.709,120.8,636.707,127.815Z" transform="translate(-532.008 -92.445)" fill="#1a1a1a"/>
  <path id="Path_396" data-name="Path 396" d="M241.705.13c.231.184.532.143.793.247a3.717,3.717,0,0,1,2.344,4.036,3.685,3.685,0,0,1-7.275-.04A3.568,3.568,0,0,1,240.49.226c.361-.116.747.046,1.106-.1Z" transform="translate(-211.628 -0.116)" fill="#1a1a1a"/>
  <path id="Path_397" data-name="Path 397" d="M265.716.13c-.353.2-.736.08-1.106.1a.123.123,0,0,0,.016-.1Z" transform="translate(-235.748 -0.116)" fill="#626262"/>
  <path id="Path_398" data-name="Path 398" d="M350.153,118.574c0,3.208.007,6.417,0,9.625a3.288,3.288,0,0,1-2.925,3.415,3.129,3.129,0,0,1-2.957-1.376c-.2-.275-.327-.315-.629-.131a13.481,13.481,0,1,1-.04-23.154c.337.2.473.163.722-.132a3.214,3.214,0,0,1,5.018-.286,3.5,3.5,0,0,1,.815,2.413Q350.152,113.763,350.153,118.574Z" transform="translate(-287.957 -93.601)" fill="#1a1a1a"/>
  <path id="Path_399" data-name="Path 399" d="M1.071,118.143V112a3.277,3.277,0,0,1,3.277-3.4,3.2,3.2,0,0,1,3.365,3.341c.015,3.915,0,7.83,0,11.745a4.86,4.86,0,0,0,4.865,4.93,4.964,4.964,0,0,0,4.848-4.927c0-3.9-.01-7.793.007-11.691a3.185,3.185,0,0,1,1.928-3.086,3.259,3.259,0,0,1,3.577.438,2.87,2.87,0,0,1,1.127,2.315c.015,4.133.063,8.266-.008,12.4a11.5,11.5,0,0,1-10.8,10.988,11.372,11.372,0,0,1-11.808-8.308,10.189,10.189,0,0,1-.387-2.787C1.077,122.021,1.071,120.082,1.071,118.143Z" transform="translate(-0.952 -96.731)" fill="#1a1a1a"/>
  <path id="Path_400" data-name="Path 400" d="M187.419,123.992q0,5.52,0,11.04a12.33,12.33,0,0,1-2.531,7.2,12.523,12.523,0,0,1-8.455,5.228,2.406,2.406,0,0,1-2.954-1.81,2.613,2.613,0,0,1,1.952-3.07,6.917,6.917,0,0,0,3.906-2.68,7.269,7.269,0,0,0,1.438-4.413q0-11.611,0-23.224a3.323,3.323,0,1,1,6.643-.024Q187.428,118.118,187.419,123.992Z" transform="translate(-154.509 -96.968)" fill="#1a1a1a"/>
  <path id="Path_401" data-name="Path 401" d="M383.13,171.808a6.953,6.953,0,1,1,6.951,6.959A7.01,7.01,0,0,1,383.13,171.808Z" transform="translate(-341.341 -146.878)" fill="#fefefe"/>
</svg>
