<svg xmlns="http://www.w3.org/2000/svg" width="45.595" height="56.117" viewBox="0 0 45.595 56.117">
  <g id="noun-money-5019924" transform="translate(-122.5 0)">
    <path id="Path_1956" data-name="Path 1956" d="M124.254,52.549A1.752,1.752,0,0,1,122.5,50.8V49.631A21.657,21.657,0,0,1,144.133,28h2.329A21.658,21.658,0,0,1,168.094,49.63V50.8a1.754,1.754,0,0,1-2.5,1.586,12.882,12.882,0,0,0-4.943-1.237,13.081,13.081,0,0,0-6.138,1.238,1.771,1.771,0,0,1-1.317.07,23.985,23.985,0,0,0-15.617,0,1.756,1.756,0,0,1-1.311-.068,13.256,13.256,0,0,0-11.269,0,1.762,1.762,0,0,1-.742.164Zm6.355-4.929a16.981,16.981,0,0,1,6.485,1.3,27.49,27.49,0,0,1,16.577,0,16.389,16.389,0,0,1,10.863-.671A18.149,18.149,0,0,0,146.462,31.5h-2.329A18.151,18.151,0,0,0,126.06,48.254a16.7,16.7,0,0,1,3.718-.615q.416-.021.833-.021Z" transform="translate(0 -25.192)" fill="#fafafa"/>
    <path id="Path_1957" data-name="Path 1957" d="M251.5,52.211h-.035a1.754,1.754,0,0,1-1.72-1.789A34.155,34.155,0,0,1,258.48,28.25a1.754,1.754,0,1,1,2.623,2.326,30.651,30.651,0,0,0-7.85,19.915,1.754,1.754,0,0,1-1.752,1.72Z" transform="translate(-114.494 -24.853)" fill="#fafafa"/>
    <path id="Path_1958" data-name="Path 1958" d="M334.254,234.873a1.753,1.753,0,0,1-1.754-1.754v-7.365a1.754,1.754,0,1,1,3.507,0v7.365a1.753,1.753,0,0,1-1.754,1.754Z" transform="translate(-188.956 -201.553)" fill="#fafafa"/>
    <path id="Path_1959" data-name="Path 1959" d="M342.546,27.357a1.753,1.753,0,0,1-1.754-1.72,30.646,30.646,0,0,0-7.85-19.913A1.761,1.761,0,0,1,332.5,4.56V1.754a1.754,1.754,0,1,1,3.507,0V3.9A34.144,34.144,0,0,1,344.3,25.569a1.754,1.754,0,0,1-1.719,1.789Z" transform="translate(-188.956 0)" fill="#fafafa"/>
    <path id="Path_1960" data-name="Path 1960" d="M284.477,370.524a7.305,7.305,0,1,1,5.158-2.14,7.3,7.3,0,0,1-5.158,2.14Zm0-11.087h0a3.794,3.794,0,1,0,2.679,1.111,3.789,3.789,0,0,0-2.679-1.111Z" transform="translate(-139.18 -320.263)" fill="#fafafa"/>
    <path id="Path_1961" data-name="Path 1961" d="M212.973,414.757h-2.116a1.754,1.754,0,1,1,0-3.507h2.116a1.754,1.754,0,1,1,0,3.507Z" transform="translate(-77.925 -370.039)" fill="#fafafa"/>
    <path id="Path_1962" data-name="Path 1962" d="M438.656,414.757h-2.117a1.754,1.754,0,1,1,0-3.507h2.117a1.754,1.754,0,1,1,0,3.507Z" transform="translate(-280.992 -370.039)" fill="#fafafa"/>
    <path id="Path_1963" data-name="Path 1963" d="M162.834,323.8H127.761a5.267,5.267,0,0,1-5.261-5.261V302.761a5.267,5.267,0,0,1,5.261-5.261h35.073a5.267,5.267,0,0,1,5.261,5.261v15.783a5.267,5.267,0,0,1-5.261,5.261Zm-35.073-22.8a1.755,1.755,0,0,0-1.754,1.754v15.783a1.755,1.755,0,0,0,1.754,1.754h35.073a1.755,1.755,0,0,0,1.754-1.754V302.761a1.755,1.755,0,0,0-1.754-1.754Z" transform="translate(0 -267.688)" fill="#fafafa"/>
    <path id="Path_1964" data-name="Path 1964" d="M127.761,308.022h-3.507a1.754,1.754,0,1,1,0-3.507h3.507a1.755,1.755,0,0,0,1.754-1.754v-3.507a1.754,1.754,0,1,1,3.507,0v3.507a5.267,5.267,0,0,1-5.261,5.261Z" transform="translate(0 -267.688)" fill="#fafafa"/>
    <path id="Path_1965" data-name="Path 1965" d="M481.268,308.022h-3.507a5.267,5.267,0,0,1-5.261-5.261v-3.507a1.754,1.754,0,1,1,3.507,0v3.507a1.755,1.755,0,0,0,1.754,1.754h3.507a1.754,1.754,0,1,1,0,3.507Z" transform="translate(-314.927 -267.688)" fill="#fafafa"/>
    <path id="Path_1966" data-name="Path 1966" d="M131.269,465.522a1.753,1.753,0,0,1-1.754-1.754v-3.507a1.755,1.755,0,0,0-1.754-1.754h-3.507a1.754,1.754,0,1,1,0-3.507h3.507a5.267,5.267,0,0,1,5.261,5.261v3.507a1.753,1.753,0,0,1-1.754,1.754Z" transform="translate(0 -409.405)" fill="#fafafa"/>
    <path id="Path_1967" data-name="Path 1967" d="M474.254,465.522a1.753,1.753,0,0,1-1.754-1.754v-3.507A5.267,5.267,0,0,1,477.761,455h3.507a1.754,1.754,0,1,1,0,3.507h-3.507a1.755,1.755,0,0,0-1.754,1.754v3.507a1.753,1.753,0,0,1-1.754,1.754Z" transform="translate(-314.927 -409.405)" fill="#fafafa"/>
  </g>
</svg>
