<?xml version="1.0" encoding="utf-8"?>
<!-- Generator: Adobe Illustrator 26.3.1, SVG Export Plug-In . SVG Version: 6.00 Build 0)  -->
<svg version="1.1" id="Layer_1" xmlns="http://www.w3.org/2000/svg" xmlns:xlink="http://www.w3.org/1999/xlink" x="0px" y="0px"
	 viewBox="0 0 700 700" style="enable-background:new 0 0 700 700;" xml:space="preserve">
<path d="M142.9,562.2c-5.8-5.8-15.2-5.8-21,0l-79.4,79.4c-5.8,5.8-5.8,15.2,0,21c2.9,2.9,6.7,4.4,10.5,4.4c3.8,0,7.6-1.5,10.5-4.4
	l79.4-79.4C148.7,577.5,148.7,568.1,142.9,562.2L142.9,562.2z M171.5,603.3l-38.3,38.3c-5.8,5.8-5.8,15.2,0,21
	c2.9,2.9,6.7,4.4,10.5,4.4s7.6-1.5,10.5-4.4l38.3-38.3c5.8-5.8,5.8-15.2,0-21C186.7,597.5,177.3,597.5,171.5,603.3L171.5,603.3z
	 M661.4,55.1l-0.5-7.2c-0.5-7.4-6.4-13.4-13.9-13.9l-7.2-0.5c-1.3-0.1-8.3-0.5-19.6-0.5c-53.4,0-186.9,9.4-274.1,96.6
	c-10.7,10.7-20.9,21.7-30.4,33c-11.8-5.7-25.6-8.8-39.8-8.8c-25.7,0-50,9.5-66.6,26.1l-90.7,90.7c-10.3,10.2-7.2,22.6-5.5,29.2
	c0.3,1.2,0.6,2.4,0.9,3.7c1.4,7.5,5,14.4,10.4,19.8c3.3,3.3,7.1,5.9,11.6,7.9l80.8,35.4l-79.7,79.7c-2.6,2.6-4.2,6.2-4.3,9.9
	c-0.1,1.5-1.1,35.9,33.3,70.4c31.8,31.8,63.5,33.3,69.5,33.3c0.5,0,0.8,0,0.9,0c3.7-0.2,7.2-1.7,9.9-4.3l81-81.1l37.6,85.6
	c1.9,4.3,4.5,8.3,7.9,11.7c5.4,5.4,12.3,9.1,19.8,10.4c2.3,0.4,4.7,0.6,7,0.6c10.1,0,19.6-3.9,26.8-11.1l91.6-91.6
	c27.2-27.2,32.6-68.7,14.8-101.5c11.2-9.5,22-19.5,32.3-29.9C672.7,241.4,661.9,62.6,661.4,55.1L661.4,55.1z M208.6,307.4
	c-3.8,0-7.6-1.5-10.5-4.4c-5.8-5.8-5.8-15.2,0-21l68-68c5.8-5.8,15.2-5.8,21,0c5.8,5.8,5.8,15.2,0,21l-68,68
	C216.2,305.9,212.4,307.4,208.6,307.4z M479.8,427.7l-68,68c-2.9,2.9-6.7,4.4-10.5,4.4s-7.6-1.5-10.5-4.4c-5.8-5.8-5.8-15.2,0-21
	l68-68c5.8-5.8,15.2-5.8,21,0C485.6,412.5,485.6,421.9,479.8,427.7z M540.4,194.9c-6.4,6.4-14.9,9.9-23.9,9.9
	c-9.1,0-17.5-3.5-23.9-9.9c-13.2-13.2-13.2-34.7,0-47.9c6.4-6.4,14.9-9.9,24-9.9c9.1,0,17.6,3.5,23.9,9.9
	C553.6,160.2,553.6,181.7,540.4,194.9L540.4,194.9z M75.7,553.6c3.8,0,7.6-1.5,10.5-4.4l34-34c5.8-5.8,5.8-15.2,0-21
	c-5.8-5.8-15.2-5.8-21,0l-34,34c-5.8,5.8-5.8,15.2,0,21C68.1,552.2,71.9,553.6,75.7,553.6z"/>
</svg>
