<svg xmlns="http://www.w3.org/2000/svg" xmlns:xlink="http://www.w3.org/1999/xlink" width="64" height="64" viewBox="0 0 64 64">
  <defs>
    <filter id="Ellipse_14" x="0" y="0" width="64" height="64" filterUnits="userSpaceOnUse">
      <feOffset dy="3" input="SourceAlpha"/>
      <feGaussianBlur stdDeviation="5" result="blur"/>
      <feFlood flood-opacity="0.161"/>
      <feComposite operator="in" in2="blur"/>
      <feComposite in="SourceGraphic"/>
    </filter>
  </defs>
  <g id="Group_41" data-name="Group 41" transform="translate(-1381 -1660)">
    <g transform="matrix(1, 0, 0, 1, 1381, 1660)" filter="url(#Ellipse_14)">
      <circle id="Ellipse_14-2" data-name="Ellipse 14" cx="17" cy="17" r="17" transform="translate(15 12)" fill="#141418"/>
    </g>
    <g id="Group_31" data-name="Group 31" transform="translate(-177.978 -134.943)">
      <path id="Path_1951" data-name="Path 1951" d="M206.6,32.876a1.2,1.2,0,0,0-1.254-.248.4.4,0,0,0-.032-.06V17.893a.4.4,0,0,0-.4-.4H192.9a.4.4,0,0,0-.4.4V39.531a.4.4,0,0,0,.4.4h7.878a3.406,3.406,0,0,0,2.8,1.447,3.37,3.37,0,0,0,3.342-3.362V33.685a1.138,1.138,0,0,0-.324-.809Zm-2.981-.894h0a1.17,1.17,0,0,0-1.15-.284V29.814a1.15,1.15,0,0,0-1.246-1.142,1.2,1.2,0,0,0-1.046,1.2v4.985a1.942,1.942,0,0,0-.549-.269V32.563a.4.4,0,0,0-.4-.4h-4.765a.4.4,0,0,0-.4.4v3.763a.4.4,0,0,0,.4.4h4.276l.272.365H193.3V21.579h11.22V32a1.166,1.166,0,0,0-.8.12.942.942,0,0,0-.1-.136Zm-5.839,3.466.353.477h-3.27V32.964h3.963v1.559a1.893,1.893,0,0,0-.966.365.4.4,0,0,0-.08.561Zm6.74-17.155v2.484H193.3V18.293ZM193.3,39.13V37.884h6.315l.453.605h0a1.315,1.315,0,0,1,.232.441c.02.068.044.132.068.2Zm12.823-1.114a2.577,2.577,0,0,1-5.049.713,2.1,2.1,0,0,0-.365-.7l-2-2.665a1.169,1.169,0,0,1,1.25.4l.3.4a.4.4,0,0,0,.721-.24V29.862a.4.4,0,0,1,.313-.4.364.364,0,0,1,.276.1.344.344,0,0,1,.1.244v2.977l-.056,3.162h.8l.056-3.206a.337.337,0,0,1,.337-.321.341.341,0,0,1,.345.345v.292l-.044,2.889h.8l.044-2.893h0a.349.349,0,0,1,.345-.345.341.341,0,0,1,.345.345v.617l-.056,2.268h.8l.056-2.332a.341.341,0,0,1,.681.028Z" transform="translate(1391.266 1794.508)" fill="#fafafa"/>
      <path id="Path_1952" data-name="Path 1952" d="M227.15,120.4h4.616v.8H227.15Z" transform="translate(1358.202 1696.313)" fill="#fafafa"/>
      <path id="Path_1953" data-name="Path 1953" d="M236.479,154.491a.4.4,0,0,0-.4-.4h-9.048a.4.4,0,0,0-.4.4v4.564a.4.4,0,0,0,.4.4h3.851v.212a2.89,2.89,0,0,0,.8,2l.585-.549h0a2.1,2.1,0,1,1,3.017.032l.569.565a2.869,2.869,0,0,0,.625-3.065Zm-2.713,2.28a2.9,2.9,0,0,0-2.689,1.883h-3.606v-3.763h8.207v2.6a2.886,2.886,0,0,0-1.911-.725Z" transform="translate(1358.698 1664.166)" fill="#fafafa"/>
      <path id="Path_1954" data-name="Path 1954" d="M226.62,305.46h3.819v.8H226.62Z" transform="translate(1358.708 1519.728)" fill="#fafafa"/>
      <path id="Path_1955" data-name="Path 1955" d="M309.4,50.75h2.18v.8H309.4Z" transform="translate(1279.719 1762.773)" fill="#fafafa"/>
    </g>
  </g>
</svg>
