<?xml version="1.0" encoding="utf-8"?>
<!-- Generator: Adobe Illustrator 26.3.1, SVG Export Plug-In . SVG Version: 6.00 Build 0)  -->
<svg version="1.1" id="Layer_1" xmlns="http://www.w3.org/2000/svg" xmlns:xlink="http://www.w3.org/1999/xlink" x="0px" y="0px"
	 viewBox="0 0 902 902" style="enable-background:new 0 0 902 902;" xml:space="preserve">
<style type="text/css">
	.st0{fill:#FEFEFE;}
	.st1{fill:#141418;}
	.st2{fill:#FDFDFD;}
	.st3{fill:#7240FE;}
	.st4{fill:#FECB66;}
	.st5{fill:#24B5F6;}
	.st6{fill:#D7D7D7;}
	.st7{fill:#FAFAFA;}
	.st8{fill:#DDDDDD;}
	.st9{fill:#F9F9F9;}
	.st10{fill:#F0F0F0;}
	.st11{fill:#F6F6F6;}
	.st12{fill:#F5F5F5;}
	.st13{fill:#ECECEC;}
	.st14{fill:#EFEFEF;}
	.st15{fill:#E4E4E4;}
	.st16{fill:#F7F7F7;}
	.st17{fill:#E8E8E8;}
	.st18{fill:#F3F3F3;}
	.st19{fill:#F4F4F4;}
	.st20{fill:#FCFCFC;}
	.st21{fill:#FCFCFD;}
	.st22{fill:#F9F9FA;}
	.st23{fill:#ABABAC;}
	.st24{fill:#575759;}
	.st25{fill:#4F4F51;}
	.st26{fill:#252528;}
	.st27{fill:#252529;}
	.st28{fill:#262629;}
</style>
<g>
	<path class="st0" d="M901.91,451c0,148.8-0.02,297.61,0.09,446.41c0,3.75-0.84,4.59-4.59,4.59c-297.6-0.1-595.21-0.1-892.81,0
		C0.84,902,0,901.16,0,897.41C0.1,599.8,0.1,302.2,0,4.59C0,0.84,0.84,0,4.59,0C302.2,0.1,599.8,0.1,897.41,0
		c3.75,0,4.6,0.84,4.59,4.59C901.89,153.39,901.91,302.2,901.91,451z"/>
	<path class="st1" d="M33.04,21.96C39.05,13.3,47.27,9.98,57.82,9.98c262.1,0.13,524.2,0.13,786.29,0.01
		c9.07,0,16.64,2.39,22.83,8.99c2.41,1.18,3.26,3.51,4.27,5.74c0.69,2.13,1.54,4.21,1.87,6.45c0.11,0.77,0.14,1.55,0.14,2.33
		c-0.01,1.62,0.08,3.23,0.06,4.85c-0.04,2,0.11,3.99,0.04,5.99c-0.02,1.23-0.01,2.46,0,3.69c0.5,257.55,0.09,515.1,0.22,772.65
		c0,3.49,0.19,7-0.29,10.47c-0.51,2.51-1.52,4.87-2.37,7.27c-1.49,2.72-3.36,5.16-5.55,7.36c-2.59,2.52-5.43,4.65-8.86,5.92
		c-4.07,1.94-8.41,1.84-12.75,1.84c-52.79,0-105.59,0-158.38,0c-208.51,0-417.01,0-625.52-0.01c-4.82,0-9.69,0.35-14.24-1.78
		c-3.39-1.28-6.25-3.37-8.82-5.89c-2.19-2.13-3.9-4.66-5.78-7.06c-1.07-1.73-1.79-3.6-2.14-5.61c-0.28-3.5-0.16-7-0.16-10.5
		c-0.01-257.22,0-514.45-0.01-771.67c-0.05-2.13,0.07-4.27,0.04-6.41c-0.01-1.43,0.03-2.85,0.02-4.28c-0.01-1.36,0.04-2.72,0-4.08
		c-0.04-1.32,0.05-2.63,0.07-3.95c0.16-2.88,1.2-5.52,2.17-8.18C31.39,23.17,31.98,22.33,33.04,21.96z"/>
	<path class="st2" d="M870.08,25.07c-1.04-2.03-2.09-4.06-3.13-6.09c2.32-4.69,5.53-3.81,8.88-1.33c6.01,4.45,9.69,10.8,13.05,17.19
		c5.28,10.02,6.19,20.81,6.19,32.15c-0.21,259.91-0.17,519.81-0.13,779.72c0,9.2-4.7,16.56-8.61,24.28
		c-1.11,2.2-1.97,4.68-3.59,6.44c-6.99,7.59-15.47,11.91-25.63,14.96c-12.31,3.69-24.37,2.38-36.48,2.39
		c-254.24,0.18-508.48,0.21-762.72-0.07c-14.43-0.02-28.2-4.87-37.82-16.63c-3.39-4.14-7.18-8.66-8.04-14.49
		c-0.07-0.49-0.12-1.06-0.4-1.43c-6.05-7.85-4.54-17.04-4.54-25.92C7.09,575.68,7.1,315.11,7.07,54.53c0-8.84,4.68-15.92,8.47-23.32
		c1.86-3.63,3.71-7.25,6.92-10.16c5.62-5.08,5.44-5.28,10.57,0.9c-0.35,0.71-0.7,1.42-1.06,2.13
		c-11.29,11.69-15.42,25.7-15.41,41.87c0.18,257.1,0.13,514.19,0.09,771.29c0,10.51,1.44,20.54,6.95,29.75
		c6.72,11.22,16.6,16.69,29.54,17.46c37.94,2.27,75.91,0.93,113.87,0.96c221.94,0.17,443.88,0.08,665.82,0.08
		c8.15,0,16.34-0.4,24.23-2.4c15.92-4.03,23.64-15.69,27.05-30.8c1.21-5.35,1.42-10.86,1.42-16.39
		c-0.04-256.6-0.04-513.2-0.02-769.79c0-11.66-1.27-22.96-8.2-32.85C875.21,30.26,873.09,27.27,870.08,25.07z"/>
	<path class="st3" d="M548.82,449.11c0.08,5.66,0.09,11.32,0.26,16.98c0.07,2.33-0.74,3.42-3.14,3.21c-1.16-0.1-2.33-0.01-3.5-0.01
		c-62.32,0-124.64,0-186.96,0c-6.76,0-6.77,0-6.71-6.62c0.02-2.16,0.13-4.33,0.2-6.49c4.12-21.18,14.18-39.44,28.8-54.93
		c16.98-18,37.83-29.15,62.84-31.54c2.88-0.27,5.86-1.89,8.7,0.23c0.53,0.01,1.07,0.03,1.6,0.04c4.93-2.16,9.88-0.42,14.6,0.46
		c34.46,6.42,58.9,26.46,75.28,56.82C544.46,434.07,548.01,441.15,548.82,449.11z"/>
	<path class="st4" d="M449.31,369.94c-20.52,1.27-39.48,7.03-56.14,19.44c-20.59,15.33-33.97,35.64-41.56,59.99
		c-0.72,2.31-0.7,4.95-2.63,6.81c-0.09-2.16-0.25-4.32-0.25-6.48c-0.01-57.8-0.01-115.59-0.01-173.39c0-8.01,0-8.02,8.61-6.8
		c29.47,4.19,52.58,18.89,69.99,42.75C439.86,329.47,446.75,348.9,449.31,369.94z"/>
	<path class="st5" d="M548.82,449.11c-5.12-13.33-10.72-26.41-19.64-37.77c-18.14-23.11-41.15-37.64-70.88-40.42
		c-2.47-0.23-4.93-0.62-7.39-0.94c4.42-43.36,32.88-84.74,77.22-97.34c5.26-1.5,10.75-2.19,16.13-3.29c3.6-0.74,4.92,0.34,4.89,4.32
		c-0.18,24.66-0.09,49.32-0.09,73.98c0,31.83,0,63.65-0.01,95.48C549.04,445.12,548.9,447.12,548.82,449.11z"/>
	<path class="st6" d="M44.09,850.02c4.62,1.55,9.35,1.94,14.22,1.94c261.79-0.05,523.58-0.05,785.37,0c4.87,0,9.61-0.39,14.22-1.94
		c0.63,2.24-0.61,3.86-1.92,5.39c-2.69,3.14-6.11,5.05-10.12,6.05c-4.59,1.14-9.24,1.08-13.91,1.08c-253.98,0-507.95,0-761.93,0.01
		c-5.34,0-10.77,0.3-15.8-1.71C49.3,858.86,44.26,856.63,44.09,850.02z"/>
	<path class="st7" d="M870.08,25.07c4.6-0.17,6.5,3.74,8.32,6.57c6.12,9.5,8.59,20.06,8.59,31.48
		c-0.1,259.26-0.07,518.51-0.09,777.77c0,14.33-4.43,26.84-15.21,36.83c-5.23,4.85-11.7,7.29-18.26,7.9
		c-7.55,0.7-15.17,1.38-22.84,1.37c-254.42-0.1-508.85-0.07-763.27-0.15c-8.89,0-17.87-0.34-26.49-3
		c-7.27-2.24-12.98-7.09-17.02-13.12c-5.96-8.89-8.79-18.97-8.78-29.92c0.09-132.79,0.06-265.59,0.06-398.38
		c0-127.46-0.03-254.92,0.05-382.39c0.01-12.8,3.86-24.35,13.15-33.64c1.05-1.05,1.98-2.31,3.69-2.31
		c-0.68,2.67-1.35,5.34-2.03,8.02c-9.02,13.05-9.43,27.9-9.42,43c0.07,253.78,0.03,507.56,0.11,761.34c0,8.97,1.12,17.88,5,26.19
		c1.65,3.53,4.69,6.04,6.69,9.3c5.35,7.38,13.46,8.33,21.61,9.59c24.01,3.73,48.15,1.76,72.22,1.78
		c235.28,0.18,470.56,0.12,705.84,0.05c8.28,0,16.64-1.22,24.49-3.58c12.22-3.68,20.47-11.84,23.46-24.81
		c2.44-10.59,3.56-21.19,3.56-32.1c-0.13-251.28-0.1-502.55-0.07-753.83c0-9.11-2.86-17.67-4.58-26.45
		c-0.89-4.52-4.95-7.43-6.87-11.5C871.36,29.09,870.72,27.08,870.08,25.07z"/>
	<path class="st8" d="M44.09,850.02c3.66,7.66,10.31,10.34,18.22,10.88c0.99,0.07,2,0.01,3,0.01c257.13,0,514.26,0,771.39,0.01
		c8.97,0,16.84-2.01,21.21-10.9c2.35-1.63,4.71-3.25,7.06-4.88c2.04,6.49-2.18,14.72-9.57,18.15c-7.2,3.34-14.95,4.52-22.79,5.09
		c-1.33,0.1-2.66,0.02-4,0.02c-251.74,0-503.47,0-755.21,0.02c-8.76,0-17.25-1.39-25.43-4.5c-6.49-2.47-10.02-7.44-11.54-14.03
		c-0.38-1.67-0.64-3.29,0.6-4.74C39.38,846.77,41.74,848.4,44.09,850.02z"/>
	<path class="st9" d="M872,31.09c8.42,5.42,8.84,14.56,10.97,23.04c1.97,7.86,1.96,15.76,1.96,23.73
		c-0.02,252.25,0.07,504.5-0.29,756.75c-0.02,11.59-1.57,23.79-9.41,33.86c-6.75,8.67-15.55,12.85-26.2,14.5
		c-22.49,3.49-45.09,1.83-67.63,1.84c-237.59,0.14-475.18,0.19-712.77-0.25c-11.11-0.02-23.3-0.23-33.34-7.51
		c-1.64-1.19-3.21-2.36-4.21-4.15c1.75-1.26,3.21-0.14,4.47,0.77c6.57,4.78,14.03,6.05,21.92,5.89c4.44,0.95,8.92,0.93,13.42,0.93
		c253.76-0.01,507.51-0.02,761.27,0c6.67,0,13.26-0.75,19.81-1.88c16.94-2.94,25.12-14.62,27.51-30.49
		c0.9-5.96,0.94-11.92,0.94-17.9c-0.01-254.76,0-509.51-0.03-764.27c0-10.04-1.52-19.81-6.76-28.66c-0.77-1.3-0.82-2.89-1.56-4.22
		C872.05,32.43,872.02,31.76,872,31.09z"/>
	<path class="st10" d="M29.92,44.1c0,2,0,4,0,6.01c-0.66,3.92-0.84,7.87-0.84,11.84c0,256.17,0,512.35,0,768.52
		c0,6.31,0.35,12.64,0.93,18.9c0.56,6.14,4.46,11.04,8.65,15.34c1.92,1.97,4.19,3.8,6.67,5.18c3.12,2.4,6.62,3.47,10.57,2.94
		c1.8-0.19,3.58-0.16,5.28,0.58c3.32,1.57,6.87,1.09,10.35,1.09c204.27,0.02,408.55,0.02,612.82,0.02c49.32,0,98.64,0,147.96,0
		c2.99,0,6.02,0.22,8.79-1.29c3.63-1.19,7.58-0.19,11.17-1.65c12.68-3.47,18.77-12.91,20.45-25.88c3.12-24.08,1.46-48.21,1.48-72.29
		c0.19-232.02,0.1-464.04,0.15-696.05c0-10.15-1.24-20.17-2.27-30.23c0-1,0-2,0-3c4.63,1.62,5.12,6.03,5.49,9.68
		c1.26,12.41,0.75,24.91,0.75,37.37c0.01,246.56,0.01,493.12,0,739.69c0,3.33,0.14,6.66-0.17,9.99c-1.3,4.81-0.94,9.85-2.67,14.67
		c-4.55,12.63-15.35,20.61-28.78,21.94c-11.82,1.17-23.61,0.85-35.42,0.85c-247.27,0.05-494.53,0.04-741.8,0.02
		c-7.83,0-15.61-0.44-23.12-2.99c-12.48-4.22-20.5-15.28-21.78-28.3c-1.2-12.15-0.86-24.28-0.87-36.42
		c-0.04-247.43-0.03-494.87-0.05-742.3c0-6.51,0.52-12.96,2.18-19.25C26.4,46.96,26.78,44.27,29.92,44.1z"/>
	<path class="st11" d="M872.07,33.1c5.83,5.58,7.2,13.12,8.78,20.48c1.58,7.36,1.06,14.88,1.06,22.35
		c0.01,253.71,0,507.42,0.02,761.13c0,7.7-0.91,15.5-3.67,22.42c-3.9,9.79-10.83,17.19-22.07,19.66
		c-9.32,2.05-18.64,2.78-28.11,2.78c-246.55-0.02-493.1,0-739.64-0.05c-10.78,0-21.61,0.84-32.35-0.96
		c-0.26-0.72-0.06-1.27,0.59-1.66c3.21-1.3,6.59-0.73,9.88-0.73c256.51-0.03,513.02-0.03,769.53-0.01c5.85,0,11.63-0.31,17.19-2.24
		c1.99-1.47,4.4-2.01,6.66-2.84c1.78-0.93,3.86-1.4,5.1-3.21c1.79-1.64,3.5-3.37,5.15-5.15c1.73-1.18,2.3-3.06,2.99-4.88
		c1.08-2.84,1.73-5.84,3.09-8.58c2.33-2.35,0.24-5.21,0.89-7.77c0.16-0.57,0.38-1.1,0.65-1.62c0.33-3,0.09-6,0.09-8.99
		c0.02-254.86,0-509.71,0.11-764.57c0-5.25-0.06-10.63-0.7-15.67c-0.64-4.99-3.39-9.94-5.23-14.89
		C872.08,36.43,872.07,34.76,872.07,33.1z"/>
	<path class="st12" d="M854.92,875.91c-2.92,4.58-8.05,2.52-12.04,3.92c-1.33,0.47-2.97,0.08-4.47,0.08c-260.77,0-521.55,0-782.32,0
		c-14.31-0.07-25.12-6.38-31.24-19.21c-3.57-7.5-4.23-16.01-4.23-24.35c-0.03-89.64-0.02-179.27-0.02-268.91
		c0-166.95,0-333.89,0.01-500.84c0-8.19,1-16.25,3.89-23.96c1.03-2.75,1.91-5.78,5.43-6.54c0,1.33,0,2.67,0,4
		c-4.56,8.83-5.36,18.36-5.36,28.08c0.01,256.09-0.01,512.18,0.09,768.27c0,8.93,0.89,17.78,5.76,25.9
		c5,8.34,12.71,12.05,21.5,13.89c4.65,0.98,9.53,1.22,14.39,1.22c256.42-0.04,512.85-0.05,769.27,0
		C842.08,877.47,848.44,876.06,854.92,875.91z"/>
	<path class="st13" d="M46.08,871.91c-8.49-4.8-14.76-11.52-17.29-21.08c-0.86-3.23-0.68-6.77-0.68-10.17
		c-0.03-259.82-0.03-519.64,0.04-779.46c0-3.72-0.26-7.64,1.77-11.1c0.06,1.66,0.16,3.32,0.16,4.99c0.01,256.25,0,512.5,0.01,768.76
		c0,3.65,0.03,7.31,0.04,10.96c1.04,3.81,1.73,7.67,2.13,11.62c1.64,16.05,11.73,22.8,26.83,23.99c2.32,0.18,4.66,0.08,6.99,0.08
		c256.63,0,513.27-0.01,769.9,0.09c5.31,0,10.54-1.32,15.86-0.55c1.71,0.91,1.5,1.88,0.08,2.88c-3.19,1.77-6.66,0.72-10,1
		c-3,1.43-6.21,0.98-9.34,0.98c-243.39,0.02-486.77,0.02-730.16,0.02c-11.83,0-23.66,0-35.48,0c-2.33,0-4.68,0.09-6.85-0.99
		c-1.67,0-3.33,0-5,0C51.97,873.76,49.05,872.73,46.08,871.91z"/>
	<path class="st14" d="M851.92,872.91c0.33-0.67,0.67-1.33,1-2c0.55-1.83,2.17-2.4,3.67-3.08c9.01-4.08,12.37-11.99,13.95-20.95
		c0.83-4.7,0.11-9.58,1.27-14.28c0.04-4.16,0.12-8.32,0.12-12.48c0-255.84,0-511.69,0.01-767.53c0-1.83,0.1-3.66,0.16-5.48
		c2.75,6.71,3.67,13.96,3.68,20.95c0.18,255.28,0.23,510.55-0.09,765.83c-0.01,11.56-1.11,23.97-11,32.75
		C861.01,869.87,856.82,872.14,851.92,872.91z"/>
	<path class="st15" d="M37.03,845.15c1.2,11.45,6.56,17.29,18.39,19.63c6.99,1.39,14.02,2.2,21.21,2.2
		c251.08-0.08,502.15-0.07,753.23-0.06c7.03,0,13.78-1.55,20.53-3.27c9.64-2.45,13.63-9.25,14.57-18.5
		c1.59-2.19,3.19-4.39,4.78-6.58c2.16,2.03,0.88,4.53,0.55,6.63c-2.4,14.92-6.77,22.32-23.2,24.85c-3.79,0.58-7.59,0.89-11.43,0.89
		c-256.51-0.02-513.02-0.02-769.54-0.02c-5.5,0-10.89-0.56-16.26-2.01c-10.94-2.96-16-10.65-17.68-21.17
		c-0.49-3.03-1.24-6.14,0.03-9.2C33.82,840.73,35.43,842.94,37.03,845.15z"/>
	<path class="st16" d="M29.92,36.1c-6.48,8.33-7.75,18.27-7.75,28.22c-0.11,213.9-0.08,427.8-0.08,641.7
		c0,43.98-0.05,87.96,0.04,131.94c0.02,7.62,0.75,15.41,4.03,22.27c5.26,11.01,14.47,17.27,26.75,18.66
		c1.14,0.13,2.37-0.11,3.17,1.02c0,0.33,0,0.67,0,1c-7.82,0.13-15.09-1.58-21.51-6.27c-1.05-0.77-2.01-1.8-3.49-1.73
		c-9.57-9.89-11.9-22.44-11.91-35.35c-0.12-257.69-0.12-515.37,0.05-773.06c0.01-10.49,0.8-21.31,8.22-30.02
		c0.74-0.87,1.67-1.59,2.51-2.38C29.94,33.44,29.93,34.77,29.92,36.1z"/>
	<path class="st17" d="M32.22,838.52c-0.01,5.99,1.71,11.75,3.53,17.26c2.9,8.76,10.99,11.32,19.03,13.06
		c7.51,1.63,15.21,1.07,22.85,1.07c252.57,0.01,505.13,0.02,757.7-0.06c8.57,0,17.17-0.91,24.56-5.97
		c3.94-2.71,6.15-6.47,7.22-11.38c1-4.63,2.26-9.19,2.65-13.93c0.68-1.99,1.36-3.97,2.05-5.96c0.21,7.18,1.23,14.35-1.52,21.4
		c-3.26,8.36-8.63,14.3-17.36,16.91c-264.12,2.31-528.25,0.36-792.37,0.96c-13.17,0.03-23.55-5.05-28.44-18.09
		c-2.28-6.07-1.61-12.62-1.97-18.99C32.17,835.29,30.34,837.95,32.22,838.52z"/>
	<path class="st18" d="M854.92,875.91c-4.48,1.2-9.03,1.99-13.68,1.99c-260.25,0.01-520.5,0.02-780.74-0.01
		c-8.83,0-17.23-2.2-24.26-7.61c-6.57-5.07-9.95-12.31-11.13-20.49c-1.87-12.91-0.97-25.9-0.97-38.86
		c-0.05-248.92-0.05-497.84,0-746.76c0-6.62,0.6-13.23,2.94-19.55c0.64-1.72,1.1-3.52,2.86-4.52c0,1.33,0,2.66,0,3.99
		c-4.8,5.46-3.42,12.5-4.8,18.83c-0.21,0.95-0.03,1.99-0.03,2.99c0,256.44-0.02,512.87,0.08,769.31c0,9.76,0.93,19.49,6.75,28.07
		c5.29,7.8,13.13,10.95,21.76,12.54c8.86,1.63,17.88,1.08,26.85,1.08c251.6,0,503.21,0.03,754.81-0.08c9.75,0,19.53-0.87,28.04-6.82
		c8.15-5.7,11.34-13.94,12.5-23.28c0.24-1.97-0.08-4.01,1.04-5.81c2.45,0.3,1.6,1.69,1,3c0,0.33,0,0.67,0,1c-1.09,2.22,0.99,4.9-1,7
		c-1,3-2,6-3,9c-1.28,1.5-1.8,3.46-3,5c-2.05,1.28-3.72,2.94-5,5c-1.54,1.2-3.5,1.72-5,3C858.91,874.58,856.92,875.25,854.92,875.91
		z"/>
	<path class="st19" d="M877.91,843.92c-0.03-1.1,0.18-2.28-1-3c0-258.47,0.02-516.94-0.11-775.41c0-7.31,0.63-15.12-4.73-21.41
		c0-2,0-4,0-6.01c3.72,5.22,5.53,11,6.34,17.41c0.49,3.88,0.48,7.66,0.48,11.49c0.01,256.1,0.02,512.2-0.15,768.3
		C878.75,838.06,881.6,841.43,877.91,843.92z"/>
	<path class="st2" d="M482.34,566.34c2.72-7.89,5.65-15.5,7.89-23.3c1.06-3.7,3.14-3.88,6.2-4.04c3.41-0.18,4.64,1.39,5.5,4.34
		c1.91,6.53,4.09,12.98,6.19,19.45c0.44,1.35,0.56,2.9,2.31,4.16c2.74-8.17,5.39-16.12,8.09-24.06c1.1-3.23,5.88-5.13,8.69-3.6
		c1.51,0.82,0.93,2,0.6,3.02c-3.9,11.99-7.85,23.97-11.8,35.95c-1.32,4.02-4.72,1.98-7.23,2.35c-2.25,0.33-4.09-0.04-4.88-2.92
		c-1.53-5.6-3.43-11.1-5.32-16.59c-0.8-2.32-1.07-4.89-3.23-7.26c-2.52,7.6-5.07,14.84-7.27,22.17c-1.08,3.57-2.85,4.99-6.72,4.78
		c-3.46-0.19-5.66-0.44-6.84-4.56c-3.08-10.68-6.97-21.12-10.22-31.75c-0.45-1.48-3.46-3.94,0.26-5.29c4-1.45,7.92,0.14,8.97,3.37
		c2.21,6.79,4.38,13.6,6.53,20.41C480.44,564.22,480.5,565.63,482.34,566.34z"/>
	<path class="st2" d="M269.19,561.14c-1.74,5.35-3.66,10.65-5.17,16.07c-0.96,3.48-3.29,3.64-6.11,3.47
		c-2.69-0.15-5.41,0.68-6.62-3.3c-3.52-11.58-7.37-23.06-11.34-34.49c-1.18-3.41-0.01-3.62,2.98-3.92c4.48-0.45,6.56,1.2,7.68,5.44
		c1.57,5.92,3.68,11.7,5.55,17.53c0.57,0.97,0.88,2.39,2.09,2.53c1.65,0.19,0.94-1.82,1.81-2.48c2.22-6.44,4.65-12.82,6.57-19.35
		c1.02-3.45,3.16-3.59,6.03-3.61c2.8-0.01,4.53,0.49,5.43,3.64c2.28,7.97,5.01,15.8,7.55,23.67c1.82,0.19,1.84-1.15,2.18-2.2
		c2.32-7.1,4.63-14.21,6.99-21.29c1.09-3.26,6.39-5.21,9.19-3.53c1.29,0.77,0.6,1.62,0.3,2.53c-3.91,12.01-7.87,23.99-11.66,36.04
		c-1.27,4.04-4.43,2.49-7,2.79c-2.49,0.29-4.54-0.02-5.41-2.97c-1.65-5.58-3.51-11.09-5.27-16.64c-0.59-2.17-0.92-4.43-2.17-6.75
		C269.89,555.91,270.17,558.87,269.19,561.14z"/>
	<path class="st20" d="M335.91,569.13c0,2,0.01,4,0,5.99c-0.02,5.32-3.82,7.9-8.08,4.84c-2.14-1.54-2.99-0.64-4.58-0.02
		c-4.39,1.73-8.81,1.71-13-0.55c-3.17-1.71-4.93-4.64-4.78-8.2c0.16-3.75,2.15-6.5,5.8-7.99c3.7-1.51,7.54-1.01,11.34-1.2
		c1.2-0.06,2.96,0.76,3.42-1.03c0.46-1.79-0.64-3.24-2.19-4.08c-3.31-1.79-6.85-1.73-10.1-0.11c-3.15,1.57-4.72,0.84-5.99-2.32
		c-1.51-3.76,1.62-3.8,3.47-4.53c5.1-2.01,10.45-2.17,15.69-0.74c5.19,1.41,8.08,5.19,8.63,10.47c0.33,3.13,0.06,6.31,0.06,9.47
		C335.71,569.13,335.81,569.13,335.91,569.13z"/>
	<path class="st20" d="M559.56,569.3c0,2.28,0.1,4.12-0.03,5.94c-0.12,1.73,0.92,4.24-1.12,4.96c-2.34,0.82-5.31,1.56-7.39-0.68
		c-1.11-1.2-1.6-1.04-2.75-0.27c-2.92,1.93-6.25,2.04-9.61,1.67c-5.6-0.62-9.28-4.19-9.43-9.1c-0.16-5.1,3.04-8.67,8.91-9.48
		c2.78-0.39,5.64-0.16,8.46-0.32c1.07-0.06,2.58,0.56,3.04-0.9c0.49-1.57-0.34-3-1.66-3.85c-3.54-2.28-7.45-2.25-10.93-0.32
		c-3.69,2.04-4.55-0.15-5.7-2.73c-1.54-3.47,1.53-3.42,3.22-4.12c5.24-2.14,10.71-2.34,16.13-0.86c4.56,1.25,7.16,4.51,8.27,9.1
		C559.87,562.12,559.41,565.94,559.56,569.3z"/>
	<path class="st20" d="M622.47,567.36c-2.99,0-5.99-0.05-8.98,0.02c-2.67,0.06-2.71,1.24-1.25,3.09c2.53,3.21,7.84,4.41,12.81,1.82
		c3.78-1.98,4.96,0.58,6.22,2.64c1.7,2.79-1.4,3.3-2.85,4.11c-7.14,4.02-18.21,2.11-23.44-3.85c-4.82-5.5-5.06-14.23-0.56-20.32
		c4-5.42,11.34-7.7,18.85-5.85c6.03,1.48,10.42,6.65,11.35,13.12c0.53,3.73-0.36,5.78-4.67,5.27
		C627.49,567.12,624.97,567.36,622.47,567.36z"/>
	<path class="st21" d="M418.92,551.98c2.47,5.62,4.94,11.25,7.62,17.35c3.41-4.43,4.55-9.63,6.68-14.31
		c3.11-6.83,2.97-6.89,11.22-5.63c-3.86,9.11-7.62,18.11-11.48,27.07c-1.51,3.51-2.92,7.11-4.91,10.34
		c-3.58,5.82-11.06,7.62-17.17,4.59c-1.67-0.83-2.98-1.75-1.52-3.75c1.09-1.5,0.82-4.72,4.32-3.22c2.37,1.01,4.8,1.2,6.91-0.95
		c2.41-2.46,0.51-4.62-0.31-6.86c-2-5.43-5.11-10.41-6.43-16.11c-0.58-1.91-1.79-3.57-2.27-5.49c-0.43-1.73-3.26-3.82-0.96-5.05
		c1.96-1.05,5.15-1.52,7.32,0.9C418.29,551.21,418.59,551.61,418.92,551.98z"/>
	<path class="st20" d="M418.92,551.98c-2.42-1.43-4.85-2.83-8.05-1.62c0.87,3.38,2.87,6.5,2.99,10.13c-1.27-2.18-2.54-4.36-3.8-6.54
		c-2.84-0.97-1.93,2.21-3.24,2.93c-2.95,6.83-6.1,13.58-8.78,20.52c-1.28,3.33-3.54,3.33-6.31,3.31c-2.77-0.01-4.93-0.06-6.22-3.42
		c-3.26-8.49-7.03-16.79-10.64-25.25c-2.46,1.53-2.08,4.42-3.85,5.98c-2-2.42-0.54-4.57,0.52-6.83c-2.09-0.16-3.23,1.2-4.4,2.66
		c-0.84,1.05-1.37,2.8-3.35,2.07c0.57-5.66,3.52-7.53,9.29-7.24c10.12,0.5,10.14,0.14,14,9.59c1.44,3.51,2.85,7.04,4.57,11.31
		c3.62-5.6,5.4-11.23,7.58-16.63c1.23-3.04,2.72-4.57,6.2-4.2c3.13,0.33,6.32,0.12,9.48,0.05
		C417.18,548.76,418.89,549.26,418.92,551.98z"/>
	<path class="st20" d="M363.8,555.92c3.07-1.84,3.12-8.53,9.13-5.4c-0.98,2.23-2.25,4.67-1.9,7.5c-2.73,6.76-5.52,13.5-8.15,20.31
		c-1.18,3.06-3.64,2.31-5.85,2.32c-2.22,0-4.6,0.66-5.84-2.39c-3.61-8.92-7.43-17.76-11.18-26.63c-0.76-1.8-0.51-2.67,1.75-2.85
		c4.3-0.34,7.32,0.12,8.92,5.25c1.66,5.28,3.57,10.68,6.71,15.51C359.59,564.87,361.69,560.4,363.8,555.92z"/>
	<path class="st20" d="M654.79,581.1c-8.59,0.11-12.54-3.83-12.59-12.18c-0.02-2.66-0.04-5.33,0.01-7.99
		c0.04-2.24,0.3-4.31-3.11-4.27c-2.09,0.03-1.75-2.07-1.75-3.5c0.01-1.42-0.42-3.58,1.54-3.68c3.03-0.14,3.62-1.58,3.31-4.11
		c-0.5-4.01,2.31-3.52,4.84-3.65c2.67-0.14,4.73,0.17,4.2,3.62c-0.45,3,0.71,4.39,3.84,3.93c2.77-0.41,4.29,0.28,4.23,3.64
		c-0.06,2.99-0.82,4.44-3.96,3.89c-3.38-0.58-4.44,0.95-4.15,4.17c0.24,2.64,0.02,5.33,0.12,7.99c0.12,3.23,1.82,5.32,5.08,4.5
		c4.15-1.05,3.96,2.18,4.49,4.21c0.67,2.58-1.87,2.63-3.49,3.13C656.47,581.08,655.43,581.03,654.79,581.1z"/>
	<path class="st2" d="M567.74,558.46c0-6.14,0.18-12.3-0.06-18.43c-0.16-3.95,2.41-3.21,4.59-3.11c2.03,0.09,4.84-1.2,4.79,2.91
		c-0.14,12.62-0.1,25.24-0.03,37.86c0.03,4.46-3.22,2.62-5.31,2.94c-2.41,0.37-4.13-0.02-4.03-3.25
		C567.87,571.09,567.74,564.78,567.74,558.46z"/>
	<path class="st22" d="M585.61,558.04c0-5.81,0.19-11.62-0.07-17.42c-0.17-3.83,1.97-3.81,4.69-3.79c2.63,0.03,4.84-0.23,4.78,3.69
		c-0.2,12.11-0.17,24.22-0.01,36.33c0.05,3.67-1.83,3.93-4.67,3.88c-2.72-0.04-4.9,0.01-4.77-3.79
		C585.76,570.65,585.61,564.34,585.61,558.04z"/>
	<path class="st23" d="M269.19,561.14c-0.04-0.16-0.14-0.32-0.12-0.47c0.46-2.68,0.61-6.98,3.16-6.84c2.59,0.15,2.93,4.29,2.73,7.22
		c-1.61-1.57-1.32-3.98-2.51-5.83C270.22,556.6,271.16,559.69,269.19,561.14z"/>
	<path class="st24" d="M260.07,561.99c0.31,1.91-0.55,3.39-1.78,5.19c-1.61-1.61-2.06-3.34-2.13-5.24
		C257.45,563.13,258.74,564.02,260.07,561.99z"/>
	<path class="st25" d="M406.82,556.88c-0.06-1.56,0.44-3.07,1.43-4.1c2.02-2.11,1.81-0.17,1.81,1.18
		C408.98,554.92,407.9,555.9,406.82,556.88z"/>
	<path class="st14" d="M60.08,873.91c260.61,0,521.23,0,781.84,0c-2.15,2.58-5.11,1.99-7.89,1.99
		c-106.61,0.01-213.21,0.01-319.82,0.01c-148.75,0-297.49,0-446.24-0.01C65.2,875.9,62.23,876.49,60.08,873.91z"/>
	<path class="st14" d="M46.08,871.91c3.16-0.05,6.1,0.87,9,2C51.74,874.79,48.87,873.55,46.08,871.91z"/>
	<path class="st19" d="M876.91,851.92c0.39-2.32-0.92-4.89,1-7C878.15,847.33,880.51,850.05,876.91,851.92z"/>
	<path class="st19" d="M870.91,865.91c0.35-2.06,0.98-3.94,3-5C873.57,862.97,872.93,864.86,870.91,865.91z"/>
	<path class="st19" d="M860.91,873.91c1.06-2.01,2.94-2.65,5-3C864.86,872.93,862.97,873.57,860.91,873.91z"/>
	<path class="st26" d="M319.89,575c-2.5-0.43-5.52-0.8-5.14-4.07c0.52-4.47,4.55-3.44,7.47-3.58c1.64-0.08,4.54-1.19,4.28,2.23
		C326.21,573.46,323.15,574.46,319.89,575z"/>
	<path class="st27" d="M545.69,567.18c1.78,0.48,4.66-0.87,4.44,2.44c-0.27,3.89-3.35,5.11-6.63,5.25
		c-2.53,0.11-5.44-0.64-5.11-3.92C538.86,566.37,542.97,567.83,545.69,567.18z"/>
	<path class="st28" d="M619.08,562.11c-1.39,0-2.41,0.16-3.36-0.04c-1.61-0.33-4.19,1.19-4.64-1.28c-0.43-2.34,1.83-3.68,3.73-4.76
		c0.55-0.31,1.26-0.37,1.91-0.48c3.87-0.66,9.11,1.8,8.67,4.61C624.74,564.25,620.82,560.9,619.08,562.11z"/>
</g>
</svg>
