<?xml version="1.0" encoding="utf-8"?>
<!-- Generator: Adobe Illustrator 26.3.1, SVG Export Plug-In . SVG Version: 6.00 Build 0)  -->
<svg version="1.1" id="Layer_1" xmlns="http://www.w3.org/2000/svg" xmlns:xlink="http://www.w3.org/1999/xlink" x="0px" y="0px"
	 viewBox="0 0 900 902" style="enable-background:new 0 0 900 902;" xml:space="preserve">
<style type="text/css">
	.st0{fill:#FEFEFE;}
	.st1{fill:#FEECE8;}
	.st2{fill:#FEDBD4;}
	.st3{fill:#F9F9F9;}
	.st4{fill:#E7C0B8;}
	.st5{fill:#100F0D;}
	.st6{fill:#D8D8D8;}
	.st7{fill:#DDDDDD;}
	.st8{fill:#E4E4E4;}
	.st9{fill:#7A5A53;}
	.st10{fill:#E8E8E8;}
	.st11{fill:#ECECEC;}
	.st12{fill:#DBDBDB;}
	.st13{fill:#CEA198;}
	.st14{fill:#CFA198;}
	.st15{fill:#201A18;}
	.st16{fill:#7F5F58;}
	.st17{fill:#7C5B54;}
	.st18{fill:#7C5C55;}
	.st19{fill:#7D5C55;}
	.st20{fill:#7D5D56;}
	.st21{fill:#7E5E57;}
	.st22{fill:#7F5E57;}
	.st23{fill:#24211F;}
	.st24{fill:#211E1C;}
	.st25{fill:#7C5B55;}
	.st26{fill:#7B5A53;}
	.st27{fill:#FCE9E5;}
	.st28{fill:#2A2320;}
	.st29{fill:#292422;}
	.st30{fill:#7E5D56;}
	.st31{fill:#84645D;}
	.st32{fill:#7F5E58;}
	.st33{fill:#33302D;}
	.st34{fill:#FEF1ED;}
	.st35{fill:#8F716B;}
	.st36{fill:#A1857F;}
	.st37{fill:#8F7069;}
	.st38{fill:#9E817B;}
	.st39{fill:#81615A;}
	.st40{fill:#876761;}
	.st41{fill:#83635C;}
	.st42{fill:#886862;}
	.st43{fill:#84655E;}
	.st44{fill:#806059;}
	.st45{fill:#86665F;}
	.st46{fill:#90716B;}
	.st47{fill:#92746E;}
	.st48{fill:#A58983;}
	.st49{fill:#3F3430;}
	.st50{fill:#82635C;}
	.st51{fill:#A98E88;}
	.st52{fill:#90726B;}
	.st53{fill:#A68B85;}
	.st54{fill:#A78B85;}
	.st55{fill:#9B7E78;}
	.st56{fill:#B59A95;}
	.st57{fill:#AA8F89;}
	.st58{fill:#AD928C;}
	.st59{fill:#9F827C;}
	.st60{fill:#312926;}
	.st61{fill:#8C6D67;}
	.st62{fill:#342D2A;}
	.st63{fill:#A0847E;}
	.st64{fill:#A68984;}
	.st65{fill:#91736C;}
	.st66{fill:#A88D87;}
	.st67{fill:#957771;}
	.st68{fill:#9C7F78;}
	.st69{fill:#997B75;}
	.st70{fill:#9A7D76;}
	.st71{fill:#AA8E88;}
	.st72{fill:#8C6E67;}
	.st73{fill:#BCA39D;}
	.st74{fill:#302825;}
	.st75{fill:#9C7F79;}
	.st76{fill:#90726C;}
	.st77{fill:#251F1D;}
	.st78{fill:#90736C;}
	.st79{fill:#876862;}
	.st80{fill:#8F716A;}
	.st81{fill:#13110F;}
	.st82{fill:#A88C86;}
	.st83{fill:#B29792;}
	.st84{fill:#241E1C;}
	.st85{fill:#8D6F68;}
	.st86{fill:#181412;}
	.st87{fill:#CEA097;}
	.st88{fill:#F5F5F5;}
	.st89{fill:#EFEFEF;}
	.st90{fill:#CDA097;}
	.st91{fill:#231F1D;}
	.st92{fill:#F5D4CD;}
	.st93{fill:#11100E;}
	.st94{fill:#7A5952;}
	.st95{fill:#4C423F;}
	.st96{fill:#2B2623;}
	.st97{fill:#1A1815;}
	.st98{fill:#4B423F;}
	.st99{fill:#231D1A;}
	.st100{fill:#090907;}
	.st101{fill:#372E2B;}
	.st102{fill:#3C3431;}
	.st103{fill:#342C29;}
	.st104{fill:#372D2A;}
	.st105{fill:#382E2B;}
	.st106{fill:#352C29;}
	.st107{fill:#322926;}
	.st108{fill:#3B312D;}
	.st109{fill:#322A26;}
	.st110{fill:#3C312E;}
	.st111{fill:#352B28;}
	.st112{fill:#3D322F;}
	.st113{fill:#453632;}
	.st114{fill:#3E3430;}
	.st115{fill:#423733;}
	.st116{fill:#4B413E;}
	.st117{fill:#3D322E;}
	.st118{fill:#403431;}
	.st119{fill:#292320;}
	.st120{fill:#281F1C;}
	.st121{fill:#483C39;}
	.st122{fill:#2E2926;}
	.st123{fill:#352F2B;}
	.st124{fill:#5B4F4C;}
	.st125{fill:#282321;}
	.st126{fill:#443834;}
	.st127{fill:#3E3431;}
	.st128{fill:#352F2C;}
	.st129{fill:#2C2421;}
	.st130{fill:#5A4E4A;}
	.st131{fill:#4C413D;}
	.st132{fill:#4F4541;}
	.st133{fill:#352E2B;}
	.st134{fill:#403835;}
	.st135{fill:#312B28;}
	.st136{fill:#4E4440;}
	.st137{fill:#574C48;}
	.st138{fill:#1E1816;}
	.st139{fill:#5B4F4B;}
	.st140{fill:#615450;}
	.st141{fill:#524744;}
	.st142{fill:#594E4A;}
	.st143{fill:#2E2826;}
	.st144{fill:#221D1A;}
	.st145{fill:#211B18;}
	.st146{fill:#25201D;}
	.st147{fill:#473E3A;}
	.st148{fill:#26201D;}
	.st149{fill:#403531;}
	.st150{fill:#312B29;}
	.st151{fill:#1B1613;}
	.st152{fill:#302B28;}
	.st153{fill:#2D2825;}
	.st154{fill:#171411;}
	.st155{fill:#2D2523;}
	.st156{fill:#282421;}
	.st157{fill:#322C29;}
	.st158{fill:#433B37;}
	.st159{fill:#251F1C;}
	.st160{fill:#413936;}
	.st161{fill:#1D1815;}
	.st162{fill:#312A28;}
	.st163{fill:#251E1C;}
	.st164{fill:#F4F4F4;}
	.st165{fill:#F6F6F6;}
	.st166{fill:#221C19;}
	.st167{fill:#3E312E;}
	.st168{fill:#FDEBE7;}
	.st169{fill:#2C2420;}
	.st170{fill:#2B211E;}
	.st171{fill:#423531;}
	.st172{fill:#6A4E48;}
	.st173{fill:#FCEAE6;}
	.st174{fill:#392F2C;}
	.st175{fill:#463834;}
	.st176{fill:#40322E;}
	.st177{fill:#443733;}
	.st178{fill:#2A221F;}
	.st179{fill:#2B221E;}
	.st180{fill:#201A17;}
	.st181{fill:#2C231F;}
	.st182{fill:#372E2A;}
	.st183{fill:#2A2623;}
	.st184{fill:#362A26;}
	.st185{fill:#352825;}
	.st186{fill:#251E1B;}
	.st187{fill:#372A27;}
	.st188{fill:#917D78;}
	.st189{fill:#070806;}
	.st190{fill:#28201D;}
	.st191{fill:#FEE0D9;}
	.st192{fill:#2C221F;}
	.st193{fill:#302522;}
	.st194{fill:#3C302D;}
	.st195{fill:#FCDAD3;}
	.st196{fill:#3E322E;}
	.st197{fill:#1F1916;}
	.st198{fill:#261D1A;}
	.st199{fill:#3E3330;}
	.st200{fill:#251F1B;}
	.st201{fill:#1F1A17;}
	.st202{fill:#211C19;}
	.st203{fill:#251D1B;}
	.st204{fill:#241F1C;}
	.st205{fill:#221C1A;}
</style>
<g>
	<g>
		<path class="st0" d="M0.09,451C0.09,302.2,0.11,153.39,0,4.59C0,0.84,0.84,0,4.59,0c296.94,0.1,593.88,0.1,890.81,0
			c3.75,0,4.59,0.84,4.59,4.59c-0.1,297.61-0.1,595.21,0,892.82c0,3.75-0.84,4.59-4.59,4.59c-296.94-0.1-593.88-0.1-890.81,0
			c-3.75,0-4.6-0.84-4.59-4.59C0.11,748.61,0.09,599.8,0.09,451z"/>
		<path class="st1" d="M445.99,10.11c100.36,0.02,200.71,0.03,301.07,0.05c2.14,1.13,2.77,3.31,3.42,5.32
			c5.67,17.56,15.49,32.9,26.89,47c19.71,24.38,29.48,52.41,33.96,82.92c2.42,16.47,2.44,33.14,4.87,49.59
			c1.6,10.82,6.2,20.19,12.14,29.21c9.96,15.13,22.61,27.39,37.83,37.11c2.08,1.33,4.36,2.58,4.94,5.35c0.35,2.67,0.22,5.33,0.22,8
			c0.01,182.87,0.01,365.75,0,548.62c0,3.16,0.25,6.33-0.42,9.45c-0.82,2.37-1.56,4.79-2.62,7.09c-1.71,3.08-4.44,5.26-6.87,7.72
			c-1.59,1.23-3.21,2.41-5,3.34c-2.36,0.91-4.73,1.78-7.2,2.34c-2.99,0.46-5.99,0.34-8.99,0.34c-260.14,0.01-520.28,0.01-780.42,0
			c-3,0-6,0.14-8.97-0.29c-2.46-0.62-4.96-1.14-7.28-2.25c-1.71-1.05-3.33-2.24-4.93-3.46c-2.4-2.45-5.14-4.59-6.84-7.67
			c-1.06-2.26-1.78-4.64-2.61-7c-0.61-2.29-0.48-4.63-0.48-6.96c-0.01-34.27-0.01-68.54,0-102.8c0-2.15-0.23-4.34,0.57-6.42
			c1.19-2.06,3.16-1.52,4.91-1.35c15.24,1.47,30.47,3.28,45.76,3.8c18.3,0.63,36.62,0.84,54.94-0.26
			c16.85-1.01,33.49-3.43,49.9-7.16c25.64-5.83,49.52-15.71,70.02-32.65c20.51-16.96,34.06-38.48,41.96-63.78
			c5.71-18.28,7.86-37.03,8.99-56.06c1.49-24.93,2.22-49.86,3.09-74.81c0.37-10.78,0.31-21.64,1.81-32.39
			c0.23-1.65,0.17-3.36,1.59-4.58c7.75-1.43,15.51-1.24,23.28-0.14c0.59,0.36,0.92,0.89,0.99,1.57
			c0.05,62.48,0.01,124.96-0.4,187.44c-0.7,0.62-0.38-0.67,0.02-0.13c0.98-0.76,0.41-1.8,0.41-2.68c0.05-61.48,0-122.97,0.06-184.45
			c0.03-0.7,0.33-1.25,0.9-1.66c1.52-0.87,3.21-0.8,4.87-0.8c24.16-0.03,48.32-0.03,72.48,0c1.5,0,3.01-0.03,4.43,0.58
			c0.61,0.32,1.01,0.81,1.2,1.48c0.13,62.44-0.01,124.87,0.1,187.31c-0.08-62.53,0.04-125.06-0.05-187.59
			c-1.62-4.35-0.73-8.87-0.86-13.31c-0.19-6.46,0.11-12.94-0.16-19.4c-0.15-0.56-0.41-1.08-0.81-1.51
			c-1.83-1.16-3.88-0.73-5.83-0.73c-16.4-0.04-32.79-0.01-49.19-0.03c-2.14,0-4.31,0.2-6.41-0.41c-2.34-1.03-1.34-2.54-0.5-3.96
			c1.54-2.61,2.15-5.42,1.9-8.42c-0.29-2.96-1.12-5.78-2.37-8.48c-0.57-1.65-1.14-3.3-1.41-5.04c-0.09-1.8-0.48-3.52-1.27-5.15
			c-0.83-2.4-1.36-4.79,0.16-7.13c3.39-2.04,7.12-0.94,10.7-1.1c3.64-0.17,7.31-0.25,10.93,0.1c4.03,0.39,7.17-0.77,9.26-4.34
			c0.75-1.27,1.15-2.64,1.21-4.12c0.04-0.48,0.13-0.96,0.25-1.42c0.27-0.93,0.71-1.79,1.12-2.66c1.02-2.97,1.95-5.97,2.62-9.05
			c7.31-24.23,14.41-48.52,21.74-72.75c1.36-4.48,2.11-8.88-2.48-12.17c-3.81-1.84-7.87-0.57-11.79-0.95
			c-2.25-0.22-5.12,0.73-6.41-1.66c-1.32-2.44,1-4.32,2.3-6.15c11.42-16.01,23.97-31.14,36.43-46.33
			c15.73-19.18,26.37-40.79,31.77-64.9c7.21-32.17,5.41-64.1-3.06-95.86c-3.18-11.94-6.87-23.65-11.44-35.11
			C446.12,14.4,445.06,12.37,445.99,10.11z"/>
		<path class="st2" d="M312.03,448c-0.64,19.74-1.79,39.46-2.26,59.21c-0.34,14.4-0.83,28.84-1.75,43.23
			c-1.68,26.32-3.81,52.57-14.08,77.31c-9.77,23.55-24.57,43.2-45.52,58.01c-22.25,15.72-47.22,24.12-73.78,29.49
			c-30.75,6.22-61.71,6.11-92.72,5.5c-16.18-0.32-32.32-2.53-48.47-3.93c-1.14-0.1-2.24-0.58-3.36-0.88
			c-2.08-2.24-1.39-5.04-1.39-7.63c-0.05-30.15-0.03-60.3-0.03-90.45c0-163.75,0-327.49,0.01-491.24c0-3-0.12-6,0.16-8.98
			c1.32-4.09,2.52-8.19,2.98-12.53c0.56-5.25,2.57-7.22,7.81-8.16c2.61-0.47,5.29-0.58,7.8-1.55c0.46-0.18,0.87-0.45,1.3-1.32
			c-1.62-1.84-4.05-1.51-6.17-1.86c-8.34-1.35-9.53-2.55-11.05-10.84c-0.63-3.41-0.99-6.9-2.51-10.11
			c-0.66-5.37-0.08-10.76-0.4-16.13c-0.17-4.23,0.25-8.45,0.05-12.68c-0.14-2.35-0.01-4.71,0.04-7.06
			c-0.02-4.11,0.07-8.2,3.37-11.32c5.21-9.01,12.62-14.05,23.43-14.04c130.16,0.08,260.33,0.06,390.49,0.07
			c8.64,20.7,15.34,42.06,18.74,64.2c5.18,33.78,3.17,67.13-10.07,99.07c-6.83,16.48-16.63,31.19-28.17,44.93
			c-11.69,13.92-23.26,28.01-33.59,43.02c-0.6,0.87-2.02,1.67-1.24,2.97c0.71,1.18,2.12,0.53,3.22,0.67
			c5.01,0.66,10.22-1.37,15.1,1.12c-0.7,0.79-1.61,1.11-2.63,1.23c-24.31,0.32-48.62-0.02-72.94,0.19c-3.12,0.05-6.3,0.54-9.25-1.01
			c-0.86-2.97-2.45-4.25-5.91-4.17c-16.69,0.39-33.39-0.23-50.08,0.38c-3.75,1.42-6.94,3.74-9.94,6.34
			c-0.3,0.33-0.64,0.64-0.97,0.95c-1.97,1.79-3.81,3.73-5.67,5.63c-1.99,1.8-3.3,4.15-4.96,6.22c-4.71,7.76-10.2,15.14-11.97,24.35
			c-0.21,1.68-1.08,3.08-1.84,4.54c-2.63,6.25-5.43,12.44-6.17,19.29c-0.03,0.49-0.14,0.96-0.33,1.41c-1.35,2.4-1.57,5.1-2.08,7.73
			c-0.76,3.4,1.52,3.45,3.81,3.47c5.8,0.05,11.6-0.03,17.4,0.04c2.11,0.03,4.38-0.34,5.98,1.64c0.94,2.18,0.04,4.23-0.45,6.31
			c-1.39,3.2-2.46,6.48-2.71,9.99c-0.04,0.48-0.12,0.95-0.23,1.42c-1.9,3.26-1.56,6.6-0.35,9.98c-2.68,6.41-4,6.68-8.94,1.91
			c-16.96-16.4-32.86-33.84-49.41-50.64c-11.3-11.47-24.22-20.09-38.77-26.58c-1.82-0.81-3.69-1.53-5.2-2.9
			c-0.55-0.51-0.95-1.13-1.2-1.83c-0.68-3.34-1.36-6.67-3.81-9.29c-1.2-7.1-0.37-7.78,7.27-5.95c0.51,0.07,1.01,0.19,1.5,0.34
			c2.33,0.9,4.77,0.62,7.18,0.62c4.09-0.5,6.99-2.64,8.74-6.36c1.09-2.01,1.92-4.09,1.74-6.44c0.13-2.74-0.35-5.68,3.02-7.15
			c1.41-0.62,0.31-1.72-0.1-2.47c-1.1-2.01-2.74-3.7-3.57-5.89c-0.52-1.83-0.4-3.7-0.45-5.56c-0.18-3.89,0.49-7.82-0.59-11.66
			c-0.44-1.92-0.37-3.87-0.4-5.81c-0.16-2.59,0.51-5.25-0.7-7.75c-2.82-8.52-9.84-12.37-17.52-15.04c-8.24-2.87-16.87-3.9-25.6-3.05
			c-9.99,0.97-17.65,9.85-18.42,21.1c-0.57,8.33,1.12,16.21,4.73,23.72c2.82,5.85,6.01,11.51,8.54,17.5
			c0.21,0.79,0.23,1.58,0.12,2.38c-0.8,5.83-2.16,11.54-3.88,17.17c-0.75,3.56-3.14,5.66-6.2,7.33c-6.42,3.52-12.7,7.26-19.07,10.87
			c-8.01,4.54-12.86,11.15-14.52,20.34c-3.05,16.87-4.76,33.9-6.68,50.9c-2.18,19.31-4.24,38.64-6.32,57.97
			c-0.23,2.13-0.52,4.31-1.67,6.22c-4.42,2.02-6.46,5.72-7.97,10.19c-4.28,12.67-4.12,25.58-1.89,38.43
			c2.57,14.75,13.99,27.1,31.98,26.06c3.7-0.21,7.68-1.06,11.14,1.36c0.81,0.86,0.71,1.81,0.28,2.79c-1.34,2.31-2.46,4.71-2.47,7.47
			c-0.07,0.44-0.23,0.85-0.45,1.23c-0.92,1.23-1.48,2.63-1.91,4.09c-0.49,1.45-0.96,2.9-1.4,4.36c-0.44,1.24-0.64,2.55-1.02,3.8
			c-0.28,0.83-0.65,1.63-1,2.43c-0.68,1.59-1.22,3.23-1.57,4.93c-0.48,2.3-1.62,4.45-1.57,6.87c-0.05,0.44-0.18,0.85-0.36,1.24
			c-1.05,1.37-1.72,2.88-1.64,4.65c-0.03,0.42-0.14,0.83-0.3,1.21c-0.74,0.99-1.35,2.05-1.7,3.25c-0.59,1.62-1.09,3.27-1.62,4.91
			c-0.45,1.27-0.85,2.56-1.21,3.85c-0.62,1.98-0.98,4.04-1.86,5.93c-0.81,1.89-1.04,3.98-1.99,5.83c-0.79,1.85-1.66,3.68-1.36,5.79
			c0.02,0.44-0.06,0.86-0.19,1.27c-0.53,0.89-1.32,1.61-1.75,2.57c-0.7,1.53-1.15,3.13-1.48,4.77c-0.28,1.28-0.7,2.52-1.11,3.77
			c-0.36,1.04-0.74,2.07-1.06,3.12c-0.34,1.05-0.65,2.11-0.86,3.2c-0.28,1.35-0.8,2.62-1.32,3.89c-0.82,1.93-1.32,4-2.38,5.83
			c-1.11,3.67-2.51,7.23-3.53,10.92c-0.71,2.48-1.58,4.92-2.33,7.39c0.02,0.5-0.57,0.87-0.32,1.43c0.06-0.46,0.28-0.88,0.38-1.36
			c0.65-2.27,1.5-4.45,2.11-6.71c1.02-3.7,2.39-7.29,3.58-10.94c0.38-0.82,0.89-1.51,1.78-1.84c13.39-1.01,26.79-0.26,40.18-0.4
			c4.1-0.04,8.27-0.69,12.3,0.66c1.85,1.24,1.39,3.18,1.44,4.94c0.13,4.9-0.16,9.8,0.14,14.62c-0.27-4.87-0.12-9.67-0.1-14.47
			c0.02-4.86,0.79-5.69,5.88-5.73c12.76-0.12,25.53-0.08,38.29-0.01c2.66,0.02,4.75-0.19,4.09-3.67c-0.75-2.33-1-4.83-2.28-6.99
			c-0.29-0.39-0.52-0.81-0.71-1.25c-0.72-2.22-0.52-4.63-1.45-6.81c-0.55-1.65-0.76-3.41-1.67-4.93c-0.24-0.35-0.43-0.74-0.58-1.14
			c-0.18-1.87-0.34-3.75-1.33-5.42c-0.41-0.77-0.76-1.57-0.84-2.45c-0.1-1.75-0.32-3.47-1.25-5.01c-0.26-0.38-0.45-0.78-0.6-1.21
			c-0.16-2.03-0.47-4.02-1.09-5.96c-0.16-0.41-0.29-0.83-0.41-1.25c-0.48-2.14-1.39-4.07-2.73-5.81c-0.2-0.43-0.33-0.87-0.43-1.33
			c-0.06-3.17-0.93-6.16-1.92-9.13c-0.41-2.39-1.33-4.65-1.97-6.98c-0.31-1.61-0.77-3.2-1.17-4.79c-0.32-1.77-0.91-3.47-1.51-5.17
			c-0.35-1.05-0.65-2.11-1.04-3.14c-0.17-0.41-0.31-0.83-0.43-1.26c-0.57-1.67-0.78-3.46-1.73-4.99c-0.25-0.38-0.44-0.79-0.59-1.22
			c-0.1-2.09-0.58-4.07-1.68-5.89c-0.37-0.73-0.53-1.49-0.51-2.3c-0.04-4.11,2.65-4.88,5.96-4.9c9.27-0.06,18.55,0.01,27.82-0.04
			c1.97-0.01,3.99,0.25,5.88-0.57c1.94-0.67,3.19-2.48,5.17-3.1c0.67-0.08-0.17-0.06,0.49-0.11c9.96-0.82,10.71-0.18,10.7,9.56
			c-0.04,38.77,0.12,77.55-0.06,116.24c1.19-2.95-1.36-7.43,3.71-8.62c6.92,2.38,13.58,5.29,18.89,10.5
			c1.29,1.27,2.58,2.03,4.33,2.04c16.64,0.03,33.27,0.11,49.91-0.04c0.65-0.01,1.31-0.12,2.23-1.41
			c-4.97-4.54-10.84-7.09-17.56-7.63c-3.67-0.3-7.3-0.62-10.73-2.03c-3.18-1.3-5.91-3.1-6.86-6.7c-0.01-4.97,3.19-3.4,5.87-2.85
			c2.37,0.49,5.06,2.76,6.59-1.21c0.67-1.27,1.08-2.64,1.56-3.98c1.94-4.43,3.46-9,4.61-13.69c0.66-2.32,1.55-4.56,2.04-6.93
			c0.26-0.93,0.62-1.82,1.02-2.69c2.68-6,4.83-12.2,6.88-18.43c0.13-0.44,0.29-0.86,0.47-1.28c0.68-1.64,1.27-3.31,1.47-5.09
			c0.16-1.37,0.49-2.69,0.94-3.99c0.36-1.1,0.89-2.13,1.44-3.14c1.15-2.03,1.58-4.25,1.7-6.55c0.09-0.7,0.29-1.37,0.61-2
			c2.08-2.57,2.59-5.81,3.68-8.79c0.39-1.08,0.74-2.18,1.05-3.29c0.67-2,0.65-4.18,1.59-6.11c0.61-1.28,0.96-2.64,1.27-4.01
			c0.82-2.24,1.72-4.44,2.14-6.81c0.99-2.51,1.5-5.14,1.95-7.79c0.36-1.21,0.68-2.42,1.01-3.64c0.81-4.56,0.65-9.13,0.08-13.69
			c-1.02-5.67-2.75-10.99-7.31-14.94c-0.72-0.6-1.32-1.33-1.89-2.07c-2.14-2.94-5.73-3.67-8.54-5.59c-0.4-0.2-0.79-0.44-1.17-0.66
			c-1.35-0.86-2.86-1.22-4.44-1.35c-4.93-1.44-9.82-3.01-14.86-4.01c-1.63-0.52-3.3-0.85-5.01-0.94c-1.69-0.22-3.31-0.85-5.02-0.98
			c-1.45-0.24-2.84-0.69-4.23-1.13c-2.28-0.78-4.52-1.69-6.96-1.87c-0.5-0.05-0.99-0.15-1.47-0.27c-7.26-2.21-14.56-4.29-21.97-5.97
			c-1.45-0.51-2.98-0.76-4.46-1.15c-1.3-0.45-2.71-0.65-3.8-1.6c-0.86-1.26-0.66-2.28,0.7-3.03c1.76-0.7,3.6-0.57,5.42-0.57
			c36.05-0.02,72.1-0.02,108.15,0.01C307.68,446.61,310.12,446.12,312.03,448z"/>
		<path class="st1" d="M751.89,10.13c30.9-0.01,61.79,0.06,92.69-0.09c10.8-0.05,18.15,5.06,23.35,14.05
			c2.65,2.46,3.19,5.7,3.36,9.08c-0.05,1.66,0.08,3.31,0.05,4.97c-0.11,1.97,0.07,3.93-0.01,5.9c-0.03,1.17-0.02,2.33-0.02,3.5
			c-0.02,2.75,0.02,5.5,0.03,8.25c-0.01,65.22,0.01,130.43-0.01,195.64c0,2.66,0.19,5.32-0.27,7.95c-1.33,3.53-3.5,1.45-5.2,0.58
			c-9.04-4.61-16.64-11.12-22.93-18.96c-7.08-8.81-14.03-17.74-18.78-28.18c-3.81-8.39-4.74-17.3-5.46-26.25
			c-1.5-18.56-2.52-37.15-6.74-55.4c-5.55-24.05-15.49-45.92-30.7-65.44c-11.8-15.15-22.41-31.05-28.63-49.46
			C751.94,14.29,750.5,12.36,751.89,10.13z"/>
		<path class="st3" d="M869.92,33.09c0.39-3.23-1.55-5.95-2-9c6.38,2.34,8.59,8.28,11.65,13.5c4.05,6.92,5.31,14.56,5.31,22.39
			c0.04,260.75,0.03,521.49,0.03,782.24c0,14.86-5.33,27.39-16.82,36.85c-4.67,3.85-10.65,6.31-16.61,6.62
			c-7.45,0.38-14.85,1.32-22.35,1.32c-253.91-0.1-507.83-0.07-761.74-0.17c-8.88,0-17.99,0.05-26.45-3.06
			c-7.83-2.88-13.58-8.25-18.44-15.42c-7.54-11.12-7.39-23.26-7.4-35.62c-0.01-257.41,0-514.83-0.01-772.24
			c0-12.93,4.1-24.26,12.92-33.79c1.11-1.2,2.14-2.63,4.06-2.61c-0.88,3.63-2.52,7.12-2.01,11c-6.34,9.35-7.39,20.14-8.3,30.94
			c-0.2,2.32-0.04,4.66-0.04,7c0,236.12,0.01,472.23-0.02,708.35c0,17.49,0.02,34.99-0.17,52.48c-0.09,8.28,1.8,16.25,3.9,24.03
			c2.42,8.95,9.28,14.79,17.64,18.56c7.08,3.19,14.78,3.9,22.36,3.9c256.44,0.1,512.89,0.08,769.33,0.12c2.71,0,5.27-0.77,7.93-0.92
			c16.08,0.29,28.04-9.14,31.97-20.19c2.51-7.04,3.77-14.45,3.77-21.99c0-256.48,0-512.96,0.01-769.45
			C878.43,55.6,876.57,43.77,869.92,33.09z"/>
		<path class="st4" d="M751.89,10.13c5.84,20.15,16.85,37.55,29.61,53.81c10.17,12.96,18.26,26.97,24.25,42.2
			c7.1,18.02,10.74,36.85,12.23,56.14c0.89,11.56,1.77,23.12,3.04,34.64c1.53,13.9,9.16,24.98,17.12,35.95
			c8.55,11.78,18.9,21.34,31.78,28.15c1.15,1.32,1.16,2.64-0.03,3.94c-15.37-9.24-28.45-20.76-39.41-35.23
			c-12.81-16.91-16.62-35.8-17.76-56.29c-1.56-28.2-5.76-55.94-18.29-81.92c-5.2-10.79-12.24-20.07-19.23-29.5
			c-11.85-15.97-22.07-32.77-28.13-51.86C748.67,10.15,750.28,10.14,751.89,10.13z"/>
		<path class="st5" d="M325.06,265.94c2.99,0.05,5.98,0.11,8.98,0.16c24.65,0.72,49.31,0.79,73.96-0.03
			c0.66,0.01,1.32,0.01,1.98,0.02c4.18,2.77,5.17,6.49,3.73,11.22c-7.65,25.21-15.21,50.45-22.8,75.67
			c-1.14,0.63-2.42,0.41-3.64,0.58c-27.3,0.08-54.61,0.04-81.91,0.02c-2.79,0-5.7,0.4-8.22-1.32c-1-1.13-1.19-2.59-0.32-3.64
			c2.45-2.96,1.07-4.99-1.29-6.94c-0.49-2.01,0.48-3.64,1.61-5.04c7.01-8.67,6.45-17.65,1.35-26.9c-0.48-0.87-0.87-1.79-1.26-2.7
			c-0.41-1.4-1.76-2.03-2.59-3.09c-0.62-1.6,0.13-2.93,0.87-4.23c7.03-12.36,15.63-23.56,25.08-34.14c0.45-0.5,1.06-0.79,1.7-1.01
			C323.67,264.1,324.13,265.5,325.06,265.94z"/>
		<path class="st6" d="M49.11,851.9c267.26,0,534.53,0,801.79,0c4.53,1.77,1.41,3.55-0.26,4.61c-5.03,3.19-10.84,4.02-16.62,4.77
			c-1.64,0.21-3.33,0.06-4.99,0.06c-252.68,0-505.37-0.01-758.05,0.05c-6.95,0-13.51-1.27-19.89-3.87
			c-1.25-0.51-2.44-1.17-3.26-2.24C46.49,853.54,46.55,852.21,49.11,851.9z"/>
		<path class="st7" d="M39.08,846.92c1.46,0.83,3.24,1.21,4.02,2.96c5.4,9.96,15.3,9.89,24.64,11.01c1.32,0.16,2.66,0.03,4,0.03
			c252.18,0,504.36-0.01,756.54,0.05c5.55,0,10.95-0.87,16.34-1.77c5.53-0.92,9.38-4.64,12.28-9.32c0.78-1.75,2.56-2.13,4.02-2.96
			c3.69-0.73,2.33,2.08,2.07,3.4c-1.2,6.03-4.23,10.81-10.18,13.27c-7.16,2.97-14.68,4.28-22.36,4.79c-1.33,0.09-2.66,0.02-4,0.02
			c-250.97,0-501.94,0-752.91,0.02c-8.93,0-17.57-1.43-25.9-4.64c-6.19-2.39-9.4-7.23-10.64-13.47
			C36.75,849,35.39,846.18,39.08,846.92z"/>
		<path class="st8" d="M39.08,846.92c-2.09,0.15-1.16,1.47-0.98,2.51c1.67,9.79,8.74,13.58,17.39,15.36
			c7.14,1.47,14.35,2.2,21.71,2.2c250.2-0.08,500.4-0.07,750.59-0.07c8.03,0,15.76-1.75,23.37-4.17c7.24-2.3,9.49-8.28,11.08-14.76
			c0.2-0.8-0.66-0.98-1.33-1.05c2-2.33,4-4.66,6-7c1.4-0.02,1.55,1,1.62,2.02c1.01,14.86-8.72,26.48-23.61,28.37
			c-5.96,0.76-11.91,1.04-17.91,1.04c-252.34-0.03-504.68-0.03-757.02-0.02c-7.51,0-14.87-0.69-22.11-2.97
			c-10.45-3.29-18.52-16.58-16.28-27.41c0.15-0.73,0.72-1.06,1.47-1.03C35.08,842.26,37.08,844.59,39.08,846.92z"/>
		<path class="st9" d="M297.12,350.1c0.38,3.37,3.03,1.92,4.64,1.93c28.2,0.09,56.39,0.07,84.59,0.07c0.83,0,1.66,0.03,2.49,0.04
			c2.11,2.72-0.7,4.91-0.8,7.38c0.28,1.64-1.58,2.75-1.12,4.44c0.01,0.36,0.03,0.72,0.04,1.09c-1.06,1.68-1.15,3.77-2.26,5.44
			c-1.76,2.8-4.41,4-7.57,4.07c-30.92,0.65-61.84,1.22-92.77,0.8c-0.5-0.01-0.99-0.09-1.48-0.16c-3.71-1.22-1.55-3.17-0.55-4.9
			c2.29-3.96,5.72-7.35,5.99-12.29c0.11-0.48,0.33-0.91,0.64-1.3c2.21-1.08,4.26-2.26,5.37-4.7
			C294.78,351,295.29,349.39,297.12,350.1z"/>
		<path class="st10" d="M33.08,839.93c-0.02,13.16,3.38,22.03,12.23,25.94c6.46,2.86,13.52,4.03,20.66,4.03
			c42.14,0.01,84.29,0.01,126.43,0.01c213.55,0,427.09,0,640.64,0.02c7.16,0,14.17-1.11,20.77-3.62
			c9.33-3.55,11.78-11.99,12.95-20.79c0.23-1.75,1.83-3.73,0.16-5.61c0.67-2,1.34-3.99,2.01-5.99c2.87,0.54,2.33,2.9,2.1,4.62
			c-0.65,4.72-0.37,9.55-1.78,14.17c-0.67,1.33-1.68,2.46-2.24,3.84c-3.33,8.18-10.13,12.19-17.92,15.06
			c-6.12,2.16-12.49,1.67-18.77,1.67c-129.09,0.05-258.18,0.04-387.27,0.04c-123.76,0-247.52,0-371.28-0.01
			c-3.83,0-7.66,0.15-11.47-0.34c-15.84-0.41-23.38-5.78-29.44-19.21c-2.45-5.44-1.83-11.69-1.82-17.64c0-1.08,0.38-2.39,2.04-2.21
			C31.74,835.93,32.41,837.93,33.08,839.93z"/>
		<path class="st11" d="M31.08,833.93c-3.35,9.33,2.82,29.14,10.91,33.11c5.3,2.6,10.88,5.11,17.1,4.88c2.14,0.3,3.17,1,1.02,2.85
			c-13.17,1.11-25.28-5.96-30.35-18.02c-2.49-5.93-3.16-12.16-3.16-18.51c-0.01-16.16,0-32.31,0-48.47c0-241.02,0-482.05,0-723.07
			c0-2.5-0.13-5,0.17-7.49c0.24-2.02,0.5-4.11,3.3-4.12c0.04,5.72,0.07,11.45,0.11,17.17c2.18,9.77,1.45,19.69,1.44,29.57
			c0,4.76,0.03,9.57-1.49,14.19c-0.01,132.21-0.03,264.42-0.03,396.63c0,67.77,0,135.54,0.01,203.31c0,37.23,0,74.46-0.01,111.68
			C30.09,829.78,29.88,831.97,31.08,833.93z"/>
		<path class="st12" d="M856.9,849.88c-1.21,6.15-7.35,10.5-14.53,11.09c-20.27,1.68-40.56,0.9-60.84,0.9
			c-236.51,0.06-473.02,0.07-709.54-0.07c-7.17,0-14.62,0.19-21.46-2.91c-3.91-1.77-7.15-4.2-7.44-9.01
			c1.97,0.76,4.27,0.56,6.01,2.02c-2.77,1.55-1.19,2.39,0.51,3.27c5.99,3.09,12.32,4.75,19.08,4.75c173.91,0,347.82,0,521.73,0
			c80.46,0,160.92,0.02,241.38-0.03c6.54,0,12.78-1.6,18.58-4.71c1.68-0.9,3.28-1.72,0.51-3.27
			C852.64,850.47,854.73,850.03,856.9,849.88z"/>
		<path class="st11" d="M868.91,852.92c-0.7-4.19,0.35-8.28,0.67-12.41c0.18-2.25,1.09-4.53-0.66-6.57c0.97-1.65,1-3.46,1-5.32
			c-0.02-187.88-0.03-375.77-0.05-563.65c0.01-1.31,0.02-2.63,0.03-3.94c0-68.65,0-137.29,0.01-205.94c1.45-0.4,2.22,0.42,2.82,1.57
			c0.57,1.49,0.52,3.05,0.57,4.61c0.02,259.81,0.03,519.62,0.01,779.42c-0.03,1.48-0.01,2.98-0.4,4.44
			c-1.74,2.35-1.12,5.68-3.23,7.88C869.43,852.97,869.17,852.94,868.91,852.92z"/>
		<path class="st13" d="M831.68,594.97c0.13,1.86-1.31,2.37-2.37,3.03c-2.53,1.59-5.23,2.92-7.73,4.55
			c-5.31,3.47-9.16,8.15-11.12,14.26c-1.88,5.85-3.7,11.72-5.61,17.56c-0.6,1.83-0.74,4.28-3.27,4.47c-2.69,0.2-2.95-2.32-3.55-4.11
			c-1.73-5.2-3.45-10.41-4.9-15.69c-2.35-8.57-7.7-14.56-15.39-18.67c-1.32-0.71-2.68-1.35-3.94-2.16
			c-3.79-2.45-3.75-4.04,0.29-6.32c3.48-1.96,6.89-3.93,10.04-6.46c7.48-6,8.98-14.88,11.75-23.18c0.89-2.68,1.6-5.41,2.52-8.08
			c0.48-1.38,0.96-3.02,2.81-3.13c2.18-0.13,2.73,1.68,3.23,3.22c1.65,5.05,3.39,10.09,4.71,15.23
			c2.62,10.26,9.06,17.15,18.35,21.72C829.25,592.09,831.27,592.77,831.68,594.97z"/>
		<path class="st14" d="M789.8,553.14c0.11,1.37-0.66,2.24-1.78,2.72c-6.47,2.77-9.16,8.29-10.79,14.63
			c-0.29,1.12-0.78,2.19-1.06,3.32c-0.35,1.42-1.08,2.58-2.58,2.63c-1.78,0.06-2.51-1.25-2.93-2.83c-0.38-1.44-1.1-2.8-1.39-4.25
			c-1.18-5.86-3.98-10.42-9.53-13.16c-2.63-1.3-4.37-3.74-0.8-5.41c7.03-3.31,9.33-9.42,11.23-16.1c0.5-1.75,0.48-4.46,3.11-4.55
			c2.88-0.1,3.05,2.65,3.66,4.61c2.02,6.57,3.88,13.18,11.21,16.06C789.04,551.15,789.69,552.04,789.8,553.14z"/>
		<path class="st15" d="M191.1,448.17c0.31,0.63,0.63,1.26,0.94,1.89c0.02,1.33-0.83,1.38-1.82,1.24c-0.52-0.36-0.9-0.84-1.14-1.43
			c-0.87-11.07-0.38-22.15-0.27-33.23c0.01-0.84,0.35-1.61,0.84-2.3c1.33-1.09,2.3-0.89,2.89,0.78c0.27,7.82-0.05,15.64,0.12,23.46
			c0.11,5.16,0.63,5.8,5.78,5.8c43.45,0.06,86.89,0.03,130.34,0.06c3.98,0,5.79-1.44,5.68-5.55c-0.15-5.82,0-11.65-0.06-17.48
			c-0.02-1.65,0.01-3.35-1.18-4.72c-1.79-1.73-4.05-1.26-6.16-1.27c-16.44-0.03-32.88,0.01-49.32-0.04
			c-2.28-0.01-4.69,0.42-6.7-1.21c-0.82-1.16-0.87-2.28,0.16-3.34c0.55-0.3,1.14-0.41,1.76-0.33c0.59,0.15,1.14,0.38,1.67,0.68
			c10.8,0.94,21.62,0.18,32.43,0.4c12.14-0.21,24.28-0.13,36.42-0.1c3.19,0.01,6.29-0.46,9.38-1.1c0.61-0.05,1.19,0.06,1.75,0.3
			c0.51,0.37,0.71,0.87,0.61,1.49c-0.7,2.89-3.05,2.94-5.35,3.14c-3.37,0.29-6.81-0.58-10.12,0.61c-0.35,0.36-0.68,0.73-0.95,1.16
			c-0.9,8.05-0.19,16.11-0.36,24.15c-0.03,1.29,0.56,2.19,1.7,2.76c1.8,0.55,3.64,0.44,5.47,0.44c21.62,0,43.25,0.02,64.87-0.01
			c7.63-0.01,7.95-0.32,7.96-7.77c0.01-6.82,0.13-13.64-0.13-20.46c-0.03-0.62,0.07-1.21,0.28-1.79c0.63-0.94,1.41-1.01,2.31-0.39
			c0.01,11.33,0.02,22.65,0.02,33.98c-0.32,0.45-0.68,0.47-1.09,0.13l0.1,0.12c-0.85-1.21-2.12-0.74-3.22-0.74
			c-25.48-0.03-50.95-0.03-76.43,0.01c-1.06,0-2.38-0.58-3.12,0.81l0.12-0.14c-0.49,0.34-0.96,0.31-1.4-0.1l0.08,0.12
			c-1.24-1.29-2.84-0.69-4.26-0.69c-45.44-0.04-90.88-0.03-136.33,0C193.96,447.51,192.37,446.95,191.1,448.17z"/>
		<path class="st14" d="M759.58,602.55c2.02,0.27,2.42,1.79,2.8,3.23c1.37,5.25,3.33,9.97,8.56,12.75c2.13,1.13,2.51,3.23-0.15,4.54
			c-4.76,2.33-7.02,6.25-7.95,11.29c-0.35,1.87-0.72,4.27-3.24,4.43c-2.81,0.19-2.78-2.52-3.31-4.24
			c-1.43-4.67-2.85-9.11-7.87-11.43c-2.39-1.11-2.17-3.59-0.06-4.74c4.91-2.65,6.58-7.15,8-12.02
			C756.84,604.68,757.44,602.78,759.58,602.55z"/>
		<path class="st16" d="M647.96,443.89c-3.29,0-6.59,0-10.42,0c1.79-1.38,3.91-1.57,3.86-4.27c-0.27-14.89-0.28-29.79-0.38-44.69
			c2.69-2.24,5.31-2.29,7.87,0.23c1.2,4.23,0.68,8.57,0.62,12.85c-0.17,11.42,0.68,22.85-0.48,34.25
			C648.77,442.88,648.41,443.42,647.96,443.89z"/>
		<path class="st17" d="M510.11,434.15c-0.84,3.51-1.69,7.01-2.68,11.15c-1.94-1.75-2.04-3.59-2.5-5.2
			c-3.9-13.57-7.84-27.14-11.55-40.76c-0.74-2.7-1.64-4.85-4.38-6.05c4.34,0,8.67,0,13.01,0c-3.51,1.23-2.88,3.55-2.07,6.31
			c2.84,9.72,5.46,19.51,8.17,29.27C508.46,430.75,511.27,431.69,510.11,434.15z"/>
		<path class="st18" d="M534.04,433.08c-0.87,3.98-1.55,8.01-3.95,12.87c-3.95-13.89-7.59-26.71-11.24-39.54
			c-0.33-0.99-1.66-0.54-2.06-1.43c0.54-4.25,1.72-8.32,3.41-13.47c0.86,2.16,1.41,3.38,1.84,4.64
			c3.94,11.51,6.27,23.52,10.89,34.82C534.84,430.87,534.55,431.92,534.04,433.08z"/>
		<path class="st18" d="M504.96,321.98c-1.83,1.53-3.25,3.4-3.95,5.66c-3.7,11.93-3.72,23.92-0.17,35.89
			c0.83,2.81,2.69,4.95,5.1,6.6c0.03,1.86-1.02,1.38-2.05,0.95c-5.07-1.61-7.88-5.58-9.66-10.12c-4.27-10.89-4.13-21.8,1.05-32.41
			c1.62-3.31,3.88-6.22,7.52-7.66C503.84,320.6,505.03,320.05,504.96,321.98z"/>
		<path class="st19" d="M559.82,444.12c-7.17-3-9.26-9.23-9.37-16.09c-0.11-6.91,1.13-13.63,8.33-17.23
			c0.93-0.29,1.44,0.2,1.81,0.96c0.57,3.1-1.44,5.72-1.63,8.69c-0.08,1.3-0.75,2.89,0.71,3.61c2.31,1.14,4.9,0.9,7.28,0.24
			c1.8-0.5,1.58-2.27,1.45-3.79c-0.25-2.99-2.01-5.63-1.93-8.69c0.53-1.17,1.27-1.66,2.45-0.77c5.09,2.74,6.61,7.59,7.67,12.77
			c0.55,2.67-0.47,3.62-3.12,3.55c-4.33-0.12-8.66,0-12.99-0.04c-2.06-0.02-3.73,0.3-3.38,2.97c0.6,4.62,0.9,9.37,4.9,12.67
			C562.11,444.94,560.94,444.48,559.82,444.12z"/>
		<path class="st18" d="M658.1,394.93c11.23,4.71,14.17,14.14,13.85,25.1c-0.29,9.9-3.67,18.23-13.59,22.4
			c-1.04,0.44-2.23,0.52-3.36,0.77c-0.37-0.41-0.54-0.89-0.5-1.44c7.63-6.69,9.59-15.34,9.23-25.08c-0.26-6.91-1.8-13.11-6.63-18.24
			c-0.68-0.73-1.27-1.54-1.44-2.57C656.01,394.36,656.95,394.36,658.1,394.93z"/>
		<path class="st20" d="M590.93,443.9c-2.47,0-4.94,0-8.57,0c3.12-1.41,3.73-3.12,3.7-5.47c-0.15-14.44-0.13-28.88-0.16-43.32
			c0.65-2.89,2.88-1.49,4.36-1.36c1.47,0.13,1.17,1.75,1.18,2.86c0.04,3.99,0.08,7.98-0.02,11.96c-0.05,1.9,0.25,3.61,1.45,5.11
			c1.27,8.4,0.31,16.86,0.67,25.29C592.6,440.57,591.14,441.9,590.93,443.9z"/>
		<path class="st21" d="M630.05,339.19c-0.72,10.87-2.91,21.87,2.3,32.27c-4.27,0.76-7.68-1.66-8.59-6.91
			c-1.03-5.92-0.24-11.93-0.47-17.9c-0.09-2.48-0.28-4.95-0.42-7.43c-0.49-0.46-0.48-0.9,0.04-1.32c1.08-3.86-1.31-9.13,4.5-11.05
			c0.45-0.15,0.94-0.17,1.46-0.27c1.2,3.76-0.56,7.74,1.14,11.35C630.53,338.34,630.55,338.76,630.05,339.19z"/>
		<path class="st18" d="M725.02,443.12c5.17-4.58,5.03-8.07-0.64-11.7c-3.33-2.14-7.08-3.72-10.13-6.19
			c-5.55-4.49-4.77-10.94,1.38-14.38c0.92-0.12,2.15-0.99,2.2,0.93c-3.64,3.85-3.58,6.34,0.63,9.14c3.31,2.2,7.08,3.75,10.29,6.07
			c7.41,5.34,6.59,13.04-1.64,17.15C726.12,444.42,724.96,445.02,725.02,443.12z"/>
		<path class="st22" d="M741.17,410.68c1.47,0,2.95,0.12,4.41-0.02c2.92-0.28,3.67,1.13,3.63,3.81c-0.12,7.8,0.02,15.6-0.08,23.39
			c-0.03,2.6,0.03,4.94,3.04,6.04c-4.07,0-8.13,0-12.2,0c2.99-0.99,3.32-3.16,3.27-5.88c-0.14-7.3-0.05-14.6-0.05-21.9
			C743.18,414.13,743.58,411.95,741.17,410.68z"/>
		<path class="st22" d="M782.83,456.89c3.32-8.41,1.03-11.93-7.81-11.97c-3.15-0.01-6.3,0.07-9.44-0.05
			c-3.08-0.12-6.06-0.76-7.3-4.09c-1.17-3.16,0.72-5.33,2.75-7.42c0.67-0.69,1.15-1.54,1.72-2.32c1.76-0.59,2.98-0.26,3.16,1.85
			c-2.81-0.17-4.86,1.36-4.74,3.91c0.14,3.02,3.14,2.3,5.16,2.4c2.82,0.14,5.66,0.05,8.49,0.04c4.65-0.01,9.24,0.37,11.36,5.38
			c2.05,4.82,1.42,9.42-2.23,13.41C782.99,458.23,782.56,457.91,782.83,456.89z"/>
		<path class="st21" d="M657.73,371.06c-4.74,0-7.85,0-11.15,0c3.52-2.83,4.05-28.33,0.71-32.95c1.45-0.08,2.76-0.06,4.04-0.25
			c3.15-0.45,3.95,0.99,3.88,3.96c-0.17,7.62-0.07,15.25-0.05,22.88C655.16,366.81,654.68,369.04,657.73,371.06z"/>
		<path class="st20" d="M816.2,410.87c4.39,1.73,5.58,5.43,5.67,9.62c0.13,5.82,0.03,11.65,0.06,17.47
			c0.01,1.95-0.44,4.05,2.94,5.79c-4.79,0-8.16,0-11.4,0c3.48-3.02,3.8-24.64,0.35-31.57C813.75,410.19,814.94,410.47,816.2,410.87z
			"/>
		<path class="st19" d="M681.07,365.17c-0.61,2.36-0.87,4.85-2.85,7.1c-6.06-11.09-8.26-23.66-14.72-34.13c2.4,0,5.6,0,8.3,0
			c0.49,8.01,5.26,14.5,7.16,21.86C678.74,362.11,682.41,362.62,681.07,365.17z"/>
		<path class="st19" d="M604.23,410.87c7.93,4.05,9.17,11.35,8.52,19.02c-0.54,6.4-2.67,12.31-9.8,14.68
			c-1.67,0.56-3.21,0.54-4.85,0.26c-0.05-2.21,2.61-1.84,3.22-3.42c5-8.03,3.98-16.48,1.68-24.98c-0.42-1.57-1.72-2.87-1.5-4.67
			C602.08,410.38,603.08,410.41,604.23,410.87z"/>
		<path class="st19" d="M693.88,444.85c-7.5,0.51-12.26-2.59-14.74-9.59c-3.36-9.47-0.32-20.21,6.86-24.24
			c1.11-0.83,1.88-0.47,2.42,0.69c-1.26,4.67-2.69,9.32-2.75,14.23c-0.14,0.47-0.35,0.91-0.61,1.32c-1.25,5.12-0.11,9.81,2.78,14.08
			c1.13,1.66,2.68,2.93,4.97,2.51C693.86,443.44,694.06,443.94,693.88,444.85z"/>
		<path class="st21" d="M604.19,337.86c4.94,1.61,6.23,5.62,6.37,10.14c0.18,5.79,0.07,11.59,0.1,17.38
			c0.01,1.95-0.48,4.08,1.96,5.4c-2.74-0.94-6.85,3.43-7.88-2.42c-0.85-0.69-1.44-1.53-1.5-2.67c0.33-3.55,0.52-7.1,0.32-10.67
			c0-1.01-0.17-2.04,0.41-2.96c1.64-4.72,1-9.11-1.93-13.16C601.99,336.95,603.22,337.66,604.19,337.86z"/>
		<path class="st23" d="M419.83,448.12c0.36-0.04,0.72-0.08,1.09-0.13c0.06,6.83,0.18,13.65,0.18,20.48
			c0.01,54.65,0.01,109.29,0.01,163.94c0,1.78,0,3.55,0,5.33c-0.42-0.01-0.85-0.01-1.27-0.02
			C419.83,574.52,419.83,511.32,419.83,448.12z"/>
		<path class="st24" d="M335.89,448.08c0.47,0.03,0.93,0.07,1.4,0.1c0.05,21.81,0.13,43.62,0.15,65.43
			c0.02,39.63,0.01,79.25,0.01,118.88c0,1.77,0,3.53,0,5.3c-0.52-0.01-1.03-0.02-1.55-0.03
			C335.89,574.54,335.89,511.31,335.89,448.08z"/>
		<path class="st25" d="M560.08,355.25c0.5,6.1,0.47,12.41,7.05,16.15c-5.63,0.75-9.98-2.66-12.27-9.2
			c-3.33-9.53-0.3-19.8,7.12-24.16c1.2-0.82,1.98-0.43,2.48,0.83c-1.48,4.67-3.08,9.31-3.34,14.27
			C560.96,353.93,560.49,354.57,560.08,355.25z"/>
		<path class="st26" d="M803.96,416.04c-2.25,8.91-1,25.29,2.3,27.87c-4.12,0-8.06,0-13.7,0c4.61-1.22,5.26-3.35,5.14-6.4
			c-0.27-6.96-0.07-13.93-0.09-20.89c-0.01-2.22,0.6-4.77-3.21-5.28c3.25-0.72,5.86-0.94,8.47-0.24
			C803.64,412.65,804.27,414.25,803.96,416.04z"/>
		<path class="st19" d="M702.9,360.01c0.84,3.5,1.58,7.04,4.18,9.79c0.2,1.17-0.16,1.76-1.45,1.42c-7.42-2.88-9.2-9.35-9.31-16.13
			c-0.11-6.9,1.12-13.71,8.54-17.13c1.05-0.33,1.4,0.33,1.64,1.15c-0.82,4.59-2.45,9.03-2.56,13.76
			C702.6,355.1,701.68,357.4,702.9,360.01z"/>
		<path class="st27" d="M604.84,354.26c-0.37,3.92,0.76,7.95-0.85,11.78c-1.18,2.95-2.66,5.51-6.51,4.95
			c-0.33,0.01-0.67,0.01-1,0.02c-3.93-0.13-4.96-3.15-5.35-6.08c-0.52-3.99,0.92-7.56,4.32-9.96c1.6-1.13,3.44-2.01,5.54-1.93
			C602.38,353.1,603.84,352.96,604.84,354.26z"/>
		<path class="st28" d="M281.16,374.11c31.04-0.07,62.07-0.18,93.11-0.17c4.43,0,8.2-0.86,10.58-4.96c0.43-0.36,0.84-0.34,1.23,0.06
			c-0.88,4.19-3.83,6.09-7.75,6.24c-7.89,0.31-15.79,0.57-23.67-0.15c-1.95,0.15-0.39,3.67-3.03,3.16
			c-13.05-1.26-26.09-1.37-39.13,0.04c-0.66,0.53-1.37,0.93-2.24,0.99c-1.39-0.38-2.2-1.6-3.38-2.29
			c-6.83-1.38-13.72-0.22-20.56-0.68C284.4,376.23,281.88,377.12,281.16,374.11z"/>
		<path class="st29" d="M191.1,448.17c1.13-1.84,2.97-1.18,4.53-1.18c45.28-0.03,90.56-0.04,135.84,0c1.56,0,3.41-0.67,4.5,1.22
			c-7.97-0.9-15.96-0.5-23.94-0.21c-7.79-0.08-15.59-0.24-23.38-0.24c-30.54-0.03-61.08-0.02-91.62,0.01
			C195.05,447.76,193.08,448.03,191.1,448.17z"/>
		<path class="st30" d="M538.07,369.99c-2.99,2.52-6.27,1.05-9.47,0.68c0.27-1.13,1.19-0.61,1.86-0.73
			c2.01-1.08,0.96-2.95,0.98-4.41c0.12-7.8,0.07-15.6,0.04-23.39c-0.01-1.9-0.22-3.7,2.63-3.62c2.58,0.08,2.3,1.78,2.35,3.44
			c0.25,7.74-0.18,15.48,0.01,23.23C536.53,366.91,535.86,368.94,538.07,369.99z"/>
		<path class="st31" d="M538.07,369.99c-2.87-0.36-2.04-2.61-2.06-4.27c-0.07-7.63,0-15.27-0.05-22.91
			c-0.01-1.54,0.53-3.78-2.12-3.59c-2.55,0.18-1.79,2.42-1.81,3.92c-0.07,7.33,0.02,14.66-0.07,21.99c-0.02,1.67,0.88,3.79-1.49,4.8
			c1.89-10.13,0.82-28.99-1.81-31.71c8.17-0.94,8.17-0.94,8.55,6.22c2.16-2.52,3.25-5.41,5.83-6.81c2.01-1.09,4.26-1.34,6.15-0.06
			c1.11,0.76-0.09,2.12-0.36,3.19c-0.45,1.78-1.72,1.57-3.15,1.36c-4.49-0.65-7.57,2.13-8.06,5.77
			C536.64,355.19,535.95,362.67,538.07,369.99z"/>
		<path class="st20" d="M765.91,432.89c-1.05-0.62-2.1-1.24-3.16-1.85c-7.07-6.63-5.77-15.48,2.98-20.23
			c1.14-0.38,2.15-0.41,2.66,0.95c-3.06,6.8-2.48,13.61,0.03,20.41c-0.29,0.86-0.75,1.42-1.77,1.05
			C766.36,433.24,766.11,433.13,765.91,432.89z"/>
		<path class="st19" d="M778.83,411.01c0.47,2.32,3.06,2.7,4.11,4.7c3.55,6.77,0.79,14.24-6.76,17.5c-1.01,0.36-1.47-0.2-1.78-1.04
			c-0.14-3.2,1.98-5.8,2.26-8.99c0.36-4.13-1.84-7.6-2.18-11.49C775.69,409.88,777.25,410.39,778.83,411.01z"/>
		<path class="st20" d="M600.85,353.81c-4.56,0.77-7.26,3.46-8.26,7.94c-0.9,4.02,0.32,7.13,3.89,9.26
			c-3.79,2.72-6.64,0.43-8.8-2.22c-2.66-3.25-2.55-7.09-0.01-10.51c2.47-3.32,6.04-4.88,10.08-5.42
			C598.88,352.84,600.42,351.52,600.85,353.81z"/>
		<path class="st32" d="M687.91,411.82c-0.64-0.26-1.27-0.53-1.91-0.79c8.5-3.5,15.44,0.8,17.08,10.58
			c1.28,3.87-0.18,5.42-4.12,4.89c-2.99-0.69-3.08-3.26-3.22-5.5C695.42,415.88,693.2,412.59,687.91,411.82z"/>
		<path class="st21" d="M571.13,337.89c6.31,3.34,9.39,9.6,7.96,16.18c-2.23,0.59-4.45,1-6.56-0.41c-1.22-4.8-1.97-9.71-3.13-14.53
			C569.65,338.26,570,337.52,571.13,337.89z"/>
		<path class="st21" d="M714,337.99c6.65,3.36,8.62,9.03,7.87,16.02c-2.17,0.72-4.31,1.01-6.37-0.35
			c-1.58-4.83-2.13-9.94-3.95-14.72C711.94,337.53,712.78,337.25,714,337.99z"/>
		<path class="st29" d="M337.16,448.32c0.79-1.89,2.49-1.35,3.89-1.35c24.97-0.03,49.94-0.03,74.91,0c1.41,0,3.08-0.51,3.97,1.27
			c-1.31-0.17-2.62-0.48-3.93-0.48c-24.98-0.03-49.96-0.03-74.93,0C339.77,447.76,338.47,448.13,337.16,448.32z"/>
		<path class="st22" d="M764.66,461.12c-4.88-1.31-7.48-4.55-7.74-9.52c-0.08-1.61-0.52-4.17,2.21-3.95
			c1.93,0.16,4.43,0.62,3.96,3.83c-0.52,3.6,1.06,6.37,3.82,8.56C766.93,462.02,765.72,461.41,764.66,461.12z"/>
		<path class="st33" d="M420.89,414.02c-0.63,0-1.25,0-1.88,0c-1.79,1.61-4.01,1.38-6.14,1.38c-17.23,0.03-34.47,0.06-51.7-0.04
			c-2.27-0.01-5.11,0.84-6.27-2.37c1.05-0.71,2.25-0.46,3.39-0.46c19.62-0.01,39.23-0.02,58.85,0.01c1.29,0,2.68-0.4,3.84,0.58
			C421.06,413.43,421.03,413.73,420.89,414.02z"/>
		<path class="st34" d="M420.98,413.12c-21.98-0.06-43.96-0.11-65.94-0.17c-0.26-0.21-0.35-0.41-0.27-0.63
			c0.08-0.21,0.17-0.32,0.25-0.32l0.03,0.04c0.33-0.45,0.67-0.44,1.02-0.02c19.94,0,39.88-0.03,59.81,0.02
			C417.61,412.04,419.59,411.31,420.98,413.12z"/>
		<path class="st35" d="M604.23,410.87c-0.87,0.18-1.81,0.25-2.28,1.2c-3.4,0.12-6.59,1.11-9.73,2.3c-2.51-5.34-0.9-11-1.19-16.51
			c-0.22-4.22-1.7-5.02-5.12-2.74c-1.08-0.37-2.16-0.75-3.24-1.12c0-0.32,0-0.63-0.01-0.95c2.44,0,4.89-0.05,7.33,0.01
			c2.22,0.06,1.98,1.77,1.99,3.23c0.02,4.94,0.01,9.87,0.01,15.2C596.2,410.2,600.16,407.81,604.23,410.87z"/>
		<path class="st36" d="M510.11,434.15c-0.1-1.98-2.95-2.9-2.02-5.28c2.89,1.64,2.06-1.37,2.3-2.16c1.96-6.24,3.68-12.56,5.48-18.85
			c0.61,0.12,0.67,0.72,0.99,1.1C514.95,417.45,512.88,425.89,510.11,434.15z"/>
		<path class="st37" d="M516.94,321.91c0.77-1.09,1.61-2.4,3.13-1.76c1.34,0.57,0.69,2.04,0.71,3.12c0.04,3.06,0.02,6.12-0.39,9.28
			c-2.29-3.03-3.19-6.77-5.78-9.47C515.16,322.23,516.45,322.86,516.94,321.91z"/>
		<path class="st38" d="M681.07,365.17c-0.08-1.98-2.82-2.87-2.11-5.17c1.04,1.11,1.69,1.77,2.41-0.45
			c1.93-5.92,4.16-11.75,6.26-17.62c0.44-0.52,0.86-0.49,1.24,0.07C686.62,349.85,684.19,357.62,681.07,365.17z"/>
		<path class="st39" d="M595.96,339.01c-1.12,1.47-1.87,3.05-1.84,4.99c0.05,2.96-2.51,3.06-4.21,2.85
			c-2.46-0.31-1.51-2.51-1.11-3.97c0.7-2.56,2.48-4.19,5.06-4.92C594.97,337.5,596.04,337.1,595.96,339.01z"/>
		<path class="st40" d="M749.68,402.27c-0.63,2.14-1.66,3.71-3.82,3.6c-2.33-0.12-3.73-1.7-3.5-3.98c0.21-2.03,1.74-3.25,3.87-3.06
			C748.36,399.01,749.31,400.52,749.68,402.27z"/>
		<path class="st41" d="M651.77,325.95c2.2,0.07,3.56,1.31,3.69,3.34c0.12,2.05-1.14,3.53-3.27,3.68c-2.18,0.15-3.51-1.22-3.64-3.29
			C648.41,327.59,649.65,326.29,651.77,325.95z"/>
		<path class="st42" d="M715.88,352.87c1.69,1.99,4,0.76,6,1.14c-4.41,1.75-9.03,0.79-13.49,0.63c-4.28-0.15-6.1,1.06-5.48,5.36
			c-1.84-2.38-0.98-4.73,0.09-7.08C707.27,350.79,711.57,350.83,715.88,352.87z"/>
		<path class="st43" d="M726.76,412.1c1.94,0.68,2.54-2.05,4.73-1.66c0,3.45,0,6.98,0,10.95c-1.91-2.98-3.71-5.76-5.5-8.55
			C725.92,412.25,726.19,412.02,726.76,412.1z"/>
		<path class="st44" d="M712.93,442.95c-1.04,1.15-2.4,3.34-2.9-0.11c-0.43-2.96-0.09-6.03-0.09-10.55c2.16,3.85,3.55,6.32,4.94,8.8
			C715.48,443.02,713.37,442.11,712.93,442.95z"/>
		<path class="st42" d="M572.97,353c1.78,1.83,4.1,0.6,6.13,1.07c-4.47,1.6-9.1,0.3-13.63,0.71c-1.79,0.17-3.59,0.31-5.38,0.46
			c0.01-0.83,0.03-1.66,0.04-2.5C564.44,350.86,568.73,350.75,572.97,353z"/>
		<path class="st45" d="M787.09,408.87c1.92,1.01,4.05,2.31,3.3,4.64c-0.36,1.12-2.93,1.78-4.37,1.11c-1.77-0.83-1.19-3.62-3-4.72
			C783.82,407.35,785.63,408.76,787.09,408.87z"/>
		<path class="st46" d="M540.97,402.01c-0.58-2.87,3.73-7.12-2.41-8.71c3.11,0,6.21,0,9.32,0c-4.04,1.52-4.75,5.31-6.01,8.71
			C541.57,402.32,541.27,402.34,540.97,402.01z"/>
		<path class="st47" d="M658.1,394.93c-0.71,0.33-1.41,0.67-2.12,1c-2.9,1.5-5.52,0.69-8.04-0.97c-2.3-1.53-4.61-1.51-6.93-0.03
			c-1.06-0.33-2.13-0.66-3.19-0.99C644.65,393.63,651.54,391.46,658.1,394.93z"/>
		<path class="st48" d="M782.83,456.89c0.37,0.38,0.75,0.75,1.12,1.13c-4.11,4.93-9.36,5.73-15.25,4.21
			c0.09-0.74,0.77-0.88,1.23-1.24C774.77,461.3,779.21,460.39,782.83,456.89z"/>
		<path class="st49" d="M356.07,412.02c-0.34,0.01-0.68,0.02-1.02,0.02c-0.34-0.34-0.68-0.69-1.02-1.03
			c0.69-3.88,3.01-7.21,3.73-11.08c0.72-0.46,1.42-0.53,2.1,0.07C361.03,404.78,358.94,408.52,356.07,412.02z"/>
		<path class="st36" d="M534.04,433.08c-0.37-0.7-0.74-1.41-1.1-2.11c1.31-4.33,2.61-8.66,3.92-12.99c0.39-0.54,0.77-0.53,1.13,0.03
			C537.19,423.17,536.01,428.23,534.04,433.08z"/>
		<path class="st50" d="M697.52,425.82c3.4,0.64,6.02,0.25,5.55-4.21c1.63,5.49,1.49,5.73-3.76,5.75c-4.75,0.01-9.5-0.05-14.25-0.08
			c-0.04-0.41-0.07-0.82-0.11-1.23C689.1,423.66,693.29,423.9,697.52,425.82z"/>
		<path class="st51" d="M778.83,411.01c-1.31,0.42-3.02-0.59-3.98,1.1c-2.31,0.4-4.61,0.54-6.91-0.09c-0.41-1-1.37-0.98-2.2-1.22
			c4.23-3.33,8.83-0.37,13.23-0.78c0.5-0.48,0.94-0.42,1.32,0.15C779.8,410.45,779.31,410.73,778.83,411.01z"/>
		<path class="st52" d="M688.87,342.01c-0.41-0.02-0.82-0.05-1.24-0.07c0.19-2.6-2.82-1.77-3.8-3.74c3.21,0,6.22,0,9.53,0
			C692.12,340.09,689.52,339.92,688.87,342.01z"/>
		<path class="st53" d="M516.94,321.91c-0.43,1.09-1.4,1.09-2.33,1.17c-2.01-1.35-4.18-2.2-6.65-2.1c-0.87-0.96-2.46,0.21-3.22-1.09
			C509.38,317.1,512.94,320.82,516.94,321.91z"/>
		<path class="st54" d="M578.19,363.57c-0.53,4.34-3.21,6.9-7.64,7.9C573.47,369.19,576.46,366.98,578.19,363.57z"/>
		<path class="st36" d="M513.87,369.94c3.42-2.06,5.09-5.67,7.61-8.57c-0.72,4.19-2.52,7.61-6.55,9.5
			C514.51,370.64,513.95,370.56,513.87,369.94z"/>
		<path class="st55" d="M601.9,442.88c-0.69,1.77-2.82,0.72-3.8,1.93c-1.41-0.03-2.78-0.62-3.5-1.63c-1.96-2.76-2.56-0.01-3.67,0.72
			c0.22-1.6-0.54-3.76,2.22-3.91C596.17,440.64,599.08,441.62,601.9,442.88z"/>
		<path class="st56" d="M714.76,369.88c3.26-1.86,4.96-4.97,6.4-8.32c0.51,4.48-1.64,7.36-5.24,9.39
			C715.48,370.65,714.86,370.54,714.76,369.88z"/>
		<path class="st57" d="M563,443.14c3.78,0.5,7.04-0.72,10.14-2.96c-1.15,2.79-3.26,4.28-6.19,4.76
			C565.98,443.58,563.37,445.81,563,443.14z"/>
		<path class="st58" d="M695.86,442.95c3.27-1.85,5.19-4.77,6.75-8.05c0.14,4.24-1.95,7.13-5.69,9.05
			C696.52,443.66,695.94,443.57,695.86,442.95z"/>
		<path class="st59" d="M560.19,412.27c-0.47-0.49-0.94-0.98-1.41-1.47c3.43-2.1,6.82-2.23,10.14,0.25
			c-0.84,0.09-1.68,0.18-2.06,1.12C564.63,412.39,562.42,412.94,560.19,412.27z"/>
		<path class="st60" d="M387.13,360.11c0.02-2.78,2.04-5.12,1.71-7.97c0.69,0.28,1.38,0.57,2.06,0.85c-0.59,3.18-1.4,6.29-2.8,9.23
			C387.21,361.78,387.77,360.67,387.13,360.11z"/>
		<path class="st61" d="M726.76,412.1c-0.26,0.25-0.51,0.5-0.77,0.75c-2.58-1.45-5.22-2.36-8.16-1.07c-0.73-0.31-1.47-0.62-2.2-0.93
			C719.63,408.74,723.35,408.97,726.76,412.1z"/>
		<path class="st62" d="M359.87,400c-0.59,0-1.18-0.01-1.77-0.01c-2.52-2.12-3.04-4.83-2.37-7.91c0.43-0.44,0.9-0.48,1.4-0.11
			C359.32,394.22,359.2,397.24,359.87,400z"/>
		<path class="st63" d="M712.93,442.95c0.65-0.62,1.3-1.24,1.95-1.86c2.8,1.48,5.71,2.53,8.96,2.22c-1,2.43-3.43,0.38-4.84,1.53
			C716.82,444.7,715.33,442.37,712.93,442.95z"/>
		<path class="st64" d="M803.96,416.04c-0.89-1.53-1.35-3.16-1.09-4.95c2.69,3.46,3.82-1.97,6.06-1.06
			c0.56,0.35,0.58,0.73,0.04,1.12C807.3,412.78,805.63,414.41,803.96,416.04z"/>
		<path class="st65" d="M513.87,369.94c0.35,0.31,0.71,0.62,1.06,0.93c-3.65,1.86-7.33,2.16-11.05,0.21
			c0.68-0.32,1.37-0.63,2.05-0.95C508.59,370.79,511.25,371.04,513.87,369.94z"/>
		<path class="st66" d="M597.48,370.99c2.92-0.67,4.63-2.92,6.51-4.95c0.25,0.77,0.51,1.55,0.76,2.32
			C602.3,369.15,601.22,373.75,597.48,370.99z"/>
		<path class="st67" d="M774.87,431.88c0.44,0.44,0.88,0.89,1.31,1.33c-3.17,1.5-6.35,1.5-9.52,0.01c0.43-0.41,0.86-0.83,1.28-1.24
			C770.25,431.51,772.55,430.96,774.87,431.88z"/>
		<path class="st67" d="M714,337.99c-0.67,0.28-1.34,0.55-2.01,0.83c-1.89,0.96-3.86,1.07-5.88,0.49c-0.42-0.45-0.83-0.9-1.25-1.35
			C707.92,336.28,710.96,336.29,714,337.99z"/>
		<path class="st68" d="M595.96,339.01c-0.44-0.86-1.29-0.91-2.09-1.05c3.43-1.7,6.87-1.67,10.32-0.1
			c-0.71,0.34-1.42,0.69-2.13,1.03C600.01,337.91,597.97,337.97,595.96,339.01z"/>
		<path class="st69" d="M571.13,337.89c-0.42,0.44-0.84,0.88-1.26,1.32c-2.02,0.8-3.98,0.49-5.93-0.26
			c-0.65-0.31-1.31-0.61-1.96-0.92C565.01,336.24,568.06,336.3,571.13,337.89z"/>
		<path class="st65" d="M540.84,406.98c-0.35,2.09-0.56,4.21-1.67,6.09c-0.42,0.53-0.8,0.5-1.15-0.06c0.24-2.5,0.74-4.93,1.87-7.19
			C540.48,405.97,540.54,406.57,540.84,406.98z"/>
		<path class="st45" d="M654.93,441.91c0.02,0.43,0.04,0.86,0.07,1.28c-2.23,1.41-4.66,0.78-7.04,0.7c0.06-0.41,0.11-0.82,0.17-1.24
			C650.26,441.19,652.44,440.15,654.93,441.91z"/>
		<path class="st57" d="M640.07,369.15c-1.21,1.68-2.41,3.37-5.4,2.42c1.7-1.36,3.03-2.43,4.37-3.5
			C639.96,367.87,640.48,368.06,640.07,369.15z"/>
		<path class="st70" d="M600.85,353.81c-0.81-1.04-2.08-0.61-3.11-0.95c1.95-1.32,4.12-0.85,6.24-0.81c0.28,0.73,0.57,1.47,0.85,2.2
			C603.51,354.11,602.18,353.96,600.85,353.81z"/>
		<path class="st71" d="M780.28,410.18c-0.44-0.05-0.88-0.1-1.32-0.15c2.39-2.63,5.13-2.8,8.13-1.15c-1.35,0.36-3-0.46-4.07,1.03
			C782.11,409.99,781.2,410.08,780.28,410.18z"/>
		<path class="st72" d="M705.63,371.22c0.48-0.47,0.96-0.95,1.45-1.42c1.57,0.36,3.15,0.72,4.72,1.08c1.08-0.37,1.32,0.13,1.11,1.08
			C710.44,372.2,707.92,372.89,705.63,371.22z"/>
		<path class="st73" d="M640.07,369.15c-0.35-0.36-0.69-0.72-1.04-1.08c0.7-1.22,0.43-2.93,2.39-4.2
			C642.27,366.19,641.24,367.68,640.07,369.15z"/>
		<path class="st74" d="M352.22,378c1.08-0.73,0.5-2.86,2.43-2.86c-1.32,2.35-0.53,4.62,0.29,6.89c-0.39,0.34-0.85,0.47-1.36,0.4
			C351.93,381.31,351.2,379.93,352.22,378z"/>
		<path class="st75" d="M719,444.84c1.26-1.62,3.52-0.1,4.84-1.53c0.39-0.06,0.78-0.13,1.18-0.19c0.7,0.34,1.4,0.67,2.1,1.01
			C724.55,445.89,721.76,445.17,719,444.84z"/>
		<path class="st76" d="M540.84,406.98c-0.32-0.39-0.64-0.77-0.96-1.16c0.06-1.36-0.04-2.76,1.09-3.81c0.3,0,0.6,0,0.9,0
			C542.23,403.81,541.28,405.34,540.84,406.98z"/>
		<path class="st77" d="M353.88,382.03c0.35,0,0.71-0.01,1.06-0.01c0.85,1.57,1.5,3.17,0.89,4.99c-0.5,0.28-0.98,0.26-1.44-0.08
			C352.95,385.43,352.53,383.82,353.88,382.03z"/>
		<path class="st38" d="M563,443.14c0.92,1.46,3.07,0.24,3.95,1.8c-2.43,0.2-4.92,0.9-7.12-0.82c0.83-0.19,1.75-0.2,2.18-1.15
			C562.33,443.03,562.66,443.08,563,443.14z"/>
		<path class="st78" d="M630.05,339.19c-0.01-0.42-0.03-0.84-0.04-1.26c2.39-0.01,4.8-0.5,7.72,0.51
			C634.92,339.89,632.43,339.12,630.05,339.19z"/>
		<path class="st52" d="M538.01,413.01c0.38,0.02,0.77,0.04,1.15,0.06c0.02,1.74-0.31,3.4-1.18,4.93c-0.37-0.01-0.75-0.02-1.13-0.03
			C536.77,416.21,537.22,414.57,538.01,413.01z"/>
		<path class="st79" d="M769.94,460.99c-0.41,0.41-0.82,0.82-1.23,1.24c-1.43-0.05-2.89-0.05-4.04-1.11
			c0.85-0.15,1.75-0.2,2.26-1.07C767.92,460.36,768.93,460.68,769.94,460.99z"/>
		<path class="st80" d="M516.86,408.96c-0.33-0.37-0.66-0.74-0.99-1.1c0.06-1.04-0.07-2.13,0.92-2.87c0.98,0.06,1.93,0.15,2.06,1.43
			C517.31,406.57,517.26,407.9,516.86,408.96z"/>
		<path class="st81" d="M386.08,369.04c-0.41-0.02-0.82-0.04-1.23-0.06c0.19-1.59,0.1-3.32,2.11-3.94
			C387.32,366.52,386.87,367.82,386.08,369.04z"/>
		<path class="st82" d="M712.91,371.96c-0.37-0.36-0.74-0.72-1.11-1.08c0.98-0.33,1.97-0.67,2.95-1c0.39,0.36,0.77,0.71,1.16,1.07
			C714.99,371.49,714.1,372.18,712.91,371.96z"/>
		<path class="st83" d="M574.43,437.69c-0.76-1.43-0.28-2.35,1.31-3.61C576.05,435.85,576.02,436.9,574.43,437.69z"/>
		<path class="st75" d="M695.86,442.95c0.35,0.33,0.71,0.66,1.06,0.99c-0.96,0.49-1.85,1.21-3.05,0.91
			c-0.36-0.33-0.71-0.66-1.07-0.99C693.83,443.56,694.84,443.25,695.86,442.95z"/>
		<path class="st84" d="M355.21,387.01c0.21,0,0.42,0,0.63,0c0.17,1.72,2,3.01,1.29,4.96c-0.34,0-0.68,0.01-1.02,0.01
			C354.3,390.6,353.49,389.04,355.21,387.01z"/>
		<path class="st85" d="M622.91,337.9c-0.01,0.44-0.03,0.88-0.04,1.32c-1.71-0.14-3.55,0.65-5.21-0.69
			C619.35,337.29,621.18,338.03,622.91,337.9z"/>
		<path class="st68" d="M504.74,319.89c1.12,0.22,2.44-0.14,3.22,1.09c-1,0.33-2.01,0.67-3.01,1c-0.44-0.92-1.36-0.91-2.17-1.1
			C503.44,320.55,504.09,320.22,504.74,319.89z"/>
		<path class="st61" d="M816.2,410.87c-0.95,0.17-1.9,0.32-2.39,1.31c-0.96-0.4-1.92-0.8-2.87-1.19c-0.04-2,1.24-1.36,2.31-1.16
			C814.36,409.81,815.42,409.93,816.2,410.87z"/>
		<path class="st86" d="M387.13,360.11c0.33,0.7,0.65,1.4,0.98,2.1c-0.4,0.58-0.79,1.16-1.19,1.74
			C385.36,362.59,387.21,361.4,387.13,360.11z"/>
		<path class="st75" d="M813.25,409.83c-0.86,0.21-1.8,0.25-2.31,1.16c-0.66,0.05-1.31,0.11-1.97,0.16
			c-0.01-0.37-0.03-0.75-0.04-1.12C810.34,409.31,811.76,408.87,813.25,409.83z"/>
		<path class="st87" d="M281.16,374.11c1.4,2.13,3.54,0.93,5.33,1.09c7.41,0.65,14.92-1.07,22.28,0.89
			c-1.8,1.66-4.05,1.21-6.16,1.23c-5.8,0.07-11.61,0.13-17.41-0.01c-3.33-0.08-5.64,1.13-7.42,3.96
			c-4.34,6.87-9.43,13.24-13.87,20.04c-4.22,6.46-9.84,10.63-17.18,12.67c-2.7,0.51-5.4,0.52-8.1,0.05
			c-8.79-1.72-15.07-7.6-21.17-13.43c-13.32-12.75-27.39-24.71-40.19-38.01c-0.46-0.48-0.94-0.95-1.44-1.38
			c-3.42-2.95-4.05-2.79-4.85,1.67c-2.46,13.74-4.52,27.55-6.63,41.35c-1.58,10.35-3.44,20.66-5.13,30.99
			c-0.32,1.96-0.62,3.95-1.74,5.67c-2.9,1.58-5.71-0.57-8.58-0.2c-6.39,6.37-13.25,12.2-20.98,16.84
			c-6.96,4.18-14.07,8.24-22.49,8.89c-2.17-1.26-2.88-3.56-3.92-5.6c-2.79-5.44-5.31-11.03-8.87-16.06
			c-3.49-4.93-7.94-7.73-14.22-7.44c-4.95,0.23-9.93,0.11-14.89,0.01c-1.92-0.04-4.04,0.37-5.48-1.52
			c1.95-17.27,3.9-34.54,5.84-51.82c1.74-15.47,3.36-30.95,5.28-46.39c0.85-6.89,2.06-13.75,3.53-20.54
			c1.63-7.55,6.27-13.03,12.95-16.84c7.07-4.03,14.06-8.21,21.23-12.06c2.69-1.44,4.11-3.57,5.2-6.17c0.89,0.48,1.32,1.55,2.36,1.82
			c2.34,0.72,4.68,1.43,6.95,2.36c1.53,0.69,3.22,0.56,4.82,0.88c2.38,0.58,4.65,1.49,7.02,2.11c4.68,1.18,9.17,3.04,13.95,3.85
			c8.48,4.9,17.82,8.16,25.87,13.92c4.75,3.39,9.39,6.83,13.49,11.03c17.91,18.34,35.88,36.61,53.83,54.89
			c4.26,4.34,4.28,4.31,7.74-0.87c0.38-0.58,0.4-1.3,0.72-1.91c4.62-6.36,9.45-12.56,14.46-18.62c1.21-1.45,2.09-3.24,4.01-3.98
			c4.59-0.17,7.73,3.67,12.02,4.33c1.4,0.35,2.73,0.85,3.91,1.69c1.66,1.92,4.37,2.54,5.83,4.7c1.64,1.81,0.45,3.31-0.55,4.82
			C286.04,366.71,283.6,370.41,281.16,374.11z"/>
		<path class="st26" d="M105.91,466.18c14.43-4.73,27.3-12.1,38.21-22.74c1.41-1.37,2.65-2.92,3.97-4.39
			c3.48,2.22,7.36,2.65,11.36,2.57c5.85,2.1,11.87,3.58,17.88,5.09c3.15,0.84,6.3,1.63,9.47,2.4c1.25,0.33,2.31,1,3.25,1.86
			c0.3,0.09,0.61,0.11,0.93,0.08c1.11,0.68,2.32-0.33,3.43,0.21c1.6,0.58,3.34,0.67,4.9,1.4c7.65,1.45,14.95,4.32,22.68,5.42
			c0.37,0.01,0.73,0.01,1.1,0.02c2.17,1.12,4.36,2.2,6.92,1.94c1.75-1.08,2.63,1.12,4.1,1.08c1.72,0.56,3.32,1.58,5.23,1.44
			c1.6,0.44,3.28,0.57,4.85,1.12c4.69,1.25,9.47,2.2,14.05,3.83c1.99,0.36,3.88,1.16,5.91,1.36l-0.06-0.06
			c2.67,3.01,6.58,4.05,9.81,6.18c0.39,0.55,0.78,1.1,1.17,1.65c4.6,5.41,7.47,11.55,7.94,18.71c0.01,2.44,0,4.88,0,7.31
			c0.32,2.21-0.66,4.18-1.09,6.26c-0.77,2.95-0.87,6.08-2.36,8.84c-0.55,2.37-1.23,4.7-2.03,6.99c-0.16,1.43-0.74,2.74-1.12,4.11
			c-1.15,1.58-1.04,3.55-1.63,5.31c-0.75,1.24-0.74,2.75-1.39,4.02c-1.08,2.94-1.57,6.11-3.36,8.78c-0.05,0.7-0.1,1.39-0.15,2.09
			c-1.08,1.63-1.43,3.52-1.91,5.36c-0.31,1.5-1.66,2.63-1.52,4.29c-0.39,0.79-0.94,1.5-1.09,2.39c-0.49,2.32-1.42,4.56-1.21,7
			l0-0.08c-3,6.43-5.84,12.91-7.17,19.94c0.34,1.04-0.76,1.36-1.05,2.08c-1.03,2.34-1.63,4.84-2.63,7.2
			c-1.36,4.36-2.64,8.75-4.43,12.97c-0.56,1.38-0.81,2.87-1.55,4.18c-0.65,2.84-2.25,3.59-5,2.55c-2.42-0.92-4.86-1.92-7.54-1.82
			c-6.54-0.82-12.46-3.83-18.84-5.23c-2.07-0.82-4.04-1.74-3.75-4.52c0.54-2.77,1.37-5.48,1.95-8.25c0.6-2.2,1.25-4.39,1.52-6.67
			c2.15-9.16,5-18.13,7.18-27.28c0.54-1.71,0.94-3.47,1.31-5.22c0.94-3.44,1.93-6.87,2.49-10.4c1.15-8.12,4.7-15.62,6.11-23.67
			c0.61-2.88,1.48-5.7,2.02-8.61c0.14-1.15,0.63-2.2,0.88-3.32c0.56-2.59-0.44-3.6-3.05-3.58c-6.72,0.05-13.44,0-20.17,0.05
			c-6.7-0.03-13.4,0.03-20.1-0.02c-4.6-1.68-9.57-0.06-14.18-1.58c-5.09-9.02-13.17-11.18-22.87-10.52
			c-6.78,0.46-13.64-0.22-20.43,0.17c-7.3,0.42-12.89-2.3-17.47-7.72c-4.88-5.78-8.3-12.4-11.44-19.21
			C105.47,468.46,105.2,467.3,105.91,466.18z"/>
		<path class="st88" d="M842.92,880.91c-4.89,1.26-9.88,1-14.86,1c-253.6,0-507.19,0.01-760.79-0.07c-8.2,0-16.63-0.16-24.21-3.88
			c-10.31-5.06-17.54-12.06-20.3-24.44c-4.4-19.7-2.5-39.4-2.52-59.06c-0.21-242.43-0.13-484.87-0.17-727.3
			c0-8.34,2.18-16.26,4.05-24.23c0.76-3.24,1.69-6.97,5.94-7.84c0,2.34,0.01,4.67,0.01,7.01c-2.09,8.21-3.52,16.49-3.51,25.03
			c0.04,238.59,0.04,477.18,0.02,715.77c0,2.98,0.38,6.01-0.53,8.94c-1.35,2.22-1.55,4.66-1.55,7.2
			c0.04,12.99-0.66,26.04,0.26,38.97c0.61,8.53,1.04,17.35,6.2,25.17c5.13,7.79,12.38,11.04,20.93,12.79
			c14.33,2.92,28.82,1.46,43.22,1.47c246.22,0.11,492.45,0.07,738.67,0.1c2.97,0,6-0.49,8.93,0.5
			C844.24,878.87,844.47,879.82,842.92,880.91z"/>
		<path class="st89" d="M25.09,791.93c0-241.69,0-483.39-0.01-725.08c0-7.67,0.89-15.21,3.09-22.57c0.31-1.03,0.95-1.73,1.89-2.19
			c0,4.33,0,8.67,0,13c-1.33,0.65-1.97,1.72-1.97,3.2c0,1.33-0.01,2.67-0.01,4c0,259.04,0,518.08,0.02,777.12
			c0,6.75,0.85,13.32,4.26,19.43c6.33,11.34,16.65,14.82,28.72,15.09c2.58-1.76,5.51-0.96,8.27-0.96
			c254.41-0.04,508.81-0.03,763.22-0.07c5.12,0,10.31,0.55,15.32-1.06c2.08-0.23,4.33,0.26,6.09-1.38c1.79-1.18,3.57-2.41,5.49-3.4
			c3.67-1.71,6.11-4.53,7.48-8.31c0.34-0.85,0.79-1.63,1.27-2.39c2.63-2.98,2.35-6.99,3.69-10.42c0-1.33,0-2.67,0-4
			c1.18-2.15,1-4.51,1-6.83c0.01-256.06,0.01-512.12,0-768.17c0-2.32,0.19-4.68-1-6.83c0-1.33,0-2.67,0-4
			c-1.44-2.83-0.92-6.09-1.99-9c0-1,0-2,0-3c5.11,1.34,4.66,6.01,5.3,9.63c1.44,8.04,1.11,16.23,1.11,24.38
			c-0.01,251.42-0.01,502.84-0.01,754.26c0,7.5-0.49,14.92-2.62,22.17c-4.19,14.27-14.49,20.91-28.54,22.7
			c-4.78,0.61-9.61,0.71-14.45,0.71c-254.42-0.03-508.84-0.03-763.26,0c-7.38,0-14.58-1.01-21.6-3.13
			c-12.21-3.69-18.88-14.9-20.5-27.25c-2.15-16.47-0.6-32.88-1.25-49.3C24.03,796.11,23.79,793.89,25.09,791.93z"/>
		<path class="st5" d="M105.91,466.18c3.76,8.51,7.76,16.87,14.4,23.64c3.57,3.64,7.7,5.43,12.9,5.33
			c9.63-0.19,19.27-0.12,28.9-0.03c8.58,0.08,13.29,3.32,16.01,10.75c0.5,0.79,0.57,1.6,0.07,2.41c-0.41,1.53-1.26,2.6-2.94,2.81
			c-11.45,0.84-22.92,0.14-34.38,0.37c-2.13,0.04-4.36-0.39-6.23,1.13c-6.4,1.73-12.97,0.15-19.42,0.97
			c-0.53,0.15-1.07,0.2-1.62,0.16c-0.77-0.12-1.42-0.46-1.86-1.12c-5.85-0.55-11.7-0.57-17.53,0.22c-0.68,0.32-1.39,0.58-2.14,0.65
			c-4.52-2.57-9.43-0.96-14.14-1.22c-12.31-0.68-21.57-5.91-27.17-17.09c-2.02-4.03-3.48-8.28-4.06-12.74
			c-1.81-13.83-1.49-27.48,3.92-40.62c1.37-3.33,2.97-6.42,7.39-6.02c6.46,0.05,12.95,0.54,19.37,0.05
			c8.04-0.61,13.14,3.17,17.26,9.41C99.04,451.9,101.91,459.34,105.91,466.18z"/>
		<path class="st26" d="M323.11,265.1c-11.29,11.61-20.97,24.39-28.24,38.91c-0.79,1.53-1.68,1.44-2.53,0.09
			c-0.76-1.2-1.01-3.02-3.15-2.26c-4,5.56-6.75,11.75-9.18,18.08c-1.16,3.01-0.83,6.17-0.13,9.3c0.43,1.9,1.33,3.8,0.48,5.82
			c-2.7,1.88-4.92,4.21-6.67,7c-0.86,1.37-1.75,2.92-3.85,1.92c-12.88-1.01-25.78-0.91-38.67-0.97c-2.08-0.01-4.34,0.67-6.17-1.02
			c-0.32-3.87,0.72-7.49,2.02-11.06c-0.19-0.18-0.26-0.4-0.21-0.66c1.39-5.36,3.15-10.6,5.04-15.8c0.55-1.52,1.38-2.99,0.93-4.72
			c0.67-1.15,1.33-2.29,2-3.44c2.9-8.19,6.89-15.83,11.66-23.08c1.88-2.62,3.62-5.34,5.99-7.56c1.55-2.5,4.2-4.09,5.56-6.74l-0.09,0
			c4.47-1.51,7.38-5.78,12.12-6.84c16.22-0.09,32.42-0.02,48.63-0.03c1.48,0,3.01-0.25,4.4,0.41
			C324.67,263.24,324.13,264.2,323.11,265.1z"/>
		<path class="st2" d="M92.08,513.49c0.33-0.49,0.66-0.98,0.99-1.48c6.29-0.83,12.58-0.89,18.87,0.04c0.36,0.32,0.72,0.63,1.09,0.95
			c1.67,1.76,1.44,3.98,1.44,6.12c0.03,29.35,0.03,58.71,0,88.06c0,1.97,0.22,4.01-0.99,5.78c-1.21,1.16-2.76,0.98-4.23,0.98
			c-15.91-0.04-31.81,0.18-47.71-0.1c-2.82-0.65-1.29-2.58-1.19-4.08c0.48-1.15,0.96-2.3,1.28-3.51c0.49-1.29,0.54-2.69,0.99-3.98
			c0.35-1.05,0.78-2.08,1.05-3.16c0.32-0.84,0.64-1.68,1.05-2.49c0.37-1.82,0.84-3.6,1.46-5.35c0.49-1.36,1.22-2.6,1.94-3.85
			l-0.04,0.1c-0.25-2.28,0.86-4.24,1.48-6.31c0.95-1.93,1.31-4.07,2.03-6.08c0.92-1.92,1.34-4,1.91-6.03
			c0.28-1.38,0.82-2.69,1.17-4.05c0.58-1.55,1.09-3.13,1.68-4.68c0.39-1.4,0.96-2.72,1.74-3.94l-0.04,0.1
			c0.11-2.22,1.08-4.16,2.04-6.1l-0.04,0.11c-0.11-1.98,0.81-3.68,1.44-5.46c0.66-1.98,0.97-4.06,1.71-6.01
			c0.48-1.04,0.93-2.09,1.33-3.16c0.43-1.29,0.5-2.68,1-3.95c0.25-1.13,0.62-2.21,1.12-3.25c0.81-1.92,1.03-4.08,2.44-5.75
			l-0.06,0.1c0.28-2.88,1.07-5.63,2.07-8.33C91.45,514.31,91.76,513.9,92.08,513.49z"/>
		<path class="st2" d="M152.27,575.06c0.22-0.05,0.45-0.1,0.67-0.14c0.03,2.26,1.12,4.34,1.12,6.61c0.33,0.29,0.67,0.59,1,0.88
			c-0.08,2.28,0.95,4.37,1.12,6.61c0.23-0.04,0.46-0.08,0.69-0.13c0.24,2.47,0.4,4.97,1.72,7.18c0.89,1.89,0.43,4.16,1.68,5.95
			c0.3-0.01,0.59-0.01,0.89,0.01c0.03,1.75-0.22,3.51,0.26,5.23c0.9,3.89-0.26,6.09-4.62,6.09c-12.29,0.01-24.58,0.05-36.87-0.03
			c-1.5-0.01-3-0.14-4.21-1.22c-1.43-2.09-1.06-4.49-1.06-6.78c-0.03-28.13-0.03-56.26-0.01-84.38c0.01-7.54,0.12-7.61,7.77-8.12
			c3.84-0.25,7.71-1.02,11.48,0.5c1.37,0.91,0.32,2.79,1.51,3.78c0.23,0.09,0.44,0.2,0.65,0.34c-0.17,2.27,1.07,4.32,1.01,6.56
			c0.31-0.01,0.62-0.02,0.93-0.04c0.03,2.41,0.65,4.63,2.11,6.58l-0.04-0.11c-0.26,1.86,0.34,3.57,0.99,5.26
			c0.81,1.68,0.87,3.58,1.51,5.31c0.51,1.08,0.53,2.31,0.98,3.41c0.67,2.32,1.65,4.56,1.61,7.04c1.81,2.96,1.91,6.44,2.92,9.64
			c-0.02,0.25-0.04,0.5-0.07,0.75c1.6,1.78,1.37,4.47,3.08,6.19l-0.06-0.1C151.39,570.31,151.57,572.73,152.27,575.06z"/>
		<path class="st5" d="M115.8,263.14c-4.7-10.02-11.33-19.22-13.1-30.47c-0.51-3.26-0.78-6.62-0.65-9.92
			c0.63-15.41,9.98-24.2,25.36-23.81c9.2,0.23,18.15,1.69,26.5,5.94c5.72,2.91,10.13,6.89,12.17,13.14c0.72,1.26,0.78,2.43-0.49,3.4
			c-1.74,0.55-3.46,1.11-5.14,1.83c-3.17,1.34-4.98,3.36-5.35,7.02c-0.55,5.33-3.39,9.68-7.35,13.19c-3.37,2.99-5.41,2.44-7.19-1.6
			c-0.4-0.91-0.65-1.88-1.03-2.8c-0.63-1.53-1.14-3.38-3.32-3.03c-2.29,0.37-3.32,2.1-3.49,4.26c-0.21,2.72,1.08,5.17,1.69,7.74
			c2.23,9.38-3.34,17.76-12.86,19.3C118.34,267.71,116.52,266.17,115.8,263.14z"/>
		<path class="st9" d="M122.12,266.07c8.22-1.77,13-9.01,11.17-17.02c-0.52-2.26-1.41-4.44-1.92-6.71c-0.67-3-0.09-5.72,2.82-7.32
			c2.65-1.46,5.15-1.93,6.02,2.07c0.1,0.48,0.32,0.95,0.54,1.4c0.98,2,0.43,5.55,2.89,5.81c2.65,0.29,4.43-2.62,6.06-4.72
			c2.27-2.93,3.79-6.24,4.32-9.97c0.77-5.45,4.99-8.73,11.14-8.69c2.16,4-0.15,8.54,1.52,12.6c0.36,2.42-0.92,3.37-3.09,3.48
			c0.61-0.36-0.27,0.67-0.44,0.03c-0.18-0.64-1.06-0.25-0.45-0.03c1.16,0.42,2.53-0.19,3.64,0.65c0.6,0.46,0.92,1.08,1.07,1.81
			c-0.51,3.39-0.55,6.79-0.04,10.18c0.19,0.45,0.42,0.88,0.7,1.28c0.98,1.14,1.67,2.47,2.49,3.72c0.45,0.68,1.09,1.88,0.41,2.22
			c-4.63,2.38-2.37,6.62-2.93,10.09c-0.04,1.58-0.6,2.97-1.49,4.25c-2.23,4.71-6.2,6.74-11.15,7.28c-1.83-0.16-3.72,0.46-5.48-0.45
			l-0.47,0.01l-0.43-0.19c-0.73-0.71-1.72-0.88-2.62-1.21c-4.58-1.7-4.59-1.69-5.46,3.15c-0.12,0.67-0.47,1.19-1,1.61
			c-6.33-0.07-11.36-3.81-16.85-6.15c-2.53-1.08-5.96-1.01-7.35-4.22C115.36,266.2,119.15,266.66,122.12,266.07z"/>
		<path class="st5" d="M216.21,608.85c6.26,1.73,12.52,3.46,18.77,5.19c0.97,1.27-1.54,2.68,0.16,3.92
			c2.89,6.97,9.13,7.67,15.38,7.91c6.94,0.27,12.97,2.61,18.37,6.82c1.43,1.11,2.82,2.27,4.29,3.45c-2.08,1.95-3.83,1.31-5.39,1.31
			c-16.99,0.05-33.98,0.05-50.97,0.02c-2.28,0-5.26,1.03-5.3-3.1c-0.01-0.5-1.17-1.08-1.89-1.46c-5.14-2.7-10.31-5.35-15.46-8.01
			c-2.43-1.07-2.07-3.01-1.57-5.01c1.17-4.72,3.44-8.85,6.55-12.56c0.74-0.78,1.64-1.22,2.71-1.33c3.25,0.05,6.01,1.65,8.9,2.83
			C212.58,609.99,214.4,607.83,216.21,608.85z"/>
		<path class="st13" d="M61.52,168.99c-1.69-0.16-2.25-1.32-2.54-2.69c-0.61-2.91-1.53-5.81-1.7-8.74c-0.26-4.58-2.53-6.4-6.91-6.72
			c-2.94-0.21-5.83-1.1-8.74-1.73c-1.19-0.26-2.27-0.8-2.39-2.18c-0.15-1.77,1.33-2.27,2.56-2.54c2.74-0.59,5.53-1.03,8.33-1.31
			c4.1-0.42,6.9-1.88,7.15-6.6c0.16-2.95,0.89-5.87,1.52-8.77c0.3-1.39,0.46-3.36,2.43-3.24c1.92,0.12,2.58,1.83,2.85,3.57
			c0.35,2.29,0.78,4.57,1.01,6.87c0.6,6.17,1.76,7.37,7.78,8.18c2.78,0.37,5.55,0.88,8.27,1.56c1.22,0.3,2.73,0.85,2.56,2.57
			c-0.14,1.38-1.41,1.75-2.56,1.97c-3.24,0.63-6.47,1.49-9.74,1.73c-4.49,0.34-5.84,3.07-6.28,6.92c-0.32,2.79-0.7,5.59-1.24,8.34
			C63.61,167.44,63.11,168.78,61.52,168.99z"/>
		<path class="st90" d="M116.06,271.05c7.93,3.39,15.86,6.78,23.79,10.18c1.2-0.02,1.59,0.89,2.04,1.75
			c5.14,1.3,3.25,5.83,4.17,9.07c-4.56,1.13-8.34-1.85-12.58-2.41c-2.33-0.77-4.73-1.34-7.06-2.12c-1.33-0.6-2.81-0.37-4.18-0.74
			c-2.97-0.69-5.5-3.51-8.95-1.83c-1.44-0.56-1.16-1.84-1.24-2.96c1.29-5.66,2.57-11.32,3.86-16.99
			C117.21,266.98,116.68,269.02,116.06,271.05z"/>
		<path class="st91" d="M178.19,508.29c-0.02-0.8-0.04-1.61-0.07-2.41c4.5,2.16,9.31,0.42,13.93,1.09c0.36,0.57,0.52,1.19,0.49,1.86
			c-0.06,33.28-0.31,66.57,0.14,99.85c0.13,9.81-1.32,19.52-1.56,29.3c-3.19-0.71-1.53-3.28-1.53-4.82
			c-0.12-39.06-0.09-78.11-0.09-117.17c0-7.98,0-7.99-7.82-7.89C180.51,508.11,179.35,508.22,178.19,508.29z"/>
		<path class="st14" d="M30.12,116.01c0.02-14.59,0.03-29.17,0.05-43.76c2.87,2.31,1.92,5.85,2.57,8.78
			c1.91,8.7,1.95,9.04,10.58,9.96c3.1,0.33,7.8,0.08,7.92,3.21c0.13,3.59-4.93,2.6-7.69,3.67c-1.17,0.46-2.63,0.15-3.94,0.32
			c-4.16,0.54-6.35,2.65-6.66,7.13C32.71,108.98,32.98,112.96,30.12,116.01z"/>
		<path class="st92" d="M191.12,637.98c0.02-41.45,0.02-82.9,0.09-124.35c0-1.89-0.81-4.01,0.84-5.7
			c6.88-0.88,13.79-0.32,20.68-0.31c1.25,1.32,0.81,2.21-0.71,2.84c-3.49,0.34-6.98,0.04-10.48,0.08c-7.75,0.07-7.91,0.17-7.92,7.73
			c-0.02,14.65-0.06,29.3,0.01,43.95c0.05,11.82-0.23,23.63,0.06,35.44c0.35,1,0.48,2.05,0.5,3.1c0.12,1.24-0.65,2.54,0.28,3.73
			c1.74,1.34,4.71,0.88,5.42,3.7c-2.8,3.71-4.89,7.77-6.24,12.22c-0.49,1.61-1,3.16,0.54,4.5c-2.64,0.39-1.93,2.47-2.13,4.14
			C191.7,632.02,193.03,635.17,191.12,637.98z"/>
		<path class="st14" d="M85.5,64.76c-0.9,1.67-2.61,2.26-4.17,2.18c-5.6-0.29-7.2,2.89-7.28,7.7c-0.03,1.5-0.27,3.62-1.74,3.72
			c-2.12,0.15-2.11-2.14-2.21-3.71c-0.32-4.95-2.08-8.17-7.82-7.81c-1.21,0.08-3.59-0.16-3.6-1.84c-0.01-2.19,2.27-1.91,3.84-1.94
			c5.1-0.1,7.42-2.81,7.56-7.75c0.05-1.59-0.16-3.78,2.09-3.78c1.93,0,1.98,2.04,1.86,3.48c-0.48,5.74,3.02,7.43,7.79,7.99
			C83.2,63.16,84.9,62.75,85.5,64.76z"/>
		<path class="st93" d="M267.05,348.05c-1.01,1.32-2.01,2.64-3.02,3.97c-3.83,2.19-7.86,1.75-11.92,0.9
			c-0.89-0.47-1.63-1.02-1.28-2.21c0.48-1.9,0.95-3.81,1.43-5.71c0.13-1.8,1.08-2.55,2.89-2.47c4.88,0.2,9.78-0.32,14.66,0.27
			c0.97,0.91,0.77,1.92,0.25,2.96C269.41,346.99,267.99,347.2,267.05,348.05z"/>
		<path class="st94" d="M252.17,352.21c3.95-0.07,7.91-0.13,11.86-0.2c-4.95,6.37-9.9,12.74-14.86,19.12
			c-3.49-2.66-1.2-5.95-0.98-9.02c-0.01-0.38-0.01-0.75-0.02-1.13C250.05,358.3,249.04,354.31,252.17,352.21z"/>
		<path class="st95" d="M163.02,608.97c1.78,0.91,0.61,2.91,1.63,4.32c1.15,1.61-0.09,1.88-1.87,1.85
			c-14.79-0.24-29.58-0.24-44.37-0.47c-2.83-0.04-3.66,0.87-3.71,3.68c-0.12,6.61,0.78,13.25-0.52,19.82
			c-1.03-8.26-0.87-16.52-0.06-24.78c0.39-0.5,0.91-0.82,1.54-0.93c13.8,0.05,27.6-0.05,41.39,0.07c2.54,0.02,4.56-0.19,5.2-3.08
			C162.51,609.29,162.77,609.13,163.02,608.97z"/>
		<path class="st96" d="M115.05,613.25c-2.25,4.72-0.72,9.72-1.03,14.58c-0.22,3.43,0.08,6.9,0.15,10.35
			c-2.38,0.2-1.24-1.65-1.25-2.48c-0.09-6.81-0.02-13.62-0.01-20.43c-0.48-0.88-0.49-1.77-0.05-2.67
			c0.05-33.19,0.11-66.39,0.16-99.58c0.32-0.04,0.63-0.05,0.95-0.05c1.65,1.65,1.06,3.75,1.06,5.68
			C115.07,550.17,115.09,581.71,115.05,613.25z"/>
		<path class="st97" d="M323.11,265.1c0.94-2.89-1.34-2-2.53-2c-17.48-0.01-34.96,0.04-52.44,0.07c-0.9,0.36-1.07-0.15-1.04-0.88
			c1.56-1.32,3.44-0.97,5.23-0.97c16.56-0.01,33.12-0.01,49.68-0.01c5.46,0,5.46,0.01,3.04,4.64
			C323.72,267.24,323.95,264.94,323.11,265.1z"/>
		<path class="st98" d="M112.86,612.59c0.02,0.89,0.03,1.78,0.05,2.67c-9.26-1.22-18.56-0.46-27.83-0.47
			c-8.61,0-17.25-0.77-25.83,0.5c-0.94-1.41,0.07-2.03,1.08-2.64C77.84,613.01,95.35,613.13,112.86,612.59z"/>
		<path class="st99" d="M270.08,344.12c-6.02-1.34-12.05-2.82-17.82,0.88c-0.96-2.07-2.86-1.28-4.38-1.3
			c-6.46-0.08-12.91-0.03-19.37-0.04c-5.77-0.01-5.77-0.01-4.34-5.59c2.32,0.36,1.2,1.8,0.93,2.97c1.45,1.7,3.41,0.92,5.13,0.93
			c12.11,0.07,24.23-0.01,36.34,0.1c1.51,0.01,3.89-1.26,4.32,1.76C270.73,344.24,270.45,344.34,270.08,344.12z"/>
		<path class="st100" d="M408,266.07c-1.15,1.37-2.73,0.95-4.18,0.95c-21.87,0.02-43.73,0.02-65.6,0c-1.44,0-3.02,0.42-4.19-0.92
			C358.69,265.83,383.35,265.44,408,266.07z"/>
		<path class="st101" d="M247.15,283.26c-4.12,7.68-8.24,15.36-12.36,23.04c-1.96-2.04,0.08-3.87,0.79-5.24
			c3.55-6.89,6.66-14.05,11.38-20.29C247.75,281.55,247.59,282.39,247.15,283.26z"/>
		<path class="st102" d="M135.42,517.09c-1.16-0.64-1.35-1.8-1.59-2.94c-0.25-0.64-0.35-1.28-0.02-1.93
			c1.32-0.73,2.67-1.21,4.23-1.2c12.4,0.05,24.81,0.06,37.21,0.08c-4.3,1.59-8.78,0.67-13.17,0.89c-6.91,0.34-13.84,0.34-20.76,0.19
			C137.7,512.11,134.65,512.14,135.42,517.09z"/>
		<path class="st103" d="M222,458.09c-1.07,1.55-2.33,0.58-3.53,0.25c-6.47-1.78-13.16-2.75-19.43-5.27
			c-0.25-0.27-0.33-0.54-0.23-0.79c0.1-0.25,0.19-0.38,0.28-0.38C206.89,453.36,214.63,455.05,222,458.09z"/>
		<path class="st104" d="M167.22,267.05c0.87-3.54-2.91-8.39,2.96-10.51c-1-1.87-1.99-3.74-2.99-5.61c0.34-0.39,0.36-1.08,1.05-1.17
			c1.25,1.7,2.53,3.39,3.74,5.12c1.43,2.04,3.61,3.92-1.43,4.43c-3.05,0.31-0.59,3.93-1.64,5.77
			C168.23,265.64,168.99,267.43,167.22,267.05z"/>
		<path class="st105" d="M232.79,309.74c0.3,0.39,0.94,0.87,0.85,1.15c-1.94,6.57-3.37,13.33-6.83,19.37
			c-0.9-0.48-1.02-1.38-0.75-2.12C228.26,321.99,230.53,315.87,232.79,309.74z"/>
		<path class="st106" d="M257,587.95c-1.37-0.84-0.81-1.94-0.42-3.03c1.77-4.96,3.56-9.91,5.25-14.9c0.42-1.22,0.89-2.12,2.34-2.01
			C262.24,574.82,260.22,581.6,257,587.95z"/>
		<path class="st107" d="M282.11,494.94c-0.43-5.48-2.2-10.46-5.56-14.84c-0.81-1.06-1.61-2.05-1.47-3.48
			c5.36,3.49,7.22,8.89,8.09,14.83C283.13,492.71,284.62,494.43,282.11,494.94z"/>
		<path class="st108" d="M141.89,282.98c-0.78-0.46-1.75-0.71-2.04-1.75c0.03-0.33,0.03-0.67,0.1-0.99c0.43-2-1.01-5.41,1.14-5.74
			c2.69-0.42,6.17,0.19,7.92,3.38c-2.4,0.6-4.25-1.3-6.8-1.52C142.1,278.61,142,280.79,141.89,282.98z"/>
		<path class="st109" d="M235.15,617.96c-1.99-1.23-0.62-2.59-0.16-3.92c2.4,0.6,4.9,0.95,7.16,1.88c2.57,1.06,3.92,0.27,4.82-2.07
			c0.64,0.11,0.76,0.72,1.08,1.12c-0.53,4.1-2.78,3.85-6.08,3.01C239.91,617.46,237.35,613.68,235.15,617.96z"/>
		<path class="st110" d="M248.11,610.01c1.89-4.27,2.29-9.12,5.09-13.03c0.21-0.01,0.42-0.02,0.63-0.03
			c-0.24,5.2-2.68,9.71-4.56,14.39C248.59,611.15,248.51,610.43,248.11,610.01z"/>
		<path class="st107" d="M258.89,468.15c-4.99-1.22-10.1-2-14.89-4c-0.54-0.39-0.53-0.76,0.04-1.12c5.57,0.38,10.64,2.74,15.99,4
			C260.24,468,259.97,468.48,258.89,468.15z"/>
		<path class="st111" d="M133.07,289.04c4.55,0.05,8.5,2.72,12.99,3.01c0.36,0.32,0.72,0.64,1.09,0.96
			c-1.27,2.4-2.89,0.64-4.25,0.23c-3.3-1-6.81-1.39-9.82-3.26c-0.25-0.2-0.34-0.41-0.26-0.62
			C132.9,289.14,132.98,289.04,133.07,289.04z"/>
		<path class="st112" d="M282.11,494.94c1.21-0.9,0.82-2.28,1.06-3.48c1.54,5.27,1.4,10.53-0.01,15.8c-1.35-1.16,0.06-3.04-1.1-4.25
			C282.08,500.32,282.1,497.63,282.11,494.94z"/>
		<path class="st113" d="M166.96,250.13c-1.59-3.81-1.17-7.61,0.09-11.4c-1.09-2.36-0.85-4.69,0.2-6.99
			c0.8,4.09,1.02,8.21,0.68,12.36C166.85,245.99,168.35,248.29,166.96,250.13z"/>
		<path class="st114" d="M155.94,277.9c4.19-1.08,7.69-3.18,10.11-6.87c0.44,0.19,0.72,0.51,0.85,0.96
			c-1.51,4.17-4.73,6.15-8.89,6.93C157.46,278.3,156.35,278.81,155.94,277.9z"/>
		<path class="st105" d="M267.11,262.28c0.35,0.29,0.69,0.59,1.04,0.88c-3.34,2.05-5.55,6.1-10.23,5.76
			C260.53,266.1,263.58,263.86,267.11,262.28z"/>
		<path class="st115" d="M165.96,234.15c-1.75-4.31-0.58-8.81-0.81-13.22c1.09-0.72,0.7-1.92,0.93-2.91
			c1.8,2.52,0.97,5.33,0.91,8.05C165.72,228.66,167.45,231.61,165.96,234.15z"/>
		<path class="st116" d="M58.83,616.9c-1.12,3.46-1.76,7.1-3.6,10.31c-0.63-0.15-0.69-0.77-0.99-1.2c0.84-3.87,1.95-7.65,3.75-11.2
			C58.83,615.29,58.4,616.26,58.83,616.9z"/>
		<path class="st112" d="M252.17,352.21c-1.75,2.73-0.56,6.8-3.99,8.77c-0.1-3.68,0.82-7.09,2.65-10.27
			C251.28,351.21,251.72,351.71,252.17,352.21z"/>
		<path class="st117" d="M273.92,474.98c-4.12-0.71-7.66-2.34-9.81-6.17C267.5,470.67,271.62,471.38,273.92,474.98z"/>
		<path class="st118" d="M270.04,546.95c0.25-3.22,1.29-6.19,2.84-8.99c0.44-0.42,0.85-0.4,1.25,0.06
			C273.05,541.12,273.64,545,270.04,546.95z"/>
		<path class="st119" d="M248.2,362.11c1.29,2.9-1,6.19,0.98,9.02c-0.37,0.28-0.73,0.56-1.1,0.84
			C245.88,368.65,245.49,365.36,248.2,362.11z"/>
		<path class="st120" d="M165.96,234.15c0.66-2.65-0.93-5.59,1.02-8.07c0.09,1.89,0.18,3.77,0.27,5.66
			c-0.07,2.33-0.14,4.66-0.2,6.99c-0.34-0.19-0.68-0.38-1.01-0.57c-0.81-1.64-3.69,0.76-3.92-2.02
			C163.42,235.51,165.72,236.83,165.96,234.15z"/>
		<path class="st121" d="M225.1,341.05c-0.13-1.05,0.17-2.23-0.93-2.97c0.63-2.52-0.16-5.6,2.86-7.17
			C227.04,334.41,226.6,337.83,225.1,341.05z"/>
		<path class="st105" d="M247.15,283.26c-0.07-0.83-0.13-1.65-0.2-2.48c1.66-1.99,3.33-3.98,4.99-5.97
			c0.64,0.17,1.02,0.58,1.12,1.23C251.09,278.45,249.12,280.85,247.15,283.26z"/>
		<path class="st122" d="M148.09,561.08c-2.08-2.7-1.91-6.3-3.62-9.15c0.14-0.75,0.52-1.14,1.33-0.89
			C147.94,554.07,148.28,557.51,148.09,561.08z"/>
		<path class="st60" d="M279.23,517.99c0.64-2.99,1.28-5.97,1.93-8.96c0.88-0.13,1.48-0.03,0.93,1.08c0.32,2.86-0.33,5.52-1.73,8.01
			C279.93,518.52,279.56,518.48,279.23,517.99z"/>
		<path class="st123" d="M145.8,551.03c-0.44,0.3-0.88,0.59-1.33,0.89c-0.49-2.64-0.98-5.28-1.48-7.92
			c0.36-0.36,0.72-0.37,1.09-0.02C145.15,546.21,146.1,548.47,145.8,551.03z"/>
		<path class="st124" d="M160.16,605.67c-0.18-1.35-0.27-2.69,1-3.64c1.2,2.16,1.93,4.44,1.86,6.94c0,0,0.09-0.03,0.09-0.03
			C159.42,610.31,161.22,606.69,160.16,605.67z"/>
		<path class="st125" d="M116.06,271.05c-0.05-2.02-0.1-4.04-0.15-6.06c-0.04-0.62-0.07-1.23-0.11-1.85
			c1.46,2.38,3.55,3.39,6.32,2.93C119.27,266.73,116.8,267.84,116.06,271.05z"/>
		<path class="st126" d="M267.15,554.09c0.51-1.9,0.08-4.32,2.74-5.06c0.59,2.66-0.6,4.86-1.78,7.07
			C267.25,555.69,267.79,554.61,267.15,554.09z"/>
		<path class="st127" d="M279.23,517.99c0.38,0.04,0.75,0.09,1.13,0.13c-0.36,2.45-0.81,4.86-2.41,6.88
			c-0.29,0.45-0.58,0.45-0.88,0.01C277.24,522.5,277.46,520.01,279.23,517.99z"/>
		<path class="st128" d="M58.83,616.9c-0.28-0.7-0.55-1.39-0.83-2.09c0.49-2.1,0.43-4.43,2.56-5.8l0.18-0.11
			c0.45,1.32,0.1,2.55-0.42,3.76c-0.36,0.88-0.72,1.76-1.08,2.64C59.11,615.83,58.97,616.36,58.83,616.9z"/>
		<path class="st60" d="M253.06,276.05c-0.37-0.41-0.75-0.82-1.12-1.23c1.71-2.28,3.54-4.44,6.06-5.89
			C257.91,272.38,254.59,273.59,253.06,276.05z"/>
		<path class="st129" d="M230.02,460.04c-2.84,1.25-5.21,0.84-6.92-1.94C225.64,457.91,227.88,458.81,230.02,460.04z"/>
		<path class="st130" d="M70.08,580.97c-0.06,2.37-0.44,4.63-1.99,6.55c-2.06-2.72-0.32-4.61,1.43-6.5
			C69.7,581.01,69.89,580.99,70.08,580.97z"/>
		<path class="st95" d="M158,596.08c-1.93-2.15-2.56-4.51-1.12-7.19c1.68,1.32,1.46,3.38,1.99,5.16
			C158.35,594.63,158.85,595.64,158,596.08z"/>
		<path class="st95" d="M151.1,568.02c-3.46-0.85-2.46-3.93-3.08-6.19C151.6,562.62,150.49,565.75,151.1,568.02z"/>
		<path class="st131" d="M264.16,568.09c-1.96-2.63-0.55-4.91,0.75-7.19c0.9,0.4,0.4,1.49,1,2.03
			C265.72,564.78,265.26,566.54,264.16,568.09z"/>
		<path class="st132" d="M91.13,514.72c0.39,3.05-0.63,5.74-2.07,8.33C87.79,519.78,88.7,517.06,91.13,514.72z"/>
		<path class="st133" d="M54.25,626.01c0.33,0.4,0.66,0.8,0.99,1.2c-0.33,2.37-0.98,4.64-2.11,6.76c-0.41,0.34-0.81,0.34-1.2-0.05
			C52.12,631.11,53.2,628.56,54.25,626.01z"/>
		<path class="st134" d="M70.08,580.97l-0.29-0.06c0,0-0.27,0.11-0.27,0.11c-0.21-2.35-0.11-4.59,2.15-6.07l0.07-0.07
			C72.33,577.22,71.43,579.16,70.08,580.97z"/>
		<path class="st96" d="M71.73,574.88c0,0-0.07,0.08-0.07,0.07c-0.64-2.41-0.01-4.39,2.01-5.9l-0.08-0.07
			C74.04,571.29,73.47,573.27,71.73,574.88z"/>
		<path class="st135" d="M82.11,545.04c-0.43,1.92-0.77,3.88-2.04,5.49c-1.92-2.85,0.77-4.99,1.13-7.49
			C83.03,543.03,82.61,544.02,82.11,545.04z"/>
		<path class="st125" d="M158,596.08c0.29-0.68,0.58-1.35,0.86-2.03c1.2,2.53,1.3,5.25,1.41,7.98
			C158.09,600.59,158.72,598.08,158,596.08z"/>
		<path class="st136" d="M152.27,575.06c-1.7-2.16-2.69-4.44-1.22-7.15C152.28,570.15,153.61,572.38,152.27,575.06z"/>
		<path class="st137" d="M82.11,545.04c-0.3-0.67-0.6-1.33-0.9-2c0.29-1.84,0.6-3.66,1.76-5.2c0.64,0.08,0.72,0.65,0.96,1.09
			C83.88,541.13,83.3,543.18,82.11,545.04z"/>
		<path class="st135" d="M154.06,581.53c-1.44-2.02-2.27-4.15-1.12-6.61C153.91,577.02,155.74,578.98,154.06,581.53z"/>
		<path class="st138" d="M166.9,271.99c-0.28-0.32-0.57-0.64-0.85-0.96c0.39-1.32,0.78-2.65,1.17-3.97
			c0.56-0.66,1.12-1.31,1.69-1.97C169.37,267.72,168.39,269.93,166.9,271.99z"/>
		<path class="st139" d="M141.98,541.11c-1.22-1.54-1.25-3.46-1.69-5.24c0.5-0.6-0.05-1.67,0.91-2.07c1.12,1.58,1.49,3.4,1.68,5.27
			C142.34,539.65,142.86,540.68,141.98,541.11z"/>
		<path class="st139" d="M167.92,630.15c-1.11-1.59-1.49-3.4-1.67-5.28c0.54-0.59,0-1.65,0.91-2.07c1.21,1.55,1.22,3.48,1.67,5.27
			C168.33,628.68,168.89,629.75,167.92,630.15z"/>
		<path class="st140" d="M66.95,591.92c-0.59,1.73-1.19,3.46-1.78,5.18c-0.89-0.43-0.36-1.5-0.94-2.07
			c0.16-1.89,0.71-3.64,1.76-5.23C66.88,590.25,66.34,591.35,66.95,591.92z"/>
		<path class="st135" d="M156.18,589.03c-0.98-2.1-2.78-4.06-1.12-6.61C156.52,584.43,157.34,586.56,156.18,589.03z"/>
		<path class="st141" d="M80.11,550.43c-0.02,2.25-0.52,4.34-2.04,6.1C76.51,553.75,77.29,551.75,80.11,550.43z"/>
		<path class="st102" d="M140.11,530.54c-3.02-1.45-3.24-3.8-2.11-6.58C139.61,525.86,139.7,528.25,140.11,530.54z"/>
		<path class="st142" d="M89.12,522.95c-0.05,2.24-0.76,4.28-1.96,6.16c-0.88-0.43-0.37-1.43-0.85-2.03
			C87.26,525.71,85.78,522.69,89.12,522.95z"/>
		<path class="st143" d="M137.08,523.99c-0.74-2.13-2.78-4.05-1.01-6.56C137.33,519.47,138.53,521.53,137.08,523.99z"/>
		<path class="st62" d="M282.09,510.11c-0.31-0.36-0.62-0.72-0.93-1.08c0.3-2.01,0.6-4.02,0.91-6.03c1.48,1.13,0.74,2.83,1.1,4.25
			C283.14,508.33,283.38,509.51,282.09,510.11z"/>
		<path class="st144" d="M253.83,596.94l-0.32-0.01c0,0-0.31,0.04-0.31,0.04c0.49-2.48,0.67-5.09,2.75-6.94
			C256.21,592.63,255.04,594.8,253.83,596.94z"/>
		<path class="st145" d="M274.18,534.01c0.16-1.84,0.49-3.62,1.82-5.04c0.32-0.5,0.64-0.47,0.95,0.01c-1.3,1.77-0.33,4.27-1.95,5.93
			C274.58,534.75,274.3,534.45,274.18,534.01z"/>
		<path class="st137" d="M170.05,632.99c1.42,1.36,1.15,3.18,1.93,5.37c-2.98-2.31-2.98-2.31-1.83-5.47L170.05,632.99z"/>
		<path class="st146" d="M199.09,451.89c-0.02,0.39-0.04,0.78-0.05,1.17c-1.79,0.16-3.31-0.66-4.87-1.34
			c-0.12-0.9,0.11-1.33,1.07-0.81C196.62,450.85,197.93,451.09,199.09,451.89z"/>
		<path class="st147" d="M76.96,560.96c-0.38,1.42-0.48,2.95-1.57,4.1c-0.46,0.53-0.88,0.5-1.28-0.08c0.16-1.94,0.78-3.73,1.72-5.42
			C76.54,559.77,76.6,560.49,76.96,560.96z"/>
		<path class="st148" d="M244.04,463.03c-0.01,0.37-0.02,0.74-0.04,1.12c-1.73-0.04-3.44-0.19-4.96-1.16
			c-0.32-0.18-0.43-0.36-0.32-0.54c0.11-0.18,0.22-0.27,0.32-0.27C240.83,461.75,242.47,462.2,244.04,463.03z"/>
		<path class="st125" d="M167.92,630.15c0.31-0.69,0.61-1.39,0.92-2.08c0.4,1.64,0.8,3.28,1.21,4.91c0,0,0.1-0.1,0.1-0.1
			C168.01,633.11,168.09,631.54,167.92,630.15z"/>
		<path class="st149" d="M258.89,468.15c0.38-0.37,0.76-0.75,1.14-1.12c1.53,0.28,3.08,0.5,4.14,1.84
			C262.22,470.07,260.53,469.26,258.89,468.15z"/>
		<path class="st150" d="M167.16,622.8c-0.3,0.69-0.61,1.38-0.91,2.07c-0.42-1.64-0.83-3.27-1.25-4.91
			c0.37-0.55,0.76-0.56,1.17-0.04C166.96,620.73,167.16,621.73,167.16,622.8z"/>
		<path class="st151" d="M155.94,277.9c0.69,0.34,1.38,0.68,2.07,1.02c-2.76,0.29-5.63,1.54-8.1-0.87
			C151.92,278,153.93,277.95,155.94,277.9z"/>
		<path class="st152" d="M141.98,541.11c0.3-0.68,0.59-1.36,0.89-2.04c0.4,1.64,0.8,3.27,1.2,4.91c-0.36,0.01-0.72,0.01-1.09,0.02
			C142.15,543.22,141.98,542.2,141.98,541.11z"/>
		<path class="st125" d="M141.2,533.8c-0.3,0.69-0.61,1.38-0.91,2.07c-0.04-1.82-2.34-3.55-0.21-5.45
			C140.45,531.55,140.82,532.67,141.2,533.8z"/>
		<path class="st153" d="M86.31,527.08c0.28,0.68,0.56,1.35,0.85,2.03c-0.01,1.14-0.37,2.11-1.24,2.88
			c-0.26,0.31-0.53,0.3-0.79,0.01C84.75,530.17,85.84,528.7,86.31,527.08z"/>
		<path class="st133" d="M51.93,633.92c0.4,0.02,0.8,0.03,1.2,0.05c-0.08,1.49-0.38,2.89-1.81,4.27
			C50.36,636.45,50.97,635.16,51.93,633.92z"/>
		<path class="st29" d="M85.12,531.99c0.27,0.01,0.53,0.01,0.79-0.01c0.37,1.5-0.36,2.73-0.98,3.99c-0.41,0.31-0.8,0.26-1.16-0.09
			C83.89,534.48,83.87,533.01,85.12,531.99z"/>
		<path class="st99" d="M274.18,534.01c0.28,0.3,0.55,0.6,0.83,0.9c0.13,1.16-0.12,2.2-0.88,3.1c-0.42-0.02-0.83-0.04-1.25-0.06
			C272.92,536.51,273.36,535.2,274.18,534.01z"/>
		<path class="st154" d="M166.96,250.13c0.55-1.97-0.73-4.24,0.97-6.03c0.1,1.89,0.21,3.78,0.31,5.66c-0.35,0.39-0.7,0.78-1.05,1.17
			C167.08,250.67,167,250.41,166.96,250.13z"/>
		<path class="st155" d="M248.11,610.01c0.39,0.44,0.77,0.89,1.16,1.33c-0.41,1.21-0.81,2.42-1.22,3.63
			c-0.36-0.37-0.72-0.75-1.08-1.12C247.34,612.56,247.73,611.29,248.11,610.01z"/>
		<path class="st156" d="M60.75,608.89c0,0-0.18,0.11-0.18,0.11c-1.03-1.54,0.3-2.7,0.65-4.02c0.88-0.11,1.47,0.02,0.93,1.11
			C62.02,607.2,62.25,608.48,60.75,608.89z"/>
		<path class="st153" d="M62.14,606.1c-0.31-0.37-0.62-0.74-0.93-1.11c0.32-1.01,0.65-2.01,0.97-3.02c0.29-0.32,0.58-0.33,0.88,0
			C63.01,603.4,63.27,604.9,62.14,606.1z"/>
		<path class="st157" d="M64.23,595.04c0.31,0.69,0.63,1.38,0.94,2.07c-0.02,0.83-0.24,1.53-1.1,1.86c-0.3,0.48-0.6,0.49-0.91,0.01
			C63.51,597.66,63.87,596.35,64.23,595.04z"/>
		<path class="st29" d="M195.24,450.92c-0.36,0.27-0.72,0.54-1.07,0.81c-1.13,0.12-2.3,0.41-3.18-0.68c0.35-0.33,0.7-0.66,1.05-1
			C193.2,450,194.3,450.17,195.24,450.92z"/>
		<path class="st158" d="M66.95,591.92c-0.32-0.71-0.64-1.41-0.96-2.12c-0.07-1.49,0.74-2.2,2.14-2.38
			C67.73,588.92,67.34,590.42,66.95,591.92z"/>
		<path class="st159" d="M239.04,462.17c0,0.27,0,0.54,0,0.81c-1.91,0.1-3.66-0.23-4.92-1.86
			C236.03,460.21,237.33,462.18,239.04,462.17z"/>
		<path class="st96" d="M74.12,564.98c0.43,0.03,0.85,0.05,1.28,0.08c-0.23,1.48-0.17,3.09-1.81,3.92c0,0,0.07,0.07,0.07,0.07
			C72.3,567.53,73.68,566.31,74.12,564.98z"/>
		<path class="st160" d="M76.96,560.96c-0.37-0.46-0.75-0.93-1.12-1.39c0.04-1.57,0.43-2.88,2.28-3.14
			C77.73,557.94,77.35,559.45,76.96,560.96z"/>
		<path class="st145" d="M267.15,554.09c0.32,0.67,0.64,1.34,0.96,2.01c-0.36,0.96-0.73,1.91-1.09,2.87
			c-0.38,0.41-0.74,0.4-1.1-0.03C266.32,557.33,266.74,555.71,267.15,554.09z"/>
		<path class="st161" d="M276.96,528.98c-0.32,0-0.63,0-0.95-0.01c-0.25-1.48,0.31-2.75,1.07-3.96c0.29,0.02,0.59,0.02,0.88-0.01
			C278.24,526.48,277.68,527.75,276.96,528.98z"/>
		<path class="st162" d="M166.18,619.92c-0.39,0.01-0.78,0.03-1.17,0.04c-0.38-0.95-1.61-2.46-0.27-2.77
			C166.59,616.77,166.01,618.8,166.18,619.92z"/>
		<path class="st153" d="M63.16,598.97c0.3,0,0.61,0,0.91-0.01c-0.09,1.08,0.35,2.34-1.01,3c-0.29,0-0.59,0-0.88,0
			C62.51,600.97,62.83,599.97,63.16,598.97z"/>
		<path class="st163" d="M265.91,558.95c0.37,0.01,0.73,0.02,1.1,0.03c-0.36,1.32-0.73,2.63-1.09,3.95c-0.33-0.68-0.67-1.36-1-2.03
			C265.25,560.25,265.58,559.6,265.91,558.95z"/>
		<path class="st96" d="M83.77,535.89c0.39,0.03,0.77,0.06,1.16,0.09c-0.33,0.98-0.67,1.97-1,2.95c-0.32-0.36-0.64-0.72-0.96-1.09
			C83.24,537.19,83.51,536.54,83.77,535.89z"/>
		<path class="st164" d="M25.09,791.93c0,15-0.31,30,0.12,44.99c0.24,8.55,1.07,17.11,5.72,24.87c5.5,9.18,14.17,12.54,23.96,14.1
			c9.9,1.57,19.9,1.02,29.86,1.02c249.44,0.01,498.88,0.03,748.32-0.08c9.91,0,19.84-0.97,28.51-6.97
			c7.75-5.36,10.88-13.23,12.24-21.9c1.81-11.54,1.08-23.22,1.08-34.85c0.01-248.77,0.02-497.55-0.06-746.32
			c0-6.58-0.34-13.25-2.73-19.58c-0.48-1.28-0.81-2.54-2.2-3.12c0-2,0-4,0-6c2.04-0.32,3.22,0.95,3.85,2.51
			c1.68,4.16,3.23,8.43,3.97,12.82c1.15,6.84,0.66,13.82,0.66,20.75c0,253.23,0,506.46,0.01,759.69c0,7.26-0.44,14.35-2.55,21.45
			c-3.65,12.3-11.07,20.17-23.7,22.88c-2.42,1.07-5.06-0.19-7.51,0.7c-0.24,0.01-0.49,0.02-0.73,0.02
			c-260.49,0-520.99,0.04-781.48-0.14c-10.59-0.01-21.44-1.93-29.18-10.37c-5.37-5.85-7.36-13-8.73-21.2
			c-1.84-10.99-0.7-21.77-1.37-32.6c-0.36-5.81-0.07-11.65-0.06-17.48C23.1,795.13,22.74,793.01,25.09,791.93z"/>
		<path class="st165" d="M849.92,877.91c2.61-2.66,6.46-1.84,9.59-3.56c7.29-4.01,11.48-9.94,14.43-17.51
			c2.77-7.12,3.02-14.31,3.01-21.73c-0.07-55.48-0.04-110.96-0.04-166.45c0-199.94-0.04-399.87,0.12-599.81
			c0.01-9.35-0.86-18.29-4.08-27.05c-0.63-1.71-1.51-2.89-3.03-3.72c0-1.67,0-3.33,0-5c7.28,5.08,7.32,13.35,8.92,20.82
			c1.79,8.35,1.05,16.88,1.05,25.34c0.02,252.65,0.01,505.29,0.03,757.94c0,7.69-0.96,15.46-3.69,22.41
			c-3.81,9.67-10.78,16.85-21.65,19.5c-3.89,0.95-7.62,2.13-11.66,1.81c0.33-0.67,0.67-1.33,1-2
			C845.67,877.11,848.05,879.04,849.92,877.91z"/>
		<path class="st89" d="M869.92,47.09c1.28,2.86,2.92,5.64,1.99,9c-0.66-0.33-1.33-0.67-1.99-1
			C869.92,52.42,869.92,49.75,869.92,47.09z"/>
		<path class="st9" d="M298.02,306.05c3.49,6.93,7.34,13.74,5.05,22.04c-0.95,3.44-2.91,6.26-4.79,9.16
			c-0.98,1.51-2.3,2.85-2.32,4.82c-5.55-0.61-10.65-2.42-15.21-5.7c0.19-1.14,0.27-2.23-0.16-3.4c-4.77-12.93,2.79-22.35,9.2-32.1
			c3.17,0.3,2.17,2.76,2.08,4.45c-0.15,2.74-1.15,5.38-1.41,8.3c1.08-2.43,2.08-4.7,3.46-6.74
			C294.91,305.42,296.1,303.57,298.02,306.05z"/>
		<path class="st90" d="M281.12,335.96c4.95,2.04,9.9,4.07,14.85,6.11c5.36,1.81,5.36,1.81,1.16,8.03
			c-1.61,0.84-1.92,2.59-2.56,4.01c-1.12,2.5-2.89,3.28-5.43,2.81c-2.4-0.17-4.29-1.44-6.08-2.88c-1.34-0.34-2.68-0.67-4.02-1.01
			c-1.93-1.91-4.6-2.57-6.81-3.99c-1.27-0.81-3.42-0.74-3.36-3.04c0.4-0.62,0.81-1.25,1.21-1.87c0.3-0.02,0.57-0.11,0.82-0.28
			c3.13-2.89,3.53-8.61,9.19-8.88C280.93,334.78,281.29,335.09,281.12,335.96z"/>
		<path class="st166" d="M298.02,306.05c-2.37-1.59-2.74,0.54-3.47,1.9c-1.53,2.84-3.01,5.7-5.04,9.56
			c-1.1-4.83,0.61-8.03,1.06-11.36c0.24-1.75,1.29-3.53-0.47-5.07c-1,0.4-1.15-0.12-1.03-0.94c2.26-0.29,3.99,0.21,3.97,2.94
			c-0.01,1.68,0.84,1.38,1.83,0.93C296.36,304.02,297.93,303.89,298.02,306.05z"/>
		<path class="st167" d="M283.05,354.03c2.33,0.33,4.28,1.45,6.08,2.88c-0.04,0.42-0.08,0.85-0.12,1.27
			C286.81,357.12,283.66,357.39,283.05,354.03z"/>
		<path class="st11" d="M849.92,872.91c-10.74,1.8-21.56,0.96-32.34,0.96c-252.16,0.05-504.33,0.04-756.49,0.04
			c-0.38-0.95-1.05-1.62-2-2c2.54-1.3,5.09,0.09,7.63,0.09c255.44-0.09,510.88-0.08,766.31-0.16c5.01,0,10.21,0.69,15.06-1.49
			c1.07-0.48,1.91,0.23,2.83,0.57c0.07,0.2,0.14,0.4,0.22,0.6C850.96,872.18,850.4,872.51,849.92,872.91z"/>
		<path class="st11" d="M859.92,867.91c-1.67,1-3.33,2-5,3c-1.33,0.42-2.67,1.18-4,0c0.04-1.9,1.6-2.47,2.93-2.92
			c5.9-1.98,9.4-6.31,11.92-11.7c0.67-1.42,1.01-3.26,3.14-3.38c1.23,1.33,0.04,2.67,0,4c-0.33,0.67-0.67,1.33-1,2
			C865.71,862.32,863.39,865.63,859.92,867.91z"/>
		<path class="st89" d="M871.91,60.08c2.58,2.15,1.99,5.11,1.99,7.89c0.01,105.77,0.01,211.54,0.01,317.32
			c0,149.58,0,299.16-0.01,448.74c0,2.78,0.59,5.74-1.99,7.89C871.91,581.31,871.91,320.69,871.91,60.08z"/>
		<path class="st89" d="M868.91,856.92c-0.97-1.33-0.04-2.67,0-4c2.23-1.8-0.45-5.72,3-7C872.56,850.03,871.22,853.61,868.91,856.92
			z"/>
		<path class="st1" d="M801.45,626.46c-2.32-3.29-2.62-7.04-3.81-10.44c-2.89-8.21-8.02-14.42-15.34-18.96
			c-1.32-0.82-3.7-1.76-0.8-3.36c11.15-6.14,15.86-16.48,18.75-28.09c0.15-0.61,0.57-1.16,0.91-1.84c1.69,0.87,1.52,2.46,1.87,3.79
			c2.77,10.6,7.43,19.89,17.47,25.54c1.24,0.7,3.62,1.59,0.71,3.35c-10.68,6.46-16.15,16.36-18.71,28.2
			C802.36,625.23,801.88,625.73,801.45,626.46z"/>
		<path class="st168" d="M773.55,563.43c-0.33-0.24-0.54-0.31-0.58-0.44c-1.33-4-6.53-6.65-6.35-10.04
			c0.17-3.4,5.19-5.99,6.52-10.86c2.36,4.04,4.28,7.57,7.48,10.09c0.7,0.55,1.03,1.28,0,1.98
			C777.24,556.44,775.66,560.15,773.55,563.43z"/>
		<path class="st26" d="M335.01,414.95c1.18,1.03,0.87,2.44,0.88,3.73c0.02,7.65-0.17,15.3,0.09,22.95c0.12,3.64-1.26,4.4-4.61,4.4
			c-45.23-0.09-90.46-0.09-135.69,0c-3.36,0.01-4.72-0.78-4.6-4.4c0.25-7.64,0.07-15.3,0.09-22.95c0-1.29-0.31-2.7,0.85-3.74
			c1.79-1.67,4.04-1.33,6.16-1.31c13.95,0.16,27.9-0.48,41.84,0.38c3.82,0.24,7.64-0.52,11.44-0.36c27.2,1.17,54.42,0.82,81.64,0.88
			C333.77,414.52,334.41,414.63,335.01,414.95z"/>
		<path class="st9" d="M419.02,414.95c1.83,7.18,0.62,14.48,0.77,21.72c0.21,10.64,0.93,9.25-9.32,9.27
			c-24.11,0.05-48.23,0.03-72.34,0.04c-1.05-10.32-0.81-20.65-0.12-30.98l0.02-0.02c4.59-1.01,9.24-0.41,13.85-0.43
			c21.41-0.09,42.82-0.03,64.23-0.03C417.09,414.53,418.11,414.39,419.02,414.95z"/>
		<path class="st2" d="M247.11,412.83c8.89-2.61,14.04-9.42,18.86-16.67c3.66-5.51,7.55-10.87,11.16-16.41
			c1.67-2.56,3.45-3.85,6.78-3.73c8.28,0.3,16.57,0.08,24.86,0.07c0.44,0.97,0.89,1.94,1.33,2.91c2.01,1.45,1.98,3.84,2.75,5.87
			c0.73,2.26,1.27,4.58,1.93,6.86c0.34,1.14,0.69,2.28,1.05,3.42c0.21,0.71,0.33,1.43,0.39,2.17c0.09,1.52,0.1,3.03-0.03,4.55
			c-0.35,2.45-1.33,4.63-2.86,6.58c-0.41,0.41-0.87,0.75-1.38,1.04c-2.19,1.35-4.58,1.91-7.13,1.89
			c-10.92-0.1-21.84,0.35-32.75-0.35c-1.08,0.25-0.77,1.25-1.06,1.94C263.04,414.52,255.07,414.89,247.11,412.83z"/>
		<path class="st9" d="M355.21,387.01c-0.48,1.8,0.65,3.31,0.9,4.97c0.66,2.67,1.32,5.34,1.99,8.01c0.58,4.39-1.15,7.92-4.07,11.02
			c-2.05,1.13-4.11,2.05-6.57,2.03c-13.47-0.11-26.93-0.12-40.4-0.17c-0.22-0.25-0.3-0.51-0.25-0.78c0.06-0.27,0.12-0.41,0.18-0.41
			c0.32-0.31,0.69-0.54,1.11-0.69c1.69-0.93,3.68-1.41,4.84-3.16l-0.1,0.11c1.94-1.72,3.07-3.84,3.18-6.47
			c-0.03-2.12,0.21-4.26-0.5-6.33c-0.44-1.62-0.9-3.23-1.44-4.82c-0.34-2.38-1.28-4.59-2.01-6.85c-0.55-1.81-0.84-3.67-0.95-5.56
			c0.04-1.88,1.33-1.99,2.76-1.99c11.64,0.01,23.29,0.02,34.93-0.01c1.62,0,3.01,0.19,3.4,2.1c0.64,1.31,0.41,2.98,1.67,4.03
			C353.89,383.81,354.03,385.55,355.21,387.01z"/>
		<path class="st169" d="M247.11,412.83c7.97,0.04,15.94,0.09,23.91,0.13c1.44,1.69,3.39,1.01,5.13,1.01
			c17.89,0.05,35.79,0.01,53.68,0.06c1.75,0,3.68-0.64,5.18,0.91c-47.66-0.01-95.33-0.01-142.99-0.02
			c-0.38-0.72-1.01-0.86-1.75-0.75c-0.07-0.32-0.14-0.63-0.21-0.95c0.98-1.36,2.47-1.7,3.95-1.67c14.65,0.27,29.36-1.44,43.94,1.29
			C241,412.84,244.05,412.84,247.11,412.83z"/>
		<path class="st170" d="M419.02,414.95c-27,0.01-54,0.02-81,0.03c3.65-2.03,7.6-0.68,11.4-0.91c2.18-0.13,4.19-0.13,5.6-2.07
			c-0.18,0.32-0.18,0.63,0.01,0.94c1.43,1.73,3.4,1.02,5.13,1.02c19.62,0.05,39.23,0.04,58.85,0.05
			C419.01,414.33,419.01,414.64,419.02,414.95z"/>
		<path class="st171" d="M312.95,407.83c-0.19,3.18-3.1,3.02-5.01,4.08c-9.89,0.17-19.78,0.08-29.68,0.09c-1.8,0-3.65,0.23-5.34-0.7
			c-0.3-0.05-0.58-0.14-0.85-0.27c8.32-1.36,16.7-0.4,25.05-0.53C302.58,410.41,307.96,410.45,312.95,407.83z"/>
		<path class="st29" d="M190.06,450.97c-1.12,0.02-2.27,0.14-3-1c-0.34-0.55-0.43-1.13-0.29-1.76c1.59-9.31,0.31-18.71,0.81-28.05
			c0.12-2.26-0.72-5.07,2.43-6.2c0,0,0.25,0.21,0.25,0.21C190.2,426.45,190.13,438.71,190.06,450.97z"/>
		<path class="st74" d="M272.93,411.3c10.93-0.08,21.86-0.18,32.79-0.2c0.74,0,1.48,0.53,2.22,0.82c-0.28,0.1-0.58,0.18-0.87,0.23
			c-11.32,0.55-22.65,0.65-33.97-0.05C273.07,411.82,273.01,411.56,272.93,411.3z"/>
		<path class="st172" d="M273.1,412.09c11.32,0.01,22.64,0.03,33.97,0.05c-0.02,0.24-0.02,0.49-0.01,0.73
			c-10.27,0.05-20.53,0.1-30.8,0.13C275.15,413,273.91,413.25,273.1,412.09z"/>
		<path class="st29" d="M338,415c0.04,10.33,0.08,20.65,0.12,30.98c-1.19-0.73-1.1-1.92-1.11-3.07c0-8.42,0-16.83,0-25.25
			C337.02,416.65,337.1,415.68,338,415z"/>
		<path class="st27" d="M759.33,614.76c4.45,3.9,5.7,7.7,0.28,11.42C754.97,621.42,754.97,621.42,759.33,614.76z"/>
		<path class="st1" d="M654.93,441.91c-2.27,0.25-4.54,0.5-6.81,0.75c-0.06-15.9-0.12-31.8-0.19-47.7c2.77-0.39,5.4,0.28,8.04,0.97
			C669.03,406.24,668.41,433.17,654.93,441.91z"/>
		<path class="st173" d="M560.19,412.27c2.2-1.37,4.42-1.74,6.67-0.1c0.54,1.02,1.26,1.99,1.57,3.07c0.96,3.3,3.1,7.55,0.93,9.87
			c-2.28,2.43-6.87,0.66-10.45,0.82c-1.95,0.08-1.9-1.45-1.74-2.8C557.6,419.36,558.14,415.6,560.19,412.27z"/>
		<path class="st168" d="M601.9,442.88c-3.65,1.25-6.32-0.46-8.75-2.9c-2.55-8.46-0.96-17.07-0.94-25.63
			c2.76-2.81,5.84-4.27,9.73-2.3C608,420.19,607.98,434.92,601.9,442.88z"/>
		<path class="st173" d="M697.52,425.82c-4.19,0.08-8.38,0.15-12.57,0.23c-0.98-5.15,0.31-9.83,2.96-14.22
			c3.97-2.24,6.3-0.33,7.81,3.23C697.17,418.47,697.23,422.17,697.52,425.82z"/>
		<path class="st173" d="M563.94,338.94c2.03-1.16,3.99-0.75,5.93,0.26c2.63,4.24,3.45,8.88,3.1,13.79
			c-4.28-0.08-8.56-0.17-12.84-0.25C560.47,347.89,560.68,343,563.94,338.94z"/>
		<path class="st173" d="M706.12,339.3c1.88-1.08,3.82-1.56,5.88-0.49c3.32,4.12,3.66,9.07,3.88,14.05
			c-4.3,0.02-8.59,0.04-12.89,0.06C702.78,348.1,703.48,343.48,706.12,339.3z"/>
		<path class="st174" d="M311.13,377.9c0.61,1.71,1.23,3.42,1.84,5.13c-0.71,0.56-0.13,1.74-1.05,2.21
			c-1.07-1.95-1.63-4.04-1.83-6.24C310.44,378.64,310.79,378.27,311.13,377.9z"/>
		<path class="st168" d="M774.87,431.88c-2.29,1.14-4.59,1.45-6.92,0.1c-4.29-6.48-4.29-13.72,0-19.96
			c2.32-1.25,4.62-1.27,6.91,0.09C779.28,418.69,779.01,425.28,774.87,431.88z"/>
		<path class="st2" d="M190.02,413.97c-1.23,10.21-0.2,20.47-0.56,30.69c-0.06,1.83,0.77,4.23-2.4,4.4
			c-2.94,0.75-5.35-1.26-8.09-1.58c-6.21-1.65-12.46-3.17-18.63-4.98c-0.76-1.14-2.51-0.53-3.18-1.81
			c2.03-12.9,4.04-25.81,6.1-38.71c2.24-14.05,4.64-28.07,6.74-42.14c0.52-3.48,1.45-4.17,4.11-1.81c1.74,1.54,3.48,3.08,5.13,4.72
			c15.11,14.96,30.91,29.17,46.57,43.54c3.52,3.23,7.95,4.63,12.14,6.53c-14.29,0.06-28.58,0.09-42.87,0.24
			C193.4,413.11,191.42,412.13,190.02,413.97z"/>
		<path class="st111" d="M157.38,340.5c4.02,5.07,8.04,10.13,12.07,15.2c0.17-0.13,0.34-0.26,0.51-0.39
			c-4.61-4.48-9.22-8.95-13.82-13.43C156.56,341.42,156.97,340.96,157.38,340.5z"/>
		<path class="st175" d="M268.86,345.99c2.14,2.06,5.04,2.74,7.53,4.16c1.18,0.67,2.95,0.83,2.64,2.88
			c-4.37-0.76-7.78-3.83-11.99-4.97C267.26,347.01,267.94,346.39,268.86,345.99z"/>
		<path class="st176" d="M157.15,440.71c1.01,0.41,2.03,0.82,3.04,1.23c-0.2,0.02-0.4,0.03-0.59,0.05
			c-4.38,1.15-8.4,0.89-11.51-2.94C151.11,439.6,154.13,440.16,157.15,440.71z"/>
		<path class="st177" d="M113.29,284.94c-0.36-1.63,0.42-2.14,1.85-1.68c2.44,0.78,4.84,1.68,7.26,2.54
			c-0.15,0.76-0.63,1.17-1.37,1.32C118.45,286.39,115.87,285.67,113.29,284.94z"/>
		<path class="st178" d="M133.07,289.04c-0.01,0.31-0.01,0.63,0.02,0.94c-2.52-0.01-4.84-0.74-7.01-1.99
			c-0.25-0.2-0.34-0.4-0.26-0.6c0.08-0.2,0.16-0.31,0.24-0.31C128.56,287.13,130.93,287.68,133.07,289.04z"/>
		<path class="st111" d="M126.06,287.08c0.02,0.3,0.02,0.61,0.01,0.91c-1.69-0.25-3.55,0.53-5.04-0.87
			c0.46-0.44,0.91-0.88,1.37-1.32C123.72,285.93,125.13,285.84,126.06,287.08z"/>
		<path class="st179" d="M224,562.96c-1.93,7.59-3.76,15.22-5.88,22.76c-0.49,1.74-0.96,3.43-1.12,5.22
			c-1.55,0.18-1.71-1.03-2.05-2.06c1.13-9.32,3.42-18.34,7.19-26.97C223.15,561.58,223.64,562.15,224,562.96z"/>
		<path class="st180" d="M212.06,510.01c0.87-0.28,0.75-1.05,0.85-1.71c-0.45-0.5-0.41-0.96,0.12-1.37
			c6.57-0.02,13.16,0.22,19.71-0.15c4.54-0.26,6.08,1,4.33,5.41c-0.48,1.21-0.76,2.51-1.13,3.77c-0.99,0.13-1.41-0.5-1.75-1.26
			c0.22-4.28-1.81-5.92-6.01-5.37c-1.8,0.24-3.65,0.08-5.48,0.03c-3.4-0.1-6.72-0.23-8.13,3.95c-0.42,1.24-1.7,1.48-2.9,0.6
			C210.95,512.52,210.93,511.21,212.06,510.01z"/>
		<path class="st181" d="M233.99,523.96c-2,7.99-4.01,15.98-6.01,23.97c-1.54,0.16-1.69-1.03-2.03-2.06
			c0.82-7.98,2.68-15.69,6.18-22.96C233.17,522.54,233.58,523.26,233.99,523.96z"/>
		<path class="st182" d="M159.6,441.99c0.2,0.01,0.4,0,0.59-0.05c6.45,1.24,12.83,2.73,19.01,4.99c-0.45,0.85-1.56,0.32-2.1,0.99
			c-5.11-1.3-10.22-2.59-15.33-3.89C160.69,443.76,159.38,443.69,159.6,441.99z"/>
		<path class="st183" d="M213.04,506.93c-0.04,0.46-0.08,0.91-0.12,1.37c-6.95-0.12-13.91-0.24-20.86-0.36c0-0.32,0-0.64,0.01-0.97
			C199.05,506.95,206.04,506.94,213.04,506.93z"/>
		<path class="st184" d="M226.89,545.76c0.14,0.84,0.24,1.7,1.09,2.18c-0.89,3.42-1.24,6.99-2.81,10.22
			c-1.05-0.52-1.53-1.44-1.8-2.52C223.8,552.09,223.35,548.21,226.89,545.76z"/>
		<path class="st120" d="M216.21,608.85c-1.89-0.5-2.81,3.94-5.18,1.02c-1.81-2.61-1.27-4.93,0.89-7.04c1.84,0,1.75,1.03,1.23,2.29
			C212.43,607.79,215,607.76,216.21,608.85z"/>
		<path class="st28" d="M177.11,447.92c0.7-0.33,1.4-0.66,2.1-0.99c2.86-0.2,5.2,1.57,7.85,2.13c0,0.3,0,0.61,0.01,0.91
			C183.57,450.16,180.42,448.65,177.11,447.92z"/>
		<path class="st185" d="M213.14,605.12c-0.11-0.83-0.21-1.66-1.03-2.14c-1.13-2.78-0.97-5.12,2.22-6.4
			c0.23,0.13,0.47,0.26,0.7,0.38C215.15,599.86,214.48,602.56,213.14,605.12z"/>
		<path class="st186" d="M233.99,523.96c-0.35-0.39-0.7-0.77-1.05-1.16c-1.5-3.21-1.23-5.97,2.03-7.97
			c0.33,0.37,0.65,0.74,0.98,1.11C235.3,518.62,234.65,521.29,233.99,523.96z"/>
		<path class="st187" d="M215.9,588.78c0.13,0.84,0.24,1.69,1.1,2.17c-0.6,2.03-0.43,4.3-1.97,6.02c0,0,0.05,0.03,0.05,0.03
			C212.4,593.7,212.57,592.01,215.9,588.78z"/>
		<path class="st186" d="M224.09,555.99c0.87,0.47,0.93,1.34,1.08,2.16c-0.06,1.68-0.3,3.32-1.17,4.8
			c-0.34-0.37-0.68-0.75-1.02-1.12C221.34,559.51,222.06,557.62,224.09,555.99z"/>
		<path class="st89" d="M859.92,867.91c2.73-2.95,4.76-6.51,8-9C866.83,863.32,864.11,866.27,859.92,867.91z"/>
		<path class="st89" d="M850.92,870.91c1.33-0.04,2.67-0.97,4,0c-1,2.33-3.07,1.98-5,2C850.25,872.25,850.58,871.58,850.92,870.91z"
			/>
		<path class="st188" d="M133.81,512.22c0.01,0.64,0.01,1.29,0.02,1.93c-3.32-2.7-7.14-0.99-10.74-1.22
			c-7.54,1.35-7.54,1.35-7.54,9.62c0,29.44,0,58.88,0,88.32c0.04,0.66-0.09,1.28-0.42,1.85c0.06,0.19,0.03,0.36-0.08,0.53
			c-1.6-1.69-0.92-3.79-0.92-5.7c-0.08-31.53-0.11-63.06-0.15-94.59C120.52,510.89,127.17,511.76,133.81,512.22z"/>
		<path class="st189" d="M111.94,512.05c-6.29-0.01-12.58-0.03-18.87-0.04c6.22-2.18,12.6-0.69,18.91-0.79
			c0.06,0,0.18,0.26,0.17,0.38C112.14,511.76,112.02,511.91,111.94,512.05z"/>
		<path class="st190" d="M289.07,300.14c0.34,0.31,0.69,0.63,1.03,0.94c-4.07,7.8-10.16,14.74-10.08,24.29
			c0.03,2.89,0.76,5.52,1.82,8.14c0.39,0.95,1.43,2.22-0.74,2.45c-0.34-0.33-0.68-0.66-1.03-1
			C274.45,321.13,281.95,310.68,289.07,300.14z"/>
		<path class="st191" d="M115.31,611.96c-0.08-21.96-0.17-43.92-0.23-65.88c-0.03-8.49,0-16.97,0-25.46c0-7.93,0-7.93,8.02-7.68
			c-8.06,0.08-7.11,5.64-7.08,11.11c0.12,29.3,0.05,58.6,0.05,87.9C115.82,612.37,115.57,612.36,115.31,611.96z"/>
		<path class="st2" d="M115.31,611.96c0.25,0,0.5,0,0.75-0.02c12.62,0.01,25.26-0.29,37.87,0.17c5.31,0.19,7.58-0.96,6.24-6.44
			c1.24,0.86,0.27,3.72,2.96,3.26c-0.64,3.18-2.37,4.13-5.75,4.06c-14.07-0.31-28.16-0.22-42.24-0.28
			C115.17,612.46,115.22,612.21,115.31,611.96z"/>
		<path class="st192" d="M159.49,260.82c2.06,1.03,3.86,2.46,6.07,3.21C161.94,264.84,161.94,264.84,159.49,260.82z"/>
		<path class="st193" d="M162.12,236.14c0.86,1.53,3.18,0.23,3.92,2.02c-2.18-0.9-4.06,0.87-6.19,0.82
			C159.68,237.15,160.93,236.67,162.12,236.14z"/>
		<path class="st9" d="M224.09,555.99c-0.37,1.95-0.74,3.9-1.12,5.85c-2.87,8.84-5.34,17.79-7.07,26.93
			c-1.02,2.66-2.68,5.27-0.82,8.22c-3.33,0.83-1.95,4.01-2.97,5.99c-0.64,2.25-1.37,4.49-1.08,6.89c-2.98-0.99-5.95-1.98-8.93-2.96
			c-2.53-0.67-5.23-0.78-7.54-2.21c-0.94-0.64-1.04-1.57-0.88-2.59c0.65-1.62,0.15-3.36,0.55-5.01c0.43-1.37,0.59-2.79,0.84-4.19
			c0.42-1.61,0.78-3.24,1.16-4.87c0.46-1.37,0.59-2.8,0.85-4.21c0.45-1.63,0.77-3.29,1.15-4.94c1.05-4.21,2.46-8.35,2.24-12.78
			c0.01-0.5,0.09-0.97,0.26-1.44c1.7-3.78,2.32-7.85,3.12-11.87c0.42-1.92,0.94-3.83,1.16-5.79c0.46-1.68,0.78-3.38,1.03-5.1
			c0.47-1.69,0.8-3.41,1.17-5.12c1.38-7.15,3.69-14.12,4.31-21.42c0.02-0.53,0.21-0.99,0.56-1.39c0.46-0.16,1.32-0.29,1.34-0.47
			c0.34-6.03,4.54-5.66,8.77-5.47c2.98,0.14,5.98,0.21,8.94-0.02c3.86-0.3,5.81,0.6,3.98,4.85c-0.24,0.57-0.09,1.31-0.12,1.97
			c-1.32,2.49-1.9,5.17-2.03,7.97c-2.49,7.53-4.73,15.12-6.05,22.96C225.96,549.17,225.03,552.58,224.09,555.99z"/>
		<path class="st194" d="M194.95,604.09c2.38,0.95,5.04,1.19,7.15,2.82c-0.93,0.09-1.73,0.4-2.2,1.27
			c-2.24-1.09-4.48-2.17-6.73-3.26C193.63,604.37,194.33,604.33,194.95,604.09z"/>
		<path class="st195" d="M201.04,564.99c-0.32,0.18-0.39,0.44-0.2,0.75c0.42,4.17-1.48,7.98-1.89,12.02
			c-0.65,2.14-1.04,4.35-1.83,6.45c-0.13,1.2,0.02,2.45-0.57,3.57c-0.7,1.55-0.39,3.32-1.03,4.89c-0.6,1.34-0.31,2.87-0.92,4.2
			c-0.2,1-0.56,1.88-1.72,2.09c-1.16-1.26-0.78-2.82-0.79-4.27c-0.02-26.88,0.05-53.76-0.09-80.65c-0.02-3.79,0.85-5.63,4.95-5.07
			c5.01,0.69,10.2-1.19,15.11,1.04c0,1.32,0.01,2.65,0.01,3.97c-0.33,0.21-0.39,0.48-0.18,0.81c-0.25,7.44-3.1,14.38-4.2,21.66
			c-0.75,1.9-0.8,4-1.59,5.89c-0.03,1.52-0.17,3.03-0.57,4.51c-0.17,2.31-1.46,4.37-1.5,6.71
			C203.25,557.43,202.69,561.36,201.04,564.99z"/>
		<path class="st180" d="M192.87,598.96c0.42-0.66,0.84-1.33,1.25-1.99c0.33-0.33,0.66-0.33,0.98,0.01
			c-0.02,1.73,0.32,3.53-0.94,5.02c-0.37,0.47-0.72,0.44-1.06-0.03C193.03,600.97,192.95,599.96,192.87,598.96z"/>
		<path class="st151" d="M193.11,601.97c0.35,0.01,0.71,0.02,1.06,0.03c0.26,0.7,0.52,1.39,0.78,2.09
			c-0.59,0.28-1.19,0.56-1.78,0.84C191.72,603.97,192.95,602.96,193.11,601.97z"/>
		<path class="st88" d="M849.92,877.91c-1.75,1.81-4,0.67-6,1C845.42,875.56,847.84,877.75,849.92,877.91z"/>
		<path class="st105" d="M311.93,385.25c0.1-0.85,0.19-1.71,1.05-2.21c0.63,2.37,1.26,4.74,1.9,7.1c-0.58,0.55-0.05,1.6-0.92,2.01
			C312.74,390.01,312.19,387.67,311.93,385.25z"/>
		<path class="st196" d="M316.95,401.97c-0.65,2.48-0.68,5.38-4.1,5.96c0.76-1.97,1.53-3.94,2.29-5.9c0.21-0.32,0.5-0.52,0.88-0.58
			C316.4,401.5,316.71,401.68,316.95,401.97z"/>
		<path class="st197" d="M313.96,392.16c0.31-0.67,0.61-1.34,0.92-2.02c0.36,1.62,0.72,3.25,1.08,4.87c-0.33,0.58-0.69,0.6-1.1,0.07
			C313.61,394.4,314.07,393.19,313.96,392.16z"/>
		<path class="st198" d="M314.86,395.08c0.37-0.02,0.73-0.05,1.1-0.07c1.37,2.17,1.23,4.56,1,6.97c-0.31,0.02-0.62,0.03-0.93,0.03
			c-1.17-1.5,0.22-3.49-0.97-4.98C314.99,396.37,314.93,395.73,314.86,395.08z"/>
		<path class="st9" d="M315.06,397.02c1.61,1.41,0.79,3.3,0.97,4.98c-0.29,0.02-0.59,0.03-0.88,0.03
			C315.11,400.36,315.09,398.69,315.06,397.02z"/>
		<path class="st109" d="M206.77,536.86c1.71-7.35,3.42-14.71,5.12-22.06c0.64,0.78,1.31,1.6,1.05,2.66
			c-1.58,6.52-3.21,13.03-4.82,19.54C207.62,537.38,207.17,537.34,206.77,536.86z"/>
		<path class="st199" d="M198.11,577.99c0.39-4.2,1.35-8.26,2.73-12.24c2.31,4.8-0.54,8.96-1.68,13.33
			C198.54,578.98,198.46,578.35,198.11,577.99z"/>
		<path class="st200" d="M201.04,564.99c-0.25-4.18,2.01-7.91,2.18-12.02c0.58-0.59,1.16-0.58,1.75,0
			C203.74,557.01,204.73,561.77,201.04,564.99z"/>
		<path class="st201" d="M204.97,552.97c-0.58,0-1.16,0-1.75,0c-0.23-2.3,0.96-4.12,2.01-5.99c0.23,0,0.46,0,0.69,0
			C206.42,549.11,205.43,551,204.97,552.97z"/>
		<path class="st99" d="M206.77,536.86c0.45,0.04,0.9,0.09,1.35,0.14c0.11,1.76-0.13,3.45-1.06,4.98c-0.61,0.58-1.22,0.6-1.83,0
			C205.74,540.28,206.25,538.57,206.77,536.86z"/>
		<path class="st159" d="M198.11,577.99c0.35,0.36,0.7,0.72,1.05,1.09c0,1.72-0.2,3.39-1.13,4.9c-0.6,0.58-1.21,0.6-1.81,0
			C196.85,581.98,197.48,579.98,198.11,577.99z"/>
		<path class="st202" d="M205.22,541.98c0.61,0,1.22,0,1.83,0c0.18,1.79-0.1,3.48-1.13,5c0,0-0.35,0-0.35,0l-0.35,0
			C205.23,545.32,205.23,543.65,205.22,541.98z"/>
		<path class="st203" d="M194.73,592.86c0.81-1.57-0.44-3.57,1.05-4.99c0.46-0.39,0.89-0.35,1.29,0.11c0.21,1.77-0.09,3.44-0.98,5
			C195.59,593.35,195.14,593.31,194.73,592.86z"/>
		<path class="st204" d="M197.06,587.97c-0.43-0.04-0.86-0.07-1.29-0.11c0.15-1.3,0.3-2.6,0.45-3.89c0.6,0,1.21,0,1.81,0
			C198.04,585.39,198.36,586.88,197.06,587.97z"/>
		<path class="st205" d="M194.73,592.86c0.45,0.04,0.9,0.08,1.35,0.11c0.01,1.42,0.29,2.9-0.97,4.01c-0.33,0-0.66-0.01-0.98-0.01
			C194.12,595.57,193.48,594.08,194.73,592.86z"/>
	</g>
</g>
</svg>
