<?xml version="1.0" encoding="utf-8"?>
<!-- Generator: Adobe Illustrator 26.3.1, SVG Export Plug-In . SVG Version: 6.00 Build 0)  -->
<svg version="1.1" id="Layer_1" xmlns="http://www.w3.org/2000/svg" xmlns:xlink="http://www.w3.org/1999/xlink" x="0px" y="0px"
	 viewBox="0 0 145 116" style="enable-background:new 0 0 145 116;" xml:space="preserve">
<style type="text/css">
	.st0{fill:#FEFEFE;}
	.st1{fill:#EC6723;}
	.st2{fill:#F49733;}
	.st3{fill:#F9D9C6;}
	.st4{fill:#FCCD33;}
	.st5{fill:#FBBB39;}
	.st6{fill:#F49633;}
	.st7{fill:#F9F8F7;}
	.st8{fill:#F49532;}
	.st9{fill:#FBB938;}
	.st10{fill:#FCCD3E;}
</style>
<g>
	<g>
		<path class="st0" d="M0.09,64.99c0-20.64,0.05-41.29-0.07-61.93C0.01,0.56,0.59-0.01,3.09,0c23.97,0.11,47.95,0.07,71.92,0.07
			C72.68,6,70.5,11.95,69.02,18.2c-0.88,3.71-3.66,1.86-5.42,0.43c-2.83-2.29-5.41-4.89-8.89-6.26c-1.91-0.75-3.85-1.56-5.59,0.02
			c-1.59,1.45-1.51,3.4-1.35,5.51c0.41,5.19,3.65,9.61,3.77,14.84c-2.06,2.94-5.34,4.38-8.06,6.52c-5.23,4.1-10.21,8.45-14.05,13.95
			c-1.43,2.05-3.02,3.97-5.44,4.96c-6.12,2.07-12.07,4.6-18.25,6.46C3.92,65.16,2.07,66.42,0.09,64.99z"/>
		<path class="st1" d="M50.95,32.86c-1.31-4.92-3.68-9.52-4.41-14.62c-0.39-2.71-0.47-5.34,1.84-7.28c2.5-2.09,5.02-0.75,7.43,0.29
			c4.46,1.93,7.37,6.01,11.89,8.86c1.73-7.14,1.9-14.63,7.32-20.05c1.66,0,3.33,0,4.99,0c6.64,4.19,9,10.58,9.3,18.04
			c-1.53,1.48-3.1,1.8-4.73,0.15c-1.7-3.19-2.4-6.82-4.33-9.92c-0.77-1.24-1.29-2.94-3.09-2.78c-1.73,0.15-2.22,1.78-2.69,3.19
			c-1.51,4.55-2.14,9.28-2.68,14.03c-0.71,3.73,0,7.55-0.76,11.27c-0.1,8.25,0.59,16.45,1.44,24.64c0.6,5.28,4.31,8.88,7.27,12.74
			c8.66,11.27,5.55,9.84,17.8,4.94c13.79-5.51,26.66-12.66,37.23-23.39c2.35-2.39,4.33-4.97,5.91-7.94
			c0.71-1.33,1.02-3.74,3.65-2.72c0.18,1.49,0.06,2.98,0.09,4.47c0.25,6.08-1.83,11.37-5.36,16.22
			c-5.25,7.2-11.54,13.32-19.04,18.09c-3.86,2.45-5.19,5.25-3.08,9.56c1.66,3.38,1.48,7.14,1.23,10.79
			c-0.35,5.01-3.62,7.29-8.6,6.11c-3.83-0.9-6.9-3.22-9.95-5.53c-2-1.51-2.96-1.38-3.61,1.38c-1.12,4.77-1.74,9.99-7,12.52
			c-1.66,0-3.33,0-4.99,0c-4.75-1.24-6.61-5.12-8.23-9.14c-2.72-6.71-3.59-6.92-11.22-6.32c-8.72,0.68-17.41,0.14-25.63-3.43
			c-3.51-2.41-7.9-3.48-10.77-6.83c-1.1-1.29-3.44-2.41-1.5-4.75c4.92,0.44,9.64,1.93,14.62,2.42c8.28,0.81,16.19-0.71,24.24-1.74
			c3.66-0.47,4.76-2.36,4.11-5.82c-1.01-5.38-1.93-10.79-2.59-16.23c-3.26-7.27-8.09-13.64-11.84-20.63
			C53.77,39.95,51.42,36.78,50.95,32.86z"/>
		<path class="st0" d="M88.99,115.93c3.79-4.25,5.43-9.37,5.99-14.93c0.09-0.95-0.41-2.18,0.56-2.75c1.31-0.77,2.06,0.6,2.95,1.23
			c3.49,2.48,6.42,5.8,10.89,6.77c5.29,1.15,7.43-0.49,7.61-5.88c0.12-3.71-0.11-7.36-1.84-10.68c-2.17-4.15-0.74-6.54,3.03-8.89
			c7.39-4.59,13.67-10.54,19.02-17.44c3.74-4.83,6.13-10.23,6.92-16.31c0.24-0.49,0.51-0.54,0.82-0.06
			c0,21.97-0.05,43.95,0.07,65.92c0.01,2.5-0.56,3.08-3.06,3.06C124.29,115.87,106.64,115.93,88.99,115.93z"/>
		<path class="st0" d="M39.06,95.85c8.47,3.1,17.25,4.04,26.14,3.09c8.34-0.9,8.7-0.96,11.59,6.63c1.55,4.07,3.54,7.79,7.21,10.36
			c-26.87,0-53.74-0.04-80.61,0.07c-2.62,0.01-3.43-0.33-3.39-3.24c0.19-15.26,0.09-30.51,0.09-45.77c1.55-0.6,2.64,0.38,3.42,1.36
			c3.78,4.77,8.51,8.78,11.45,14.23c0.94,5.24,0.42,10.53,0.42,15.79c0,3.44,0.99,4.43,4.39,3.17c4.33-1.6,8.65-3.23,13.02-4.74
			C34.83,96.09,36.88,95.55,39.06,95.85z"/>
		<path class="st0" d="M88.67,18.08C87.78,11.11,84.46,5.31,80,0.07c20.64,0,41.29,0.05,61.93-0.07c2.5-0.01,3.1,0.56,3.06,3.06
			c-0.15,12.32-0.07,24.64-0.07,36.96c-0.4,0.34-0.82,0.34-1.26,0.07c-0.95-1.11-1.22-2.53-1.77-3.82
			c-0.94-2.48-2.54-4.49-4.42-6.31c-8.14-8.54-18.84-10.51-29.85-11.46c-4.27-0.37-8.58-0.18-12.86,0.62
			C92.7,19.5,90.47,19.78,88.67,18.08z"/>
		<path class="st2" d="M14.06,82.01c-5.1-4.59-8.5-10.77-13.97-15.02c0-0.67,0-1.33,0-2c8.01-2.61,16.02-5.23,24.03-7.84
			c1.8,4.34-2.07,7.65-2.12,11.65c-1.29,3.45-0.39,6.79,0.53,10.13c0.01,0.54-0.14,1.03-0.45,1.47
			C19.64,82.06,17.18,83.71,14.06,82.01z"/>
		<path class="st3" d="M144.07,39.97c0.29-0.02,0.58,0,0.87,0.05c0,2.33,0,4.66,0,6.99l-0.41,0.06c0,0-0.41,0-0.41,0
			c-0.11-1.66-0.22-3.32-0.33-4.98C143.31,41.31,143.41,40.6,144.07,39.97z"/>
		<path class="st4" d="M21.05,68.97c-0.5-4.34,2.81-7.68,3.07-11.82c5.38-5.05,9.12-11.62,15.16-16.1
			c3.82-2.84,7.43-5.95,11.67-8.18c2.54,2.96,3.58,6.66,5.04,10.16c-0.7,2.2-2.8,2.69-4.5,3.61c-7.48,4.04-14.44,8.8-20.56,14.74
			c-2.64,2.56-5.03,5.27-6.59,8.66c-0.61,1.33-1.31,2.69-3,3.1C20.2,71.74,20.39,70.37,21.05,68.97z"/>
		<path class="st5" d="M139.09,29.98c1.98,1.56,3.21,3.58,3.69,6.06c-2.06,2.71-5.33,3.23-8.22,4.28
			c-18.19,6.62-36.39,13.19-54.59,19.8c-2.79,1.01-6.03,3.78-8.91-0.15c-0.63-7.41-1.26-14.83-1.87-22.24
			c-0.11-1.3-0.4-2.68,0.81-3.71c6.94-0.87,13.33-3.77,20.03-5.55c9.5-2.53,19.1-3.75,28.88-3.85c1.63,0.08,3.27,0.06,4.9,0.03
			C129.45,24.89,134.64,26.37,139.09,29.98z"/>
		<path class="st6" d="M71.07,59.97c2.07,1.74,4.13,0.54,6.07-0.17c20.32-7.4,40.61-14.87,60.92-22.3c1.55-0.57,3.14-0.98,4.72-1.47
			c0.43,1.31,0.86,2.62,1.29,3.93c-0.09,0.71-0.19,1.42-0.28,2.13c-10.51,19.95-29.63,28.51-48.91,36.73
			c-8.59,3.66-8.86,3.47-14.23-3.93C77.17,70.11,73.14,65.66,71.07,59.97z"/>
		<path class="st5" d="M21.05,68.97c0,0.97,0,1.95,0,4.33C29.01,57.63,42.22,50,55.98,43.02c4.01,6.65,8.01,13.31,12.02,19.96
			c-0.67,1.78-2.31,2.26-3.85,2.85C52.22,70.4,40.11,74.49,28.2,79.09c-2,0.77-4.11,1.56-6.13-0.07
			C19.37,75.91,19.33,72.53,21.05,68.97z"/>
		<path class="st6" d="M22.07,79.02c7.76-0.71,14.41-4.81,21.63-7.16c8.2-2.66,16.2-5.89,24.3-8.88c1.21,7.12,2.47,14.24,3.61,21.38
			c0.32,2.02-1.26,2.29-2.83,2.62c-11.03,2.33-22.12,3.22-33.37,1.97c-3.37-0.37-6.14-2.42-9.41-3.01
			c-3.63-0.47-4.94-2.47-3.93-5.98C22.07,79.65,22.07,79.34,22.07,79.02z"/>
		<path class="st4" d="M118.97,26.03c-15.36-0.27-29.9,3.66-44.29,8.52c-1.28,0.43-3.57,3.15-4.67-0.53
			c0.17-3.95-0.35-7.94,0.64-11.85c4.8-1.84,9.89-2.62,14.81-4.05c1.08,1.11,2.14-0.14,3.21-0.03c6.45,0.09,12.81-1.57,19.3-1.02
			c8.14,0.7,16.06,2.21,23.31,6.17c3.06,1.67,5.85,3.75,7.82,6.74c-4.99-1.55-9.72-4.06-15.14-3.95
			C122.29,25.22,120.63,25.23,118.97,26.03z"/>
		<path class="st5" d="M22.07,79.97c0.4,2.59,1.59,4.67,3.93,5.98c2.9,5.22,8.54,6.83,13.07,9.9c-8.05,2.96-16.09,5.93-25.01,9.21
			c0-8.08,0-15.57,0-23.06C16.73,81.33,19.4,80.65,22.07,79.97z"/>
		<path class="st7" d="M113.98,99.75c0.27,3.63-1.37,4.52-4.5,3.18c-4.8-2.06-8.5-5.63-12.31-9.06c-1.35-1.21-1.39-2.15,0.34-2.94
			c1.35-0.62,2.7-1.23,4.06-1.84c8.72-3.93,8.73-3.94,11.41,5.41C113.47,96.22,114.25,97.91,113.98,99.75z"/>
		<path class="st7" d="M85.46,18.11c-4.33,3.55-9.48,4.11-14.81,4.05c0.52-5.1,1.25-10.15,2.95-15.02c0.61-1.74,1.18-3.69,3.33-3.84
			c2.17-0.15,3.12,1.74,3.85,3.37C82.45,10.44,83.91,14.3,85.46,18.11z"/>
		<path class="st7" d="M53.27,30.24c-1.37-4.06-2.83-8.09-4.04-12.2c-0.45-1.53-0.63-3.43,0.7-4.67c1.51-1.41,3.13-0.39,4.54,0.44
			c4.93,2.89,10.07,5.56,12.53,11.22C62.88,27.99,59.1,31.8,53.27,30.24z"/>
		<path class="st7" d="M92.2,96.4c-0.38,4.58-1.22,9.49-3.4,14.02c-1.47,3.07-3.77,3.47-5.48,0.35c-1.98-3.61-3.41-7.52-5.04-11.32
			c-0.78-1.82,0.06-2.81,1.82-3.26c3.2-0.82,6.46-1.5,9.59-2.52C92.27,92.82,92.67,93.84,92.2,96.4z"/>
		<path class="st4" d="M53.27,30.24c5.09-0.38,8.83-4.33,13.73-5.22c-0.03,4.33-0.07,8.65-0.1,12.98c-2.13,2.27-4.53,3.85-7.86,3.01
			C56.3,37.86,55.13,33.86,53.27,30.24z"/>
		<path class="st8" d="M72.3,69.07c3.28,3.94,6.09,7.28,8.85,10.66c0.71,0.87,1.8,2.02,1.1,3.03c-1.19,1.72-3.37,1.83-5.29,2.12
			c-1.26,0.19-2.51-0.5-2.64-1.74C73.83,78.7,71.82,74.45,72.3,69.07z"/>
		<path class="st9" d="M59.03,41.01c2.62-1,5.24-2.01,7.86-3.01c0.47,5.38-0.34,10.82,0.71,16.33
			C63.68,50.51,60.83,46.11,59.03,41.01z"/>
		<path class="st10" d="M118.97,26.03c1.66-1.47,3.32-1.47,4.98,0C122.29,26.03,120.63,26.03,118.97,26.03z"/>
	</g>
</g>
</svg>
