<?xml version="1.0" encoding="utf-8"?>
<!-- Generator: Adobe Illustrator 26.3.1, SVG Export Plug-In . SVG Version: 6.00 Build 0)  -->
<svg version="1.1" id="Layer_1" xmlns="http://www.w3.org/2000/svg" xmlns:xlink="http://www.w3.org/1999/xlink" x="0px" y="0px"
	 viewBox="0 0 118 116" style="enable-background:new 0 0 118 116;" xml:space="preserve">
<style type="text/css">
	.st0{fill:#470137;}
	.st1{fill:#FDFDFD;}
	.st2{fill:#FE61F5;}
</style>
<g>
	<g>
		<path class="st0" d="M0.06,98.96c0-27.3,0-54.61,0-81.91c0.93-4.12,1.27-8.27,4.55-11.73c3.54-3.74,7.93-4.38,12.44-5.26
			c28.3,0,56.61,0,84.91,0c9.39,1.26,14.72,6.59,15.98,15.98c0,27.64,0,55.28,0,82.91c-0.81,4.71-1.69,9.22-5.63,12.76
			c-3.09,2.78-6.79,3.12-10.35,4.22c-28.3,0-56.61,0-84.91,0c-4.33-0.87-8.59-1.41-12.08-4.9C1.47,107.54,0.93,103.28,0.06,98.96z"
			/>
		<path class="st1" d="M17.04,0.06C8.31,2.65,2.65,8.31,0.06,17.04C0.14,11.38,0.22,5.72,0.31,0.06C5.88,0.06,11.46,0.06,17.04,0.06
			z"/>
		<path class="st1" d="M0.06,98.96c2.59,8.74,8.25,14.39,16.98,16.98c-4.99,0-9.99-0.1-14.98,0.05c-1.74,0.05-2.11-0.31-2.05-2.05
			C0.16,108.95,0.06,103.95,0.06,98.96z"/>
		<path class="st1" d="M101.96,115.94c7.89-3.25,13.68-8.48,15.98-16.98c0,4.99-0.1,9.99,0.05,14.98c0.05,1.74-0.31,2.11-2.05,2.05
			C111.28,115.83,106.62,115.94,101.96,115.94z"/>
		<path class="st1" d="M117.94,16.04c-2.97-7.68-8.3-13.01-15.98-15.98c4.66,0,9.33,0.11,13.98-0.05c1.74-0.06,2.11,0.31,2.05,2.05
			C117.83,6.72,117.94,11.38,117.94,16.04z"/>
		<path class="st2" d="M99.96,52.5c0.73,7.19-1.17,16,0.91,24.69c0.35,1.48-0.42,2.3-1.98,2.87c-8.18,2.95-16.3,4.38-24.66,0.62
			c-9.76-4.39-10.82-12.73-10.24-21.91c0.39-6.17,6.42-13.2,13.11-15.8c3.05-1.19,6.17-1,9.21-1.15c2.29-0.11,2.79-0.59,2.7-2.68
			c-0.14-3.32,0.11-6.65-0.07-9.96c-0.32-5.93,4.07-3.69,6.92-4.15c3.18-0.52,4.3,0.65,4.18,4C99.78,36.33,99.96,43.65,99.96,52.5z"
			/>
		<path class="st2" d="M40.67,49.22c2.7-4.96,5.43-9.23,7.41-13.82c1.92-4.46,4.73-6.31,9.48-5.4c1.12,0.21,2.32,0.03,3.65,0.03
			c-2.27,7.24-6.17,13.5-10.35,19.5c-2.7,3.87-2.85,7.02-0.05,10.86c4.77,6.55,8.31,13.84,11.72,21.22
			c-0.46,0.15-0.73,0.29-1.02,0.34c-7.85,1.37-13.41-0.64-15.72-9.24c-0.93-3.46-3.63-6.44-5.84-10.16
			c-2.78,5.13-5.67,9.79-7.89,14.75c-1.63,3.64-3.71,5.34-7.75,4.73c-2.11-0.32-4.31-0.06-7.26-0.06
			c3.48-5.76,6.27-11.43,10.04-16.36c4.99-6.52,6.3-12.14,0.38-19.07c-3.91-4.58-6.28-10.49-9.75-16.52c3.83,0,7.08,0.16,10.29-0.06
			c2.01-0.14,2.94,0.77,3.75,2.32C34.62,37.77,37.51,43.22,40.67,49.22z"/>
		<path class="st0" d="M88.97,61.78c0,1.5,0.23,3.04-0.05,4.48c-0.43,2.23,1.63,5.65-1.39,6.49c-3.87,1.07-8.12,0.46-10.58-3.44
			c-2.38-3.76-2.87-7.92-1.01-12.13c1.76-4,4.94-5.8,9.22-6.22c3.07-0.3,4.22,0.71,3.87,3.83C88.76,57.09,88.97,59.45,88.97,61.78z"
			/>
	</g>
</g>
</svg>
