<svg xmlns="http://www.w3.org/2000/svg" width="62.046" height="63.119" viewBox="0 0 62.046 63.119">
  <g id="Group_8658" data-name="Group 8658" transform="translate(-15002.488 -256)">
    <path id="Path_34865" data-name="Path 34865" d="M151,56.276l-6.24-14.332a.79.79,0,0,1-.067-.319,27.835,27.835,0,1,0-43.9,22.872,1.067,1.067,0,0,1,.457.875v11.74h31.4V70.656a1.065,1.065,0,0,1,1.065-1.065h8.127a.825.825,0,0,0,.822-.742c.168-1.656.587-5.89,1-10.665a.826.826,0,0,1,.822-.753h5.751A.827.827,0,0,0,151,56.275ZM124.924,45.462c-3.632.128-11.665,2.435-10.8,9.681.763,6.408-8.53,7.815-9.65,1.013-1.386-8.421-8.928-2.824-9.369-14.108a21.916,21.916,0,0,1,21.046-22.755,21.615,21.615,0,0,1,20.285,11.746c3.122,6.3,3.94,13.877-11.512,14.422Z" transform="translate(14913.469 242.007)" fill="#fafafa"/>
    <path id="Path_34866" data-name="Path 34866" d="M373.789,137.128a1.046,1.046,0,0,0,1.049-1.049,1.05,1.05,0,1,0-1.049,1.049Z" transform="translate(14663.41 135.33)" fill="#fafafa"/>
    <path id="Path_34867" data-name="Path 34867" d="M252.343,141.094a1.048,1.048,0,1,0,.136-1.476h0a1.047,1.047,0,0,0-.138,1.476Z" transform="translate(14769.736 131.499)" fill="#fafafa"/>
    <path id="Path_34868" data-name="Path 34868" d="M241.278,229.023a1.049,1.049,0,0,0,.4,2.019,1.039,1.039,0,0,0,.4-.08,1.049,1.049,0,1,0-.8-1.94Z" transform="translate(14779.847 52.559)" fill="#fafafa"/>
    <path id="Path_34869" data-name="Path 34869" d="M261.331,253.813a1.049,1.049,0,1,0,.518,1.389,1.05,1.05,0,0,0-.518-1.389Z" transform="translate(14762.91 30.724)" fill="#fafafa"/>
    <path id="Path_34870" data-name="Path 34870" d="M179.681,260.407a1.049,1.049,0,0,0,.384,2.025,1.074,1.074,0,0,0,.384-.073,1.049,1.049,0,0,0-.767-1.952Z" transform="translate(14834.151 24.893)" fill="#fafafa"/>
    <path id="Path_34871" data-name="Path 34871" d="M170.859,230.885a1.048,1.048,0,1,0-1.046,1.122l.073,0A1.05,1.05,0,0,0,170.859,230.885Z" transform="translate(14843.184 51.708)" fill="#fafafa"/>
    <path id="Path_34872" data-name="Path 34872" d="M206.123,180.22a1.049,1.049,0,0,0,.547,1.944,1.033,1.033,0,0,0,.545-.153,1.049,1.049,0,1,0-1.092-1.791Z" transform="translate(14810.701 95.637)" fill="#fafafa"/>
    <path id="Path_34873" data-name="Path 34873" d="M183.119,201.284a1.049,1.049,0,1,0,.147,1.474,1.048,1.048,0,0,0-.147-1.474Z" transform="translate(14832.044 77.147)" fill="#fafafa"/>
    <path id="Path_34874" data-name="Path 34874" d="M233.84,199.964a1.068,1.068,0,1,0-.114,0c.038,0,.076,0,.114,0Z" transform="translate(14786.854 79.944)" fill="#fafafa"/>
    <path id="Path_34875" data-name="Path 34875" d="M318.759,236.553a1.048,1.048,0,1,0-1.289,1.652,1.03,1.03,0,0,0,.644.222,1.046,1.046,0,0,0,.826-.4h0a1.05,1.05,0,0,0-.183-1.472Z" transform="translate(14712.479 46.048)" fill="#fafafa"/>
    <path id="Path_34876" data-name="Path 34876" d="M312.935,119.337a1.039,1.039,0,1,0-.09,0c.029,0,.06,0,.09,0Z" transform="translate(14717.122 151.006)" fill="#fafafa"/>
    <path id="Path_34877" data-name="Path 34877" d="M320.722,206.735a1.049,1.049,0,0,0,.52,1.96,1.028,1.028,0,0,0,.516-.139,1.048,1.048,0,1,0-1.036-1.822Z" transform="translate(14709.724 72.253)" fill="#fafafa"/>
    <path id="Path_34878" data-name="Path 34878" d="M344.353,124.19a1.05,1.05,0,1,0-.356-.063,1.07,1.07,0,0,0,.356.063Z" transform="translate(14689.353 146.734)" fill="#fafafa"/>
    <path id="Path_34879" data-name="Path 34879" d="M268.738,172.335a1.049,1.049,0,0,0-.545,2.025,1.032,1.032,0,0,0,.273.036,1.048,1.048,0,0,0,.272-2.061Z" transform="translate(14756.237 102.483)" fill="#fafafa"/>
    <path id="Path_34880" data-name="Path 34880" d="M236.039,169.61a1.032,1.032,0,0,0,.273.036,1.047,1.047,0,1,0-.273-.036Z" transform="translate(14784.576 106.67)" fill="#fafafa"/>
    <path id="Path_34881" data-name="Path 34881" d="M291.9,254.813a1.049,1.049,0,0,0,.342,2.04,1.086,1.086,0,0,0,.342-.057,1.049,1.049,0,0,0-.684-1.984Z" transform="translate(14735.278 29.809)" fill="#fafafa"/>
    <path id="Path_34882" data-name="Path 34882" d="M298.569,184.955a1.048,1.048,0,1,0,.356,1.439,1.047,1.047,0,0,0-.356-1.439Z" transform="translate(14730.183 91.462)" fill="#fafafa"/>
    <path id="Path_34883" data-name="Path 34883" d="M282.741,125.8a1.049,1.049,0,1,0-.985,1.408,1.087,1.087,0,0,0,.361-.063,1.051,1.051,0,0,0,.624-1.344Z" transform="translate(14744.524 144.069)" fill="#fafafa"/>
    <path id="Path_34884" data-name="Path 34884" d="M198.722,286.1a1.048,1.048,0,1,0,1.048,1.049,1.046,1.046,0,0,0-1.048-1.049Z" transform="translate(14817.705 2.184)" fill="#fafafa"/>
    <path id="Path_34885" data-name="Path 34885" d="M357.948,127.245c.612-2.281,1.243-5.709.092-7.329a2.536,2.536,0,0,0-2.868-.889,3.1,3.1,0,0,0-2.294,1.923c-.737,1.927.421,4.739,1.425,6.622-1.1-1.483-2.993-3.566-5.006-3.566a3.148,3.148,0,0,0-2.661,1.584,2.316,2.316,0,0,0-.261,2.472c.964,1.83,4.8,2.277,6.92,2.382.015.091.032.182.055.273a3.124,3.124,0,1,0,4.6-3.473Zm-9.72-.16a.728.728,0,0,1,.148-.324c.441-.656.789-.656.92-.656.809,0,1.927,1,2.87,2.148-2.156-.234-3.792-.743-3.939-1.167Zm7.79-.754c-.884-1.726-1.555-3.653-1.181-4.631a1.036,1.036,0,0,1,.841-.637,1.556,1.556,0,0,1,.367-.052c.2,0,.242.058.286.12.5.7.256,2.928-.313,5.2Z" transform="translate(14686.861 149.534)" fill="#fafafa"/>
  </g>
</svg>
