<svg xmlns="http://www.w3.org/2000/svg" width="22.372" height="22.372" viewBox="0 0 22.372 22.372">
  <path id="Path_405" data-name="Path 405" d="M43.186,32A11.186,11.186,0,1,0,54.372,43.186,11.187,11.187,0,0,0,43.186,32Zm2.357,6.871h3.85V40.02h-3.85ZM43.6,44.9c0,2.846-2.966,2.757-2.966,2.757H35.775V38.322h4.854a2.385,2.385,0,0,1,2.642,2.487,1.619,1.619,0,0,1-1.423,1.778C43.725,42.587,43.6,44.9,43.6,44.9Zm7.2-.155H45.958A1.518,1.518,0,0,0,47.6,46.372c1.553,0,1.5-1,1.5-1h1.643c0,2.667-3.2,2.482-3.2,2.482A3.314,3.314,0,0,1,43.96,44.28s0-3.586,3.586-3.586C51.326,40.7,50.8,44.749,50.8,44.749Z" transform="translate(-32 -32)"/>
</svg>
