<svg xmlns="http://www.w3.org/2000/svg" width="37.836" height="39.699" viewBox="0 0 37.836 39.699">
  <g id="Group_64" data-name="Group 64" transform="translate(-6913.724 -3270)">
    <path id="Path_26375" data-name="Path 26375" d="M245.129,348.81a7.754,7.754,0,0,0,7.43,2.029,1.153,1.153,0,0,0,.634-.419.856.856,0,0,0,.158-.716.9.9,0,0,0-.412-.539,1.085,1.085,0,0,0-.818-.133,6.183,6.183,0,0,1-1.483.19,6.009,6.009,0,0,1-4.152-1.718,5.787,5.787,0,0,1-1.731-4.165.932.932,0,0,0-1.858,0,7.7,7.7,0,0,0,2.232,5.471Z" transform="translate(6681.986 2951.893)" fill="#fafafa"/>
    <path id="Path_26376" data-name="Path 26376" d="M303.81,342.359a.932.932,0,1,0-1.864,0,2.536,2.536,0,0,1-2.587,2.473,2.417,2.417,0,0,1-2.143-1.268.9.9,0,0,0-1.268-.33.944.944,0,0,0-.437.52.887.887,0,0,0,.1.773,4.184,4.184,0,0,0,3.709,2.168h.057a4.387,4.387,0,0,0,4.431-4.336Z" transform="translate(6633.226 2952.873)" fill="#fafafa"/>
    <path id="Path_26377" data-name="Path 26377" d="M321.166,101.143a7.753,7.753,0,0,0-7.4-2.029,1.153,1.153,0,0,0-.634.419.856.856,0,0,0-.159.716.868.868,0,0,0,.412.532,1.058,1.058,0,0,0,.818.14,6.183,6.183,0,0,1,1.483-.19,6.009,6.009,0,0,1,4.152,1.718,5.85,5.85,0,0,1,1.731,4.165.887.887,0,0,0,.292.691.952.952,0,0,0,.634.235.894.894,0,0,0,.925-.926,7.7,7.7,0,0,0-2.257-5.471Z" transform="translate(6617.004 3177.853)" fill="#fafafa"/>
    <path id="Path_26378" data-name="Path 26378" d="M295.87,148.961a.9.9,0,0,0,1.268.33.943.943,0,0,0,.437-.52.887.887,0,0,0-.1-.741,4.184,4.184,0,0,0-3.709-2.168h-.057a4.387,4.387,0,0,0-4.438,4.336.932.932,0,0,0,1.864,0,2.536,2.536,0,0,1,2.587-2.473,2.417,2.417,0,0,1,2.149,1.236Z" transform="translate(6638.972 3134.269)" fill="#fafafa"/>
    <path id="Path_26379" data-name="Path 26379" d="M90.206,14.5a.964.964,0,0,0,.957-.957V9.321a1.116,1.116,0,0,1,1.128-1.116h4.222a.957.957,0,0,0,0-1.9H92.292a3.03,3.03,0,0,0-3.043,3.018v4.222a.957.957,0,0,0,.957.957Z" transform="translate(6824.5 3263.716)" fill="#fafafa"/>
    <path id="Path_26380" data-name="Path 26380" d="M496.986,7.959h4.21a1.116,1.116,0,0,1,1.116,1.116V13.3a.957.957,0,0,0,1.9,0V9.075a3.03,3.03,0,0,0-3.018-3.03h-4.21a.957.957,0,1,0,0,1.9Z" transform="translate(6447.296 3263.962)" fill="#fafafa"/>
    <path id="Path_26381" data-name="Path 26381" d="M96.827,448.268h-4.21a1.116,1.116,0,0,1-1.116-1.116V442.93a.957.957,0,0,0-1.9,0v4.222a3.03,3.03,0,0,0,3.018,3.03h4.222a.957.957,0,1,0,0-1.9Z" transform="translate(6824.176 2859.51)" fill="#fafafa"/>
    <path id="Path_26382" data-name="Path 26382" d="M506.1,440.559a.964.964,0,0,0-.957.957v4.222a1.116,1.116,0,0,1-1.128,1.116H499.8a.957.957,0,0,0,0,1.9h4.21a3.03,3.03,0,0,0,3.03-3.03v-4.21a.957.957,0,0,0-.944-.957Z" transform="translate(6444.478 2860.924)" fill="#fafafa"/>
    <path id="Path_26383" data-name="Path 26383" d="M89.846,268.772H125.78a.951.951,0,1,0,0-1.9H89.846a.951.951,0,1,0,0,1.9Z" transform="translate(6824.829 3022.028)" fill="#fafafa"/>
    <path id="Path_26384" data-name="Path 26384" d="M193.9,64.632h1.762v-3.8h0A9.548,9.548,0,0,1,211.55,53.7a.881.881,0,0,0,1.458-.7.894.894,0,0,0-.3-.634,11.188,11.188,0,0,0-7.5-2.84,11.323,11.323,0,0,0-11.31,11.31Z" transform="translate(6727.432 3223.632)" fill="#fafafa"/>
    <path id="Path_26385" data-name="Path 26385" d="M195.664,305.684v-3.8H193.9v3.8a11.2,11.2,0,0,0,1.065,4.786.894.894,0,0,0,.494.457.953.953,0,0,0,.3.051.875.875,0,0,0,.38-.082.9.9,0,0,0,.45-.5.855.855,0,0,0,0-.672,9.415,9.415,0,0,1-.925-4.038Z" transform="translate(6727.431 2989.555)" fill="#fafafa"/>
    <path id="Path_26386" data-name="Path 26386" d="M337.93,193.783v3.8h1.864v-3.8h0a.932.932,0,0,0-1.864,0Z" transform="translate(6593.838 3090.684)" fill="#fafafa"/>
    <path id="Path_26387" data-name="Path 26387" d="M245.9,131.665a1.015,1.015,0,0,0-.748-.634.875.875,0,0,0-.85.3,7.74,7.74,0,0,0-1.934,5.122v3.8h1.857v-3.8a5.908,5.908,0,0,1,1.5-3.924.869.869,0,0,0,.171-.869Z" transform="translate(6682.473 3148.041)" fill="#fafafa"/>
    <path id="Path_26388" data-name="Path 26388" d="M243.306,303.553a.957.957,0,0,0,.634-.228.894.894,0,0,0,.292-.691v-.761h-1.857v.761a.9.9,0,0,0,.932.919Z" transform="translate(6682.471 2989.562)" fill="#fafafa"/>
    <path id="Path_26389" data-name="Path 26389" d="M291.138,230.533a.932.932,0,0,0-1.864,0v1.135h1.864Z" transform="translate(6638.968 3056.597)" fill="#fafafa"/>
    <path id="Path_26390" data-name="Path 26390" d="M290.293,305.581a.932.932,0,0,0,.634-.235.869.869,0,0,0,.292-.691v-2.783h-1.858v2.783a.9.9,0,0,0,.932.926Z" transform="translate(6638.888 2989.562)" fill="#fafafa"/>
    <path id="Path_26391" data-name="Path 26391" d="M339.791,305.245v-3.366h-1.864v3.366a.932.932,0,1,0,1.864,0Z" transform="translate(6593.841 2989.556)" fill="#fafafa"/>
    <path id="Path_26392" data-name="Path 26392" d="M386.848,207.855a.9.9,0,0,0-.932-.925.932.932,0,0,0-.634.235.868.868,0,0,0-.292.691v2.783h1.864Z" transform="translate(6550.188 3077.627)" fill="#fafafa"/>
    <path id="Path_26393" data-name="Path 26393" d="M386.861,302.895v-1.021H385v1.021a.932.932,0,0,0,1.864,0Z" transform="translate(6550.175 2989.561)" fill="#fafafa"/>
    <path id="Path_26394" data-name="Path 26394" d="M432.906,234.933a.957.957,0,0,0-.634.228.894.894,0,0,0-.292.691v.761h1.857v-.761a.9.9,0,0,0-.932-.919Z" transform="translate(6506.602 3051.652)" fill="#fafafa"/>
    <path id="Path_26395" data-name="Path 26395" d="M409.044,310.776a.816.816,0,0,0,.178,0,.908.908,0,0,0,.672-.323,7.729,7.729,0,0,0,1.9-5.123v-3.8H409.97v3.8a5.909,5.909,0,0,1-1.471,3.893.868.868,0,0,0-.2.888,1.014,1.014,0,0,0,.748.666Z" transform="translate(6528.612 2989.883)" fill="#fafafa"/>
    <path id="Path_26396" data-name="Path 26396" d="M261.39,301.88h-1.763v3.8a9.548,9.548,0,0,1-15.887,7.132.884.884,0,0,0-1.464.7.893.893,0,0,0,.3.634,11.19,11.19,0,0,0,7.506,2.84,11.323,11.323,0,0,0,11.31-11.31Z" transform="translate(6682.562 2989.555)" fill="#fafafa"/>
    <path id="Path_26397" data-name="Path 26397" d="M469.042,138.025v3.8H470.8v-3.8h0a11.205,11.205,0,0,0-1.065-4.755.894.894,0,0,0-.494-.457.855.855,0,0,0-.672,0,.869.869,0,0,0-.457.5.855.855,0,0,0,0,.672,9.415,9.415,0,0,1,.925,4.038Z" transform="translate(6473.148 3146.436)" fill="#fafafa"/>
  </g>
</svg>
