<?xml version="1.0" encoding="utf-8"?>
<!-- Generator: Adobe Illustrator 26.3.1, SVG Export Plug-In . SVG Version: 6.00 Build 0)  -->
<svg version="1.1" id="Layer_1" xmlns="http://www.w3.org/2000/svg" xmlns:xlink="http://www.w3.org/1999/xlink" x="0px" y="0px"
	 viewBox="0 0 900 520" style="enable-background:new 0 0 900 520;" xml:space="preserve">
<style type="text/css">
	.st0{fill:#F5982D;}
	.st1{fill:#FCE8D1;}
	.st2{fill:#F7AB54;}
	.st3{fill:#F6A03D;}
	.st4{fill:#256E8C;}
	.st5{fill:#FEFEFE;}
	.st6{fill:#256E8D;}
	.st7{fill:#266E8D;}
	.st8{fill:#F59323;}
	.st9{fill:#F69425;}
	.st10{fill:#276F8D;}
	.st11{fill:#F69424;}
	.st12{fill:#266F8D;}
	.st13{fill:#F59324;}
	.st14{fill:#F59424;}
	.st15{fill:#276F8E;}
	.st16{fill:#2A718F;}
	.st17{fill:#F59425;}
	.st18{fill:#29708F;}
	.st19{fill:#2B7290;}
	.st20{fill:#2D7391;}
	.st21{fill:#F59426;}
	.st22{fill:#28708E;}
	.st23{fill:#F59528;}
	.st24{fill:#F69527;}
	.st25{fill:#F6972B;}
	.st26{fill:#F59527;}
	.st27{fill:#FDF8F1;}
	.st28{fill:#F69528;}
	.st29{fill:#F6982C;}
	.st30{fill:#F69629;}
	.st31{fill:#FDF8F3;}
	.st32{fill:#F6982E;}
	.st33{fill:#F6982D;}
	.st34{fill:#F7A03E;}
	.st35{fill:#F69426;}
	.st36{fill:#F6992F;}
	.st37{fill:#F79E39;}
	.st38{fill:#F59629;}
	.st39{fill:#F69324;}
	.st40{fill:#F59628;}
	.st41{fill:#3F7F9A;}
	.st42{fill:#FDF4E9;}
	.st43{fill:#F5972A;}
	.st44{fill:#FDF9F3;}
	.st45{fill:#F2F6F8;}
	.st46{fill:#FEFAF7;}
	.st47{fill:#F5972B;}
	.st48{fill:#E7EFF2;}
	.st49{fill:#FDF6EE;}
	.st50{fill:#FDF9F4;}
	.st51{fill:#FDF6EF;}
	.st52{fill:#357895;}
	.st53{fill:#FDF2E6;}
	.st54{fill:#FDF4EA;}
	.st55{fill:#FDF7F0;}
	.st56{fill:#FDF5EB;}
	.st57{fill:#E9F0F3;}
	.st58{fill:#FDF0E0;}
	.st59{fill:#EBF2F4;}
	.st60{fill:#FDECDA;}
	.st61{fill:#F59526;}
	.st62{fill:#FDEEDC;}
	.st63{fill:#3E7E9A;}
	.st64{fill:#3B7C98;}
	.st65{fill:#F69E3A;}
	.st66{fill:#F69E39;}
	.st67{fill:#FDF1E4;}
	.st68{fill:#E4EDF0;}
	.st69{fill:#FCECD9;}
	.st70{fill:#ECF2F5;}
	.st71{fill:#E4EDF1;}
	.st72{fill:#F5F8FA;}
	.st73{fill:#FDEFE0;}
	.st74{fill:#FDF1E3;}
	.st75{fill:#E5EDF1;}
	.st76{fill:#D9E6EB;}
	.st77{fill:#D4E2E8;}
	.st78{fill:#46849E;}
	.st79{fill:#F69930;}
	.st80{fill:#FCEBD8;}
	.st81{fill:#FDEEDD;}
	.st82{fill:#FCECD8;}
	.st83{fill:#FBD7AE;}
	.st84{fill:#BAD1DA;}
	.st85{fill:#ACC7D3;}
	.st86{fill:#FAD1A1;}
	.st87{fill:#FCEDDB;}
	.st88{fill:#FDF0E1;}
	.st89{fill:#3C7D98;}
	.st90{fill:#FCEAD4;}
	.st91{fill:#FCECDA;}
	.st92{fill:#F7AE5B;}
	.st93{fill:#337793;}
	.st94{fill:#FCEAD5;}
	.st95{fill:#FBD8B0;}
	.st96{fill:#FCEBD7;}
	.st97{fill:#F5972C;}
	.st98{fill:#F8B262;}
	.st99{fill:#FCE9D3;}
	.st100{fill:#F7A64A;}
	.st101{fill:#F9C589;}
	.st102{fill:#47849E;}
	.st103{fill:#FCE5CA;}
	.st104{fill:#F8BA72;}
	.st105{fill:#F69F3B;}
	.st106{fill:#397B97;}
	.st107{fill:#699AB0;}
	.st108{fill:#F8B66C;}
	.st109{fill:#F6A344;}
	.st110{fill:#F9C68C;}
	.st111{fill:#74A2B6;}
	.st112{fill:#377996;}
	.st113{fill:#7CA8BA;}
	.st114{fill:#84ADBE;}
	.st115{fill:#F7AD59;}
	.st116{fill:#EBF1F4;}
	.st117{fill:#EAF1F4;}
	.st118{fill:#F0F5F7;}
	.st119{fill:#317693;}
	.st120{fill:#D9E5EB;}
	.st121{fill:#91B5C5;}
	.st122{fill:#D6E3E9;}
	.st123{fill:#5C91A9;}
	.st124{fill:#3D7D99;}
	.st125{fill:#70A0B4;}
	.st126{fill:#D5E3E9;}
	.st127{fill:#E2EBEF;}
	.st128{fill:#F9FBFB;}
	.st129{fill:#EDF3F5;}
	.st130{fill:#EAF1F3;}
	.st131{fill:#F1F5F7;}
	.st132{fill:#DFE9EE;}
	.st133{fill:#DDE8ED;}
	.st134{fill:#CFDFE6;}
	.st135{fill:#DEE9ED;}
	.st136{fill:#D2E1E7;}
	.st137{fill:#CDDEE4;}
	.st138{fill:#D7E4EA;}
	.st139{fill:#ECF2F4;}
	.st140{fill:#E1EBEF;}
	.st141{fill:#F8FAFB;}
	.st142{fill:#D6E4E9;}
	.st143{fill:#F3F7F8;}
	.st144{fill:#E8F0F3;}
	.st145{fill:#FEFAF6;}
	.st146{fill:#FDF7EF;}
	.st147{fill:#FDF3E7;}
	.st148{fill:#FDF6ED;}
	.st149{fill:#EFF4F6;}
	.st150{fill:#E8EFF2;}
	.st151{fill:#DFEAEE;}
	.st152{fill:#FDF8F2;}
	.st153{fill:#FDEDDB;}
	.st154{fill:#EEF3F6;}
	.st155{fill:#EEF4F6;}
	.st156{fill:#F9FBFC;}
	.st157{fill:#E0EAEF;}
	.st158{fill:#87AFC0;}
	.st159{fill:#F4F8F9;}
	.st160{fill:#FDF3E8;}
	.st161{fill:#FCEBD6;}
	.st162{fill:#FEFDFC;}
	.st163{fill:#FDEFDF;}
	.st164{fill:#DBE7EC;}
	.st165{fill:#E3ECF0;}
	.st166{fill:#77A4B7;}
	.st167{fill:#E5EEF1;}
	.st168{fill:#D8E5EA;}
	.st169{fill:#FEFCFB;}
	.st170{fill:#FDF5EC;}
	.st171{fill:#FDF3E9;}
	.st172{fill:#E2ECF0;}
	.st173{fill:#E8EFF3;}
	.st174{fill:#F4F7F9;}
	.st175{fill:#FDF7F1;}
	.st176{fill:#FEFBF8;}
	.st177{fill:#FEFDFB;}
</style>
<path class="st0" d="M332.9,90c-2.4,0.6-4.9,0.6-7.6,0c0.6-1.9,1.2-3.9-0.5-5.5c0-0.4,0.1-0.9,0.1-1.4
	C328.3,84.7,330.7,87.3,332.9,90z"/>
<path class="st1" d="M318.1,458c0.4,0.3,0.7,0.7,1.1,1c-1,1-2,2.1-3,3.1c-0.4-0.4-0.7-0.8-1.1-1.1
	C315.7,459.6,316.7,458.6,318.1,458z"/>
<path class="st2" d="M299.9,83.7c0.8-0.7,1.7-1.5,3-2.7c-0.2,2.6-1.6,3.3-2.8,4.2C299.6,84.8,299.5,84.3,299.9,83.7z"/>
<path class="st3" d="M299.9,83.7c0.1,0.5,0.1,1,0.2,1.5c-0.7,1-1.4,2.1-3.1,2.3C297,85.4,298.6,84.7,299.9,83.7z"/>
<g>
	<path class="st4" d="M345.5,270.5c0,30,0,59.9,0,89.9c0,9,0.1,18,0.5,26.9c0.2,3.9-1.2,4.8-4.8,4.6c-7-0.3-14-0.1-21-0.1
		c-6.6,0-6.6,0-6.6-6.4c0-27.1-0.1-54.3,0.1-81.4c0-4.9-1-6.4-6.2-6.3c-25.8,0.3-51.6,0.1-77.4,0.2c-3.1,0-5.3-0.8-7.4-3
		c-8-8.5-16.1-16.9-24.3-25.1c-2.5-2.4-1.9-3.7,0.3-5.9c33.4-33.7,66.8-67.5,100.1-101.2c4.1-4.1,8.2-8.2,12.2-12.5
		c1.8-2,3.8-2.9,6.6-2.8c7.6,0.3,15.3,0.6,23,0.4c4-0.1,4.9,1.3,4.9,5.1c-0.1,37.8-0.1,75.6-0.1,113.4c0,1.3,0,2.7,0,4
		C345.3,270.5,345.4,270.5,345.5,270.5z"/>
	<path class="st5" d="M366,273.1c0.1-0.5,0.2-1,0.2-1.5c1.1,0.1,2.1,0.6,2.4,1.6c1.1,4.5,4.4,4.8,8.1,4.5c0.8-0.1,1.7,0,2.5,0
		c12.1-0.1,13.4-1.7,11.2-13.8c-0.3-1.5-0.9-2.8-1.2-4.3c-0.1-0.5-0.1-1.1-0.1-1.6c2.8-4.3,4.5-8.8,3.7-14.1c0-2,0-3.9,0-5.9
		c0-2.6-0.1-5.2,0-7.8c0-2.9,0-5.8,0-8.7c0-1.9,0.1-3.9,0-5.8c0-1.3-0.7-2.1-1.6-2.9c-0.9-0.8-2-1.8-1.7-2.9c1-4.7,0.9-9.3,0.1-14.1
		c-0.4-2.5,2.9-3.6,5.7-2c1.7,1,3.1,2.5,4.8,3.5c7.1,9.6,16.4,17.2,24.6,25.8c1.4,1.4,3.1,1.6,5,1.9c2.7,0.3,5.3,0.8,6.2,3.9
		c0,0.8-0.4,1.4-1.1,1.7c-1,0.3-1.9-0.3-3.4-0.7c4.5,4.2,7.9,8.7,12.6,11.9c1-0.1,1.7-1.4,2.8-0.6c1.4,2.2,0.4,5.4,3.2,6.9
		c0.5,0.4,1,0.9,1.4,1.5c5.1,5.9,11,11.1,16.4,16.8c4.4,4.6,4.3,5.5,0.1,10.1c-5.9,6.6-12.5,12.5-18.5,18.9c-0.8,1-1.6,2-2.2,3.2
		c0.5,3.9-1,6.6-4.7,8.2c-3.2,1.4-4.2,5.6-8,6.3c-0.4,0.1-0.9,0-1.3,0c-0.6-0.1-1.1-0.3-1.5-0.7c0,0.4,0.2,0.7,0.2,1.1
		c0,0.2,0,0.4-0.1,0.6c-0.2,0.4-0.4,0.7-0.7,1.1c-1.8,1.9-3.4,4-5.5,5.6c-5.4,4.2-10,9.3-14.9,14c-3.8,4.3-8,8.3-12.2,12.3
		c-1.2,1.2-2.5,3.6-4.8,1.2c-1.5-7.4-0.4-14.8-0.7-22.2c-0.1-2.5,0-5,0-7.4c-0.5-7.6,1.5-15.1,0.9-22.1c-0.2,2.6,0.1,5.8-0.1,9
		c-0.1,0.6-0.5,1-1.1,1c-1,0-1.6-0.5-1.9-1.4c0-4.9,0.6-9.8-1.2-14.6c-0.7-1.8,0.2-3.5,1.5-4.9c1.6-1.7,2.6-3.7,2.8-6.1
		c0-5.3,0-10.6,0-15.9c-0.1,5.6,0.1,11.2-0.2,16.9c-0.3,0.6-0.7,1.3-1.3,1.4c-7.8,1.4-15.8,1.6-23.5,0
		C364.5,280.9,364.8,276.6,366,273.1z"/>
	<path class="st6" d="M395,348.9c5-5,10-10,15-15c1-0.2,1.5,0.2,1.2,1.2c6.8,8.7,3.9,19.1,5,28.9c0.5,4.3-0.7,7.7-4.2,10.5
		c-2.8,2.2-5.3,4.9-8,7.4c-0.4-0.3-0.6-0.7-0.8-1.1c-1.4-4-5.4-5.6-7.9-8.6c-1.1-0.5-2.1-1-3.1-1.7c-7.9-4.1-8.9-4.3-21.5-3.5
		c4.4-0.1,8.8-0.1,13.2-0.1c2.4,0,4.3,0.6,4,3.6c-0.3,0.8-0.6,1.4-1.6,1.3c-1-1.2-2.4-2.7-3.7-1.6c-3.3,2.8-7,1.8-10.5,1.5
		c-3.3-0.2-5.8,1.9-9.7,2.5c1.9-2.9,1.2-5.2,0.5-7.9c-1-3.9-0.1-8.3-0.7-12.3c-1.8-11.4,5.1-18,13-24.1c1.6,2,0.7,3.6-0.8,5.2
		c-1.9,1.9-3.9,3.6-5.5,5.7c-1,1.2-2.5,2.7-1.6,4.4c0.9,1.7,2.7,0,4.1,0.3c1.7,0.4,2.2,1.8,2.7,3.3c0.5,1.6-0.8,4.4,1.4,4.8
		c2.7,0.5,5.5,1.6,8.5,1c-0.3-1-0.8-1.1-1.3-1.1c-7.7,0.3-7.8,0.3-7.9-7.3c-0.1-3.4-1.9-1.6-3.3-1.1c-3.1-0.7-3.6-2.6-1.8-4.9
		c1.8-2.3,3.9-4.5,6.4-6.1c1.1-0.7,2.9-0.8,2.8-2.4c-0.2-2.1-2.5-0.9-3.6-1.7c0.3-5.2-1.7-10.5,1.5-15.5c0.7-1.2-0.2-2.2-1.1-3
		c-1-0.9-2.1-0.7-3.2,0c-1.1,0.8-1.5,1.9-1,3c0.6,1.5,1.4,2.8,1.7,4.5c1.8,9.4-3.4,14.7-10.3,19.6c-0.9-2.1,0.2-3.5,1.5-4.4
		c3.9-2.7,4.7-6.5,4.3-10.9c-0.2-2.8-0.2-5.7,0-8.5c0.2-3.1-0.5-5.6-3.1-7.4c-3.8-2.6-3.2-6.5-3.3-10.4c0-2.6,1.9-0.9,2.8-1.4
		c7.9,5.6,13.9,13.1,20.7,19.9c7.6,2.7,6.7,1.8,6.7,9.8c0,12.8,0.5,25.5,0,38.4c-1.3-5.5,0.9-9.5,4.9-12.8c2-1.2,3.9-2.5,5.7-4
		c2.5-2.3,5.2-3,8.3-1.1c0,2.4-2.2,2.9-3.5,4.2c-1.5,1-2.8,2.2-4.3,3.2c-0.4,0.3-0.7,0.6-1.2,0.7c0.7,0.2,0.9-0.5,1.4-0.7
		c1.4-1,2.7-2.1,4.1-3.1c1.3-1,2.7-2,3.9-3.1c-2.4-3.2-4.4-3.2-9,0.1c-1.5,1-2.8,2.4-4.6,3c-0.4,0.2-0.9,0.3-1.4,0.3
		C395.6,350.5,394.6,350.3,395,348.9z"/>
	<path class="st7" d="M434.7,229.6c-0.5-2.6-2.5-3.6-4.8-3.3c-3.6,0.4-5.8-1.4-8.1-3.7c-6.4-6.6-12.9-13-19.3-19.4
		c-1.4-1.4-3-2.7-2.7-5c1.1-3,3.8-4.6,5.9-6.7c4.6-3.2,7.8-8.2,13.4-10c0.9-0.6,1.4-1.9,2.8-1.4c1.9,3.1,0.4,6.5,1,9.8
		c-5.2,0-5.9,1.2-3.5,6.1c0.9,1.8,2.5,2.9,3.8,4.4c3.6,3.3,5.7,7.1,4.9,12.3c-0.3,1.5,0.2,3.3,2.7,4.5c-4-5.6-1.4-13.3-7.8-17.1
		c-1.4-1.6-3.5-2.8-3.5-5.1c0-1.9,0.6-3.9,3.4-3.6c-0.1,0.3,0,0.5,0.2,0.7c5.4,3.3,9.9,7.3,9.2,14.5c-0.1,1.5,0.4,2.9,1.6,4
		c4.4,4.3,8.3,9,13.3,12.7c3,3.6,6.7,6.7,9,10.8c0.2,2.7,2.1,3,4.2,3.1c3.6,0,7.3,0.4,10.9-0.1c4.6-0.6,8.5,2.1,12.9,2.1
		c0.8,0,2.2,1.4,2.3,2.3c1.1,9.2,2.3,18.4,0.4,27.6c-0.1,0.2-0.3,0.4-0.4,0.6c-3.8,2.3-5.2-2.3-8-2.7c-4.1-2.9-7.7-6.3-10.4-10.5
		c-0.8-2-1.4-4.1-0.7-6.3c0.7-1.9,0.1-3.2-1.6-4.2c-1.6-1.2-2-4.5-5.2-2.9c-0.8,0.3-1.6,0.6-2.3,0.9c-1.1,1.2-0.1,2.5-0.2,3.8
		c-0.1,1.3,0,2.9-1.5,3.3c-1.5,0.4-2.6-0.8-3-2c-1.6-4.5-3.1-2.1-4.6,0c-4.1-1.4-2.5-5.1-3.2-7.9C441.3,238,437.5,234.3,434.7,229.6
		z"/>
	<path class="st8" d="M172.2,247c0-1.5,0-3.3-1.7-3.8c-7.1-1.9-9.1-11-17.4-11.4c3.4-0.6,4.9-1.7,6.4-4.9c1.7-3.7,6.1-6,8.6-9.5
		c5.1-6.9,11.7-9.1,20-8.1c2.3,0.3,5,1.1,7-1.2c0.5-1.6,1.6-2.7,2.8-3.8c2-2.3,4.3-4.1,7.1-5.3c0.7-0.3,1.4-1.2,0.7-2
		c-0.7-0.8-1.6-0.2-2,0.5c-1.4,2.7-3.7,4.6-5.8,6.7c-1.1,1.2-2.2,2.3-3.8,2.7c-5.4,1.3-10.8,0.4-16.8,0.7c0.9-2.8,2.8-2.9,4.5-2.6
		c5.8,1,9.8-1.6,13.9-5.6c4.9-4.8,9.4-9.1,8.1-16.9c-0.7-4,3.4-5.6,6.6-9.5c0,4.3,0,7.1,0,10c0,7.8-1.6,16.1,0.4,23.3
		c2,7.2-2.1,9.5-5.6,13.1c-8.9,9.2-17.8,18.3-27.2,27.2c-0.4-4.1-3.5-5.6-5.3-8c-1.7-2.2-4.4-3.5-4.8-6.8c-0.1-1.5-1.4-2.8-3.1-2.6
		c-1.4,0.2-2.5,1-2.5,2.7c0,1.8,1,2.6,2.6,3c4.4,1.3,6.6,5.3,9.5,8.3c1.2,1.3,0.7,2.8-0.8,3.8C173,247.6,172.6,247.6,172.2,247z"/>
	<path class="st7" d="M433.1,312c2.1,0.2,3.2-1.3,4.5-2.7c1.3-1.5,2.6-3.6,4.2-4.1c4.1-1.2,5.5-2.8,2.7-6.6
		c-0.3-0.4,0.9-0.7,1.5-0.5c3.4,0.7,3.1,4.2,5,6.8c-1.1-2.6-1.1-4.6,0.5-6.4c0.5-0.5,1.1-0.9,1.8-0.9c1.3,3.4,3.3,6,7.1,6.7
		c1.1,1.1,3.2,1.5,2.7,3.8c1.7,3.2,4,5.4,9,4.7c-4.7,5-8.5,8.9-12.3,12.8c-1.6-1.7-0.9-4.1-2.1-5.9c-1.2-1.6-3.2-2.4-3.9-4.4
		c-0.3-0.8-0.8-1.5-1.8-1.4c-0.3,0-0.6,0.2-0.7,0.6c-0.2,1.3,0.8,1.7,1.7,2.1c1.6,0.8,3.4,1.4,4.3,3.2c-1.4,2.9-1.7,5.3,2.4,6.1
		c-2.3,2.4-4.5,4.7-6.8,7.1c-0.3,0.4-0.7,0.5-1.2,0.2c-1.6-1.7-4.2-1.8-6-3.1c-0.5-2.4,0.5-4.2,2.1-5.8c2-1.7,2.7-3.3,0-5
		c-2-1.2-2.6-3.7-4.9-5.5c-0.4,3.1,2.2,2.9,3.2,4c1.6,1.8,5.1,3,1.9,6.2c-0.2,0.2-0.5,0.5-0.7,0.7c-4.1,3.6-4.1,3.6-0.6,7.4
		c0,2.5-1.7,3-3.7,3.2c-2.5,0.2-5,0.2-7.4-0.1c-1.7,0.1-5.5-3.8-4.1,2.2c0.4,0.8,0.9,1.6,0.4,2.5c-1.2,2.7-4.7,3.8-4.9,7.2
		c-1.2,1.9-4.6,1.7-4.9,5.1c3.4-0.5,2.8-4.1,4.8-5.2c0.7-0.3,1.8-0.5,2.1-1c3.7-6,9.4-6,15.6-5.6c-0.7,2.4-2.1,3.5-4.6,3.9
		c-1.7,0.2-3.8-0.1-4.9,1.8c-0.4,3-2.9,4.6-4.8,6.6c-1.2,1.3-2.3,2.8-3,4.5c-2.5-0.2-4.4,0.5-4.2,3.4c0.2,3.2-1.8,4.7-4.9,6.6
		c-0.4-7.9-0.8-15.3-1.2-22.7c-0.1-1.2,0.3-2.9-0.2-3.4c-7.1-5.4,0.1-8.2,2-11.9c-0.6-3,2.2-3.9,3.6-5.6c3.1-2.9,6.2-5.8,8.5-9.4
		l0.1,0.1c0.1-0.4,0.3-0.6,0.7-0.6c0.3-0.1,0.5-0.4,0.6-0.7C432.6,312.4,432.8,312.2,433.1,312z"/>
	<path class="st8" d="M252.9,394.2c0,3.6,0,7.2,0,10.8c-2.8-4-2.4-9.8-7.7-12.1c-3.7-1.6-6.3-4.4-8.1-7.9c-4.6-1.1-9.5-1.6-11.6-7.8
		c8,0,15.9,0,23.8,0c2.2,0,4.6,0.5,6.1-1.4c2.4-2.7,4-1.7,6,0.4c8.2,8.3,16.4,16.6,24.9,24.5c2.5,2.4,1.2,8,6.9,6.8
		c-1.1,3.3-4.1,1.6-5.2,3.5c-1.5,3.3-4.5,5.1-6.8,7.7c-1.1,1.5-4.8,1.8-3.8,3.7c1.2,2.3,2-0.4,2.6-1.5c0.4-0.7,0.7-1.5,1.3-2.1
		c2.6-2.3,4.4-5.4,7.8-6.7c1.4-0.2,2.9-0.6,3.9,1c0.3,0.8-0.1,1.3-0.6,1.8c-2.6,1.4-3.1,4.3-4.6,6.4c-2.1,2-3.8,4.6-6.8,5.6
		c-1.7,0.8-0.7,3.2-2.4,4.2c-3.8-3.7-7.6-7.4-11.4-11.1c4.7-1.4,9.1-3.1,12.1-7.2c-0.8-1-1.6-0.9-1.9-0.3c-1.7,3.2-3.2,6.2-7.9,4.1
		c-1.5-0.7-2,1.9-3.3,2.6c-2.3-2.4-4.7-4.8-7-7.2c2-1.3,3.3-3.1,3.9-5.4c2.4-1.2,4.2,0.1,5.7,1.7c1.9,2,3.7,2.2,5.4,0
		c1.3-1.8,4.1-2,5.1-4.7c-2.4-0.2-2.6,1.6-3.3,2.6c-3.3,4.6-5.9,4.9-8.5,0.1c-2.3-4.3-3.6-2.3-5.4,0c-3,0.6-3-1.9-3.5-3.7
		c-0.8-2.4-0.8-4.8-0.1-7.3c0.3-1.2,1.6-2.6,0.2-3.6c-1.4-1-2.2,1-3.4,1.3c-0.3,0-0.7,0-1,0c-3.6-1.8-5.9-5.1-8.6-8
		c-0.2-0.3-0.3-0.6-0.5-0.8c-0.6-0.9-0.9-2.1-2.4-2c-0.3,0-0.6,0.3-0.6,0.6c-0.1,1.5,1.3,1.6,2.2,2.1c0.3,0.2,0.6,0.3,0.9,0.4
		C247.9,388.1,251.4,390.2,252.9,394.2z"/>
	<path class="st9" d="M640.2,255.1c-11.9,0.1-11.9,0.1-11.9-11.8c0-8.6,0.1-17.3-0.1-25.9c-0.1-3.1,1-4.1,4-4c6,0.3,12-0.3,17.9,0.5
		c8.4,1.2,13.1,5.5,14.9,13.7c1.2,5.3,0.8,10.6-0.9,15.7c-2.3,7.3-7.6,11-15.1,11.7C646.2,255.3,643.2,255.1,640.2,255.1z"/>
	<path class="st8" d="M315.1,461c-1.5,1.2-3.1,3-5,0.8c-1.9-2.3,1.2-2.8,1.8-4.1c1.2-2.5,4.6-1.5,6.1-3.6c0.1-3-2-3.2-4.2-3.2
		c-1.3,1.6-1.1,4-2.9,5.4c-2.4,1.9-4.5,5.7-5.9-0.6c-0.6-2.7-4.8-0.5-5-3.7c2.2-2.3,5.3-0.8,7.8-1.8c4.8-3.5,9.7-7.1,13.3-12
		c0.2-8.5,4.9-14.4,11-19.7c3.4-2.9,6.3-6.3,9.5-9.4c1.3-1.2,2.4-2.9,4.5-2.8c1.5-1.4,3.2-1.9,4.9-0.4c5.8,4.3,11.1,9,14.8,15.3
		c-1.4,2.3-2.1,4.3-5.6,1.3c-2.3-1.9-5.5,1.6-8.3,2.4c-1.3,3.6-4.8,5.2-7.3,7.6c-2.4,0.8-5,0.1-7.4,0.5c-1.8,0.3-3.9,0.6-5.2,3.1
		c3.1-0.1,3.8-3.6,6.7-3.3c2.2,0.2,4.7,0.8,6.7-0.9c2.5-2,4.5-4.6,7.5-6c1.7-0.3,3.6-0.5,4.4,1.2c0.7,1.5-1.5,1.8-2.2,2.8
		c-3.7,5.3-8.7,7.8-15.2,7.2c-6.3,7.9-13.5,14.8-21.2,21.3C317.7,459.4,316.5,460.4,315.1,461z"/>
	<path class="st10" d="M393.8,230c0,2.7-0.1,5.3-0.1,8c-0.4,0.3-0.8,0.3-1.2,0.2c-1.6-0.8-3.3-0.5-5-0.7c-0.7-0.3-1.1-0.8-1.4-1.4
		c-0.8-3.2-4.3-3.1-6.1-5c-1.7-1.3-3.9-0.5-5.7-1.4c-1.7-1.5-0.9-3.8-1.9-5.5c-0.1-0.4-0.1-0.9-0.1-1.3c1.6-3.5-0.9-4-3.3-4.4
		c-0.4-0.3-0.6-0.7-0.8-1.1c-1-5-0.4-10-0.3-15.1c-1.8,6.1,1.3,12.7-2.3,18.6c-0.2,0.1-0.4,0.2-0.6,0.4c-1.8,0.4-4,0.1-2.5-2.1
		c2.3-3.4,0.2-6.1-0.1-9.1c-0.6-6.1-0.4-12.3-0.1-18.4c0.1-2.4-2.3-5.9,2.2-7.1c0.1,0,0-0.8-0.1-1.2c-3.6-9.4-2.6-19-0.6-28.4
		c0.5-2.4-1-3.6-1.4-5.8c1.6-0.9,3.3-0.5,5.3-0.4c-1.6,3.4-0.9,6.7-1.1,10c-0.1,1.9,0.3,3.9-1.1,5.7c-1,1.3-1,2.8,0.4,4
		c1,0.8,2.1,0.9,3.2,0.1c1.4-1.1,1.6-2.5,0.6-3.9c-0.8-1.1-1.1-2.3-1.3-3.7c-0.7-4.4,0.1-7.9,4.8-9.4c-0.1-2.2,1.2-3,3.1-2.3
		c1.6,0.6,0.5,1.9,0.2,2.9c-0.4,1.4-1,2.8-2,3.9c-1.2,2.8-0.5,5.8-0.5,8.7c0,2.4-0.3,4.6-2.2,6.3c-2,2.4-5,4.2-4.4,8.2
		c0.6-3.5,2.1-6.4,4.9-8.5c2.1-2.1,1.6-4.8,1.7-7.3c0.1-2.4-0.5-4.9,0.6-7.2c1.6-1.7,3.4-2.1,5.4-0.8c0.3,6.8,1.8,14-4.5,19.3
		c-1.1,0.9-1.2,2.3-1.2,3.7c0,10.6-0.1,21.2,0,31.8c0,1,0.2,2,0.8,2.8c0.4,0.3,0.7,0.7,1,1.1c3.6,5.6,9.8,9,12.7,15.2
		c0.7,1.4,2.3,0.9,3.6,0.8C393.1,229.5,393.5,229.7,393.8,230z"/>
	<path class="st10" d="M452.9,298.3c-0.1,0.3-0.3,0.6-0.6,0.7c-1.7-1.1-2.8-2.7-4.3-4c6.4-7.3,12.9-14.4,20.4-20.7
		c2.4-2,1.7-3.7-0.2-5.5c-5.1-5-10.1-10-15.1-15.1c-1.1-1.1-2.7-2-3.1-3.7c2-1.6,3.6-0.7,5.2,0.8c2,1.8,2.7,0.9,2.9-1.4
		c0.2-2.1-0.6-4.2,0-6.3c0.6-0.3,1.3-0.7,1.9-1c3,2.8,2.3,6.6,2.5,10.1c0.1,2.6-0.3,5.3,2.5,6.9c5.4,6.7,12,12.1,17.7,18.5
		c0.8,0.9,1.6,1.9,2.8,0.8c3.5-3,6.6-6.4,9.8-9.7c1.3-1.4,0.4-2.4-0.6-3.3c-0.3-0.4-0.6-0.8-0.9-1.3c-0.8-4.8-2.9-9.7,1.5-13.9
		c2.6,1.3,4.5,3.4,6,5.9c0.1,0.2,0.1,0.3,0.2,0.5c0.9,2.6-4,2.6-2.5,5.1c1.1,1.8,3.9,1.7,5.2,3.5c1.6,2.2,0,3.6-1.3,5.2
		c-2.5,3.1-5.5,5.7-9,7.9c1.6,1.3,2.3,0.8,2.7,0.1c1.8-3.4,4.5-6.1,7.2-8.8c1.9-1.8,1.9-3.3-0.1-4.9c-3.2-4-3.2-4.7,0.5-5.7
		c3.4,2.1,5,5.7,7.6,8.4c1.2,1.3,1.1,2.6,0.5,4.1c-1.2,2.8-1.8-0.4-2.8-0.3c-1.3,0-2.6,0.1-3,1.3c-0.6,2.3-1.7,3.5-4.2,4
		c-1.4,0.3-1.6,2-0.9,3.4c0.6,1.1,2.7,1.8,0.6,3.5c-1.4,1.1-2.5,2.5-4.6,1c-1.1-0.8-2.8-0.8-4.2-1.2c-2.3-0.3-3.5,0.8-3.9,3
		c1.1,2.4,2.7,1.9,4.3,0.7c1.3-1,3-1.4,4-0.1c1.1,1.5-0.8,2.3-1.6,3.1c-1.6,1.6-2.9,3.4-5.7,3.3c-3.5-0.2-1.4,3.8-3.3,5
		c-1.2,0.9-2.2,0.8-3.2-0.3c0.3-3.7-2.5-4.7-5-5.9c-3.8-3.4-7.7-6.7-11.6-10c-0.9-0.7-1.8-0.7-2.6,0.2c-2.3,3.2-5.3,5.9-7.6,9.1
		c-0.3,0.4-0.6,0.7-0.9,1C453.6,293.5,454.9,296.6,452.9,298.3z"/>
	<path class="st8" d="M277,126c-0.3,6.1-0.5,12.2-0.9,18.2c-0.2,3.5-1.7,6.2-5.1,7.7c-1.3-2.6-1.6-5.5-2.9-8
		c-0.6-1.4-1.7-2.5-2.7-3.6c-0.4-0.6-0.7-1.2-0.8-1.9c0.1-0.5,0.3-0.9,0.6-1.2c2.1-1.6,2.4-4.5,5-5.9c2.1-1.1-0.2-2.9-0.4-4.3
		c0.4-3.7,3.9-5,5.9-7.6c1.2-1.6,3.3-2.2,4.7-3.6c0.5-0.5,0.8-1.2,0.1-1.7c-0.6-0.5-1.3-0.2-1.7,0.4c-1.1,1.8-1.9,3.9-3.6,5.3
		c-2.9,2.3-4.6,6.3-9,6.3c-1.2,0-2.6-0.1-3-1.2c-0.6-1.6,0.7-2.3,2-2.8c3.4-0.1,6-0.8,3.5-4.9c-1.3-2.1-0.1-3.1,1.5-3
		c3.8,0.2,5.7-2.3,7.9-4.6c4.1-4.4,9.7-7.7,10.4-14.5c0-0.4,0.8-0.8,1.6-1c-1.2,3.7,2.1,8.6-3.5,11c-1.4,0.6-1.1,2.8,0.4,3.8
		c1.4,0.9,2.9,0.8,3.9-0.8c0.4-0.7,0.6-1.6,0.5-2.4c-1-8.3,3.5-13.8,9.4-18.5c3.8-3,6.3-7.8,11.7-8.8c0.8-0.1,1.6-0.1,3.5-0.3
		c-3.7,3.6-5.7,7.6-10.3,8.6c-1.5,0.3-2.4,1.3-2.2,2.8c0.2,1.4,0.9,2.5,2.6,2.6c1.5,0.1,2.8-0.7,2.9-2.1c0.2-2.9,2.5-4.2,4.1-6
		c1.6-1.7,3-4.2,5.5-0.8c0.8,1,2.2,0.6,3.1-0.3c1.3-1.3,2.4-0.7,3.4,0.3c0.3,0.4,0.3,0.9-0.1,1.3c-5.8,2.6-11.8,4.8-15.7,10.2
		c-2.1,1.8-4.7,1.2-7.2,1.4c-2,0.1-4.2-0.1-5.1,2.7c3.2-4.7,9-0.9,12.6-4.3c2.1-1.9,3.9-4.2,6.1-5.9c3.1-2.4,4.9-1.6,6.1,2.4
		c-0.8,0-1.4,0.4-1.8,1.1c-1.7,3.4-4.3,5.8-7.5,7.8c-2.8,0.9-5.7,0-8.5,1c-5.4,4-9.5,9.2-14.4,13.8C285.3,118.3,282.2,123.3,277,126
		z"/>
	<path class="st11" d="M743.9,225.7c0.6,0.1,1,0.3,1.3,0.2c6-2.1,11.9-2.4,16.5,2.9c4.1,4.7,4.1,15.1,0.6,20.9
		c-1.8,2.9-4.5,4.4-7.6,5.3c-0.6,0.2-1.3,0.2-2,0.2c-16.5,1.5-16.8,1.2-16.8-15.1c0-7,0-14,0-21c0-2.8-1-5.9,4.1-5.8
		c5.3,0.1,3.7,3.4,3.8,6C744,221.4,743.9,223.6,743.9,225.7z"/>
	<path class="st8" d="M292,413.9c0.3-0.3,0.6-0.6,1-0.9c0.6,0.2,1.4,0.8,1.8,0.6c3.7-1.5,5.9-1.9,2.6,2.9c-0.8,1.1-0.2,2.3,0.8,3.1
		c1.2,0.9,2.7,1.1,3.6-0.3c1.8-2.7,2.7-1.1,3.9,0.4c1.6,1.9,3.2,3.9,5.1,5.5c2.9,2.3,2.8,4.3,0.1,6.6c-1.8,4.3-5.5,6.8-8.8,9.7
		c-1,0.8-3,0.5-2.7,2.9c2.2,0.4,2.3-1.9,3.4-2.7c0.5-0.1,0.9-0.1,1.3,0.1c2.7,4.3,2.7,4.4,5.1,0.1c1.1-1.8,2.6-3.3,4.4-4.5
		c1-0.7,2.9-0.5,3.1-2c0.3-2.1-2-1.6-3.1-2.5c-0.2-0.4-0.2-0.9,0.2-1.2c7.9-8.5,15.8-17,23.8-25.4c1.9-2,4.6-1.6,7.1-1.3
		c0.8,2.2-1.3,2.8-2.3,3.9c-4.5,4.6-8.8,9.4-13.7,13.6c-4.8,4.2-7.5,9-7.2,15.4c-3.8,4.5-7.9,8.6-12.8,12c-2.3,0.7-4.8,0.1-7.1,0.7
		c-0.9,0.3-1.9-0.4-2.7,0.4c-4.6-2.5-5.6-7.7-2.8-14.7c1.3-2.2,4.3,1.2,5-1.3c0.8-2.8,2.2-5.7,1.3-8.9c-1.4,3.5,0.1,9-6.4,8.6
		c-0.7-2.2-2.4-2.2-4-1.3c-1.6,0.9-1.7,2.5-0.6,3.9c1.7,2.2,1.4,4.7,1.1,8c-2.9-3.2-6.9-4.7-6.6-9.5c0.2-3.8,2.2-6,6-6.9
		c1.7-0.4,2.5-1.6,2.2-3.3c-0.2-1.3-0.9-2.2-2.2-2.4c-1.8-0.2-3,0.8-3,2.5c-0.1,2.3-1.7,3.6-3.1,4.8c-0.9,0.8-1.3,2.8-2.9,2
		c-1.8-1-1.6-2.7-0.8-4.4c1-3,3.7-4.5,5.7-6.7C289.9,419.3,293.3,418,292,413.9z"/>
	<path class="st12" d="M406.1,191.9c-1.6,2.5-3.7,4.6-6.2,6.2c-1.9,0.4-3.2-0.5-4.1-2c-1.1-1.9-2.7-3.3-4.9-2
		c-2.1,1.3-0.9,3-0.1,4.7c1.3,2.6,1.4,5.5-0.2,8.1c-1.6,2.6-1.4,4.5,1.9,5c2.2,0.4,1.3,1.9,1.3,3c-0.4,0.3-0.9,0.4-1.4,0.2
		c-2.3-1-5.2-1.2-6.2-4.1c-0.4-4.5,0-9-0.2-13.4c-0.2-2.9,0.8-5.3,3-7c2.6-2.1,3.2-4.7,3.1-7.9c-0.1-7.4-0.3-14.9,0.1-22.3
		c-0.1,7.7-0.2,15.3-0.1,23c0,2.6-0.4,4.9-2.6,6.6c-2.8,2.3-3.8,5.2-3.5,8.8c0.4,4.4-0.6,8.9,0.6,13.4c1,1.4,1.8,2.9,0.7,4.6
		c-4.3,0.3-5.7-3-7.4-6c-0.7-11-0.2-22-0.3-32.9c0-1.5,0.4-3,1.1-4.3c0.6-1.3,1.7-2.4,2.7-3.3c1.3-0.9,2.4-2,2.1-3.6
		c-1.2-7.2,1.5-12.6,7.5-16.6c3.5,0.9,4.5,2.9,4.3,6.8c-0.3,7.1,0.3,14.2,0.7,21.3c0.2,2.9,2.3,4.1,4.9,4.8c1-0.4,1.4,0.2,1.8,0.9
		c0.6,1.9-0.1,3.5-1.5,4.8c-1.4,1.5-2.6,0.4-4-0.1c-0.8-0.3-1.8-0.5-2,0.5c-0.2,1.3,1,1.5,2,1.4c1.5,0,2.9-0.5,3.9-1.7
		c1.3-1.3,2.7-2.1,4.5-1.3c0.4,0.3,0.7,0.7,0.8,1.1C408.7,190.5,407,190.9,406.1,191.9z"/>
	<path class="st7" d="M383.9,315.8c-6.3-6.7-12.7-13.3-19-20c-4.3-6.7-2.4-14.2-2.6-21.5c-0.1-2.6,2.1-1.7,3.7-1.3
		c1.5,7.9,1.5,8.1,10,7.8c5.7-0.2,11.5,1.2,17.1-0.9c0.2-0.5,0.5-0.5,0.7,0c0.2,2.8,1.3,5.9-3.1,7c-1.3,0.3-1.5,2.1-0.7,3.5
		c2.7,4.7,1.5,9.6,0.9,14.5c-0.2,0.5-0.3,1-0.7,1.3c-1,1-1.5,3.1-3.3,2.4c-1.4-0.5-1-2.3-1.1-3.6c0-5,0-10,0-14.9
		c0-2.1,0.1-4.1-2.9-4.2c-2.9-0.1-3.1,1.8-3.1,4c0,3.2,0.1,6.3-0.1,9.5c-0.1,2.3-1,3.6-3.4,2c-3.8-2.8-2.2-6.9-2.5-10.5
		c-0.2-1.7,0.4-3.8-1.8-4.7c-2.1-0.9-3.4,0.4-4.7,1.7c-0.5,0.8-1.6,1.6-0.3,2.5c0.9,0.6,1.4-0.4,1.8-1.1c0.4-1.4,0.7-3.2,2.7-2.7
		c1.6,0.4,2.2,1.8,2.3,3.4c0.1,2.1,0.1,4.3,0,6.4c-0.1,2,0.7,3.4,2.2,4.7c2.1,2.1,3.7,2.7,3.8-1.2c0.1-3,0-5.9,0-8.9
		c0-2.1-0.2-4.7,2.9-4.8c3.6-0.1,3.1,2.7,3.1,5c0.1,4.8,0,9.6,0,14.4c0,1.2-0.6,2.9,0.9,3.6c1.7,0.8,2-1.3,3-2
		c0.7-0.5,1.4-0.9,2.2-1.2c0.3-0.2,0.6-0.3,0.9-0.5c0.9,3.5,0.8,7,0,10.6C389.9,317.6,386.9,317.2,383.9,315.8z"/>
	<path class="st9" d="M585.5,222c-5.6-1.3-11.2-2.9-17.1-1.2c-6,1.8-9.3,6.3-9.3,13.1c0,7.4,3.5,12.5,9.6,14.1
		c4.7,1.2,9.2,0.6,13.8-0.5c1.1-0.3,2.9-1.5,3.2,0.4c0.3,2,1.6,5-1.3,6.1c-7.8,2.9-22.5,2.8-28.9-5c-5.7-7-6.4-21.6-0.7-28.6
		c6.6-8.1,15.9-8,25.2-6.7C586.5,214.7,586.5,214.9,585.5,222z"/>
	<path class="st9" d="M616,213.6c-5.7,9.1-10.8,17.4-15.8,25.5c0.4,0.5,0.5,0.8,0.6,0.8c10.4,1,10.5,1,10.5-9.5
		c0-2.9,0.2-4.6,3.9-4.5c3.5,0.1,4.5,1.1,4.4,4.6c-0.1,4.6-1.6,9.8,3.4,13.2c0.8,0.5,1.1,2.2-0.3,2.3c-4.5,0.2-3.3,3.5-3.1,5.8
		c0.2,3.6-2,3.4-4.4,3.5c-2.6,0.1-4.4-0.4-3.8-3.5c0.8-4.8-1.4-6.1-5.8-5.6c-3.5,0.3-7,0.1-10.5,0.1c-4.7,0-6.5-2.3-4.1-6.4
		c4.9-8.5,10.2-16.7,15.7-24.9C608.7,212,612.1,213.7,616,213.6z"/>
	<path class="st11" d="M728.9,243c0,2.7,0,5.3,0,8c0,4.3-1.9,5.7-5.3,3.5c-2.1-1.4-3.5-0.9-5.3-0.2c-3.4,1.4-6.9,1.2-10.3,0.5
		c-4-0.8-6.3-3.7-6.6-7.7c-0.3-4.1,0.9-7.5,5.2-9.2c3.3-1.3,6.8-1.4,10.3-1.4c1.4,0,3.6,1.8,3.9-1c0.3-2.6-1.4-4.1-3.8-4.3
		c-3-0.2-5.9-0.1-8.9,0.4c-1.4,0.3-3.8,2-4.1-1.4c-0.2-2.5-0.1-4.7,3.2-4.9c2.6-0.2,5.3-0.8,7.9-0.8c10.5-0.1,13.9,3.4,13.9,14.1
		C728.9,240,728.9,241.5,728.9,243z"/>
	<path class="st13" d="M337,104.1c1.6-1.2,3.1-2.3,4.7-3.5c1.3-0.9,2.2-0.1,2.8,0.9c0.9,1.6-0.8,1.2-1.5,1.5c-3,1.2-2.2,3.1-1,5.1
		c0.3,0.8-0.2,1.3-0.8,1.7c-0.7,0.6-2.1,0.7-1.9,1.9c0.1,1,1.3,0.9,2,0.7c2.5-0.5,4.5,0.1,6.2,1.9c2.4,2.3,4.2,5,6.1,7.6
		c0.6,1.9,1.4,3.7,3.6,4.3c1.3,0.5,1.8,1.9,2.9,2.7c2.3,1,3.2,0.3,2.6-2.2c-0.6-2.6-1.7-5-1.8-7.7c0.4-0.3,0.8-0.3,1.2,0.1
		c3.3,3.3,6.7,6.5,9.9,9.8c0.7,0.7,2.2,1.5,1,2.8c-1,1-2,2.3-3.8,0.8c-2.6-2.1-4.5-1-4.9,2c-0.4,3.5-2.8,2-4.5,2.2
		c-1.8,0.3-2.7-0.7-2.7-2.6c0-1.6,0.4-3.5-1.9-4c-1.2-0.2-2.4-0.2-3,1.1c-1,1.9-0.1,3.4,1.4,4.9c-2.2-0.3-6.1,4.4-5.8-2.4
		c0.1-1.7-1.9-3.3-3.6-2.1c-4.1,3-4.1-0.6-5.1-2.8c-0.6-0.6-0.7-1.1-0.1-1.8c0.9-1.5,1.6-3,0-4.4c-1.3-1.2-2.6-0.7-4.1,0
		c-2.7,1.2-5.5,0.3-8.3,0.1c-2.5-0.1-5.2-0.7-6-3.4c-0.7-2.4,2.5-2.6,3.3-4.3c1.2-3.1,4.2-4.4,6.5-6.5
		C332.4,106.6,334.4,104.8,337,104.1z"/>
	<path class="st13" d="M229.1,175c2.1,2.3,4.1,4.8,6.5,6.8c3.5,2.9,2.9,5-0.6,7.2c-0.8,0.3-1.3-0.2-1.8-0.8c-3.3-5.6-4-5.8-8.7-1.6
		c-1.6,1.4-3,3.1-4.7,4.5c-0.7,0.6-1.6,1.4-2.7,0.8c-1-0.5-1.1-1.6-1.1-2.6c-0.1-1.8,0.5-3.2,1.8-4.5c1.7-1.6,3.3-3.3,4.9-4.9
		c1.4-1.4,1.3-2.6-0.2-3.8c-1.5-1.1-3.1-2.1-5-1.1c-0.5,0.2-0.7,0.8-0.4,1.3c0.4,0.7,1,0.7,1.7,0.5c1.5-0.5,3.2-1.9,4.4,0.2
		c1.3,2.3-1,3.2-2.1,4.5c-2.1,2.5-5.3,4.2-5.6,8c-0.1,1.3-0.7,2.9,0.6,3.7c1.4,0.9,2.4-0.6,3.3-1.5c2.3-2.1,4.5-4.4,6.9-6.5
		c2.3-1.9,3.8-1.6,5.2,0.7c0.4,1,0.2,2.1-0.4,2.8c-4.4,4.7-8.3,9.9-14.1,13.2c-1,0.7-2.7,1.3-1.2,2.9c0.7,0.7,3.2,0.3,1.2,2.3
		c-1,1-1.7,2.8-3.5,2.4c-1.4-0.4-1.5-2-1.5-3.4c0.1-9.8,0.1-19.6,0.2-29.4c0-2.4,1.4-3.9,2.9-5.5c3.3-3.7,7.6-6.4,10.1-10.8
		c3.3-0.5,3.5,1.7,3.6,4c-0.4,1.6-1.7,2.5-2.7,3.8c-0.7,0.9-0.7,1.7,0,2.6C227.1,172.2,228.5,173.3,229.1,175z"/>
	<path class="st9" d="M672,234.1c0-5.8,0.2-11.6-0.1-17.4c-0.1-3.4,1.8-3.2,4.1-3.3c2.3,0,4.1,0,4,3.3c-0.2,9.3,0.1,18.6-0.1,27.9
		c-0.1,3.1,0.9,4.1,4,3.9c3.1-0.2,6.3,0.1,9.5-0.1c2.8-0.1,3.3,1.3,3.3,3.7c0,2.4-0.8,3.2-3.2,3.2c-6.1-0.1-12.3-0.1-18.4,0
		c-2.5,0.1-3.1-0.9-3.1-3.2C672,246,672,240,672,234.1z"/>
	<path class="st13" d="M170.4,319c-3.4-3.3-7.6-5.9-9-10.8c-0.5-1.8-2.2-2.6-4-1.3c-1.3,1-2.3,2.4-3.7,0.2c-0.9-1.5-3.4-2.1-1.1-4.7
		c1.7-1.9,0.4-3.8-2.1-4.3c-1.6-0.3-3.3-0.2-4.9-0.6c-1.8-0.4-4.6-0.6-2-3.6c0.8-0.9,1.1-2.8,0.2-3.1c-4.6-1.6-3.5-5.5-3.9-8.9
		c-0.1-1.2-0.8-2.1-1.9-2.8c-2.5-1-4-3.1-5.9-4.9c-2.7-4.5-2.4-5.7,1.9-6.8c0.1,0.5,0.1,1.1,0.4,1.4c5.2,4.6,9.2,9.8,8.9,17.2
		c2.3,1,3.8,3.1,5.6,4.7c5.7,5.4,10.7,11.4,16.9,16.2c1,0.8,2.1,1.7,1.9,3.3c0.9,1.6,2.3,2,4.1,2.1c7.1,0.6,14.4-1.8,21.3,1.6
		c0.5,0.3,1.9-0.2,2.2-0.7c1.4-2.4,2.3-1,3.5,0.1c2.2,2,0.1,2.7-0.9,3.8c-0.5,0.9-0.3,2.4-2,2.3c-5.5-1.6-8.8,2.5-12.8,4.9
		c-0.4,0.1-0.9,0-1.3-0.2c-1.3-1.7-3.3-2.6-4.7-4.2c0-1.6,0.1-3.3-2-3.9c-2.6-0.7-3.3,1.4-4.3,3C170.7,319,170.5,319,170.4,319z"/>
	<path class="st14" d="M172.2,247c0.4,0,0.8,0.1,1.2,0.1c-0.9,2,0.8,6.6-4.5,4.1c-1.3-0.6-3,1.3-2.7,2.2c1.8,4.7-1.9,6.4-4.2,8.9
		c-4.7,5.1-4.8,5.1-9.9-0.2c-2.7-2.8-5.9-5.2-7.1-9.4c-0.7-2.5-3.2-2.8-4.5-0.7c-2.1,3.5-3,3.4-4-0.5c-0.2-0.8-1.4-1.3-2.8-2.5
		c5.4-1.4,10.1-1.4,14.7,0.1c1.9,0.6,3.3,1.6,4.8-0.3c0.8-1.1,0.8-2.2-0.1-3.2c-1.4-1.5-2.9-1.2-4.4-0.2c-3.3,2.1-6.7,0.1-10.2-0.1
		c5.5-0.9,8.6-8,15.3-5.4c2.5,0.7,3.8,2.6,4.8,4.8c0.5,0.8,0.7,1.9,2,2c0.5,0,1-0.4,1-0.9c0.2-1.9-1.7-1.7-2.7-2.3
		c-1.8-1.2-3.3-2.6-4-4.8c0-1-2.4-0.6-1.3-1.8c1-1.1,2.5-2.8,4.2-1.2c3.1,2.9,7,5.2,8.4,9.4C167.7,249.1,169.5,249,172.2,247z"/>
	<path class="st15" d="M403.9,380.7c0,0.4,0.1,0.8,0.1,1.2c-2.7,4-6.5,7-10.3,10.9c-1-4-0.4-7.6-0.5-11.1c0-2-0.5-3.5-2.3-4.5
		c-1-0.5-2-1.3-3.2-0.4c-1,0.7-1.8,1.6-1.5,2.9c0.3,1.2,1.1,2,2.4,2.3c5.4,1.5,1.8,5.8,2.4,8.7c0.7,2.9-2.2,2.1-3.8,2.2
		c-2,0.1-4,0-6,0c-0.2-2.3,1.5-2.5,2.9-2.7c1.7-0.2,2.9-1,2.9-2.8c0-1.6-1-2.5-2.4-2.7c-1.7-0.2-3,0.7-3.2,2.4
		c-0.3,2.8-1.2,3.5-3.7,1.9c-1.2-0.7-2.6,0.1-3.6,1c-1.6-4.5-1.6-4.5-5.8,0.1c-1.8,0.7-2.5,3.2-5.5,2.5c2.9-3.1-1.3-7.6,2.8-10.5
		c1.6-3.8,4.9-3.1,8-2.9c1.5,0.1,3,1.4,5.2-0.5c-4.7-0.5-8.7,1-12.6,0.2c-0.2-3.8,1.5-5.5,5.3-4.9c3.6,0.5,7.3-0.8,11,1.4
		c2.7,1.6,3.5-1.1,3.8-3.4c0.3-0.4,0.6-0.8,0.9-1.2c2.2,1.2,4.3,1.6,6.1-0.7c1,0.4,2,0.8,3,1.1C395.3,375.2,398.3,379,403.9,380.7z"
		/>
	<path class="st8" d="M152,284.1c-2.2-2.1-3.5-4.6-3.2-7.9c0.5-5-3.5-7.5-6.5-10.5c-2-2-3.7-4-1.1-6.7c0.8-0.1,1.4,0.1,0.9,1.1
		c0,3.2,2.2,3.7,4.7,3.9c2.1,0.4,3.3,2,4.7,3.4c1.8,2.1,4.3,3.7,5.5,6.4c3.7,4.2,8.5,7.6,7.4,14.6c-0.4,2.8,3.2,4.7,5.4,6.6
		c3.3,1.3,5.6,3.7,7.1,7c1.2,1.8,3.3,1.3,4.9,2c0.7,1.1-0.3,1.4-0.9,1.8c-5.9,1.6-9.1-2.8-12.9-6C161.7,295.7,156.6,290.1,152,284.1
		z"/>
	<path class="st16" d="M456.2,234.1c-3.9-2.6-6.8-6.1-9.2-10.1c-4.7-3.7-8.6-8.3-12.9-12.5c-1.5-1.5-2.4-3.3-2.1-5.4
		c0.7-4.3-1-7.4-4.3-9.9c-4.8-3.6-3.3-8.4-2.6-13.1c0-0.2,0.5-0.1,0.9,0c1.6,2.3,0.7,5.9,3.9,7.3c2.4-0.1,3,2.3,4.7,3.3
		c0.5,0.5,1,1,1.3,1.6c1.3,2.2,1.3,4.6,1.3,7.1c0,2.4,0.7,4.5,2.9,5.8c6.5,6,12.6,12.5,18.9,18.7c0.9,0.9,1.9,1.8,2.1,3.2
		c0,3.3,2.6,2.6,4.6,2.9c3.3,0.4,6.9-1,10,1.2c0.3,1.3-0.6,1.3-1.4,1.3c-5.1-0.1-10.2,0.4-15.4-0.3
		C458,234.8,457.1,234.5,456.2,234.1z"/>
	<path class="st10" d="M484,297.2c0.7,1,1.8,0.8,2.8,0.7c-4.3,1-8.6,2-12.8-0.3c-1.4-0.8-2.7-0.3-3.5,0.8c-0.9,1.1-0.8,2.5,0.3,3.6
		c1.1,1.1,2.4,1.3,3.5,0.2c2.1-2.1,4.6-1.3,7.1-1.2c-2.8,6-4.9,6.7-12.4,4c-1.9-1.2-1.7-4.6-5.1-4.9c0.5,3.4,4.1,2.8,5.2,4.8
		c0.1,1.4,0.9,2.3,2,3.1c0.6,0.7,0.6,1.4,0.1,2.1c-3.6,3.2-5-2.5-8-1.9c-0.7-1.4-2.7-1.6-3.1-3.3c-3.7-3.9-3-9.2-3.9-13.9L456,291
		c3.1-3.1,5.6-6.8,9.1-9.6c0.7-0.2,1.4-0.1,2.1,0.2c2.2,1.2,4,2.9,5.7,4.7c0.6,0.7,1.7,1.4,1.1,2.5c-0.5,1-1.6,1-2.6,1.2
		c-2.3,0.4-4.7-1.1-7,0.1c4.7-0.2,9.1,3,13.9,1.2C480,293.4,481.1,296.3,484,297.2z"/>
	<path class="st17" d="M213.2,363.9c2.1,0.5,2.9-1.2,4.1-2.3c4.1-4.1,8.1-8.3,12.2-12.4c0.9-0.9,1.7-2.6,3.1-2
		c1.5,0.6,2.8,1.9,2.6,3.9c-0.2,2.4,0.9,3.3,3.3,4c5.3,1.5,9.9,8.5,9.6,13.8c-3.2,0.4-4.3-2.4-6.1-4c-1.8-1.6-3.5-3.4-5.2-5.1
		c-1.3-1.3-2.5-2.9-4.2-3.9c-1.4-0.8-2.3,0.2-3.1,1.1c-1.7,2-0.6,3.3,1,4.5c2.3,1.9,4.4,4,6.4,6.2c0.7,0.8,1.7,1.8,1.1,3
		c-0.7,1.4-2.2,1.4-3.5,1.3c-3.7-0.3-6.3-2.7-8.7-5.2c-2.1-2.2-4.1-2.5-6.5-0.8c-1.7,0.9-1,2.8-1.7,4.7c-2-2.2-3.8-4-5.5-5.8
		C211.9,364,212.2,363.5,213.2,363.9z"/>
	<path class="st18" d="M461.2,230.1c-7.6-6.6-14.7-13.7-21.3-21.3c-2.5-1.9-3.1-4.4-2.9-7.4c0.1-2.3,0.3-4.6-1.8-6.3
		c-0.5-0.5-0.9-1-1.4-1.4c-1.3-1.5-2.7-3-3.8-4.7c-0.3-1.2-1.7-2.2,0.2-4.4c4.6,4.8,9.2,9.6,13.8,14.4c0.3,0.2,0.4,0.5,0.3,0.8
		c0,0.3-0.1,0.4-0.1,0.4c-1,1.4-3.7,2.9-0.6,4.5c2.1,1.2,3.2,7.1,7.1,2c0.5-0.2,0.9-0.1,1.2,0.2c2.6,2.2-0.2,5.7,2,8
		c4.8,3.3,9.2,7,11.8,12.3c1.3,2.1,4.6,0.5,5.9,3.6C468,231,464.6,231.5,461.2,230.1z"/>
	<path class="st17" d="M167,301c3.9,5.6,9,8.3,16,6.9c1.4-0.3,3-0.2,4.1,1.1c0.1,1.4-0.9,1.6-1.9,1.5c-4.7-0.1-9.5,0.4-14.2-0.3
		c-0.6-0.1-1.1-0.2-1.7-0.3c-7.8-5.4-13.8-12.8-20.6-19.3c-1.6-1.9-4.1-3.1-4.4-5.9c1.7-7.8-3.5-12.1-8.3-16.7c0-2.8-2-5.8,1.1-8.2
		c0.8,3.5,2.3,6.4,5.4,8.5c3,2.1,4.7,5,4.2,8.9c-0.4,3.5,1.2,6.1,4.2,7.8C157.2,289.5,162.5,294.9,167,301z"/>
	<path class="st7" d="M384.1,170.9c-0.4,1.1-1.2,1.8-2.3,2.2c-1.4,1.4-1.8,3.1-1.8,5c0.1,11.1-0.2,22.3,0.2,33.4
		c1.2,2.4,3.3,3.9,5.1,5.7c1.2,1.3,2.6,2.4,2.5,4.4c-0.1,0.5-0.3,0.9-0.5,1.4c-2.9,0.7-3.8-1.9-5.4-3.3c-2.1-1.8-3.9-3.8-5.9-5.8
		l0.1,0.1c-1.9-1.5-2.1-3.6-2.1-5.9c0-10,0.1-19.9,0-29.9c0-2.5,0.4-4.7,2.5-6.2c3.2-2.3,3.9-5.5,3.6-9.2c-0.2-3.2-0.2-6.3,1.6-9.1
		c0.7-1.3,1.7-2.3,3.3-2.6c0.7,0,1.3,0,2-0.1c0.3,0.4,0.9,0.9,0.7,1.2c-2.7,5.3-1,11.2-2.1,16.7
		C385.4,169.8,384.6,170.3,384.1,170.9z"/>
	<path class="st19" d="M482.2,278.1c-6.1-5.6-12.7-10.7-17.1-18c-3.5-2.9-2.6-6.7-1.8-10.3c2.1-2.1,2.8,0,3.4,1.4
		c0.6,1.7,0.7,3.6,2.3,4.7c2.9,3.9,6.3,7.3,10.2,10.2c1,1.1,2.1,2.1,3.1,3.2c1.8,2.1,3.3,1.5,4.8-0.3c0,0-0.1,0.1-0.1,0.1
		c1.1-0.2,2-0.6,2.2-1.9c0.7-5,0.1-9.9,0.3-14.9c0.1-1-0.9-2.7,1.2-3c0.4,0.3,0.7,0.7,1.1,1c2.1,2.4,0.9,5.3,1.1,8
		c0.2,2.5,0,4.9,2.1,6.7l-0.1-0.1c1.4,0.9,2.3,2.1,0.9,3.6c-3.3,3.5-6.6,6.9-10.2,10.1C484.3,279.9,483.2,279,482.2,278.1z"/>
	<path class="st20" d="M381.9,252.6c-1.1,0.9-2.9,1.7-2.8,3.3c0.7,5.5-3,4.7-6.3,4.7c-10.8,0-10.8,0-10.8-10.7
		c0-5.3,0.5-10.7,0.1-16c-0.2-2.9,2.2-4.4,2.3-6.8c0.3-1.4,1.3-2.2,2.6-2.7c0.8-0.1,1.6,0,2.2,0.7c0.8,1.6,0.2,3.1-0.5,4.6
		c-1.3,7.2-0.3,14.5-0.5,21.8c-0.1,2.8,1.9,3.1,4.1,3c4.4-1,6.3-5.2,9.5-7.7c1.6-1.2,2.6-3.6,5.3-2.7
		C388.1,248.7,387,250.5,381.9,252.6z"/>
	<path class="st14" d="M328.8,99.2c-1.6,0.3-2.9,1-3.3,2.6c-1.5,5.6-6.6,8-10.2,11.8c-0.6,0.6-1.3,1.2-2.1,0.6
		c-1-0.7-0.1-1.5,0.1-2.2c0.6-2-0.2-3.3-2.1-3.7c-1.7-0.4-3,0.6-3.2,2.3c-0.2,1.6-0.9,2.2-2.5,2.5c-2.6,0.5-3.3,2.4-1.7,4.4
		c1.6,2,0,3.2-1.1,3.3c-5.8,0.3-8.2,5.1-11.7,8.4c-1,2.3-2.7,4-4.9,5c-1.7,1.2-0.2,4-3,5.1c0-3.1,0-6,0-8.9c0.3-1.1,0.6-2.2,1.5-3.1
		c7.1-7,13.6-14.5,21.6-20.6c1.1-0.8,2.2-1.7,3.6-1.6c5.9,0.5,9.9-2.8,13.8-6.7c3.1-3.2,4.6-2.8,6.6,0.8
		C329.7,99.5,329.3,99.5,328.8,99.2z"/>
	<path class="st21" d="M321.1,93.1c1.3-0.3,2.5-0.7,3.8-1c1.5,1.3,4.7-0.8,5.1,1.6c0.4,2.5-3,1.9-4.5,3c-1.2,0.9-2.3,2-3.2,3.1
		c-2.6,3.1-5.7,4.9-9.9,4.6c-2.6-0.2-4.6,1.1-6.6,2.8c-6.5,5.9-12.5,12.3-18.8,18.4c-1.4,1.4-2.7,2.9-4.7,3.5
		c-2.2,2.3-1.1,5.2-1.3,7.9c-0.1,2.1,0.1,4.2-0.9,6.2c-1.1,0.1-1.5-0.5-1.5-1.4c-0.1-4.8,0-9.6,0-14.4c0-1.7,1-2.7,2-3.8
		c2.8-2.8,5.6-5.6,8.4-8.4c5.2-4.9,9.7-10.5,15.4-14.8c2.9-0.6,5.8,0.2,8.7-0.5C316,97.8,317.6,94.3,321.1,93.1z"/>
	<path class="st22" d="M404.1,184.2c-0.4-0.4-0.8-0.8-1.1-1.2c1.4-1,2.7-2.1,2-4c-0.5-1.4-1.7-2.2-3.1-1.7c-1.9,0.6-1.9-0.5-1.9-1.7
		c-0.2-5.3-0.5-10.6-0.6-15.9c0-1.1-0.8-3.1,1.3-3.1c1.3,0,2.2,1.4,2.8,2.6c0.6,1.1,0.3,2.3-0.4,3.3c-1.3,2-1.6,3.9,1,4.8
		c2.5,0.8,3.5-0.9,3.6-3.2c2.1,0.2,2.7,2.1,3.9,3.1c2.4,2,1.8,3.7-0.6,5c-1.6,0.9-3,1.7-2.2,3.8c0.5,1.3,1.6,2.3,3.1,1.8
		c1.8-0.5,2.7-1.9,2.2-3.8c-0.3-1-0.3-2.1,0.8-2.6c1.1-0.5,1.6,0.8,2.4,1.3c2.8,1.8,4.1,4.6,4.9,7.7c-0.6,0.7-1.1,1.3-1.7,2
		c-2.2-2.1-3.9-2.5-5.3,0.9c-0.7,1.6-1.9,3-3.8,3.6c-0.7,0-1.3-0.4-1.7-0.9C408.3,182.8,405.9,184.4,404.1,184.2z"/>
	<path class="st17" d="M270.1,152c-0.5,2.7-2.8,3.8-4.9,3.7c-6.4-0.4-12.8,0.6-19.1-0.7c-3.2-1.3-3.4-3.5-1.3-5.8
		c4.1-4.5,8.3-8.9,13-12.9c2.9-2.4,5.3-1.7,7.3,1.7l0.1-0.1c-3.8,4.6-8.7,8.2-12.6,12.8c4.6-2.9,6.2-9.5,12.6-10.2
		c1.8,1,2.9,2.4,3.5,4.4C267.8,147.5,266.2,150.4,270.1,152z"/>
	<path class="st17" d="M196.3,319c0.5-0.7,1-1.3,1.6-2c3,8,1.8,16.3,2,24.6c-2.2,4.4-3.3,4.8-6.7,1.6c-3-2.8-5.8-5.8-8.7-8.6
		c-1.7-2.1-4.2-3.6-5.2-6.2c-0.2-2.2-0.4-4.4,2.9-4.4L182,324c2.4,0.9,3.8,3,5.6,4.7c1.4,1.5,3,2.8,4.1,4.5c0.2,0.4,0.4,0.9,0.6,1.3
		c0.4,0.9,0.9,1.8,2.1,1.6c0.3-0.1,0.6-0.4,0.6-0.7c0.1-1.2-0.9-1.6-1.8-2.1c-0.4-0.2-0.9-0.4-1.3-0.6c-1.7-1.3-3.1-2.9-4.7-4.4
		c-1.3-1.6-3.8-2.7-2.5-5.2c1.4-2.6,3.7-3.7,6.6-2.4C193.7,321.5,194.8,319.7,196.3,319z"/>
	<path class="st23" d="M245.1,155.9c1.7,2.3,4.2,1.3,6.4,1.5c4.1,0.3,8.2-0.6,12.6,0.9c-2.1,2.6-4.7,1.4-7,1.7
		c-2.4,0.4-5-0.9-7.1,0.9c-0.7,1.8-1.8,3-4,2.5c-3.6-2.1-6.6-4.9-9.6-7.9c-2.3-2.4-2.3-4.2,0.1-6.7c5.6-5.7,11.7-10.8,17.1-16.7
		c2.4-2.6,5.5-2.7,8.7-2.3c1.1,0.1,2.5,0.2,2.7,1.7c0.1,1.3-0.8,2.4-1.8,2.7c-8.6,2.5-12.2,10.8-18.8,15.6
		C241.4,152.1,244.4,154,245.1,155.9z"/>
	<path class="st21" d="M247.1,370.8c1.2,1,2.5,2.6,3-0.4c0.2-1.4,0-3,0-4.5c2.2-0.2,2.9,1.6,4,2.7c1,0.9,3,1.8,2.2,3.4
		c-0.8,1.7-2.3,3.2-4.6,3.2c-9,0.1-17.9,0.3-26.9,0.4c-1.5,0-3.3,0-3.9-1.6c-0.6-1.5,1.5-1.1,2.2-2c1.9-2.9-0.1-3.8-2.1-5
		c0.2-3.2,1.8-3.1,3.9-1.5c1.3,1,2.3,2.4,3.6,3.4c1.3,1,2.4,2.6,4,2.9c1.9,0.3,4.6,1.1,5.7-0.4c1.3-1.9-1.4-2.9-2.5-4.1
		c-1.7-2-3.6-3.9-5.6-5.6c-1.7-1.4-2.2-2.9-0.7-4.7c0.7-0.7,1.4-1.3,2.5-1.2c2.1,0.8,3.2,2.6,4.8,4
		C240.1,363.4,244.3,366.4,247.1,370.8z"/>
	<path class="st16" d="M390,259.1c3.2,6,1.2,12.4,1.5,18.5c0.1,1.6-1.6,1.3-2.7,1.3c-5.7,0-11.3-0.1-17,0.1
		c-2.6,0.1-3.7-0.6-3.3-3.3c0.3-1.8-0.8-3.2-2.3-4.1c-0.1-1.2-0.1-2.4-0.2-3.6c0.4-0.3,0.9-0.5,1.4-0.5c5.5,1.9,11-0.3,16.5-0.1
		c1.9,0.1,1.6-2.1,1.9-3.5C386.3,261.5,386.4,258.8,390,259.1z"/>
	<path class="st17" d="M214.1,333.1c5.4-0.4,7.4,4.5,10.7,7.3c5.8,5.1,5.7,5.3,0.3,10.7c-1.4,1.4-2.8,2.8-4.2,4.2
		c-7.2,7.2-7.2,7.2-15.9,0.9c-0.2-0.2-0.4-0.5-0.3-0.8c0-0.3,0.1-0.4,0.1-0.4c2-0.8,4.3-1.4,4.7-4.1c2.1-3.2,5.4-5.3,7.5-8.5
		c0.9-2-0.9-2.9-1.6-4.2C214.4,336.7,212.7,335.3,214.1,333.1z"/>
	<path class="st16" d="M367.2,267.9c-0.4,0-0.8,0-1.2,0.1c-1.4-1.1-4.2-1-3.5-4c0.7-2.7,3-1.3,4.6-1.6c0.5-0.1,1,0,1.5,0
		c3.3,0,6.8,0.5,9.9-0.2c4.5-1,0.8-6.1,3.4-8.3c2.7-4.2,7.1-6.4,10.5-9.9c0.4-0.3,0.8-0.3,1.3-0.1c0.5,5.1,1.4,10.2-3.9,13.6
		c-3-0.2-5.3-0.5-4.2,4.1c1.2,5-0.2,5.8-5.3,6.3C376,268.5,371.6,266,367.2,267.9z"/>
	<path class="st23" d="M228.3,155.1c1.5-1.3,3-2.6,4.5-3.9c3.7,4,7.7,7.8,11.5,11.7c1,1.1,1.8,2,3.3,0.9c1-1,2.3-1.3,3.6-1.6
		c3.3,0,6.5,0,10.8,0c-2.8,2.5-3.7,6.5-8,2.8c-1.4-1.2-2.9,0.3-3.7,2.1c-2.7,6.3-3.1,6.4-7.8,1.6c-1.6-1.6-3.7-3-4.2-5.4
		c-0.4-2-1-3.8-3.4-3.1c-2.6,0.7-2.3,2.8-1.6,4.9c-2.5,0.4-2.1-1.7-2.5-3C231.4,159.1,228,157.8,228.3,155.1z"/>
	<path class="st17" d="M324.1,461c-1.6,1.3-3.1,2.8-4.9,3.9c-1.1,0.7-2.7,0.5-3.7-0.3c-1-0.8,0.2-1.7,0.6-2.5c0.3-1.8,1.6-2.9,2.9-4
		c5.2-4.4,10.1-9.2,14.5-14.4c4.1-4.8,8.6-6.2,14.4-5c1,0.8,0.3,1.8-0.3,1.9c-5.6,0.5-7.8,5.5-11.6,8.5
		C332.9,453.8,328.9,457.8,324.1,461z"/>
	<path class="st17" d="M205.1,354.9c0,0.4-0.1,0.9-0.1,1.3c-2.6-0.1-4.4-1.2-4.8-4.1c0.8-3.3,3.7-4.9,5.8-7.2c1.5-1.7,3.4-3.3,2.1-6
		c-3.2-3.9-1.9-8.4-1.8-12.8c0-1.2,1.3-3.2,2.2-2.7c2.2,1.1,4.5,2.6,4.8,5.6c0.1,1-0.2,1.9-0.3,2.9c-2.5,2.2-3.1,4,0.8,5.4
		c1.6,0.6,2.6,1.8,3,3.5c-0.5,4.7-4.8,6.4-7.4,9.4C206.9,350.9,206,352.8,205.1,354.9z"/>
	<path class="st24" d="M757.9,295.8c0-3,0-6,0-9c0-1.1-0.3-2.5,1.4-2.6c1.7-0.1,1.8,1.3,1.6,2.4c-0.7,4,1.5,3.9,4.5,3.8
		c4.4-0.2,7.1,2.1,7.7,6.7c0.6,5.5-1.2,8.9-5.7,10.1c-6.9,1.9-9.6,0-9.6-7C757.9,298.8,757.9,297.3,757.9,295.8z"/>
	<path class="st25" d="M649.8,300.6c0,0.8,0.1,1.7,0,2.5c-0.2,2.3,1.2,6-3.8,3.6c-0.9-0.4-2.5,0.8-3.8,1c-4.1,0.6-7.1-1.4-7.3-4.8
		c-0.2-4,2.4-5.3,6-5.9c1.7-0.3,4.9,1.5,4.9-1.3c-0.1-3.4-3.6-2.4-5.9-2.5c-1.1,0-2.9,1.5-3.2-0.7c-0.3-1.9,1.8-1.7,2.9-1.9
		C647.1,289.1,649.8,291.7,649.8,300.6z"/>
	<path class="st26" d="M231.9,160.7c0.3,1.5-0.4,3.3,1.4,4.3c4.4,0.2,6.6,3.8,9.4,6.5c1.3,1.2,2.7,2.3,4.1,3.5
		c0.6-0.4,1.2-0.3,1.7,0.2c-7.8,8.7-7.8,8.7-16.1,0.7c-0.7-0.7-1.5-1.2-2.2-1.9c-2-0.6-3.4-2-4.5-3.7c-0.1-0.4-0.1-0.9,0-1.3
		c0.7-1.4,2.1-2.3,3-3.6C229.4,163.6,228.9,160.9,231.9,160.7z"/>
	<path class="st27" d="M282.2,129.1c7.8-7.7,15.6-15.4,23.3-23.2c1.8-1.8,3.8-2.8,6.2-2.4c3.9,0.5,6.7-0.9,9.1-3.8
		c2.3-2.8,4.9-5.2,9.7-5.2c-2.2-2.5-4.4-1.1-5.7-2.3c3.1,0.8,7.1-2.4,9.3,2.2c1.8,0.9,1.8,2.3,0.7,3.6c-1.1,1.4-2.5,2.8-4.4,0.9
		c-2.1-2.8-4.1-2.2-6.1,0.1c-3.7,4.2-7.6,8-14,6.8c-1.8-0.3-3,1.2-4.2,2.4c-7.7,7.4-15.3,14.8-23,22.2
		C282.9,129.9,282.5,129.5,282.2,129.1z"/>
	<path class="st28" d="M753.1,300.9c0,6.5-1.3,7.6-8.8,6.9c-3-0.3-5.5-1.3-5.5-5.1c0-3.6,2-5,5.2-5.5c0.5-0.1,1,0.1,1.5-0.1
		c1.5-0.5,4.3,1.5,4.2-1.5c0-2.4-2.7-2.5-4.7-2.5c-0.7,0-1.3,0.2-2,0.2c-1,0-2.5,1.4-2.8-0.6c-0.4-2.1,1.6-1.9,2.7-2
		C750.1,290.1,754.1,290,753.1,300.9z"/>
	<path class="st29" d="M615.8,299.1c0,5.7-3.1,8.9-8.5,8.7c-5.1-0.2-8-3.4-8-8.8c0-5.6,2.8-8.5,8.1-8.6
		C613.1,290.3,615.9,293.2,615.8,299.1z"/>
	<path class="st30" d="M681.7,290.4c5.4,0.3,8.1,3.7,7.7,9.4c-0.4,5.4-3.6,8.3-8.8,7.9c-5.4-0.4-7.9-3.5-7.6-9.5
		C673.2,292.8,676.2,290.1,681.7,290.4z"/>
	<path class="st31" d="M245.1,155.9c-3.7-2.3-4.4-4.5-0.4-7.5c2.6-2,4.8-4.6,7.1-7c3.8-3.7,7.2-7.9,12.8-9.5
		c-3.9-0.7-7.4-1.6-10.6,0.9c-0.6,0.2-1.3,0.6-2,0.1c0.6-2.2,2.3-3.6,3.9-5c4.5-0.3,9,0,13.3-1c0.3,0,0.5,0,0.8,0.1
		c3.3,2.3,5.7,4.2-0.3,6.4c-1.7,0.6-1.5,4.5-4.6,4.7c-2.2-2.9-4.4-2.9-7-0.3c-3.8,3.9-7.6,7.9-11.8,11.5c-2.5,2.2-1.8,3.8-0.1,5.7
		C245.8,155.3,245.4,155.6,245.1,155.9z"/>
	<path class="st32" d="M708,300.9c-1,2.1,1.5,6.4-1.6,6.5c-3.4,0.1-1.1-4.2-1.7-6.5c-0.3-1.1-0.1-2.3-0.1-3.5c0-2.6-1.1-4.3-3.8-4.1
		c-2.5,0.1-4.5,1.1-4.4,4.2c0.1,2.6,0,5.3,0,8c0,1.2-0.3,2.4-1.9,2.3c-1.7-0.1-1.6-1.4-1.6-2.5c0-4.1,0-8.3,0-12.4
		c0-0.8,0.4-2.3,0.9-2c3.4,1.9,6.6-1.4,10-0.2C709.4,292.5,707.6,296.9,708,300.9z"/>
	<path class="st13" d="M353.2,405c9.3,0,18.6,0,29.1,0c-2.9,3.1-5.3,5.4-7.6,7.9c-1.5,1.7-2.5,1.4-4-0.1c-1.7-1.7-3.8-3.2-5.8-4.7
		c-3.4-2.5-4.8-1-4.9,2.7C355.4,411.5,354,408.7,353.2,405z"/>
	<path class="st33" d="M580.8,298.9c0-0.2,0-0.3,0-0.5c0.1-2.5,0.2-4.9,0.3-7.4c3.2,1.2,6.1-1.1,9.2-0.6c2.7,0.4,4.8,1.8,5,4.7
		c0.3,3.5,0.2,6.9,0.2,10.4c0,1.3-0.4,2.4-2,2.2c-1.7-0.2-1.4-1.6-1.5-2.7c-0.1-2.7-0.1-5.3,0-8c0.1-2.4-0.9-4-3.4-3.9
		c-2.4,0.1-4.7,0.7-4.7,3.8c0,2.7,0,5.3,0,8c0,1.1,0.3,2.6-1.4,2.7c-2.1,0.1-1.7-1.6-1.8-2.8C580.8,302.9,580.8,300.9,580.8,298.9z"
		/>
	<path class="st32" d="M330.4,98.9c3-0.1,5.3-0.8,3.7-4.6c1,0.1,2,0,2.9,0.4c4.1,1.6,4.4,3.5,1.1,6.4c-0.7,0.6-1.4,1.3-2.1,2
		c-1,2.7-3.9,3.5-5.6,5.5c-2.4,2-4.6,4.2-7.5,5.4c-1.1,0.8-2.1,1.6-3.2,2.4c-1,0.7-1.9,2.3-3.3,0.7c-1.1-1.3,0.1-2.2,1-2.8
		c3.9-3.1,6.3-7.9,11.7-9.5c3.5-1,1.8-3.8-0.4-5.6C329.3,99.1,329.9,99,330.4,98.9z"/>
	<path class="st34" d="M721,295.6c0-3,0-6,0-9c0-1.2,0-2.4,1.7-2.4c1.6,0,1.8,1.2,1.8,2.4c0,4.7,0.3,9.3,0,14
		c-0.2,3.6,1,4.6,4.5,4.5c2.4-0.1,7-1.2,6.9,1.1c-0.2,3.7-4.6,1-7,1.8c-0.5,0.1-1,0-1.5,0c-6.5,0-6.5,0-6.5-6.3
		C721,299.6,721,297.6,721,295.6z"/>
	<path class="st35" d="M560.8,298.8c0.2-2.6,0.3-5.3,0.5-7.9c3.4,1.4,6.6-1,9.9-0.4c2.8,0.5,4.5,2.2,4.7,5c0.2,3.3,0.1,6.7,0.1,10
		c0,1,0,2.1-1.4,2.2c-1.7,0.1-1.7-1.2-1.8-2.3c0-2.7,0-5.3,0-8c0-2.5-1.1-4.3-3.8-4.2c-2.6,0.2-4.9,1-4.9,4.4c0,2.5,0,5,0,7.5
		c0,1.1,0.2,2.5-1.5,2.6c-1.8,0.1-1.6-1.3-1.6-2.4c-0.1-2.2,0-4.3,0-6.5C560.9,298.8,560.9,298.8,560.8,298.8z"/>
	<path class="st25" d="M625.5,303.2c1.5-4.2,2.7-7.4,3.9-10.7c0.5-1.3,1.2-2.6,2.8-1.9c1.6,0.7,0.7,1.9,0.3,3c-1.6,4-3.2,8-4.9,11.9
		c-0.4,1-0.7,2.3-2.2,2.3c-1.4,0-2-0.9-2.4-2c-1.6-4.2-3.2-8.3-4.8-12.5c-0.3-0.9-0.8-2.1,0.4-2.6c1.2-0.5,2.2,0.1,2.7,1.4
		C622.6,295.4,623.8,298.8,625.5,303.2z"/>
	<path class="st36" d="M359,130.1c-0.7-1-1.3-2-2-3c-0.1-2.4-0.3-4.7-3.2-5.5c-2.7-1.9-4.1-5-6.4-7.2c-1.2-1.1-2.3-2.2-4-2.5
		c-1.4-0.2-2.9-0.8-2.2-2.9c0.3-0.3,0.6-0.6,0.8-0.9c3.2,1.1,4.3-1.3,5.1-3.5c4.9,1.5-0.2,9.9,7,9.4c3.7,1.4,5.5,4.8,7.2,7.9
		C362.9,124.9,360.6,127.6,359,130.1z"/>
	<path class="st32" d="M201.6,182.3c0.2,11.8-9.5,21.5-19.6,20.4c-0.1-1.2,1.2-2.3,1.6-2.2c5.5,1.5,6.2-3.2,8.3-6.1
		c1-1.3,2.1-2.6,3.9-2.9c2.6-0.4,3.9-1.6,2.8-4.5C197.6,184.6,199.8,184.1,201.6,182.3z"/>
	<path class="st37" d="M656,287.7c0.6,2.7,3.2,2.3,5.2,3.3c1.1,0.5,0.8,2-0.6,1.9c-3.5,0-3.2,2.5-2.8,4.4c0.6,2.6-2.4,6.6,2.7,7.7
		c1,0.2,1.4,0.7,1.2,1.7c-0.2,1-1.1,1.2-1.9,1.2c-3,0-5.4-1-5.6-4.3c-0.3-4.6-0.1-9.3-0.1-13.9C654.1,288.7,654.1,287.7,656,287.7z"
		/>
	<path class="st38" d="M200.2,343.4c0.4-0.4,0.8-0.8,1.2-1.2c0.6-5,0-10.1,0.3-15.1c0-1-0.8-2.7,1.3-2.9c2.2,3,1,6.4,1.1,9.5
		c0.1,2.7,0.5,4.9,3,6.2c1.6,0.8,2.3,2.2,0.7,3.4c-3,2.4-5,6.1-8.8,7.5c-2.1,0.1-2.9-1.5-3.9-2.9c-0.4-0.8,0-1.3,0.5-1.8
		C197.3,345.7,198.2,343.6,200.2,343.4z"/>
	<path class="st39" d="M555.8,296.1c0,3.1,0,6.3,0,9.4c0,1,0,2.1-1.4,2.2c-1.6,0.1-2-0.9-2-2.2c0-6.3,0-12.5,0-18.8
		c0-1.2,0.1-2.4,1.7-2.5c1.7,0,1.6,1.3,1.7,2.4C555.8,289.8,555.8,293,555.8,296.1z"/>
	<path class="st40" d="M137,280.1c2,3.2,0.7,6.7,0.8,10.3c-1.6-1.6-4.4-2.1-2.8-6c1.6-4-2.8-3.3-4.8-4.4c-2.9-1.1-4.8-3.3-6-6
		c1.1-1.8,3.7-3.1,1.9-5.9c0.4-0.3,0.8-0.5,1.3-0.5c3.7,0.8,2.2,5.5,5.1,6.9C134,276.2,136.3,277.5,137,280.1z"/>
	<path class="st41" d="M362.6,308.1c6.1,3.6,6.1,20.6,0.1,24.1C362.8,324.2,363.5,316.2,362.6,308.1z"/>
	<path class="st42" d="M263.3,407.1c1.4,4-0.6,5-4.1,4.9c-0.4-0.4-0.8-0.8-1.2-1.2c-1.9-2.7-2-5.7-2-8.9c0-3,0.6-6.2-1-9
		c0,0,0.1,0,0.1,0c0.5-2.3,1.4-4.5,4.2-3.4c2.8,1.1,1.7,3.1,0.6,5.3c-1.9,3.7-0.6,9.6,2.1,11.1C262.7,406.1,263.1,406.4,263.3,407.1
		z"/>
	<path class="st43" d="M171,294.1c-5.1-5.8-5.1-5.8-4.5-12c1.3-0.3,2.3,0.9,2.2,1.5c-0.5,4.5,1.9,6.4,5.8,7.8
		c1.3,0.5,2.5,2.2,3.2,3.6c2.1,4.2,2,4.2,6.3,3.6c-1.2,3-3.3,3.4-6,2.5C175,299.5,172.8,297,171,294.1z"/>
	<path class="st44" d="M252,133c0.6-0.1,1.2-1.1,2-0.1c-5.6,5.6-11.2,11.3-16.9,16.9c-1.8,1.8-2.1,2.9,0,4.7c3.1,2.7,6,5.7,9,8.6
		c0.7,0.8,1.9,0.1,2.5,1.1c-0.7,1.2-1.8,2.6-3,1.2c-4.2-4.8-9.9-8.2-12.7-14.2c5.6-4.3,10-9.8,15.2-14.6
		C249.3,135.4,250.7,134.2,252,133z"/>
	<path class="st45" d="M426,183.1c-2.2,4.6-1.9,8.9,2.1,12.3c3.6,3.1,6.1,6.4,5.1,11.5c-0.5,2.4,1.4,3.9,2.9,5.5
		c3.6,3.9,7.9,7.1,10.9,11.6c-4.1-0.1-5.4-3.9-7.8-6.1c-4.4-4.1-9.4-7.8-8-15.2c0.5-2.8-3-4.1-4.4-6.2c-1.1-1.6-3.2-2.4-3.7-4.5
		c1.8-3,0.5-6.4,0.9-9.6c0.1-0.8,0.1-2,1.1-1.8C426.3,180.9,425.9,182.2,426,183.1z"/>
	<path class="st46" d="M230.1,357c-1.7,2.1-0.2,3.2,1.2,4.5c2.9,2.8,5.7,5.5,8.5,8.4c1.7,1.7,1.5,2.7-1.1,3.1
		c-5.6,0.9-9.5-1.5-12.9-5.6c-1.2-1.5-2.8-4.1-4.7-0.4c-0.6-0.3-1.1-0.6-1.7-0.9c2-3.9,4.2-3.8,7.1-0.7c2.8,3,5.5,6.9,11.4,5.1
		c-3.1-3-5.9-6-8.9-8.7c-2.5-2.2-2.6-4,0.3-5.8C230,355.8,230.5,356,230.1,357z"/>
	<path class="st26" d="M127.3,267.9c-0.4,0-0.8,0-1.2,0.1c-2-1.3-3.7-1.2-5,1c-0.6,0.6-1.2,0.6-1.8,0c1.1-4.3,4.4-7.2,8-8.8
		c3-1.4,4.1-2.7,3.4-5.7c1.5-0.3,1.6,1.3,2.5,1.5c0.9,1.7,0.2,3.6,0.4,5.3c0.3,2.4-0.1,4.2-3,4.5
		C129.1,265.9,128.4,267.3,127.3,267.9z"/>
	<path class="st47" d="M339,127.1c0,0.6,0,1.2,0.1,1.8c-2.2-1.6-3.9-0.8-4.6,1.4c-0.7,2.2,1,3.1,2.9,3.8c1.8,0.6,3.9,0.3,5.6,2.2
		c-4.3,1.4-7.9,1-10.1-2.7c-2-3.4-3.4-7.1-8.1-8.1c4-0.5,7.6-1.5,10.8,1.3C336.6,127.7,337.9,127.2,339,127.1z"/>
	<path class="st48" d="M384.1,170.9c1.7-6.5,0.5-13.4,2.9-19.8c3.3-4,3.7-4,6.1-1c0.3,2,0.4,4.5-2.1,4.7c-4.2,0.4-3.9,3.1-3.9,6
		c0,2.1,0,4.3,0,6.4C387,169.2,386.5,170.8,384.1,170.9z"/>
	<path class="st49" d="M321.9,91c-1.4-3.5-3.3-3.7-5.9-1.2c-1.9,1.8-3.9,3.5-5.8,5.3c-1.1,0.4-1.3-0.1-1.1-1
		c4.1-5.1,8.7-9.5,15.9-9.5c4.1,4,4.1,4,8,5.5C329.4,92.3,325.5,90.6,321.9,91z"/>
	<path class="st50" d="M320.9,437.8c-0.8-7.2,2.8-12,7.8-16.6c5.6-5.1,11.3-10.2,16.1-16.2c0.5,0.4,0.9,0.9,1.4,1.3
		c-5.8,5.9-11.5,11.9-17.5,17.6c-3.6,3.4-6.1,6.9-5.3,12c0.2,1.1-0.1,2.3-1.3,3C321.1,439.1,320.6,438.8,320.9,437.8z"/>
	<path class="st39" d="M668.8,299.1c0,2.2,0,4.3,0,6.5c0,1-0.1,2.1-1.4,2.2c-1.2,0.1-1.9-0.7-1.9-1.8c-0.1-4.5-0.1-9-0.1-13.5
		c0-1.1,0.5-2,1.8-1.9c1.2,0.1,1.6,0.9,1.6,2C668.8,294.8,668.8,296.9,668.8,299.1z"/>
	<path class="st51" d="M266.2,419.2c0.4-3.8,1.3-6.4,5.8-3.2c2.1,1.5,2.8-0.5,3.1-2c0.4-1.7,0.8-3.3,2.7-3.9c1.3-0.4,2.3,0.2,3,1.3
		c0.8,1.2,0.8,3.2-0.4,3.5c-4.7,1-7.2,7.5-13.1,5.1C266.8,419.7,266.5,419.5,266.2,419.2z"/>
	<path class="st52" d="M455,214c0.2-0.9,0-2.2,0.6-2.7c0.6-0.5,1.3,0.5,1.9,1.1c4.4,4.4,8.7,8.8,13.1,13.2c-1.4,2.1-2.9,1-4.5,0
		C461.5,222.6,457.6,218.9,455,214z"/>
	<path class="st53" d="M296.2,434.6c2.3-2.1,7-2.9,3.5-7.8c-0.7-0.9,0.5-2.2,1.6-2.7c0.9-0.5,1.9-0.4,2.8,0.3c1,0.8,1.6,2.1,0.9,3.1
		c-1.7,2.3-1.4,5-2,7.5c-1.2,5.2-4.4,1.6-6.8,1.2C296.2,435.7,296.2,435.2,296.2,434.6z"/>
	<path class="st54" d="M149.2,289.9c7.1,6.3,13.6,13.1,20.1,20c-0.6,0.1-1.1,0.2-1.7,0.2c-7-5.9-13.3-12.4-19.6-19.1
		C147.9,290,148.2,289.6,149.2,289.9z"/>
	<path class="st55" d="M359,130.1c4.5-7.2-1.5-11.3-4.9-16c1-1.6,2-1.1,2.9,0.1c0.9,1.9,3,2.9,3.8,5c2.7,2.3,2.8,6,3.3,8.9
		C364.8,131.9,361.8,131.8,359,130.1z"/>
	<path class="st53" d="M290,115c-1.3,1.4-2.5,3.3-4.1,4.3c-8.7,5.6-7.6,14.1-7.1,22.5c0,0.7,0.5,1.2,1.2,1.3c-1.2,1.6-2,1.9-2.1-0.6
		c0-4,0-7.9,0-11.9c0-1.6,0.6-3.3-0.9-4.7c3.3-4.6,7.6-8.3,11.8-12.1C289.9,113.6,290.2,114.1,290,115z"/>
	<path class="st56" d="M265.2,122.1c-0.5,0.8-1.6,1.7-1.4,2.3c0.3,1.1,1.7,0.5,2.6,0.5c4.3,0.1,5.3-4.6,8.6-6c1-0.4,1.2,0.1,1.1,1
		c-1.6,2.7-4.8,4.1-6,7.1c0,0,0.1,0,0.1,0c-4.2,1-8.4,2.6-12.1-1.1C260.1,124.2,260.9,119.8,265.2,122.1z"/>
	<path class="st50" d="M348,438.7c-6.2-1-10.6,1.9-14.6,6.4c-4.4,4.9-9.4,9.3-14.2,13.9c-1,0.4-1.2-0.1-1.1-1
		c7.4-6.9,13.9-14.7,22-20.9C342.4,439.1,345.6,436.8,348,438.7z"/>
	<path class="st42" d="M127.3,267.9c-0.3-1.8,0.1-4.2,1.8-3.9c6.4,1,3.6-3.5,4.1-6.1c0.1-0.6,0-1.3,0-2c1.9,3.7,0.7,7.6,0.8,11.4
		c-3.8,1.8-3.1,4.1-0.9,6.7c0.2,0.9-0.1,1.4-1.1,1.1C128.5,273.9,129.9,269.6,127.3,267.9z"/>
	<path class="st57" d="M374.1,155.1c0.3-1.2,1-2.4,0.9-3.6c-0.1-0.9,2.5-1.6,0.4-2.4c-1.6-0.6-1.2,1.5-2.1,2
		c-1.8-1.3-0.8-2.6,0.5-2.7c4-0.2,8.2-1.7,12.1,0.9c-2.6,0.5-4.8,1.4-4.3,4.8c-0.4,0.7-1,1-1.7,1.2c-1.7-0.4-3.4-0.5-4.8,0.8
		C374.6,155.9,374.3,155.6,374.1,155.1z"/>
	<path class="st58" d="M217,202c3.9-4,7.8-8,11.6-12c1.1-1.1,2.7-2,2.6-4c1.7-0.3,1.7,1.2,2.2,2.1c-0.3,3.2-3.3,4.3-5,6.5
		c-2.3,3-6.1,4.6-7.3,8.5C219,205.3,218.2,202.7,217,202z"/>
	<path class="st59" d="M366.1,378.9c3.4-1.9,7.6,0.2,10.9-2.6c0.8-0.7,2.2,0.5,2.8,1.6c0.6,1.1,0.4,2.2-0.6,3.2
		c-1.1,1.1-2.3,1.1-3.6,0.3c-3.5-2.2-6.9-1.6-10.1,0.7c-0.4,0-0.9,0-1.3-0.1c-0.8-1.1,0.3-1.4,0.8-2
		C365.3,379.6,365.7,379.3,366.1,378.9z"/>
	<path class="st58" d="M167,301c-5.7-5-11-10.4-16.1-16c0.3-0.3,0.7-0.6,1-1c5.8,4.8,11.1,10.2,16.1,15.9
		C167.8,300.3,167.4,300.7,167,301z"/>
	<path class="st60" d="M324.1,461c3.6-4.3,7.6-8.3,12-12c0.2,0.8,2.2,1.2,1.1,2.3c-3.3,3.5-6.8,6.8-10.3,10.1
		C325.9,462.2,325,461.3,324.1,461z"/>
	<path class="st61" d="M361,412.8c2.3,1.1,3.6-2.8,6.3-0.9c4.7,3.3,4.7,4.6-0.2,8C364.3,418.1,361.2,416.7,361,412.8z"/>
	<path class="st62" d="M361,412.8c1.2,3.1,4.4,4.4,6,7.1c-0.4,0.4-0.8,0.8-1.1,1.2c-5.1-5-10.3-9.7-14.8-15.3
		c0.7-0.3,1.4-0.6,2.1-0.9c1.9,2.4,3.3,5.3,6.8,5.9C360.3,411.5,360.6,412.2,361,412.8z"/>
	<path class="st63" d="M423,323.8c-1.4,1.7-2.7,3.5-4.1,5.2c-4.1,0.2-4.8,4.6-7.8,6.1c-0.4-0.4-0.8-0.8-1.2-1.2
		c4.2-4.4,8.3-8.8,12.5-13.3c0.7-0.8,1.5-1.3,2.6-0.6C425.4,321.9,423.8,322.6,423,323.8z"/>
	<path class="st64" d="M432,339.9c-0.3-0.6-0.7-1.1-1-1.7c0.6-1.3,2-1.8,3.1-2.5c5.1-1.2,10.4-0.7,15.5-1.3c0.6,0.4,0.7,0.8,0.3,1.4
		c-2.4,3.4-6.2,2.2-9.4,2.7C437.7,339,434.6,338.3,432,339.9z"/>
	<path class="st42" d="M216.4,341c-1.3-1.2-2.2-3-4.3-3.1c-2.2-0.2-3.5-1.2-3.2-3.5c0.3-2.3,2.2-2.6,4.2-2.5
		c0.4,0.4,0.7,0.8,1.1,1.2c0.3,2.4,1.4,4.3,3.2,5.9c1.1,1,2.9,2.2,0.7,3.9C216.1,343.5,216.8,341.7,216.4,341z"/>
	<path class="st65" d="M196.2,346.9c-0.4,0.4-0.8,0.8-1.1,1.1c-6.7-6-13-12.4-19-19c-0.6-1.3-0.8-2.5,0.6-3.4
		c2.7-0.2,2.2,2.2,2.9,3.5c1.6,2,3.5,3.6,5.2,5.4C188.3,338.9,193.2,342,196.2,346.9z"/>
	<path class="st66" d="M221.1,203.2c-2.5,0-1.8-0.9-0.6-2.1c4.2-4.3,8.4-8.7,12.6-13c0.2-0.3,0.5-0.4,0.9-0.2c0.3,0.4,0.7,0.8,1,1.2
		C230.3,193.7,225.7,198.4,221.1,203.2z"/>
	<path class="st67" d="M231.9,160.7c-2.5,1-1.1,4-2.8,5.3c-1,0.2-1.5-0.2-1.2-1.3c0.2-2.1-0.2-3.9-2.7-4.3c-0.7-2.8,1.3-4,3.1-5.3
		C229.7,156.8,233,157.3,231.9,160.7z"/>
	<path class="st68" d="M423,199.9c-3.1-1-7.4-7.4-6.3-10c1.8-4,4.1-1.6,6.2-0.1c0,0.5,0,1,0,1.5C417.6,194.2,422.2,197.1,423,199.9
		L423,199.9z"/>
	<path class="st54" d="M196.2,346.9c-4-4-8-8-12.1-12c-0.1-0.9,0.1-1.4,1.1-1c2.7,2.6,5.8,5,8.1,7.9c2.6,3.1,4.4,2.5,6.5-0.2
		c0.1,0.6,0.2,1.2,0.3,1.8C199.1,344.9,198,346.3,196.2,346.9z"/>
	<path class="st69" d="M320.9,437.8c0.3,0.4,0.7,0.7,1,1.1c-3.7,4.6-8.1,8.5-12.7,12.1c-3.1,0.5-6.1,0.7-9.2-0.1c-0.4,0-0.7,0-1.1,0
		c0.2-0.9,0.9-1.1,1.7-1.1c2.7-0.9,5.6,0.2,8.3-0.7C313,445.3,317,441.6,320.9,437.8z"/>
	<path class="st70" d="M393.2,244c0.1,1.7-1,3.4-2.2,3.5c-4.3,0.5-5.6,5-9.1,6.4c0-0.4,0-0.9-0.1-1.3c1.3-3.1,6.2-4.1,5-8.6
		c0.4-1.7,1.6-2.5,3.3-2.7C391.7,241.7,393.2,241.9,393.2,244z"/>
	<path class="st71" d="M504,264.9c-1.1,0.3-1.8-0.5-2.7-0.8c-1.9-0.8-4.7-0.6-4.7-3.5c0-2.7,2.5-2.5,4.3-3.1
		c0.2-0.1,0.2-0.9,0.2-1.4c0.9,0.9,1.9,1.9,2.8,2.8C499.5,260.9,504.6,263,504,264.9L504,264.9z"/>
	<path class="st72" d="M495,265.1c-2.4-0.5-2.9-2.2-2.9-4.4c0-3.4-0.2-6.9-0.3-10.3c0.2-0.9,0.3-2.5,0.8-2.6
		c1.8-0.6,1.1,2.1,2.5,2.4C493.2,255.1,493.7,260.1,495,265.1z"/>
	<path class="st73" d="M179,330c-1.7-0.9-0.5-3.1-1.9-4.2c-1.5-1.3-2-2.9-1.2-4.8c0.4-0.4,0.8-0.8,1.2-1.2c2.9-0.1,4.7,1.1,5,4.2
		c-2.2,1-2.2,2.8-2,4.8C180.5,329.9,180,330.2,179,330z"/>
	<path class="st32" d="M255,392.9c1.7,1.1,2.3,2.7,2.2,4.7c-0.2,4.4,0.2,8.8,0.8,13.2c-2.4-1.3-3.1-3.4-3-6.1
		C255.1,400.7,255,396.8,255,392.9z"/>
	<path class="st74" d="M270.1,152c-1.6,0.2-3.4,0.6-4.2-1.5c-0.9-2.3,1-3.6,2-5.2c-0.3-1.1-0.8-2.3,1.1-2.4c0.5,3,3.3,5.5,2.1,9
		C270.7,152,270.4,152,270.1,152z"/>
	<path class="st75" d="M458,319c2.9,1.6,1.7,4.4,1.9,6.7c0,0-0.2,0.1-0.2,0.1c-2.1,0.4-4.4,1.5-5.5-1.4c-0.8-2.2,0.9-3.3,2.6-4.1
		C456.2,319.1,457,319,458,319z"/>
	<path class="st67" d="M247.1,370.8c-4.2-3.1-7.6-7-11.1-10.8c-0.1-0.9,0.1-1.4,1.2-1.1c3.6,3.3,7.2,6.7,10.8,10
		C247.7,369.5,247.4,370.1,247.1,370.8z"/>
	<path class="st49" d="M198.9,350.9c2.4-2.4,4.8-5,7.3-7.3c1.3-1.1,2.1-2.1,0.8-3.6c0.3-0.3,0.7-0.7,1-1c2.6,1.4,2.6,3.1,0.6,5
		c-2.8,2.7-5.7,5.5-8.5,8.2C199.8,351.7,199.3,351.3,198.9,350.9z"/>
	<path class="st76" d="M427.4,357.1c-1.4-3.4,1.7-4.7,3.3-6.6c1.4-1.6,3-3,4.5-4.5c0.3,0.3,0.5,0.6,0.8,0.9c0.9,2.1-1,2.7-1.9,3.9
		C431.7,352.8,430.9,356.3,427.4,357.1z"/>
	<path class="st77" d="M368.2,390c0.2-0.5,0.5-0.9,0.5-1.4c0.2-2.3,0.8-4.7,3.5-4.2c3.1,0.6,2.7,3.1,1.7,5.5c0,0,0.1,0,0.1,0
		c-1.5,1.3-3.1,1.9-5.1,1C368.7,390.7,368.4,390.3,368.2,390z"/>
	<path class="st78" d="M367,225c-0.5,1.1-1.3,1.8-2.4,2.2c-1.8,0.4-3.3,0.4-2.1-2.1c0.7-1.4,1.6-2.7,2.5-4c0,0,0,0,0,0
		c1.5-0.8,1.7-3.2,4-3.1l0.2,0.2c1.4,1.9,0.7,3.7-0.3,5.5C368.3,224.3,367.6,224.5,367,225z"/>
	<path class="st79" d="M244.1,393.9c1.6,2.1,4.7,3.2,4.5,7.1c-5-4.1-9-8.7-13.1-13.1c-0.1-0.1,0.4-0.7,0.5-1.1
		C240.1,387.6,241.9,390.9,244.1,393.9z"/>
	<path class="st13" d="M314,431.8c0,0.3,0,0.5,0,0.8c1.3,1.5,0.2,2.8-0.2,4.2c-1.3,1.9-2.9,3.4-4.7,4.8c-1.4,0.6-2.7,1.2-4.3,0.6
		c-0.4-5.2,4.1-6.6,7.1-9.2C312.6,432.5,313.3,432.1,314,431.8z"/>
	<path class="st80" d="M312,432.9c-1.5,3.5-6.4,4.5-6.8,8.9c-0.3,0.3-0.5,0.3-0.8,0c-0.4,0.1-0.8,0.2-1.3,0.3
		c-0.7-0.2-1.1-0.6-1.3-1.3c3-3,6.1-6,9.1-9C311.3,432.2,311.6,432.5,312,432.9z"/>
	<path class="st13" d="M258,125.9c3.9,1.7,8,1.1,12.1,1.1c-4.5,3.7-9.3,2.7-14.2,1C256.6,127.3,257.3,126.6,258,125.9z"/>
	<path class="st45" d="M455,214c3.7,3.9,7.4,7.8,11.1,11.6c-0.1,0.6-0.2,1.1-0.3,1.7c-4-4.1-8.5-7.6-11.8-12.3
		C454.3,214.7,454.7,214.3,455,214z"/>
	<path class="st33" d="M369.9,136.2c3.3-2.3,5.8-5.5,8.5,0.1C375.7,136.9,373.3,136.9,369.9,136.2z"/>
	<path class="st81" d="M252.9,394.2c-2.7-2.7-5.3-5.4-8-8.1c0.2-0.7,0.6-1,1.2-1.2c2.9,2.4,5.7,5,7.9,8.1
		C253.7,393.4,253.3,393.8,252.9,394.2z"/>
	<path class="st82" d="M244.1,393.9c-2.7-2.4-5.4-4.7-8.1-7.1c0.3-0.6,0.7-1.2,1-1.8c3.1,2.2,5.6,5.1,8.1,7.9
		C244.8,393.2,244.5,393.5,244.1,393.9z"/>
	<path class="st83" d="M202.9,324.2c-1.8,3.8-0.3,7.8-0.8,11.7c-0.3,2.1,0.7,4.3-0.8,6.3c0-6.9,0-13.8,0-20.7
		c0.3-0.1,0.5-0.1,0.8-0.2C202.4,322.3,202.6,323.2,202.9,324.2z"/>
	<path class="st84" d="M459,235.2c4.1,0,8.2,0.1,12.3-0.1c1.5,0,3.3,0.8,4.5-1c1.2,0.2,2.4,0.3,3.5,0.5
		C472.5,236.4,465.8,236.6,459,235.2z"/>
	<path class="st85" d="M490.8,249.3c-1.5,4-0.3,8.1-0.7,12.2c-0.2,1.9,0.7,4-0.8,5.7c0.1-6.8-0.8-13.6,0.6-20.6
		C491.5,247.5,490.7,248.5,490.8,249.3z"/>
	<path class="st86" d="M171,310.2c5.3-1.2,10.9,1.1,16.2-1.2c1,0.1,1.9,0.1,2.9,0.2C183.7,311.4,177.4,311.4,171,310.2z"/>
	<path class="st58" d="M321.1,93.1c-2.1,2.6-4.3,5-7.1,7c-0.6-0.1-1-0.5-1.2-1.1c2.3-2.4,4.3-5.1,7.2-6.9
		C320.4,92.4,320.8,92.8,321.1,93.1z"/>
	<path class="st87" d="M171,294.1c2.6,2,5.1,4.2,7.1,6.9c-0.4,0.4-0.7,0.7-1.1,1.1c-2.7-2-5-4.4-7.1-7
		C170.3,294.7,170.6,294.4,171,294.1z"/>
	<path class="st88" d="M281,417.9c2-2.7,4.3-5.1,7-7c0.4,0.4,0.7,0.7,1.1,1.1c-2.3,2.4-4.7,4.7-7,7.1
		C281.5,418.9,281.1,418.5,281,417.9z"/>
	<path class="st89" d="M381.1,154c-0.4-1.5-0.8-3.1-1.3-4.8c1.9-0.6,4-0.4,6,0.1c-0.3,0.6-0.6,1.3-0.9,1.9c-0.6,0.6-1.1,1.2-1.7,1.8
		C382.6,153.4,382.3,154.6,381.1,154z"/>
	<path class="st90" d="M286.1,134.1c1.2-2.1,2.9-3.7,4.9-5c1.9,2.8-0.7,3.9-2,5.5C287.7,136.3,287,134.8,286.1,134.1z"/>
	<path class="st88" d="M157.1,273.9c-2.4-1.6-4.3-3.7-6-5.9c-0.4-0.9,0.2-1.2,0.9-1.5c2.9,0.9,4.3,3.3,6,5.4
		C159.3,273.3,156.9,273.1,157.1,273.9z"/>
	<path class="st91" d="M353,425.9c-1.8,2.4-4,4.5-6.5,6.1c-0.6,0.4-1.2,0.3-1.7-0.2c2.4-2.3,4.8-4.6,7.2-7
		C352.3,425.2,352.7,425.6,353,425.9z"/>
	<path class="st54" d="M323,114c2-2.5,4.5-4.2,7.1-6c0.6,0.1,0.9,0.5,1.1,1c-2.4,2-4.7,3.9-7.1,5.9C323.6,114.7,323.3,114.3,323,114
		z"/>
	<path class="st81" d="M288,421.9c-1.7,2.3-3.5,4.4-5.9,6.1c-0.4-0.4-0.7-0.8-1.1-1.1c2-2.1,4-4.1,6-6.2
		C287.6,420.9,287.9,421.3,288,421.9z"/>
	<path class="st81" d="M124.1,273.9c2.3,1.7,4.3,3.7,6,6c-1.5,1-3,1.5-4-0.6c-0.3-1.6-2.3-2.3-2.1-4.2
		C124.1,274.8,124.1,274.3,124.1,273.9z"/>
	<path class="st92" d="M161.7,314.5c3.1,1.6,5.7,3.6,7.5,7C166.5,318.9,164.1,316.7,161.7,314.5z"/>
	<path class="st56" d="M331.1,109.1c-0.4-0.3-0.7-0.7-1.1-1c1.7-2,3.8-3.6,6-5c0.3,0.3,0.7,0.7,1,1
		C335.4,106.1,333.2,107.6,331.1,109.1z"/>
	<path class="st93" d="M369,391c1.7-0.3,3.4-0.7,5.1-1c0.1,2.3-1,3.2-3.2,2.9C369.6,392.7,368,393.2,369,391z"/>
	<path class="st90" d="M152.3,266.9c-0.4,0.4-0.8,0.7-1.2,1.1c-1.4-1.3-2.8-2.6-4.2-3.9c2.7-1.8,4-0.2,5.2,2
		c0.3,0.1,0.4,0.2,0.4,0.4C152.4,266.8,152.4,266.9,152.3,266.9z"/>
	<path class="st94" d="M149.2,289.9c-0.4,0.4-0.8,0.7-1.1,1.1c-1.9-1.4-3.7-2.9-4.9-5c0.4-0.4,0.7-0.8,1.1-1.2
		C145.9,286.4,147.6,288.2,149.2,289.9z"/>
	<path class="st90" d="M131.9,275.1c0.4-0.4,0.8-0.7,1.1-1.1c1.9,1.4,3.7,3,5,5c-0.3,0.4-0.7,0.7-1,1.1
		C135.3,278.4,133.6,276.8,131.9,275.1z"/>
	<path class="st95" d="M137.1,259.9c-2.4,2.4-0.6,5.5-1.1,8.2c-2.2-3.5-0.4-7.3-0.5-11.1C136,257.9,136.6,258.9,137.1,259.9z"/>
	<path class="st96" d="M313.9,450.8c1.1-1.6,2.5-1.4,3.7-0.4c1.2,0.9,2,2.2,0.5,3.6C316.7,452.9,315.3,451.9,313.9,450.8z"/>
	<path class="st69" d="M158,245.2c-1.3-1.7-2.7-3.4-4-5.1c0.4-0.4,0.8-0.8,1.2-1.2c1.4,1.3,2.8,2.6,4.2,3.9
		C159.3,243.8,159,244.7,158,245.2z"/>
	<path class="st97" d="M170.4,319c0.2,0,0.4,0,0.5,0c2.2,1.7,2.9,3.8,1.9,6.6C169.7,324.1,171.9,320.9,170.4,319z"/>
	<path class="st98" d="M152.3,266.9c-0.1-0.2-0.2-0.5-0.2-0.8c3.2,0.7,5.1,2.7,5.9,5.8C156.1,270.3,154.2,268.6,152.3,266.9z"/>
	<path class="st39" d="M668.7,286.2c-0.1,0.8-0.9,0.9-1.8,0.9c-0.9-0.1-1.5-0.5-1.4-1.6c0.2-1,0.9-1.3,1.8-1.3
		C668.3,284.3,668.8,284.9,668.7,286.2z"/>
	<path class="st99" d="M226.2,169.8c1.3,1.4,2.7,2.7,4,4.1c-0.4,0.3-0.7,0.7-1.1,1c-1.7-1-3-2.3-4-4
		C225.2,170.4,225.5,170,226.2,169.8z"/>
	<path class="st100" d="M213.2,363.9c-0.4,0.3-0.7,0.7-1.1,1c-1.5-0.9-2.8-2-3.7-3.7C211,360.4,212,362.4,213.2,363.9z"/>
	<path class="st101" d="M176,321c0.4,1.6,0.8,3.2,1.2,4.8c-1.1,0.8-0.9,2.1-1.2,3.2C174.7,326.4,174.4,323.7,176,321z"/>
	<path class="st102" d="M434.1,350.8c-0.2-1.7,1.6-2.4,1.9-3.9c0.7,0.1,2.1-0.2,1.8,0.9C437.4,349.5,436.2,350.9,434.1,350.8z"/>
	<path class="st103" d="M300.1,450.9c3.1,0,6.1,0.1,9.2,0.1c-2.9,1.6-6.2,0.1-9.2,1C300.1,451.7,300.1,451.3,300.1,450.9z"/>
	<path class="st5" d="M489.1,286c-0.2-3.9,0.4-4.3,3.9-3C491.7,284,490.4,285,489.1,286z"/>
	<path class="st104" d="M360.8,119c-1.8-1.2-3.4-2.6-3.8-5c2,1.3,3.7,2.9,5,5C361.6,119,361.2,119,360.8,119z"/>
	<path class="st105" d="M248.5,175.1c-0.6-0.1-1.1-0.2-1.7-0.2c1.5-1.5,3-3.1,5-5.2C252,173.1,249.9,173.9,248.5,175.1z"/>
	<path class="st71" d="M430,188.9c1.6,1.3,3.8,2.1,3.8,4.7c-2.1,0-2.9-1.8-3.9-3.2C429.9,190,430,189.5,430,188.9z"/>
	<path class="st106" d="M447.1,202c0.7,0.7,1.3,1.3,2,2c0.4,0.6,0.3,1-0.3,1.4c-2.8,0.7-3.8-0.4-3.2-3.2
		C446,201.7,446.5,201.6,447.1,202z"/>
	<path class="st69" d="M198.2,205.1c-1,1-2.1,2-3.1,3c-0.4-0.4-0.8-0.8-1.1-1.1c0.7-1.3,1.8-2.2,3.1-2.9
		C197.7,204.1,198.1,204.5,198.2,205.1z"/>
	<path class="st107" d="M471.1,310.1c0-0.7-0.1-1.4-0.1-2.1c1.8,0,3.7,0,6.6,0C474.9,310.1,472.4,307.8,471.1,310.1z"/>
	<path class="st108" d="M124,275.2c0.7,1.4,2.2,2.4,2.1,4.2c-1.2-1.1-2.3-2.2-3.5-3.3c-0.5-0.5-0.8-1.1,0.1-1.4
		C123.1,274.6,123.6,275,124,275.2z"/>
	<path class="st3" d="M150.6,236.9c0.1,1.3-0.9,1-1.6,1c-0.5,0-1.4,0.3-1.4-0.6c0-0.9,0.7-1.4,1.4-1.7
		C150.1,235.3,150.2,236.3,150.6,236.9z"/>
	<path class="st73" d="M248.5,164.1c-0.9-0.1-1.9-0.1-2.5-1.1c1.9,0.4,2.5-1.6,4-2.1c0.4,0.4,0.8,0.8,1.2,1.1
		C250.3,162.8,249.4,163.5,248.5,164.1z"/>
	<path class="st109" d="M142.2,260.2c-0.3-0.4-0.6-0.7-0.9-1.1c0.5-1.9,1.4-2.9,3.8-1.5C144,258.5,143.1,259.3,142.2,260.2z"/>
	<path class="st110" d="M181,305.9c0.3-0.6,0.6-1.2,0.9-1.8c1.1,0.5,2.3,0.9,4.4,1.8C183.8,305.9,182.4,305.9,181,305.9z"/>
	<path class="st111" d="M449,205.1c0-0.4,0-0.7,0-1.1c1.3,0.7,2.3,1.7,3,3c-0.4,0-0.8,0-1.3,0C449.4,207.1,448.6,206.6,449,205.1z"
		/>
	<path class="st112" d="M364.9,380c-0.3,0.7-0.6,1.3-0.8,2c-0.8,0-1.8-0.1-1.5-1.2C362.9,379.6,364,380,364.9,380z"/>
	<path class="st113" d="M447.1,202c-0.4,0-0.7,0-1.1,0.1c-1.6,0.4-2.1-0.4-2-1.8c0-0.4,0-0.8,0-1.2
		C445.4,199.6,446.3,200.7,447.1,202z"/>
	<path class="st114" d="M449.9,335.9c0-0.2,0-0.5,0.1-0.7c-0.5-1.8,0.4-2.3,2-2.2c0.3-0.1,0.6-0.1,0.9-0.1
		C452.3,334.2,451.3,335.2,449.9,335.9z"/>
	<path class="st115" d="M119.2,269c0.6,0,1.2,0,1.8,0c0,0.9,0.4,2.4-0.4,2.4C119.3,271.5,119,270.1,119.2,269z"/>
	<path class="st5" d="M239.7,266.8c24.4-24.5,48.9-49.1,73.5-73.8c0.1,0.4,0.3,1,0.3,1.6c0,22.8,0,45.6,0.1,68.4
		c0,2.5-0.4,4-3.5,3.9C286.4,266.8,262.8,266.8,239.7,266.8z"/>
	<path class="st116" d="M375.9,301c1.8,0.3,3.4,0.8,3.1-2.2c-0.3-3.4,0-6.9-0.1-10.4c-0.1-3.4,2.3-2.9,4.4-3
		c2.3-0.1,3.8,0.3,3.7,3.2c-0.1,6.4,0,12.8,0,19.9c1.6-1.4,2.8-2.4,4-3.4c0.3,0.3,0.7,0.7,1,1c-1.7,2.1-3.1,5.8-6,4.8
		c-2.3-0.8-0.8-4.5-0.9-6.9c-0.2-4.6,0-9.3-0.1-14c0-1.3,0.1-2.7-1.9-2.8c-2.3-0.1-2.3,1.3-2.3,2.9c0,3.3,0.1,6.7-0.1,10
		c-0.1,1.6,1.2,4.3-1.1,4.7C377.8,305.2,376.4,303.1,375.9,301L375.9,301z"/>
	<path class="st117" d="M367.2,267.9c1.2-2.7,2.5-4,5.6-2c3.2,2,7.2,1.1,10.7,0.6c3-0.4,1.7-3.6,1.1-5.3c-0.7-1.8-2.4-3.4-0.3-5.2
		c2.4-2,3.8,0.5,5.5,1.6c0,0.5,0.1,1,0.1,1.5c-3,1-3.1,3.5-2.9,6c0.2,2.8-1,3.7-3.7,3.8c-4.2,0.2-8.4-1-12.5,1.5
		C369.2,271.4,368.2,269.3,367.2,267.9z"/>
	<path class="st118" d="M458,243c0.9,1.4,1.5,3,1.1,4.7c-0.4,2,1,4.9-0.9,5.9c-1.9,1.1-3-1.9-4.5-3c-1.2-0.9-2.5-0.6-3.8-0.7
		c-0.3-0.3-0.6-0.6-1-0.9c-0.5-2-0.7-4.2,1.9-4.7c2.7-0.5,3.2,1.4,3.4,3.6c0.1,1.1,1,2,2.5,2.5c0.2-2.3,0.9-4.4-0.9-6.3
		c-0.5-0.6-1.3-1.4-0.2-1.9C456.3,242.1,457.2,242.7,458,243z"/>
	<path class="st119" d="M444,244c-5.8-4.5-10.4-10.3-15.7-15.4c2.6-1.4,4.1,0.9,6.1,1.2c2.9,2.8,5.6,5.7,8.5,8.4
		C444.6,240,445.1,241.8,444,244z"/>
	<path class="st120" d="M448,295c2.7,0,4.4,1,4.3,4c-3.7,3.5,0.3,5.7,1.9,8.9c-6.2-1-5.2-7-8.3-9.7C446.6,297.1,447.3,296,448,295z"
		/>
	<path class="st121" d="M395,348.9c0.3,1.1,1.2,1.2,2.1,1.3c-3.4,2.3-5,1.7-5-2.3c0-9.7-0.5-19.5,0.2-29.2c0.3-0.7,0.8-0.9,1.5-0.7
		c0,8.8,0,17.5,0.2,26.3C394.1,345.8,393.3,347.6,395,348.9z"/>
	<path class="st121" d="M393.9,318c-0.2,0-0.5,0-0.7,0c-1-0.1-1.4-0.7-1.3-1.7c2.6-3.4,0.9-7.1,1.1-10.7c0-4.3,0-8.5,0-12.8
		c0.3,0,0.6,0,0.9,0C393.9,301.1,393.9,309.6,393.9,318z"/>
	<path class="st45" d="M444,244c0.6-2.4-0.6-4-2.2-5.7c-2.6-2.7-6-4.7-7.5-8.4c0.2,0,0.3-0.1,0.4-0.3c4.4,3.2,8.3,6.8,11.1,11.5
		C445.2,242,444.6,243,444,244z"/>
	<path class="st122" d="M423,323.8c-0.3-1.7,1.4-2.5,1.9-3.8c1.8-2.2,2.9-5.2,6-6C430.5,319,426.9,321.5,423,323.8z"/>
	<path class="st123" d="M393.8,280.1l-0.3,0l-0.3,0c0-6.1,0-12.2,0-18.3c0.2,0,0.5,0,0.7,0C393.8,267.9,393.8,274,393.8,280.1z"/>
	<path class="st124" d="M393.8,230l-0.4,0l-0.4,0c-1.3-1.4-2.7-2.8-3.3-4.8c0.8-1.5,2.1-2.8,3-4.3c0.4-0.3,0.8-0.3,1.2,0
		C393.9,224,393.9,227,393.8,230z"/>
	<path class="st15" d="M393.2,244c-0.9-0.7-1.9-1.5-2.8-2.2c-0.5-2.4,1.4-2.9,2.9-3.8l0.4,0c0,2,0,4,0,6
		C393.6,244,393.4,244,393.2,244z"/>
	<path class="st124" d="M393.9,221c-0.3,0-0.6,0-0.9,0c-1.3,0.7-2.2,0-3.1-0.8c-0.2-0.4-0.2-0.9-0.1-1.3c1.2-1.3,1.9-2.9,3.4-3.9
		c0.2,0,0.5,0,0.7,0C393.9,217,393.9,219,393.9,221z"/>
	<path class="st125" d="M436,308.1c0.4-2.6,1.8-3.3,3.4-4.7C439.2,305.9,437.8,306.7,436,308.1z"/>
	<path class="st4" d="M431,313c-0.8-1.4,0.4-0.8,0.9-1c0.3,0.2,0.4,0.4,0.4,0.6c0,0.2-0.1,0.4-0.2,0.4
		C431.7,313.3,431.3,313.3,431,313z"/>
	<path class="st85" d="M431,313c0.3-0.1,0.6-0.1,0.9-0.1c0.2,0.1,0.3,0.2,0.5,0.2c0.1,0.4-0.1,0.7-0.4,0.9l-0.4,0c0,0-0.4,0-0.4,0
		C431.1,313.7,431,313.4,431,313z"/>
	<path class="st126" d="M431.8,312.9c0.1-0.3,0.2-0.6,0-0.9c0.4,0,0.8,0,1.2,0c-0.1,0.3-0.1,0.7-0.2,1c-0.2,0-0.4,0-0.6,0
		L431.8,312.9z"/>
	<path class="st127" d="M391.9,316.3c0.4,0.6,0.9,1.1,1.3,1.7c0,9.8-0.1,19.6-0.1,29.4c0,2.9,0.7,4.6,4,2.9c0.3-0.2,0.6-0.2,0.9-0.1
		c0.6,0.3,0.6,0.7,0.1,1.2c-0.3,0.8-0.4,1.9-0.9,2.3c-4.1,2.6-5.2,5.7-2.2,9.9c0.6,0.9-0.2,2.2-1.4,2.9c-1,0.5-1.9,0.6-2.8,0
		c-1.1-0.7-1.9-1.9-1.4-3c3.6-7.3,1.1-15,1.7-22.5c0.4-6,0-12,0.1-17.9c0.1-3,0-5.4-4-4.9c-1.6,0.2-2.9-0.7-3.4-2.3
		C386.6,316,389.2,316.1,391.9,316.3z"/>
	<path class="st128" d="M382.1,340.1c-0.4,0.7-1.1,1.5-1,2.2c0.2,1.7-1.7,4.3,1.6,4.8c3.5,0.4,2.3-2.5,2.3-4.1
		c0.1-5.6,0-11.2,0-16.8c-1.8-1.4-2.9-2.9,0.1-4.1c1.9,0.8,1.9,2.4,1.9,4.1c0,6.5-0.1,12.9,0,19.4c0.1,2.8-0.8,3.9-3.7,3.8
		c-2.5-0.1-5.3-0.1-4.3-3.5c1-3.3-3.4-5.5-1.1-8.7C380.1,337.1,382.1,337.3,382.1,340.1z"/>
	<path class="st129" d="M393.3,370c0,1.8-0.4,3.4-2.4,3.8c-2.4,0.5-2.9-1.6-3.8-3.1c0.2-1.9-0.8-2.9-2.6-2.8
		c-4.2,0.4-8.7-1.3-12.7,1.2c-1.4,0.9-2.6,0.5-3.5-0.6c-0.8-0.9-0.8-2.2-0.2-3.3c0.8-1.4,2.3-1.8,3.4-1c3.3,2.5,7.1,1.4,10.6,1.4
		C386.4,365.8,389.9,367.6,393.3,370z"/>
	<path class="st118" d="M370.9,344.6c0.7-2.3,2.2-3.4,4.4-2c1.6,1,1.8,2.5,0.5,4.2c-1.4,1.9-1.7,4.4-0.1,5.9
		c1.4,1.3,3.7,1.1,5.5-0.3c1.5-1.1,3.1-1.3,4.4,0.3c0.8,1,0.9,2.1,0.1,3.2c-1.3,1.6-2.7,0.6-4.3,0.5c-5.9-0.6-9.8-2.7-9.4-9.4
		c0-0.4-0.6-0.8-0.9-1.2C370.5,345.5,370.5,345,370.9,344.6z"/>
	<path class="st59" d="M370.9,344.6c0,0.4,0.1,0.8,0.1,1.2c-1.5,1.4-3.1,3.7-5.3,1.5c-2.1-2.1-0.3-4,1.2-5.6
		c1.9-2.1,3.8-4.2,5.9-6.1c1.8-1.6,2.5-3.4,2.4-5.7c0,0-0.1,0.1-0.1,0.1c1.9-1.2,4.1-2.4,5.4,0.3c1.3,2.7-0.8,3.6-3.1,4.3
		c-3.5,1.1-5.3,4.3-7.7,6.7C368.4,342.7,369.9,343.7,370.9,344.6z"/>
	<path class="st130" d="M403.9,380.7c-2.6,1.6-4.7,1.4-5.6-1.9c-0.3-1-0.8-1.3-1.9-1.8c-3.9-1.6-3.9-3-0.2-5.9
		C398.1,374.8,404.4,375,403.9,380.7z"/>
	<path class="st131" d="M375,358.8c1.1-1.2,2.1-1.7,3.1,0.1c0.3,2.4-0.9,3.3-3.2,3.2l0.1,0c-2.2-1.5-4.9,0.1-7.2-1
		c-0.5-0.4-1.1-0.6-1.5-1.1c-1-1.3-1.9-2.8-0.9-4.4c0.7-1,1.9-1.3,3-0.9c2.3,0.7,2.2,2.5,1.6,4.3C371.7,359.9,373.4,359.8,375,358.8
		z"/>
	<path class="st132" d="M405.4,369.8c1.3-1.8,2.7-3,4.7-1c1.2,1.2,0.8,2.6-0.4,3.4c-2.2,1.4-4.3,1.4-5.7-1.3
		C403.9,369.9,404.2,369.2,405.4,369.8z"/>
	<path class="st70" d="M410.8,346.7c-2.8-1.5-5.3-0.2-7.9,0.8l-0.1-0.3c2.2-2.8,8.2-4.1,10.5-1.9c1.6,1.5-0.2,2.1-1.2,2.7
		C410.9,348.2,410.6,347.7,410.8,346.7z"/>
	<path class="st70" d="M385.1,321.9c-1.9,1.3-0.5,2.8-0.1,4.1c-1.7-0.1-3.7,0.7-4.7-1.5c-0.5-1.1-0.4-2.3,0.6-3.1
		C382.4,320.3,383.9,320.2,385.1,321.9z"/>
	<path class="st133" d="M412,360c-1.5-0.6,0.4-4.4-3-3.1c-0.4-0.2-0.6-0.4-0.7-0.8c0.9-1.4,2.3-2.3,4.3-2.9
		C413.4,355.6,413.4,357.8,412,360L412,360z"/>
	<path class="st134" d="M374.9,362.1c1.5-0.7,2.4-1.9,3.2-3.2c2.2,0.1,2.6,1.5,1.5,3C378.3,363.8,376.6,364.6,374.9,362.1z"/>
	<path class="st135" d="M382.1,340.1c-1.4-1-2.7-2.1-4.1-3.1c1-1.7,2.5-1.5,3.7-0.6C383,337.4,383.7,338.7,382.1,340.1z"/>
	<path class="st76" d="M405.4,369.8c-0.5,0.4-0.9,0.8-1.4,1.1c-2.9-2.8-2.7-4.8,1.6-5.6l0.2,0.3C405.3,367,403.2,368.1,405.4,369.8z
		"/>
	<path class="st136" d="M402.8,347.2c0,0,0.1,0.3,0.1,0.3c-0.9,2.1-2.9,3-4.7,3.9c0-0.4-0.1-0.8-0.1-1.2
		C399.3,348.6,400.5,347,402.8,347.2z"/>
	<path class="st77" d="M399.9,361.9c1.4-1.1,2.5-2.7,4.6-2.7c0.4-0.1,0.6,0.1,0.4,0.5c-0.8,1.7-2.3,2.5-3.9,3.2
		C400.6,362.6,400,362.5,399.9,361.9z"/>
	<path class="st136" d="M403.5,353.2c0.5-1.9,2.1-2.5,3.7-3.1c0.9-0.3,1.1,0,0.8,0.9c-1.1,1.3-2.3,2.5-4.1,2.8
		C403.8,353.5,403.7,353.4,403.5,353.2z"/>
	<path class="st136" d="M404.9,359.7c0-0.2-0.2-0.4-0.4-0.5c0.6-1.9,2.2-2.5,3.8-3.1c0.2,0.3,0.5,0.6,0.7,0.8
		C407.9,358.3,406.7,359.4,404.9,359.7z"/>
	<path class="st136" d="M403.5,353.2c0.2,0.1,0.3,0.3,0.4,0.5c-0.9,1.6-2.3,2.5-4.7,3.2C400,354.2,401.7,353.5,403.5,353.2z"/>
	<path class="st137" d="M405.8,365.6c0,0-0.2-0.3-0.2-0.3c0.2-2,2.1-2.4,3.4-3.3c0.4,0.3,1,0.4,1.2,1
		C408.8,364.1,407.7,365.5,405.8,365.6z"/>
	<path class="st138" d="M408,350.9c-0.3-0.3-0.5-0.6-0.8-0.9c1.2-1.1,2.4-2.3,3.6-3.4c0.4,0.4,0.8,0.9,1.2,1.3
		C411,349.3,409.6,350.3,408,350.9z"/>
	<path class="st139" d="M397,361.1c-0.3-0.3-0.8-0.6-1-1c-0.6-1.3,0.1-2.2,1.2-2.8c0.4-0.2,0.9-0.1,1.4-0.1c-0.3,1-0.5,1.9-0.8,2.9
		C397.7,360.5,397.4,360.8,397,361.1z"/>
	<path class="st140" d="M367.8,361.1c2.4,0.2,5.1-1.2,7.2,1C372.6,361.7,370.2,361.4,367.8,361.1z"/>
	<path class="st141" d="M397,361.1c0.3-0.3,0.5-0.7,0.8-1c0.7,0.6,1.5,1.3,2.2,1.9c0.4,0.3,0.7,0.6,1.1,1
		C398.3,365.1,398,362.3,397,361.1z"/>
	<path class="st140" d="M375,358.8c-1.6,1.7-3.2,2-4.9,0.2C371.7,359.4,373.3,359.4,375,358.8z"/>
	<path class="st142" d="M410.2,363.1c-0.4-0.3-0.8-0.7-1.2-1c0.8-0.9,1.6-1.9,3-2c0,0-0.1-0.1-0.1-0.1
		C411.9,361.3,411.7,362.5,410.2,363.1z"/>
	<path class="st122" d="M464,248.9c-0.2,3.8-1,7.6,1.1,11.2c-2.8,0.5-3.7-1.6-3.6-3.5c0.1-5-0.4-9.8-1.5-14.6c4.4-3.2,5.3,0,6.1,3.3
		C466.3,247,465.2,248,464,248.9z"/>
	<path class="st143" d="M422.9,200c4.1,2.2,6.7,5.2,6.1,10.2c-0.2,1.6-0.4,3.3,2,3.8c1.7,0.3,2.4,1.8,1.8,3.5
		c-0.4,1.2-1.5,1.7-2.7,1.7c-1.9,0-2.5-1.3-2.9-2.8c0-0.2-0.1-0.3-0.1-0.5C427.7,210,426.4,204.7,422.9,200
		C423,199.9,422.9,200,422.9,200z"/>
	<path class="st59" d="M411,186c1.4-1.3,3.1-2.5,3.4-4.6c0.3-1.8,1.1-3.4,3-3.3c2.3,0.1,2.8,1.9,2.8,3.9c-5.8,1.7-8.6,7.8-14.2,9.8
		c0-1.4,1.3-1.9,1.9-2.9C408.7,187.8,409.4,186.5,411,186z"/>
	<path class="st117" d="M472.2,250.6c4.4,2.1,6.8,6.9,11.9,8.2c1.6,0.4,1.3,2.8-0.2,4.2c-1.5,1.3-3.4,0.8-3.7-0.6
		C479.2,257.3,474.4,255,472.2,250.6z"/>
	<path class="st140" d="M435.9,222.2c1,0.1,2,0.1,3,0.2c1.7,0.3,2.8,1.2,2.9,2.9c0.1,1.3-0.7,2.2-1.9,2.6c-1.7,0.6-3.3-0.1-3.6-1.7
		c-0.4-2.8-2.3-2.2-4-2.3c-1.8-0.1-3.7,0.7-5.2-0.9C429.9,221.7,433,223.2,435.9,222.2z"/>
	<path class="st70" d="M454.5,241c-3.3-1.2-5-4.7-8.8-5c-1-0.1-1.4-1.7-1-2.9c0.3-1,0.8-1.8,2-2c1.3-0.3,2.8,0.1,2.9,1.2
		C449.8,236,453,237.9,454.5,241z"/>
	<path class="st70" d="M464,248.9c0-1.6,1.3-2.4,2-3.6c2.9-0.2,4.9,1.3,3.3,3.8c-1.6,2.5-0.9,4.5-0.3,6.7c-2.4,0.3-2.8-1.4-2.9-3.1
		C465.9,251.1,465.1,249.9,464,248.9z"/>
	<path class="st144" d="M412.8,191.2c1.9,0.4,3.4,1.4,3,3c-0.5,2-1.6,4.9-3,5.2c-1.6,0.4-2.8-2.1-2.8-4.4
		C409.9,192.7,411.1,191.7,412.8,191.2z"/>
	<path class="st116" d="M474,246.8c2-3.3,5.3-3,8-4.2c0.8-0.3,1.8,0.5,2.2,1.6c0.5,1.2,0.2,2.2-0.7,3.1c-0.9,0.9-2.2,1.2-3.1,0.4
		C478.5,246.2,476.5,245.8,474,246.8z"/>
	<path class="st138" d="M412,206.3c-3.1-0.4-6.2,0.2-6.8-3.3c-0.3-1.5,0.8-3,2.6-2.9C412.2,200,410.5,203.8,412,206.3z"/>
	<path class="st70" d="M417.7,204c3.3,0.9,6.3,0.3,6.7,3.7c0.2,1.7-1.2,2.8-2.8,2.7C417.8,210.2,419.3,206.8,417.7,204z"/>
	<path class="st135" d="M487,268.9c-0.4,1.7-1.2,3.7-3,3c-2.4-1-4.7-2.7-4.9-5.9C482.1,266,483.1,271.5,487,268.9z"/>
	<path class="st141" d="M435.9,222.2c-2.8,1.7-5.9,0.4-8.9,0.8c-1.2-0.7-1.1-2.1,0.1-1.7C430.1,222.3,433.1,221.6,435.9,222.2z"/>
	<path class="st145" d="M207.2,211.9c0.1,1.4-0.5,2.6-1.5,3.5c-4.7,4.5-9.4,9-13.9,13.6c-2.2,2.3-3.6,1.8-5.7-0.3
		c-2.1-2.1-2.5-3.7,0-5.6c1.4-1,2.2-2.4,2.5-4.2c0.3-1.6,1.3-2.9,3-2.7c1.3,0.1,2.5,1,2.6,2.6c0,2-1,3.1-3.1,3.1
		c-1.7,0-2.6,1.4-3.7,2.3c-1.1,1-1,2,0.1,2.9c0.9,0.8,1.7,1.6,2.9,0.4c4.1-4.1,8.3-8.2,12.5-12.3c0.9-0.8,1-1.6-0.1-2.4
		c-1.6-1.2-2-2.7-0.6-4.3c0.9-1,2.1-1,3.2-0.6C207.3,208.8,207.2,210.4,207.2,211.9z"/>
	<path class="st146" d="M179.9,218.2c-2.1-0.2-4.8-0.1-4.7-3.2c0.2-2.7,2.6-2.9,4.9-3.1c4.8-0.5,9.9,1.1,14.6-1.8
		c1-0.6,2.2,0.3,2.9,1.4c0.7,1.1,0.6,2.2-0.3,3.2c-1,1.2-2.2,1.5-3.5,0.5c-3.5-2.5-7.4-1-11.1-1.3c-1.3-0.1-1.6,0.8-1.6,1.9
		C181.7,217.1,181,217.8,179.9,218.2z"/>
	<path class="st147" d="M198.2,205.1c-0.4-0.4-0.8-0.7-1.1-1.1c1.5-2.6,4.9-3.9,5.2-7.6c0.1-1.3,1.5-2.1,3.1-1.8
		c1.2,0.3,2.2,1,2.4,2.2c0.3,1.5-0.5,2.9-1.8,3.1C202.5,200.6,200.8,203.4,198.2,205.1z"/>
	<path class="st148" d="M179.9,218.2c0.4-0.8,0.8-1.6,1.2-2.3c1.7,0.7,4.3,0.6,4.5,3.1c0.2,2.6-2.1,2.7-4,3.4
		c-1.3,0.5-2.4,1.7-3.5,2.6c-0.8,0.5,0,2.7-2.1,2.1c-2-1.7,0.1-2.5,0.9-3.5C178.2,222,180.2,220.8,179.9,218.2z"/>
	<path class="st148" d="M169.9,229.4c-1.8-1.4-3.8-2.6-3.1-5.5c0.4-1.5,0.6-3,2.4-3.2c1.2-0.1,2.3,0.3,2.9,1.4
		c0.8,1.4,0.4,2.6-0.7,3.5c-0.8,0.6-1.6,1.1-1.2,2.3C170.5,228.5,170.4,229,169.9,229.4z"/>
	<path class="st42" d="M169.9,229.4c0.1-0.5,0.1-1,0.2-1.5c1.4,0.8,2.6,1.9,4.4,2c1.7,0.2,2.6,1.5,2.2,3.2c-0.2,1.2-1.1,2.1-2.4,2.2
		c-1.7,0.2-2.8-0.6-3.3-2.3C170.7,231.9,170.3,230.6,169.9,229.4z"/>
	<path class="st74" d="M181.4,229.8c2.2-0.2,4,0.3,4.1,2.9c0,1.7-1.1,2.8-2.8,2.8c-2.6-0.1-3-2-2.8-4.2
		C179.6,230.1,180.1,229.6,181.4,229.8z"/>
	<path class="st69" d="M181.4,229.8c-0.5,0.5-1,1-1.5,1.5c-1.3-1.4-2.6-2.9-3.9-4.3c0.7-0.7,1.4-1.4,2.1-2.1
		C177.7,227.6,180.2,228.2,181.4,229.8z"/>
	<path class="st149" d="M456,290.9c3.2,4.1,1.7,9.5,3.9,13.9c-4.6,0.3-7.2-1.7-7-6.6C453.5,295.6,451.3,291.8,456,290.9z"/>
	<path class="st149" d="M452,333c-1.1,0.4-1.6,1.3-2,2.2c-5.3,0.9-10.8,0.1-16,1.8c-1.1,0.2-1.5-0.4-1.6-1.3c0-1.1,0.3-1.9,1.7-1.8
		c3.1,0,6.2-0.1,9.2,0.1c2.3,0.1,2.8-0.9,2.6-2.9c-0.4-0.5-0.3-0.9,0.1-1.3C448.7,329.7,451.6,329.1,452,333z"/>
	<path class="st117" d="M436,316.7c3,1.1,4.3,2.6,5.6,4.1c1.2,1.4,0,2.4-0.9,3.4c-1.3,1.5-2.6,2.8-2.9,5c-0.2,1.5-1.8,2.6-3.3,2.5
		c-1.2-0.1-2.5-1.3-2.5-2.7c0-1.6,1.2-2.7,2.8-3c1.2-0.2,2.1-0.7,3-1.5c2.4-2.4,2.8-4.2-1.2-4.8c-0.8-0.1-1.8,0.2-1.5-1.1
		C435.4,317.8,435.9,317.1,436,316.7z"/>
	<path class="st150" d="M448.1,324c1.1-3.5-1-5.3-3.9-5.9c-2.1-0.4-3.5-1-3.5-3.2c0-1.5,1-2.5,2.5-2.6c2.1-0.2,2.9,1.2,3.1,3.1
		c0.2,1.8,1.7,2.8,3,3.8C452.3,321.6,451.5,323.1,448.1,324L448.1,324z"/>
	<path class="st132" d="M458,319c-0.4,0.5-0.8,0.9-1.2,1.4c-1.4-1.7-3.1-2.8-5.4-3c-1.5-0.2-2.3-1.4-2.2-2.8c0.1-1.4,1-2.4,2.5-2.6
		c1.5-0.2,3,0.6,3,1.8C454.8,316.3,456.9,317.2,458,319z"/>
	<path class="st140" d="M426.9,347c-0.4,1.7-0.8,3.5-1.3,5.2c-0.4,1.5-1.5,2.2-3,1.9c-1.3-0.2-2.1-1-2.4-2.2
		c-0.4-1.5,0.4-2.6,1.8-3.1C423.6,348.1,425.3,347.6,426.9,347C427,347,426.9,347,426.9,347z"/>
	<path class="st116" d="M419.8,337.1c0-1.8,0.8-4.1,2-3.6c1.8,0.8,3.7,2.5,3.6,5c0,1.4-1,2.5-2.6,2.4
		C420.1,340.9,419.9,338.9,419.8,337.1z"/>
	<path class="st59" d="M446.1,329.8c0,0.4-0.1,0.9-0.1,1.3c-2,0.1-4.3,0.6-4.8-2.2c-0.5-2.8,1.9-3,3.8-3.6c1.1-0.4,2.1-0.9,3.1-1.3
		c0,0-0.1-0.1-0.1-0.1C447.3,325.9,446.7,327.8,446.1,329.8z"/>
	<path class="st133" d="M434.1,333.9c-1.4,1-1.5,2-0.1,3.1c-0.7,1.3-1.9,1.1-3.1,1.2c-1.7-1.1-2.9-2.5-1.3-4.5
		C431.1,332,432.7,331.8,434.1,333.9z"/>
	<path class="st57" d="M424,331.1c2.2-3.5,5.2-6.2,8.1-9.1c0.4,0.4,0.8,0.7,1.2,1.1c-2.7,3-5.5,6-8.2,9
		C424.7,331.8,424.3,331.4,424,331.1z"/>
	<path class="st48" d="M459,316c-0.7-2.4-2.4-4.3-4.3-6.7c3.3-0.1,4.7,3.2,7.3,2.8C460.9,313.3,462,316.2,459,316z"/>
	<path class="st151" d="M459,316c2-0.5,1.3-3.2,3-4c2.5,0.9,2.9,2.6,1.3,4.4C461.9,318.1,460.2,318.2,459,316z"/>
	<path class="st5" d="M432.3,313c0.2,0,0.4,0,0.6,0c-0.1,0.5,0.8,2-0.9,1.1C432,313.7,432.2,313.4,432.3,313z"/>
	<path class="st152" d="M263.3,407.1c-0.4-0.4-0.8-0.7-1.2-1.1c-0.2-1.9-0.1-3.9,2.2-4.3c2.3-0.4,3.3,1.2,3.6,3.2
		c0.4,2.2,1.8,3.9,3.8,4c1.9,0,2.9-2,3.5-3.8c0.3-0.8,0.4-1.7,0.8-2.4c0.6-1.1,1.6-1.7,2.9-1.1c0.9,0.4,1.8,0.9,2,2
		c0.3,1.3-0.1,2.3-1.2,3c-0.4,0.2-0.9,0.3-1.4,0.5C273.6,408.9,273.6,408.9,263.3,407.1z"/>
	<path class="st27" d="M269.9,393c-2.4-2.3-4.8-4.5-7.2-6.8c-1.7-1.6-3-4.3-5.7-0.9c-1.1,1.4-2.8,0.3-3.6-1.2
		c-0.8-1.5-0.4-3,1.2-3.8c1.9-0.9,3.9-0.9,5.5,0.7c3.7,3.6,7.3,7.2,11,10.8C271.2,392.9,270.9,393.4,269.9,393z"/>
	<path class="st54" d="M274,400.7c-1.7,1.8-3.3,3.2-5.4,0.2c-1-1.5-2.8-2.2-4.6-2.6c-1.5-0.3-2.2-1.4-2-3c0.1-1.6,1.1-2.4,2.6-2.5
		c1.6-0.1,2.4,0.7,2.9,2.2c0.9,2.6,1.1,6,5.4,4.9C273.9,399.3,274,400,274,400.7z"/>
	<path class="st42" d="M281,417.9c0.4,0.4,0.7,0.8,1.1,1.1c-0.4,1.1-0.8,2.1-1,3.2c-0.5,1.9-1.6,2.8-3.5,2.6c-1.2-0.2-2.1-1-2.3-2.2
		c-0.3-2,0.9-3,2.6-3.6C278.9,418.7,280,418.3,281,417.9z"/>
	<path class="st53" d="M288,421.9c-0.4-0.4-0.7-0.8-1.1-1.2c1.9-2.1,1.1-6.2,5.1-6.8c3.4,3.5,3.2,4.5-1.1,6.3
		C289.9,420.6,289,421.4,288,421.9z"/>
	<path class="st54" d="M246.1,384.8c-0.4,0.4-0.8,0.8-1.2,1.2c-1-0.2-2-0.2-2.9-0.6c-1.6-0.6-2.4-1.7-2-3.5c0.3-1.3,1.1-2,2.4-2.1
		c1.5-0.1,2.5,0.8,3,2.1C245.8,382.9,245.9,383.9,246.1,384.8z"/>
	<path class="st99" d="M269.9,393c0.4-0.4,0.7-0.7,1.1-1.1c1.4,1.3,2.7,2.6,4.1,4c-0.1,0.7-0.5,1.1-1.2,1.2
		C272.6,395.8,271.2,394.4,269.9,393z"/>
	<path class="st147" d="M273.9,397.2c0.4-0.4,0.8-0.8,1.2-1.2c3,2.4,0.8,3.5-1.1,4.8c-0.4-0.3-0.7-0.6-1.1-0.9
		C273.2,399,273.6,398.1,273.9,397.2z"/>
	<path class="st5" d="M643,220.7c5.6-0.2,10.7,0.3,13.2,5.6c2.7,5.8,2.1,11.7-1,17.2c-2.3,4.1-12.6,6.7-17.3,4.8
		c-1.8-0.7-1.4-2.1-1.4-3.3c0-7,0-13.9,0-20.9C636.5,218.1,641.2,221.8,643,220.7z"/>
	<path class="st74" d="M344.8,431.8c0.6,0.1,1.1,0.2,1.7,0.2c-1,1.8-2.7,2.1-4.7,2.1c-2.6,0-5.6-0.9-6.5,3.1c-0.2,1-1.7,1.4-3,1
		c-1.2-0.4-2-1.3-2-2.5c-0.1-1.5,0.8-2.4,2.2-2.8C336.5,431.7,340.7,432.5,344.8,431.8z"/>
	<path class="st42" d="M328.1,433.1c-0.3,3.5-0.5,7-0.8,10.4c-0.2,1.8-0.8,3.3-2.9,3.5c-1.3,0.1-2.2-0.5-2.7-1.8
		c-0.6-2,0.2-3.3,2.1-3.8c2-0.5,1.8-1.9,2-3.5c0.2-2.1-0.8-4.4,1.1-6.1C328,431.7,328.4,432.1,328.1,433.1z"/>
	<path class="st146" d="M337,422c2.2-3.5,6.8-5.2,7.6-10c0.2-1.1,1.8-1.3,3-1c1.2,0.2,1.6,1.1,2,2c0.5,1.3-0.2,2.7-1.2,2.9
		c-4.8,0.6-6.7,5.1-10.2,7.3C337.1,423.4,336.9,422.9,337,422z"/>
	<path class="st56" d="M351,417c0.8-1.5,2-2,3.7-1.7c1.7,0.3,3.3,0.6,3.6,2.7c0.2,1.3-0.5,2.3-1.5,2.8c-1.8,0.8-3.2,0.3-3.8-1.7
		C352.6,418.1,350.4,418.9,351,417z"/>
	<path class="st42" d="M345.1,425.1c-0.2,0.9-0.2,2-0.6,2.8c-0.6,1.2-1.6,2.1-3.1,1.7c-1.1-0.3-2.1-1-2.3-2.3
		c-0.2-1.5,0.5-2.6,1.8-3.1c0.9-0.3,1.9-0.3,2.9-0.4C344.9,423.6,345.4,424,345.1,425.1z"/>
	<path class="st153" d="M337,422c0.4,0.3,0.7,0.7,1.1,1c-3.3,3.4-6.7,6.8-10,10.1c-0.4-0.4-0.8-0.8-1.2-1.2
		C330.3,428.6,333.7,425.3,337,422z"/>
	<path class="st82" d="M345.1,425.1c-0.4-0.4-0.8-0.8-1.3-1.3c2.4-2.3,4.8-4.6,7.2-6.9c0.7,0.7,1.3,1.4,2,2
		C349.1,419.4,348.1,423.5,345.1,425.1z"/>
	<path class="st18" d="M387,236c0.3,0.3,0.5,0.6,0.8,0.9c1.2,2.4,0.1,4.2-1.5,5.8c-3.4,3.3-6.8,6.7-10.2,10.2
		c-1.8,1.9-3.9,2.6-6.3,1.7c-2.4-0.9-1.9-3.3-1.8-5.2c0.2-6.4-0.6-12.9,0.4-19.3c1.4-1.9,3.1-2.8,5.3-1.2c2.4,0.5,5-0.9,7.2,1.1
		c-1.8,2.3-5.8-0.8-6.8,2.7c-0.7,2.4-0.3,5-0.2,7.5c0.1,2.1-0.9,4.2-0.2,6.3c0.5-3.7-0.1-7.4,0.2-11.1c0.1-1.7,0-3.6,2.1-4.1
		c2.1-0.5,4.6-0.9,5.7,1.6C382.9,235.3,384.9,235.6,387,236z"/>
	<path class="st154" d="M381.1,154c0.7-0.3,1.4-0.7,2.1-1c-0.8,2.4-2.8,4.4-2.4,7.3c0.6,5.2,0.3,10.2-4.7,13.6
		c-1.2,0.8-1.2,2.3-1.2,3.6c0,10.6,0,21.2,0.1,31.8c0,1.6,0.7,3.2,1.1,4.8c-3-0.1-3.2-2.3-3.2-4.6c0-10.7,0-21.5,0-32.2
		c0-1.5,0.1-3.2,1.4-4c5-3.2,5.1-8,4.7-13.1c-0.1-1.7,0-3.3,0.9-4.8C380.3,154.9,380.7,154.4,381.1,154z"/>
	<path class="st133" d="M369.1,230.1c-0.8,7-0.2,14-0.4,21c-0.1,4.3,3.3,4.2,4.9,2.6c5.2-5.1,12.1-9,14.3-16.7
		c2.2-1.5,4.1-1.5,5.5,1c0,2-1.4,2.9-2.9,3.8c-1.2,0.7-2.4,1.5-3.5,2.2c-4.8,3.4-7.9,8.6-12.9,11.8c-1.3-0.6-2.6-0.4-3.9-0.4
		c-1.6,0-2.6-0.5-2.5-2.3c0.4-7.7-0.8-15.5,0.6-23.3C368.5,230,368.8,230.1,369.1,230.1z"/>
	<path class="st155" d="M387,236c-3,2.5-5.2,2.1-5.9-2c-0.5-2.6-2.3-2.3-4.1-2.4c-2.3,0-2.2,1.6-2.1,3.1c0.4,3.5-1.1,7.2,1.4,10.5
		c1,1.3,0,2.6-1.1,3.4c-1,0.7-2.2,0.7-3.2-0.2c-1-0.8-1.5-2.1-0.8-3.1c2.4-3.1,1.7-6.7,1.4-10c-0.4-4.7,1.4-6.3,5.8-5.6
		c0.8,0.1,1.6,0.2,2.5,0.2c0.7,1.2,1.7,1.9,3.1,1.9C386.7,232.1,387.1,233.9,387,236z"/>
	<path class="st138" d="M368.9,218c-1.4,1-1.8,3.1-4,3.1c1.7-5.7,2.3-11.5,0.1-17.3c-0.5-1.4-0.3-2.6,0.9-3.6c1-0.8,2.1-0.9,3.2-0.2
		c1.2,0.9,1.8,2.1,1,3.4C367.5,208.1,369.1,213.1,368.9,218z"/>
	<path class="st48" d="M390.1,225.1c1.7,1.2,3.6,2.3,2.9,5c-2.7,2.1-4.6,2-5.7-1.7c-1.2-4-5.1-5.8-7.6-8.8c-1.4-1.7-3.8-2.7-3.8-5.5
		c4.9,1.6,6.6,7,11.1,9.1C388.9,222.5,389.6,223.6,390.1,225.1z"/>
	<path class="st129" d="M372.2,171.1c-1.2,2-4.3,3.3-2,6.6c0.8,1.1-0.4,2.5-1.7,3.1c-1,0.4-2,0.2-2.7-0.6c-1.1-1.1-1.3-2.6-0.4-3.6
		c1.7-2,3.6-3.8,5.5-5.7C371.3,170.5,371.8,170.6,372.2,171.1z"/>
	<path class="st156" d="M372.2,171.1c-0.5-0.1-0.9-0.1-1.4-0.2c2-2.3,2-5,2.1-7.9c0.1-2.7-1.2-5.7,1.2-8c0.3,0.3,0.6,0.7,0.9,1
		c-0.1,3.2-0.2,6.5-0.2,9.7C375,168.2,374.3,170,372.2,171.1z"/>
	<path class="st157" d="M367.6,193.5c-1.8-0.3-2.9-1.2-2.7-3c0.2-1.6,0.8-4,2.1-4c2,0,3.4,2,3.5,4.2
		C370.5,192.4,369.2,193.3,367.6,193.5z"/>
	<path class="st57" d="M368,224c0.4-1.9,0.7-3.9,1.1-5.8c1.6-0.7,3.3-1.7,4.8,0.2c1.6,1.9,0.3,3.3-0.9,4.6
		C371.6,224.4,369.8,224.5,368,224z"/>
	<path class="st149" d="M373.8,228.9c-1.6,0.2-3.3,0.2-4.7,1.2c0,0-0.2-0.3-0.2-0.3c-0.4-0.1-0.7-0.4-0.8-0.8c0.7-1.3,1.1-2.6,0.9-4
		c1-1.6,2.5-1.8,4.1-1.1C375.3,225.3,374.7,227.1,373.8,228.9z"/>
	<path class="st158" d="M373.1,223.9c-1.5-0.1-2.8,0.4-4.1,1.1c-0.7,0-1.3,0-2-0.1c0.3-0.3,0.7-0.6,1-0.9c1.5-1,3.2-1,5-1
		C373,223.3,373.1,223.6,373.1,223.9z"/>
	<path class="st149" d="M478.1,291.9c-1.6-0.6-1.7,0.6-2.3,1.6c-1.4,2.1-3.6,2.3-4.7,0c-1.2-2.5-2-3.1-4.2-1.2c-1.3,1.1-2.8,1-4-0.4
		c-1.1-1.2-0.9-2.5,0.1-3.6c1.2-1.4,2.6-1.3,3.9-0.3c1.9,1.5,4.1,0.9,6.6,0.8c-1.4-3.3-5-4.4-6.4-7.3c0-0.2-0.1-0.4-0.1-0.6
		c5.2,1.9,8.2,6.4,12,9.9C479.4,291.9,478.9,292.1,478.1,291.9z"/>
	<path class="st57" d="M503.9,265c3.3,0.8,3.7,2.1,1.3,4.7c-2.9,3-7,5.1-7.8,9.9c-0.3,1.5-1.8,1.8-3.3,1.4c-1.3-0.3-2-1.3-2.1-2.5
		c-0.1-1.8,1.2-2.5,2.7-3.1C499.5,273.4,503,270.2,503.9,265C504,264.9,503.9,265,503.9,265z"/>
	<path class="st159" d="M482.2,278.1c1.5,0.4,2.7,0.4,4-1c2.7-2.9,5.5-5.7,8.5-8.3c1.6-1.4,0.9-2.5,0.3-3.9c2.7,0.5,4.2,1.6,1.8,4.1
		c-3.4,3.6-6.9,7.1-10.5,10.5C484,281.7,482.4,281.5,482.2,278.1z"/>
	<path class="st68" d="M478.1,291.9c0.3-0.3,0.6-0.7,0.9-1c2.1,1.7,8.4,0.1,5,6.2C478.5,299.5,479.9,293.9,478.1,291.9z"/>
	<path class="st155" d="M473.8,278.8c3.1,1.3,6.5,0.2,6.8,4c0.1,1.4-1,2.6-2.4,2.6C474.1,285.4,475.1,281.9,473.8,278.8z"/>
	<path class="st144" d="M465,282c-2.8,3.3-5.1,7-9.1,9c1.4-4.4,5.1-6.9,8.1-9.9C464.5,281.3,464.8,281.6,465,282z"/>
	<path class="st5" d="M465,282c-0.3-0.3-0.7-0.6-1-0.9c0.6-0.9,1.1-2,2.4-1.7c0.3,0.1,0.3,1.1,0.5,1.7c0,0.2,0,0.4,0.1,0.6
		C466.4,281.8,465.7,281.9,465,282z"/>
	<path class="st148" d="M265,141c-4.1,1.9-7.3,4.9-9,9.1c-0.7,1.7-1.4,3.1-3.5,2.8c-1.3-0.2-2.2-1-2.3-2.3c-0.3-2,1-3,2.8-3.5
		c5.2-1.5,7.2-7.3,12.1-9.2c0.4,0.6,0.7,1.3,1.1,1.9C266.5,140.9,266,141.2,265,141z"/>
	<path class="st54" d="M309,94.1c0.4,0.3,0.7,0.7,1.1,1c-1.5,2.1-3.8,1.8-5.9,1.8c-2,0-3.9-0.2-4.6,2.5c-0.3,1.3-1.8,1.9-3.3,1.3
		c-1.2-0.5-1.9-1.4-1.9-2.7c0-1.5,0.9-2.6,2.3-2.9c2.1-0.3,4.3-0.3,6.4-0.4C305.2,94.8,307.2,95,309,94.1z"/>
	<path class="st81" d="M290,115c-0.4-0.3-0.8-0.7-1.1-1c4.5-4.8,9-9.7,14.2-13.9c0.7,0.1,1.1,0.5,1.3,1.2
		C299.5,105.8,294.8,110.4,290,115z"/>
	<path class="st160" d="M276,120c-0.4-0.3-0.7-0.7-1.1-1c1.2-1.4,2.1-2.8,2.4-4.8c0.2-1.4,1.4-2.2,3-2.1c1.5,0.2,2.5,1.1,2.6,2.6
		c0.2,1.5-0.7,2.8-2,3C279,118.1,277.5,119,276,120z"/>
	<path class="st55" d="M304.3,101.2c-0.4-0.4-0.8-0.8-1.3-1.2c3.1-2.1,6.6-0.5,9.8-1.1c0.4,0.4,0.8,0.8,1.2,1.1
		C311,102.2,307.5,100.5,304.3,101.2z"/>
	<path class="st161" d="M265,141c0.4-0.4,0.7-0.8,1.1-1.1c1.2,0.8,2.4,1.7,2.9,3.2c-0.9,0.5-1,1.5-1.1,2.3
		C266.9,143.9,266,142.5,265,141z"/>
	<path class="st162" d="M743.9,240.6c0.4-3.9-1.8-9,5-9.3c3-0.1,5.6,0.2,7.1,3.4c1.7,3.8,0.9,10.4-1.8,12.7
		c-2.7,2.3-6.1,2.4-8.9,0.8C742.3,246.4,744.7,242.9,743.9,240.6z"/>
	<path class="st73" d="M304.4,441.9c0.3,0.1,0.6,0,0.8,0c1.3-0.3,2.5-0.6,3.8-0.9c1-0.2,1.5,0.1,1.1,1.2c-0.3,2.3-0.4,5.1-3.6,4.8
		C303.5,446.5,303.8,444.1,304.4,441.9z"/>
	<path class="st56" d="M312.9,436.8c0.3-1.4,0.7-2.8,1-4.3c2.3-0.6,4.6-0.4,4.8,2.4c0.2,3-2.4,3-4.6,3.1
		C313.2,438.3,312.7,437.9,312.9,436.8z"/>
	<path class="st163" d="M301.8,440.8c0.4,0.4,0.9,0.9,1.3,1.3c0,2.8-0.6,5.1-4.2,4.1c-1.1-0.3-1.9-1.5-1.7-2.7
		C297.7,441,299.7,440.7,301.8,440.8z"/>
	<path class="st99" d="M312.9,436.8c0.4,0.4,0.9,0.8,1.3,1.3c-1.4,1.3-2.7,2.7-4.1,4c-0.4-0.4-0.8-0.8-1.1-1.2
		C310.3,439.5,311.6,438.2,312.9,436.8z"/>
	<path class="st103" d="M309,449.1c-2.7,1.7-5.5,0.6-8.3,0.7C303.3,448.5,306.2,449.4,309,449.1z"/>
	<path class="st48" d="M386.2,213c-0.8-8.5-4.4-17.3,3.7-24.4c1.4-1.2,1.5-2.9,1.5-4.6c0-6.3,0-12.7,0-19c0-1.5-0.1-2.9-1.2-4.2
		c-1-1.2-1-2.7,0.3-3.5c1.1-0.7,2.5-0.5,3.7,0.4c1.3,1,0.5,1.8,0.1,3c-2.3,6.3-0.9,12.8-1,19.3c-0.1,4.8,0,9.3-4.6,12.3
		c-1.7,1.1-1.8,3.1-1.7,5c0.1,4.8,0.1,9.7,0.1,14.5C387.7,212.8,387,213,386.2,213z"/>
	<path class="st118" d="M380,213c-1.2-1-1.1-2.4-1.1-3.7c0-10.6,0-21.2,0-31.9c0-2-0.2-4.2,2.8-4.3c-1.5,10.9-0.7,21.8-0.8,32.7
		c0,2,0.1,4,0.1,6C381.5,212.9,381,213.1,380,213z"/>
	<path class="st117" d="M385.6,175c2.4,0.2,3.9,2,3.3,2.4c-3.7,2.7,3.7,8-2.4,9.8c-1.7,0.5-3.5-2-3.1-2.3
		C387.2,182.3,380.1,176.5,385.6,175z"/>
	<path class="st132" d="M386.2,213c0.3-0.4,0.7-0.8,1-1.3c1.6,1.9,4.7,0.9,6,3.3c0.1,2.1-0.3,3.8-2.8,4.1c-2.2,1-3.1-0.2-3.4-2.2
		C387.2,215.5,386.9,214.2,386.2,213z"/>
	<path class="st68" d="M403,188.9c0,3.5-2.5,3.4-4.9,3.2c-1.5-0.1-2.5-0.9-2.8-2.3c-0.3-1.1,0.2-2,1-2.6c1.2-1,2.4-1,3.6,0
		C400.8,188,401.4,189.5,403,188.9L403,188.9z"/>
	<path class="st164" d="M404.1,184.2c2.3-2.3,4.5-3.9,5.8,0.8c-0.4,1.2-0.4,2.6-1.9,3.2c-1.8-0.8-3.2,1.2-5,0.8c0,0,0.1,0.1,0.1,0.1
		C403.1,187.3,404.6,186,404.1,184.2z"/>
	<path class="st165" d="M386.9,216.9c1.2,0.7,1.8,2.3,3.4,2.2c-0.1,0.2-0.1,0.5,0,0.8c-0.7,1.3-1.4,2.3-3.1,2.1
		c-1-4.1-5.4-5.4-7.1-9c0.3-0.4,0.7-0.8,1-1.1C383,213.6,385,215.2,386.9,216.9z"/>
	<path class="st166" d="M408,188.1c0.6-1.1,1.3-2.1,1.9-3.2c0.4,0.4,0.7,0.7,1.1,1.1c-0.7,1.3-1.7,2.3-3,3
		C408,188.7,408,188.4,408,188.1z"/>
	<path class="st167" d="M376,300.9c-2.6-0.2-3.1-2.1-3.2-4.2c-0.1-1.8,0.1-3.6-0.1-5.4c-0.1-1.5,0.9-3.9-1.6-3.9
		c-2.1,0,0.3,2.7-1.2,3.5c-2.3,0.1-4.2-0.4-4.1-3.2c1.5-3.6,4.7-2.6,7.2-2.2c2.8,0.4,1.7,3.1,1.8,4.9C375,294,374.6,297.6,376,300.9
		C375.9,301,376,300.9,376,300.9z"/>
	<path class="st168" d="M365.9,287.7c1.4,1.1,2.7,2.2,4.1,3.2c-1,2-2.6,1.9-4,0.9C364.3,290.7,364.4,289.1,365.9,287.7z"/>
	<path class="st169" d="M714.6,249.6c-2.8-0.2-5.2-0.9-5.1-3.9c0.2-3.9,3.5-3.9,6.3-3.7c2.2,0.1,5.5-1,5.1,3.2
		C720.6,249.5,716.9,248.7,714.6,249.6z"/>
	<path class="st160" d="M332.1,117.4c-0.2,2.3-1.6,3.2-3.8,2.8c-1.6-0.3-2.1-1.8-1.9-3c0.4-2.3,2.5-1.9,4.2-2.4
		c7.6-2.1,12.3,3.2,17.9,6.4c1.1,0.6,1.6,1.7,1.2,3c-0.4,1.2-1.2,2-2.5,2.1c-1.5,0.1-2.9-0.6-3-2c-0.3-3.6-2.5-5.6-5.2-7.3
		C336.7,116.6,334.3,115.8,332.1,117.4z"/>
	<path class="st27" d="M341.2,109c1.4,2.9,5.9,1.5,6.9,5c0.2,0.9-0.1,1.4-1.1,1c-1.5-1.1-2.7-2.8-5.1-1.5c-1.9,1.1-4.4,1.8-4.9-1.5
		C336.5,109.1,338.8,108.7,341.2,109z"/>
	<path class="st170" d="M354.1,121c4.1,0.5,5.7,2.2,3,6c-3.7,0.5-4.5-1.6-4.1-4.7C352.5,121.2,353,120.9,354.1,121z"/>
	<path class="st171" d="M354.1,121c-0.4,0.4-0.8,0.9-1.2,1.3c-2-2.4-3.9-4.9-5.9-7.3c0.4-0.3,0.7-0.7,1.1-1
		C350,116.4,352,118.7,354.1,121z"/>
	<path class="st147" d="M332.1,117.4c2.1-2.3,4.5-1.6,6.9-0.5C336.7,117.3,334.3,116.1,332.1,117.4z"/>
	<path class="st31" d="M233.9,187.8c-0.3,0.1-0.6,0.1-0.9,0.2c-0.6-0.7-1.3-1.3-1.9-2c-1.5-1.4-2.8-1.9-4.5,0
		c-2.5,2.9-5.3,5.5-8.1,8.1c-0.8,0.8-1.5,2.1-2.8,1.7c-1.6-0.6-1.2-2.2-1.3-3.4c-0.4-3.7,0.5-6.9,3.6-9.2c1.3-1,2.4-2.3,3.6-3.4
		c0.7-0.7,1.6-1.3,0.7-2.4c-1-1.2-1.6-0.3-2.3,0.5c-1.1,1.3-2.4,1.8-3.9,0.6c-1.2-1-1.5-2.2-0.8-3.6c0.8-1.5,2.2-1.8,3.8-1.8
		c2.9,0.1,4.3,2.5,5.6,4.4c1.2,1.8-1.2,2.7-2.2,3.9c-2.4,3.1-7.1,4.9-5,10.8c2.5-2.4,4.8-4.7,7.2-6.9
		C229.5,180.9,231,181.3,233.9,187.8z"/>
	<path class="st163" d="M227.9,164.8c0.4,0.4,0.8,0.9,1.2,1.3c-1,1-2,2.1-3,3.1c-0.7-0.2-1.1-0.6-1.2-1.2
		C225.9,166.9,226.9,165.8,227.9,164.8z"/>
	<path class="st53" d="M224.9,168c0.4,0.4,0.8,0.8,1.2,1.2c0,0.2,0,0.4,0,0.6c-0.4,0.4-0.7,0.8-1.1,1.2
		C223.8,170.1,223.5,169.1,224.9,168z"/>
	<path class="st27" d="M186.9,329c-2.1-1.2-3.6-3.1-4.9-5.1c2.7-2.7,5.8-4.8,9.4-6.2c2.4-0.9,3.6-0.6,4.9,1.3
		c-0.2,2.7-1.2,5-4.2,3.2c-2.5-1.4-4.3-1.5-6.1,0.6c-2.4,2.9,1.8,3.2,2.1,5.1C188.4,328.9,188,329.3,186.9,329z"/>
	<path class="st49" d="M162.6,256.2c-0.4,2.6-2.1,3.8-4.1,2.5c-2.1-1.3-4.2-1.6-6.5-1.7c-1.9-0.1-3.1-1.1-3.2-3.1
		c-0.1-1.3,0.7-2.3,1.8-2.8c2-0.8,3.2,0.4,3.7,2.2c0.8,2.7,2.1,1.8,3.7,0.9C160.3,252.7,161.8,253.6,162.6,256.2z"/>
	<path class="st56" d="M158,245.2c0.1-1,0.4-1.9,1.4-2.4c2.1-0.1,4,0.3,4,3c0,1.4-0.8,2.5-2.3,2.6
		C158.9,248.5,157.7,247.5,158,245.2z"/>
	<path class="st172" d="M435.2,195.1c2.3,0,2.8,1.5,2.7,3.3c-0.3,3.7,0.4,7.1,2,10.4c-3.2-0.6-4-2.9-4.1-5.8
		C435.7,200.4,435.4,197.7,435.2,195.1z"/>
	<path class="st127" d="M469,304.9c-1.7-0.4-3.5-0.6-5.2-1.2c-1.4-0.4-2.1-1.6-1.9-3.1c0.1-1.3,0.9-2.2,2.1-2.5
		c1.5-0.4,2.6,0.4,3.2,1.7C467.9,301.6,468.4,303.3,469,304.9C468.9,305,469,304.9,469,304.9z"/>
	<path class="st69" d="M237.2,358.9c-0.4,0.4-0.8,0.7-1.2,1.1c-1.4-1.3-2.8-2.6-4.2-3.9c0.2-0.7,0.6-1.1,1.2-1.3
		C234.5,356.2,235.9,357.5,237.2,358.9z"/>
	<path class="st163" d="M233.1,354.8c-0.4,0.4-0.8,0.8-1.2,1.3c-0.6,0.3-1.2,0.6-1.8,0.9c-0.3-0.3-0.6-0.7-1-1
		C230.1,354.6,231,352.8,233.1,354.8z"/>
	<path class="st57" d="M444,200.2c0.7,0.6,1.3,1.2,2,1.8c-0.4,2.4,0.7,3.3,3,3.1c0.6,0.6,1.2,1.3,1.7,1.9c0.2,2.2-0.9,3.6-3,3.7
		c-1.7,0.1-2.6-1.2-2.8-2.9c-0.1-1.2-0.5-1.8-1.8-1.9c-1.9-0.1-3.2-1.3-2.9-3.2C440.7,200.9,442.1,200,444,200.2z"/>
	<path class="st173" d="M387.1,222c0.9-0.8,1.6-2.2,3.1-2.1c1.2-0.2,1.9,0.5,2.7,1.1c0.3,2.2-0.1,4-2.9,4.1c-1-0.7-2-1.3-3-2
		C387.1,222.7,387.1,222.3,387.1,222z"/>
	<path class="st174" d="M368.1,229c0.3,0.3,0.5,0.5,0.8,0.8c-2.1,7.8-0.8,15.7-0.7,23.5c0.1,3.1,4.2,0.6,5.7,2.5
		c-7.1,0.7-7.1,0.7-7.1-6.3c0-5.3,0-10.6,0-15.9C366.9,232,366.4,230.2,368.1,229z"/>
	<path class="st53" d="M192.1,331.9c0.8,0.2,1.6,0.3,2.4,0.5c1.8,0.4,2.9,1.4,2.6,3.4c-0.2,1.3-0.9,2-2.2,2.2c-2,0.3-3-0.7-3.4-2.6
		c-0.2-0.8-0.3-1.6-0.5-2.4C190.7,332.1,191.1,331.7,192.1,331.9z"/>
	<path class="st87" d="M179,330c0.4-0.4,0.8-0.8,1.1-1.2c1.7,1.7,3.4,3.4,5.1,5.1c-0.4,0.3-0.8,0.7-1.1,1
		C182.2,333.5,180.3,332,179,330z"/>
	<path class="st87" d="M192.1,331.9c-0.4,0.4-0.8,0.8-1.1,1.2c-1.3-1.4-2.7-2.7-4-4.1c0.4-0.4,0.8-0.8,1.2-1.2
		C189.4,329.2,190.8,330.6,192.1,331.9z"/>
	<path class="st59" d="M382,276c-1.4-0.8-2.6-1.1-3.9,0.3c-1.1,1.1-2.5,0.6-3.5-0.5c-1-1.1-1-2.5-0.1-3.7c0.9-1.2,2.3-1.5,3.5-0.5
		c1.4,1.1,2.6,1.1,3.9,0c1.2-1,2.6-0.6,3.5,0.6c1,1.3,1.3,2.7-0.4,3.8C384,275.4,383,276.2,382,276z"/>
	<path class="st5" d="M382,276c0.9-1.2,1.9-1.2,2.9-0.1C384,276.9,383,277.2,382,276z"/>
	<path class="st170" d="M223.8,347.7c-0.2,1.4-0.7,2.3-1.7,2.6c-1.9,0.5-3.1,1.2-3.5,3.5c-0.2,1.2-1.6,2.2-3.1,1.8
		c-1.2-0.3-2-1.2-2.3-2.4c-0.3-1.5,0.4-2.8,1.9-3c2-0.3,2.8-1.2,3-3.2c0.2-1.4,1.5-2.2,3.1-1.8C222.8,345.5,223.4,346.6,223.8,347.7
		z"/>
	<path class="st56" d="M205.1,354.9c-1.2-3.5,0-5.3,3.8-5c1.2-0.2,1.6,0.3,1.4,1.4C210.3,355.1,208.9,356.7,205.1,354.9z"/>
	<path class="st87" d="M210.2,351.3c-0.5-0.5-0.9-1-1.4-1.4c2.2-3.2,6.1-4.9,7.5-8.8c0.5,0.6,1.1,1.3,1.6,1.9
		C215.4,345.7,212.8,348.5,210.2,351.3z"/>
	<path class="st145" d="M761.2,300c-0.3-4-0.5-7,3.8-6.8c3.5,0.1,5.1,2,5.1,5.4c0,3.7-1.5,6.1-5.5,6.3
		C759.7,305.2,761.4,301.4,761.2,300z"/>
	<path class="st175" d="M643,299.8c1.4,0.3,3.7-0.6,3.4,2.1c-0.3,2.6-2.6,2.7-4.5,3c-1.9,0.3-3.6-0.6-3.5-2.5
		C638.5,299.6,640.9,299.9,643,299.8z"/>
	<path class="st55" d="M235.5,168.8c0.9,0,7.5,6.4,7.5,7.3c0.1,1.3-0.6,2.3-1.8,2.7c-1.6,0.6-3.2,0.2-3.7-1.4
		c-0.6-1.9-1.3-3.1-3.4-3.6c-1.5-0.3-1.6-1.9-1.3-3.3C233.2,169.2,234.2,168.9,235.5,168.8z"/>
	<path class="st176" d="M746.6,299.8c1.4,0.2,3.6-0.5,3.3,2.2c-0.3,2.7-2.6,2.6-4.4,2.9c-1.8,0.2-3.5-0.5-3.4-2.5
		C742.2,299.6,744.6,299.9,746.6,299.8z"/>
	<path class="st177" d="M602.8,298.6c-0.1-3.3,1.3-5.6,4.8-5.5c4,0.1,4.7,2.9,4.7,6.3c-0.1,3.3-1.3,5.6-4.9,5.5
		C603.5,304.8,602.7,302,602.8,298.6z"/>
	<path class="st169" d="M676,298.8c0.4-3.4,1.7-5.9,5.2-5.7c3.9,0.2,4.8,2.9,4.7,6.3c-0.1,3.3-1.5,5.6-5,5.5
		C677.1,304.8,676.3,301.8,676,298.8z"/>
</g>
</svg>
