<?xml version="1.0" encoding="utf-8"?>
<!-- Generator: Adobe Illustrator 26.3.1, SVG Export Plug-In . SVG Version: 6.00 Build 0)  -->
<svg version="1.1" id="Layer_1" xmlns="http://www.w3.org/2000/svg" xmlns:xlink="http://www.w3.org/1999/xlink" x="0px" y="0px"
	 viewBox="0 0 714 592" style="enable-background:new 0 0 714 592;" xml:space="preserve">
<style type="text/css">
	.st0{fill:#FEFEFE;}
	.st1{fill:#F5E286;}
	.st2{fill:#FAFAFA;}
	.st3{fill:#EFEFEF;}
	.st4{fill:#F9F9F9;}
	.st5{fill:#F4F4F4;}
	.st6{fill:#E7C44F;}
	.st7{fill:#ECECEC;}
	.st8{fill:#F6F6F6;}
	.st9{fill:#76429A;}
	.st10{fill:#F3F3F3;}
	.st11{fill:#F7F7F7;}
	.st12{fill:#78459A;}
	.st13{fill:#77449A;}
	.st14{fill:#B79490;}
	.st15{fill:#B59290;}
	.st16{fill:#C09F8F;}
	.st17{fill:#A77F93;}
	.st18{fill:#D7BC8B;}
	.st19{fill:#E2CA89;}
	.st20{fill:#BB998F;}
	.st21{fill:#B08C91;}
	.st22{fill:#9B7194;}
	.st23{fill:#B18D91;}
	.st24{fill:#A98292;}
	.st25{fill:#B59190;}
	.st26{fill:#BE9C8F;}
	.st27{fill:#926596;}
	.st28{fill:#996F95;}
	.st29{fill:#956996;}
	.st30{fill:#946895;}
	.st31{fill:#D3B78C;}
	.st32{fill:#EDD887;}
	.st33{fill:#8B5C97;}
	.st34{fill:#8A5C97;}
	.st35{fill:#B99690;}
	.st36{fill:#D0B38C;}
	.st37{fill:#B28E91;}
	.st38{fill:#B99790;}
	.st39{fill:#976C95;}
	.st40{fill:#A07694;}
	.st41{fill:#9F7694;}
	.st42{fill:#87568F;}
	.st43{fill:#74409B;}
	.st44{fill:#75419B;}
	.st45{fill:#E8E8E8;}
	.st46{fill:#F4E187;}
	.st47{fill:#E0C78A;}
	.st48{fill:#D7D7D7;}
	.st49{fill:#E7C550;}
	.st50{fill:#DEDEDE;}
	.st51{fill:#D9D9D9;}
	.st52{fill:#E4E4E4;}
	.st53{fill:#E1E1E1;}
	.st54{fill:#DADADA;}
	.st55{fill:#7D4CA0;}
	.st56{fill:#79479D;}
	.st57{fill:#78469C;}
	.st58{fill:#7A479D;}
	.st59{fill:#7A489E;}
	.st60{fill:#78469D;}
	.st61{fill:#7E4EA1;}
	.st62{fill:#7E4DA0;}
	.st63{fill:#7A489D;}
	.st64{fill:#7C4B9F;}
	.st65{fill:#78459C;}
	.st66{fill:#7C4A9F;}
	.st67{fill:#7B499E;}
	.st68{fill:#8558A6;}
	.st69{fill:#7E4EA0;}
	.st70{fill:#8355A4;}
	.st71{fill:#E2E2E2;}
	.st72{fill:#9872B3;}
	.st73{fill:#343434;}
	.st74{fill:#2F2F2F;}
	.st75{fill:#FCFDFA;}
	.st76{fill:#1D1D1D;}
	.st77{fill:#161616;}
	.st78{fill:#2A2A2A;}
	.st79{fill:#1A1A1A;}
	.st80{fill:#454545;}
	.st81{fill:#EAE5EE;}
	.st82{fill:#181818;}
	.st83{fill:#040404;}
	.st84{fill:#313131;}
	.st85{fill:#252525;}
	.st86{fill:#3C3C3C;}
	.st87{fill:#282828;}
	.st88{fill:#1C1C1C;}
	.st89{fill:#0F0F0F;}
	.st90{fill:#AFAFAF;}
	.st91{fill:#323232;}
	.st92{fill:#0D0D0D;}
	.st93{fill:#222222;}
	.st94{fill:#EAE4EE;}
	.st95{fill:#202020;}
	.st96{fill:#2E2E2E;}
	.st97{fill:#EAE4ED;}
	.st98{fill:#353535;}
	.st99{fill:#242424;}
	.st100{fill:#030303;}
	.st101{fill:#424242;}
	.st102{fill:#1E1E1E;}
	.st103{fill:#191919;}
	.st104{fill:#101010;}
	.st105{fill:#010101;}
	.st106{fill:#020202;}
	.st107{fill:#545454;}
	.st108{fill:#2D2D2D;}
	.st109{fill:#151515;}
	.st110{fill:#050505;}
	.st111{fill:#E1D7E7;}
	.st112{fill:#393939;}
	.st113{fill:#515151;}
	.st114{fill:#080808;}
	.st115{fill:#575757;}
	.st116{fill:#303030;}
	.st117{fill:#676767;}
	.st118{fill:#262626;}
	.st119{fill:#5B5B5B;}
	.st120{fill:#474747;}
	.st121{fill:#212121;}
	.st122{fill:#2C2C2C;}
	.st123{fill:#434343;}
	.st124{fill:#141414;}
	.st125{fill:#888888;}
	.st126{fill:#E3DAE8;}
	.st127{fill:#232323;}
	.st128{fill:#606060;}
	.st129{fill:#060606;}
	.st130{fill:#444444;}
	.st131{fill:#363636;}
	.st132{fill:#383838;}
	.st133{fill:#070707;}
	.st134{fill:#3A3A3A;}
	.st135{fill:#272727;}
	.st136{fill:#1B1B1B;}
	.st137{fill:#B6B6B6;}
	.st138{fill:#464646;}
	.st139{fill:#D8D8D8;}
	.st140{fill:#5C5C5C;}
	.st141{fill:#4B4B4B;}
	.st142{fill:#414141;}
	.st143{fill:#3B3B3B;}
	.st144{fill:#494949;}
	.st145{fill:#E3E3E3;}
	.st146{fill:#3D3D3D;}
	.st147{fill:#4A4A4A;}
	.st148{fill:#404040;}
	.st149{fill:#ADADAD;}
	.st150{fill:#3F3F3F;}
	.st151{fill:#333333;}
	.st152{fill:#131313;}
	.st153{fill:#0C0C0C;}
	.st154{fill:#707070;}
	.st155{fill:#D9CCE1;}
	.st156{fill:#525252;}
	.st157{fill:#3E3E3E;}
	.st158{fill:#AEAEAE;}
	.st159{fill:#0E0E0E;}
	.st160{fill:#505050;}
	.st161{fill:#DBDBDB;}
	.st162{fill:#C7C7C7;}
	.st163{fill:#F0F0F0;}
	.st164{fill:#C0C0C0;}
	.st165{fill:#CECECE;}
	.st166{fill:#C2C2C2;}
	.st167{fill:#C9C9C9;}
	.st168{fill:#6C6C6C;}
	.st169{fill:#4C4C4C;}
	.st170{fill:#111111;}
	.st171{fill:#6B6B6B;}
	.st172{fill:#DCDCDC;}
	.st173{fill:#A5A5A5;}
	.st174{fill:#929292;}
	.st175{fill:#595959;}
	.st176{fill:#BCBCBC;}
	.st177{fill:#919191;}
	.st178{fill:#5E5E5E;}
	.st179{fill:#BFBFBF;}
	.st180{fill:#666666;}
	.st181{fill:#0A0A0A;}
	.st182{fill:#5D5D5D;}
	.st183{fill:#1F1F1F;}
	.st184{fill:#B3B3B3;}
	.st185{fill:#878787;}
	.st186{fill:#8B8B8B;}
	.st187{fill:#F2F0F3;}
	.st188{fill:#EDE9F0;}
	.st189{fill:#7F4EA1;}
	.st190{fill:#9D79B7;}
	.st191{fill:#F3F2F5;}
	.st192{fill:#ECE7EF;}
	.st193{fill:#ECE8EF;}
	.st194{fill:#E8E2ED;}
	.st195{fill:#E3DBE9;}
	.st196{fill:#EEEAF0;}
	.st197{fill:#F1EEF2;}
	.st198{fill:#EBE6EE;}
	.st199{fill:#744099;}
	.st200{fill:#BBBBBB;}
	.st201{fill:#A9A9A9;}
	.st202{fill:#D4D4D4;}
	.st203{fill:#C4C4C4;}
	.st204{fill:#B1B1B1;}
	.st205{fill:#E7E7E7;}
	.st206{fill:#B9B9B9;}
	.st207{fill:#818181;}
	.st208{fill:#C8C8C8;}
	.st209{fill:#EDEDED;}
	.st210{fill:#B8B8B8;}
	.st211{fill:#8151A2;}
	.st212{fill:#8254A4;}
	.st213{fill:#8050A2;}
</style>
<g>
	<g>
		<path class="st0" d="M357,591.9c-117.64,0-235.27-0.02-352.91,0.1c-3.42,0-4.1-0.67-4.09-4.09C0.11,393.3,0.11,198.7,0,4.09
			C0,0.67,0.67,0,4.09,0c235.27,0.1,470.54,0.1,705.81,0c3.42,0,4.1,0.67,4.09,4.09c-0.11,194.6-0.11,389.21,0,583.81
			c0,3.42-0.67,4.1-4.09,4.09C592.27,591.89,474.64,591.9,357,591.9z"/>
		<path class="st1" d="M32.01,24.08c5.47-9.42,13.36-14.08,24.55-14.07c200.43,0.11,400.86,0.08,601.29,0.08
			c11.71,0,20.17,5.24,24.2,14.95c2.31,1.32,2.47,3.73,3.02,5.95c0.11,0.76,0.15,1.53,0.16,2.31c-0.02,1.54,0.02,3.08,0.01,4.62
			c0.02,0.78,0.03,1.57,0.01,2.35c-0.02,1.34,0.01,2.68,0.02,4.03c0.01,1.13,0.02,2.27,0.03,3.4c-0.04,2.73,0.08,5.46,0.05,8.19
			c-0.03,29.31,0.02,58.62-0.02,87.93c-0.01,8.08-0.54,8.63-8.4,8.63c-213.33,0.01-426.67,0.01-640,0c-7.62,0-8.23-0.61-8.23-8.28
			c-0.03-26.48-0.01-52.95-0.02-79.42c0-3.12,0.08-6.25-0.03-9.38c-0.19-3.55,0.14-7.1,0.07-10.64c-0.01-1.4,0.04-2.8,0.04-4.2
			c-0.02-1.07,0.03-2.14,0.03-3.21c-0.01-1.04,0.02-2.08,0.02-3.13c-0.01-0.78,0-1.56,0.05-2.33
			C29.16,28.97,29.84,26.22,32.01,24.08z"/>
		<path class="st2" d="M683.98,31.09c-0.64-2.01-1.29-4.03-1.93-6.04c4.62-0.19,6.46,3.78,8.39,6.55c5.66,8.17,8.57,17.26,8.56,27.5
			c-0.12,158.93,0,317.87-0.22,476.8c-0.02,16.15-7.47,29.11-22.3,36.57c-5.83,2.93-12.18,4.57-19.12,4.56
			c-200.76-0.16-401.52-0.06-602.29-0.26c-13.93-0.01-25.34-5.95-33.04-18.56c-4.97-8.15-6.96-16.59-6.96-25.89
			c0.03-158.77-0.02-317.54,0.11-476.3c0.01-12.35,5.33-22.75,14.59-31c0.57-0.51,1.49-0.63,2.24-0.93
			c-0.67,2.68-1.35,5.35-2.02,8.03c-0.79,1.21-1.22,2.61-2.06,3.8c-0.21,0.36-0.46,0.7-0.72,1.02c-0.83,0.94-1.63,1.9-2.2,3.03
			c-0.19,0.4-0.4,0.78-0.61,1.17c-1.4,2.94-1.88,6.1-2.38,9.27c-0.08,0.48-0.2,0.94-0.33,1.41c-0.63,2.21-0.25,4.53-0.76,6.76
			c-0.16,0.57-0.28,1.14-0.35,1.72C20.5,61.8,20.5,63.3,20.5,64.8c0,154.08,0,308.16,0,462.24c0,1.5,0,3,0.07,4.48
			c0.06,0.56,0.17,1.13,0.35,1.67c0.57,2.27,0.16,4.66,0.8,6.93c0.15,0.47,0.26,0.94,0.35,1.42c0.37,2.83,0.92,5.62,1.97,8.29
			c4.5,10.01,11.8,16.76,22.6,19.42c1.95,0.48,3.8,1.22,5.69,1.91c10.27,2.83,20.77,2.25,31.23,2.25c187.24,0,374.49,0,561.73-0.02
			c8.34,0,16.73-1.3,24.49-3.8c12.25-3.95,19.99-12.59,22.99-25.81c2.74-12.05,2.63-24.08,2.63-36.2
			c0.01-147.09,0-294.18,0.02-441.27c0-8.77-2.77-17-4.83-25.36C689.62,37.01,686.58,34.13,683.98,31.09z"/>
		<path class="st3" d="M684.03,47.12c0-1,0.01-2.01,0.01-3.01c4.64,1.19,4.48,5.46,5.03,8.76c0.98,5.88,1.32,11.85,1.32,17.87
			c-0.07,150.19-0.05,300.37-0.06,450.56c0,3.16,0.13,6.33-0.17,9.48c-1.32,4.8-0.92,9.84-2.66,14.67
			c-4.37,12.14-12.67,18.55-25.36,21.14c-9.65,1.98-19.18,1.67-28.76,1.67c-189.21,0.07-378.41,0.06-567.62,0.01
			c-9.03,0-17.85-1.54-25.91-5.91c-9.33-5.05-13.32-13.76-14.93-23.57c-1.13-6.86-1.29-13.87-1.28-20.88
			c0.07-150.06,0.06-300.12,0.05-450.18c0-6.34,0.53-12.63,2.2-18.74c0.56-2.07,0.9-4.82,4.1-4.9c0,3.67,0,7.33,0.01,11
			c-1.63,3.31-0.59,6.85-0.88,10.29c0,27.15-0.16,54.3,0.03,81.45c0.89,127.4,0.14,254.8,0.39,382.19
			c0.71,7.51,1.04,15.07,5.56,21.67c2.14,3.12,4.98,5.26,7.96,7.37c6.25,2.93,12.66,5.06,19.72,4.48c2.15-0.18,4.33-0.05,6.49-0.05
			c192.04,0,384.08,0.01,576.12-0.03c5.47,0,10.99,0.8,16.4-0.54c11.75-1.55,18.81-8.39,21.97-19.59c0.1-0.47,0.25-0.92,0.42-1.37
			c1.21-1.95,1.11-4.04,0.63-6.17c-0.08-1.45,0.1-2.84,0.69-4.18c1.04-2.19,1.03-4.52,1.03-6.86c0-151.86,0-303.72,0-455.58
			c0-2.34-0.02-4.67-1.04-6.84c-0.56-1.36-0.52-2.8-0.52-4.22C685.3,53.74,685.26,50.38,684.03,47.12z"/>
		<path class="st4" d="M683.98,31.09c5.49,1.78,7.44,6.65,8.71,11.34c3.21,11.87,4.38,23.97,4.36,36.39
			c-0.21,149.11-0.14,298.22-0.14,447.33c0,8.21-1.74,16.31-4.4,23.82c-4.27,12.1-16.49,21.38-32.02,23.21
			c-28.41,3.34-56.82,1.56-85.2,1.6c-169.28,0.28-338.56,0.14-507.83,0.15c-5.97,0-11.59-1.97-17.37-3.01
			c1.97-1.81,4.57-1.69,6.95-2.23c6.94,1.15,13.93,0.81,20.91,0.81c188.87,0.01,377.74,0.02,566.61-0.03
			c7.95,0,15.88-0.43,23.62-2.74c11.47-3.42,18.78-10.64,21.68-22.37c1.93-7.81,2.68-15.67,2.68-23.7
			c-0.05-148.22-0.09-296.44,0.05-444.67c0.01-15.29-0.67-30.22-8.54-43.87C684.02,32.44,684,31.76,683.98,31.09z"/>
		<path class="st5" d="M29.96,37.11c0,1,0,2,0,3c-4.47,8.48-5.39,17.67-5.39,27.05c0.01,153.08-0.03,306.16,0.08,459.24
			c0.01,9.78,0.89,19.51,7.12,27.97c3.22,4.38,7.22,7.34,12.07,9.18c6.69,2.54,13.62,3.91,20.86,3.9
			c195.57-0.05,391.14-0.02,586.7-0.11c8.32,0,16.44-1.81,23.7-6.3c8.14-5.03,11.7-12.93,13.2-21.88c0.46-2.75,0.61-5.6,1.1-8.38
			c0.03-155.88,0.02-311.75-0.04-467.63c0-8.01-1.46-15.86-5.34-23.05c0-0.68,0-1.36,0.01-2.03c3.1-1.15,3.85,1.32,4.51,3.25
			c2.77,8.04,4.37,16.29,4.37,24.86c-0.03,153.12-0.03,306.23,0,459.35c0,7.87-0.75,15.76-3.47,23.01
			c-3.65,9.71-10.5,16.53-21.05,19.51c-9.63,2.72-19.34,2.85-29.14,2.85c-185.62,0-371.23,0-556.85-0.02
			c-8.65,0-17.32,0.37-25.95-0.53c-18.68-0.54-32.18-11.99-34.68-31.26c-0.81-6.27-1.14-12.55-1.14-18.89
			c0.05-151.17,0.04-302.33,0.04-453.5c0-8.37,0.96-16.59,4.08-24.44C25.72,39.85,26.48,37.08,29.96,37.11z"/>
		<path class="st6" d="M650.01,52.04c6.83,0,13.66-0.03,20.49,0.01c4.96,0.03,7.3,1.96,7.35,6.71c0.14,14.16,0.15,28.32-0.01,42.48
			c-0.05,4.45-3.33,6.63-7.28,6.69c-13.82,0.23-27.66,0.21-41.48,0.01c-4.43-0.06-7.13-3.36-7.15-7.89
			c-0.04-13.33-0.05-26.66,0-39.98c0.02-6.1,2.01-8.01,8.08-8.03C636.68,52.02,643.34,52.04,650.01,52.04z"/>
		<path class="st7" d="M685.91,56.08c0,1.33,0,2.67,0,4c1.09,2.17,0.99,4.52,0.99,6.84c0,152.72,0,305.44,0,458.16
			c0,2.33,0.09,4.67-0.99,6.84c0,1.33,0,2.67,0,4c-0.58,1.62-1.05,3.26-1,5c0,0.33,0,0.67,0,1c-0.7,0.88-1.36,1.95-2.57,0.58
			c-1.64-3.7-0.21-7.51-0.15-11.23c0.04-2.64,0.08-5.23-0.33-7.85c0.48-5.99,0.43-11.99,0.43-17.98
			c-0.01-114.09,0-228.18-0.01-342.27c0-9.47-0.01-9.48-9.67-9.48c-210.37,0-420.74,0-631.11,0c-9.76,0-9.77,0.01-9.77,9.9
			c0,116.76,0,233.51-0.01,350.27c0,3.16,0.07,6.31,0.17,9.46c-1.28,3.46,1.13,7.23-0.87,10.63c-2.42,0.4-1.77-2.19-2.93-3.02
			c0-155.62,0-311.23,0-466.85c0.63-0.59,1.25-0.59,1.88,0c0.04,27.15,0.2,54.3,0,81.45c-0.04,4.76,1.49,5.72,5.92,5.72
			c214.07-0.1,428.14-0.11,642.21,0.03c5.03,0,5.95-1.59,5.93-6.22c-0.16-29.98-0.02-59.97,0.02-89.95
			C685.07,54.64,685.47,55.4,685.91,56.08z"/>
		<path class="st8" d="M56.08,569.91c198.44,0,396.88,0.05,595.31-0.13c11.67-0.01,22.95-2.44,31.48-12.11
			c4.68-5.31,6.7-11.47,7.89-17.95c1.22-6.67,1.2-13.52,1.2-20.34c-0.06-151.61-0.04-303.22-0.06-454.83
			c0-7.85-1.38-15.49-4.25-22.83c-0.66-1.69-1.28-3.54-3.6-3.64c0-1.66-0.01-3.31-0.01-4.97c6.29,5.37,7.13,13.15,8.79,20.46
			c1.67,7.33,1.08,14.87,1.08,22.34c0.01,150.4,0,300.81,0.02,451.21c0,7.69-0.95,15.46-3.67,22.42
			c-3.78,9.69-10.81,16.71-21.63,19.53c-9.11,2.38-18.25,2.83-27.52,2.83c-184.23,0-368.45,0.01-552.68-0.04
			c-10.78,0-21.61,0.84-32.35-0.96c-0.22-0.22-0.3-0.44-0.22-0.67C55.93,570.02,56,569.91,56.08,569.91z"/>
		<path class="st9" d="M74.84,72.31c-0.24,6.98,1.63,12.5,7.67,16.07c6.49,3.83,12.75,2.77,18.95-0.63
			c1.31-0.72,2.61-1.53,3.72-2.51c2.46-2.17,4-1.75,5.91,0.98c3.93,5.63,4.09,5.66-1.61,9.55c-15.34,10.47-34.33,7.26-41.71-8
			c-9.19-19.03-1.54-43.25,23.37-46.35c8.55-1.06,15.39,3.21,21.49,8.74c1.02,0.92,0.96,1.93,0.28,3.12
			c-2.53,4.4-6.45,5.35-10.48,2.58c-5.68-3.9-11.75-4.62-17.9-1.36C77.3,58.32,74.29,64.62,74.84,72.31z"/>
		<path class="st10" d="M689.91,530.92c-1.11,7.14-1.39,14.29-5.18,20.99c-5.11,9.04-13.31,12.55-22.48,14.89
			c-3.85,0.98-7.83,1.14-11.85,1.14c-196.09-0.05-392.19-0.05-588.28-0.03c-9.03,0-17.59-2.08-24.97-7.14
			c-7.01-4.8-10.59-12.18-12.02-20.48c-1.5-8.73-1.03-17.56-1.03-26.35c-0.01-150.1-0.02-300.21,0.04-450.31
			c0-6.45,0.62-12.9,2.94-19.04c0.64-1.71,1.09-3.53,2.89-4.48c0,1.33,0,2.66,0,3.99c-2.82,2.1-3.34,5.53-3.61,8.43
			c-0.44,4.77-1.34,9.48-1.34,14.34c0.09,152.9,0.03,305.79,0.15,458.69c0.01,9.92,1.04,19.8,7.24,28.39
			c4.37,6.05,10.41,8.95,17.24,10.9c9.24,2.64,18.7,2.05,28.12,2.05c190.88,0.01,381.76,0.05,572.64-0.13
			c8.66-0.01,17.4-1.64,24.95-6.8c8.21-5.61,11.35-13.91,12.51-23.25c0.24-1.97-0.08-4,1.04-5.8
			C689.25,530.47,689.58,530.47,689.91,530.92z"/>
		<path class="st9" d="M121.95,70.4c0-7.99,0.12-15.98-0.05-23.97c-0.07-3.46,0.2-5.84,4.68-5.37c3.72,0.39,8.02-0.91,7.4,5.51
			c-0.41,4.28,0.12,8.65,0,12.97c-0.08,3,0.99,3.63,3.9,3.12c15.21-2.62,24.82,4.98,26,20.41c0.34,4.47,0.5,8.96,0.87,13.44
			c0.33,3.92-2.25,3.89-4.85,3.63c-2.45-0.25-5.99,1.55-6.11-3.4c-0.13-5.47-0.17-11-1.54-16.34c-1.52-5.94-5.63-8.97-10.7-8.27
			c-4.9,0.68-7.2,3.8-7.41,10.18c-0.14,4.49-0.42,9-0.21,13.48c0.23,4.69-2.67,4.45-5.84,4.42c-3.1-0.03-6.05,0.39-5.92-4.35
			c0.23-8.48,0.06-16.97,0.06-25.46C122.15,70.4,122.05,70.4,121.95,70.4z"/>
		<path class="st11" d="M56.08,569.91c0,0.33,0,0.67,0,1c-1.86,1.19-3.94,1.02-6,1c-5.9-2.34-12.28-3.52-17.22-8.05
			c-4.31-3.96-8.16-8.14-9.78-13.94c-0.85-2.96-1.08-6.05-2-9c-1.3-2.2,0.35-4.81-1-7h0c-0.92-1.73-0.46-3.6-0.46-5.4
			c-0.02-155.02-0.02-310.03,0-465.05c0-1.8-0.45-3.67,0.46-5.4h0c1.35-2.19-0.3-4.8,1-7c0.86-3.7,1.88-7.36,3-11h0
			c0.92-1.39,2.12-2.58,3-4v0c0.87-0.78,1.08-2.52,2.87-1.97c0,1,0,2,0,3c-4.96,3.6-5.51,9.47-6.55,14.62
			c-0.93,4.59-1.4,9.45-1.4,14.31c0.1,153.53,0.08,307.07,0.07,460.6c0,7.34,0.65,14.72,3.37,21.46c3.8,9.42,10.17,16.63,20.82,18.9
			C49.6,567.7,52.81,568.93,56.08,569.91z"/>
		<path class="st9" d="M237.14,82.08c-12.19,0.04-21.23-8.42-21.15-19.81c0.08-11.23,9.64-20.63,21.28-20.92
			c11.08-0.27,20.89,8.98,20.99,19.8C258.36,72.35,248.57,82.04,237.14,82.08z"/>
		<path class="st9" d="M180.42,51c-0.23,4.67-0.07,9.3,1.32,13.81c1.16,3.78,3.2,6.96,7.5,6.78c4.73-0.19,6.94-3.75,7.55-7.99
			c0.88-6.07,1.37-12.2,1.91-18.32c0.17-1.97,0.4-3.88,2.79-3.95c2.92-0.08,5.97-0.97,8.72,0.73c0.36,0.22,0.42,1.22,0.35,1.83
			c-0.81,7.74-1.15,15.56-2.99,23.16c-2.07,8.56-8.97,14.52-17.16,15.05c-7.55,0.49-15.3-4.91-18.49-12.76
			c-3.27-8.08-3.21-16.53-2.98-25.02c0.06-2.11,1.04-3.01,3.05-3.03c1.33-0.01,2.67,0.07,3.99-0.04c3.53-0.28,5.5,0.67,4.5,4.78
			C180.1,47.6,180.42,49.34,180.42,51z"/>
		<path class="st5" d="M689.91,530.92c-0.33,0-0.67,0-1,0c0-155.02,0.01-310.03-0.04-465.05c0-6.45-0.6-12.89-2.86-19.05
			c-0.42-1.15-0.85-2.15-1.98-2.71c0-1.33,0-2.66,0-3.99c3.42,2.53,3.79,6.64,4.6,10.2c1.02,4.47,1.23,9.2,1.23,13.82
			C689.92,219.74,689.91,375.33,689.91,530.92z"/>
		<path class="st12" d="M190.31,90.37c4.48,0,8.97,0.12,13.44-0.03c4.24-0.15,4.21,2.56,4.31,5.59c0.1,3.14-0.49,5.06-4.29,4.94
			c-9.45-0.31-18.9-0.48-28.35-0.47c-3.19,0-3.53-1.66-3.36-4.09c0.18-2.48-0.94-5.78,3.3-5.86c4.98-0.1,9.96-0.02,14.94-0.02
			C190.31,90.4,190.31,90.39,190.31,90.37z"/>
		<path class="st13" d="M237.34,100.18c-4.67,0-9.34-0.14-13.99,0.05c-3.07,0.12-3.73-1.4-3.51-3.98c0.21-2.34-0.77-5.3,3.32-5.29
			c9.33,0.02,18.66-0.03,27.98-0.12c3.78-0.03,3.57,2.53,3.67,5.13c0.11,2.88-0.83,4.35-3.98,4.25
			C246.34,100.07,241.84,100.18,237.34,100.18z"/>
		<path class="st14" d="M212.99,120.12c-0.9,0.39-1.81,0.75-2.69,1.16c-2.36,1.11-3.57-0.37-4.11-2.19
			c-0.57-1.93,0.82-3.23,2.54-3.65c1.32-0.32,2.91,0.96,4.14-0.55C214.2,116.6,213.64,118.36,212.99,120.12z"/>
		<path class="st15" d="M180.03,120.09c-5.58,2.29-6.22,2.01-6.96-3.07l-0.05,0.05c2.29-2.94,4.64-0.79,6.98-0.09
			C180.92,118.01,180.91,119.05,180.03,120.09z"/>
		<path class="st16" d="M245.98,120.12c-1.5,0.68-2.67,2.57-4.74,1.07c-1.9-1.37-1.76-3.27-0.78-4.71c1.49-2.19,3.25-1.64,4.57,0.49
			C245.81,117.88,246.8,118.72,245.98,120.12z"/>
		<path class="st17" d="M168.09,117.2c-1.43,1.06-2.86,2.13-4.72,3.51c-0.42-2.62-1.26-5.19,0.54-7.06
			c1.21-1.25,3.13-0.43,4.22,1.19C168.63,115.64,168.71,116.43,168.09,117.2z"/>
		<path class="st18" d="M252.17,120.94c-1.7,0.75-3.37,2.03-5.16,0.17c0.09-1.1-0.15-2.24,0.3-3.31c-0.06-0.62,3.03-1.83-0.35-1.83
			c1.65-0.65,3.3-1.31,4.96-1.96C253.25,116.28,252.61,118.61,252.17,120.94z"/>
		<path class="st19" d="M228.09,121.02c-0.39-0.01-0.78-0.03-1.17-0.04c-0.96-0.74-0.43-2.11-1.23-2.9
			c-0.68,0.29-1.35,0.48-2.04,0.1c-2.45-1.79-2.23-3.45,0.22-5.01c2.54-0.86,3.97,1.86,6.22,1.92
			C230.87,117.57,229.82,119.41,228.09,121.02z"/>
		<path class="st20" d="M228.09,121.02c0.13-2.15,0.87-4.1,2-5.92c3.17,0.91,2.13,3.47,1.67,5.28
			C231.26,122.34,229.51,121.82,228.09,121.02z"/>
		<path class="st7" d="M29.97,64.07c-0.63,0-1.25,0-1.88,0c0.61-2.99-1.55-6.57,1.88-8.96C29.97,58.1,29.97,61.09,29.97,64.07z"/>
		<path class="st3" d="M685.91,56.08c-0.63-0.32-1.25-0.65-1.88-0.97c0-2.66,0-5.32,0-7.98C686.06,49.81,687.1,52.71,685.91,56.08z"
			/>
		<path class="st21" d="M223.87,113.18c-0.18,1.6-2.27,3.34,0.34,4.74c0.23,0.44,0.22,0.87-0.06,1.28
			c-0.45,0.25-0.85,0.19-1.23-0.15c-0.98-1.37-3.56-1.76-2.77-4.2C220.73,113.06,222.32,113.07,223.87,113.18z"/>
		<path class="st22" d="M180.03,120.09c-0.01-1.03-0.02-2.07-0.03-3.1c0.66-1.29,1.84-1.7,3.16-1.87c1.57-0.27,1.26,0.84,1.27,1.72
			c-0.2,0.79-1.76,1.42-0.27,2.41c0.31,0.26,0.59,0.53,0.87,0.81C183.38,121.68,181.71,121.45,180.03,120.09z"/>
		<path class="st23" d="M238.84,121.11c-1.31-0.15-1.53-0.11-1.63-0.2c-2.03-1.65-1.33-3.8-0.97-5.85c0.02-0.1,0.99-0.26,1.24-0.06
			C239.63,116.69,237.27,118.92,238.84,121.11z"/>
		<path class="st24" d="M168.09,117.2c0.01-0.78,0.03-1.57,0.04-2.35c1.25,1.57,3.72,0.46,4.89,2.23c0,0,0.05-0.05,0.05-0.05
			c-2.36,0-1.64,2.51-2.84,3.54C168.24,120.24,169.69,117.72,168.09,117.2z"/>
		<path class="st25" d="M187.58,120.52c2.12-0.67,2.75-2.42,2.99-5.01C192.99,120.54,192.75,120.9,187.58,120.52z"/>
		<path class="st23" d="M234.3,121.7c-2-3.52-0.74-5.55,0.45-8.59C235.14,116.29,235.28,118.47,234.3,121.7z"/>
		<path class="st26" d="M156.12,114.99c2.28,3.63,0.41,4.84-3,5.15c-0.71-1.45,0.79-2.58,0.59-3.96
			C154.29,115.34,155.17,115.1,156.12,114.99z"/>
		<path class="st27" d="M212.99,120.12c-0.04-1.74-0.08-3.48-0.12-5.23c0.52-0.66,1.14-2.86,1.74-0.36
			c0.41,1.73-0.48,3.78-0.82,5.69c-0.02,0.09-0.28,0.2-0.41,0.18C213.24,120.37,213.12,120.22,212.99,120.12z"/>
		<path class="st28" d="M253.19,115.79c2.75,0.03,4.55,0.91,3.62,4.46c-1.55-0.1-1.05-4.53-3.73-2.09
			C252.43,117.34,252.38,116.55,253.19,115.79z"/>
		<path class="st29" d="M247.78,118.15c0.09,1.08,0.4,2.21-0.77,2.96c-0.34-0.33-0.68-0.66-1.03-1c-0.32-1.05-0.63-2.1-0.95-3.15
			c0.31,0.05,0.62,0.06,0.94,0.02C247.2,116.4,247.46,117.32,247.78,118.15z"/>
		<path class="st30" d="M200.07,114.95c0.88,1.94,0.1,3.75-0.42,5.59c-0.01,0.04-0.31,0.04-0.43-0.02
			c-0.14-0.06-0.25-0.22-0.37-0.33c-0.68-0.77-0.92-1.73-1.16-2.69c-0.08-0.4-0.08-0.8,0.01-1.21
			C198.28,115.48,198.75,114.46,200.07,114.95z"/>
		<path class="st31" d="M200.07,114.95c-1.09,0.28-1.54,1.17-1.99,2.07c-0.35,0.31-0.76,0.46-1.23,0.45
			c-1.13-0.2-2.25-0.43-2.91-1.52C195.89,115.04,197.83,114.06,200.07,114.95z"/>
		<path class="st32" d="M197.04,117.06c0.35-0.01,0.7-0.03,1.04-0.04c0,0-0.01,0.01-0.01,0.01c0.93,2.74-1,2.82-2.8,3.02
			c-0.91-0.11-1.69-0.46-2.29-1.18c0-0.21,0-0.41,0-0.62C194.13,117.14,195.27,116.04,197.04,117.06z"/>
		<path class="st33" d="M253.19,115.79c-0.04,0.79-0.07,1.58-0.11,2.38c-0.04,1.01,0.3,2.15-0.92,2.78
			c-0.08-2.31-0.16-4.62-0.25-6.93C253.88,113.5,252.8,115.17,253.19,115.79z"/>
		<path class="st34" d="M185.03,120.05c-0.38-0.01-0.76-0.02-1.14-0.03c-0.63-0.91-0.76-1.83,0-2.74c0.12-0.84,0.1-1.64-0.73-2.17
			c0.49-1.27,1.32-2.25,1.86-0.25C185.46,116.48,185.06,118.31,185.03,120.05z"/>
		<path class="st35" d="M192.99,118.87c0.67,0.08,1.35,0.16,2.02,0.24c0.53,0.83,2.63,0,2.07,1.97
			C194.59,122.44,193.42,121.34,192.99,118.87z"/>
		<path class="st31" d="M197.08,121.08c-0.69-0.66-1.38-1.32-2.07-1.97c1.49,0,2.95-0.05,3.07-2.08c1.17,0.83,0.93,2.01,0.78,3.16
			C198.26,120.49,197.67,120.78,197.08,121.08z"/>
		<path class="st36" d="M224.1,119.06c0.04-0.38,0.07-0.76,0.11-1.14c0.57-0.3,1.15-0.61,1.72-0.91c0.97,1.26,0.68,2.58,0.22,3.92
			c-0.72,0.03-1.43,0.05-2.15,0.08C223.47,120.34,223.4,119.68,224.1,119.06z"/>
		<path class="st37" d="M224.1,119.06c-0.03,0.65-0.06,1.3-0.09,1.95c-1.21,0.03-2.91,1.41-3.51-0.25
			c-0.81-2.25,2.36-0.01,2.43-1.71C223.32,119.06,223.71,119.06,224.1,119.06z"/>
		<path class="st11" d="M29.96,34.12c-0.96,0.66-1.91,1.31-2.87,1.97c0.06-1.99,1.37-3.06,2.9-3.97
			C29.98,32.78,29.97,33.45,29.96,34.12z"/>
		<path class="st38" d="M197.04,117.06c-1.35,0.4-2.7,0.79-4.05,1.19c-0.01-0.9,0.11-1.75,0.95-2.3
			C195.05,116.11,196.31,115.83,197.04,117.06z"/>
		<path class="st39" d="M153.99,116.05c0.3,1.49-0.29,2.79-0.87,4.1c-2.67-1.49,0.41-2.69,0.2-4.06
			C153.54,116.07,153.76,116.06,153.99,116.05z"/>
		<path class="st40" d="M226.15,120.94c-0.07-1.31-0.15-2.61-0.22-3.92c2.48,0.79,0.53,2.68,0.99,3.97c0,0-0.39,0.03-0.39,0.03
			L226.15,120.94z"/>
		<path class="st41" d="M153.99,116.05c-0.22,0.02-0.45,0.03-0.67,0.04c0.59-1.26,0.84-3.36,2.81-1.09
			C155.67,115.88,154.89,116.08,153.99,116.05z"/>
		<path class="st14" d="M247.78,118.15c-0.6-0.39-1.2-0.77-1.8-1.16c0.33-0.34,0.66-0.68,0.99-1.01c0.76,0.14,1.52,0.27,2.28,0.41
			C248.76,116.97,248.27,117.56,247.78,118.15z"/>
		<path class="st11" d="M20.09,58.08c0,158.62,0,317.23,0,475.85c-1.64-1.48-0.97-3.43-0.97-5.18c-0.03-155.16-0.03-310.32,0-465.49
			C19.12,61.51,18.45,59.55,20.09,58.08z"/>
		<path class="st11" d="M24.09,40.08c0.41,4.05-1.55,7.45-3,11C21.13,47.15,21.41,43.29,24.09,40.08z"/>
		<path class="st11" d="M21.09,540.92c1.7,2.77,2.07,5.83,2,9C21.39,547.15,21.02,544.08,21.09,540.92z"/>
		<path class="st11" d="M21.09,51.08c-0.39,2.32,0.92,4.89-1,7C20.48,55.75,19.17,53.18,21.09,51.08z"/>
		<path class="st11" d="M20.09,533.92c1.92,2.11,0.61,4.67,1,7C19.17,538.82,20.48,536.25,20.09,533.92z"/>
		<path class="st11" d="M27.09,36.08c-0.08,2.03-1.4,3.12-3,4C24.16,38.06,25.48,36.96,27.09,36.08z"/>
		<path class="st7" d="M663.92,562.91c-4.99,1.77-10.15,1-15.26,1c-147.27,0-294.54,0-441.82,0c-47.48,0-94.96-0.12-142.44,0.13
			c-6.63,0.04-12.8-0.99-18.92-3.15c-1.72-0.61-3.53-1.1-4.4-2.98c3.01-1.63,5.57,0.95,8.41,0.9c12.16,2.86,24.51,1.55,36.77,1.55
			c185.7,0.08,371.4,0.06,557.1,0.02c5.94,0,11.99,0.98,17.83-1.15c0.94-0.34,1.97,0.1,2.85,0.64
			C665.48,560.94,665.36,561.95,663.92,562.91z"/>
		<path class="st3" d="M685.91,531.92c0-157.28,0-314.57,0-471.85c2.06,1.69,2.01,4.03,2.01,6.39c-0.01,153.02-0.01,306.05,0,459.07
			C687.92,527.89,687.97,530.23,685.91,531.92z"/>
		<path class="st7" d="M48.08,559.92c-2.33-0.67-4.67-1.33-7-2c-7.11-4.39-11.24-10.43-11.25-19.1c0-2.64-2.53-4.94-1.75-7.89
			c1.33,0.56,2,1.56,2,3c1.15,0.81,1.79,1.94,2,3.3c1.33,8.76,5.97,15.13,13.74,19.33C47.1,557.25,48.55,557.98,48.08,559.92z"/>
		<path class="st3" d="M663.92,562.91c0.33-0.67,0.67-1.33,1-2c0.31-1.26,1.27-1.98,2.36-2.36c6.21-2.16,10.07-6.67,12.75-12.43
			c0.62-1.33,1.24-2.75,2.88-3.2c0.67-0.33,1.33-0.67,2-1C683.45,552.43,674.12,561.26,663.92,562.91z"/>
		<path class="st3" d="M684.91,540.92c-1.82-2.1-1.14-3.69,1-5C687.19,537.91,686.59,539.52,684.91,540.92z"/>
		<path class="st42" d="M649.43,68.09c5.16,0,10.33-0.01,15.49,0.01c1.31,0.01,2.86-0.14,2.94,1.8c0.09,1.96-1.42,1.97-2.77,1.97
			c-10.16,0.01-20.32,0.01-30.48,0c-1.39,0-2.85-0.11-2.7-2.04c0.15-1.92,1.72-1.71,3.02-1.72
			C639.76,68.08,644.6,68.09,649.43,68.09z"/>
		<path class="st43" d="M649.98,81.3c-5.14,0-10.28,0.01-15.42-0.01c-1.14-0.01-2.56,0.07-2.54-1.59c0.03-1.63,1.43-1.56,2.58-1.57
			c10.12-0.02,20.23-0.02,30.35,0c1.1,0,2.59-0.25,2.74,1.37c0.19,2.09-1.55,1.76-2.79,1.78C659.93,81.33,654.96,81.3,649.98,81.3z"
			/>
		<path class="st44" d="M649.92,88.05c4.98,0,9.95-0.03,14.93,0.02c1.24,0.01,2.97-0.34,2.86,1.73c-0.09,1.64-1.58,1.43-2.68,1.43
			c-10.12,0.02-20.24,0.02-30.36,0c-1.12,0-2.6,0.15-2.62-1.49c-0.03-2.04,1.71-1.65,2.94-1.66
			C639.96,88.02,644.94,88.05,649.92,88.05z"/>
		<path class="st11" d="M31.08,524.93c-1.11-1.8-1-3.81-1-5.81C30.09,398.5,30.11,277.88,30,157.26c0-4.19,1.22-5.29,5.34-5.29
			c214.43,0.09,428.85,0.09,643.28,0c4.06,0,5.39,0.98,5.39,5.24c-0.11,119.95-0.1,239.9-0.03,359.85c0,2.72-1.04,5.2-1.06,7.86
			c0.5,2.45-0.55,4.45-1.87,6.38c-0.75,1.14-1.62,2.17-2.57,3.15c-1.46,1.39-2.8,2.9-4.43,4.11c-1.37,0.88-2.7,1.82-4.22,2.44
			c-1.91,0.67-3.79,1.39-5.74,1.95c-1.13,0.3-2.29,0.32-3.45,0.37c-8.98,0.45-17.95,0.19-26.92,0.2
			c-37.89,0.03-75.77,0.02-113.66,0.01c-2.82,0-5.65,0.19-8.44-0.4c-1.09-0.27-2.01-0.84-2.78-1.63c-1.44-1.48-2.92-1.58-4.45-0.1
			c-3.51,1.95-7.17,0.24-10.76,0.45c-1.15-1.27-0.32-3.17-1.4-4.4c-0.39,1.99,0.49,4.64-2.74,4.99c-1.86-0.83-3.27-3.05-5.78-1.87
			c-0.38,0.18-0.76,0.35-1.13,0.54c-1.57,1.39-3.1,0.89-4.64-0.07c-1.48-0.6-2.99-0.99-4.59-0.67c-2.15,1.75-4.32,3.14-6.55,0.12
			c-2.44-1.81-2.49,1.48-3.91,1.84c-2.78,1.22-5.52,1.34-8.21-0.26c-1.29-1.25-2.35-2.62-2.47-4.49c0-0.3,0.25-0.69,0.16-0.9
			c-0.39-0.95-0.63-0.03-0.73,0.16c-0.48,0.84-0.8,1.76-1.48,2.49c-0.94,0.82-2.03,1.3-3.26,1.46c-3.16-0.57-6.22-0.51-9,1.38
			c-3.51,1.44-7.03,1.58-10.54,0.04c-1.89-2.06-4.35-1.86-6.81-1.7c-2.18-1.24-1.21,2.1-2.7,1.87c-0.66,0.26-1.33,0.26-2,0.06
			c-2.92-2.06-5.95-2.83-9.23-0.82c-1.88,0.99-3.14,0.42-3.86-1.51c-0.14-0.27-0.3-0.55-0.48-0.79c0,0.03-0.37-0.12-0.37-0.12
			s-0.35,0.18-0.35,0.22c-0.17,0.32-0.32,0.61-0.47,0.92c-1.02,2.39-2.4,1.74-3.85,0.49c-0.94-0.64-1.67-1.84-3.11-1.17
			c-1.08,0.63-1.92,1.75-3.35,1.66c-2.33-0.42-4.68-2.28-6.94,0.14c-1.85,2.06-3.46-0.2-5.2-0.29c-2.78-1.45-5.88-0.07-8.72-0.95
			c-2.94-1.12-4.83,3.35-7.92,1.52c-2.13-1.14-4.29-2.02-6.68-0.68c-2.33,1.58-4.55,1.91-6.5-0.57c-1.86-1.82-2.34,0.45-3.35,1.14
			c-5.15,1.54-10.22,0.3-15.31-0.4c-1.72-0.71-3.44-1.31-5.3-0.47c-5.81,4.02-11.85,3.36-17.98,0.91c-2.26-1.92-4.73-1.36-7.21-0.58
			c-1.92,0.57-3.78,1.87-5.86,0.49c-2.56-2.08-5.03-0.91-7.5,0.2c-3.48-0.17-7.25,1-10.13-2.08c-0.98-0.63-1.83-0.34-2.64,0.36
			c-1.01,0.89-2.02,1.76-3.52,1.41c-2.18-1.2-4.46-1.58-6.88-0.88c-1.9-0.12-3.8,0.34-5.69-0.05c-2.1-1.15-1.11,2.09-2.58,1.83
			c-1.21,0.42-2.25-0.06-3.29-0.58c-3.22-1.92-6.34-1.88-9.33,0.51c-1.16,0.49-2.27,0.23-3.35-0.25c-0.8-0.36-1.54-0.85-2.3-1.28
			c-1.34-0.74-2.7-0.75-4.08-0.13c-0.36,0.22-0.73,0.42-1.09,0.65c-1.31,0.94-2.63,1.77-4.12,0.29c-1.2-0.96-1.68-3.3-4-2.06
			c-1.08,0.71-1.96,1.79-3.38,1.87c-1.57-0.11-3.14-0.29-4.68-0.63c-1.68-0.61-3.22-0.43-4.63,0.74c-1.04,0.86-1.79,0.31-2.41-0.59
			c-0.21-0.26-0.43-0.53-0.68-0.74c-0.93-0.15-1.1,0.73-1.6,1.21c-0.34,0.42-0.73,0.76-1.18,1.05c-2.01,1.06-4.19,1.08-6.34,1.08
			c-47.18,0.04-94.36,0.03-141.55,0.01c-1.16,0-2.32-0.15-3.48-0.18c-1.15-0.04-2.31-0.05-3.44-0.33c-1.94-0.61-3.97-0.98-5.85-1.83
			c-1.45-0.75-2.76-1.74-4.15-2.61c-1.62-1.21-2.97-2.72-4.42-4.11c-0.95-0.97-1.81-2.02-2.56-3.15
			C31.64,529.39,30.58,527.39,31.08,524.93z"/>
		<path class="st45" d="M679.93,530.94c1-2,1.99-4.01,2.99-6.01c2.5,3.64-0.4,7.44,0.31,11.2c0.41,2.17-0.18,4.52-0.32,6.79
			c-3.4,8.6-8.62,15.38-18,17.99c-1.92-0.44-3.75-1.02-5.7,0.26c-2.07,1.35-4.55,0.72-6.85,0.72
			c-196.85,0.02-393.7,0.01-590.55,0.08c-4.74,0-9.14-1.5-13.73-2.05c-1.5-3.22-5.39-2.7-7.65-5.01
			c-5.81-5.91-9.86-12.52-10.34-20.98c2.37-2.77-2.08-6.3,0.99-8.99c1,2,1.99,4.01,2.99,6.01c0.01,6.33,2.77,11.87,5.1,17.53
			c0.51,1.24,1.15,2.59,2.37,3.14c7.02,3.19,13.66,7.78,22.07,6.04c2.1-0.43,4.32-0.14,6.49-0.14c191.27,0,382.54-0.06,573.81,0.16
			c9.3,0.01,18.12-0.08,26.41-4.81c1.98-1.13,3.66-2.3,4.52-4.39C677.17,542.81,679.92,537.27,679.93,530.94z"/>
		<path class="st46" d="M237.67,72.04c-6.15,0.12-10.72-4.06-10.79-9.88c-0.07-5.7,4.17-10.05,9.94-10.18
			c5.78-0.13,9.99,4,10.13,9.95C247.07,67.74,243.22,71.93,237.67,72.04z"/>
		<path class="st47" d="M183.89,117.28c0,0.91,0,1.83,0,2.74c-1.28,0.02-2.87,0.26-2.65-1.72
			C181.43,116.68,182.78,117.04,183.89,117.28z"/>
		<path class="st48" d="M208.03,538.93c0.96-0.47,0.85,4.18,2.74,0.47c0.64-1.26,2.9-0.91,4.31,0.22c1.43,1.48,3.29,1.27,5.09,1.27
			c0.95-0.58,1.16-2.12,2.62-2.02c1.31,1.79,3.58,1.02,5.2,1.97c1.71,2.09,2-0.92,3.14-0.88c2.62,0.22,5.23,0.59,7.83,0.98
			c1.14,0.29,2.27,0.59,3.41,0.88c3.17-2.49,6.67-1.11,10.08-0.88c0.83,0.68,1.77,1.02,2.86,0.88c0.74-0.8,1.71-0.89,2.71-0.89
			c1.7,0,3.33-0.63,5.04-0.58c2.45-0.97,4.77-0.11,7.1,0.54c1.52,0.17,1.68-1.7,2.91-1.96c1.13,1.53,2.21,0.15,3.3-0.06
			c3.26,0.67,6.52,1.35,9.78,2.02c2.67-0.27,5.34-1.35,8,0c1.94,1.19,3.32-1.1,5.11-0.82c2.53,0.94,5.04,0.17,7.56-0.06
			c6.3,3.06,12.44,3.38,18.33-1.01c1.7,1.36,3.55,1.87,5.65,1.03c0.69,0.33,1.94,0.99,1.98,0.93c1.86-3.12,3.19-2.54,4.83,0.31
			c0.65,1.14,3.4,0.93,3.45,0.22c0.44-6.07,2.77-0.51,4.07-0.76c1.43-0.19,2.8-0.7,4.24-0.85c1.83,1.34,3.65,1.48,5.48-0.02
			c2.34,0.96,4.95,0.05,7.28,1.03c3.05,1,4.68-3.94,7.98-1.91c-0.16,2.08-1.36,1.74-2.65,1.28c3.71,1.31,7.65-0.6,11.38,0.61
			c1.34-2.02,3.04,2.37,4.35-0.24c2.72-1.82,5.31,0.37,7.97,0.26c0.84-0.66,1-2.16,2.49-2.02c1.35,0.95,2.63,2.25,4.47,1
			c1.98,2.79,1.88-0.84,2.92-0.95c0.64-0.6,1.29-0.6,1.93,0c1.22,0.41,0.78,3.48,3.18,1.97c3.25-0.28,6.57-1.27,9.57,0.96
			c0.87-0.02,1.74-0.04,2.61-0.06c0.65-0.76,1.55-0.85,2.46-0.92c2.16-1.27,4.32-0.5,6.47,0.01c3.67,1.76,7.33,1.4,11-0.02
			c2.75-0.71,5.6-0.36,8.38-0.74c1.01-0.42,2.02-0.83,3.03-1.25c1.01,0.73,1.81,1.96,3.36,1.4c0.66-0.02,1.27,0.16,1.83,0.49
			c2.75,1.8,5.49,1.83,8.23-0.03c1.44-0.18,2.8-0.7,4.25-0.85c2.42,2.99,3.84-0.7,5.79-0.86c1.7,1.33,3.55,1.88,5.64,1.01
			c1.13,0.98,2.25,1.18,3.37-0.01c1.04,1.03,2.09-0.08,3.13,0c1.5-0.07,2.82,0.21,3.43,1.81c2.62-0.04,1.9-2.03,2.12-3.54
			c0.21-1.46-0.84-3.41,1.47-4.13c1.34,2.41-0.19,5.37,1.48,7.72c3.12-2.47,6.66-0.3,9.95-0.9c0.34-0.37,0.77-0.57,1.27-0.62
			c1.68,0.25,3.45,0.25,4.79,1.55c50.71,0.02,101.41,0.04,152.12,0.06c0.55,4.77-3.41,5.12-6.34,6.04
			c-2.51,0.79-5.29,0.41-7.95,0.41c-194.09,0.01-388.17,0.01-582.26-0.01c-3.14,0-6.4,0.4-9.33-1.12c-2.11-1.1-4.81-1.93-3.94-5.31
			c49.11-0.01,98.21-0.03,147.32-0.03c2.48,0,5.02,0.33,6.78-2.03C206.64,539.27,207.25,538.95,208.03,538.93z"/>
		<path class="st49" d="M366.01,430.21c-38.65,0-77.3,0.01-115.95-0.02c-3.2,0-7.66,0.91-7.65-3.95c0.01-4.65,4.3-4.15,7.63-4.15
			c77.3-0.01,154.6,0,231.9,0c0.83,0,1.67,0,2.5,0.01c2.82,0.03,5.19,1.08,5.24,4.13c0.05,3.18-2.43,3.99-5.22,3.98
			c-6.83-0.01-13.66,0-20.49,0C431.31,430.21,398.66,430.21,366.01,430.21z"/>
		<path class="st50" d="M40.11,537.9c1.71-0.08,2.61,1.43,3.98,2.03c3.4,6.56,8.88,9.09,16.18,9.7c20.63,1.71,41.26,0.8,61.89,0.82
			c171.89,0.11,343.79,0.04,515.68,0.13c6.52,0,12.94-0.8,19.39-1.31c5.8-0.46,10.03-4.09,12.69-9.33c1.37-0.6,2.27-2.11,3.98-2.03
			c2.92,0.5,1.53,2.52,1.15,3.84c-1.28,4.41-4.35,7.49-8.28,9.56c-3.37,1.78-6.84,3.4-10.42,4.79
			c-194.45,0.52-388.9,0.1-583.35,0.27c-4.47,0-9.1,0.08-13.35-0.48c-7.71-1.03-15.24-3.91-19.55-11.28
			C38.98,542.69,36.51,540.09,40.11,537.9z"/>
		<path class="st51" d="M52.09,541.96c1.49,3.13,4.17,4.5,7.42,4.93c1.15,0.15,2.33,0.03,3.49,0.03c196,0,392,0,588.01,0.03
			c4.5,0,8.61-0.4,10.91-4.99c0.99-0.02,1.98-0.03,2.97-0.05c0.8-0.43,1.6-0.61,2.12,0.35c0.82,1.49-0.03,2.66-1.1,3.44
			c-2.42,1.78-5.12,3.25-8.1,3.63c-4.77,0.61-9.5,1.6-14.35,1.6c-190.97-0.02-381.95,0.01-572.92-0.1c-6.91,0-13.99-0.24-20.36-3.77
			c-1.19-0.66-2.48-1.25-3.01-2.49c-0.73-1.73-1.05-3.53,1.97-2.67C50.11,541.92,51.1,541.94,52.09,541.96z"/>
		<path class="st52" d="M679.93,530.94c2.15,3.62,0.44,6.77-0.81,10.25c-4.63,12.92-15.45,19.77-28.74,17.84
			c-1.47-0.21-2.99-0.11-4.49-0.11c-192.6,0-385.19-0.07-577.79,0.22c-8.47,0.01-16.22-0.68-23.85-4.22
			c-3.39-1.57-5.85-3.63-7.11-7.17c-1.11-3.1-2.6-6.07-3.56-9.21c-0.76-2.49-1.27-5.17,0.49-7.6c0.67,1,1.33,2,2,2.99
			c0.21,1.01,1.13,1.77,1.26,2.69c1.49,10.6,8.83,15.36,18.04,18.38c1.11,0.36,2.2,1.15,3.32,0.83c4.96-1.43,9.87,0.16,14.8,0.16
			c189.03-0.08,378.06-0.06,567.08-0.1c5.9,0,11.8-0.16,17.68-0.65c1.86-1.43,4.18-1.81,6.3-2.66c5.27-2.13,9.29-5.39,10.62-11.33
			c0.56-2.53,1.61-4.96,2.76-7.32C678.6,532.94,679.26,531.94,679.93,530.94z"/>
		<path class="st53" d="M659.92,554.92c-1.14,1.38-2.79,2.4-4.36,1.89c-4.49-1.45-8.85,0.17-13.26,0.17
			c-190.23-0.07-380.47-0.05-570.7-0.1c-9.5,0-19.04,0.04-27.5-5.67c-1.57-1.06-3.11-1.96-3.8-3.61c-1.86-4.41-4.53-8.59-4.23-13.67
			c1.71,0.95,3.03,2.3,4.04,3.97c-0.61,5.19,2.42,9.19,8.08,12.69c7.14,4.41,15.01,4.25,22.74,4.25
			c190.75,0.1,381.51,0.1,572.26-0.08c4.91,0,9.82,0.23,14.73,0.16C658.59,554.36,659.25,554.28,659.92,554.92z"/>
		<path class="st54" d="M49.12,541.9c-3.64,2.01-0.48,3.08,0.76,3.73c5.03,2.62,10.57,3.56,16.15,4.27c0.82,0.1,1.66,0.02,2.5,0.02
			c191.95,0,383.89,0,575.84,0.01c6.75,0,13.14-1.54,19.31-4.1c2.92-1.21,3.06-1.92,1.21-3.93c1.43-1.29,3.25-1.59,5.03-1.97
			c-0.46,5.79-6.37,10.42-13.26,11.03c-15.27,1.35-30.56,0.94-45.84,0.94c-179.7,0.02-359.41,0.05-539.11-0.13
			c-7.44-0.01-15.35,0.59-22.23-3.69c-3.02-1.88-5.92-3.9-5.39-8.15C45.53,541.18,47.79,540.35,49.12,541.9z"/>
		<path class="st55" d="M390.75,270.96c-1.08,1.48-1.78,3.3-3.62,4.1c-1.43,0.78-2.28,0.32-2.64-1.22
			c3.2-10.99,2.5-22.11,1.05-33.23c-1.47-1.57-3.39-1.18-5.18-1.18c-15.33-0.02-30.65-0.04-45.98,0c-5.42,0.01-5.99,0.56-5.94,6.07
			c0.08,7.99-0.38,15.98,0.3,23.95c0.37,1.88,1.95,3.15,2.5,4.94c-0.85,1.66-2.12,1.16-3.39,0.67c-2.52-1.39-2.99-3.75-2.99-6.33
			c0-11.78-0.06-23.56,0.04-35.34c0.04-5.15,2.77-8.29,7.86-8.34c16.75-0.18,33.51-0.06,50.27-0.04c4.14,0,6.04,2.9,7.75,6.04
			c1.31,1.43,0.65,3.18,0.66,4.76c0.07,10.13,0.07,20.27,0,30.4C391.43,267.8,392.12,269.56,390.75,270.96z"/>
		<path class="st56" d="M293.84,371.66c0,0.33,0,0.66,0,1c0,10.56,0,10.56-10.19,10.28c-4.39-0.12-7.46-3.31-7.44-7.72
			c0.02-4.13,3-7.78,7.06-7.4c4.38,0.41,6.55-0.36,5.73-5.21c-0.28-1.65,0.69-2.43,2.36-2.37c1.61,0.05,2.45,0.82,2.44,2.46
			c0,2.99,0,5.98,0,8.97C293.82,371.66,293.83,371.66,293.84,371.66z"/>
		<path class="st57" d="M321.23,328.83c0.11,5.13-3.45,8.42-8.54,7.91c-8.8-0.9-8.8-0.9-8.8-10.22c0-3.32,0.03-6.63,0-9.95
			c-0.01-1.57,0.53-2.5,2.28-2.49c1.63,0.01,2.67,0.76,2.48,2.36c-0.54,4.47,0.77,5.89,5.6,5.05
			C318.19,320.8,321.13,324.57,321.23,328.83z"/>
		<path class="st58" d="M377.06,378.51c0-0.17,0-0.33,0-0.5c0-9.57,0-9.57,9.02-10.31c4.98-0.41,8.52,2.66,8.6,7.46
			c0.08,4.75-3.5,8.34-8.38,7.63c-3.35-0.49-4.99-0.24-4.39,3.61c0.28,1.82-0.64,2.77-2.6,2.68c-1.75-0.08-2.26-1.05-2.25-2.59
			c0.02-2.66,0.01-5.32,0.01-7.98C377.07,378.51,377.06,378.51,377.06,378.51z"/>
		<path class="st59" d="M400.31,325.98c0-0.83-0.12-1.69,0.02-2.5c0.45-2.68-1.56-6.68,1.29-7.79c3.74-1.46,8.26-1.2,12.14,0.74
			c2.89,1.45,3.61,4.22,3.23,7.26c-0.41,3.22-2.36,5.04-5.53,5.54c-3.3,0.52-7.37-0.06-6.48,5.55c0.25,1.53-1.45,1.49-2.62,1.48
			c-1.5-0.01-2.01-0.97-2.02-2.28c-0.02-2.67-0.01-5.33-0.01-8C400.33,325.98,400.32,325.98,400.31,325.98z"/>
		<path class="st57" d="M397.29,333.6c0.57,1.74,0.38,2.48-0.7,2.59c-1.29,0.14-2.52,0.29-3.63-0.92c-4.37-4.77-6.3-4.76-10.79,0.01
			c-1.25,1.32-2.78,1.35-4.07,0.7c-1.48-0.74-0.32-2.1,0.03-3.04c1.93-5.11,3.91-10.22,6.05-15.25c1.27-2.98,4.93-3.77,6.11-1.26
			C393.03,322.29,395.21,328.39,397.29,333.6z"/>
		<path class="st60" d="M259.93,333.6c0.27,1.53,0.22,2.35-0.85,2.55c-1.34,0.25-2.54,0.15-3.59-1.02c-4.08-4.53-6.69-4.55-10.53,0
			c-1.22,1.44-2.72,1.5-4,0.93c-1.82-0.81-0.51-2.3-0.09-3.4c1.9-4.95,3.83-9.89,5.9-14.78c1.27-3.01,4.9-4,6.03-1.59
			C255.55,322.12,257.75,328.21,259.93,333.6z"/>
		<path class="st61" d="M409.71,382.85c-1.82,0.02-3.65,0.17-5.46,0.05c-4.96-0.33-7.72-2.9-7.94-7.22
			c-0.21-4.25,2.29-7.3,6.53-7.97c5.03-0.8,8.15,1.04,9.51,5.65c0.23,0.79,0.37,1.62,0.55,2.42c-1.27,3.11-4.09,1.86-6.15,2.22
			c1.47,0.15,3.5-0.58,4.44,1.37C411.88,380.82,411.56,382.27,409.71,382.85z"/>
		<path class="st59" d="M292.92,336.84c-4.94-0.11-8.5-3.4-8.48-7.84c0.03-4.58,3.88-7.86,9.09-7.74c5.02,0.11,8.42,3.3,8.39,7.86
			C301.89,333.83,298.25,336.95,292.92,336.84z"/>
		<path class="st62" d="M346.98,379.01c0.54,3.44-1.72,3.78-4.25,3.91c-4.38,0.21-8.58-0.21-10.32-5.03
			c-1.15-3.17-0.69-6.48,2.22-8.58c3.38-2.44,7.17-2.56,10.75-0.28c1.07,0.68,1.77,1.95,2.64,2.95c0.85,5.76,0.79,5.83-5.48,5.89
			C344.08,378.23,345.82,377.52,346.98,379.01z"/>
		<path class="st62" d="M308.92,382.93c-1.66,0-3.33,0.08-4.99-0.03c-3.6-0.25-6.53-1.6-7.49-5.43c-0.82-3.3-0.36-6.49,2.67-8.44
			c3.31-2.13,6.96-2.22,10.35,0c1.06,0.7,1.76,1.96,2.62,2.96c0.69,5.58,0.69,5.58-5.97,6.2c1.22,0.12,4-1.41,5.24,1.76
			C312.13,381.94,310.25,382.35,308.92,382.93z"/>
		<path class="st56" d="M366.06,382.95c-5.34-0.1-8.35-2.91-8.32-7.77c0.03-5.07,3.17-7.71,8.95-7.53c5.08,0.16,8.41,3.37,8.24,7.95
			C374.76,380.14,371.25,383.05,366.06,382.95z"/>
		<path class="st63" d="M455.26,336.84c-5.1,0.08-8.54-2.92-8.64-7.56c-0.11-4.71,3.14-7.88,8.2-8.02c5.21-0.14,8.99,3.15,9.01,7.85
			C463.86,333.61,460.37,336.76,455.26,336.84z"/>
		<path class="st61" d="M352.89,329.24c1.28,2.71,1.51,5.27-1.7,6.7c-3.34,1.49-6.78,1.43-10.01-0.47
			c-0.74-0.44-0.92-1.36-0.63-2.23c0.45-1.31,1.39-1.03,2.42-0.8c1.41,0.31,2.87,0.45,4.8,0.74c-0.89-2.68-3.05-2.35-4.44-3.11
			c-1.94-1.06-3.17-2.48-2.88-4.73c0.26-2.05,1.72-3.05,3.62-3.64c4.85-1.52,8.3,0.02,8.8,4.03c-0.82,1.45-2.18,0.59-3.29,0.77
			C350.81,327.26,351.95,328.13,352.89,329.24z"/>
		<path class="st64" d="M436,373.94c2.18,1.24,3.72,2.87,3.05,5.6c-0.56,2.3-2.51,3.04-4.53,3.24c-2.77,0.28-5.82,0.78-7.98-1.45
			c-0.98-1.01-1.15-2.89,1.24-3.2c1.03,0.38,2.09,0.62,3.01-0.12c0.18-0.14-0.52-0.69-0.78-1.07c-3.26-0.26-4.02-2.78-4-5.24
			c0.02-2.79,2.4-3.8,4.81-3.95c2.27-0.14,4.56,0.21,6.85,0.34c1.3,2.26,1.88,4.2-1.84,4.35C435.43,372.46,435.43,372.56,436,373.94
			z"/>
		<path class="st65" d="M338.21,329.03c0,1.49,0.02,2.99-0.01,4.48c-0.02,0.97-0.11,2.68-1.02,2.44c-4.16-1.1-8.64,2.96-12.41-0.54
			c-3.54-3.29-1.65-7.82-1.89-11.83c-0.07-1.18,0.88-1.63,2.01-1.69c1.37-0.08,2.3,0.41,2.37,1.87c0.08,1.66,0.01,3.32,0.09,4.98
			c0.09,1.87,0.25,3.95,2.72,3.99c2.46,0.04,3.38-1.76,3.54-3.98c0.08-1.16,0.02-2.32,0.05-3.48c0.04-1.67-0.13-3.47,2.43-3.38
			c2.25,0.08,2.09,1.68,2.12,3.17C338.23,326.37,338.21,327.7,338.21,329.03z"/>
		<path class="st56" d="M443.61,314.01c1.15,0.12,2.7-0.28,3.19,1.46c0.54,1.96-0.54,2.63-2.31,2.87c-1.14,0.15-2.06,1.56-1.48,2.1
			c5.21,4.94-3.05,9.33-0.47,14.23c0.58,1.1-1.26,1.55-2.48,1.59c-1.42,0.05-2.09-0.54-2.19-2.01c-0.24-3.5,0.29-6.9-1.7-10.43
			C434.53,320.95,440.22,314.13,443.61,314.01z"/>
		<path class="st66" d="M361.88,336.84c-1.35-0.09-2.62-0.38-3.68-1.3c-1.56-1.36-1.57-3.24-1.56-5.05
			c0.03-4.1-3.78-8.31,0.33-12.32c1.14-1.11,3.09-1.26,3.46-0.31c0.87,2.2,2.09,3.72,4.02,5.03c0.71,0.48-0.12,1.61-1.02,2.34
			c-3.13,2.52-3.18,5.67,0.06,7.5c1.25,0.71,1.87,1.26,1.59,2.51C364.71,336.96,363.19,336.76,361.88,336.84z"/>
		<path class="st64" d="M355.17,371.73c0,2.82-0.03,5.65,0.01,8.47c0.02,1.61-0.56,2.5-2.31,2.44c-1.54-0.06-2.57-0.58-2.57-2.3
			c0-5.98-0.01-11.96,0.01-17.93c0.01-1.75,1.16-2.15,2.67-2.19c1.85-0.05,2.21,1.05,2.2,2.55
			C355.16,365.75,355.17,368.74,355.17,371.73z"/>
		<path class="st66" d="M322.04,376.88c1.29-3.06,2.14-4.98,2.93-6.94c0.56-1.4,1.5-2.31,3.04-1.85c2.04,0.62,1.05,2.1,0.6,3.24
			c-1.2,3.09-2.37,6.2-3.81,9.18c-1.43,2.95-4,3.03-5.44,0.12c-1.54-3.11-2.72-6.4-3.99-9.64c-0.4-1.02-1.14-2.31,0.54-2.88
			c1.21-0.41,2.35-0.02,2.91,1.23C319.77,371.42,320.63,373.56,322.04,376.88z"/>
		<path class="st67" d="M423.9,326.25c0,2.49-0.05,4.99,0.01,7.48c0.05,1.95-0.88,2.63-2.74,2.57c-1.78-0.06-2.22-1.04-2.22-2.58
			c0.02-5.32,0.03-10.64-0.01-15.96c-0.01-1.92,0.86-2.66,2.74-2.59c1.8,0.06,2.22,1.09,2.21,2.61
			C423.9,320.59,423.91,323.42,423.9,326.25z"/>
		<path class="st68" d="M465.94,328.97c0-1.65,0.01-3.3,0-4.96c-0.02-1.73,0.95-2.32,2.52-2.23c0.49,0.03,1.14-0.07,1.44,0.2
			c2.04,1.8,5.48-2.1,6.56,1.08c1.21,3.57-3.17,2.28-4.55,3.84c-1.41,1.6-0.73,3.45-0.96,5.2c-0.23,1.76,0.94,4.34-2.33,4.44
			c-3.59,0.11-2.52-2.66-2.69-4.6c-0.08-0.98-0.01-1.98-0.01-2.97C465.93,328.97,465.94,328.97,465.94,328.97z"/>
		<path class="st69" d="M414.87,375.04c0.01-1.49,0.06-2.99-0.01-4.48c-0.1-2.31,1.17-2.88,3.14-2.56c0.48,0.08,0.97,0.27,1.39,0.51
			c1.82,1.03,4.59-2.25,5.62,0.77c1.17,3.43-2.81,2.28-4.13,3.63c-1.5,1.56-0.91,3.41-1.06,5.17c-0.17,2,0.77,4.75-2.81,4.52
			c-3.32-0.21-1.84-2.88-2.13-4.58C414.73,377.06,414.86,376.04,414.87,375.04z"/>
		<path class="st61" d="M273.38,328.76c0-6.86,2.27-8.52,9.21-6.8c0.96,0.24,1.4,0.75,1.41,1.7c0.02,1.19-0.65,1.92-1.72,2.08
			c-3.79,0.56-4.08,3.19-4.03,6.25c0.03,1.79,0.83,4.41-2.46,4.27c-3.17-0.13-2.17-2.72-2.38-4.51
			C273.29,330.76,273.38,329.75,273.38,328.76z"/>
		<path class="st53" d="M659.92,554.92c-0.67,0-1.33,0-2,0c1.18-2.38,3.66-2.56,5.75-3.42c7.08-2.87,10.9-7.98,10.22-13.6
			c1.01-1.66,2.32-3.02,4.04-3.97C678.69,544.61,671.45,553.05,659.92,554.92z"/>
		<path class="st70" d="M327.85,275.07c1.13-0.15,2.41,0.15,3.16-1.09c1.71-1.69,3.94-1.55,6.06-1.56
			c14.04-0.06,28.07-0.06,42.11-0.01c1.97,0.01,3.99-0.07,5.68,1.27c0.42,1.01,1.28,1.29,2.26,1.38c-0.33,0.34-0.66,0.69-0.98,1.03
			c-0.87,0.53-1.77,0.4-2.67,0.11c-16.99-0.33-33.98-0.34-50.97,0.01c-0.91,0.3-1.81,0.4-2.69-0.08
			C329.15,275.78,328.5,275.43,327.85,275.07z"/>
		<path class="st71" d="M243.95,508.95c-0.62,0-1.23,0-1.85,0c-1.69-0.12-3.42,0.21-5.08-0.43c-1.13-0.64-2.01-1.52-2.53-2.74
			c-0.38-1.65,0.21-2.99,1.33-4.16c1.78-1.48,4.34-0.08,6.11-1.64c2.05-1.1,0.16-3.9,2.17-5.01
			C245.3,499.64,246.12,504.31,243.95,508.95z"/>
		<path class="st72" d="M383.86,275.89c0.76,0.07,1.52,0.14,2.28,0.21c-1.4,1.18-3.11,1.03-4.75,1.03
			c-15.78,0.02-31.56,0.02-47.34,0c-1.47,0-3.02,0.15-4.24-1c0.76-0.06,1.52-0.13,2.28-0.19c7.78-0.95,15.59-0.37,23.38-0.36
			C364.93,275.58,374.4,275.05,383.86,275.89z"/>
		<path class="st73" d="M427.41,469.81c-2.28,0.69-3.98,1.06-4.58-0.69c-1.04-3-1.44-6.18-1.04-9.36c0.12-1,0.27-2.59,1.9-2.32
			c1.13,0.19,1.24,1.45,1.27,2.42c0.04,1.46-0.1,2.92-0.13,4.38C424.8,466.31,424.55,468.49,427.41,469.81z"/>
		<path class="st74" d="M278.25,508.79c-2.09,1.73-4.22,1.44-4.6-0.14c-0.9-3.74-2.68-7.68,0.3-12.27c0.61,2.58,4.96,2.95,1.52,6.7
			C274.05,504.63,275.18,507.72,278.25,508.79z"/>
		<path class="st75" d="M390.75,270.96c0.01-13.3,0.02-26.6,0.03-39.9c1.47,0.81,1.2,2.23,1.21,3.53c0.01,10.96,0.01,21.91,0,32.87
			C391.98,268.75,392.24,270.18,390.75,270.96z"/>
		<path class="st76" d="M489.91,464.92c0.17-0.63,0.28-1.29,0.52-1.89c0.39-1.02,0.31-2.56,1.78-2.65c1.5-0.09,1.56,1.35,1.91,2.42
			c0.25,0.76,0.63,1.47,1.18,2.72c0.52-1.35,0.87-2.26,1.23-3.18c0.39-0.99,0.96-1.89,2.14-1.24c1.02,0.57,0.17,1.4-0.03,2.11
			c-0.76,2.64-1.45,5.32-4.21,6.69c-1.34-1.03,0.3-4.7-3.3-3.65C490.44,466.08,490.05,465.61,489.91,464.92z"/>
		<path class="st77" d="M507.71,498.85c0.29-2.88,1.25-4.91,4.79-3.57c0.88,1.68-6.09,2.46-0.68,4.81c0.52,1.62-1.82,1.61-1.71,2.99
			c-0.18,2.14,0.65,4.47-1.02,6.89c-2.42-2.6-0.02-5.94-2.17-8.03C505.84,500.58,507.01,499.77,507.71,498.85z"/>
		<path class="st78" d="M365.34,508.9c-2.71,1.47-5.09,1.22-5.14-0.81c-0.09-3.62-3.25-7.69,0.83-11.25
			C364.46,500.36,359.16,506.17,365.34,508.9z"/>
		<path class="st79" d="M283.07,460.81c7.95-1.33,9.35,0.41,7.21,9.26c-2.39-0.93-1.37-2.99-1.58-4.54
			c-0.2-1.42,0.16-3.31-1.94-3.37c-2.07-0.06-1.98,1.74-2.1,3.23c-0.1,1.27,0.4,2.64-0.56,3.79c-0.96-2.47-0.7-5.15-1.4-7.67
			C282.83,461.29,282.95,461.05,283.07,460.81z"/>
		<path class="st80" d="M376.93,500.14c2.33-1.36,4.76,1.48,7.08-0.16c0.53,0.49,1.44,0.77,1.02,1.8c-3.17,0.74-1.86,3.33-2.14,5.25
			c-0.16,1.08,0.16,2.62-1.53,2.46c-1.18-0.11-1.02-1.44-1.15-2.41c-0.29-2.11,1.28-5.44-3.12-4.99
			C376.48,501.49,376.41,500.83,376.93,500.14z"/>
		<path class="st81" d="M308.92,382.93c0.91-0.85,2.57-1.33,1.85-3.06c-0.63-1.51-2.01-0.64-3.07-0.68
			c-2.04-0.08-4.27,0.67-6.26-1.58c2.14-1.09,4.13-0.8,5.92-0.6c4.04,0.46,5.49-1.14,4.72-5.02
			C313.9,377.17,312.54,381.89,308.92,382.93z"/>
		<path class="st82" d="M340.19,502.16c-2.19,2,0.08,5.24-3.17,8.62c-0.21-6.17-0.48-10.99,0.29-16.6c2.54,1.95,1.51,3.91,1.85,5.52
			C339.51,500.52,340.81,500.94,340.19,502.16z"/>
		<path class="st83" d="M431.93,462.88c-1.68,2.07,0.11,4.89-2.41,8.3c-0.63-6.11-0.66-10.93-0.02-16.33
			c2.39,1.7,1.37,3.46,1.61,4.94C431.73,460.73,432.61,461.59,431.93,462.88z"/>
		<path class="st84" d="M455.73,461c2.66,4.36,2.38,7.6-0.76,8.76c-0.86-0.33-1.42-0.92-1.6-1.84c-0.39-1.9-2.01-1.31-3.2-1.58
			c-0.68-0.26-1.14-0.72-1.3-1.46c0.92-1.89,2.55-1.75,4.21-1.45c1.01,0.18,1.21-0.15,0.71-0.97c-0.16-0.26-0.52-0.39-0.79-0.57
			C453.25,459.61,454.56,460.52,455.73,461z"/>
		<path class="st79" d="M214.03,500.94c0,4.22,0,8.44,0,13.11c-2.84-1.14-1.66-3.29-2.15-4.75c-0.67-0.67-1.4-1.31-1.49-2.35
			c0.19-1.88-0.23-3.8,0.31-5.67C211.72,500.18,212.84,500.21,214.03,500.94z"/>
		<path class="st85" d="M281.93,462.11c-2.5-0.19-3.63,0.98-3.69,3.47c-0.03,1.51,0.55,3.26-1.48,4.86
			c-1.4-3.47-1.21-6.73-0.23-9.62c0.2-0.59,4.29-1.84,6.54,0c0,0.22-0.05,0.43-0.14,0.63C282.65,461.74,282.31,461.96,281.93,462.11
			z"/>
		<path class="st84" d="M461.95,509.07c-2.19,1.13-4.48,1.56-6.31-0.39c-1.38-1.48-1.11-3.3,0.26-4.86c0.36-0.28,0.76-0.47,1.19-0.6
			c0.95-0.07,1.73,0.24,2.26,1.07c0.49,1.55,2.41,1.62,3.1,2.97C462.62,507.96,462.47,508.57,461.95,509.07z"/>
		<path class="st86" d="M324.87,495.85c3.47-1.15,6.85-0.71,10.56,0.47c-5.14,1.06-4.32,4.66-4.47,8.03
			c-0.08,1.71,1.44,4.07-1.29,5.18c-0.08,0.03-0.27-0.1-0.35-0.2c-0.1-0.12-0.15-0.29-0.22-0.44c0.88-2.72,0.42-5.52,0.37-8.27
			c-0.05-2.47-0.24-4.69,2.13-4.4c1.65-0.55,0.52-0.85,0.99-0.37C333.44,496.76,327.22,496.76,324.87,495.85z"/>
		<path class="st87" d="M269.98,467.88c1.81-1.72,0.88-4,1.25-6.01c0.1-0.54,0.58-1.08,1.03-1.44c0.15-0.12,1.1,0.33,1.09,0.51
			c-0.08,3.04,2.21,6.45-1.33,8.97C271.52,469.06,269.37,469.86,269.98,467.88z"/>
		<path class="st88" d="M294.17,509.24c-0.57,1.44,0.58,3.37-2.07,5.01c-0.62-4.74-0.45-9.02-0.13-13.32
			c1.19-0.69,2.32-0.76,3.35,0.31c0.66,1.85-0.12,3.76,0.2,5.63C295.51,507.9,294.9,508.61,294.17,509.24z"/>
		<path class="st89" d="M379.95,456.19c1.53,4.51,1.26,9.07,0.21,13.66C378.49,465.37,379.03,460.78,379.95,456.19z"/>
		<path class="st90" d="M425.97,508.94c-0.66,0-1.31,0-1.97,0c-0.44-0.37-0.73-0.84-0.87-1.4c-0.04-1.64-0.6-3.38,0.99-4.67
			c0.58-0.33,1.16-0.66,1.74-0.98c0.96,0.48,1.37,1.61,2.39,2.02c1.46,0.57,3.04,0.97,3.81,2.55c0.88-0.21,1.15,0.2,1.03,1.01
			C431.16,510.11,428.32,508.36,425.97,508.94z"/>
		<path class="st91" d="M378.83,540.87c-4.28,1.02-8.54,1.53-13.17-0.16c1.57-1.7,3.49-0.18,4.44-1.74c2.29,0.14,4.48,1.34,6.9,0.18
			C378.06,538.65,379.24,539.2,378.83,540.87z"/>
		<path class="st92" d="M437.16,460.81c2.68,2.92,1.79,5.99,0.87,9.72c-2.95-2.76-0.3-6.54-3.06-8.56
			C434.86,459.98,436.06,460.5,437.16,460.81z"/>
		<path class="st93" d="M406.12,467.27c-0.07,1.14-0.03,2.37-1.49,2.72c-1.7,0.4-1.86-1.06-2.12-2.05
			c-0.65-2.43-2.14-4.73-1.61-7.66c2.99,0.59,1.94,3.63,3.45,4.89c0.1,0.09,0.29,0.14,0.42,0.11c0.14-0.04,0.26-0.19,0.38-0.29
			C407.06,465.06,406.34,466.27,406.12,467.27z"/>
		<path class="st94" d="M409.71,382.85c2.4-2.75,2.02-3.99-1.86-3.71c-1.84,0.13-3.93,0.76-5.7-1.33c3.44-2.19,7.69,0.69,10.75-2.03
			C411.55,378.01,413.79,381.85,409.71,382.85z"/>
		<path class="st95" d="M408.8,509.81c-6.09-0.01-7.01-1.16-4.88-6.06c0.81-0.55,1.67-0.75,2.61-0.37c1.1,0.59,0.49,3.39,2.94,2.27
			c1.34,0.64,1.41,1.74,1.08,2.98C410.21,509.38,409.5,509.59,408.8,509.81z"/>
		<path class="st84" d="M470.97,456.97c-2.19,1.3-0.85,3.27-0.95,4.97c-1.5,2.46,0.3,5.36-1.06,7.84c-0.33-0.04-0.65-0.08-0.98-0.13
			c-1.51-2.35,0.78-5.36-1.33-7.61c-1.01-2.6,0.67-4.35,1.95-6.23C469.7,455.56,471,454.91,470.97,456.97z"/>
		<path class="st83" d="M369.19,465.27c-0.29,1.52,0.56,3.26-2.03,5.71c0-5.37,0-9.67,0-13.96c1.32-1.02,2.01-0.15,2.65,0.89
			c0.52,1.36,0.56,2.77,0.49,4.2C370.28,463.28,369.71,464.27,369.19,465.27z"/>
		<path class="st96" d="M216.9,459.87c2.57-4.63,5.29-5.39,10.91-2.5c-3.88,1-8.2,0.33-9.7,4.71
			C217.18,461.63,217.05,460.75,216.9,459.87z"/>
		<path class="st97" d="M346.98,379.01c-3.06-0.43-6.46,1.49-9.72-1.38c2.26-1.09,4.25-0.82,6.06-0.62
			c4.04,0.45,5.49-1.15,4.69-5.03C350.01,374.66,349.23,376.94,346.98,379.01z"/>
		<path class="st98" d="M217.07,500.16c0.32-0.02,0.63-0.04,0.95-0.06c1.21,1.81-0.09,3.98,0.84,5.82c1.77,3.86,3.44,1.27,5.12-0.09
			c0.97,1.05,0.92,2.11,0.02,3.17c-2.66,0.78-5.55,2.64-7.13-1.55C216.54,505.01,216.1,502.57,217.07,500.16z"/>
		<path class="st99" d="M360.21,458.54c1.28,2.98,2.65,5.93,3.79,8.97c0.26,0.69,0.63,2.26-0.8,2.28c-1.04,0.02-1.3-1.27-1.38-2.28
			c-0.2-1.51-2.25-0.96-2.58-2.33c-0.63-1.68-1.24-3.36-0.74-5.2C358.86,459.25,359.39,458.73,360.21,458.54z"/>
		<path class="st100" d="M269.05,469.97c-1.56,1.11-3.13,1.23-4.05-0.65c-1.43-2.95-1.7-5.98,0.12-9.39
			c1.98,2.77-0.17,5.9,1.86,8.11C267.56,468.81,269.62,467.97,269.05,469.97z"/>
		<path class="st101" d="M332.85,460.84c0.42-0.66,1.25-0.95,1.5-0.24c1.06,2.98,1.67,6.91-0.15,8.79
			c-1.31,1.35-5.62,2.62-8.26-0.39c0.12-0.16,0.23-0.31,0.35-0.47c0.52-0.27,1.15-0.13,1.65-0.46c1.03-0.02,2.07-0.04,3.1-0.06
			C334.6,466.36,332.5,463.3,332.85,460.84z"/>
		<path class="st102" d="M356.14,500.86c2.1,2.5,1.61,5.29,0.92,8.1c-2.44,1.13-2.82-0.89-3.57-2.34c-0.32-0.92-0.45-1.85-0.32-2.82
			c0.08-0.46,0.23-0.91,0.42-1.34C354.25,501.65,354.52,500.18,356.14,500.86z"/>
		<path class="st103" d="M390.33,465.76c1.95,2.77-0.17,3.75-2.14,4.65c-2.52,1.16-4.29,0.37-5.12-2.33
			c1.35-0.99,3.12-1.06,4.47-2.06C388.44,465.61,389.35,465.35,390.33,465.76z"/>
		<path class="st104" d="M376.93,500.14c0.05,0.65,0.1,1.3,0.16,1.96c-1.81,2.15-0.15,5.14-1.62,7.57
			C372.6,505.25,373.4,500.61,376.93,500.14z"/>
		<path class="st105" d="M324.87,495.85c2.65,0.17,5.29,0.34,7.94,0.52c-2.85,0.14-2.72,2.2-2.89,4.31
			c-0.22,2.74,0.94,5.63-0.83,8.21c-0.73-3.23-0.3-6.48-0.24-9.73c-0.46-2.37-2.7-1.35-4-2.11c-0.22-0.27-0.43-0.53-0.65-0.8
			C324.42,496.11,324.65,495.98,324.87,495.85z"/>
		<path class="st106" d="M216.9,459.87c1.01,0.4,0.88,1.43,1.21,2.21c-0.21,2.55,0.36,4.72,2.91,5.92c0.6,0.63,0.6,1.26,0,1.89
			C216.31,468.14,215.3,465.68,216.9,459.87z"/>
		<path class="st76" d="M340.09,463.07c-0.24,0.77-0.49,1.54-0.72,2.32c-0.44,1.52,0.91,4.42-1.47,4.24
			c-1.88-0.14-1.09-3.17-0.77-4.64c0.29-1.38-2.33-4.63,1.96-4.2C339.51,461.52,340.75,461.87,340.09,463.07z"/>
		<path class="st107" d="M252.45,540.95c-3.26,1.39-6.72,0.63-10.08,0.88C244.91,538.29,248.31,537.99,252.45,540.95z"/>
		<path class="st108" d="M406.12,467.27c-0.33-0.76-0.65-1.52-0.98-2.28c0.14-0.64,0.23-1.3,0.44-1.92
			c0.41-1.17,0.31-2.92,2.18-2.74c1.5,0.14,1.26,1.75,1.7,2.74c0.26,0.58,0.3,1.26,0.44,1.9c-0.49,0.64-0.1,1.69-1,2.13
			c-0.5-0.77-0.99-1.54-1.5-2.31C406.98,465.62,406.55,466.44,406.12,467.27z"/>
		<path class="st109" d="M489.91,464.92c0.41,0.44,0.82,0.89,1.22,1.33c-0.23,1.55,0.11,3.77-2.23,3.62
			c-2.13-0.14-2.03-2.17-1.99-3.83c-0.58-1.31-1.22-2.63,0.96-3.07C488.02,464.19,488.29,465.26,489.91,464.92z"/>
		<path class="st110" d="M409.99,508.92c0.01-1.06,0.3-2.18-0.67-3.02c-1.15-0.05-1.6-0.75-1.68-1.8c0.03-0.96,0.25-1.87,0.73-2.7
			c0.46-0.56,0.94-1.08,1.75-0.56c0.35,0.35,0.71,0.71,1.06,1.06C414.28,506.02,413.92,508.13,409.99,508.92z"/>
		<path class="st102" d="M306.82,540.02c-0.05,0.57-0.1,1.14-0.15,1.71c-2.64-0.59-5.29,0.32-7.86,0c-1.24-0.16,0.51-1,0.46-1.65
			C301.78,539.69,304.29,538.22,306.82,540.02z"/>
		<path class="st111" d="M436,373.94c-1.67-0.05-3.27-0.26-4.48-1.72c0.87-1.96,2.53-1.23,3.77-0.91c3.71,0.95,2.94-1.15,2.37-3.21
			C441.01,371.15,438.29,372.48,436,373.94z"/>
		<path class="st112" d="M206.01,507.96c-5.15-1.65-3.08-4.35-1.03-7.04c1.07-0.74,1.9-0.47,2.52,0.62
			c0.31,2.07-0.13,4.02-0.93,5.91C206.39,507.61,206.2,507.79,206.01,507.96z"/>
		<path class="st113" d="M415.72,541.86c-3.15-0.69-6.52,0.8-9.57-0.96C409.63,538.35,412.92,537.66,415.72,541.86z"/>
		<path class="st77" d="M453.15,541.14c-2.48,1.28-4.33,1.58-3.48-2.26c0.85-1.45-0.1-4.31,3.02-3.95c0.61,0.07,1.8-0.62,1.76,0.65
			c-0.01,0.46-1.08,0.88-1.67,1.32C451.65,538.42,453.89,539.65,453.15,541.14z"/>
		<path class="st82" d="M251.98,469.92c-1.93,0.33-1.99-0.98-2.03-2.32c-0.05-1.88,0.31-3.83-1.04-5.46
			c-0.13-1.78,0.66-1.93,1.99-1.13c0.44,0.63,0.88,1.26,1.32,1.88C253.86,465.29,253.71,467.63,251.98,469.92z"/>
		<path class="st91" d="M419.2,465.12c0,1.08,0.05,1.91-0.01,2.74c-0.07,0.94,0.04,2.21-1.42,2.04c-1-0.12-0.97-1.17-1.01-1.97
			c-0.05-0.83-0.18-1.7,0.01-2.49c0.41-1.72-1.21-4.81,1.43-4.84C420.07,460.59,418.8,463.71,419.2,465.12z"/>
		<path class="st114" d="M245.17,463.15c-0.2,2.21-0.41,4.43-0.65,7.09c-3.07-3.93-2.56-8.74,0.53-9.32
			C245.65,461.63,245.58,462.38,245.17,463.15z"/>
		<path class="st115" d="M482.98,462.94c1.42,0.62,1.04,1.79,0.88,2.89c-2.38,1.81-4.92,1.81-7.56,0.68
			c-0.81-0.58-0.96-1.37-0.73-2.27c1.27-1.87,3.41-1.45,5.19-1.99C481.59,462.17,482.34,462.39,482.98,462.94z"/>
		<path class="st116" d="M227.99,540.85c-2.07,0.23-5.47,3.98-5.2-1.97C224.59,536.47,224.59,536.47,227.99,540.85z"/>
		<path class="st117" d="M444.26,501.07c2.51-2.78,5.05-2.55,7.61-0.07c-0.5,0.68-0.9,1.44-1.57,1.99
			c-1.44,1.08-2.85,0.82-4.25-0.08C445.33,502.42,444.68,501.85,444.26,501.07z"/>
		<path class="st114" d="M224,509c-0.01-1.06-0.02-2.11-0.02-3.17c0.14-1.94-0.59-3.97,0.63-5.83
			C227.06,503.57,226.74,507.95,224,509z"/>
		<path class="st110" d="M229.64,500.15c2.12,2.99,1.23,6.05,0.29,9.11C228.48,506.26,228.69,503.21,229.64,500.15z"/>
		<path class="st118" d="M237.98,460.97c3.54,2.72,3.54,5.49,0.13,8.31c-0.65-0.27-1.16-0.7-1.44-1.36
			c0.16-2.22-0.45-4.34-0.93-6.48C236.31,460.44,237.03,460.19,237.98,460.97z"/>
		<path class="st119" d="M302,467.96c-1.29,3.46-3.35,3.69-7.73,0.85c0.58-0.95,1.45-1.5,2.5-1.8
			C298.63,466.64,300.47,466.46,302,467.96z"/>
		<path class="st73" d="M446.64,540.13c-2.62,2.22-5.48,1.71-8.38,0.74C440.87,538.52,443.71,538.77,446.64,540.13z"/>
		<path class="st120" d="M354.26,505.88c1.18,0.8,0.45,3.35,2.8,3.08c-2.63,0.98-5.26,2-7.86-0.08c0.45-0.65,0.94-1.26,1.46-1.86
			c0.5-0.66,0.97-1.36,1.82-1.65C353.15,505.23,353.74,505.43,354.26,505.88z"/>
		<path class="st121" d="M461.95,509.07c0.01-0.71,0.02-1.42,0.02-2.13c-0.56-0.54-1.14-1.07-1.45-1.81
			c-0.22-0.57-0.28-1.16-0.19-1.77c0.09-0.4,0.23-0.78,0.42-1.14c0.63-0.66,0.82-2.06,2.26-1.31c0.35,0.33,0.7,0.67,1.05,1
			c0.54,2.35,0.73,4.69-0.1,7.02C463.3,508.98,462.63,509.03,461.95,509.07z"/>
		<path class="st122" d="M476.12,463.72c0.02,0.81,0.03,1.62,0.05,2.43c0.59,0.6,1.16,1.21,1.23,2.12c-0.04,0.44-0.24,0.79-0.6,1.04
			c-0.63,0.11-1.25,0.18-1.71-0.41c-2.99-2.71-3.22-5.15,0.69-7.2c0.17,0.11,0.35,0.22,0.52,0.33
			C476.57,462.63,476.56,463.2,476.12,463.72z"/>
		<path class="st123" d="M400.81,504.88c-1.52,1.98-3.67,0.56-5.48,1.01c-1.89,0.47-0.83,1.25-0.25,2c-0.43,0.97-1.04,1.57-2.2,1.16
			l0.09-0.07c-0.96-1.57-1.47-3.19-0.44-4.94c1.63-1.63,3.62-1.43,5.63-1.08C399.31,503.22,400.09,504.02,400.81,504.88z"/>
		<path class="st124" d="M332.85,460.84c2.12,1.89,1.16,4.38,1.01,6.55c-0.15,2.16-1.62,1.52-2.82,0.61
			C333.31,466.04,331.33,463,332.85,460.84z"/>
		<path class="st87" d="M280.21,501.99c2.24-3.87,5-2.39,7.77-0.76c0.13,0.83-0.4,1.18-1.03,1.47c-1.32,0.52-2.98,0.19-3.93,1.62
			c-0.27,0.34-0.58,0.62-0.94,0.87c-0.43,0.12-0.85,0.08-1.25-0.11C279.92,504.19,280.53,502.99,280.21,501.99z"/>
		<path class="st125" d="M414.06,499.96c0.31-0.11,0.62-0.11,0.94,0c2.26,2.13-0.39,4.85,0.76,7.24c-0.11-1.37-1.18-2.87,1.1-3.32
			c0.46,5.93,0.46,5.93-2.98,5.07C412.58,505.92,412.43,502.92,414.06,499.96z"/>
		<path class="st112" d="M410.69,465.72c1-1.84,0.58-5.91,3.01-5.11c2.39,0.79-0.46,3.79-0.69,5.87c-0.07,0.59-0.58,1.14-0.88,1.7
			C411.11,467.68,410.71,466.81,410.69,465.72z"/>
		<path class="st126" d="M352.89,329.24c-2.22-0.95-4.45-1.9-7.07-3.02c2.55-2.54,4.89-0.2,7.06-0.5
			C352.5,326.9,352.44,328.07,352.89,329.24z"/>
		<path class="st127" d="M355.08,467.16c-0.14,0.63-0.16,1.5-0.99,1.5c-1.52,0-1.45-1.21-1.11-2.12c0.88-2.31,1.93-4.56,2.91-6.84
			c0.9,0.44,1.27,1.25,1.53,2.15c0.13,0.92-0.08,1.8-0.35,2.67C356.86,465.75,355.7,466.25,355.08,467.16z"/>
		<path class="st91" d="M504.64,507.87c-2.81,2.89-5.62,2.95-8.43,0c0.5-0.76,1.18-1.25,2.09-1.39c1.49,0.06,2.98-0.02,4.47-0.17
			C503.72,506.44,504.47,506.82,504.64,507.87z"/>
		<path class="st128" d="M293.91,461.85c2.74-3.17,5.47-2.96,8.19,0.03c-0.12,0.68-0.51,1.16-1.09,1.5
			c-0.39,0.15-0.8,0.22-1.23,0.23c-1.19-0.15-2.37-0.44-3.59-0.18c-0.42,0.04-0.82-0.01-1.22-0.13
			C294.4,462.98,294.04,462.5,293.91,461.85z"/>
		<path class="st116" d="M391.15,540.9c-2.72,1.75-5.31-0.21-7.97-0.26C385.94,537.58,388.54,539.16,391.15,540.9z"/>
		<path class="st129" d="M345.72,501.08c0.94,2.69,0.86,5.39,0.23,8.51c-3.03-1.86-0.95-4.69-1.93-6.67
			c-0.53-0.72-0.6-1.44,0.11-2.05C344.69,500.37,345.25,500.55,345.72,501.08z"/>
		<path class="st121" d="M356.86,461.94c-0.32-0.74-0.64-1.49-0.95-2.23c0.35-1.58,0.41-3.58,2.5-3.72
			c1.34-0.09,1.77,1.27,1.81,2.54c-0.4,0.47-0.8,0.94-1.2,1.4C358.31,460.63,358.16,461.91,356.86,461.94z"/>
		<path class="st123" d="M426.94,500.16c1.98-1.31,4.02-1,6.07-0.24c1.13,3.43-2.69,2.61-3.64,4.26c-0.47,0.15-0.94,0.16-1.42,0.03
			C426.76,503.08,426.93,501.6,426.94,500.16z"/>
		<path class="st130" d="M495.96,501.93c2.29-3.42,5.02-3.37,8.03-1.02c-0.43,0.85-1.19,1.29-2.02,1.66
			c-1.69,0.35-3.14,1.43-4.89,1.59C496.15,503.71,496.54,502.58,495.96,501.93z"/>
		<path class="st113" d="M243.95,508.95c0.05-4.66,0.1-9.32,0.15-13.98c0.32,0.02,0.65,0.04,0.97,0.05
			c1.12,4.57-0.05,9.3,0.91,13.88C245.35,510.62,244.64,509.33,243.95,508.95z"/>
		<path class="st80" d="M261.21,469.06c-2.06,2.55-4.54,1.28-6.94,0.76c-0.87-0.52-0.7-1.2-0.31-1.93c1.43-1.3,3.25-1.24,5-1.44
			C260.51,466.63,260.98,467.73,261.21,469.06z"/>
		<path class="st131" d="M362.12,540.9c-2.38,1.35-5.04,0.33-7.56,0.79c-0.9,0.16,0.19-1.16,0.28-1.82
			C357.43,539.08,360.04,538.15,362.12,540.9z"/>
		<path class="st132" d="M246.21,502.68c1.34,0.82,2.82-2.04,3.79-0.12c0.56,1.11,0.44,3.12-0.24,4.15
			c-0.92,1.38-2.24-0.66-3.5-0.47C245.23,505.06,245.27,503.88,246.21,502.68z"/>
		<path class="st118" d="M501.99,501.82c0.67-0.3,1.34-0.6,2.01-0.9c0.25,0.05,0.48,0.12,0.71,0.22c1.17,0.14,0.66,1.33,1.18,1.88
			c0.15,1.76,0.2,3.5-1.24,4.85c-0.58-0.32-1.17-0.64-1.75-0.96C502.19,505.29,502.01,503.57,501.99,501.82z"/>
		<path class="st133" d="M236.08,502.01c-0.1,1.37-1.52,2.38-1.04,3.9c0.21,0.98-0.15,1.37-1.14,1.08c-1.05-2.37-1.9-4.71,1.17-6.32
			C236.04,500.64,236.4,501.07,236.08,502.01z"/>
		<path class="st132" d="M294.15,540.9c-2.67,0.76-5.34,0.98-8,0C288.81,538.81,291.48,537.83,294.15,540.9z"/>
		<path class="st124" d="M444.26,501.07c0.67,0.14,1.6-0.23,1.76,0.91c0.36,0.92,0.33,1.88,0.26,2.84c-0.01,1.25-0.5,2.35-1.09,3.42
			C442.44,506.49,442.31,505.5,444.26,501.07z"/>
		<path class="st134" d="M482.98,462.94c-0.67,0-1.34,0-2.02,0c-1.73,0.23-3.41,0.19-4.89-0.91c0,0-0.31-0.33-0.31-0.33
			C478.81,458.88,480.6,459.19,482.98,462.94z"/>
		<path class="st96" d="M270.16,540.9c-2.41,1.3-4.69,0.19-7.01-0.36l-0.05-0.44C265.68,538.38,268.07,538.33,270.16,540.9z"/>
		<path class="st135" d="M300.83,500.96c0.36,0.36,0.73,0.73,1.09,1.09c1.05,1.62,0.58,3.33,0.31,5.03
			c-0.44,1.13-1.23,1.32-2.27,0.83c-0.17-0.18-0.34-0.35-0.51-0.53c-0.74-1.84-1.13-3.74-0.96-5.73
			C299.02,500.58,299.73,500.1,300.83,500.96z"/>
		<path class="st84" d="M236.08,502.01c-0.34-0.45-0.67-0.89-1.01-1.34c2.15-1.61,4.48-1.46,6.86-0.69
			C241.02,503.65,237.75,500.53,236.08,502.01z"/>
		<path class="st79" d="M320.33,461.75c3.18,2.15,4.16,4.51,0.7,7.29c-0.7-0.17-1.14-0.61-1.4-1.27c0.44-2.1-1.49-4.03-0.48-6.18
			C319.58,461.39,319.97,461.44,320.33,461.75z"/>
		<path class="st114" d="M493.79,541.87c-4.08-1.89-1.7-5.01-1.48-7.72C495.4,536.22,493.24,539.3,493.79,541.87z"/>
		<path class="st136" d="M398.11,539.88c-0.77,1.71-2.04,2.61-3.87,1.88c-1.41-0.56-1.08-1.77-0.6-2.88
			C396.6,532.67,396.15,541.6,398.11,539.88z"/>
		<path class="st127" d="M349.37,539.88c-0.71,3.78-2.59,1.72-4.24,0.85c1.05-1.26,0.79-3.84,3.02-3.77
			C349.44,537.01,348.69,538.98,349.37,539.88z"/>
		<path class="st86" d="M473.16,507.18c-0.52,3.89-3.37,2.94-5.69,2.52c-1.56-0.28-2.26-1.37-0.6-2.68
			C468.95,507.52,471.07,506.88,473.16,507.18z"/>
		<path class="st137" d="M302,467.96c-2.03,0.03-4.05,0.05-6.08,0.08c-1.82-0.43-1.54-1.41-0.68-2.56c2.65-1.23,5.24-1.36,7.74,0.41
			C302.65,466.59,302.32,467.27,302,467.96z"/>
		<path class="st138" d="M425.97,508.94c1.86-3.02,5.1,0.71,7.13-1.47C431.53,511.88,428.67,510.01,425.97,508.94z"/>
		<path class="st131" d="M312.87,462.55c-0.09-1.32,0.58-1.85,1.85-1.75c0.8-0.42,1.26-0.04,1.6,0.65c-0.55,2.35-0.81,4.7-0.04,7.07
			c-0.61,1.01-1.4,1.09-2.34,0.46c-0.31-0.34-0.62-0.68-0.93-1.02C312.17,466.17,312.45,464.36,312.87,462.55z"/>
		<path class="st139" d="M289.83,505.66c-0.3,0.81-0.6,1.62-0.9,2.43c-2.36,1.18-4.69,1.26-6.98-0.18l0.12,0.08
			c-0.69-0.81-0.62-1.61,0.07-2.39C284.71,504.21,287.27,504.14,289.83,505.66z"/>
		<path class="st140" d="M345.72,501.08c-1.51-0.26-1.63,0.77-1.7,1.84c-1.12-1.04-2.47-0.94-3.83-0.75
			c-0.34-0.82-0.68-1.64-1.03-2.45C341.41,499.88,344.13,497.78,345.72,501.08z"/>
		<path class="st141" d="M236.91,467.91c0.4,0.46,0.8,0.91,1.2,1.37c-2.43,1.85-4.76,1.69-6.99-0.37c0.51-0.93,1.35-1.42,2.32-1.75
			C234.71,466.89,235.92,466.87,236.91,467.91z"/>
		<path class="st118" d="M311.79,508.81c-0.89,0.36-1.63,1.19-2.74,0.86c-0.83-0.7-1.07-1.63-1.06-2.67
			c0.04-0.77,0.25-1.48,0.71-2.1c0.42-0.33,0.88-0.37,1.37-0.16c0.55,0.11,1.1,0.21,1.64,0.32
			C312.94,506.29,312.82,507.54,311.79,508.81z"/>
		<path class="st118" d="M427.26,540.88c-1.86,2.25-4.39-0.72-6.35,0.82c-0.74-0.36-1.45-0.73-0.94-1.76
			C422.45,539.89,425.23,537.53,427.26,540.88z"/>
		<path class="st122" d="M478.78,540.03c-1.62,3.8-4.46-0.26-6.47,1c-0.61-1.03,0.4-1.4,0.83-2.01
			C475.13,538.69,476.9,539.66,478.78,540.03z"/>
		<path class="st93" d="M305.04,505.06c-1.72-5.21-1.49-5.4,5.86-4.96c0.18,2.17-1.93,1.53-2.85,2.35c-0.48,0.32-0.9,0.7-1.25,1.16
			c-0.34,0.48-0.72,0.92-1.2,1.27C305.41,504.93,305.23,505,305.04,505.06z"/>
		<path class="st108" d="M330.8,540.03c-1.69,3.93-4.49-0.21-6.57,0.91c-0.56-1.05,0.52-1.34,0.92-1.94
			C327.09,539.03,329.05,538.99,330.8,540.03z"/>
		<path class="st48" d="M254.08,467.99c0.06,0.61,0.12,1.21,0.18,1.82c-0.76,0.04-1.53,0.07-2.29,0.11
			c0.08-2.34,0.16-4.69,0.24-7.03c0.98-0.31,1.95-0.61,2.93-0.92c0.35,0.14,0.61,0.38,0.78,0.72c0.04,0.37,0.08,0.74,0.13,1.1
			c-0.16,0.39-0.39,0.72-0.69,1c-0.89,0.64-1.02,1.63-1.2,2.6C254.13,467.59,254.11,467.79,254.08,467.99z"/>
		<path class="st83" d="M246.21,502.68c0.01,1.18,0.03,2.37,0.04,3.55c-0.09,0.89-0.18,1.78-0.26,2.67
			c-2.04-4.51-0.52-9.26-0.91-13.88C247.73,497.24,245.73,500.14,246.21,502.68z"/>
		<path class="st100" d="M295.2,466.15c-0.06,0.74-0.11,1.48,0.72,1.89c-0.24,0.92-1.12,0.48-1.65,0.77
			c-1.87-2.23-1.94-4.55-0.36-6.96c0.4,0.37,0.79,0.75,1.19,1.12c0.46,0.55,0.72,1.18,0.65,1.91
			C295.61,465.33,295.43,465.75,295.2,466.15z"/>
		<path class="st80" d="M281.95,507.91c2.33,0.06,4.65,0.12,6.98,0.18C286.52,511.24,284.19,511.14,281.95,507.91z"/>
		<path class="st83" d="M385.03,501.78c-0.34-0.6-0.68-1.2-1.02-1.8c1.49-0.28,2.83-0.02,3.92,1.13c1.33,2.76,2.96,5.54-0.82,7.76
			C385.82,506.68,388.5,503.33,385.03,501.78z"/>
		<path class="st116" d="M416.86,503.87c-0.36,1.52-0.73,3.03-1.09,4.55c-0.26-0.01-0.51-0.01-0.77-0.02c0-2.82,0-5.63,0-8.45
			c0.34,0.06,0.69,0.13,1.03,0.19c0.63,0.62,2.56-0.16,1.96,1.8C417.61,502.59,417.23,503.23,416.86,503.87z"/>
		<path class="st127" d="M467.34,539.88c-0.71,3.81-2.61,1.69-4.25,0.85c1.1-1.23,0.82-3.84,3.04-3.77
			C467.43,537.01,466.68,538.98,467.34,539.88z"/>
		<path class="st142" d="M484.63,509.78c-2.29-0.38-5.39,2.07-6.66-1.9c0.38-0.43,0.85-0.73,1.39-0.92c1.98-0.4,3.93-0.57,5.69,0.73
			C485.41,508.5,485.8,509.3,484.63,509.78z"/>
		<path class="st134" d="M207.04,501.93c-0.45-0.82-1.22-0.98-2.05-1.02c3.02-2.82,6.03-0.9,9.05,0.02
			c-1.17,0.01-2.37-0.05-3.08,1.17C209.6,503.12,208.3,503.04,207.04,501.93z"/>
		<path class="st48" d="M409.99,508.92c4.15-1.7,1.22-4.61,1.19-7.02c0.27-0.04,0.54-0.06,0.81-0.06c2.72,2.03,1.36,4.64,1.02,7.1
			c-1.01,2.19-2.53,1.96-4.21,0.87C409.2,509.51,409.59,509.22,409.99,508.92z"/>
		<path class="st143" d="M300.83,500.96c-0.84,0.04-1.55,0.3-1.9,1.15c-1.28,0.98-2.56,0.99-3.84-0.02
			c-0.72-1.24-1.95-1.13-3.12-1.17C294.93,500.18,297.89,497.93,300.83,500.96z"/>
		<path class="st144" d="M313.94,468.98c0.82-0.05,1.62-0.14,2.06-0.98c1.2-1.15,2.43-1.15,3.7-0.12c0.44,0.39,0.89,0.78,1.33,1.17
			C318.65,471.25,316.28,471.03,313.94,468.98z"/>
		<path class="st101" d="M392.77,501.35c1.88-3.23,4.12-2.34,6.44-0.57c-0.19,0.82-0.68,1.4-1.42,1.79
			C395.85,503.25,394.21,502.72,392.77,501.35z"/>
		<path class="st124" d="M375.67,457.05c0.66,1.96,3.05,3.77,0.54,6.01c-0.85,0.42-1.36-0.07-1.82-0.68
			c-0.66-1.56-1.49-3.07-1.7-4.8C373.45,456.13,374.47,456.12,375.67,457.05z"/>
		<path class="st79" d="M393.15,503.73c-0.06,1.75-0.12,3.5-0.18,5.25c-0.97,0.18-1.09-0.84-1.68-1.19c-2.1-1.86-1.78-3.81-0.2-5.8
			c0.59-0.23,1.18-0.45,1.77-0.68C393.57,502.04,393.67,502.85,393.15,503.73z"/>
		<path class="st145" d="M391.1,501.98c0.07,1.93,0.13,3.87,0.2,5.8c-0.74,0.39-1.48,0.77-2.22,1.16c-0.92-2.34-0.87-4.68-0.02-7.02
			C389.74,501.94,390.42,501.96,391.1,501.98z"/>
		<path class="st146" d="M477.13,500.97c2.28-2.16,4.56-2.44,6.82,0.02c0.26,0.26,0.36,0.52,0.29,0.8
			c-0.07,0.28-0.14,0.42-0.22,0.42c-0.38,0.29-0.81,0.5-1.27,0.63c-1.18,0.24-2.34,0.17-3.49-0.18
			C478.35,502.36,477.67,501.75,477.13,500.97z"/>
		<path class="st147" d="M375.67,457.05c-0.92,0.17-2.04-0.32-2.65,0.84c-1.18,1.18-2.45,1.2-3.8,0.3c-0.34-1-1.14-1.2-2.06-1.17
			C370,454.59,372.84,455.24,375.67,457.05z"/>
		<path class="st148" d="M392.88,509.05c0.73-0.39,1.46-0.78,2.2-1.16c1.65,0.08,3.4-0.74,5.33,0.55
			C397.84,510.78,395.39,510.31,392.88,509.05z"/>
		<path class="st134" d="M487.87,462.98c-1.29,0.72-0.61,2.06-0.96,3.07c-0.61-0.92-2.21-1.26-1.88-2.69
			c0.24-1.04-0.58-2.74,0.83-3.02C487.58,460.01,487.95,461.5,487.87,462.98z"/>
		<path class="st122" d="M221.02,469.89c0-0.63,0-1.26,0-1.89c2.28,0,4.57,0,7.1,0C226.18,471.13,223.61,470.52,221.02,469.89z"/>
		<path class="st149" d="M393.15,503.73c-0.09-0.81-0.19-1.62-0.28-2.43c0,0-0.1,0.04-0.1,0.04c1.68,1.09,3.52,0.37,5.29,0.47
			c1.64,0.11,1.6,0.87,0.75,1.94C396.92,503.75,395.04,503.74,393.15,503.73z"/>
		<path class="st51" d="M484.63,509.78c0.1-0.59,0.2-1.17,0.3-1.76c-1.92-1.12-3.95-0.57-5.95-0.39c-0.34,0.08-0.68,0.17-1.01,0.25
			c0,0,0.06,0.1,0.06,0.1c-0.87-0.75-2.03-1.45-0.55-2.69c2.86-0.95,5.69-1.28,8.4,0.48C485.72,507.2,486.65,508.95,484.63,509.78z"
			/>
		<path class="st78" d="M255.92,462.69c-0.26-0.24-0.52-0.48-0.78-0.72c1.59-3.96,3.83-1.53,6.84-1.37
			C259.7,463.15,257.31,460.97,255.92,462.69z"/>
		<path class="st124" d="M423.77,507.92c0.08,0.34,0.16,0.68,0.23,1.02c-1.86,1.26-2.14,0.01-2.18-1.43
			c-0.05-1.89,0.17-3.82-0.85-5.56c-0.03-1.74,0.86-1.67,2.04-1.04l-0.03,0.02C424.15,503.16,422.89,505.66,423.77,507.92z"/>
		<path class="st103" d="M276.37,538.88c-0.29,1.08,0.79,2.9-1.35,3c-2.04,0.09-2.38-1.24-1.95-2.94c1.01-0.45,0.58-2.6,2.24-2.07
			C275.82,537.03,276.03,538.18,276.37,538.88z"/>
		<path class="st148" d="M269.33,508.16c-2.25,3.41-4.61,2.12-6.98,0.16c-0.02-0.01,0.11-0.26,0.21-0.35
			c0.12-0.11,0.28-0.16,0.43-0.24c1.55-1.12,3.25-1.24,5.03-0.69C268.59,507.26,269.02,507.64,269.33,508.16z"/>
		<path class="st150" d="M294.17,509.24c0.26-0.67,0.52-1.35,0.78-2.02c1.94-1.37,3.55-0.49,5.12,0.74c0,0-0.11-0.05-0.11-0.05
			C298.86,511.96,296.23,509.34,294.17,509.24z"/>
		<path class="st151" d="M211.08,507.04c0.27,0.75,0.54,1.5,0.81,2.25c-2.04-0.09-4.7,2.57-5.87-1.33c0,0-0.02,0.03-0.02,0.03
			C207.51,506.7,209.13,505.98,211.08,507.04z"/>
		<path class="st152" d="M263.25,503.87c-1.61-6.48,3.49-3.08,5.73-3.89c0.42,2.16-1.96,1.68-2.63,2.82
			c-0.26,0.34-0.55,0.65-0.85,0.95C264.78,504.28,264.05,504.77,263.25,503.87z"/>
		<path class="st151" d="M390.39,461.65c-2,0.29-4.01,0.94-6.72-0.84C386.65,459.7,388.63,459.29,390.39,461.65z"/>
		<path class="st116" d="M355.08,467.16c0.39-1.18,0.78-2.37,1.17-3.55c1.39-0.2,2.59,0.24,3.65,1.12c0.43,1.07,1.94,1.39,1.92,2.77
			C359.63,466.33,357.36,466.66,355.08,467.16z"/>
		<path class="st124" d="M238.96,540.95c-3.32,0.91-7.04,0.45-7.83-0.98c0.29-0.1,0.58-0.12,0.88-0.06c1.72-0.79,3.46-0.59,5.2-0.13
			C237.8,540.17,238.38,540.56,238.96,540.95z"/>
		<path class="st123" d="M454.01,468.14c0.32,0.54,0.64,1.08,0.96,1.63c-2.12,0.48-4.35,1.85-6.08-0.76
			c0.19-0.85,0.71-1.42,1.49-1.77C451.76,466.88,453.06,466.8,454.01,468.14z"/>
		<path class="st153" d="M281.93,462.11c0.33-0.23,0.67-0.45,1-0.68c1.98,2.34,0.49,5.22,1.18,7.75c-1.49,1.38-1.41-0.2-1.52-0.9
			C282.3,466.24,282.14,464.17,281.93,462.11z"/>
		<path class="st142" d="M451.75,509.76c-2.04-0.29-4.9,1.96-5.79-1.88c1.17-1.19,2.62-1.23,4.14-1.04
			C451.38,507.4,453.23,507.64,451.75,509.76z"/>
		<path class="st86" d="M237.98,460.97c-0.65,0.31-1.29,0.62-1.94,0.94c-0.99,1.28-2.35,1.53-3.85,1.42
			c-0.72-0.28-1.16-0.81-1.38-1.54C232.96,459.42,235.35,459.19,237.98,460.97z"/>
		<path class="st82" d="M410.69,465.72c1.07,0.48,1.23,1.49,1.44,2.47c-0.07,1.11-0.52,2.09-1.75,1.75
			c-1.28-0.36-1.48-1.62-1.47-2.84c0.33-0.71,0.67-1.42,1-2.13C410.17,465.22,410.43,465.47,410.69,465.72z"/>
		<path class="st129" d="M495.96,501.93c0.98,0.39,0.79,1.39,1.1,2.12c1.05,0.85,0.95,2,0.84,3.16c-0.56,0.22-1.13,0.43-1.69,0.65
			C494.5,505.96,494.5,503.98,495.96,501.93z"/>
		<path class="st130" d="M263.25,503.87c0.82-0.04,1.53-0.28,1.9-1.1c1.89-0.65,2.78,0.95,4.02,1.78l0.1,0.3l-0.28,0.15
			c0.41,1.14-0.19,1.77-1.12,2.23c-1.9-0.26-3.8-0.54-4.68-2.62C263.12,504.37,263.15,504.12,263.25,503.87z"/>
		<path class="st154" d="M289.83,505.66c-2.6,0.09-5.19,0.18-7.79,0.27c-0.88,0.31-1.15-0.01-0.92-0.87
			c0.27-0.12,0.55-0.21,0.83-0.26c1.2-0.98,2.63-1.13,4.09-1.21c1.16,0.02,2.16-0.54,3.22-0.88
			C290.3,503.54,290.09,504.59,289.83,505.66z"/>
		<path class="st151" d="M468.98,505.92c-0.71-0.24-1.8,0.28-2.01-0.99c-0.49-1.16,0.19-1.79,1.05-2.34
			c1.55-0.19,2.92,0.07,3.76,1.58c0.28,0.83,0.56,1.65,0.84,2.48C471.3,506.92,470.05,506.89,468.98,505.92z"/>
		<path class="st155" d="M430.01,376.94c1.34-0.19,2.6-0.05,3.44,1.13c0.15,0.21-0.09,1.03-0.33,1.12
			c-1.97,0.75-3.73,0.17-5.34-1.06C428.62,377.91,429.54,377.86,430.01,376.94z"/>
		<path class="st91" d="M423.02,500.91c-0.82,0.08-1.61,0.22-2.04,1.04c-0.99,0-1.99,0-2.98-0.01c-0.65-0.6-1.31-1.2-1.96-1.8
			C418.36,500.37,421,497.85,423.02,500.91z"/>
		<path class="st123" d="M410.12,500.84c-0.41,0.41-0.82,0.81-1.22,1.22c-1.67,1.12-3.29,1.12-4.87-0.18
			C405.46,498.03,407.83,499.66,410.12,500.84z"/>
		<path class="st50" d="M263.18,504.63c1.56,0.84,3.12,1.67,4.68,2.51c0.34,0.15,0.47,0.32,0.36,0.49c-0.1,0.18-0.21,0.28-0.32,0.28
			c-1.64-0.06-3.28-0.12-4.91-0.18C263.05,506.7,263.12,505.66,263.18,504.63z"/>
		<path class="st150" d="M237.02,507.95c1.65,0.55,3.7-0.94,5.08,0.99c-2.05,1.53-4.13,1.54-6.24,0.1
			C236.01,508.42,236.4,508.06,237.02,507.95z"/>
		<path class="st156" d="M455.73,461c-1.01-0.01-2.09-0.22-2.73,0.9c-1.31,0-3.42,1.29-3.65-0.6c-0.23-1.92,2.1-1.42,3.44-1.49
			C453.89,459.75,455.1,459.74,455.73,461z"/>
		<path class="st157" d="M309.01,506.94c0.01,0.91,0.03,1.82,0.04,2.73c-2.21,0.31-4.73,1.24-4.93-2.47
			c1.13-0.84,2.49-0.53,3.75-0.77C308.32,506.44,308.7,506.6,309.01,506.94z"/>
		<path class="st158" d="M476.98,467.92c-0.72-0.38-0.86-1.03-0.82-1.77c2.57-0.11,5.13-0.22,7.7-0.32
			c-0.49,1.14-0.78,2.41-1.94,3.14c-0.2-0.07-0.4-0.14-0.6-0.21C479.95,468.09,478.43,468.21,476.98,467.92z"/>
		<path class="st159" d="M281.12,505.06c0.31,0.29,0.61,0.58,0.92,0.87c0.01,0.69,0.02,1.37,0.03,2.06
			c-4.12-0.92-2.98-3.47-1.86-6.01C281.23,502.8,280.94,504,281.12,505.06z"/>
		<path class="st160" d="M437.16,460.81c-0.73,0.38-1.46,0.77-2.19,1.15c-1.01,0.31-2.03,0.61-3.04,0.92
			c-0.36-1.01-1.35-1.84-0.83-3.09C433.02,460.73,435.45,458.65,437.16,460.81z"/>
		<path class="st161" d="M449.95,507.76c-1.33,0.04-2.66,0.09-3.99,0.13c0,0,0.06,0.1,0.06,0.1c-0.69-0.84-0.62-1.66,0.09-2.45
			c2.38-1.29,4.68-1.27,6.88,0.43c-0.04,0.36-0.08,0.72-0.12,1.08C452.03,507.85,450.82,507.09,449.95,507.76z"/>
		<path class="st122" d="M356.14,500.86c-0.71,0.69-1.41,1.39-2.12,2.08c-0.41-0.09-0.8-0.24-1.17-0.44
			c-0.95-0.84-3.18-0.28-2.84-2.56C352.2,499.28,354.37,498.72,356.14,500.86z"/>
		<path class="st122" d="M488.71,541.82c-1.25-0.29-2.49-0.59-3.74-0.88c-0.52-0.58-1.54-0.22-1.96-1
			C485.39,539.13,488.19,537.03,488.71,541.82z"/>
		<path class="st101" d="M325.95,469c-1.52-2.94-2-5.87,0.04-8.79c0.04-0.06,0.37-0.02,0.45,0.07c0.18,0.22,0.29,0.49,0.42,0.74
			c-0.88,2.48,0.01,5.07-0.5,7.57C326.22,468.74,326.08,468.87,325.95,469z"/>
		<path class="st78" d="M504.91,541.04c-0.39-0.03-0.79-0.05-1.18-0.08c1.12-3.54,3.33-1.73,5.31-1.09
			C508.33,542.62,506.44,541.19,504.91,541.04z"/>
		<path class="st162" d="M306.1,502.77c0.28-0.35,0.56-0.7,0.84-1.05c1.62-0.37,3.25-0.46,4.87-0.01c-0.1,1.29-2.03,1.52-1.75,3.04
			c-0.34,0.03-0.69,0.06-1.03,0.09C307.46,504.99,306.55,504.21,306.1,502.77z"/>
		<path class="st107" d="M263.11,540.1c0,0,0.04,0.44,0.04,0.44c-1.73,0.44-3.22,1.85-5.2,1.27c-0.67-0.48-1.57-0.85-0.9-1.95
			C259.09,539.65,261.12,539.21,263.11,540.1z"/>
		<path class="st163" d="M413.01,508.94c-0.4-2.36,0.85-4.96-1.02-7.1c0.43-0.92,1.09-1.57,2.07-1.88
			c-0.06,2.99-0.12,5.99-0.18,8.98c0,0-0.43,0-0.43,0L413.01,508.94z"/>
		<path class="st164" d="M404.03,501.88c1.62,0.06,3.24,0.12,4.87,0.18c0.15,0.8,0.36,1.62-0.77,1.92c-0.41,0.4-0.82,0.37-1.22-0.02
			c-1-0.07-1.99-0.14-2.99-0.2C403.96,503.12,403.99,502.5,404.03,501.88z"/>
		<path class="st143" d="M389.06,501.92c0.01,2.34,0.01,4.68,0.02,7.02c-0.67,0.44-1.37,1.53-1.97-0.08
			c1.84-2.42,0.51-5.18,0.82-7.76C388.31,501.38,388.69,501.65,389.06,501.92z"/>
		<path class="st86" d="M255.59,464.02l0.32,0.07l0.14-0.3c1.75-0.07,3.43,0.03,4.15,2.05c-0.38,0.43-0.86,0.67-1.43,0.71
			c-1.1,0.36-2.18,0.41-3.25-0.11C254.72,465.62,253.79,464.78,255.59,464.02z"/>
		<path class="st133" d="M230.81,461.79c0.44,0.44,0.89,0.88,1.33,1.32c0.44,1.24,0.04,2.34-0.54,3.41c-0.48,0.57-1,1.01-1.8,0.58
			C227.97,464.92,229.65,463.4,230.81,461.79z"/>
		<path class="st148" d="M245.17,463.15c-0.04-0.74-0.08-1.49-0.13-2.23c1.97-0.96,3.94-2.05,5.86,0.09
			c-0.82,0.1-1.62,0.23-1.99,1.13C247.66,462.48,246.41,462.81,245.17,463.15z"/>
		<path class="st165" d="M429.14,503.87c-0.66-1.85,0.31-2.38,1.9-2.17c1.46,0.2,2.13-0.27,1.97-1.78c2.63,2.25-0.75,2.82-1.17,4.22
			C430.87,504.74,429.95,504.81,429.14,503.87z"/>
		<path class="st157" d="M467.96,499.99c1.64,0.75,4.86-2.51,5.03,1.98c-1.57,1.07-3.21,0.97-4.88,0.29
			C467.33,501.55,467.4,500.78,467.96,499.99z"/>
		<path class="st91" d="M390.33,465.76c-0.68,0.4-1.36,0.81-2.03,1.21c-1.18-0.08-2.44,0.06-3.25-1.11
			C386.15,463.19,386.63,463.19,390.33,465.76z"/>
		<path class="st105" d="M326.36,468.6c-0.32-2.56-1.29-5.15,0.5-7.57c0.79,2.28-0.56,4.89,1.09,7.04
			C327.58,468.74,327.03,468.86,326.36,468.6z"/>
		<path class="st123" d="M316,461.85c-0.43-0.35-0.86-0.7-1.29-1.06c2.09-0.99,4.22-2.14,5.62,0.96c-0.47,0.07-0.95,0.15-1.42,0.22
			C317.91,462.78,316.93,462.79,316,461.85z"/>
		<path class="st107" d="M340.09,463.07c-0.34-0.76-0.67-1.51-1.01-2.27c1.35,0.1,3.29-1.66,3.92,0.09
			C343.75,462.98,341.31,462.6,340.09,463.07z"/>
		<path class="st166" d="M468.98,505.92c1.28-0.09,2.53-0.09,3.64,0.72c0.29,0.07,0.47,0.26,0.54,0.54
			c-2.14,1.64-4.22,0.9-6.28-0.18C467.62,506.74,468.56,506.84,468.98,505.92z"/>
		<path class="st167" d="M269.17,504.56c-1.66,0.12-2.62-1.32-4.02-1.78c-0.01-0.22,0.02-0.42,0.11-0.63
			c1.56-1.19,3.17-0.92,4.8-0.17C269.76,502.84,269.47,503.7,269.17,504.56z"/>
		<path class="st118" d="M374.86,461.7c0.45,0.45,0.9,0.91,1.34,1.36c-0.95,1.71-2.48,1.87-4.19,1.56c-0.6-0.58-0.59-1.25-0.28-1.97
			C372.57,461.64,373.51,460.99,374.86,461.7z"/>
		<path class="st108" d="M463.02,500.91c-0.66,0.68-1.33,1.37-1.99,2.05c-0.42-0.09-0.81-0.24-1.19-0.44
			c-0.98-0.85-3.3-0.23-2.88-2.62C459.13,499.32,461.3,498.72,463.02,500.91z"/>
		<path class="st87" d="M220.17,540.9c-2.26,1.84-3.94,1.31-5.09-1.27C216.71,540.3,218.79,539.19,220.17,540.9z"/>
		<path class="st168" d="M485.87,505.78c-2.88,0.11-5.76,0.23-8.64,0.34c-0.98-0.97-0.11-1.41,0.55-1.91
			c1.88-0.77,3.84-0.61,5.8-0.46c0.86,0.13,1.59,0.5,2.22,1.09C485.97,505.14,485.99,505.46,485.87,505.78z"/>
		<path class="st84" d="M351.94,506.12c-0.15,0.74-0.33,1.46-1.15,1.76c-2.23,0.01-1.49-1.98-2.07-3.09
			c-0.03-0.34,0.04-0.66,0.23-0.95c0.46-0.33,0.98-0.52,1.54-0.57C352.16,503.62,353.1,504.34,351.94,506.12z"/>
		<path class="st169" d="M445.98,505.95c0.01,0.68,0.02,1.36,0.03,2.03c0,0-0.36,0.31-0.36,0.31l-0.47-0.06
			c0.03-1.52,0.06-3.05,0.09-4.57c1.82-0.54,3.65-0.23,5.48-0.07c0.44,0.38,0.58,0.84,0.42,1.4
			C449.58,506.06,447.54,504.71,445.98,505.95z"/>
		<path class="st101" d="M429.14,503.87c0.9,0.09,1.8,0.19,2.7,0.28c0.08,0.77,0.15,1.54,0.23,2.31c-1.57-1.01-3.79-0.62-5.04-2.33
			c0.29-0.38,0.63-0.44,1.03-0.18C428.41,503.92,428.78,503.89,429.14,503.87z"/>
		<path class="st71" d="M308.21,506.91c-1.25,1.67-2.68,0.81-4.08,0.28c0.31-0.71,0.61-1.43,0.92-2.14c-0.2-0.14-0.22-0.3-0.07-0.49
			C306.58,504.61,308.13,504.74,308.21,506.91z"/>
		<path class="st95" d="M348.72,504.79c1.53,0.46,0.92,2.37,2.07,3.09c-0.09,1.04-0.97,0.82-1.59,1
			C347.89,507.65,347.46,506.32,348.72,504.79z"/>
		<path class="st162" d="M385.05,465.86c1.24-0.08,2.34,0.22,3.25,1.11c-1.38,2.09-3.51,0.62-5.23,1.12
			C383.73,467.35,384.39,466.6,385.05,465.86z"/>
		<path class="st143" d="M475.08,468.9c0.69-0.01,1.38-0.02,2.07-0.02c1.64-1.19,3.24-1.18,4.79,0.15c0,0-0.02-0.06-0.02-0.06
			C479.56,471.05,478.69,471.04,475.08,468.9z"/>
		<path class="st133" d="M428.05,503.95c-0.34,0.06-0.68,0.12-1.03,0.18c-1.01-0.43-0.75-1.51-1.16-2.25
			c0.38-0.56-0.08-1.65,1.08-1.72C427.31,501.43,427.68,502.69,428.05,503.95z"/>
		<path class="st131" d="M466.65,462.04c2.67,2.15,0.74,5.1,1.33,7.61C466.27,467.34,468.15,464.39,466.65,462.04z"/>
		<path class="st131" d="M468.96,469.78c0.47-2.6-1.02-5.46,1.06-7.84C469.41,464.51,470.88,467.37,468.96,469.78z"/>
		<path class="st166" d="M463.97,508.94c0.03-2.34,0.06-4.68,0.1-7.02c1.67,2.19,0.87,4.64,0.72,7.01
			c-0.01,0.08-0.24,0.21-0.37,0.21C464.27,509.13,464.12,509.01,463.97,508.94z"/>
		<path class="st166" d="M468.23,502.25c1.58-0.1,3.17-0.19,4.75-0.29c-0.4,0.73-0.8,1.47-1.2,2.2c-1.4-0.03-2.75-0.17-3.59-1.53
			C468.2,502.64,468.23,502.25,468.23,502.25z"/>
		<path class="st109" d="M468.23,502.25l-0.04,0.39c-0.41,0.76-0.82,1.53-1.23,2.29c-1.79-2.07-1.68-3.76,0.99-4.95
			C468.05,500.74,468.14,501.5,468.23,502.25z"/>
		<path class="st83" d="M450.2,467.71c-0.44,0.43-0.87,0.86-1.31,1.29c-1.24-1.36-1.39-2.74-0.02-4.11
			c0.42,0.42,0.85,0.84,1.27,1.26C450.56,466.66,450.59,467.17,450.2,467.71z"/>
		<path class="st82" d="M451.01,504.91c-0.06-0.38-0.11-0.75-0.17-1.13c-0.4-0.47-0.53-1.09-0.91-1.57
			c0.22-1.09,1.06-1.19,1.94-1.22c1.11,1.12,1.66,2.4,1.18,3.99C452.35,505.52,451.67,505.5,451.01,504.91z"/>
		<path class="st123" d="M295.2,466.15c0-0.45-0.01-0.89-0.01-1.34c1.67-1.5,3.65-0.9,5.55-0.83c0.87,0.02,1.58,0.4,2.22,0.95
			c0.18,0.32,0.18,0.64,0.02,0.96C300.39,465.98,297.79,466.07,295.2,466.15z"/>
		<path class="st104" d="M398.81,503.75c-0.25-0.65-0.5-1.29-0.75-1.94c0.38-0.35,0.76-0.69,1.15-1.04c1.56,0.96,2.15,2.31,1.6,4.1
			C400,504.76,399.17,504.67,398.81,503.75z"/>
		<path class="st85" d="M423.77,507.92c-1.48-2.19-0.47-4.67-0.78-6.99c0.97,0.3,0.92,1.2,1.13,1.94
			C424,504.55,423.88,506.24,423.77,507.92z"/>
		<path class="st152" d="M477.93,504.9c-0.23,0.41-0.47,0.82-0.7,1.22c0.26,0.62,0.53,1.24,0.79,1.86
			c-3.49-0.57-2.21-3.01-1.98-5.04c0.67-0.33,1.26-0.12,1.81,0.29c0.13,0.17,0.27,0.35,0.4,0.52
			C478.4,504.21,478.29,504.59,477.93,504.9z"/>
		<path class="st120" d="M217.07,500.16c-0.07,2.43-0.13,4.86-0.2,7.29C216.05,505,215.65,502.55,217.07,500.16z"/>
		<path class="st76" d="M289.27,502.72c-0.19,1.25-0.36,2.52-2.17,2.11c-0.36-0.26-0.61-0.62-0.75-1.04
			c-0.09-0.69,0.13-1.29,0.57-1.82c0.36-0.25,0.71-0.49,1.07-0.74C289.04,501.18,289.04,502.05,289.27,502.72z"/>
		<path class="st116" d="M372,462.95c0.01,0.56,0.01,1.11,0.02,1.67c-0.94,0.22-1.89,0.44-2.83,0.65c-0.06-1.12-0.11-2.24-0.17-3.36
			C370.34,461.33,371.24,461.92,372,462.95z"/>
		<path class="st170" d="M267.9,507.91c0.01-0.26,0-0.52-0.04-0.77c0.38-0.71,0.75-1.42,1.13-2.13c1.65,0.89,2.47,1.86,0.33,3.15
			C268.85,508.08,268.38,507.99,267.9,507.91z"/>
		<path class="st77" d="M485.8,504.84c-0.62,0.04-1.23,0.07-1.85,0.11c-0.78-1.05-0.82-2.07,0.11-3.06
			c0.09-0.31,0.06-0.61-0.11-0.89C485.82,501.68,486,503.17,485.8,504.84z"/>
		<path class="st82" d="M237.02,507.95c-0.38,0.36-0.77,0.73-1.15,1.09c-1.49,0.12-2.1-0.62-1.97-2.05
			c0.38-0.36,0.76-0.72,1.14-1.08C235.7,506.59,236.36,507.27,237.02,507.95z"/>
		<path class="st112" d="M229.79,467.1c0.44-0.43,0.89-0.86,1.33-1.29c1.46-0.08,2.19,0.52,1.94,2.05c-0.35,0.9-1.13,1.02-1.95,1.06
			C230.68,468.31,230.23,467.71,229.79,467.1z"/>
		<path class="st79" d="M258.76,466.02c0.48-0.06,0.96-0.12,1.45-0.18c2.57,0.37,2.29,1.63,1.01,3.21
			c-0.68-0.72-1.37-1.43-2.05-2.15C258.77,466.72,258.63,466.43,258.76,466.02z"/>
		<path class="st171" d="M451.01,504.91c0.68,0.03,1.36,0.05,2.04,0.08c-0.02,0.32-0.04,0.65-0.06,0.97c-2.33,0-4.67-0.01-7-0.01
			C447.37,504.23,449.33,505.24,451.01,504.91z"/>
		<path class="st154" d="M350.01,499.95c0.68,1.84,3.27,0.12,3.89,2.08c-1.65,1.22-3.25,1.16-4.79-0.21
			C349.03,501.01,348.87,500.16,350.01,499.95z"/>
		<path class="st172" d="M311.79,508.81c-0.02-1.25-0.05-2.5-0.07-3.75c1.64,0.23,1.05,2.13,2.09,2.81c0.72,0.6,0.81,1.28,0.25,2.04
			C313.3,509.54,312.54,509.17,311.79,508.81z"/>
		<path class="st169" d="M453.15,541.14c-0.44-1.39-2.21-2.66-0.37-4.25c-0.28,1.81,1.32,2.62,2.08,3.87
			C454.29,540.89,453.72,541.02,453.15,541.14z"/>
		<path class="st173" d="M460.95,501.97c0.02,0.33,0.05,0.66,0.07,1c0,0-0.09-0.07-0.09-0.07c-1.11,1.46-2.89-0.04-4.11,0.92
			l-0.46,0.06l-0.46-0.05c0.07-0.67,0.14-1.33,0.21-2C457.74,501.26,459.36,501.12,460.95,501.97z"/>
		<path class="st174" d="M504.91,541.04c1.32-0.6,3.15,0.62,4.13-1.17c1.05,0.37,0.77,1.25,0.76,2.02
			C508.13,541.79,506.36,542.35,504.91,541.04z"/>
		<path class="st175" d="M460.95,501.97c-1.61-0.05-3.23-0.09-4.84-0.14c-0.13-0.82-0.44-1.72,0.84-1.93
			C457.74,501.64,460.22,500.11,460.95,501.97z"/>
		<path class="st176" d="M505.88,503.02c-0.39-0.63-0.78-1.26-1.18-1.88c1.21-0.49,1.42-2.29,3.01-2.29
			c-0.26,1.03-0.52,2.07-0.78,3.1C506.58,502.31,506.23,502.67,505.88,503.02z"/>
		<path class="st177" d="M314.05,509.9c-0.08-0.68-0.16-1.36-0.25-2.04c0.8-0.91,1.7-1.02,2.08,0.2
			C316.34,509.51,315.39,510.01,314.05,509.9z"/>
		<path class="st89" d="M257.06,539.86c0.3,0.65,0.6,1.3,0.9,1.95c-0.88,0.01-1.77,0.01-2.65,0.02
			C255.3,540.65,255.09,539.29,257.06,539.86z"/>
		<path class="st178" d="M311.82,501.71c-1.62,0-3.25,0-4.87,0.01c0.92-1.52,3.01-0.16,3.95-1.62
			C311.85,500.27,311.76,501.03,311.82,501.71z"/>
		<path class="st179" d="M349.11,501.82c1.6,0.07,3.19,0.14,4.79,0.21c0.08,0.3,0.12,0.61,0.12,0.92l-0.09-0.09
			c-1.1,1.5-2.88,0.02-4.12,0.92l-0.43,0.07l-0.43-0.01C349.01,503.17,349.06,502.49,349.11,501.82z"/>
		<path class="st180" d="M270.05,501.98c-1.6,0.06-3.2,0.11-4.8,0.17c0.37-2.21,3-0.56,3.73-2.17
			C270.5,500.03,270.13,501.08,270.05,501.98z"/>
		<path class="st120" d="M218.86,505.92c-1.47-1.77-0.53-3.89-0.84-5.82C219.77,501.83,218.7,503.96,218.86,505.92z"/>
		<path class="st78" d="M302.96,464.94c-0.76-0.02-1.51-0.04-2.27-0.07c-0.37-0.65-0.27-1.26,0.14-1.84
			c0.42-0.38,0.85-0.76,1.27-1.14C302.91,462.76,303.26,463.75,302.96,464.94z"/>
		<path class="st181" d="M419.98,539.94c0.31,0.59,0.63,1.17,0.94,1.76c-0.86,0.03-1.72,0.07-2.59,0.1
			C418.49,540.83,417.94,539.24,419.98,539.94z"/>
		<path class="st182" d="M269.05,469.97c-0.69-0.64-1.38-1.28-2.07-1.92c1-0.06,2-0.11,3-0.17c0.68,0.68,1.37,1.36,2.05,2.03
			C271.04,469.93,270.04,469.95,269.05,469.97z"/>
		<path class="st183" d="M478,503.91c-0.65-0.32-1.31-0.64-1.96-0.96c-0.14-0.94,0.39-1.51,1.09-1.98c0.74,0.11,1.51,0.17,1.85,1.02
			C479,502.8,478.7,503.46,478,503.91z"/>
		<path class="st113" d="M237.22,539.78c-1.73,0.04-3.47,0.09-5.2,0.13C233.72,538.73,235.45,538.42,237.22,539.78z"/>
		<path class="st184" d="M449.95,507.76c0.79-0.97,1.85-0.86,2.91-0.72c0.08,1.09,0.57,2.35-1.12,2.72
			C452.36,508.01,451.11,507.92,449.95,507.76z"/>
		<path class="st93" d="M483.01,539.94c0.79,0.07,1.55,0.19,1.96,1c-0.85,0.56-1.67,1.54-2.77,0.68c-0.27-0.21-0.05-1.05-0.05-1.61
			C482.43,539.93,482.72,539.91,483.01,539.94z"/>
		<path class="st131" d="M470.97,456.97c-0.52-0.93-1.46-1.02-2.37-1.16c1.24-0.88,2.67-1.58,3.68,0
			C472.89,456.76,471.86,457.06,470.97,456.97z"/>
		<path class="st86" d="M324.85,497.04c1.8-0.19,4.14-1.39,4,2.11C328.16,497.24,325.9,498.28,324.85,497.04z"/>
		<path class="st86" d="M312.87,462.55c0.05,1.8,0.09,3.6,0.14,5.4C311.5,466.19,311.55,464.38,312.87,462.55z"/>
		<path class="st185" d="M302.23,507.08c-0.1-1.68-0.21-3.35-0.31-5.03C303.65,503.62,303.47,505.32,302.23,507.08z"/>
		<path class="st180" d="M510.11,503.09c-0.68-1.71,1.07-2.04,1.71-2.99C513.58,502.42,510.34,501.89,510.11,503.09z"/>
		<path class="st186" d="M208.03,538.93c-0.27,0.98-1.06,0.96-1.84,0.97c-0.11-0.28-0.14-0.56-0.08-0.86
			C206.71,538.31,207.36,538.37,208.03,538.93L208.03,538.93z"/>
		<path class="st48" d="M402.96,538.93c-0.64,0-1.29,0-1.93,0c0.02-0.39,0.04-0.78,0.06-1.16c0.64-0.38,1.26-0.38,1.86,0.09
			C402.96,538.22,402.96,538.57,402.96,538.93z"/>
		<path class="st48" d="M208.03,538.93c-0.64,0.04-1.29,0.07-1.93,0.11C206.68,537.84,207.32,537.76,208.03,538.93z"/>
		<path class="st140" d="M402.95,537.86c-0.62-0.03-1.24-0.06-1.86-0.09C401.77,536.51,402.4,536.3,402.95,537.86z"/>
		<path class="st11" d="M384.86,273.68c-17.95,0.1-35.9,0.2-53.85,0.3c-1.89-0.1-2.49-1.51-3.03-2.98
			c-1.04-9.92-0.13-19.86-0.47-29.79c-0.1-2.84,1.68-2.69,3.6-2.69c8.8,0.02,17.59,0.01,26.39,0.01c8.63,0,17.26-0.05,25.89,0.05
			c1.5,0.02,3.33-0.93,4.52,0.9c-0.02,8.92-0.12,17.84,0,26.77C387.94,269.26,387.2,271.74,384.86,273.68z"/>
		<path class="st187" d="M385.14,228.96c1.15,0.16,1.81,0.78,1.89,1.97c0.9,2.76,0.84,5.02-2.91,5.04
			c-11.05,0.05-22.1,0.14-33.15-0.05c-0.67-0.01-1.28-0.28-1.83-0.67c-1.25-2.05-1.31-4.14-0.24-6.28c0.77-0.74,1.74-0.9,2.74-0.9
			c9.89-0.08,19.78-0.05,29.67-0.02C382.67,228.05,383.93,228.38,385.14,228.96z"/>
		<path class="st70" d="M387.9,239.48c-11.93-0.9-23.89-0.2-35.83-0.38c-6.64-0.1-13.29,0.1-19.93-0.07
			c-3.06-0.08-4.51,0.6-4.41,4.08c0.26,9.29,0.19,18.59,0.24,27.89c-1.23-0.99-0.97-2.39-0.98-3.69c-0.01-8.32,0.1-16.65-0.06-24.97
			c-0.06-3.16,0.83-4.41,4.2-4.39c17.64,0.13,35.29,0.05,52.93,0.08C385.48,238.03,387.17,237.55,387.9,239.48z"/>
		<path class="st188" d="M348.96,233.9c0.63,0.93,1.57,1.1,2.6,1.1c10.72,0,21.44-0.08,32.15,0.06c3.24,0.04,3.38-1.82,3.32-4.13
			c1.29,1.43,0.68,3.23,0.93,4.86c-0.9,1.11-2.15,0.69-3.26,0.69c-18.65-0.01-37.3,0.09-55.94-0.03c-1.61-0.89-0.81-1.66,0.11-2.43
			c1.87-0.73,3.89-0.9,5.84-1.35c0.94,0.3,1.84,0.78,2.89,0.66c1.42,0.2,2.84,0.03,4.26,0.06c1.29,0.26,2.55,0.09,3.81-0.25
			C346.87,232.99,348.04,232.91,348.96,233.9z"/>
		<path class="st189" d="M328.01,235.02c0.52,0.34,1.03,0.97,1.55,0.97c19.46-0.03,38.93-0.11,58.39-0.19
			c-1.11,1.84-2.95,1.2-4.51,1.2c-17.26,0.04-34.53,0.04-51.79,0.02c-5.06-0.01-5.38-0.58-3.82-6
			C329.28,232.29,329,233.64,328.01,235.02z"/>
		<path class="st188" d="M385.14,228.96c-10.32,0.02-20.64,0.01-30.96,0.09c-1.75,0.01-3.71-0.66-5.18,0.97
			c-0.94,0.91-2.08,1.07-3.3,0.88c-1.28-0.31-2.56-0.52-3.87-0.08c-1.5,0.33-2.99,0.77-4.56,0.59c-1-0.34-1.89-1.06-3.05-0.87
			c-1.1,0.01-2.1-0.3-2.99-0.97c-0.24-0.21-0.35-0.44-0.33-0.7c0.02-0.27,0.07-0.4,0.13-0.4l-0.03-0.42
			c2.38-1.08,4.9-0.47,7.34-0.48c13.58-0.07,27.17-0.05,40.75-0.01c1.63,0,3.32-0.4,4.88,0.45
			C384.38,228.32,384.76,228.64,385.14,228.96z"/>
		<path class="st190" d="M384,228c-17.66,0.02-35.32,0.03-52.97,0.05c0.96-1.26,2.35-1.01,3.65-1.01c15.22-0.01,30.44-0.01,45.65,0
			C381.61,227.05,383.01,226.77,384,228z"/>
		<path class="st191" d="M331.05,228.47l-0.1,0.19c1.15,2.08,0.44,3.82-0.97,5.44c-0.44,0.76-1.18,0.89-1.96,0.91
			c-0.06-1.33-0.12-2.67-0.18-4C328.65,229.84,329.51,228.73,331.05,228.47z"/>
		<path class="st192" d="M289.02,375.07c-0.37,2.29-1.46,3.89-3.77,3.95c-2.55,0.07-4.07-1.48-3.93-3.98
			c0.12-2.18,1.57-3.7,3.88-3.61C287.42,371.52,288.76,372.87,289.02,375.07z"/>
		<path class="st193" d="M312.89,332.94c-2.34-0.09-3.84-1.33-4.08-3.59c-0.25-2.35,1.14-3.9,3.42-4.1
			c2.35-0.21,3.78,1.21,3.98,3.54C316.41,331.1,315.32,332.6,312.89,332.94z"/>
		<path class="st193" d="M389.67,375.3c-0.48,2.15-1.53,3.82-3.9,3.71c-2.48-0.11-3.99-1.59-3.76-4.15
			c0.21-2.28,1.82-3.53,4.03-3.43C388.34,371.54,389.42,373.15,389.67,375.3z"/>
		<path class="st194" d="M412.05,322.01c-0.02,2.85-1.96,3.34-4.03,3.59c-2.18,0.27-2.97-0.89-2.93-2.95
			c0.03-1.79,0.16-3.46,2.52-3.44C409.68,319.23,411.66,319.53,412.05,322.01z"/>
		<path class="st195" d="M387.42,322.32c1.08,1.85,3.38,3.36,1.51,5.5c-0.42,0.48-2.31,0.48-2.74,0.01
			C384.27,325.66,386.99,324.24,387.42,322.32z"/>
		<path class="st126" d="M249.92,322.32c1.39,1.69,3.23,3.27,1.48,5.38c-0.56,0.67-2.08,0.69-2.68-0.05
			C247.06,325.63,249.55,324.22,249.92,322.32z"/>
		<path class="st196" d="M404.54,373.86c-0.89-0.17-2.31,0.32-2.36-1.04c-0.05-1.47,1.35-1.63,2.51-1.6
			c1.01,0.03,2.18,0.41,2.16,1.53C406.82,374.13,405.45,373.73,404.54,373.86z"/>
		<path class="st81" d="M293.12,325.14c2.39,0.23,3.76,1.51,3.79,3.85c0.02,2.33-1.31,3.8-3.65,3.9c-2.45,0.1-3.69-1.58-3.78-3.77
			C289.39,326.8,290.93,325.54,293.12,325.14z"/>
		<path class="st197" d="M337.07,373.07c1.56-2.24,3.19-2.26,4.98-1.3c0.7,0.37,0.93,1.38,0.47,1.59
			C340.88,374.11,339.13,374.2,337.07,373.07z"/>
		<path class="st188" d="M300.9,373.46c1.84-2.43,3.4-2.73,5.24-1.71c0.69,0.38,0.93,1.32,0.45,1.61
			C304.97,374.31,303.24,373.87,300.9,373.46z"/>
		<path class="st196" d="M369.95,374.78c-0.13,2.45-1.18,4.05-3.53,4.22c-2.14,0.16-3.43-1.07-3.63-3.23
			c-0.2-2.28,0.7-4.06,3.09-4.3C368.2,371.24,369.52,372.68,369.95,374.78z"/>
		<path class="st198" d="M455.26,332.98c-2.72-0.35-3.84-1.93-3.76-4.13c0.08-2.28,1.55-3.74,3.87-3.63
			c2.34,0.12,3.55,1.75,3.44,4.03C458.7,331.56,457.21,332.72,455.26,332.98z"/>
		<path class="st199" d="M383.86,275.89c-17.26,0.02-34.51,0.03-51.77,0.05c0.85-1.08,2.06-0.9,3.21-0.9
			c15.11-0.01,30.22-0.01,45.33,0C381.77,275.04,382.99,274.82,383.86,275.89z"/>
		<path class="st200" d="M450.2,467.71c-0.02-0.52-0.04-1.04-0.06-1.56c1.27-0.67,2.52-1.45,3.96-0.4c1.15,0.84,0.46,1.61-0.09,2.39
			C452.69,468.4,451.43,468.25,450.2,467.71z"/>
		<path class="st139" d="M211.08,507.04c-1.53,1.21-3.41,0.53-5.09,0.94c0.29-2.03-0.89-4.31,1.05-6.05
			c1.3,0.06,2.61,0.11,3.91,0.17C212.46,503.71,212.05,505.37,211.08,507.04z"/>
		<path class="st201" d="M461.02,504.85c0.7,0.52,1.02,1.22,0.96,2.09c-1.36-0.05-2.94,0.75-3.96-0.71
			c-0.43-0.62,0.3-1.13,0.83-1.51C459.6,504.26,460.32,504.34,461.02,504.85z"/>
		<path class="st113" d="M461.02,504.85c-0.72-0.04-1.45-0.09-2.17-0.13c-0.67-0.3-1.35-0.61-2.02-0.91
			c1.19-1.13,2.75-0.54,4.11-0.92C460.96,503.55,460.99,504.2,461.02,504.85z"/>
		<path class="st161" d="M300.07,507.97c-1.71-0.25-3.41-0.5-5.12-0.74c-1.48-1.75-1.15-3.45,0.14-5.13
			c1.28-0.23,2.56-0.62,3.84,0.02C301.02,503.73,299.74,506.01,300.07,507.97z"/>
		<path class="st139" d="M406.91,503.95c0.41,0.01,0.81,0.01,1.22,0.02c0.4,0.64,0.79,1.28,1.19,1.93
			c-0.89,1.55-2.29,3.03-3.85,1.57C403.89,506,407.2,505.5,406.91,503.95z"/>
		<path class="st202" d="M372,462.95c-0.99-0.35-1.99-0.69-2.98-1.04c0.07-1.24,0.14-2.48,0.21-3.72c1.27-0.1,2.53-0.2,3.8-0.3
			c1.51,0.84,2.32,2.01,1.84,3.81C373.91,462.11,372.95,462.53,372,462.95z"/>
		<path class="st203" d="M359.9,464.73c-1.33,0-2.79,0.42-3.65-1.12c0.2-0.56,0.4-1.11,0.61-1.67c0.65-0.74,0.66-2.18,2.15-2
			C359.18,461.56,360.48,462.97,359.9,464.73z"/>
		<path class="st115" d="M349.81,503.78c1.16-1.23,2.74-0.64,4.12-0.92c0.11,1.01,0.21,2.01,0.33,3.02
			c-0.77,0.08-1.54,0.16-2.31,0.24C352.01,504.63,351.21,503.93,349.81,503.78z"/>
		<path class="st11" d="M476.08,462.04c1.62,0.34,3.44-0.38,4.89,0.91c-1.35,1.94-3.18,0.86-4.85,0.78
			C476.11,463.16,476.1,462.6,476.08,462.04z"/>
		<path class="st204" d="M449.93,502.21c1.05,0.09,0.91,0.87,0.91,1.57c-1.86-0.04-3.72-0.08-5.57-0.12
			c0.25-0.56,0.5-1.13,0.75-1.69C447.31,502.24,448.53,503.64,449.93,502.21z"/>
		<path class="st205" d="M233.07,467.86c-0.65-0.68-1.3-1.37-1.94-2.05c-0.42-1.18,0.48-1.87,1.01-2.7c1.3-0.4,2.6-0.8,3.9-1.2
			c2.33,1.71,2.46,3.73,0.87,6.01C235.63,467.9,234.35,467.88,233.07,467.86z"/>
		<path class="st205" d="M481.95,469.03c-1.6-0.05-3.19-0.1-4.79-0.15c-0.09-0.31-0.14-0.63-0.17-0.96
			C478.99,466.74,480.98,465.57,481.95,469.03z"/>
		<path class="st206" d="M286.91,501.97c0.02,0.63,0.04,1.26,0.06,1.89c-1.64,0.9-3.28,0.85-4.92,0.03
			C282.57,500.44,285.25,502.51,286.91,501.97z"/>
		<path class="st101" d="M282.05,503.88c1.64-0.01,3.28-0.02,4.92-0.03c0.05,0.32,0.1,0.65,0.12,0.97
			c-1.71-0.01-3.42-0.01-5.14-0.02C281.98,504.5,282.01,504.19,282.05,503.88z"/>
		<path class="st52" d="M497.9,507.22c-1.08-0.84-0.7-2.07-0.84-3.16c1.15-1.84,2.74-2.69,4.92-2.24c1.42,1.5,1.77,3.19,0.91,5.1
			C501.3,508.2,499.61,507.92,497.9,507.22z"/>
		<path class="st207" d="M300.83,463.03c-0.05,0.61-0.09,1.23-0.14,1.84c-1.83-0.02-3.67-0.04-5.5-0.05
			c-0.03-0.61-0.06-1.23-0.09-1.84c0.28-0.05,0.55-0.07,0.83-0.05c1.37-0.29,2.74,0.76,4.12,0.01
			C300.32,462.92,300.58,462.95,300.83,463.03z"/>
		<path class="st45" d="M300.05,462.93c-1.38,1.45-2.75,1.47-4.12-0.01C297.31,461.89,298.68,461.98,300.05,462.93z"/>
		<path class="st208" d="M258.76,466.02c0.13,0.29,0.27,0.59,0.4,0.88c-1.21,2.63-3.44,0.46-5.07,1.09l-0.33-0.34
			c0.05-1.52,1.59-1.07,2.29-1.74C256.95,465.95,257.85,465.99,258.76,466.02z"/>
		<path class="st145" d="M316,461.85c0.97,0.04,1.94,0.08,2.91,0.12c1.39,1.82,2.85,3.62,0.79,5.9c-1.23,0.04-2.47,0.08-3.7,0.12
			C312.83,465.95,314.11,463.9,316,461.85z"/>
		<path class="st116" d="M308.21,506.91c-1.08-0.78-2.16-1.56-3.24-2.34c0.38-0.6,0.76-1.2,1.14-1.8c0.96,0.71,2.44,0.69,2.93,2.06
			c-0.01,0.7-0.02,1.41-0.03,2.11C308.74,506.92,308.47,506.91,308.21,506.91z"/>
		<path class="st209" d="M256.04,465.91c-0.76,0.58-1.53,1.16-2.29,1.74c-1.27-2.16-0.96-3.52,1.83-3.63
			C255.4,464.74,255.45,465.39,256.04,465.91z"/>
		<path class="st210" d="M478.98,507.64c2.05-0.87,4.08-1.43,5.95,0.39C482.95,507.9,480.96,507.77,478.98,507.64z"/>
		<path class="st137" d="M478,503.91c0.05-0.78,0.09-1.57,0.98-1.93c1.34-0.02,2.67-0.04,4.01-0.06c-0.25,2.79-0.77,3-4.91,1.9
			L478,503.91z"/>
		<path class="st120" d="M478.08,503.82c1.71-0.45,4.45,1.79,4.91-1.9c0.36-0.01,0.71-0.03,1.07-0.04
			c-0.04,1.02-0.07,2.04-0.11,3.06c-2.01-0.02-4.01-0.03-6.02-0.05C477.98,504.54,478.03,504.18,478.08,503.82z"/>
		<path class="st211" d="M336.36,266.57c-0.4-0.2-0.98-0.31-1.17-0.64c-0.46-0.78-0.26-1.61,0.35-2.27
			c1.58-1.69,2.98-3.64,4.82-4.98c3.01-2.18,2.1-3.88-0.08-5.84c-1.35-1.21-2.61-2.54-3.86-3.86c-0.87-0.93-2.31-1.99-0.94-3.29
			c1.21-1.15,1.96,0.48,2.8,1.11c0.4,0.29,0.71,0.69,1.07,1.03c8.58,8.29,8.33,10.88-1.68,17.83
			C337.27,265.96,336.86,266.23,336.36,266.57z"/>
		<path class="st59" d="M359.83,257.24c-1.65,0-3.31,0.1-4.95-0.03c-1.32-0.11-3.58,0.68-3.45-1.52c0.11-1.91,2.28-1.41,3.68-1.44
			c3.3-0.06,6.6-0.05,9.91-0.01c1.26,0.02,3.19-0.35,3.22,1.36c0.03,2.16-2.09,1.54-3.45,1.62
			C363.13,257.31,361.48,257.24,359.83,257.24z"/>
		<path class="st212" d="M345.11,230.19c1.3-0.05,2.6-0.11,3.89-0.16c0.49,1.3,0.55,2.59-0.04,3.87c-1.3,0.53-2.6,0.39-3.9,0.02
			C343.91,232.66,343.9,231.42,345.11,230.19z"/>
		<path class="st190" d="M329.98,234.1c-0.69-1.99,0.16-3.71,0.97-5.44c1.03,0.43,2.05,0.87,3.08,1.31c1.29,0.65,1.93,1.51,0.9,2.89
			C333.58,234.49,332.08,235.5,329.98,234.1z"/>
		<path class="st213" d="M337.02,231.06c1.41-1.44,3.03-1.48,4.78-0.73c1.28,1.12,1.26,2.26,0.04,3.41
			c-1.55,0.92-3.09,0.92-4.61-0.07C336.17,232.89,336.25,232,337.02,231.06z"/>
		<path class="st197" d="M341.83,233.75c-0.01-1.14-0.02-2.27-0.04-3.41c1.03-1.53,2.13-1.72,3.31-0.15
			c-0.02,1.24-0.03,2.49-0.05,3.73C343.9,235.41,342.83,235.23,341.83,233.75z"/>
		<path class="st187" d="M337.02,231.06c0.07,0.87,0.14,1.75,0.2,2.62c-1.54,1.92-1.98,0.73-2.3-0.82c-0.3-0.96-0.6-1.93-0.9-2.89
			C335.75,228.35,336.64,229,337.02,231.06z"/>
	</g>
</g>
</svg>
