<svg xmlns="http://www.w3.org/2000/svg" xmlns:xlink="http://www.w3.org/1999/xlink" width="64" height="64" viewBox="0 0 64 64">
  <defs>
    <filter id="Ellipse_10" x="0" y="0" width="64" height="64" filterUnits="userSpaceOnUse">
      <feOffset dy="3" input="SourceAlpha"/>
      <feGaussianBlur stdDeviation="5" result="blur"/>
      <feFlood flood-opacity="0.161"/>
      <feComposite operator="in" in2="blur"/>
      <feComposite in="SourceGraphic"/>
    </filter>
  </defs>
  <g id="Group_58" data-name="Group 58" transform="translate(-911 -782)">
    <g id="Group_60" data-name="Group 60">
      <g id="Group_51" data-name="Group 51" transform="translate(418 -878)">
        <g transform="matrix(1, 0, 0, 1, 493, 1660)" filter="url(#Ellipse_10)">
          <circle id="Ellipse_10-2" data-name="Ellipse 10" cx="17" cy="17" r="17" transform="translate(15 12)" fill="#3a499f"/>
        </g>
      </g>
      <g id="noun-footprints-2561648" transform="translate(814.868 745.032)">
        <path id="Path_26214" data-name="Path 26214" d="M338.471,146.912c3.16.826,4.748,2.956,4.116,4.865-.665,1.762-2.65,3.616-3.532,5.651-1.105,2.55.221,6.53-2.132,8.05a3.8,3.8,0,0,1-5.963-1.97c-1.3-3.544,4.2-3.713,1.287-13.451-.537-2.528,3.064-3.971,6.224-3.145Z" transform="translate(-208.616 -87.966)" fill="#fafafa" fill-rule="evenodd"/>
        <path id="Path_26233" data-name="Path 26233" d="M356.038,55.494a2.408,2.408,0,0,0,.321,1.363,1.047,1.047,0,0,0,1.85.086,2.556,2.556,0,0,0,.124-2.69,1.047,1.047,0,0,0-1.85-.086A2.412,2.412,0,0,0,356.038,55.494Z" transform="translate(-232.517 0)" fill="#fafafa" fill-rule="evenodd"/>
        <path id="Path_26234" data-name="Path 26234" d="M416.551,66a1.922,1.922,0,0,0,.329,1.195,1.122,1.122,0,0,0,1.85.086,2,2,0,0,0,.109-2.354,1.122,1.122,0,0,0-1.85-.085A1.92,1.92,0,0,0,416.551,66Z" transform="translate(-289.737 -10.154)" fill="#fafafa" fill-rule="evenodd"/>
        <path id="Path_26235" data-name="Path 26235" d="M472.063,85.292a1.718,1.718,0,0,0,.18,1.046.966.966,0,0,0,.695.52.946.946,0,0,0,.8-.311,1.693,1.693,0,0,0,.44-.96,1.717,1.717,0,0,0-.18-1.046.964.964,0,0,0-.695-.519.945.945,0,0,0-.8.311A1.692,1.692,0,0,0,472.063,85.292Z" transform="translate(-342.217 -28.71)" fill="#fafafa" fill-rule="evenodd"/>
        <path id="Path_26236" data-name="Path 26236" d="M514.781,110.68a1.509,1.509,0,0,0,0,.984.927.927,0,0,0,.585.588.97.97,0,0,0,.829-.153,1.563,1.563,0,0,0,.588-.8,1.509,1.509,0,0,0,0-.984.926.926,0,0,0-.585-.588.97.97,0,0,0-.829.153A1.563,1.563,0,0,0,514.781,110.68Z" transform="translate(-382.547 -52.986)" fill="#fafafa" fill-rule="evenodd"/>
        <path id="Path_26237" data-name="Path 26237" d="M552.469,139.892a1.411,1.411,0,0,0,0,.9.83.83,0,0,0,.517.534.84.84,0,0,0,.734-.14,1.483,1.483,0,0,0,.523-1.629.829.829,0,0,0-.517-.534.84.84,0,0,0-.734.14A1.424,1.424,0,0,0,552.469,139.892Z" transform="translate(-418.192 -80.691)" fill="#fafafa" fill-rule="evenodd"/>
      </g>
    </g>
  </g>
</svg>
