<svg xmlns="http://www.w3.org/2000/svg" xmlns:xlink="http://www.w3.org/1999/xlink" width="64" height="64" viewBox="0 0 64 64">
  <defs>
    <filter id="Ellipse_10" x="0" y="0" width="64" height="64" filterUnits="userSpaceOnUse">
      <feOffset dy="3" input="SourceAlpha"/>
      <feGaussianBlur stdDeviation="5" result="blur"/>
      <feFlood flood-opacity="0.161"/>
      <feComposite operator="in" in2="blur"/>
      <feComposite in="SourceGraphic"/>
    </filter>
  </defs>
  <g id="Group_37" data-name="Group 37" transform="translate(-493 -1660)">
    <g transform="matrix(1, 0, 0, 1, 493, 1660)" filter="url(#Ellipse_10)">
      <circle id="Ellipse_10-2" data-name="Ellipse 10" cx="17" cy="17" r="17" transform="translate(15 12)" fill="#ff5851"/>
    </g>
    <g id="Group_27" data-name="Group 27" transform="translate(142.903 -241.356)">
      <path id="Path_1917" data-name="Path 1917" d="M360.776,118.33a.334.334,0,0,0-.2.587,6.906,6.906,0,0,1,1.521,1.964,5.025,5.025,0,0,1,.637,3.625,2.828,2.828,0,0,1-.432.858,1.687,1.687,0,0,0-.222,1.182,8.613,8.613,0,0,0,.926,2.18c.091.22,0,.33-.139.343l-1.067.1a.582.582,0,0,0-.576.628l.039.891c.006.15,0,.22-.206.165a.334.334,0,0,0-.409.409c.066.247.061.315.041.361a1.44,1.44,0,0,1-.378.357.334.334,0,1,0,.4.53,1.635,1.635,0,0,0,.585-.619.908.908,0,0,0,0-.448c.459.043.658-.264.635-.782l-.037-.828,1.037-.1a.856.856,0,0,0,.689-.48.966.966,0,0,0,0-.8,8.283,8.283,0,0,1-.876-2,.856.856,0,0,1,.133-.736,3.414,3.414,0,0,0,.508-1.03,5.668,5.668,0,0,0-.689-4.1,7.562,7.562,0,0,0-1.669-2.158.331.331,0,0,0-.246-.09Z" transform="translate(22.445 1804.322)" fill="#fafafa" fill-rule="evenodd"/>
      <path id="Path_1918" data-name="Path 1918" d="M128.328,81.267a7.283,7.283,0,0,0-5.233,2.136,7.183,7.183,0,0,0-1.16,8.806,2.039,2.039,0,0,1,.291,1.593,9.571,9.571,0,0,1-.684,1.745,1.39,1.39,0,0,0-.063.972,2.477,2.477,0,0,0,.591.941,9.714,9.714,0,0,0,5.187,2.7,1.522,1.522,0,0,0,.96-.145,1.625,1.625,0,0,0,.668-.8,2.274,2.274,0,0,1,.422-.726c.123-.1.255-.147.669-.028a7.1,7.1,0,0,0,.9.23,1.463,1.463,0,0,0,.875-.1,1.162,1.162,0,0,0,.411.121,3.638,3.638,0,0,0,1.337-.248c.415-.119.547-.073.669.028a2.27,2.27,0,0,1,.422.726,1.623,1.623,0,0,0,.667.8,1.524,1.524,0,0,0,.961.145,9.712,9.712,0,0,0,5.187-2.7,2.48,2.48,0,0,0,.591-.941,1.391,1.391,0,0,0-.063-.972,9.54,9.54,0,0,1-.684-1.745,2.039,2.039,0,0,1,.291-1.593,7.183,7.183,0,0,0-1.16-8.806,7.294,7.294,0,0,0-6.554-2c-.194.038-.386.083-.578.137a7.307,7.307,0,0,0-1.508.617,7.336,7.336,0,0,0-1.508-.617c-.192-.054-.384-.1-.578-.137a7.34,7.34,0,0,0-1.322-.134Zm-.007.666a6.637,6.637,0,0,1,1.2.122c.177.034.352.077.526.126a6.644,6.644,0,0,1,1.014.38,7.465,7.465,0,0,0-2.366,2.706,5.669,5.669,0,0,0-.689,4.1,3.407,3.407,0,0,0,.508,1.03.858.858,0,0,1,.133.737,8.257,8.257,0,0,1-.876,2,.967.967,0,0,0,0,.8.856.856,0,0,0,.689.48l1.037.1-.037.828c-.026.585.228.9.789.767a1.024,1.024,0,0,0-.066.3,1.077,1.077,0,0,0,.491.787c.268.2.2.182.311.474a2.111,2.111,0,0,0,.189.374,1.334,1.334,0,0,1-.2-.015,7.336,7.336,0,0,1-.811-.211,1.368,1.368,0,0,0-1.278.155,2.42,2.42,0,0,0-.608.969.958.958,0,0,1-.383.487.841.841,0,0,1-.545.067,9.457,9.457,0,0,1-4.788-2.495,1.861,1.861,0,0,1-.439-.682.658.658,0,0,1,.033-.506,9.536,9.536,0,0,0,.728-1.882,2.8,2.8,0,0,0-.37-2.069,6.492,6.492,0,0,1,1.056-7.993,6.618,6.618,0,0,1,4.755-1.94Zm6.829,0a6.616,6.616,0,0,1,4.754,1.941,6.493,6.493,0,0,1,1.056,7.993,2.8,2.8,0,0,0-.37,2.069,9.534,9.534,0,0,0,.728,1.882.658.658,0,0,1,.033.506,1.868,1.868,0,0,1-.439.682,9.454,9.454,0,0,1-4.788,2.495.841.841,0,0,1-.546-.067.957.957,0,0,1-.382-.487,2.421,2.421,0,0,0-.608-.969,1.367,1.367,0,0,0-1.278-.155,3.741,3.741,0,0,1-1.091.224c-.252-.023-.418-.1-.615-.611a1.489,1.489,0,0,0-.531-.765c-.23-.176-.226-.213-.227-.274a4.333,4.333,0,0,1,.135-.528.334.334,0,0,0-.489-.375c-.265.152-.379.1-.37-.113l.039-.891a.624.624,0,0,0-.232-.515.654.654,0,0,0-.344-.113l-1.067-.1c-.207-.02-.2-.192-.139-.343a9.783,9.783,0,0,0,.926-2.18,1.689,1.689,0,0,0-.222-1.182,2.827,2.827,0,0,1-.432-.858,5.025,5.025,0,0,1,.637-3.625,7.807,7.807,0,0,1,2.614-2.749,8.35,8.35,0,0,1,1.521-.641q.261-.074.526-.126a6.646,6.646,0,0,1,1.2-.122Z" transform="translate(250.361 1839.631)" fill="#fafafa" fill-rule="evenodd"/>
    </g>
  </g>
</svg>
