<svg xmlns="http://www.w3.org/2000/svg" width="41.863" height="47.476" viewBox="0 0 41.863 47.476">
  <path id="Path_34760" data-name="Path 34760" d="M169.621,34.78l-18.3-23.4a2.1,2.1,0,0,0-3.416,0l-19.322,23.4a2.144,2.144,0,0,0,1.733,3.416h8.514v17.69a2.1,2.1,0,0,0,2.09,2.09h17.487a2.1,2.1,0,0,0,2.09-2.09V38.145h7.494a2.121,2.121,0,0,0,1.631-3.365Zm-15.7,7.7a5.682,5.682,0,0,1-2.957,1.988v2.09c0,.2-.1.255-.306.255H147.5c-.2,0-.255-.1-.255-.255v-2.09a6.75,6.75,0,0,1-1.733-.816,6.094,6.094,0,0,1-1.325-1.224,5.643,5.643,0,0,1-.867-1.53,5.182,5.182,0,0,1-.306-1.733c0-.2.1-.255.306-.255h3.824c.1,0,.153,0,.2.051a.265.265,0,0,1,.1.2.927.927,0,0,0,.51.816,2.271,2.271,0,0,0,1.172.357,1.615,1.615,0,0,0,1.172-.459,1.322,1.322,0,0,0,.459-.917V38.6a.44.44,0,0,0-.153-.306,5.2,5.2,0,0,0-2.039-.867c-.765-.2-1.427-.459-1.988-.663A5.946,5.946,0,0,1,145.1,35.9a4.8,4.8,0,0,1-2.039-4.027,4.427,4.427,0,0,1,.561-2.09,4.806,4.806,0,0,1,1.53-1.682,6.646,6.646,0,0,1,2.192-1.02v-2.09c0-.1,0-.153.051-.2a.265.265,0,0,1,.2-.1h3.161a.361.361,0,0,1,.306.306v2.141a5.83,5.83,0,0,1,2.5,1.427,5.563,5.563,0,0,1,1.478,2.294c.051.2,0,.306-.153.357l-3.671,1.172h-.1c-.153,0-.2-.051-.255-.2a1.14,1.14,0,0,0-.663-.714,2.5,2.5,0,0,0-.969-.255,2.353,2.353,0,0,0-1.172.255,3.574,3.574,0,0,0-.51.357.385.385,0,0,0,.051.2.864.864,0,0,0,.306.306,6.723,6.723,0,0,0,.663.357,8.5,8.5,0,0,0,1.224.408,15.535,15.535,0,0,1,1.835.612,5.971,5.971,0,0,1,1.733,1.02,5.122,5.122,0,0,1,1.478,1.835,5.852,5.852,0,0,1,.51,2.345,6.888,6.888,0,0,1-1.427,3.569Z" transform="translate(-128.167 -10.501)" fill="#fafafa"/>
</svg>
