<svg xmlns="http://www.w3.org/2000/svg" width="22.248" height="22.248" viewBox="0 0 22.248 22.248">
  <g id="Group_8" data-name="Group 8" transform="translate(-2005.061 -203)">
    <path id="Path_407" data-name="Path 407" d="M116.543,30.8H101.678A3.688,3.688,0,0,0,98,34.48V49.37a3.688,3.688,0,0,0,3.679,3.679h14.89a3.688,3.688,0,0,0,3.679-3.679V34.48a3.726,3.726,0,0,0-3.7-3.679Zm1.235,3.679v1.951a1.106,1.106,0,0,1-1.111,1.111h-2.049a1.106,1.106,0,0,1-1.111-1.111V34.381a1.106,1.106,0,0,1,1.111-1.111h2.049a1.106,1.106,0,0,1,1.111,1.111Zm-4.445,7.432a4.223,4.223,0,1,1-4.223-4.223A4.221,4.221,0,0,1,113.333,41.913Zm3.21,8.667H101.678a1.238,1.238,0,0,1-1.235-1.235v-9.7h2.371a6.856,6.856,0,0,0-.4,2.272,6.679,6.679,0,0,0,13.359,0,6.969,6.969,0,0,0-.4-2.272h2.371v9.7a1.188,1.188,0,0,1-1.21,1.235Z" transform="translate(1907.062 172.199)"/>
  </g>
</svg>
