<svg xmlns="http://www.w3.org/2000/svg" width="21.501" height="21.501" viewBox="0 0 21.501 21.501">
  <path id="logo-linkedin" d="M51.782,32H33.837A1.754,1.754,0,0,0,32,33.675V51.659A1.892,1.892,0,0,0,33.837,53.5H51.777A1.8,1.8,0,0,0,53.5,51.659V33.675A1.648,1.648,0,0,0,51.782,32ZM38.665,49.923h-3.08V40.345h3.08ZM37.231,38.889h-.022a1.675,1.675,0,1,1,.022,0ZM49.923,49.923h-3.08V44.686c0-1.255-.448-2.112-1.563-2.112A1.684,1.684,0,0,0,43.7,43.711a2.075,2.075,0,0,0-.107.756v5.455h-3.08V40.345h3.08v1.333a3.119,3.119,0,0,1,2.778-1.557c2.022,0,3.552,1.333,3.552,4.206Z" transform="translate(-32 -32)"/>
</svg>
