<svg xmlns="http://www.w3.org/2000/svg" width="45.836" height="43.923" viewBox="0 0 45.836 43.923">
  <g id="noun-marketing-1193267" transform="translate(-70 -9.798)">
    <path id="Path_2016" data-name="Path 2016" d="M95.953,47.425A20.4,20.4,0,1,0,110.5,63.317l-.179-.956-1.912.357.179.956A18.459,18.459,0,1,1,95.428,49.3l.937.263.525-1.873Z" transform="translate(-0.001 -33.796)" fill="#fafafa"/>
    <path id="Path_2017" data-name="Path 2017" d="M197.368,46.668c-6.092,0-10.7,9.214-10.7,20.425s4.607,20.425,10.7,20.425c5.58,0,9.958-7.747,10.614-17.824l.063-.97L206.1,68.6l-.063.97c-.6,9.18-4.455,16-8.673,16-4.651,0-8.753-8.2-8.753-18.479s4.1-18.48,8.753-18.48h.973V46.668Z" transform="translate(-106.944 -33.796)" fill="#fafafa"/>
    <path id="Path_2018" data-name="Path 2018" d="M303.33,46.668V52.5h1.945V46.668Z" transform="translate(-213.878 -33.796)" fill="#fafafa"/>
    <path id="Path_2019" data-name="Path 2019" d="M303.33,210v27.233h1.945V210Z" transform="translate(-213.878 -183.512)" fill="#fafafa"/>
    <path id="Path_2020" data-name="Path 2020" d="M490,281.943h5.836V280H490Z" transform="translate(-384.987 -247.674)" fill="#fafafa"/>
    <path id="Path_2021" data-name="Path 2021" d="M116.67,165.279h15.561v-1.945H116.67Z" transform="translate(-42.779 -140.736)" fill="#fafafa"/>
    <path id="Path_2022" data-name="Path 2022" d="M70,281.943H97.233V280H70Z" transform="translate(0 -247.674)" fill="#fafafa"/>
    <path id="Path_2023" data-name="Path 2023" d="M116.67,398.613h33.068v-1.945H116.67Z" transform="translate(-42.779 -354.618)" fill="#fafafa"/>
    <path id="Path_2024" data-name="Path 2024" d="M379.308,197.525l-3.75-3.957a.973.973,0,1,0-1.412,1.338l3.955,4.172a1.547,1.547,0,0,0,1.742.344l2.791-1.3a1.235,1.235,0,0,0,.365-2.005l-3.952-4.173a.973.973,0,1,0-1.413,1.337l3.3,3.487Z" transform="translate(-278.546 -166.681)" fill="#fafafa"/>
    <path id="Path_2025" data-name="Path 2025" d="M322.6,102.326l-2.466-5.289,7.052-3.288-.822-1.763-7.4,3.452a1.556,1.556,0,0,0-.753,2.07L321,103.5a1.556,1.556,0,0,0,2.07.753l7.4-3.452-.822-1.763Z" transform="translate(-227.383 -75.336)" fill="#fafafa"/>
    <path id="Path_2026" data-name="Path 2026" d="M405.507,32.056l7.9-.106.026,1.945L405.491,34a1.937,1.937,0,0,1-1.73-1.087l-3.12-6.69a1.936,1.936,0,0,1,.279-2.024l5.189-6.017,1.473,1.27-5.161,5.985Z" transform="translate(-302.924 -7.687)" fill="#fafafa"/>
    <path id="Path_2027" data-name="Path 2027" d="M465.315,15.468l6.576,14.1a.973.973,0,0,0,1.763-.822l-6.577-14.1a.973.973,0,1,0-1.763.822Z" transform="translate(-362.276 -3.929)" fill="#fafafa"/>
    <path id="Path_2028" data-name="Path 2028" d="M565.963,63.546l1.763-.822a.973.973,0,1,0-.822-1.763l-1.763.822a.972.972,0,1,0,.822,1.763Z" transform="translate(-453.349 -46.814)" fill="#fafafa"/>
    <path id="Path_2029" data-name="Path 2029" d="M528.254,12.886l1.25-1.49a.973.973,0,0,0-1.49-1.251l-1.251,1.49a.973.973,0,0,0,1.49,1.251Z" transform="translate(-418.476)" fill="#fafafa"/>
    <path id="Path_2030" data-name="Path 2030" d="M574.128,129.593h1.945a.973.973,0,0,0,0-1.945h-1.945a.973.973,0,0,0,0,1.945Z" transform="translate(-461.21 -108.025)" fill="#fafafa"/>
  </g>
</svg>
