<svg xmlns="http://www.w3.org/2000/svg" width="34.737" height="57.483" viewBox="0 0 34.737 57.483">
  <g id="Group_5352" data-name="Group 5352" transform="translate(-8002.036 46)">
    <path id="Path_34672" data-name="Path 34672" d="M206,33.594h24.941a4.918,4.918,0,0,1,4.9,4.9V86.178a4.888,4.888,0,0,1-1.438,3.461l-.06.056a4.882,4.882,0,0,1-3.4,1.382H206a4.918,4.918,0,0,1-4.9-4.9V38.493a4.888,4.888,0,0,1,1.438-3.461l.06-.056a4.882,4.882,0,0,1,3.4-1.382ZM220.606,53.9a.98.98,0,0,1,1.386,1.386l-4.281,4.281a.98.98,0,0,1-1.386-1.386Zm3.446-.674a.98.98,0,0,1-1.386-1.386l2.06-2.06a.98.98,0,0,1,1.386,1.386Zm.16-7.824a.98.98,0,1,1,1.386,1.386L212.271,60.115a.98.98,0,0,1-1.386-1.386Zm-7.335,2.061a.977.977,0,0,1,1.378,1.386l-3.477,3.476a.977.977,0,0,1-1.378-1.386ZM206.458,79.776a.98.98,0,1,1,0-1.959h4.9a.98.98,0,1,1,0,1.959Zm0,7.167a.98.98,0,1,1,0-1.959h4.9a.98.98,0,1,1,0,1.959Zm19.119,0a.98.98,0,0,1,0-1.959h4.9a.98.98,0,0,1,0,1.959Zm-9.559,0a.98.98,0,0,1,0-1.959h4.9a.98.98,0,0,1,0,1.959Zm-9.56-3.583a.98.98,0,0,1,0-1.959h4.9a.98.98,0,0,1,0,1.959Zm19.119,0a.98.98,0,0,1,0-1.959h4.9a.98.98,0,0,1,0,1.959Zm-9.559,0a.98.98,0,0,1,0-1.959h4.9a.98.98,0,0,1,0,1.959Zm-9.56-7.168a.98.98,0,0,1,0-1.959h4.9a.98.98,0,0,1,0,1.959Zm19.119,0a.98.98,0,0,1,0-1.959h4.9a.98.98,0,0,1,0,1.959Zm-9.559,0a.98.98,0,0,1,0-1.959h4.9a.98.98,0,0,1,0,1.959Zm9.559,3.584a.98.98,0,0,1,0-1.959h4.9a.98.98,0,0,1,0,1.959Zm-9.559,0a.98.98,0,0,1,0-1.959h4.9a.98.98,0,0,1,0,1.959ZM206.38,36.562h24.178a2.308,2.308,0,0,1,1.634.678l.065.071a2.305,2.305,0,0,1,.613,1.563V69.692a2.307,2.307,0,0,1-.679,1.629l-.006.006a2.3,2.3,0,0,1-1.627.677H206.379a2.322,2.322,0,0,1-2.312-2.312V38.874a2.315,2.315,0,0,1,2.312-2.312Zm24.178,1.96H206.38a.356.356,0,0,0-.353.353V69.693a.354.354,0,0,0,.1.248.343.343,0,0,0,.248.1h24.178a.352.352,0,0,0,.353-.353V38.874a.364.364,0,0,0-.079-.225l-.026-.024a.354.354,0,0,0-.248-.1Zm.381-2.967H206a2.926,2.926,0,0,0-2.031.818l-.043.046a2.933,2.933,0,0,0-.864,2.075V86.179A2.95,2.95,0,0,0,206,89.118h24.941a2.926,2.926,0,0,0,2.031-.818l.043-.046a2.934,2.934,0,0,0,.864-2.075V38.494a2.95,2.95,0,0,0-2.938-2.939Z" transform="translate(7800.938 -79.594)" fill="#141418"/>
  </g>
</svg>
