<?xml version="1.0" encoding="utf-8"?>
<!-- Generator: Adobe Illustrator 19.0.0, SVG Export Plug-In . SVG Version: 6.00 Build 0)  -->
<svg version="1.1" id="Layer_1" xmlns="http://www.w3.org/2000/svg" xmlns:xlink="http://www.w3.org/1999/xlink" x="0px" y="0px"
	 viewBox="0 0 391 208" style="enable-background:new 0 0 391 208;" xml:space="preserve">
<style type="text/css">
	.st0{fill:#B9BBBD;}
	.st1{fill:#0A0A0A;}
	.st2{fill:#0B0B0B;}
	.st3{fill:#B9BBBE;}
	.st4{fill:#0D0D0E;}
	.st5{fill:#0C0C0C;}
	.st6{fill:#101010;}
	.st7{fill:#100F10;}
	.st8{fill:#0C0C0D;}
	.st9{fill:#0D0D0D;}
	.st10{fill:#171718;}
	.st11{fill:#151516;}
	.st12{fill:#171717;}
	.st13{fill:#0E0E0E;}
	.st14{fill:#101011;}
	.st15{fill:#111111;}
	.st16{fill:#0F0F10;}
	.st17{fill:#111112;}
	.st18{fill:#121112;}
	.st19{fill:#191919;}
	.st20{fill:#1A1A1B;}
	.st21{fill:#1B1A1B;}
	.st22{fill:#0E0E0F;}
	.st23{fill:#4A4A4C;}
	.st24{fill:#4B4B4D;}
	.st25{fill:#171617;}
	.st26{fill:#151515;}
	.st27{fill:#131314;}
	.st28{fill:#141415;}
	.st29{fill:#252425;}
	.st30{fill:#1D1D1E;}
	.st31{fill:#1D1C1D;}
	.st32{fill:#121212;}
	.st33{fill:#121213;}
	.st34{fill:#131313;}
	.st35{fill:#4C4C4E;}
	.st36{fill:#191819;}
	.st37{fill:#161616;}
	.st38{fill:#4B4C4D;}
	.st39{fill:#262627;}
	.st40{fill:#131213;}
	.st41{fill:#1C1C1C;}
	.st42{fill:#181819;}
	.st43{fill:#4C4D4F;}
	.st44{fill:#1A1A1A;}
	.st45{fill:#202021;}
	.st46{fill:#1F1F20;}
	.st47{fill:#4D4D4F;}
	.st48{fill:#222223;}
	.st49{fill:#373738;}
	.st50{fill:#2E2D2E;}
	.st51{fill:#0D0C0D;}
	.st52{fill:#2B2B2C;}
	.st53{fill:#1D1D1D;}
	.st54{fill:#1B1B1C;}
	.st55{fill:#4F4F51;}
	.st56{fill:#0B0B0C;}
	.st57{fill:#4C4D4E;}
	.st58{fill:#DDDEDF;}
	.st59{fill:#242425;}
	.st60{fill:#323233;}
	.st61{fill:#545457;}
	.st62{fill:#C1C3C5;}
	.st63{fill:#272627;}
	.st64{fill:#7D7F82;}
	.st65{fill:#535456;}
	.st66{fill:#67696B;}
	.st67{fill:#B5B7BA;}
	.st68{fill:#252526;}
	.st69{fill:#444446;}
	.st70{fill:#49494B;}
	.st71{fill:#A5A7AA;}
	.st72{fill:#575759;}
	.st73{fill:#555658;}
	.st74{fill:#737578;}
	.st75{fill:#7E7F82;}
	.st76{fill:#919396;}
	.st77{fill:#515153;}
	.st78{fill:#9B9EA0;}
	.st79{fill:#FFFFFF;}
	.st80{fill:#FCFCFC;}
	.st81{fill:#F7F7F7;}
	.st82{fill:#212122;}
	.st83{fill:#A7A9AB;}
	.st84{fill:#F7F7F8;}
	.st85{fill:#222122;}
	.st86{fill:#B6B8BA;}
	.st87{fill:#B1B3B5;}
	.st88{fill:#B2B4B6;}
	.st89{fill:#F8F8F9;}
	.st90{fill:#F9FAFA;}
	.st91{fill:#F4F4F5;}
	.st92{fill:#FAFAFB;}
	.st93{fill:#E8E8E9;}
	.st94{fill:#E9E9EA;}
	.st95{fill:#F8F9F9;}
	.st96{fill:#EBECEC;}
	.st97{fill:#EFF0F0;}
	.st98{fill:#ECEDED;}
	.st99{fill:#F4F5F5;}
	.st100{fill:#F5F5F6;}
	.st101{fill:#FAFAFA;}
	.st102{fill:#F7F8F8;}
	.st103{fill:#E2E3E4;}
	.st104{fill:#DCDEDF;}
	.st105{fill:#E4E5E6;}
	.st106{fill:#DEDFE0;}
	.st107{fill:#C0C2C4;}
	.st108{fill:#F1F1F2;}
	.st109{fill:#E6E7E7;}
	.st110{fill:#F1F2F2;}
	.st111{fill:#E1E2E3;}
	.st112{fill:#29292A;}
	.st113{fill:#2C2C2D;}
</style>
<path id="XMLID_849_" class="st0" d="M170.7,67.3c-0.9-1.6-1.4-3.4-2.1-5.1c-0.3-0.6-0.7-1.2-1.3-1.3c-1-0.2-0.9-1.2-1.5-1.7
	c-0.4-0.4,0.4-0.6,0.3-1.1c-0.2-1.2,0.1-2.5-0.4-3.8c-0.1-0.3,0-0.9-0.5-1c-0.5-0.1-0.5,0.4-0.8,0.6c-0.2,0.2-0.4,0.4-0.7,0.8
	c0-1.3-1.5-1.9-1-3.2c0-0.1,0-0.3-0.1-0.3c-1.2-0.6-1-1.9-1.3-3c-0.3-1-0.8-2,0.2-2.9c0.5-0.5,0.5-1.3-0.5-1.6
	c-0.3-0.1-0.5-0.9-0.9-1.3c-0.9-0.9-0.3-1.9-0.6-2.9c-0.2-0.6,0.1-0.7,0.5-0.9c3.2-1.5,6.4-3,9.7-4.5c0.2-0.1,0.5-0.2,0.6-0.3
	c2.2-1.7,4-0.3,5.8,0.8c0.9,0.5,0.1,1.3-0.1,1.9c-0.2,0.6-0.5,1,0,1.6c0.2,0.3,0,0.6,0,0.9c-0.1,0.8-0.3,1.6,0.2,2.3
	c0.3,0.4,0.2,0.8,0,1.2c-0.7,2.2-1.1,4.4-2,6.5c-0.3,0.6-0.7,1.4,0.2,2c0.3,0.2,0,0.8-0.2,1.1c-0.5,0.7,0.1,0.6,0.4,0.9
	c0.6,0.4,0.5-0.1,0.7-0.3c0.3-0.6,0.5-1.2,0.5-1.9c0-0.6-0.3-1.4,0-1.9c1.8-2.6,1-5.7,1.7-8.5c0.2-0.9,0.1-1.8,0.1-2.7
	c0-0.4,0.1-0.7,0.6-0.7c0.4,0,0.8,0,0.9,0.5c0,0.4,0.2,0.7,0.3,1c0.2,0.7,0.5,0.9,1.2,0.8c2.8-0.5,5.7-0.8,8.5,0.1
	c1.3,0.5,2.5,1.4,3.7,2.2c2.3,1.4,4.6,2.8,6.7,4.4c1.5,1.2,3,1,4.6,0.6c0.7-0.2,1.3,0.4,2,0.6c1.3,0.3,2.5,0.6,3.9,0.7
	c1.2,0.1,2.5,0,3.5,0.4c1.2,0.6,1.6,0,2.1-0.7c0.8-0.9,1.9-1.7,2-3c0-0.1,0.2-0.3,0.3-0.4c1.7-0.8,3.3-2,5.3-2
	c0.9,0,1.6-0.4,2.3-0.9c0.8-0.6,1.5-0.7,2.3,0c0.7,0.5,1.3,1,1.8,1.7c0.7,1.1,1.9,1.3,3.1,0.9c1.7-0.5,3.3-0.8,5.1-0.3
	c0.3,0.1,0.5,0.1,0.8,0.4c-2.8,3-4.3,7-7.8,9.5c-1.7,1.2-2,2.7-2,4.6c0.1,10.1,0,20.2,0,30.4c0,0.8,0.2,1.4,0.7,2
	c1.6,1.8,2.9,3.8,4.7,5.4c0.5,0.5,0.4,0.8,0.2,1.4c-0.8,2.1-2.6,2.6-4.5,2.9c-1.7,0.2-1.9,0.7-1,2.1c0.1,0.2,0.3,0.3,0.2,0.5
	c-0.3,0.2-0.5,0-0.6-0.1c-0.6-0.4-0.9-0.1-1,0.5c-0.2,1.3-1.6,2.3-2.9,2c-0.9-0.2-2.2,0.3-2.8,1.1c0.3,0.4,0.7-0.3,1,0.2
	c-0.5,0.6-0.9,1.3-0.7,2.3c0.1,0.6-0.6,1.2-1.4,1.2c1.2,1.9,1.2,2.1-0.7,3.1c-1.3,0.7-1.8,1.6-2.1,3c-0.7,3.7-2.8,6.7-5.3,9.5
	c-0.3,0.4-0.8,0.9-1.3,0.2c-1.3-1.8-3.2-2.7-4.9-4c-2.5-1.8-5.1-3.6-7.8-5.1c-0.5-0.3-1-0.6-1.1-1.2c-0.1-0.4-0.3-0.8-0.6-0.8
	c-0.7-0.1-1.1-0.6-1.6-1.1c0.5-0.7,1.2-1.3,1-2.3c0-0.2,0.2-0.5,0.4-0.5c1.1-0.1,1.2-0.9,1.3-1.7c0-1.5,0.7-2.5,2-3.1
	c0.7-0.4,1.4-0.4,2,0.2c0.3,0.3,0.7,0.6,0.9,1c0.9,1.4,2.5,1.3,3.8,1.7c0.8,0.2,0.8-0.9,1.3-1.2c0.3-0.2-0.2-0.5-0.4-0.7
	c-0.5-0.5-1-1-1.5-1.6c-0.4-0.5-0.4-0.8,0.2-1.1c0.7-0.3,1.2-0.9,1.7-1.5c0.7-0.9,1.3-1.8,0.9-2.9c0-0.1,0-0.2,0-0.2
	c0.7-3.4-1-5.9-3.2-8.2c-0.5-0.6-1-1.2-1.4-1.8c-0.6-0.8-0.5-1.3,0.5-1.6c0.3-0.1,0.6-0.1,0.9,0c1.6,0.5,3.2,0,4.7-0.2
	c0.6-0.1,0.8-0.3,0.6-0.9c-0.2-0.6-0.3-1.2,0-1.9c0.2-0.6-0.1-0.8-0.7-0.7c-0.5,0.1-0.9,0.1-1.4,0c-1-0.1-1.5-0.7-1.3-1.7
	c0.1-0.9,0-1.7-0.4-2.6c-0.3-0.7-0.1-1.1,0.7-1.4c1-0.4,2.1-0.8,3.1-1.2c0.5-0.2,1-0.6,1.3-1c0.2-0.3,0.4-0.7,0.8-0.9
	c1.4-0.7,2.2-0.8,2.6,0.8c0.1,0.4,0.3,0.8,0.7,1.2c0-1.4-0.1-2.7,0.3-4c0.1-0.2,0-0.4-0.2-0.5c-1.5-1.1-1.3-2.9-1.5-4.4
	c-0.1-1.1-0.4-1.9-1.3-2.6c-1.2-1-2-2.3-2.8-3.6c-0.5-0.8-1.1-1-2-1.1c-1.7,0-3.3,0.3-4.2,1.9c-0.2,0.4-0.6,0.6-0.9,1
	c-0.5,0.6-1.2,0.8-1.9,0.4c-1-0.6-1.9-0.4-2.6,0.5c-0.4,0.4-0.9,0.7-1.3,1.1c-0.8,0.8-1.7,1.1-2.8,0.9c-1.3-0.2-2.3-0.5-2.7-1.9
	c-0.3-1.1-1.4-1.4-2.3-1.7c-1.1-0.3-1.9-0.8-2.5-1.9c-0.4-0.7-1.1-1.2-1.9-0.7c-2.4,1.6-4.9,0.6-7.3,0c-0.2-0.1-0.4-0.2-0.7-0.3
	c-1.3-0.5-1.6-0.3-2.2,1c-0.6,1.2-0.9,2.7-3,2.9c1.1,0.5,1.1,1.1,0.6,1.8c-0.2,0.4-0.2,0.9-0.3,1.3c-0.1,0.5-0.2,1-0.8,1.1
	c-0.6,0.1-0.8-0.4-1.1-0.7C171,67.7,170.8,67.5,170.7,67.3z"/>
<path id="XMLID_848_" class="st1" d="M170.7,67.3c0.6-0.4,0.5,0.3,0.7,0.4c0.3,0.2,0.3,0.8,0.8,0.7c0.5-0.1,0.5-0.6,0.5-1
	c0.1-0.7,0.1-1.4,0.6-2c0.2-0.2-0.1-0.6-0.5-0.6c-0.4,0-0.6-0.3-0.4-0.6c0.1-0.2,0.2-0.6,0.7-0.3c0.3,0.3,0.7-0.1,0.9-0.3
	c0.6-0.7,1.1-1.5,1.3-2.3c0.3-1.2,0.9-1.6,2.2-1.2c1.2,0.4,2.4,0.8,3.7,1c1.6,0.3,3,0.5,4.4-0.7c0.7-0.5,2.1,0.1,2.4,1
	c0.3,0.8,0.8,1.2,1.6,1.4c1.7,0.4,3.2,1.1,3.5,3c0,0.2,0.2,0.4,0.3,0.5c0.9,0.6,3.1,0.4,4-0.4c0.6-0.5,1.3-1.1,1.9-1.7
	c0.6-0.6,1.2-1,2.1-0.3c1.1,0.8,1.9,0.4,2.5-0.6c0.2-0.2,0.4-0.4,0.5-0.6c0.9-1.8,2.6-2,4.3-1.9c0.9,0,1.8,0.2,2.4,1.3
	c0.8,1.6,1.9,3,3.4,4.1c0.4,0.3,0.4,0.6,0.4,0.9c0.2,1,0.3,2.1,0.4,3.1c0.1,0.9,0.2,1.7,1.1,2.2c0.3,0.2,0.6,0.5,0.5,0.9
	c-0.6,1.4-0.4,3-0.4,4.6c-0.8-0.5-1.2-1.1-1.4-1.8c-0.4-1.1-1.4-1.4-2.1-0.5c-1.1,1.4-2.3,2.3-4,2.6c-0.5,0.1-1,0.6-1.6,0.8
	c-0.7,0.2-0.2,0.7-0.1,0.8c0.5,0.9,0.6,1.8,0.4,2.8c-0.2,1.2,1,1.8,2.1,1.3c0.5-0.2,0.8-0.4,1.2,0.1c0.5,0.5,0.1,0.8-0.1,1.2
	c-0.3,0.5,0,1.1,0.2,1.6c0.2,0.7,0,1.1-0.7,1.1c-1.6,0.1-3.1,1-4.7,0.3c-0.8-0.3-1.3,0.1-2,0.5c1.2,1.5,2.3,3.1,3.7,4.4
	c1.8,1.8,1.5,4,1.6,6.3c0.1,1.4-0.1,2.5-1,3.6c-0.7,0.7-1.3,1.4-2.4,1.7c0.9,0.9,1.7,1.7,2.5,2.5c0.2,0.2,0.5,0.3,0.4,0.7
	c-0.1,0.4-0.4,0.3-0.7,0.2c-0.4-0.2-0.4,0.2-0.4,0.4c0,0.9-0.6,1-1.3,0.8c-1.6-0.4-3.3-0.7-4.2-2.4c-0.5-0.8-1.2-0.9-2.3-0.4
	c-1.9,0.9-1.4,2.6-1.8,3.9c-0.2,0.7-0.4,0.7-0.9,0.7c-0.4,0-0.8,0-0.6,0.6c0.4,1.2-0.6,1.5-1.3,2c-4.5-2.5-9.1-5-13.6-7.5
	c-6.1-3.3-12.1-6.6-18.2-9.8c-0.9-0.5-1.7-1-2.7-1.1c-1.1-0.1-1.4-0.8-1.4-1.8c-0.1-2.2,0.1-4.3,0.6-6.4c0.2-0.8,0.3-1.6-0.4-2.3
	c-0.8-0.8-0.2-1.8,0.8-3.1c0.4-0.5,1.3-0.7,0.9-1.6c-0.1-0.1,0.4-0.5,0.5-0.8c0.5-1.1,1.6-1.7,1.8-3c0-0.1,0.2-0.2,0.4-0.3
	c1-0.2,1.5-0.8,1.4-1.8c-0.1-1.4,1.3-1.3,1.9-1.9c0.6-0.6,2-0.4,1.5-1.8c0-0.1,0-0.2,0.1-0.2C170,69.4,170.1,68.2,170.7,67.3z"/>
<path id="XMLID_847_" class="st2" d="M133.6,129.4c0.1-0.8,0-1.3-0.3-1.8c-2.2-3.4-4.5-6.8-6.7-10.2c-0.5-0.7-0.4-1.2,0.1-1.7
	c1.9-2,5.9-1.8,8.2,0.7c1.7,1.8,3.3,3.6,5.3,5c2.7,2,5.4,4,7.9,6.3c2.9,2.8,5.4,5.9,6.7,9.8c0.9,2.6,0.8,5.4,1.3,8
	c0.2,1,0.1,2.1,0.2,3.1c0.1,0.8-0.2,1.1-1,1c-3.5,0-7,0-10.6,0c-0.6,0-0.8-0.2-0.9-0.8c-0.2-1.1-0.2-2.2-0.1-3.2
	c0.2-2.4-1-4.1-2.9-5.2c-2.6-1.5-5.3-2.6-7.9-3.9c-2.7-1.4-5.5-2.8-7.8-4.9c-1.6-1.4-2.5-3.1-2.6-5.3c-0.2-3.5-0.6-6.9-0.9-10.4
	c-0.4-4.2-0.5-8.3,1.5-12.2c0.5-1,0.6-2.1,0.6-3.2c-0.1-4.5,1.9-8.2,4.4-11.6c0.6-0.8,1.8-0.8,2.5,0c0.9,0.9,1.2,2,1,3.3
	c-0.3,2.5-1.3,4.9-1.9,7.3c-0.1,0.5-0.1,0.9-0.1,1.4c0.2,1.5,0.4,2.9,0.2,4.4c-0.3,2.2,0.4,4.3,0.2,6.5c-0.1,0.9-0.3,1.3-1.2,1.5
	c-2.4,0.4-3.6,2-3.5,4.4c0,0.4,0.1,0.8,0.3,1.1C128.1,122.2,130.8,125.7,133.6,129.4z"/>
<path id="XMLID_846_" class="st0" d="M217,167.1c0,2.8,0,5.6,0,8.3c0,0.9-0.3,1.1-1.1,1.1c-1-0.1-2.1,0-3.1,0
	c-0.6,0-0.9-0.1-0.9-0.8c0-5.6,0-11.3,0-16.9c0-0.3,0-0.5,0.3-0.7c0.7-0.3,2.8,0.1,3.4,0.6c2.8,2.6,5.6,5.3,8.4,7.9
	c0.4,0.3,0.7,0.7,1.3,0.9c0-2.7,0.1-5.4,0-8c0-1,0.1-1.5,1.2-1.4c1,0.1,2.1,0,3.1,0c0.6,0,0.9,0.2,0.9,0.8c0,5.6,0,11.2,0,16.8
	c0,0.6-0.2,0.8-0.8,0.9c-1.4,0.1-2.6-0.1-3.7-1.3c-2.6-2.7-5.4-5.1-8.1-7.7C217.6,167.4,217.4,167.1,217,167.1z"/>
<path id="XMLID_845_" class="st0" d="M136.9,167.7c0-2.4,0-4.6,0-6.8c0-2.8,0-2.8,2.7-2.8c2.3,0,2.3,0,2.3,2.3c0,5,0,10,0,15
	c0,0.9-0.3,1-1.1,1.2c-2.1,0.4-3-1.1-4.2-2.2c-2.4-2.2-4.8-4.5-7.1-6.8c-0.2-0.2-0.5-0.4-0.9-0.8c0,2.2-0.2,4.2,0,6.2
	c0.3,3.5,0.4,3.5-3,3.5c-2.1,0-2.1,0-2.1-2.2c0-5,0-10,0-15c0-1,0.3-1.3,1.3-1.3c1.3-0.1,2.3,0.3,3.3,1.3c2.6,2.6,5.4,5.1,8.1,7.7
	C136.3,167.2,136.5,167.4,136.9,167.7z"/>
<path id="XMLID_844_" class="st0" d="M197.7,176.8c-5.2,0-9-2.7-9.8-7.5c-1.1-5.9,2.3-10.6,8.3-11.2c1.8-0.2,3.5,0,5.3,0.5
	c5,1.5,7.3,6.7,6,11.3C206.3,174.3,202.7,176.8,197.7,176.8z"/>
<path id="XMLID_843_" class="st3" d="M258.7,169.7c0,1.9,0,3.7,0,5.6c0,0.9-0.2,1.3-1.2,1.2c-1-0.1-2.1,0-3.1,0
	c-0.7,0-0.9-0.2-0.9-0.9c0-5.6,0-11.1,0-16.7c0-0.7,0.3-0.9,1-0.9c1.1,0,2.2,0,3.2,0c0.8,0,1,0.3,1,1.1c0,1.8,0,3.6,0,5.7
	c1.7-2.2,3.2-4.1,4.7-6.1c0.4-0.5,0.8-0.7,1.4-0.7c1.6,0,3.2,0,5.2,0c-1.3,1.7-2.5,3.3-3.7,4.8c-0.9,1.2-1.8,2.3-2.8,3.5
	c-0.5,0.5-0.5,0.9,0,1.4c2.1,2.6,4.1,5.2,6.2,7.8c0.2,0.2,0.5,0.5,0.5,1c-1.8,0-3.6,0-5.4,0c-0.6,0-0.8-0.5-1.1-0.9
	c-1.4-1.8-2.7-3.6-4.1-5.3C259.4,170.1,259.2,169.8,258.7,169.7z"/>
<path id="XMLID_842_" class="st3" d="M235.5,167.2c0-2.7,0-5.4,0-8.1c0-0.8,0.2-1,1-1c3.8,0,7.7,0,11.5,0c0.8,0,1.1,0.2,1.1,1.1
	c0.1,3.2,0.1,3.2-3.1,3.2c-1.5,0-3,0.1-4.6,0c-1.2-0.1-0.9,0.7-0.9,1.4c0,0.6-0.2,1.4,0.9,1.4c1.8-0.1,3.6,0,5.4,0
	c0.9,0,1.4,0.2,1.3,1.3c0,3,0,3-3,3c-1.2,0-2.5,0-3.7,0c-0.7,0-1.1,0.2-1,0.9c0,0.3,0,0.6,0,1c-0.1,0.8,0.2,1.1,1,1
	c2.1,0,4.2,0.1,6.2,0c1.2-0.1,1.6,0.4,1.4,1.5c-0.1,0.5-0.1,1.1,0,1.7c0.1,0.9-0.2,1.2-1.1,1.2c-3.8-0.1-7.7-0.1-11.5,0
	c-0.9,0-1.1-0.3-1.1-1.2C235.5,172.7,235.5,170,235.5,167.2z"/>
<path id="XMLID_841_" class="st0" d="M164.7,176.5c-1.5,0-3,0-4.6,0c-0.8,0-0.9-0.6-1-1.1c-0.3-1.2-1-1.6-2.2-1.5
	c-1.4,0.1-2.8,0.1-4.2,0c-0.9,0-1.5,0.2-1.7,1.1c-0.2,1.3-1.1,1.7-2.3,1.5c-0.9-0.1-1.8-0.1-2.6,0c-1,0.1-1-0.3-0.7-1.1
	c1.3-2.9,2.5-5.9,3.7-8.8c1.1-2.6,2.2-5.1,3.2-7.7c0.3-0.6,0.6-0.8,1.3-0.8c3.6-0.1,3.7-0.1,5.1,3.2c2,4.9,4,9.7,6.1,14.6
	C164.7,176,164.9,176.2,164.7,176.5z"/>
<path id="XMLID_840_" class="st0" d="M176.9,176.8c-3.8-0.2-7.5-1.5-9.1-5.7c-2.3-6,0.5-12.2,7.7-13.1c2.9-0.3,5.6,0,8.1,1.8
	c1.2,0.9,1.2,0.9,0.1,2c-0.2,0.2-0.3,0.4-0.5,0.5c-1.3,1.6-1.3,1.6-2.9,0.7c-2-1.1-3.9-1.2-5.9-0.1c-1,0.5-1.5,1.4-1.7,2.3
	c-0.8,2.7-0.3,5.2,2.1,6.6c2.1,1.3,5.1,0.7,6.7-1.3c0.4-0.5,0.6-0.7,1.1-0.1c0.4,0.5,1,0.8,1.4,1.3c1.5,1.4,1.5,1.4,0,2.7
	C182,176.1,179.7,176.8,176.9,176.8z"/>
<path id="XMLID_839_" class="st4" d="M161.6,144.7c-1,2.5-2,5-3.1,7.5c-0.4,0.9-0.3,1.1,0.8,1c7.4-0.7,14.8-1.4,22.2-2
	c2.6-0.2,5.2-0.5,7.9-0.7c0.6-0.1,1.1,0.1,1.6,0.5c1.7,1.3,3.8,1.2,5.4-0.1c0.5-0.4,0.9-0.5,1.5-0.4c5.8,0.5,11.7,1.1,17.5,1.6
	c4.5,0.4,9,0.8,13.7,1.3c-2-4.9-4-9.6-6-14.3c-0.1-0.2,0-0.3,0.2-0.2c2.4,5.1,4.8,10.3,7.3,15.6c-3.1-0.2-6.1-0.4-9-0.6
	c-5.7-0.4-11.4-0.7-17.1-1.1c-2.2-0.1-4.5-0.3-6.7-0.5c-0.4,0-0.8-0.1-1.3,0.2c-1.9,1.5-3.9,1.5-5.8,0c-0.5-0.4-1.1-0.2-1.6-0.2
	c-9.3,0.6-18.5,1.2-27.7,1.8c-1.5,0.1-2.9,0.2-4.7,0.3c1.6-3.5,3.2-6.8,4.8-10.1C161.7,144.2,161.7,144.4,161.6,144.7z"/>
<path id="XMLID_838_" class="st5" d="M261.8,106c0.9,4.5,0.5,8.9-0.6,13.3c-2.1,8.1-6,15.2-11.8,21.2c-4.6,4.7-10.1,7.9-16.6,9.4
	c-0.5,0.1-0.8,0-1-0.5c-0.9-2.3-0.9-2.4,1.5-2.7c2.3-0.3,3.7-1.7,5-3.4c0.2,0,0.4,0,0.3,0.3c-0.2,0.3-0.3,0.5-0.5,0.8
	c1.5,0.1,5.7-4.6,7.6-9.2c1.6-3.9,2.2-7.9,1.5-12.1c-0.1-0.2-0.2-0.5,0.2-0.5c1.8,7.8-0.8,14.4-5.6,20.8c1.7-0.8,3-1.7,4.1-2.7
	c10.3-8.6,16-19.5,15.6-33.2c0-0.1,0-0.2,0-0.4C261.6,106.8,261.2,106.3,261.8,106z"/>
<path id="XMLID_837_" class="st6" d="M165.4,150.4c-0.8,0-1.6,0-2.4-0.1c-0.6,0-0.8-0.2-0.6-0.9c1.8-5.4,3.5-10.8,5.2-16.2
	c0.2-0.7,0.5-1,1.3-1c1.6,0.1,3.1-0.5,4.5-1.2c4.4-2.4,9-2.5,13.7-1.5c0.1,0,0.2,0.1,0.3,0.1c0.1,0,0.2,0.1,0.3,0.2
	c-0.4,0.3-0.9,0.1-1.3,0.1c-2.4,0.1-4.7-0.4-7.1,0.2c-2,0.4-3.9,1.2-5.7,2.1c-1.3,0.6-2.6,1.1-4.1,1.3c-0.6,0.1-1,0.4-1.2,1
	c-1.5,4.7-3.2,9.5-4.7,14.2c0,0-0.4,0.4,0.1,0.3c1.6-0.2,3.2,0.1,4.7-0.4c0.9-0.2,1.9-0.4,2.8-0.8c3.7-1.5,7.5-2.8,11.6-3.1
	c2.2-0.2,4.4-0.2,6.6,0.2c1.1,0.2,2.1,0.5,2.9,1.3c0.3,0.3,0.7,0.6,0.7,1.1c-0.4,0.5-0.8,0.2-1.2,0c-0.7-0.3-1.4-0.7-2.2-0.8
	c-3.5-1-6.9-0.2-10.2,0.8c-2.3,0.7-4.5,1.5-6.9,2c-2.2,0.4-4.4,1-6.6,1C165.9,150.5,165.6,150.6,165.4,150.4z"/>
<path id="XMLID_836_" class="st7" d="M205.9,129.5c-2.2-0.2-4.4,0.3-6.6,0.4c3.2-0.8,6.4-1.2,9.7-0.5c2.1,0.4,4,1.6,6,2.4
	c1,0.4,2.1,0.7,3.1,0.6c0.7-0.1,0.9,0.3,1.1,0.9c1.8,5.4,3.5,10.8,5.3,16.2c0.2,0.6,0.1,0.9-0.6,0.9c-0.8,0-1.7,0-2.5,0.1
	c-1.6,0.3-3.1-0.1-4.6-0.4c-3.6-0.5-7-1.8-10.4-2.8c-2.7-0.8-5.5-1.4-8.4-0.8c-0.9,0-1.8,0.4-2.6,0.8c-0.5,0.2-0.9,0.5-1.4,0.1
	c-0.1-0.1-0.1-0.2,0-0.4c0.2-0.4,0.5-0.5,0.8-0.7c0.8-0.5,1.7-0.8,2.6-1c4.4-0.7,8.7-0.2,12.9,1c1.8,0.5,3.6,1.2,5.4,1.9
	c2.3,0.9,4.7,1.3,7.1,1.1c0.6-0.4,0.2-0.8,0.1-1.2c-1.4-4.4-3-8.9-4.4-13.3c-0.2-0.5-0.4-0.9-1-0.9c-1.8-0.1-3.3-0.9-4.9-1.6
	c-1.6-0.7-3.3-1.3-4.9-1.8C207.2,130,206.4,130,205.9,129.5z"/>
<path id="XMLID_835_" class="st8" d="M131.4,103.3c-0.4-1.8-0.7-3.3,0-4.9c0.7-1.5,1-3.2,1.5-4.8c0.3-1.2,0.4-2.5-0.4-3.5
	c-0.3-0.4-0.2-0.6,0.1-0.9c1.1-1,2.1-2.1,3.2-3.1c0.3-0.3,0.7-0.4,1-0.6c1.4-0.5,2.1-0.1,2,1.4c-0.1,2.1-0.7,4.2-2.2,5.8
	c-1,1.2-1.9,2.6-2.3,4.1C133.5,99,132.3,101,131.4,103.3z"/>
<path id="XMLID_834_" class="st8" d="M258.5,98.1c-2.4-1-3.7-2.8-4.2-5.2c-0.6-2.5-0.1-7.2,1.1-9.6c-0.1,2.7,1.1,4.4,2.9,5.9
	c1.4,1.1,1.4,2.9,1.3,4.5c-0.1,1.4-0.3,2.8-0.7,4.1C258.8,98,258.8,98.2,258.5,98.1z"/>
<path id="XMLID_833_" class="st9" d="M262.7,87.9c3.2,3.1,3.3,9,0.3,14.8c-0.4-0.6-0.8-1.1-1.2-1.7c-0.8-1.1-1.1-2.3-0.8-3.5
	C261.7,94.4,262.3,91.2,262.7,87.9z"/>
<path id="XMLID_832_" class="st10" d="M165.4,138.6c-1.2,3.6-2.4,7.1-3.6,10.7c-0.5,1.4-0.5,1.4,1,1.4c0.9,0,1.7-0.1,2.6-0.1
	c2.6-0.4,5.3-0.7,7.9-1.3c3.5-0.8,7.1-1.6,10.6-2.6c2-0.6,4-0.8,6.1-0.3c0.8,0.3,1.6,0.6,2.4,1c0.4,0.3,0.9,0.5,0.8,1.2
	c-2-1.1-4.2-1.7-6.6-1.3c-1.8,0.3-3.5,0.9-5.2,1.3c-6.4,1.5-12.9,2.9-19.5,2.7c-0.5,0-1,0-1.7,0c1.7-4.4,3.3-8.5,4.9-12.7
	C165.2,138.5,165.3,138.5,165.4,138.6z"/>
<path id="XMLID_831_" class="st11" d="M205.9,129.5c0.7,0,1.3,0.2,2,0.4c0,0.3,0.6,0.3,0.4,0.7c-0.2,0.3-0.6,0.2-0.9,0.2
	c-4-0.3-7.8,0.6-11.4,2.2c-1,0.5-1.5,1.1-1.5,2.3c-0.1,2.5-0.3,5.1-0.5,7.6c0,0.2-0.1,0.5-0.2,0.7c-0.8,0.1-0.5-0.6-0.8-1
	c-0.1-2.1-0.4-4.2-0.3-6.3c0.1-1.8-0.6-3-2.4-3.6c-3.3-1.2-6.6-2-10.1-1.9c-0.3,0-0.6,0.1-0.8,0c-0.2,0-0.4,0-0.5-0.3
	c0-0.3,0.2-0.4,0.4-0.5c2.3-0.6,4.5-0.7,6.8,0.1c2.3,0.5,4.6,1.2,6.7,2.4c0.4,0.2,0.8,0.4,1.3,0.1c3.5-1.9,7.3-2.9,11.3-2.9
	C205.6,129.7,205.8,129.8,205.9,129.5z"/>
<path id="XMLID_830_" class="st12" d="M223.2,142.2c1.1,2.7,2.1,5.4,3.2,8.1c0.4,1,0,1-0.8,1c-5.5,0.2-10.8-0.7-16.1-1.8
	c-2.8-0.6-5.6-1.4-8.3-2.1c-2.1-0.5-4.2-0.4-6.2,0.6c-0.4,0.2-0.8,0.6-1.3,0.6c-0.1-0.7,0.4-1,0.9-1.2c1.1-0.6,2.3-1.1,3.6-1.3
	c2.1-0.4,4,0.3,6,0.8c4,1.1,8,2,12.1,2.8c1.7,0.4,3.4,0.3,5.1,0.8c1.2,0,2.3,0,3.5,0.1c0.7,0,0.9-0.1,0.6-0.9
	c-0.8-2.2-1.6-4.5-2.3-6.8c-0.1-0.2-0.1-0.4-0.1-0.6C222.9,142.2,223,142.2,223.2,142.2z"/>
<path id="XMLID_829_" class="st13" d="M268.9,96c1.1,5.7-1.5,9.6-5.4,12.9c-0.7-2.3,0-5,1.8-7.1C266.7,100.1,268,98.3,268.9,96z"/>
<path id="XMLID_828_" class="st6" d="M252.6,95.7c0.8,2.1,1.8,3.2,3.7,3.9c1.6,0.6,2,2.3,2.2,3.8c0.1,0.8,0.3,1.9-0.3,2.2
	c-0.6,0.3-1.5-0.4-2.1-0.9c-1.9-1.3-2.8-3.3-3.3-5.5C252.6,98.2,252.5,97.1,252.6,95.7z"/>
<path id="XMLID_827_" class="st14" d="M263,117.3c0.3-2.4,0.7-4.6,2.5-6.2c1.6-1.5,3.1-3.2,4.5-4.9
	C269.3,110.9,267.1,114.6,263,117.3z"/>
<path id="XMLID_826_" class="st15" d="M240.1,184.5c0.3-0.8,0.6-1.4,0.8-1.9c0.2-0.8,0.8-0.7,1.4-0.7c0.7,0.1,0.4,0.6,0.5,1
	c0.1,1.1,0.1,2.1,0.2,3.2c0,0.4,0.1,0.7-0.5,0.7c-0.5,0-0.9,0-0.8-0.7c0-0.5-0.1-0.9-0.1-1.6c-0.5,0.6-0.6,1.2-0.9,1.7
	c-0.1,0.3-0.1,0.6-0.6,0.6c-0.4,0-0.5-0.3-0.6-0.6c-0.2-0.5-0.5-1.1-0.8-1.8c-0.1,0.7-0.2,1.2-0.2,1.7c0,0.7-0.4,0.6-0.8,0.7
	c-0.6,0-0.6-0.3-0.5-0.7c0.1-1.1,0.2-2.2,0.3-3.3c0-0.4-0.1-0.9,0.5-0.9c0.5,0,1-0.1,1.3,0.6C239.3,183.1,239.7,183.7,240.1,184.5z"
	/>
<path id="XMLID_825_" class="st16" d="M254.3,105.4c0.7,1.4,1.9,2,3.4,2.3c1.7,0.3,2.7,2.6,1.9,4.1c-0.2,0.5-0.6,0.3-0.9,0.2
	C255.7,111.3,254,108.9,254.3,105.4z"/>
<path id="XMLID_824_" class="st17" d="M244.6,117.1c-3.5-1.3-4.3-3.2-3.7-8.7c0.4,1.8,1.4,2.7,2.7,3.4c0.9,0.6,1,1.6,1.1,2.6
	C244.6,115.2,244.6,116.2,244.6,117.1z"/>
<path id="XMLID_823_" class="st18" d="M260.3,126.8c0.1-2.3,1-4.1,2.7-5.5c1.4-1.1,2.6-2.4,3.8-3.8
	C266.3,121.4,263.5,125.3,260.3,126.8z"/>
<path id="XMLID_822_" class="st19" d="M192.7,192.3c0,0.8,0,1.3,0,1.8c0,0.6-0.2,0.7-0.7,0.8c-0.6,0-0.7-0.3-0.7-0.8
	c0-1.1,0-2.2,0-3.4c0-0.3-0.2-0.7,0.3-0.8c0.3-0.1,0.6,0,0.9,0.3c0.8,0.7,1.5,1.4,2.5,2.3c0-0.7,0-1.3,0-1.8c0-0.4,0-0.8,0.6-0.8
	c0.6,0,0.8,0.2,0.8,0.8c0,1.1,0,2.2,0,3.4c0,0.3,0.2,0.7-0.3,0.8c-0.4,0.1-0.7-0.1-0.9-0.4C194.3,193.7,193.6,193,192.7,192.3z"/>
<path id="XMLID_821_" class="st19" d="M153.1,184.5c0-0.8,0-1.3,0-1.9c0-0.5,0.1-0.7,0.7-0.7c0.5,0,0.7,0.1,0.7,0.7
	c0,1.2,0,2.4,0,3.6c0,0.2,0.1,0.5-0.2,0.6c-0.3,0.1-0.6,0.1-0.9-0.2c-0.7-0.7-1.5-1.4-2.4-2.2c-0.2,0.6-0.1,1.1-0.1,1.7
	c0,0.5-0.1,0.8-0.7,0.8c-0.6,0-0.7-0.2-0.7-0.8c0-1.1,0-2.2,0-3.4c0-0.3-0.2-0.7,0.2-0.8c0.3-0.1,0.6,0,0.9,0.3
	C151.4,182.9,152.2,183.6,153.1,184.5z"/>
<path id="XMLID_820_" class="st20" d="M205.9,192.4c0-0.7,0-1.3,0-1.8c0-0.5,0-0.7,0.6-0.7c0.6,0,0.7,0.2,0.7,0.8c0,1.1,0,2.2,0,3.4
	c0,0.3,0.2,0.7-0.3,0.8c-0.3,0.1-0.6-0.1-0.9-0.3c-0.8-0.7-1.4-1.5-2.4-2.1c0,0.6,0,1.1,0,1.6c0,0.5,0,0.8-0.7,0.8
	c-0.6,0-0.7-0.3-0.7-0.8c0-1.1,0-2.2,0-3.2c0-0.3-0.2-0.7,0.2-0.9c0.4-0.2,0.7,0.1,1.1,0.4C204.3,190.9,205.1,191.6,205.9,192.4z"/>
<path id="XMLID_819_" class="st14" d="M257.3,117.6c-2.1,0-3.5-1.1-3.9-3c-0.1-0.5-0.1-0.9,0.6-0.7c1.2,0.3,2.4,0.3,3.7,0.2
	c1.1,0,2.3,1.7,1.8,2.7C259,117.7,258,117.5,257.3,117.6z"/>
<path id="XMLID_818_" class="st21" d="M251.2,186.8c-1.2,0.3-1.4-0.3-1.3-1.5c0.1-0.9,0-1.8,0-2.8c0-0.3,0-0.7,0.4-0.7
	c1,0,1.9-0.2,2.8,0.2c0.9,0.4,1.4,1.2,1.4,2.2c0,1-0.4,1.8-1.4,2.3C252.5,186.9,251.9,186.8,251.2,186.8z"/>
<path id="XMLID_817_" class="st13" d="M224.4,192.4c0-0.8,0-1.4,0-1.9c0-0.5,0.2-0.7,0.7-0.7c0.6,0,0.6,0.3,0.6,0.8
	c0,1.2,0,2.3,0,3.5c0,0.2,0.2,0.6-0.2,0.7c-0.3,0.1-0.5,0-0.8-0.2c-0.8-0.7-1.6-1.4-2.6-2.4c0,0.8,0,1.3,0,1.8
	c0,0.4,0.1,0.8-0.6,0.8c-0.6,0-0.7-0.2-0.7-0.8c0-1.1,0-2.2,0-3.4c0-0.3-0.2-0.7,0.2-0.8c0.3-0.1,0.6,0.1,0.9,0.3
	C222.7,190.9,223.4,191.6,224.4,192.4z"/>
<path id="XMLID_816_" class="st22" d="M228.2,184.2c0-0.4,0-0.8,0-1.2c0-0.4-0.3-1.1,0.6-1.1c0.9,0,0.7,0.6,0.7,1c0,1,0,1.9,0,2.9
	c0,0.3,0.2,0.8-0.2,1c-0.5,0.2-0.8-0.2-1.1-0.5c-0.7-0.6-1.4-1.3-2.3-2.1c0,0.8,0,1.3,0,1.8c0,0.4,0.1,0.8-0.6,0.8
	c-0.7,0-0.7-0.3-0.7-0.8c0-1.1,0-2.2,0-3.3c0-0.3-0.1-0.6,0.2-0.8c0.4-0.2,0.7,0,1,0.3c0.5,0.5,1.1,1,1.7,1.5
	C227.7,184,227.8,184.3,228.2,184.2z"/>
<path id="XMLID_815_" class="st23" d="M218.7,20.7c-1-0.3-1.9-0.6-2.7-0.9c-1.5-0.6-2.1-2.1-1.5-3.5c0.7-1.5,2.2-2,3.7-1.2
	c1.4,0.7,1.9,2.2,1.1,3.6C219,19.3,218,19.7,218.7,20.7z"/>
<path id="XMLID_814_" class="st13" d="M189.1,184.5c0-0.8,0-1.4,0-1.9c0-0.5,0.1-0.7,0.6-0.7c0.6,0,0.7,0.3,0.7,0.7
	c0,1.2,0,2.3,0,3.5c0,0.2,0.2,0.6-0.2,0.7c-0.3,0.1-0.6,0-0.9-0.2c-0.8-0.7-1.5-1.4-2.5-2.3c0,0.8,0,1.3,0,1.9
	c0,0.5-0.1,0.7-0.6,0.7c-0.6,0-0.7-0.2-0.7-0.8c0-1.1,0-2.2,0-3.2c0-0.3-0.2-0.8,0.3-0.9c0.4-0.2,0.7,0.1,1,0.4
	C187.5,183,188.2,183.7,189.1,184.5z"/>
<path id="XMLID_813_" class="st24" d="M166.8,22.8c-1.1,0.7-2,1.3-2.9,1.7c-1.5,0.7-2.9,0-3.5-1.5c-0.5-1.4,0.3-2.9,1.9-3.5
	c1.4-0.5,2.9,0.3,3.3,1.7C165.8,22,165.7,22.8,166.8,22.8z"/>
<path id="XMLID_812_" class="st13" d="M127.4,184.5c0-0.8,0-1.4,0-1.9c0-0.5,0.2-0.7,0.7-0.7c0.5,0,0.6,0.2,0.6,0.7
	c0,1.2,0,2.3,0,3.5c0,0.3,0.2,0.7-0.2,0.8c-0.3,0.1-0.6,0-0.9-0.3c-0.7-0.7-1.5-1.4-2.5-2.3c0,0.7,0,1.2,0,1.7
	c0,0.5,0.1,0.9-0.7,0.9c-0.7,0-0.6-0.4-0.6-0.8c0-1.1,0-2.2,0-3.4c0-0.3-0.1-0.6,0.2-0.7c0.3-0.1,0.6,0,0.9,0.3
	C125.7,182.9,126.4,183.6,127.4,184.5z"/>
<path id="XMLID_811_" class="st25" d="M221.6,186.8c-1.1,0.3-1.7,0-2.1-0.9c-0.1-0.3-0.2-0.7-0.6-0.6c-0.5,0.1-0.2,0.5-0.2,0.8
	c0,0.6-0.1,0.9-0.8,0.9c-0.8,0-0.7-0.4-0.7-0.9c0-1.1,0-2.2,0-3.2c0-0.3-0.1-0.6,0.2-0.8c0.4-0.3,3,0,3.4,0.4
	c0.7,0.8,0.7,1.6,0.1,2.4c-0.3,0.3-0.1,0.5,0.1,0.7C221.1,185.8,221.3,186.3,221.6,186.8z"/>
<path id="XMLID_810_" class="st26" d="M187.5,194.8c-1.7,0-2.7-1-2.7-2.5c0-1.5,1.1-2.5,2.6-2.5c1.6,0,2.7,1,2.7,2.5
	C190.1,193.8,189.1,194.8,187.5,194.8z"/>
<path id="XMLID_809_" class="st24" d="M187.2,12.6c0.2-0.4-0.4-1.1,0.3-1.5c0.7-0.4,2.8-0.3,3.2,0.2c0.2,0.2,0.4,0.6,0.4,0.7
	c-0.8,1.1,1,1.9,0.3,3.1c-0.4,0.7-1,0.8-1.7,0.9c-2.1,0.2-2.1,0.2-2.3-1.8C187.3,13.7,187.2,13.2,187.2,12.6z"/>
<path id="XMLID_808_" class="st27" d="M233.4,186.9c-1.7,0-2.7-1-2.7-2.5c0-1.5,1-2.5,2.6-2.5c1.6,0,2.7,1.1,2.7,2.5
	C236,185.9,235,186.9,233.4,186.9z"/>
<path id="XMLID_807_" class="st28" d="M175.8,186.9c-1.7,0-2.7-1-2.7-2.6c0-1.5,1.1-2.5,2.7-2.5c1.5,0,2.7,1.1,2.7,2.6
	C178.5,185.9,177.4,186.9,175.8,186.9z"/>
<path id="XMLID_806_" class="st11" d="M145.7,186.9c-1.6,0-2.7-1-2.6-2.6c0-1.5,1.1-2.5,2.7-2.5c1.5,0,2.6,1,2.6,2.5
	C148.4,185.9,147.4,186.9,145.7,186.9z"/>
<path id="XMLID_805_" class="st24" d="M136.2,50.2c-0.8-0.5-1.3-0.8-1.9-1.1c-0.3-0.2-0.7-0.4-0.4-0.9c0.3-0.5,0.6-0.4,0.9-0.2
	c1,0.6,2.1,1.2,3.1,1.9c0.2,0.1,0.6,0.2,0.5,0.5c-0.1,0.4-0.4,0.5-0.7,0.6c-1.1,0.3-2.3,0.6-3.6,0.9c0.8,0.5,1.4,0.9,2,1.3
	c0.4,0.2,0.5,0.4,0.2,0.8c-0.3,0.4-0.5,0.4-0.8,0.2c-1.1-0.7-2.3-1.3-3.4-2c-0.2-0.1-0.4-0.2-0.3-0.4c0.1-0.4,0.4-0.5,0.7-0.6
	C133.6,50.8,134.8,50.5,136.2,50.2z"/>
<path id="XMLID_804_" class="st11" d="M213.4,186.9c-1.7,0-2.7-0.9-2.7-2.5c0-1.5,1-2.5,2.6-2.5c1.6,0,2.7,1,2.7,2.5
	C216,185.9,215,186.9,213.4,186.9z"/>
<path id="XMLID_803_" class="st24" d="M267.3,83.6c-0.9,0.1-1.6,0.2-2.3,0.4c-0.5,0.1-0.7,0-0.7-0.5c-0.1-0.5,0.1-0.6,0.5-0.7
	c1.2-0.2,2.4-0.4,3.5-0.6c0.3,0,0.6-0.3,0.8,0.2c0.1,0.3,0,0.6-0.2,0.9c-0.7,0.9-1.3,1.9-2.1,3c0.9-0.2,1.6-0.3,2.3-0.5
	c0.5-0.1,0.7,0,0.8,0.5c0.1,0.5-0.1,0.6-0.5,0.7c-1.2,0.2-2.3,0.5-3.5,0.7c-0.3,0-0.7,0.2-0.9-0.1c-0.2-0.4,0-0.7,0.2-1
	C265.9,85.7,266.5,84.7,267.3,83.6z"/>
<path id="XMLID_802_" class="st24" d="M145,40.6c-0.2,1.2-1.2,1.9-1.8,2.8c-0.2,0.3-0.4,0-0.6-0.2c-1-0.8-2-1.6-3-2.4
	c-0.4-0.3-0.4-0.6-0.1-0.9c0.4-0.5,0.7-1,1.2-1.5c0.7-0.7,1.7-0.6,2.1,0.3c0.2,0.5,0.5,0.5,0.9,0.5C144.5,39.3,144.9,39.8,145,40.6z
	"/>
<path id="XMLID_801_" class="st24" d="M208,12.1c1.2,0.1,1.7,0.5,1.7,1.8c0,0.4,0.1,0.6,0.5,0.7c0.5,0.1,0.3,0.4,0.3,0.6
	c-0.1,0.4-0.3,0.3-0.5,0.2c-0.4-0.2-0.6,0-0.6,0.4c0,0.4-0.2,0.8,0.3,0.9c0.5,0.1,0.5,0.3,0.4,0.7c-0.1,0.4-0.6,0.4-0.8,0.3
	c-0.8-0.5-1.8-0.4-2.6-0.7c-1.1-0.3-1.4-1.7-0.5-2.5c0.2-0.2,0.6-0.2,0.4-0.8C206.2,12.6,206.8,12,208,12.1z"/>
<path id="XMLID_800_" class="st16" d="M156,194.8c-1,0.3-1.4-0.2-1.2-1.4c0.1-0.9,0-1.8,0-2.7c0-0.3-0.1-0.7,0.2-0.7
	c1.1-0.2,2.1-0.3,3.2,0.2c0.8,0.4,1.2,1.1,1.3,2C159.4,193.9,158.4,194.8,156,194.8z"/>
<path id="XMLID_799_" class="st23" d="M263,78.1c0-1.6,1-2.6,2.6-2.6c1.5,0,2.6,1.2,2.6,2.8c0,1.4-1.2,2.6-2.7,2.6
	C264.2,80.9,263,79.7,263,78.1z"/>
<path id="XMLID_798_" class="st29" d="M215.9,192.4c0-2.6,0-2.6,2.7-2.5c0.4,0,1-0.2,1,0.6c0,0.8-0.6,0.4-1,0.5c-0.2,0-0.4,0-0.6,0
	c-0.3,0-0.7-0.2-0.7,0.4c0,0.5,0.5,0.3,0.7,0.3c0.2,0,0.5,0,0.7,0c0.4,0,0.5,0.2,0.5,0.6c0,0.4-0.1,0.6-0.5,0.6c-0.3,0-0.6,0-1,0
	c-0.2,0-0.5,0-0.5,0.3c0,0.5,0.3,0.4,0.6,0.4c0.4,0,0.8,0,1.2,0c0.5,0,0.6,0.2,0.6,0.7c0,0.4-0.2,0.5-0.6,0.5c-0.2,0-0.5,0-0.7,0
	C215.9,194.8,215.9,194.8,215.9,192.4z"/>
<path id="XMLID_797_" class="st24" d="M254.7,47c0,1.3-0.8,1.9-1.8,2.3c-0.9,0.4-1.8,0.2-2.5-0.6c-0.5-0.6-1.3-1.3-1.4-2
	c-0.1-0.8,1.1-0.8,1.7-1.4c0.1-0.1,0.3-0.3,0.5-0.3c0.7-0.3,1.4-1.4,2-0.9C254,44.8,254.7,45.8,254.7,47z"/>
<path id="XMLID_796_" class="st30" d="M149.8,192.3c0-2.4,0-2.4,2.4-2.4c0.3,0,0.6,0,0.8,0c0.4,0,0.4,0.3,0.4,0.6
	c0,0.3-0.1,0.6-0.4,0.5c-0.1,0-0.2,0-0.4,0c-0.5,0.1-1.4-0.3-1.4,0.3c0,0.7,0.9,0.3,1.3,0.4c0.5,0,0.6,0.3,0.6,0.7
	c0,0.5-0.2,0.5-0.6,0.5c-0.5,0.1-1.4-0.4-1.3,0.4c0,0.7,0.9,0.2,1.4,0.3c0.5,0.1,0.9,0,0.8,0.7c0,0.7-0.5,0.5-0.8,0.5
	c-0.1,0-0.2,0-0.4,0C149.8,194.8,149.8,194.8,149.8,192.3z"/>
<path id="XMLID_795_" class="st31" d="M165,191.7c0,2.3-0.7,3.1-2.5,3c-1.2-0.1-2-0.8-2-1.9c-0.1-0.8,0-1.6,0-2.4
	c0-0.6,0.3-0.7,0.7-0.7c0.5,0,0.6,0.2,0.6,0.6c0,0.7,0,1.4,0,2.2c0,0.6,0.3,1,0.9,1c0.7,0,0.9-0.5,0.9-1c0-0.6,0-1.3,0-1.9
	c0-0.6,0.1-0.9,0.8-0.9c0.7,0,0.6,0.4,0.6,0.9C164.9,191,165,191.4,165,191.7z"/>
<path id="XMLID_794_" class="st32" d="M247.4,119.3c-1.2-1-1.8-2.2-1.6-3.8c0.2-1.5,0-3.1,0-4.8
	C248.5,112.5,248.7,116.6,247.4,119.3z"/>
<path id="XMLID_793_" class="st26" d="M243.8,186.7c0.6-1.4,1.2-2.8,1.7-4.2c0.2-0.4,0.4-0.6,0.9-0.6c0.4,0,0.7,0.1,0.8,0.5
	c0.6,1.4,1.3,2.8,1.8,4.8c-1.8-1.3-3.5-1.2-5.1-0.1C243.9,186.9,243.8,186.8,243.8,186.7z"/>
<path id="XMLID_792_" class="st26" d="M160.6,186.8c-0.8,0-1.2,0.1-1.7-0.5c-0.4-0.4-1.4-0.6-2,0.2c-0.4,0.5-0.9,0.4-1.3,0.3
	c-0.5-0.2,0-0.7,0.1-1c0.5-1.1,1-2.2,1.4-3.3c0.2-0.4,0.4-0.6,0.9-0.6c0.5,0,0.7,0.2,0.9,0.6C159.5,183.9,160,185.3,160.6,186.8z"/>
<path id="XMLID_791_" class="st28" d="M134.8,187.1c-1.7-1.3-3.4-1.2-5.1,0c0-0.1-0.1-0.3-0.1-0.4c0.6-1.5,1.2-2.9,1.9-4.4
	c0.3-0.7,1.3-0.7,1.6,0c0.6,1.4,1.2,2.9,1.8,4.4C134.8,186.9,134.8,187,134.8,187.1z"/>
<path id="XMLID_790_" class="st20" d="M179.6,183.7c0-0.3,0-0.6,0-1c0-0.5,0-0.8,0.7-0.8c0.7,0,0.8,0.3,0.8,0.9c0,0.6,0,1.3,0,1.9
	c0,0.6,0.2,1,0.9,1c0.7,0,0.9-0.4,0.9-1c0-0.7,0-1.4,0-2c0-0.6,0.2-0.8,0.8-0.8c0.7,0,0.6,0.4,0.6,0.8c0,0.6,0,1.3,0,1.9
	c0,1.5-0.8,2.2-2.2,2.3c-1.5,0-2.3-0.8-2.4-2.2C179.5,184.3,179.6,184,179.6,183.7z"/>
<path id="XMLID_789_" class="st26" d="M231.9,194.6c0.6-1.4,1.1-2.8,1.7-4.2c0.1-0.4,0.3-0.6,0.8-0.6c0.4,0,0.7,0,0.9,0.4
	c0.6,1.5,1.2,2.9,1.8,4.3c-1.2,0.8-1.6-0.5-2.6-0.6C233.4,193.9,233,195.4,231.9,194.6z"/>
<path id="XMLID_788_" class="st33" d="M176.6,194.7c-0.7,0-1.2,0.2-1.7-0.5c-0.3-0.4-1.4-0.5-1.8,0c-0.5,0.7-1.1,0.4-1.8,0.5
	c0.7-1.5,1.3-3,1.9-4.5c0.2-0.4,0.5-0.4,0.8-0.5c0.4,0,0.6,0.2,0.8,0.5C175.4,191.8,176,193.2,176.6,194.7z"/>
<path id="XMLID_787_" class="st34" d="M215.1,194.6c-1.9,0.8-2.2-0.8-3.2-1.7c0,0.6,0,1,0,1.3c0.1,0.6-0.3,0.5-0.7,0.5
	c-0.4,0-0.7,0-0.7-0.6c0-1.2,0-2.4,0-3.6c0-0.5,0.1-0.8,0.7-0.8c0.6,0,0.6,0.3,0.6,0.7c0,0.2,0,0.5,0,0.9c1-0.6,1.3-2.2,2.8-1.5
	c0,0,0,0.1,0,0.2C212.8,191.7,213.1,193.2,215.1,194.6z"/>
<path id="XMLID_786_" class="st24" d="M257.8,62.3c1.6,0,3.2,0,4.7,0c0.5,0,0.8,0.2,1,0.7c0.2,0.5,0,0.7-0.3,0.9
	c-1,0.9-1.9,1.9-2.9,2.8c-0.2,0.2-0.4,0.6-0.6,0.3c-0.2-0.3-0.5-0.6-0.2-1.1c0.5-1.1,0.2-1.9-1-2.5
	C257.9,63.3,257.9,62.8,257.8,62.3z"/>
<path id="XMLID_785_" class="st35" d="M171.4,19.4c0,1.4-0.9,1.9-2,2.2c-1,0.3-1.7,0-2.2-0.9c-0.4-0.8-0.8-1.6-1.2-2.4
	c-0.2-0.5-0.2-0.7,0.3-0.9c0.5-0.2,0.6,0,0.8,0.4c0.3,0.7,0.6,1.4,0.9,2.1c0.3,0.7,0.9,0.9,1.6,0.6c0.7-0.3,0.7-0.9,0.4-1.5
	c-0.3-0.7-0.6-1.5-1-2.2c-0.2-0.4,0-0.6,0.3-0.7c0.3-0.1,0.5-0.2,0.7,0.1C170.6,17.3,171.4,18.2,171.4,19.4z"/>
<path id="XMLID_784_" class="st35" d="M200.4,11.9c-0.4,0.1-0.9-0.2-0.9,0.5c0,0.7,0.5,0.5,0.8,0.5c0.3,0.1,0.6,0.1,0.8,0.1
	c0.3,0,0.5,0.2,0.4,0.5c-0.1,0.3-0.2,0.5-0.5,0.5c-0.3,0-0.6-0.1-0.9-0.1c-0.4-0.1-0.8-0.1-0.8,0.5c0,0.5,0.3,0.6,0.7,0.6
	c0.4,0,0.8,0,1.2,0.1c0.4,0,0.6,0.2,0.5,0.6c0,0.5-0.3,0.5-0.7,0.4c-0.1,0-0.2,0-0.2,0c-0.9-0.2-2.1,0.3-2.6-0.4
	c-0.5-0.6,0-1.7,0.1-2.6c0.2-2.3,0.2-2.3,2.4-2.2c0.2,0,0.5,0,0.7,0.1c0.4,0,0.7,0.1,0.6,0.7c-0.1,0.5-0.3,0.4-0.7,0.4
	C200.9,12,200.6,11.9,200.4,11.9z"/>
<path id="XMLID_783_" class="st24" d="M142.1,44.9c-0.3,0.3-0.3,0.7-0.8,0.8c-1.3,0.2-1.8,0.9-1.6,2.2c0.1,0.5-0.1,0.8-0.5,1
	c-0.3,0.2-0.4-0.3-0.5-0.5c-0.7-1.1-1.4-2.3-2.2-3.4c-0.2-0.3-0.3-0.6,0-1c0.2-0.2,0.4-0.5,0.8-0.4c1.4,0.3,2.8,0.6,4.2,0.9
	C141.8,44.6,142,44.6,142.1,44.9z"/>
<path id="XMLID_782_" class="st24" d="M131.7,63.1c-1.1-1.2-2.1-2.3-3.1-3.4c-0.3-0.3-0.5-0.6-0.3-1c0.2-0.5,0.5-0.5,1-0.5
	c1.3,0.1,2.6,0.1,3.9,0.1c0.2,0,0.7-0.2,0.7,0.4c0,0.3-0.1,0.7-0.5,0.8c-1.2,0.4-1.6,1.3-1.2,2.4C132.2,62.2,132.2,62.2,131.7,63.1z
	"/>
<path id="XMLID_781_" class="st24" d="M223.1,22.7c-1.9,0-2.9-1.6-2.2-3.3c0.3-0.7,0.7-1.3,1-2c0.2-0.4,0.4-0.5,0.8-0.3
	c0.4,0.2,0.4,0.5,0.2,0.8c-0.4,0.7-0.7,1.4-1.1,2.1c-0.3,0.6-0.2,1.2,0.5,1.5c0.7,0.4,1.2,0.1,1.5-0.5c0.4-0.7,0.7-1.3,1-2
	c0.2-0.4,0.3-0.7,0.8-0.4c0.4,0.2,0.6,0.4,0.3,0.9c-0.4,0.8-0.8,1.6-1.2,2.3C224.4,22.5,223.8,22.7,223.1,22.7z"/>
<path id="XMLID_780_" class="st35" d="M127.4,75.7c0,1.9-1.2,2.8-2.9,2.5c-0.7-0.2-1.4-0.4-2.1-0.5c-0.5-0.1-0.7-0.4-0.5-0.9
	c0.1-0.6,0.5-0.4,0.8-0.3c0.7,0.2,1.5,0.4,2.2,0.6c0.7,0.2,1.2-0.1,1.4-0.7c0.2-0.7-0.1-1.2-0.8-1.4c-0.8-0.2-1.5-0.4-2.3-0.7
	c-0.4-0.1-0.6-0.2-0.4-0.7c0.2-0.5,0.4-0.5,0.8-0.4c0.8,0.3,1.7,0.5,2.5,0.7C127,74.2,127.4,74.9,127.4,75.7z"/>
<path id="XMLID_779_" class="st24" d="M186.3,16.3c-0.7,0.1-1.1,0.3-1.6-0.2c-0.4-0.5-2-0.1-2.3,0.6c-0.2,0.5-0.6,0.6-0.9,0.5
	c-0.6-0.1-0.2-0.6-0.2-0.9c0.2-1.3,0.5-2.5,0.8-3.8c0.1-0.4,0.2-0.7,0.7-0.7c0.4,0,0.7,0.1,0.9,0.4
	C184.4,13.6,185.3,14.9,186.3,16.3z"/>
<path id="XMLID_778_" class="st24" d="M229.5,26.8c-1.4-0.2-0.8-1.6-1.8-2.2c-0.9-0.5-2,0.6-2.6-0.7c1.3-0.9,2.7-1.9,4.1-2.8
	c0.6-0.4,1.3,0.2,1.2,0.9C230.1,23.6,229.8,25.1,229.5,26.8z"/>
<path id="XMLID_777_" class="st24" d="M157.2,25.4c0.3-0.2,0.7-0.5,1.1-0.8c0.3-0.2,0.6-0.5,0.9,0c0.4,0.5,0,0.6-0.3,0.8
	c-0.2,0.2-0.4,0.3-0.7,0.5c-0.3,0.2-0.5,0.4-0.2,0.8c0.3,0.4,0.6,0.2,0.9,0c0.4-0.3,0.7-0.5,1.1-0.8c0.3-0.3,0.5-0.1,0.7,0.2
	c0.3,0.3,0.2,0.5-0.1,0.6c0,0-0.1,0-0.1,0.1c-2.3,1.9-2.3,1.9-4.1-0.4c-1.4-1.9-1.4-1.9,0.4-3.1c0.4-0.3,0.9-1.3,1.4-0.5
	c0.6,0.8-0.7,0.8-0.9,1.3c-0.1,0.3-0.8,0.2-0.5,0.7C156.8,25.1,156.9,25.3,157.2,25.4z"/>
<path id="XMLID_776_" class="st24" d="M255.2,55.1c-1.2-0.2-1.9-0.9-2.2-1.9c-0.3-1-0.1-1.8,0.8-2.4c0.7-0.5,1.5-0.8,2.3-1.3
	c0.4-0.2,0.5-0.1,0.7,0.2c0.2,0.3,0.3,0.6-0.1,0.8c-0.7,0.4-1.4,0.8-2.1,1.2c-0.6,0.4-1,0.8-0.5,1.6c0.4,0.7,1,0.7,1.6,0.3
	c0.7-0.4,1.4-0.8,2.1-1.2c0.3-0.2,0.5-0.2,0.7,0.2c0.1,0.3,0.5,0.6,0,0.8C257.4,54,256.4,54.8,255.2,55.1z"/>
<path id="XMLID_775_" class="st24" d="M247.9,42.1c-0.3,0.2-1,0.3-0.4,0.9c0.3,0.4,0.6,0.8,0.9,1.1c0.2,0.2,0.3,0.4,0,0.7
	c-0.3,0.2-0.5,0.3-0.8-0.1c-0.5-0.7-1-1.4-1.6-2.1c-0.3-0.3-0.2-0.5,0.1-0.8c1.1-0.8,2.1-1.6,3.1-2.4c0.3-0.2,0.5-0.3,0.8,0.1
	c0.5,0.7,1,1.4,1.6,2.1c0.2,0.3,0.1,0.5-0.1,0.7c-0.3,0.2-0.5,0.2-0.7-0.1c-0.3-0.4-0.5-0.7-0.8-1.1c-0.2-0.4-0.5-0.5-0.9-0.2
	c-0.4,0.3-0.2,0.5,0,0.8c0,0,0.1,0.1,0.1,0.1c0.1,0.5,1.3,0.7,0.5,1.4c-0.8,0.7-0.8-0.5-1.2-0.8C248.3,42.4,248.3,42.1,247.9,42.1z"
	/>
<path id="XMLID_774_" class="st20" d="M168.7,194.8c-1.2,0-2-0.5-2.5-1.5c-0.4-1-0.3-1.9,0.5-2.7c0.8-0.8,2.2-1.1,3.2-0.6
	c0.3,0.1,0.9,0.2,0.6,0.8c-0.2,0.3-0.5,0.6-1.1,0.3c-1.1-0.5-1.9,0-2,1c-0.1,1.2,1,2,2,1.3c0.6-0.4,1.1-0.4,1.3,0.2
	c0.2,0.6-0.5,0.7-0.8,0.9C169.5,194.8,169.1,194.8,168.7,194.8z"/>
<path id="XMLID_773_" class="st11" d="M170.6,186.9c-1.5,0-2.4-0.5-2.9-1.7c-0.4-1-0.2-2,0.6-2.7c0.9-0.8,2.3-0.9,3.2-0.3
	c0.2,0.1,0.7,0.2,0.5,0.6c-0.2,0.3-0.4,0.6-1,0.4c-1.3-0.4-1.9-0.1-2.1,0.9c-0.1,0.6,0,1.1,0.5,1.4c0.5,0.4,1.2,0.4,1.7,0
	c0.5-0.5,0.8-0.1,1,0.2c0.4,0.5-0.1,0.6-0.4,0.8C171.4,186.8,170.8,186.9,170.6,186.9z"/>
<path id="XMLID_772_" class="st24" d="M149,29.7c0.2,0.3,0.8,0.4,0.3,0.9c-0.3,0.3-0.6,0.6-0.9,0.9c-0.2,0.2-0.6,0.3-0.2,0.7
	c0.3,0.4,0.7,0.4,1,0c0.2-0.2,0.5-0.5,0.7-0.7c0.3-0.3,0.5-0.2,0.8,0c0.3,0.3,0.2,0.5-0.1,0.7c-0.3,0.2-0.5,0.5-0.8,0.7
	c-0.4,0.3-0.3,0.6,0,0.9c0.3,0.3,0.5,0.2,0.8-0.1c0.3-0.3,0.7-0.7,1-1c0.2-0.3,0.4-0.3,0.7,0c0.2,0.2,0.4,0.4,0.1,0.7
	c-0.7,0.7-1.4,1.3-2.1,2c-0.3,0.3-0.4,0.1-0.6-0.1c-0.9-1-1.8-1.9-2.7-2.8c-0.2-0.2-0.4-0.4-0.1-0.7c0.7-0.7,1.4-1.3,2.1-2
	C148.8,29.8,148.9,29.7,149,29.7z"/>
<path id="XMLID_771_" class="st36" d="M260.9,186.9c-1.2,0-2.1-0.4-2.5-1.6c-0.3-1.1-0.2-2.1,0.7-2.8c0.9-0.7,2.4-0.8,3.3-0.2
	c0.2,0.1,0.6,0.2,0.3,0.6c-0.2,0.3-0.4,0.6-1,0.4c-1.3-0.5-1.9-0.2-2.1,0.7c-0.1,0.5-0.1,1,0.4,1.4c0.5,0.4,1.1,0.5,1.6,0.1
	c0.5-0.4,0.9-0.5,1.2,0.1c0.3,0.6-0.4,0.7-0.8,1C261.7,186.9,261.3,186.9,260.9,186.9z"/>
<path id="XMLID_770_" class="st37" d="M194.4,186.9c-1.4,0-2.4-0.6-2.7-1.7c-0.3-1-0.1-2,0.7-2.7c0.9-0.7,2.3-0.8,3.3-0.3
	c0.2,0.1,0.6,0.2,0.4,0.6c-0.2,0.3-0.4,0.7-0.9,0.4c-0.7-0.3-1.4-0.5-1.9,0.3c-0.4,0.6-0.4,1.3,0.2,1.9c0.5,0.5,1.2,0.5,1.7,0.1
	c0.5-0.5,0.8-0.2,1,0.2c0.5,0.5-0.1,0.7-0.4,0.9C195.3,186.8,194.8,186.9,194.4,186.9z"/>
<path id="XMLID_769_" class="st35" d="M123.9,70.1c0.1-0.7,0.3-1.4,0.9-1.9c0.2-0.2,0.4-0.4,0.7-0.1c0.2,0.2,0.4,0.4,0.1,0.7
	c-0.4,0.4-1,1.1-0.4,1.5c0.6,0.4,0.8-0.6,1.2-1c0.5-0.6,1.1-1,1.9-0.7c0.7,0.3,1,0.9,0.9,1.6c-0.1,0.9-0.4,1.6-1.2,2.1
	c-0.2,0.1-0.4,0-0.5-0.2c-0.2-0.2-0.2-0.3,0-0.5c0.3-0.3,0.5-0.7,0.6-1.1c0.1-0.3,0.1-0.5-0.2-0.6c-0.3-0.2-0.5,0-0.6,0.2
	c-0.3,0.3-0.5,0.7-0.8,1.1c-0.4,0.6-1,0.8-1.7,0.5C124.1,71.3,123.9,70.8,123.9,70.1z"/>
<path id="XMLID_768_" class="st35" d="M126,81.7c-0.1,0.6-0.2,1.3-0.6,1.8c-0.2,0.3-0.5,0.4-0.8,0.1c-0.3-0.2-0.2-0.4,0-0.7
	c0.3-0.5,0.9-1.2,0.2-1.6c-0.7-0.4-0.8,0.6-1.1,1.1c-0.4,0.6-0.9,1.2-1.7,1c-0.7-0.2-1.1-0.8-1.2-1.5c0-0.8,0.1-1.6,0.9-2.1
	c0.3-0.2,0.6,0.1,0.7,0.5c0,0.1-0.1,0.2-0.2,0.3c-0.2,0.5-0.6,1.1-0.1,1.4c0.6,0.4,0.7-0.5,1-0.8c0.4-0.6,0.7-1.2,1.5-1.2
	C125.4,79.8,126,80.6,126,81.7z"/>
<path id="XMLID_767_" class="st38" d="M258.6,55.8c1.5,0,2.7,1.4,2.7,2.9c0,0.3,0.1,0.8-0.5,0.7c-0.4-0.1-0.5-0.3-0.5-0.7
	c0-1.4-1.1-2.1-2.2-1.6c-0.5,0.2-1,0.6-1,1.2c-0.1,0.7,0.2,1.3,0.8,1.6c0.6,0.2,0.6,0.6,0.4,1c-0.3,0.5-0.7,0.1-0.9-0.1
	c-1-0.6-1.6-2.1-1.2-3.2C256.4,56.4,257.4,55.8,258.6,55.8z"/>
<path id="XMLID_766_" class="st10" d="M248.3,123.1c-1.3-3.2,1.6-5.1,2.2-7.8C251.5,117.3,251.4,120,248.3,123.1z"/>
<path id="XMLID_765_" class="st39" d="M206.4,184.3c0-2.5,0-2.5,2.5-2.4c0.4,0,0.9-0.1,0.9,0.6c0,0.8-0.6,0.4-0.9,0.5
	c-0.1,0-0.2,0-0.2,0c-0.3,0.1-0.9-0.3-0.9,0.5c0,0.6,0.5,0.4,0.8,0.4c0.1,0,0.2,0,0.2,0c0.4,0,0.7,0.1,0.7,0.6
	c0,0.5-0.3,0.5-0.6,0.5c-0.8-0.1-1.2,0.1-1.1,1c0.1,0.6-0.1,0.9-0.7,0.8c-0.7,0-0.6-0.4-0.6-0.9
	C206.4,185.5,206.4,184.9,206.4,184.3z"/>
<path id="XMLID_764_" class="st40" d="M254.3,119.1c1,0.6,1.9,1,2.9,1.4c0.8,0.4,1.3,2,0.9,2.8c-0.2,0.3-0.5,0.2-0.7,0.2
	C255,123.3,253.9,121.7,254.3,119.1z"/>
<path id="XMLID_763_" class="st41" d="M229,191.8c0.3-0.6,0.5-1.1,0.7-1.5c0.3-0.6,0.8-0.5,1.2-0.4c0.5,0.2,0,0.6-0.1,0.9
	c-0.5,1.2-1.4,2.1-1.2,3.5c0.1,0.5-0.3,0.5-0.6,0.5c-0.3,0-0.8,0.1-0.7-0.4c0.2-1.4-0.7-2.5-1.3-3.6c-0.1-0.2-0.6-0.7,0-0.9
	c0.4-0.1,0.9-0.2,1.2,0.3C228.5,190.6,228.7,191.1,229,191.8z"/>
<path id="XMLID_762_" class="st42" d="M244.7,121.5c-2.5-0.5-3.7-2-4.3-5.3c0.6,1.1,1.5,1.5,2.6,1.8
	C244.3,118.3,244.9,119.8,244.7,121.5z"/>
<path id="XMLID_761_" class="st43" d="M243.8,32.6c0.8,0.7,0.8,0.7,0,3c0.7,0.1,1.2-0.3,1.8-0.4c0.6-0.2,1,0.1,1.1,0.6
	c0.1,0.6-0.5,0.4-0.8,0.4c-1.2,0.4-2.6,0.3-3.5,1.5c-0.3,0.4-0.5,0.2-0.8-0.1c-0.2-0.2-0.5-0.5-0.1-0.8
	C243.1,35.9,243,34,243.8,32.6z"/>
<path id="XMLID_760_" class="st44" d="M179.2,189.8c0.5,0,1,0,1.4,0c0.5,0,0.6,0.1,0.6,0.6c0,0.5-0.2,0.6-0.6,0.5
	c-0.8-0.1-0.9,0.4-0.9,1c0,0.7,0,1.4,0,2.2c0,0.5-0.1,0.7-0.7,0.7c-0.5,0-0.7-0.2-0.7-0.7c0-0.6,0-1.1,0-1.7c0-0.7,0.3-1.7-1.1-1.5
	c-0.4,0.1-0.3-0.4-0.3-0.6c0-0.4,0.1-0.5,0.5-0.5C178.2,189.8,178.7,189.8,179.2,189.8z"/>
<path id="XMLID_759_" class="st45" d="M139.5,182.5c0.1,0.4-0.1,0.6-0.5,0.5c-0.9-0.2-1,0.4-0.9,1c0,0.7,0,1.4,0,2
	c0,0.5-0.1,0.8-0.7,0.8c-0.6,0-0.6-0.3-0.6-0.7c0-0.6,0-1.3,0-1.9c0-0.7,0.1-1.4-1-1.2c-0.4,0.1-0.5-0.2-0.4-0.5
	c0-0.3,0-0.6,0.4-0.6c1.1,0,2.2,0,3.3,0C139.5,181.9,139.5,182.2,139.5,182.5z"/>
<path id="XMLID_758_" class="st46" d="M162.9,183.8c0,0.3,0,0.6,0,0.8c-0.1,0.9,0.2,1.1,1,1c0.4,0,1-0.3,1,0.6c0,0.9-0.6,0.5-1,0.6
	c-2.4,0-2.4,0-2.4-2.4c0-0.6,0-1.1,0-1.7c0-0.4-0.1-0.9,0.6-0.9c0.6,0,0.9,0.2,0.8,0.8C162.9,183.1,162.9,183.5,162.9,183.8z"/>
<path id="XMLID_757_" class="st38" d="M238.3,34.1c-0.2-0.2-0.4-0.4-0.6-0.6c-0.2-0.3,0-0.4,0.2-0.6c0.6-0.7,1.2-1.3,1.9-2
	c0.4-0.4,0.6-0.7,0-1.1c-0.3-0.2-0.6-0.5-0.2-0.9c0.5-0.4,0.6,0,0.8,0.2c0.7,0.6,1.3,1.3,2,1.9c0.3,0.3,0.6,0.5,0.2,0.9
	c-0.4,0.4-0.6,0.2-0.9-0.1c-0.4-0.5-0.7-0.5-1.2,0c-0.5,0.7-1.2,1.3-1.8,1.9C238.6,33.9,238.5,34,238.3,34.1z"/>
<path id="XMLID_756_" class="st35" d="M130.8,65.7c-0.2,0.4-0.2,0.9-0.9,0.6c-0.7-0.3-1.4-0.5-2.1-0.8c-0.7-0.3-1.4-0.7-1.6,0.5
	c-0.1,0.4-0.3,0.4-0.6,0.2c-0.4-0.2-0.3-0.3-0.2-0.7c0.4-1,0.7-1.9,1.1-2.9c0.1-0.4,0.3-0.5,0.7-0.4c0.4,0.2,0.4,0.4,0.2,0.7
	c-0.5,0.7,0,1,0.6,1.2c0.7,0.3,1.5,0.6,2.2,0.9C130.5,65.3,130.8,65.3,130.8,65.7z"/>
<path id="XMLID_755_" class="st36" d="M252.2,121c0.1,2.7-1.3,5.6-3.3,6.8c-0.1-1.1-0.1-2.1,0.5-3
	C250.3,123.6,251.3,122.4,252.2,121z"/>
<path id="XMLID_754_" class="st47" d="M175.5,14.7c-0.4,0.1-0.5-0.1-0.6-0.4c-0.1-0.3,0-0.5,0.3-0.6c1.1-0.3,2.1-0.6,3.2-1
	c0.4-0.1,0.5,0.1,0.6,0.4c0.1,0.3,0,0.5-0.4,0.6c-1.1,0.1-0.9,0.8-0.6,1.5c0.2,0.7,0.4,1.4,0.6,2.1c0.2,0.5,0.1,0.7-0.4,0.9
	c-0.6,0.2-0.7-0.1-0.8-0.5c-0.2-0.6-0.3-1.2-0.5-1.8C176.7,15.2,176.8,14,175.5,14.7z"/>
<path id="XMLID_753_" class="st47" d="M266,70.1c0.1,0.4-0.2,0.5-0.4,0.5c-0.3,0.2-0.5,0-0.6-0.4c-0.2-1-0.7-0.8-1.4-0.5
	c-0.6,0.3-1.3,0.4-1.9,0.6c-0.4,0.1-0.8,0.5-1-0.2c-0.3-0.8,0.3-0.7,0.7-0.9c0.6-0.2,1.2-0.5,1.8-0.6c0.8-0.2,1.4-0.4,0.8-1.4
	c-0.2-0.3-0.1-0.5,0.2-0.5c0.2-0.1,0.5-0.2,0.6,0.1C265.2,67.9,265.6,69,266,70.1z"/>
<path id="XMLID_752_" class="st34" d="M201.4,183.8c0,0.2,0,0.5,0,0.7c-0.1,0.8,0.1,1.3,1.1,1.1c0.4-0.1,1-0.3,1,0.6
	c0,0.9-0.6,0.6-1,0.6c-2.4,0.1-2.4,0-2.4-2.3c0-0.6,0-1.2,0-1.8c0-0.5,0-0.8,0.7-0.8c0.7,0,0.7,0.4,0.6,0.9
	C201.4,183.1,201.4,183.5,201.4,183.8z"/>
<path id="XMLID_751_" class="st47" d="M149.2,37.2c-0.9,0.7-1.7,1.3-2.5,1.9c-0.2,0.2-0.4-0.1-0.6-0.3c-0.9-0.8-1.8-1.7-2.7-2.5
	c-0.4-0.4-0.4-0.6-0.1-1c0.4-0.4,0.6-0.2,0.8,0.1c0.5,0.5,1.1,0.8,1.5,1.4c0.7,0.9,1.3,1,2-0.1c0.1-0.1,0.2-0.2,0.3-0.4
	c0.2-0.2,0.4-0.1,0.5,0C148.6,36.5,148.7,36.6,149.2,37.2z"/>
<path id="XMLID_750_" class="st35" d="M232.1,27.6c0.5,0.4,0.9,0.7,1.3,1c0.4,0.3,0.3,0.5,0.1,0.8c-0.2,0.3-0.4,0.2-0.7,0
	c-2.4-1.5-2.4-1.5-0.7-3.8c0.4-0.5,0.8-1,1.1-1.5c0.3-0.4,0.5-0.4,0.8-0.1c0.4,0.3,0.4,0.5,0.1,0.9
	C233.5,25.7,232.8,26.7,232.1,27.6z"/>
<path id="XMLID_749_" class="st24" d="M194.4,12.8c0,0.2,0,0.4,0,0.6c-0.2,1.1,0.2,1.7,1.4,1.4c0.1,0,0.2,0,0.4,0
	c0.5,0,0.6,0.5,0.4,0.6c-0.8,0.8-1.8,0.2-2.6,0.3c-0.4,0.1-0.7,0-0.7-0.5c0-1.4,0-2.7,0-4.1c0-0.5,0.3-0.5,0.6-0.5
	c0.4,0,0.6,0.1,0.6,0.5C194.4,11.7,194.4,12.2,194.4,12.8z"/>
<path id="XMLID_748_" class="st48" d="M242.1,121.3c0.8,0.9,1.5,1.3,2.4,1.3c0.4,0,0.8,0.2,1.1,0.5c0.5,0.5,0.9,1.2,0.6,1.8
	c-0.4,0.7-1.1,0.2-1.6,0C243.1,124.3,242.5,123.2,242.1,121.3z"/>
<path id="XMLID_747_" class="st49" d="M141.9,184.5c0,0.5,0,1,0,1.6c0,0.5-0.1,0.8-0.7,0.8c-0.7,0-0.7-0.3-0.7-0.8
	c0-1.1,0-2.2,0-3.4c0-0.5,0.1-0.8,0.7-0.8c0.7,0,0.7,0.4,0.6,0.9C141.9,183.3,141.9,183.9,141.9,184.5z"/>
<path id="XMLID_746_" class="st50" d="M200.9,192.3c0,0.6,0,1.2,0,1.8c0,0.5,0,0.7-0.6,0.7c-0.5,0-0.8-0.1-0.8-0.7
	c0-1.2,0-2.4,0-3.6c0-0.5,0.2-0.7,0.7-0.7c0.5,0,0.7,0.1,0.7,0.7C200.9,191.1,200.9,191.7,200.9,192.3z"/>
<path id="XMLID_745_" class="st51" d="M257,184.4c0,0.6,0,1.2,0,1.8c0,0.5-0.1,0.7-0.7,0.7c-0.5,0-0.7-0.1-0.7-0.6
	c0-1.2,0-2.4,0-3.6c0-0.5,0.1-0.7,0.7-0.7c0.5,0,0.7,0.1,0.7,0.7C257,183.2,257,183.8,257,184.4z"/>
<path id="XMLID_744_" class="st52" d="M198.7,184.3c0,0.6,0,1.2,0,1.8c0,0.5-0.1,0.8-0.7,0.8c-0.6,0-0.7-0.2-0.7-0.8
	c0-1.2,0-2.3,0-3.5c0-0.5,0.1-0.7,0.7-0.7c0.6,0,0.8,0.1,0.8,0.7C198.7,183.2,198.7,183.7,198.7,184.3z"/>
<path id="XMLID_743_" class="st53" d="M251.2,128.2c-0.2,2.3-1.1,4.3-3.2,5.8C247.6,131.1,250.1,130,251.2,128.2z"/>
<path id="XMLID_742_" class="st54" d="M242.5,126.7c0.9,0,1.7-0.1,2.6-0.1c0.9-0.1,1.3,0.5,1.4,1.2c0.1,0.8-0.7,0.7-1.2,0.8
	C243.9,128.8,243,128.2,242.5,126.7z"/>
<path id="XMLID_741_" class="st55" d="M173,14.6c0.3,0,0.3,0.2,0.4,0.4c0.5,1.2,0.9,2.5,1.4,3.7c0.2,0.4,0.2,0.7-0.3,0.9
	c-0.5,0.2-0.7,0-0.8-0.5c-0.4-1.2-0.8-2.3-1.3-3.5C171.9,14.7,172.6,14.8,173,14.6z"/>
<path id="XMLID_740_" class="st47" d="M235.2,31.3c-0.2-0.2-0.3-0.3-0.5-0.5c-0.2-0.2-0.2-0.4,0-0.6c0.9-1,1.8-2.1,2.6-3.1
	c0.3-0.4,0.5-0.3,0.8,0c0.2,0.2,0.6,0.3,0.2,0.7c-0.9,1.1-1.9,2.2-2.8,3.2C235.4,31.2,235.3,31.2,235.2,31.3z"/>
<path id="XMLID_739_" class="st56" d="M183.6,192.4c0,0.6,0,1.1,0,1.7c0,0.4,0,0.7-0.6,0.7c-0.6,0-0.7-0.2-0.7-0.7
	c0-1.1,0-2.3,0-3.4c0-0.5,0.1-0.8,0.7-0.8c0.6,0,0.6,0.4,0.6,0.8C183.6,191.2,183.6,191.8,183.6,192.4z"/>
<path id="XMLID_738_" class="st57" d="M262.3,74.5c-0.3,0-0.3-0.3-0.4-0.6c-0.1-0.3,0-0.5,0.3-0.6c1.3-0.4,2.7-0.8,4-1.2
	c0.3-0.1,0.5,0,0.5,0.3c0,0.3,0.4,0.7-0.1,0.8C265.2,73.7,263.8,74.1,262.3,74.5z"/>
<path id="XMLID_737_" class="st57" d="M135.1,56.3c-0.3,0.4-0.3,1.1-1,0.7c-1.1-0.6-2.3-1.2-3.5-1.8c-0.3-0.2-0.6-0.3-0.3-0.7
	c0.2-0.2,0.3-0.7,0.7-0.4c1.3,0.7,2.6,1.4,3.9,2.1C135,56.1,135,56.2,135.1,56.3z"/>
<path id="XMLID_736_" class="st58" d="M198,146.3c-1.6,0.5-3.3,0.8-4.3,2.3c-0.4,0.3-0.4,0.3-0.5-0.1c-0.7-1.2-2-1.5-3.1-2.1
	c-0.1,0-0.1-0.1-0.1-0.1c0,0,0.1-0.1,0.1-0.1c1.1,0,1.9,1,3.1,0.9c0.3-0.2,0.6-0.3,1-0.3c0.4,0.6,0.7,0.1,1-0.1
	c0.9-0.4,1.9-0.8,2.9-0.9C198.1,146.1,198.1,146.2,198,146.3C198.1,146.3,198.1,146.3,198,146.3z"/>
<path id="XMLID_735_" class="st59" d="M243.5,129.6c0.6,0.2,1.2,0.4,1.8,0.6c0.8,0.2,1.1,0.9,0.9,1.5c-0.2,0.6-0.9,0.3-1.4,0.1
	C243.8,131.5,243.3,130.7,243.5,129.6z"/>
<path id="XMLID_734_" class="st60" d="M236.2,131.2c0.9,0.9,2.4,1.5,1.8,3.2C236.3,133.9,235.7,132.8,236.2,131.2z"/>
<path id="XMLID_733_" class="st61" d="M258.5,98.1c0.2-0.1,0.3-0.2,0.5-0.3c0.7,1.9,1.8,3.6,2.3,5.7c0.2,0.8,0.5,1.6,0.6,2.5
	c-0.4,0.4-0.1,0.9-0.2,1.3c-0.5-2.1-0.7-4.3-1.7-6.3C259.5,100,258.9,99,258.5,98.1z"/>
<path id="XMLID_732_" class="st35" d="M161.6,144.7c-0.1-0.2-0.2-0.3-0.2-0.5c1-2.7,2.4-5.2,3.6-7.9c0.1,0,0.2-0.1,0.2,0
	c0,0,0,0.1,0,0.2C163.9,139.2,162.9,142,161.6,144.7z"/>
<path id="XMLID_731_" class="st62" d="M173.3,149.4c-2.6,0.7-5.3,1-8,1.1c0-0.1,0-0.1,0-0.2c2.5-0.4,5-0.8,7.5-1.2
	C173,149.4,173.2,149.2,173.3,149.4z"/>
<path id="XMLID_730_" class="st63" d="M238.8,131.8c0.9,0.9,1.3,1.7,1.1,2.7c-0.1,0.3,0,0.8-0.4,0.8c-0.4,0-0.7-0.4-0.7-0.8
	C238.7,133.7,238.8,132.9,238.8,131.8z"/>
<path id="XMLID_729_" class="st64" d="M223.2,142.2c-0.1,0.1-0.2,0.2-0.3,0.3c-1-2.2-1.7-4.5-2.3-6.9
	C221.5,137.8,222.6,139.9,223.2,142.2z"/>
<path id="XMLID_728_" class="st65" d="M154.1,30.5c0.2,0.5,0.5,1,0.7,1.5c0.2,0.5-0.2,0.7-0.5,0.9c-0.4,0.2-0.4-0.2-0.5-0.4
	C153.3,31.8,152.7,31,154.1,30.5z"/>
<path id="XMLID_727_" class="st66" d="M238.6,143.5c-0.1-0.1-0.2-0.2-0.3-0.3c1-1.9,1.7-3.9,1.2-6.2
	C240.4,139.4,239.9,141.5,238.6,143.5z"/>
<path id="XMLID_726_" class="st67" d="M186.1,130.2c-2.3-0.3-4.5-0.6-6.8,0c-0.1,0-0.1-0.1-0.1-0.1c0,0,0.1-0.1,0.1-0.1
	c2.4-0.8,4.8-0.6,7.2-0.1C186.4,130,186.2,130.1,186.1,130.2z"/>
<path id="XMLID_725_" class="st68" d="M241,133.9c0.7,1.3,0,2.2-0.9,3.1C239.3,135.6,240.9,135,241,133.9z"/>
<path id="XMLID_724_" class="st69" d="M236.1,134.2c0.4,0.6,1.3,0.5,1.7,0.9c0.3,0.3,0.6,0.7,0.4,1c-0.2,0.3-0.6,0-0.9-0.1
	C236.6,135.6,236.1,135.1,236.1,134.2z"/>
<path id="XMLID_723_" class="st70" d="M240.5,139c-0.4-1.3,0.8-1.7,1.3-2.6C242,137.5,241.7,138.1,240.5,139z"/>
<path id="XMLID_722_" class="st71" d="M221.3,150.6c-1.7-0.1-3.4-0.2-5.1-0.7c0.2-0.3,0.5-0.1,0.7-0.2c1.5,0.2,3.1,0.4,4.6,0.6
	C221.5,150.4,221.4,150.5,221.3,150.6z"/>
<path id="XMLID_721_" class="st72" d="M236.9,136.3c0.6,0.4,1.1,0.4,1.6,0.6c0.4,0.1,0.6,0.5,0.5,0.8c-0.1,0.3-0.5,0.1-0.7,0
	C237.6,137.6,237.1,137.3,236.9,136.3z"/>
<path id="XMLID_720_" class="st73" d="M237.2,138.6c0.2-0.2,0.4-0.1,0.7-0.1c0.5-0.1,0.9-0.2,1.2,0.3c0.1,0.2,0.1,0.3-0.1,0.4
	c-0.5,0.2-1,0.2-1.4-0.1C237.4,139,237.2,138.9,237.2,138.6z"/>
<path id="XMLID_719_" class="st47" d="M240,141.6c0-1.2,0.8-1.6,1.4-2.3C241.4,140.4,241.2,140.8,240,141.6z"/>
<path id="XMLID_718_" class="st74" d="M247.4,122.6c-0.1,0.2-0.1,0.3-0.2,0.5c-0.5-1.3-0.7-2.8-1.4-4.1
	C246.7,120,247.1,121.3,247.4,122.6z"/>
<path id="XMLID_717_" class="st75" d="M223.2,138.7c-0.1,0.1-0.1,0.1-0.2,0.2c-0.6-0.9-0.9-1.8-1.1-2.8
	C222.4,136.9,222.9,137.7,223.2,138.7z"/>
<path id="XMLID_716_" class="st76" d="M165.4,138.6c-0.1,0-0.1,0-0.2,0c0.2-1,0.6-1.9,1.1-2.8C166.2,136.8,165.9,137.8,165.4,138.6z
	"/>
<path id="XMLID_715_" class="st77" d="M237.7,139.8c0.6,0.2,1.2,0,1.4,0.6c0.1,0.1,0,0.3-0.2,0.3
	C238.3,140.8,237.9,140.6,237.7,139.8z"/>
<path id="XMLID_714_" class="st78" d="M165.2,136.5c-0.1-0.1-0.1-0.1-0.2-0.2c0.3-0.7,0.5-1.5,1.2-2.3
	C165.9,135,165.6,135.8,165.2,136.5z"/>
<path id="XMLID_713_" class="st79" d="M193,167.3c0-3.1,1.9-5.2,4.8-5.1c2.8,0,4.7,2.2,4.7,5.2c0,3.1-1.9,5.2-4.8,5.2
	C194.7,172.5,193,170.5,193,167.3z"/>
<path id="XMLID_712_" class="st80" d="M155,164.7c0.6,1.6,1.2,3.1,1.7,4.6c0.1,0.3,0,0.5-0.4,0.5c-0.9,0-1.8,0-2.7,0
	c-0.4,0-0.5-0.2-0.4-0.6C153.8,167.7,154.2,166.3,155,164.7z"/>
<path id="XMLID_711_" class="st79" d="M179.3,130c0,0.1,0,0.1,0,0.2c-0.1,0.1-0.3,0.2-0.4,0.3c-0.1,0.3,0.1,0.2,0.3,0.2
	c4.6-0.5,8.9,0.6,12.9,2.6c0.4,0.2,0.7,0.3,0.8,0.9c0.1,2.8,0.3,5.7,0.4,8.5c0.2,0.8,0.2,1.7,0.3,2.6c0.1,0.1,0.3-0.1,0.1,0
	c-0.1,0-0.1,0-0.1-0.1c-0.2-0.5-0.2-1.1,0.1-1.6c0.2-3.1,0.4-6.3,0.5-9.4c0-0.4,0.1-0.6,0.5-0.8c4.2-2.2,8.7-3.3,13.5-2.8
	c-0.2-0.1-0.3-0.5-0.3-0.6c2.3,0.5,4.4,1.6,6.6,2.5c1.1,0.5,2.2,0.9,3.5,0.9c0.5,0,0.7,0.2,0.8,0.6c1.6,4.9,3.2,9.9,4.8,14.8
	c0.1,0.3,0.4,0.8-0.3,0.7c-0.1-0.1-0.2-0.2-0.2-0.2c-0.4-1-0.6-2-0.9-3c0.2,0.4,0.2,0.8,0.4,1.2c0.4,1.2,0.1,1.6-1.2,1.4
	c-1.7-0.2-3.3-0.3-4.9-0.9c-0.5-0.2-0.2,0.1-0.2,0.3c-0.1,0.2-0.2,0.3-0.4,0.2c-2.6-0.8-5.1-1.9-7.7-2.4c-3.5-0.7-7.1-1-10.7-0.5
	c-0.3,0.1-0.3-0.1-0.2-0.3c0.9-0.7,2-0.9,3-1.1c1.5-0.2,3.1-0.2,4.3,0c-2.5-0.7-5.2-0.6-7.8,0.7c-1,0.5-1.8,1.2-2.4,2.1
	c0,0.1,0,0.2,0,0.2c-0.3,0.1-0.5,0.5-1,0.3c-0.3-0.2-0.6-0.4-0.7-0.7c-0.5-1.3-1.7-1.8-2.8-2.3c-1.9-0.8-3.9-1-5.9-0.6
	c-0.5,0.1-1,0.2-1.5,0.2c2.1-0.2,4.2-0.3,6.3,0.4c0.5,0.2,1.2,0.2,1.3,1c-6.5-1-12.5,0.6-18.5,2.9c-0.2,0.1-0.3,0-0.3-0.2
	c0,0,0-0.1,0-0.1c0.1-0.1,0-0.2-0.1-0.1c-1.4,0.5-2.9,0.8-4.4,0.9c-0.1,0-0.2,0-0.4,0.1c-1.7,0.2-2-0.2-1.6-1.8
	c0.2-0.4,0.2-1,0.4-1.2c0,0.1-0.1,0.4-0.2,0.7c-0.4,0.9-0.4,1.9-1,2.7c-0.1,0.1-0.2,0.2-0.2,0.2c-0.8-0.1-0.2-0.7-0.2-0.9
	c0.6-2.1,1.4-4.2,2.1-6.3c0.9-2.7,1.8-5.4,2.7-8c0.1-0.4,0.1-0.8,0.7-0.8c2.5,0.1,4.4-1.4,6.6-2.2C176.8,130.7,178,130.1,179.3,130z
	"/>
<path id="XMLID_710_" class="st81" d="M173.3,149.4c-0.2-0.1-0.3-0.2-0.5-0.2c3.4-0.8,6.7-2.3,10.2-3c2.4-0.5,4.7-0.5,7.1,0.2
	c0,0.1,0,0.1,0,0.2c-3-0.7-5.7,0.4-8.5,1.1C178.9,148.3,176.2,149.1,173.3,149.4z"/>
<path id="XMLID_709_" class="st82" d="M189.9,145.3c-1.1-0.9-2.5-1-3.9-1.2c-1.5-0.2-3.1,0-4.8,0.3c3.4-2.4,9.3-1.2,12,2.2
	c-0.3,0.2-0.5-0.2-0.7-0.1C191.7,145.9,190.8,145.6,189.9,145.3z"/>
<path id="XMLID_708_" class="st83" d="M163.7,149.4c0-0.1,0-0.2,0.1-0.2c1.5-0.5,3.1-0.4,4.6-0.6c0.2,0.1,0.4,0.2,0.4,0.4
	C167.1,149.5,165.4,149.5,163.7,149.4z"/>
<path id="XMLID_707_" class="st62" d="M168.8,149c-0.1-0.1-0.2-0.2-0.3-0.2c0.8-0.7,1.6-0.9,2.6-0.8c0.1,0.1,0.2,0.2,0.3,0.3
	C170.6,148.7,169.7,148.9,168.8,149z"/>
<path id="XMLID_706_" class="st84" d="M216.9,149.7c-0.2,0.1-0.5,0.1-0.7,0.2c-3.7-0.5-7.4-1.4-11.1-2.3c-2.3-0.6-4.6-1.4-7.1-1.2
	c0-0.1,0-0.2,0-0.3c3.8-0.8,7.4,0.3,11,1.5C211.6,148.5,214.2,149.3,216.9,149.7z"/>
<path id="XMLID_705_" class="st85" d="M194.2,146.8c-0.3-0.1-0.3-0.3-0.1-0.5c2.3-3.1,8.2-4.1,11.7-1.8c-3.1-0.6-6-0.5-8.7,0.7
	c-0.7,0.5-1.7,0.5-2.2,1.3C194.7,146.5,194.4,146.7,194.2,146.8z"/>
<path id="XMLID_704_" class="st86" d="M223.2,149.2c0,0.1,0,0.1,0,0.2c-2.6,0.1-5.1,0-7.5-1.1c0.1-0.1,0.2-0.2,0.3-0.3
	c1.5-0.1,2.9,0.6,4.4,0.8C221.3,148.8,222.4,148.5,223.2,149.2z"/>
<path id="XMLID_703_" class="st87" d="M194.9,146.4c0.5-0.9,1.4-1,2.2-1.3c0.1,0.1,0.1,0.1,0.2,0.2
	C196.5,145.7,195.7,146.1,194.9,146.4z"/>
<path id="XMLID_702_" class="st88" d="M193.7,143.6c0,0.7,0,1.3,0,2c-0.5-0.9-0.4-1.9-0.4-2.9C193.4,143,193.5,143.3,193.7,143.6z"
	/>
<path id="XMLID_701_" class="st80" d="M251.9,183c0.8,0,1,0.4,1.1,1c0.1,0.6,0,1.2-0.6,1.6c-0.6,0.4-1.2,0-1.2-0.7
	c0-0.4,0-0.8,0-1.2C251.2,183.1,251.5,182.9,251.9,183z"/>
<path id="XMLID_700_" class="st89" d="M216.8,19c-0.8-0.2-1.4-0.6-1.4-1.4c0-0.7,0.3-1.2,0.8-1.6c0.5-0.4,1.1-0.3,1.6,0
	c0.8,0.5,0.9,1.2,0.5,2c-0.4,0.9-0.9,0-1.5,0.1C216.5,18.3,217.1,18.6,216.8,19z"/>
<path id="XMLID_699_" class="st90" d="M163.5,22.6c0,0.5,0.8,0.2,0.6,0.7c-0.1,0.4-0.6,0.5-0.9,0.5c-0.9,0-1.4-0.5-1.7-1.3
	c-0.2-0.8,0-1.4,0.8-1.8c0.8-0.4,1.4-0.1,1.9,0.5C165,22.3,163.7,22.2,163.5,22.6z"/>
<path id="XMLID_698_" class="st91" d="M219.9,183.4c0,0.6-0.4,0.7-0.7,0.7c-0.3,0.1-0.5-0.1-0.5-0.4c0-0.3-0.1-0.7,0.4-0.7
	C219.4,183,219.8,183,219.9,183.4z"/>
<path id="XMLID_697_" class="st92" d="M188.8,192.4c-0.1,0.8-0.5,1.3-1.4,1.3c-0.8-0.1-1.2-0.6-1.2-1.4c0-0.8,0.4-1.3,1.3-1.3
	C188.5,190.9,188.7,191.6,188.8,192.4z"/>
<path id="XMLID_696_" class="st93" d="M189.2,15c-0.4,0.1-0.6-0.1-0.6-0.6c0-0.7,0.5-0.5,0.9-0.6c0.4-0.1,0.8,0.1,0.8,0.5
	C190.3,15.1,189.7,15,189.2,15z"/>
<path id="XMLID_695_" class="st94" d="M188.9,13c-0.5,0-0.4-0.3-0.4-0.6c0-0.6,0.4-0.5,0.8-0.5c0.4,0,0.7,0.2,0.6,0.6
	C189.7,13,189.2,12.9,188.9,13z"/>
<path id="XMLID_694_" class="st95" d="M234.7,184.4c-0.1,0.8-0.5,1.4-1.4,1.3c-0.8,0-1.2-0.5-1.2-1.4c0-0.8,0.4-1.4,1.3-1.4
	C234.3,183,234.6,183.6,234.7,184.4z"/>
<path id="XMLID_693_" class="st95" d="M177.2,184.3c-0.1,0.9-0.5,1.5-1.4,1.4c-0.8,0-1.2-0.5-1.2-1.3c0-0.8,0.4-1.4,1.3-1.4
	C176.8,183,177,183.6,177.2,184.3z"/>
<path id="XMLID_692_" class="st92" d="M147,184.4c-0.1,0.8-0.5,1.4-1.4,1.3c-0.8,0-1.2-0.5-1.2-1.3c0-0.8,0.3-1.4,1.3-1.4
	C146.7,183,146.9,183.6,147,184.4z"/>
<path id="XMLID_691_" class="st92" d="M213.7,183c0.7,0,1,0.6,1,1.4c0,0.8-0.5,1.4-1.3,1.3c-0.8,0-1.2-0.5-1.2-1.3
	C212.1,183.6,212.5,183,213.7,183z"/>
<path id="XMLID_690_" class="st96" d="M143.8,41c-0.2,0.4-0.3,1-0.9,1c-0.3,0-0.8-0.3-0.6-0.7c0.2-0.4,0.5-1,1-1
	C143.7,40.3,143.8,40.6,143.8,41z"/>
<path id="XMLID_689_" class="st97" d="M142,39.8c-0.1,0.4-0.3,0.8-0.7,0.9c-0.3,0.1-0.7-0.3-0.6-0.5c0.1-0.3,0.4-0.7,0.8-0.8
	C141.8,39.2,142,39.5,142,39.8z"/>
<path id="XMLID_688_" class="st98" d="M208.3,15.3c-0.2,0.4-0.2,0.9-0.8,0.9c-0.4,0-0.7-0.3-0.6-0.7c0-0.5,0.3-0.7,0.8-0.7
	C207.9,14.9,208.3,14.9,208.3,15.3z"/>
<path id="XMLID_687_" class="st99" d="M208,13.1c0.4,0,0.6,0.2,0.6,0.6c0,0.3-0.1,0.5-0.4,0.4c-0.3-0.1-0.6-0.2-0.6-0.6
	C207.6,13.2,207.8,13.1,208,13.1z"/>
<path id="XMLID_686_" class="st100" d="M156.3,191c1.3-0.1,1.6,0.5,1.6,1.3c0,0.8-0.3,1.4-1.2,1.4c-0.9,0-0.7-0.6-0.6-1
	C156.2,192,155.5,191.1,156.3,191z"/>
<path id="XMLID_685_" class="st101" d="M264,78.3c0-1,0.8-1.7,1.8-1.6c0.9,0.1,1.3,0.7,1.4,1.5c0,0.9-0.8,1.6-1.7,1.6
	C264.5,79.7,264.1,79.1,264,78.3z"/>
<path id="XMLID_684_" class="st102" d="M252.1,48.3c-0.9,0-1.3-0.5-1.5-1.1c-0.2-0.6,0.5-0.6,0.7-0.9c0.2-0.2,0.4-0.3,0.6-0.3
	c0.5-0.2,0.9-1.1,1.5-0.1c0.5,0.9,0.3,1.5-0.5,2C252.6,48.2,252.3,48.2,252.1,48.3z"/>
<path id="XMLID_683_" class="st103" d="M246.3,183.6c0.4,0.6,0.6,1,0.3,1.3c-0.1,0.1-0.4,0.1-0.5,0
	C245.8,184.5,246.3,184.2,246.3,183.6z"/>
<path id="XMLID_682_" class="st104" d="M158.1,183.8c0,0.4,0.6,0.8,0.1,1.2c-0.1,0.1-0.6,0-0.6-0.1
	C157.6,184.5,157.7,184.1,158.1,183.8z"/>
<path id="XMLID_681_" class="st105" d="M132.1,183.9c0.3,0.3,0.6,0.7,0.4,1.1c0,0.1-0.4,0.1-0.5,0.1
	C131.4,184.6,132.2,184.3,132.1,183.9z"/>
<path id="XMLID_680_" class="st106" d="M234.4,191.8c0.3,0.3,0.6,0.7,0.3,1.1c-0.1,0.1-0.4,0.1-0.4,0
	C233.7,192.5,234.4,192.2,234.4,191.8z"/>
<path id="XMLID_679_" class="st107" d="M173.9,191.8c0.4,0.4,0.6,0.7,0.5,1.1c0,0.1-0.5,0.2-0.6,0.1
	C173.1,192.5,174,192.2,173.9,191.8z"/>
<path id="XMLID_678_" class="st108" d="M260.1,63.5c0.7,0,1.2,0,1.8,0c-0.4,0.5-0.7,0.9-1.2,0.9C260.5,64.5,260.3,63.9,260.1,63.5z"
	/>
<path id="XMLID_677_" class="st109" d="M139.5,45.3c-0.1,0.4-0.3,0.9-0.7,0.9c-0.6,0-0.6-0.7-1-1.1C138.6,44.9,139,45.1,139.5,45.3z
	"/>
<path id="XMLID_676_" class="st110" d="M129.9,59.3c0.6,0,1.1,0.1,1.6,0.1c-0.1,0.5-0.3,0.8-0.6,1.2
	C130.5,60.2,130.2,59.9,129.9,59.3z"/>
<path id="XMLID_675_" class="st111" d="M183,13.4c0.4,0.6,0.7,1,1,1.5c-0.5,0.1-0.8,0.2-1.2,0.3C182.6,14.6,182.9,14.1,183,13.4z"/>
<path id="XMLID_674_" class="st111" d="M227.7,23.5c0.5-0.4,0.9-0.7,1.5-1c-0.1,0.7,0,1.3-0.4,1.6C228.4,24.3,228.1,23.8,227.7,23.5
	z"/>
<path id="XMLID_673_" class="st52" d="M215.6,146.5c-4-1.4-8-2.7-12.1-3.5C207.9,142.6,211.8,144.3,215.6,146.5z"/>
<path id="XMLID_672_" class="st112" d="M171.5,146.5c3.7-2.2,7.6-3.9,12-3.5C179.4,143.8,175.5,145.2,171.5,146.5z"/>
<path id="XMLID_671_" class="st52" d="M223.2,149.2c-2.5,0.1-4.9-0.3-7.2-1.2c-0.3-0.2-0.7-0.2-0.9-0.7c1.8,0.4,3.5,0.9,5.3,1.1
	c2.2,0.2,2.2,0.2,1.7-1.8c-0.1-0.3-0.3-0.7-0.1-1.1C222.4,146.6,223,147.9,223.2,149.2z"/>
<path id="XMLID_670_" class="st113" d="M171.1,148c-0.9,0.3-1.8,0.5-2.6,0.8c-1.6,0.3-3.2,0.5-4.8,0.4c0.3-0.9,0.6-1.9,1-2.8
	c0.4,0,0.3,0.2,0.2,0.5c-0.4,1.7-0.4,1.7,1.4,1.6c1.9-0.2,3.7-0.6,5.5-1.1C171.8,147.7,171.4,147.7,171.1,148z"/>
<path id="XMLID_669_" class="st64" d="M164.9,146.8c-0.1-0.2-0.1-0.3-0.2-0.5c0.2-0.5,0.3-0.9,0.5-1.4
	C165.4,145.6,165.2,146.2,164.9,146.8z"/>
</svg>
