<svg xmlns="http://www.w3.org/2000/svg" width="35.669" height="64.942" viewBox="0 0 35.669 64.942">
  <g id="Group_35" data-name="Group 35" transform="translate(-942.165 -4322.5)">
    <g id="Group_34" data-name="Group 34" transform="translate(781.538 131)">
      <path id="Path_2002" data-name="Path 2002" d="M460.651,461.8a.674.674,0,0,0-.672.672v3.863a.672.672,0,0,0,1.344,0v-3.863A.674.674,0,0,0,460.651,461.8Z" transform="translate(-265.027 3789.43)" fill="#fafafa"/>
      <path id="Path_2003" data-name="Path 2003" d="M263.736,63.438H237.189a.672.672,0,0,0,0,1.344h26.547a1.641,1.641,0,0,1,1.639,1.639v8.417H232.393v-8.41a1.641,1.641,0,0,1,1.639-1.639.672.672,0,0,0,0-1.344,2.984,2.984,0,0,0-2.982,2.982v61.281a.672.672,0,1,0,1.344,0V76.188h32.982v44.623a.672.672,0,0,0,1.344,0V66.428a2.99,2.99,0,0,0-2.982-2.989Z" transform="translate(-70.422 4128.062)" fill="#fafafa"/>
      <path id="Path_2004" data-name="Path 2004" d="M413.971,86.328h4.3a.672.672,0,0,0,0-1.344h-4.3a.672.672,0,1,0,0,1.344Z" transform="translate(-225.346 4109.747)" fill="#fafafa"/>
      <path id="Path_2005" data-name="Path 2005" d="M413.971,118.273h4.3a.672.672,0,0,0,0-1.344h-4.3a.672.672,0,1,0,0,1.344Z" transform="translate(-225.346 4082.591)" fill="#fafafa"/>
      <path id="Path_2006" data-name="Path 2006" d="M413.971,102.323h4.3a.672.672,0,0,0,0-1.344h-4.3a.672.672,0,1,0,0,1.344Z" transform="translate(-225.346 4096.15)" fill="#fafafa"/>
      <path id="Path_2007" data-name="Path 2007" d="M263.28,171.85h-9.74a.674.674,0,0,0-.672.672v9.747a.674.674,0,0,0,.672.672h9.74a.674.674,0,0,0,.672-.672v-9.747A.674.674,0,0,0,263.28,171.85Zm-.672,9.747h-8.4v-8.4h8.4Z" transform="translate(-88.97 4035.905)" fill="#fafafa"/>
      <path id="Path_2008" data-name="Path 2008" d="M353.338,194.48H339.164a.672.672,0,1,0,0,1.344h14.173a.672.672,0,1,0,0-1.344Z" transform="translate(-161.755 4016.668)" fill="#fafafa"/>
      <path id="Path_2009" data-name="Path 2009" d="M339.151,217.5h7.087a.672.672,0,0,0,0-1.344h-7.087a.672.672,0,1,0,0,1.344Z" transform="translate(-161.744 3998.24)" fill="#fafafa"/>
      <path id="Path_2010" data-name="Path 2010" d="M263.28,270.41h-9.74a.674.674,0,0,0-.672.672v9.747a.674.674,0,0,0,.672.672h9.74a.674.674,0,0,0,.672-.672v-9.747A.674.674,0,0,0,263.28,270.41Zm-.672,9.747h-8.4v-8.4h8.4Z" transform="translate(-88.97 3952.123)" fill="#fafafa"/>
      <path id="Path_2011" data-name="Path 2011" d="M353.338,293.04H339.164a.672.672,0,1,0,0,1.344h14.173a.672.672,0,1,0,0-1.344Z" transform="translate(-161.755 3932.886)" fill="#fafafa"/>
      <path id="Path_2012" data-name="Path 2012" d="M339.151,316.063h7.087a.672.672,0,0,0,0-1.344h-7.087a.672.672,0,1,0,0,1.344Z" transform="translate(-161.744 3914.458)" fill="#fafafa"/>
      <path id="Path_2013" data-name="Path 2013" d="M263.28,368.97h-9.74a.674.674,0,0,0-.672.672v9.747a.674.674,0,0,0,.672.672h9.74a.674.674,0,0,0,.672-.672v-9.747A.674.674,0,0,0,263.28,368.97Zm-.672,9.747h-8.4v-8.4h8.4Z" transform="translate(-88.97 3868.341)" fill="#fafafa"/>
      <path id="Path_2014" data-name="Path 2014" d="M353.338,391.6H339.164a.672.672,0,1,0,0,1.344h14.173a.672.672,0,0,0,0-1.344Z" transform="translate(-161.755 3849.104)" fill="#fafafa"/>
      <path id="Path_2015" data-name="Path 2015" d="M346.242,413.28h-7.087a.672.672,0,0,0,0,1.344h7.087a.672.672,0,0,0,0-1.344Z" transform="translate(-161.748 3830.675)" fill="#fafafa"/>
    </g>
  </g>
</svg>
