<svg xmlns="http://www.w3.org/2000/svg" width="33.328" height="69.859" viewBox="0 0 33.328 69.859">
  <g id="Group_8657" data-name="Group 8657" transform="translate(-14948 -294)">
    <path id="Path_34864" data-name="Path 34864" d="M245.886,65.727h-.542V65.6a2.83,2.83,0,0,0-2.624-2.585V15.481a2.313,2.313,0,0,0,1.543-1.233,3.434,3.434,0,0,0,5.487-2.982,4.576,4.576,0,0,0-4.589-4.647H243.25l.942-1.307h0a.55.55,0,0,0,.106-.324V2.744a.555.555,0,0,0-.555-.555h-1.021V.553A.555.555,0,0,0,242.166,0H224.005a.555.555,0,0,0-.555.555V2.19h-1.021a.555.555,0,0,0-.555.555V4.987a.55.55,0,0,0,.106.324h0l.942,1.307h-1.911a4.575,4.575,0,0,0-4.589,4.647,3.434,3.434,0,0,0,5.487,2.982,2.313,2.313,0,0,0,1.543,1.233V63.014a2.83,2.83,0,0,0-2.624,2.585v.128h-.542a2.942,2.942,0,0,0-2.938,2.938V69.3a.555.555,0,0,0,.555.555h30.37a.555.555,0,0,0,.555-.555v-.637a2.943,2.943,0,0,0-2.939-2.938Zm-3.038-54.012h-2.027a4.293,4.293,0,0,0,.461-1.519h1.945a2.755,2.755,0,0,0-.383,1.415c0,.035,0,.07,0,.1ZM224.56,16.733V15.548h17.052v1.185Zm14.531,4.653v38.28a.778.778,0,1,1-1.557,0V21.386a.778.778,0,1,1,1.556,0Zm-5.225,0v38.28a.779.779,0,1,1-1.558,0V21.386a.779.779,0,0,1,1.558,0Zm-5.227,0v38.28a.778.778,0,1,1-1.557,0V21.386a.778.778,0,1,1,1.556,0ZM226.012,10.2h2.2c-.091.614-.351,1.519-1.1,1.519s-1.007-.905-1.1-1.519Zm2.857,1.519a4.294,4.294,0,0,0,.461-1.519h1.537a4.284,4.284,0,0,0,.461,1.519Zm3.12-1.519h2.2c-.091.614-.351,1.519-1.1,1.519s-1.007-.905-1.1-1.519Zm2.856,1.519a4.294,4.294,0,0,0,.461-1.519h1.537a4.284,4.284,0,0,0,.461,1.519Zm3.121-1.519h2.2c-.091.614-.351,1.519-1.1,1.519s-1.007-.9-1.1-1.519Zm4.694-4.655-.776,1.077h-1.619V5.542Zm-18.1-4.434h17.052V2.19H224.561Zm14.594,4.434V6.618h-2.2V5.542Zm-3.312,0V6.618h-2.2V5.542Zm-3.311,0V6.618h-2.2V5.542Zm-3.311,0V6.618h-2.2V5.542Zm-3.312,0V6.618H224.29l-.776-1.077Zm-6.474,6.624a.555.555,0,0,0,.555-.555,1.147,1.147,0,1,1,2.23,0,1.619,1.619,0,0,1-.084.5,2.456,2.456,0,0,1-.372.724,2.342,2.342,0,0,1-1.889,1,2.276,2.276,0,0,1-2.343-2.561,3.439,3.439,0,0,1,3.48-3.539h24.149a3.439,3.439,0,0,1,3.48,3.539,2.276,2.276,0,0,1-2.344,2.56,2.343,2.343,0,0,1-1.89-1,2.447,2.447,0,0,1-.372-.728,1.614,1.614,0,0,1-.082-.49,1.147,1.147,0,1,1,2.23,0,.555.555,0,0,0,1.109,0,2.391,2.391,0,0,0-2.224-2.524H221.106a2.391,2.391,0,0,0-2.225,2.524.555.555,0,0,0,.555.555Zm3.889-.451c0-.035,0-.07,0-.1a2.756,2.756,0,0,0-.384-1.415h1.945a4.284,4.284,0,0,0,.461,1.519Zm20.913,54.012h-22.3V65.6c0-.822.948-1.516,2.07-1.516h18.161c1.122,0,2.07.694,2.07,1.516Z" transform="translate(14731.578 294.002)" fill="#fafafa"/>
  </g>
</svg>
