<svg xmlns="http://www.w3.org/2000/svg" width="41.456" height="50.078" viewBox="0 0 41.456 50.078">
  <g id="Group_5353" data-name="Group 5353" transform="translate(-8123.348 712)">
    <path id="Path_34712" data-name="Path 34712" d="M214.64,94.652a14.993,14.993,0,0,0-17.359-22.826,15.446,15.446,0,0,0-5.235,3.281A14.593,14.593,0,0,0,188.77,79.8a15.269,15.269,0,0,0-.984,3,15.465,15.465,0,0,0-.323,3.236,15.165,15.165,0,0,0,1.938,7.254,12.942,12.942,0,0,0,.888,1.368,2.194,2.194,0,0,0,1.206.929,2.086,2.086,0,0,0,1.555-.2,2.041,2.041,0,0,0,.929-1.206,1.99,1.99,0,0,0-.2-1.555,13.236,13.236,0,0,1-1.54-2.7c.066.162.136.323.2.485a13.208,13.208,0,0,1-.9-3.306c.025.177.05.358.071.535a13.153,13.153,0,0,1,.005-3.478c-.025.177-.05.358-.071.535a13.3,13.3,0,0,1,.888-3.271c-.066.162-.136.323-.2.485a13.14,13.14,0,0,1,1.706-2.923l-.318.409a13.36,13.36,0,0,1,2.327-2.327l-.409.318a13.336,13.336,0,0,1,2.923-1.706c-.162.066-.323.136-.485.2a12.927,12.927,0,0,1,3.271-.888c-.177.025-.358.05-.535.071a13.564,13.564,0,0,1,3.5,0c-.177-.025-.358-.05-.535-.071a13.3,13.3,0,0,1,3.271.888c-.162-.066-.323-.136-.485-.2a13.139,13.139,0,0,1,2.923,1.706l-.409-.318a13.36,13.36,0,0,1,2.327,2.327l-.318-.409a13.336,13.336,0,0,1,1.706,2.923c-.066-.162-.136-.323-.2-.485a12.927,12.927,0,0,1,.888,3.271c-.025-.177-.05-.358-.071-.535a13.594,13.594,0,0,1,.005,3.478c.025-.177.05-.358.071-.535a13.15,13.15,0,0,1-.9,3.306c.066-.162.136-.323.2-.485a13.476,13.476,0,0,1-1.54,2.7,2.018,2.018,0,0,0-.2,1.555,2.061,2.061,0,0,0,.929,1.206,2.021,2.021,0,0,0,1.555.2c.162-.066.323-.136.485-.2a2.088,2.088,0,0,0,.722-.732Z" transform="translate(7941.615 -777.164)"/>
    <path id="Path_34713" data-name="Path 34713" d="M136.712,43.294c-.348-.232-.687-.48-1.02-.737l.409.318a19.35,19.35,0,0,1-3.382-3.387l.318.409a18.958,18.958,0,0,1-2.428-4.159c.066.162.136.323.2.485a18.906,18.906,0,0,1-1.292-4.755c.025.177.05.358.071.535a19.489,19.489,0,0,1,0-5.028c-.025.177-.05.358-.071.535a18.912,18.912,0,0,1,1.307-4.78c-.066.162-.136.323-.2.485a18.977,18.977,0,0,1,2.413-4.124l-.318.409a19.041,19.041,0,0,1,3.4-3.4l-.409.318A18.862,18.862,0,0,1,139.837,14c-.162.066-.323.136-.485.2a18.7,18.7,0,0,1,4.78-1.307c-.177.025-.358.05-.535.071a19.2,19.2,0,0,1,5.048,0c-.177-.025-.358-.05-.535-.071a18.912,18.912,0,0,1,4.78,1.307c-.162-.066-.323-.136-.485-.2a18.978,18.978,0,0,1,4.124,2.413l-.409-.318a19.042,19.042,0,0,1,3.4,3.4l-.318-.409a18.861,18.861,0,0,1,2.413,4.124c-.066-.162-.136-.323-.2-.485a18.7,18.7,0,0,1,1.307,4.78c-.025-.177-.05-.358-.071-.535a19.053,19.053,0,0,1,0,5.028c.025-.177.05-.358.071-.535a18.966,18.966,0,0,1-1.292,4.755c.066-.162.136-.323.2-.485a18.956,18.956,0,0,1-2.428,4.159l.318-.409a19.005,19.005,0,0,1-3.382,3.387l.409-.318c-.333.257-.671.5-1.02.737A2.171,2.171,0,0,0,154.6,44.5a2.086,2.086,0,0,0,.2,1.555,2.041,2.041,0,0,0,1.206.929,2.015,2.015,0,0,0,1.555-.2,20.752,20.752,0,0,0,6.143-28.263,21.083,21.083,0,0,0-6.9-6.794A20.751,20.751,0,0,0,137.363,10.7a20.137,20.137,0,0,0-7.344,5.734,20.817,20.817,0,0,0-4.21,8.844,20.753,20.753,0,0,0,6.582,19.747,24.025,24.025,0,0,0,2.282,1.757,2.02,2.02,0,0,0,2.039-3.488Z" transform="translate(7997.953 -720.758)"/>
    <path id="Path_34714" data-name="Path 34714" d="M271.093,150.114a6.759,6.759,0,0,1-.056.843c.025-.177.05-.358.071-.535a6.626,6.626,0,0,1-.439,1.64c.066-.162.136-.323.2-.485a6.875,6.875,0,0,1-.828,1.434l.318-.409a6.879,6.879,0,0,1-1.211,1.211l.409-.318a6.876,6.876,0,0,1-1.434.828c.162-.066.323-.136.485-.2a6.569,6.569,0,0,1-1.641.439c.177-.025.358-.05.535-.071a6.689,6.689,0,0,1-1.681,0c.177.025.358.05.535.071a6.627,6.627,0,0,1-1.64-.439c.161.066.323.136.485.2a6.875,6.875,0,0,1-1.434-.828l.409.318a6.88,6.88,0,0,1-1.211-1.211l.318.409a6.876,6.876,0,0,1-.828-1.434c.066.162.136.323.2.485a6.57,6.57,0,0,1-.439-1.64c.025.177.05.358.071.535a6.689,6.689,0,0,1,0-1.681c-.025.177-.05.358-.071.535a6.629,6.629,0,0,1,.439-1.641c-.066.162-.136.323-.2.485a6.874,6.874,0,0,1,.828-1.434l-.318.409a6.88,6.88,0,0,1,1.211-1.211l-.409.318a6.875,6.875,0,0,1,1.434-.828c-.162.066-.323.136-.485.2a6.568,6.568,0,0,1,1.64-.439c-.177.025-.358.05-.535.071a6.691,6.691,0,0,1,1.681,0c-.177-.025-.358-.05-.535-.071a6.627,6.627,0,0,1,1.641.439c-.162-.066-.323-.136-.485-.2a6.873,6.873,0,0,1,1.434.828l-.409-.318a6.879,6.879,0,0,1,1.211,1.211l-.318-.409a6.878,6.878,0,0,1,.828,1.434c-.066-.162-.136-.323-.2-.485a6.568,6.568,0,0,1,.439,1.641c-.025-.177-.05-.358-.071-.535a5.794,5.794,0,0,1,.056.838,2.1,2.1,0,0,0,.591,1.429,2.02,2.02,0,0,0,3.448-1.429,8.394,8.394,0,0,0-1.479-4.775A9.1,9.1,0,0,0,271.8,143.4a8.651,8.651,0,0,0-2.372-1.287,8.43,8.43,0,0,0-9.177,2.479,9.973,9.973,0,0,0-.868,1.191,9.764,9.764,0,0,0-.626,1.312,8.437,8.437,0,0,0,4.22,10.636,10,10,0,0,0,1.4.54,9.758,9.758,0,0,0,1.479.262,8.264,8.264,0,0,0,2.59-.141,8.445,8.445,0,0,0,6.537-6.759,10.9,10.9,0,0,0,.146-1.514,2.019,2.019,0,0,0-4.038-.005Z" transform="translate(7877.413 -841.378)"/>
    <path id="Path_34715" data-name="Path 34715" d="M291.079,359.624a9.032,9.032,0,0,1-1.227-.035c.177.025.358.05.535.071a3.772,3.772,0,0,1-.914-.252c.162.066.323.136.485.2a3.979,3.979,0,0,1-.8-.469l.409.318a4.034,4.034,0,0,1-.656-.656l.318.409a3.977,3.977,0,0,1-.469-.8c.066.162.136.323.2.485a3.837,3.837,0,0,1-.252-.914c.025.177.05.358.071.535a9.452,9.452,0,0,1-.035-1.136v-6.325a10.413,10.413,0,0,1,.035-1.317c-.025.177-.05.358-.071.535a3.772,3.772,0,0,1,.252-.914c-.066.161-.136.323-.2.485a3.978,3.978,0,0,1,.469-.8l-.318.409a4.033,4.033,0,0,1,.656-.656l-.409.318a3.978,3.978,0,0,1,.8-.469c-.162.066-.323.136-.485.2a3.839,3.839,0,0,1,.914-.252c-.177.025-.358.05-.535.071a6.973,6.973,0,0,1,1.716,0c-.177-.025-.358-.05-.535-.071a3.775,3.775,0,0,1,.914.252c-.161-.066-.323-.136-.485-.2a3.977,3.977,0,0,1,.8.469l-.409-.318a4.033,4.033,0,0,1,.656.656l-.318-.409a3.978,3.978,0,0,1,.469.8c-.066-.161-.136-.323-.2-.485a3.837,3.837,0,0,1,.252.914c-.025-.177-.05-.358-.071-.535a9.446,9.446,0,0,1,.035,1.136V357.2a10.406,10.406,0,0,1-.035,1.317c.025-.177.051-.358.071-.535a3.772,3.772,0,0,1-.252.914c.066-.162.136-.323.2-.485a3.979,3.979,0,0,1-.469.8l.318-.409a4.035,4.035,0,0,1-.656.656l.409-.318a3.978,3.978,0,0,1-.8.469c.162-.066.323-.136.485-.2a3.836,3.836,0,0,1-.914.252c.177-.025.358-.05.535-.071a3.151,3.151,0,0,1-.49.035,2.1,2.1,0,0,0-1.429.591,2.02,2.02,0,0,0,1.429,3.448,5.8,5.8,0,0,0,3.887-1.56,5.093,5.093,0,0,0,1.105-1.469,6.172,6.172,0,0,0,.626-2.256c.081-.823.015-1.671.015-2.494V351.84a10.71,10.71,0,0,0-.242-3.241,5.811,5.811,0,0,0-2.5-3.205,6.185,6.185,0,0,0-3.316-.808,5.951,5.951,0,0,0-3.271.843,5.782,5.782,0,0,0-2.468,3.266,11.627,11.627,0,0,0-.212,3.19v4.089a21.9,21.9,0,0,0,.03,2.509,6.1,6.1,0,0,0,.676,2.271,5.339,5.339,0,0,0,1.141,1.439,5.839,5.839,0,0,0,3.791,1.474h.737a2.022,2.022,0,0,0,0-4.043Z" transform="translate(7853.368 -1025.589)"/>
  </g>
</svg>
