<svg xmlns="http://www.w3.org/2000/svg" xmlns:xlink="http://www.w3.org/1999/xlink" width="64" height="64" viewBox="0 0 64 64">
  <defs>
    <filter id="Ellipse_13" x="0" y="0" width="64" height="64" filterUnits="userSpaceOnUse">
      <feOffset dy="3" input="SourceAlpha"/>
      <feGaussianBlur stdDeviation="5" result="blur"/>
      <feFlood flood-opacity="0.161"/>
      <feComposite operator="in" in2="blur"/>
      <feComposite in="SourceGraphic"/>
    </filter>
  </defs>
  <g id="Group_40" data-name="Group 40" transform="translate(-1157 -1660)">
    <g transform="matrix(1, 0, 0, 1, 1157, 1660)" filter="url(#Ellipse_13)">
      <circle id="Ellipse_13-2" data-name="Ellipse 13" cx="17" cy="17" r="17" transform="translate(15 12)" fill="#ff5851"/>
    </g>
    <g id="Group_30" data-name="Group 30" transform="translate(-399.581 -451.531)">
      <path id="Path_1933" data-name="Path 1933" d="M255.066,107.927H246.03a1.124,1.124,0,0,1-1.054-1.184V88.679a1.124,1.124,0,0,1,1.054-1.184h9.036a1.124,1.124,0,0,1,1.054,1.184v18.064a1.124,1.124,0,0,1-1.054,1.184ZM246.03,87.959a.664.664,0,0,0-.59.72v18.064a.664.664,0,0,0,.59.72h9.036a.664.664,0,0,0,.59-.72V88.679a.664.664,0,0,0-.59-.72Z" transform="translate(1338.033 2042.82)" fill="#fafafa"/>
      <path id="Path_1934" data-name="Path 1934" d="M255.908,127.334H245.227a.232.232,0,1,1,0-.464h10.681a.232.232,0,0,1,0,.464Z" transform="translate(1338.013 2005.534)" fill="#fafafa"/>
      <path id="Path_1935" data-name="Path 1935" d="M255.907,416.093H245.226a.234.234,0,0,1,0-.469h10.681a.234.234,0,0,1,0,.469Z" transform="translate(1338.014 1732.105)" fill="#fafafa"/>
      <path id="Path_1936" data-name="Path 1936" d="M330.215,108.7h-1.857a.232.232,0,0,1,0-.464h1.857a.232.232,0,1,1,0,.464Z" transform="translate(1259.295 2023.175)" fill="#fafafa"/>
      <path id="Path_1937" data-name="Path 1937" d="M338.263,431.722a.7.7,0,1,1-.7-.7.7.7,0,0,1,.7.7" transform="translate(1251.014 1717.521)" fill="#fafafa"/>
      <path id="Path_1938" data-name="Path 1938" d="M271.751,165.824h-4.644a.232.232,0,0,1-.232-.232v-4.179a.232.232,0,0,1,.232-.232h4.644a.232.232,0,0,1,.232.232v4.179a.232.232,0,0,1-.232.232Zm-4.411-.464h4.179v-3.715h-4.179Z" transform="translate(1317.295 1973.045)" fill="#fafafa"/>
      <path id="Path_1939" data-name="Path 1939" d="M374.893,162.334h-2.786a.232.232,0,0,1,0-.464h2.786a.232.232,0,0,1,0,.464Z" transform="translate(1217.867 1972.392)" fill="#fafafa"/>
      <path id="Path_1940" data-name="Path 1940" d="M374.429,188.594h-2.322a.232.232,0,0,1,0-.464h2.322a.232.232,0,0,1,0,.464Z" transform="translate(1217.867 1947.525)" fill="#fafafa"/>
      <path id="Path_1941" data-name="Path 1941" d="M374.666,214.834h-2.554a.232.232,0,1,1,0-.464h2.554a.232.232,0,0,1,0,.464Z" transform="translate(1217.862 1922.678)" fill="#fafafa"/>
      <path id="Path_1942" data-name="Path 1942" d="M374.893,241.094h-2.786a.232.232,0,0,1,0-.464h2.786a.232.232,0,0,1,0,.464Z" transform="translate(1217.867 1897.812)" fill="#fafafa"/>
      <path id="Path_1943" data-name="Path 1943" d="M267.107,267.345a.232.232,0,0,1-.232-.232v-.1a.232.232,0,0,1,.232-.232h.116a.294.294,0,0,1-.116.562Z" transform="translate(1317.295 1873.052)" fill="#fafafa"/>
      <path id="Path_1944" data-name="Path 1944" d="M267.107,284.354a.232.232,0,0,1-.232-.232V283.9h0a.232.232,0,1,1,.464,0v.218h0a.232.232,0,0,1-.232.232Zm0-.762h0a.232.232,0,0,1-.232-.232v-.214a.232.232,0,0,1,.464,0v.2a.232.232,0,0,1-.232.242Zm0-.757h0a.232.232,0,0,1-.232-.232v-.218a.232.232,0,1,1,.464,0v.218a.232.232,0,0,1-.232.232Zm0-.762h0a.232.232,0,0,1-.232-.232v-.214a.232.232,0,0,1,.464,0v.214a.232.232,0,0,1-.232.232Zm0-.757h0a.232.232,0,0,1-.232-.232v-.218a.232.232,0,0,1,.464,0v.218a.232.232,0,0,1-.232.232Zm0-.752a.232.232,0,0,1-.232-.232V280.1a.232.232,0,1,1,.464,0v.214a.232.232,0,0,1-.232.251Zm0-.757a.232.232,0,0,1-.232-.232v-.218a.232.232,0,1,1,.464,0v.218a.232.232,0,0,1-.232.223Z" transform="translate(1317.295 1861.36)" fill="#fafafa"/>
      <path id="Path_1945" data-name="Path 1945" d="M267.226,379.713h-.116a.232.232,0,0,1-.232-.232v-.116a.232.232,0,0,1,.232-.232.31.31,0,1,1,.116.6Z" transform="translate(1317.292 1766.66)" fill="#fafafa"/>
      <path id="Path_1946" data-name="Path 1946" d="M287.509,381.784h-.214a.232.232,0,0,1,0-.464h.237a.233.233,0,1,1-.023.464Zm-.836,0h-.237a.232.232,0,0,1,0-.464h.237a.232.232,0,1,1,0,.464Zm-.836,0H285.6a.232.232,0,0,1,0-.464h.237a.232.232,0,0,1,0,.464Zm-.836,0h-.241a.237.237,0,0,1-.232-.232.232.232,0,0,1,.232-.232H285a.232.232,0,0,1,.232.232A.237.237,0,0,1,285,381.784Zm-.836,0h-.241a.237.237,0,0,1-.232-.232.232.232,0,0,1,.232-.232h.241a.232.232,0,0,1,.232.232A.237.237,0,0,1,284.165,381.784Zm-.836,0h-.241a.232.232,0,0,1,0-.464h.241a.232.232,0,0,1,.232.232A.237.237,0,0,1,283.329,381.784Zm-.84,0h-.237a.232.232,0,0,1,0-.464h.237a.232.232,0,1,1,0,.464Zm-.836,0h-.237a.232.232,0,0,1,0-.464h.237a.232.232,0,1,1,0,.464Zm-.836,0h-.237a.232.232,0,0,1,0-.464h.237a.232.232,0,0,1,0,.464Z" transform="translate(1304.536 1764.588)" fill="#fafafa"/>
      <path id="Path_1947" data-name="Path 1947" d="M421.575,379.384h-.116a.325.325,0,0,1,.116-.6.232.232,0,0,1,.232.232v.116a.232.232,0,0,1-.232.251Z" transform="translate(1171.185 1766.989)" fill="#fafafa"/>
      <path id="Path_1948" data-name="Path 1948" d="M424.607,284.354a.232.232,0,0,1-.232-.232V283.9h0a.232.232,0,1,1,.464,0v.218h0a.232.232,0,0,1-.232.232Zm0-.762h0a.232.232,0,0,1-.232-.232v-.214a.232.232,0,0,1,.464,0v.2a.232.232,0,0,1-.232.242Zm0-.757h0a.232.232,0,0,1-.232-.232v-.218a.232.232,0,1,1,.464,0v.218a.232.232,0,0,1-.232.232Zm0-.762h0a.232.232,0,0,1-.232-.232v-.214a.232.232,0,0,1,.464,0v.214a.232.232,0,0,1-.232.232Zm0-.757h0a.232.232,0,0,1-.232-.232v-.218a.232.232,0,0,1,.464,0v.218a.232.232,0,0,1-.232.232Zm0-.752a.232.232,0,0,1-.232-.232V280.1a.232.232,0,1,1,.464,0v.214a.232.232,0,0,1-.232.251Zm0-.757a.232.232,0,0,1-.232-.232v-.218a.232.232,0,1,1,.464,0v.218a.232.232,0,0,1-.232.223Z" transform="translate(1168.153 1861.36)" fill="#fafafa"/>
      <path id="Path_1949" data-name="Path 1949" d="M421.575,266.682a.31.31,0,1,1-.116-.6h.116a.232.232,0,0,1,.232.232v.116a.232.232,0,0,1-.232.251Z" transform="translate(1171.185 1873.714)" fill="#fafafa"/>
      <path id="Path_1950" data-name="Path 1950" d="M287.176,266.984h-.214a.232.232,0,0,1,0-.464h.237a.233.233,0,1,1-.023.464Zm-.836,0H286.1a.232.232,0,0,1,0-.464h.237a.232.232,0,1,1,0,.464Zm-.836,0h-.237a.232.232,0,0,1,0-.464h.237a.232.232,0,1,1,0,.464Zm-.836,0h-.241a.232.232,0,0,1-.251-.214.237.237,0,0,1,.232-.232h.242a.237.237,0,0,1,.232.232A.232.232,0,0,1,284.668,266.984Zm-.836,0h-.241a.232.232,0,0,1-.232-.232.237.237,0,0,1,.232-.232h.241a.237.237,0,0,1,.232.232.232.232,0,0,1-.232.232Zm-.836,0h-.241a.232.232,0,0,1,0-.464H283a.237.237,0,0,1,.232.232.232.232,0,0,1-.232.232Zm-.84,0h-.237a.232.232,0,0,1,0-.464h.237a.232.232,0,1,1,0,.464Zm-.836,0h-.237a.232.232,0,0,1,0-.464h.237a.232.232,0,1,1,0,.464Zm-.836,0h-.237a.224.224,0,1,1-.019-.446h.237a.223.223,0,0,1,.019.446Z" transform="translate(1304.869 1873.296)" fill="#fafafa"/>
    </g>
  </g>
</svg>
