<svg xmlns="http://www.w3.org/2000/svg" width="61.75" height="69.469" viewBox="0 0 61.75 69.469">
  <g id="Group_8656" data-name="Group 8656" transform="translate(-15080 525)">
    <path id="Path_34858" data-name="Path 34858" d="M168.936,190.822h10.015a.551.551,0,0,0,0-1.1H168.936a.551.551,0,1,0,0,1.1Z" transform="translate(14919.961 -691.185)" fill="#fafafa"/>
    <path id="Path_34859" data-name="Path 34859" d="M179.5,217.386a.551.551,0,0,0-.551-.551H168.937a.551.551,0,0,0,0,1.1h10.015A.552.552,0,0,0,179.5,217.386Z" transform="translate(14919.96 -714.936)" fill="#fafafa"/>
    <path id="Path_34860" data-name="Path 34860" d="M159.654,20.26a12.174,12.174,0,0,0-7.367-3.892V4a3.992,3.992,0,0,0-3.975-4H115.1a3.992,3.992,0,0,0-3.975,4v8.885a14.03,14.03,0,0,0,0,26.887v25.7a3.992,3.992,0,0,0,3.975,4h33.212a3.992,3.992,0,0,0,3.975-4V40.776a12.175,12.175,0,0,0,7.367-3.892,12.38,12.38,0,0,0,0-16.624ZM130.176,3.644h8.346a.551.551,0,1,1,0,1.1h-8.346a.551.551,0,1,1,0-1.1Zm-3.895-.3a.85.85,0,1,1-.839.85.846.846,0,0,1,.839-.85ZM106.107,25.49c0-3.095,4-5.613,8.907-5.613s8.907,2.518,8.907,5.613a4.66,4.66,0,0,1-2.184,3.664.552.552,0,0,0-.216.553L122,32.133l-2.393-1.607a.553.553,0,0,0-.307-.094.546.546,0,0,0-.173.028,13.038,13.038,0,0,1-4.115.642c-4.912,0-8.908-2.518-8.908-5.613ZM151.185,65.47a2.888,2.888,0,0,1-2.873,2.9H115.1a2.888,2.888,0,0,1-2.873-2.9V40.047a14,14,0,1,0,0-27.436V4A2.888,2.888,0,0,1,115.1,1.1h3.43l2.646,6.93a.551.551,0,0,0,.515.355h20.029a.551.551,0,0,0,.515-.355L144.883,1.1h3.429A2.888,2.888,0,0,1,151.185,4V16.265c-.187-.009-.374-.014-.561-.014a12.32,12.32,0,0,0,0,24.64c.188,0,.375,0,.561-.014Zm.5-25.732c-.346.034-.7.051-1.058.051a11.217,11.217,0,0,1,0-22.434c.355,0,.711.017,1.059.051h0a11.225,11.225,0,0,1,0,22.331Z" transform="translate(14978.892 -525.001)" fill="#fafafa"/>
    <path id="Path_34861" data-name="Path 34861" d="M455.9,185.21H442.546a.551.551,0,0,0-.551.551v10.087a.551.551,0,0,0,.551.551H455.9a.551.551,0,0,0,.551-.551V185.761A.551.551,0,0,0,455.9,185.21Zm-.551,8.042-1.971-2.27a1.9,1.9,0,0,0-2.789-.093l-1.725,1.737-1.6-2.418a1.9,1.9,0,0,0-2.941-.293l-1.224,1.233v-4.835h8.4a3.417,3.417,0,0,0-.048.569,3.329,3.329,0,0,0,3.9,3.305Zm0-4.194a2.2,2.2,0,0,1-.561.075,2.244,2.244,0,0,1-2.231-2.251,2.28,2.28,0,0,1,.075-.569h2.717Z" transform="translate(14680.293 -687.235)" fill="#fafafa"/>
    <path id="Path_34862" data-name="Path 34862" d="M237.267,320.73a10.638,10.638,0,1,0,10.566,10.638A10.614,10.614,0,0,0,237.267,320.73Zm0,20.173a9.536,9.536,0,1,1,9.464-9.535A9.51,9.51,0,0,1,237.267,340.9Z" transform="translate(14868.88 -805.943)" fill="#fafafa"/>
    <path id="Path_34863" data-name="Path 34863" d="M296.484,370.487,290.365,366a.551.551,0,0,0-.877.445v8.966a.551.551,0,0,0,.877.445l6.12-4.482a.551.551,0,0,0,0-.89Z" transform="translate(14813.881 -845.506)" fill="#fafafa"/>
  </g>
</svg>
