<svg xmlns="http://www.w3.org/2000/svg" width="51.319" height="36.656" viewBox="0 0 51.319 36.656">
  <g id="noun-software-4296601" transform="translate(-105 -105)">
    <path id="Path_26403" data-name="Path 26403" d="M154.486,134.325H106.833A1.832,1.832,0,0,1,105,132.492V106.833A1.832,1.832,0,0,1,106.833,105h47.653a1.832,1.832,0,0,1,1.833,1.833v25.659A1.832,1.832,0,0,1,154.486,134.325Zm-45.82-3.666h43.987V108.666H108.666Z" fill="#fafafa"/>
    <path id="Path_26404" data-name="Path 26404" d="M334.333,376.664a1.832,1.832,0,0,1-1.833-1.833v-5.5a1.833,1.833,0,0,1,3.666,0v5.5A1.832,1.832,0,0,1,334.333,376.664Z" transform="translate(-203.674 -235.008)" fill="#fafafa"/>
    <path id="Path_26405" data-name="Path 26405" d="M292.83,423.666h-11a1.833,1.833,0,1,1,0-3.666h11a1.833,1.833,0,0,1,0,3.666Z" transform="translate(-156.672 -282.009)" fill="#fafafa"/>
    <path id="Path_26406" data-name="Path 26406" d="M217.333,189.661a1.827,1.827,0,0,1-1.3-.537l-5.5-5.5a1.832,1.832,0,0,1,0-2.592l5.5-5.5a1.833,1.833,0,0,1,2.592,2.592l-4.2,4.2,4.2,4.2a1.833,1.833,0,0,1-1.3,3.128Z" transform="translate(-94.005 -62.667)" fill="#fafafa"/>
    <path id="Path_26407" data-name="Path 26407" d="M404.331,189.661a1.833,1.833,0,0,1-1.3-3.129l4.2-4.2-4.2-4.2a1.833,1.833,0,0,1,2.592-2.592l5.5,5.5a1.832,1.832,0,0,1,0,2.592l-5.5,5.5A1.827,1.827,0,0,1,404.331,189.661Z" transform="translate(-266.341 -62.667)" fill="#fafafa"/>
    <path id="Path_26408" data-name="Path 26408" d="M316.837,189.648a1.834,1.834,0,0,1-1.738-2.414l3.666-11a1.832,1.832,0,1,1,3.475,1.16l-3.666,11a1.832,1.832,0,0,1-1.738,1.254Z" transform="translate(-188.01 -62.653)" fill="#fafafa"/>
  </g>
</svg>
