<svg xmlns="http://www.w3.org/2000/svg" width="78.692" height="78.692" viewBox="0 0 78.692 78.692">
  <path id="Path_34843" data-name="Path 34843" d="M119.471,36.974a1.84,1.84,0,0,1,1.714-3.257,12.927,12.927,0,0,1,0,22.869,1.84,1.84,0,0,1-1.714-3.257,9.3,9.3,0,0,0,3.607-3.416,9.278,9.278,0,0,0,0-9.527,9.3,9.3,0,0,0-3.607-3.416Zm5.267-21.948a31.7,31.7,0,0,1,17.4,13.671A1.84,1.84,0,0,1,139,30.614a27.976,27.976,0,0,0-14.84-11.9,9.611,9.611,0,1,1,.576-3.684Zm20.537,39.716a31.712,31.712,0,0,1-13.669,17.4A1.84,1.84,0,1,1,129.69,69a27.976,27.976,0,0,0,11.9-14.84,9.611,9.611,0,1,1,3.684.576ZM105.56,75.279a31.712,31.712,0,0,1-17.4-13.669A1.84,1.84,0,0,1,91.3,59.693a27.976,27.976,0,0,0,14.84,11.9,9.611,9.611,0,1,1-.576,3.684ZM85.023,35.563a31.712,31.712,0,0,1,13.669-17.4,1.84,1.84,0,0,1,1.917,3.141,27.942,27.942,0,0,0-11.9,14.838,9.611,9.611,0,1,1-3.684-.576Zm-3.8,5.41A5.907,5.907,0,1,0,85.4,39.242,5.893,5.893,0,0,0,81.224,40.973Zm29.747,38.1A5.907,5.907,0,1,0,109.24,74.9,5.893,5.893,0,0,0,110.971,79.077Zm38.1-29.747a5.907,5.907,0,1,0-4.178,1.731A5.893,5.893,0,0,0,149.075,49.33Zm-29.747-38.1a5.907,5.907,0,1,0,1.731,4.178A5.893,5.893,0,0,0,119.328,11.226Zm-8.5,42.1a1.84,1.84,0,1,1-1.714,3.257,12.927,12.927,0,0,1,0-22.869,1.84,1.84,0,1,1,1.714,3.257,9.253,9.253,0,0,0,0,16.359Z" transform="translate(-75.804 -5.808)" fill="#ff5851"/>
</svg>
