<svg xmlns="http://www.w3.org/2000/svg" width="25.76" height="24" viewBox="0 0 25.76 24">
  <g id="Group_20" data-name="Group 20" transform="translate(-639.202 -1279.497)">
    <path id="Path_1895" data-name="Path 1895" d="M85.962,42.867a.664.664,0,1,1-.95.927,8.827,8.827,0,0,1-2.06-3.369.664.664,0,1,1,1.261-.414,7.493,7.493,0,0,0,1.749,2.857ZM99.17,39.577a.661.661,0,0,0-.839.422,7.49,7.49,0,0,1-1.749,2.867.664.664,0,1,0,.95.927,8.822,8.822,0,0,0,2.06-3.369.664.664,0,0,0-.422-.847Zm-9.558-9.133a7.526,7.526,0,0,1,3.345,0,.664.664,0,1,0,.3-1.293,8.852,8.852,0,0,0-3.937,0,.664.664,0,0,0,.281,1.29Zm-6.327-3.857a2.774,2.774,0,1,1-1.963.8A2.774,2.774,0,0,1,83.286,26.587Zm0,1.327a1.426,1.426,0,1,0,1.46,1.426,1.444,1.444,0,0,0-1.46-1.426Zm.669,7.142,1.288-1.269h.4a1.187,1.187,0,0,1,1.2,1.171v1.521a.664.664,0,1,0,1.327,0V34.958a2.517,2.517,0,0,0-2.53-2.5h-.674a.664.664,0,0,0-.465.191l-1.221,1.2-1.221-1.2h0a.664.664,0,0,0-.465-.191h-.682a2.517,2.517,0,0,0-2.522,2.5v1.521a.664.664,0,1,0,1.327,0V34.958a1.187,1.187,0,0,1,1.195-1.171h.4l1.29,1.269a.958.958,0,0,0,1.343,0Zm18.09-5.718a2.788,2.788,0,1,1-1.394-2.414A2.788,2.788,0,0,1,102.045,29.338Zm-1.327,0a1.46,1.46,0,1,0-1.46,1.426,1.444,1.444,0,0,0,1.46-1.426Zm.908,3.122h-.682a.664.664,0,0,0-.465.191l-1.221,1.2-1.221-1.2h0a.664.664,0,0,0-.465-.191H96.9a2.517,2.517,0,0,0-2.53,2.5v1.521a.664.664,0,1,0,1.327,0V34.958a1.187,1.187,0,0,1,1.2-1.171h.4l1.29,1.266a.958.958,0,0,0,1.327,0l1.3-1.266h.411a1.187,1.187,0,0,1,1.2,1.171v1.521a.664.664,0,1,0,1.327,0V34.958a2.517,2.517,0,0,0-2.53-2.5ZM88.484,42.742a2.775,2.775,0,1,1,.825,1.953,2.787,2.787,0,0,1-.825-1.953Zm1.327,0a1.46,1.46,0,1,0,1.46-1.423,1.445,1.445,0,0,0-1.46,1.423Zm3.82,3.122h-.674a.663.663,0,0,0-.464.191l-1.221,1.2-1.221-1.2a.663.663,0,0,0-.464-.191h-.674a2.517,2.517,0,0,0-2.53,2.5v1.521h0a.664.664,0,0,0,1.327,0V48.362a1.187,1.187,0,0,1,1.2-1.171h.4l1.29,1.269h0a.958.958,0,0,0,1.327,0l1.29-1.266h.4a1.187,1.187,0,0,1,1.2,1.171v1.521a.664.664,0,1,0,1.327,0V48.362a2.517,2.517,0,0,0-2.525-2.5Z" transform="translate(560.807 1252.947)" fill="#3a499f"/>
  </g>
</svg>
