<svg id="teb" xmlns="http://www.w3.org/2000/svg" width="92.975" height="92.975" viewBox="0 0 92.975 92.975">
  <path id="Path_362" data-name="Path 362" d="M84.939-7.409V85.235a.964.964,0,0,1-.489.043q-45.9,0-91.805,0a1.519,1.519,0,0,1-.494-.028c-.138-.19-.079-.409-.079-.614q-.005-5.886,0-11.772v-79.5c0-.93-.076-.861.849-.861q45.636,0,91.272,0A1.22,1.22,0,0,1,84.939-7.409Z" transform="translate(8.031 7.641)" fill="#505050"/>
  <path id="Path_363" data-name="Path 363" d="M84.02-8.717h-92.1a3.044,3.044,0,0,1-.362,0c-.246-.028-.371.05-.336.319a2.85,2.85,0,0,1,0,.361q0,45.686,0,91.373c0,.2.011.391.017.587.058.034.057.066,0,.094-.057-.037-.192.088-.183-.091.005-.105,0-.211,0-.317q0-46.04-.01-92.078c0-.367.073-.441.441-.44q46.061.016,92.122.022C83.729-8.885,84.032-9.109,84.02-8.717Z" transform="translate(8.95 8.949)" fill="#f9f9f9"/>
  <path id="Path_364" data-name="Path 364" d="M-6.82,1023.954c0-.031,0-.063,0-.094.211,0,.423,0,.634,0h92.14c-.02.028.046.094-.045.092-.12,0-.242,0-.362,0Z" transform="translate(7.012 -930.988)" fill="#a7a7a7"/>
  <path id="Path_365" data-name="Path 365" d="M614.029,312.371H600.893c-.136,0-.272,0-.407,0-1.267-.072-1.758-.586-1.759-1.852q0-4.1,0-8.195c0-1.28.539-1.814,1.822-1.814h11.188c1.246,0,1.771.517,1.772,1.751,0,1.524-.007,3.048.007,4.573,0,.294-.076.387-.378.384q-3.012-.019-6.025,0c-.316,0-.385-.111-.374-.391.016-.422.022-.846,0-1.267-.016-.294.1-.35.37-.347,1.314.012,2.628-.009,3.94.014.371.006.46-.112.445-.46-.026-.6-.015-1.207,0-1.811.006-.323-.112-.46-.451-.46q-4.938.011-9.875,0c-.342,0-.449.144-.448.462q.008,3.441,0,6.882c0,.37.162.516.521.511.619-.01,1.238,0,1.857,0H626.6c.713,0,.738-.025.738-.736,0-.589,0-1.177,0-1.766s-.052-.637-.655-.637c-3.579,0-7.157-.008-10.736.01-.431,0-.558-.094-.551-.54.027-1.916.02-3.833,0-5.75,0-.336.081-.454.426-.43a8.753,8.753,0,0,0,1.267,0c.334-.024.394.105.39.409-.016,1.3.006,2.6-.015,3.894-.006.346.1.423.43.421,3.186-.013,6.372-.007,9.558-.008a2.078,2.078,0,0,1,1.14.214,1.341,1.341,0,0,1,.69,1.106,38.125,38.125,0,0,1-.01,4.522,1.325,1.325,0,0,1-1.258,1.264,6.626,6.626,0,0,1-.812.047Q620.622,312.375,614.029,312.371Z" transform="translate(-544.082 -272.67)" fill="#fefefe"/>
  <path id="Path_366" data-name="Path 366" d="M84.036,773.009c0-1.931-.007-3.862.007-5.793,0-.34-.078-.438-.433-.4a3.818,3.818,0,0,0-3.419,2.74,7.65,7.65,0,0,0-.386,1.762c-.016.158-.017.394-.269.28-.21-.094-.624.13-.611-.335.046-1.657.109-3.314.15-4.97.006-.239.107-.261.3-.261q5.886.005,11.773,0c.227,0,.334.058.34.293.04,1.643.086,3.285.125,4.928.011.461-.394.256-.606.347-.279.119-.239-.142-.259-.281a7.41,7.41,0,0,0-.678-2.423A3.792,3.792,0,0,0,86.8,766.8c-.388-.035-.27.228-.271.406,0,3.063-.01,6.125,0,9.187a18.307,18.307,0,0,0,.058,2.756c.149.955.468,1.251,1.432,1.393a4.534,4.534,0,0,0,.54.052c.53.013.685.231.545.746-.068.253-.263.157-.406.157q-3.056.009-6.113,0a4.251,4.251,0,0,0-.633.005c-.43.065-.528-.119-.515-.52.01-.315.087-.445.4-.393a1.181,1.181,0,0,0,.226,0c1.39-.041,1.914-.544,1.929-1.935.02-1.885.005-3.77.005-5.655Z" transform="translate(-71.024 -696.342)" fill="#fefefe"/>
  <path id="Path_367" data-name="Path 367" d="M86.114,300.393v.548c0,.678,0,.678-.7.678a5.339,5.339,0,0,0-.679.005c-.389.049-.512-.075-.507-.486.023-1.946.011-3.892.011-5.838,0-2.021.009-4.043-.008-6.064,0-.363.075-.519.466-.484a7.545,7.545,0,0,0,1.131,0c.3-.018.386.08.382.379-.015,1.312-.006,2.625-.006,3.937v.562c.2-.229.315-.37.438-.5a3.185,3.185,0,0,1,5.227.962,7.1,7.1,0,0,1-.017,5.926,3.168,3.168,0,0,1-5.556.451C86.27,300.415,86.246,300.353,86.114,300.393Z" transform="translate(-75.85 -261.977)" fill="#fefefe"/>
  <path id="Path_368" data-name="Path 368" d="M297.693,335.124a3.252,3.252,0,0,1-3.637,1.167c-2.153-.54-2.146-3.439-1.012-4.509a4.746,4.746,0,0,1,2.923-1.161c.433-.045.873-.039,1.31-.049.16,0,.272,0,.3-.228a1.6,1.6,0,0,0-2.159-1.825,1.2,1.2,0,0,0-.849.8.372.372,0,0,1-.442.32,10.845,10.845,0,0,0-1.221,0c-.295.015-.355-.073-.294-.361a3.035,3.035,0,0,1,2.869-2.456,4.994,4.994,0,0,1,1.263.026,3.106,3.106,0,0,1,2.76,3.4c.013,1.221,0,2.443,0,3.664,0,.7.072.787.754.78.183,0,.2.07.2.206,0,.227,0,.452,0,.679,0,.674,0,.674-.692.759A1.689,1.689,0,0,1,297.693,335.124Z" transform="translate(-265.199 -296.605)" fill="#fefefe"/>
  <path id="Path_369" data-name="Path 369" d="M195.155,332.251c-.861,0-1.721.015-2.582-.007-.322-.008-.4.112-.338.391s.094.566.176.838a1.794,1.794,0,0,0,1.469,1.422,1.83,1.83,0,0,0,2.066-.853.359.359,0,0,1,.366-.194c.483.009.967.017,1.449,0,.313-.013.306.122.232.353a3.647,3.647,0,0,1-3.208,2.413,3.763,3.763,0,0,1-4.3-3.181,7.234,7.234,0,0,1,.1-3.711,3.821,3.821,0,0,1,7.435.288,8.625,8.625,0,0,1,.178,1.887c0,.276-.092.367-.369.362C196.937,332.242,196.046,332.251,195.155,332.251Z" transform="translate(-172.372 -296.715)" fill="#fefefe"/>
  <path id="Path_370" data-name="Path 370" d="M83.669,121.84c-.861,0-1.721.018-2.581-.008-.374-.012-.425.118-.361.444a5.3,5.3,0,0,0,.295,1.132,1.948,1.948,0,0,0,3.383.272.382.382,0,0,1,.389-.228c.483.013.967.019,1.449,0,.286-.012.321.074.238.33a3.607,3.607,0,0,1-3.059,2.407,3.852,3.852,0,0,1-4.537-3.538,7.264,7.264,0,0,1,.256-3.572,3.808,3.808,0,0,1,7.246.109,7.466,7.466,0,0,1,.281,2.369c0,.26-.116.29-.328.288C85.45,121.835,84.56,121.84,83.669,121.84Z" transform="translate(-70.887 -105.216)" fill="#fefefe"/>
  <path id="Path_371" data-name="Path 371" d="M243.855,123.453a3.466,3.466,0,0,1-3.118,2.732,3.869,3.869,0,0,1-4.542-3.641,7.407,7.407,0,0,1,.263-3.44,3.674,3.674,0,0,1,3.714-2.61,3.624,3.624,0,0,1,3.545,2.7,7.359,7.359,0,0,1,.281,2.279c0,.3-.109.368-.393.365-1.721-.013-3.442,0-5.162-.015-.374,0-.477.1-.38.452.067.246.075.509.149.753a1.96,1.96,0,0,0,3.556.6.288.288,0,0,1,.277-.18C242.646,123.456,243.249,123.453,243.855,123.453Z" transform="translate(-214.072 -105.213)" fill="#fefefe"/>
  <path id="Path_372" data-name="Path 372" d="M586.593,121.171a5.253,5.253,0,0,1,1.183-3.609,4.017,4.017,0,0,1,6.526,1.005,6.345,6.345,0,0,1,.06,5.144,4.015,4.015,0,0,1-7.581-.835A6.546,6.546,0,0,1,586.593,121.171Z" transform="translate(-533.038 -105.045)" fill="#fefefe"/>
  <path id="Path_373" data-name="Path 373" d="M701.219,117.844a2.738,2.738,0,0,1,2.031-1.431,2.653,2.653,0,0,1,3.295,2.44,32.02,32.02,0,0,1,.067,3.527c.016,1.026-.008,2.052.011,3.078.005.3-.088.4-.382.383a10.258,10.258,0,0,0-1.222,0c-.338.024-.39-.118-.388-.416.013-1.735.006-3.47.005-5.206,0-.181,0-.362-.017-.542-.078-.816-.415-1.272-1.039-1.417a1.749,1.749,0,0,0-1.934.742,2.652,2.652,0,0,0-.378,1.467c0,1.645-.007,3.289.009,4.934,0,.326-.065.465-.419.44a12.423,12.423,0,0,0-1.268,0c-.226.006-.319-.058-.319-.3q.011-4.3,0-8.6c0-.2.035-.3.27-.3.437.016.876.017,1.313,0,.241-.009.272.106.264.3-.01.281,0,.565,0,.847C701.151,117.806,701.185,117.825,701.219,117.844Z" transform="translate(-635.585 -105.092)" fill="#fefefe"/>
  <path id="Path_374" data-name="Path 374" d="M856.252,119.74a2.1,2.1,0,0,0-.272,0,.694.694,0,0,1-.9-.536,1.45,1.45,0,0,0-1.467-.938,1.683,1.683,0,0,0-1.579.793,4.157,4.157,0,0,0-.513,2.35,4.3,4.3,0,0,0,.365,1.894,1.741,1.741,0,0,0,1.746,1.048,1.585,1.585,0,0,0,1.565-1.2.347.347,0,0,1,.417-.288c.452.015.907.025,1.358,0,.328-.02.328.116.274.37a3.594,3.594,0,0,1-3.928,2.931,3.8,3.8,0,0,1-3.7-3.5,6.672,6.672,0,0,1,.409-4.032,3.73,3.73,0,0,1,3.953-2.177,3.559,3.559,0,0,1,3.266,2.908c.074.323-.012.406-.316.381C856.706,119.726,856.478,119.74,856.252,119.74Z" transform="translate(-772.29 -105.154)" fill="#fefefe"/>
  <path id="Path_375" data-name="Path 375" d="M346.745,122.84a3.512,3.512,0,0,1-2.958,3.239,3.719,3.719,0,0,1-4.242-2.012,6.442,6.442,0,0,1,.077-5.717,3.666,3.666,0,0,1,3.876-1.912,3.551,3.551,0,0,1,3.19,2.825c.085.357.021.5-.366.456a2.731,2.731,0,0,0-.542,0c-.6.046-1.03.012-1.347-.7a1.737,1.737,0,0,0-2.842-.118,2.961,2.961,0,0,0-.552,1.508,5.542,5.542,0,0,0,.224,2.674,1.748,1.748,0,0,0,1.746,1.25,1.639,1.639,0,0,0,1.667-1.257c.051-.138.077-.241.259-.238C345.539,122.845,346.14,122.84,346.745,122.84Z" transform="translate(-307.635 -105.129)" fill="#fefefe"/>
  <path id="Path_376" data-name="Path 376" d="M473.2,329.754a3.46,3.46,0,0,0-.452,0,.5.5,0,0,1-.636-.428,1.085,1.085,0,0,0-1.026-.763,1.345,1.345,0,0,0-1.35.556,1.024,1.024,0,0,0,.6,1.557c.7.235,1.432.371,2.121.627a2.719,2.719,0,0,1,.738,4.619,4.066,4.066,0,0,1-4.962-.281,2.993,2.993,0,0,1-.711-1.441c-.055-.241-.012-.375.278-.35a4.764,4.764,0,0,0,.679,0c.487-.028.854-.012,1.129.567a1.6,1.6,0,0,0,2.35.2,1.041,1.041,0,0,0-.293-1.648,7.258,7.258,0,0,0-1.586-.51c-.144-.044-.294-.068-.438-.112a2.549,2.549,0,0,1-2.009-2.744,2.68,2.68,0,0,1,2.1-2.515,3.446,3.446,0,0,1,3.916,1.2,2.962,2.962,0,0,1,.214.4C474.321,329.721,474.3,329.754,473.2,329.754Z" transform="translate(-424.658 -296.724)" fill="#fefefe"/>
  <path id="Path_377" data-name="Path 377" d="M394.608,304.8c0,.48-.009.9,0,1.323a.308.308,0,0,1-.258.354,4.016,4.016,0,0,1-2.317.084,2.384,2.384,0,0,1-1.669-2.513c-.012-1.495-.021-2.989.009-4.483.008-.42-.127-.54-.506-.476a.15.15,0,0,1-.045,0c-.356-.032-.908.164-1.03-.076a3.406,3.406,0,0,1-.067-1.51c0-.189.171-.131.278-.133.347-.007.7-.013,1.041,0,.227.009.35-.053.317-.3a.745.745,0,0,0,0-.09c-.344-1.379.765-1.951,1.513-2.725a.347.347,0,0,1,.382-.069c.149.058.081.21.082.319.005.83.016,1.661,0,2.49-.007.3.085.388.38.378.588-.021,1.178.006,1.766-.012.264-.008.338.086.326.337-.018.361-.016.725,0,1.086.01.239-.08.313-.314.308-.589-.014-1.178.007-1.766-.009-.273-.008-.4.039-.393.361.019,1.464,0,2.928.011,4.392a1,1,0,0,0,1.089,1.106A4.181,4.181,0,0,0,394.608,304.8Z" transform="translate(-352.92 -266.902)" fill="#fefefe"/>
  <path id="Path_378" data-name="Path 378" d="M436.534,91.743c0-.784-.017-1.569.008-2.352.011-.329-.1-.415-.406-.389s-.634-.009-.95.01c-.245.014-.312-.078-.3-.31.021-.451-.145-1.021.072-1.32s.816-.078,1.247-.088c.243-.005.382-.055.33-.321a2.134,2.134,0,0,1,1-2.3c.282-.2.466-.708.854-.531.313.143.1.6.116.911a16.86,16.86,0,0,1,0,1.808c-.022.378.12.451.457.434.557-.025,1.117.011,1.674-.014.292-.013.368.09.343.359-.041.445.187,1.041-.1,1.295-.245.22-.83.071-1.265.072-1.1,0-1.1,0-1.1,1.084,0,1.161,0,2.323,0,3.484,0,.995.446,1.392,1.442,1.3.263-.024.612-.212.762-.047s.058.513.058.783c0,.788,0,.791-.8.922a5.359,5.359,0,0,1-.718.08A2.415,2.415,0,0,1,436.537,94C436.522,93.251,436.534,92.5,436.534,91.743Z" transform="translate(-394.937 -75.734)" fill="#fefefe"/>
  <path id="Path_379" data-name="Path 379" d="M186.989,84.234c0-1.7.021-3.41-.013-5.113-.01-.482.145-.6.584-.555a7.949,7.949,0,0,0,1.085,0c.233-.009.319.07.313.309-.014.513,0,1.026,0,1.539V88.88c0,.853.235,1.069,1.066.926.231-.04.293-.007.281.22a3.132,3.132,0,0,0,.005.768c.105.539-.191.669-.63.731a2.8,2.8,0,0,1-1.679-.2,1.682,1.682,0,0,1-.967-1.574c-.022-1.84-.008-3.68-.008-5.519Z" transform="translate(-169.357 -70.689)" fill="#fefefe"/>
  <path id="Path_380" data-name="Path 380" d="M522.76,119.569a2.768,2.768,0,0,1,2.619-1.268c.311.018.424.121.406.434-.023.422.128.915-.045,1.249-.2.391-.748.1-1.139.182a1.793,1.793,0,0,0-1.675,1.821c-.056,1.7-.047,3.409-.036,5.114,0,.39-.084.546-.5.5a7.093,7.093,0,0,0-1.131,0c-.289.017-.352-.094-.352-.365q.013-4.234,0-8.467c0-.3.089-.391.38-.371a7.425,7.425,0,0,0,1.086,0c.335-.028.415.107.388.41C522.741,119.059,522.76,119.314,522.76,119.569Z" transform="translate(-473.264 -106.852)" fill="#fefefe"/>
  <path id="Path_381" data-name="Path 381" d="M806.387,123.992c0-1.388.009-2.775-.007-4.162,0-.312.072-.427.4-.406.436.028.875.017,1.312,0,.219-.007.281.069.28.283q-.01,4.32,0,8.642c0,.231-.1.278-.3.274-.437-.009-.876-.017-1.313,0-.294.013-.385-.083-.381-.383C806.4,126.828,806.387,125.41,806.387,123.992Z" transform="translate(-733.063 -107.879)" fill="#fefefe"/>
  <path id="Path_382" data-name="Path 382" d="M80.361,847.923c-.437,0-.874-.007-1.311,0-.194,0-.262-.061-.26-.258q.012-1.333,0-2.666c0-.207.087-.252.272-.251.859.006,1.718.009,2.577,0,.232,0,.318.068.315.308q-.018,1.288,0,2.575c0,.257-.112.3-.327.293C81.2,847.916,80.782,847.923,80.361,847.923Z" transform="translate(-70.9 -767.983)" fill="#fefefe"/>
  <path id="Path_383" data-name="Path 383" d="M289.37,846.332c0-.437.006-.874,0-1.311,0-.194.065-.263.261-.262q1.334.011,2.668,0c.21,0,.248.1.247.275-.005.874-.008,1.748,0,2.621,0,.219-.072.282-.285.281-.874-.009-1.748-.011-2.623,0-.229,0-.276-.091-.271-.294C289.378,847.206,289.37,846.769,289.37,846.332Z" transform="translate(-262.54 -767.992)" fill="#fefefe"/>
  <path id="Path_384" data-name="Path 384" d="M188.234,846.335c0,.422-.007.844,0,1.266.005.212-.027.332-.288.327-.859-.014-1.718-.011-2.578,0-.223,0-.283-.085-.281-.293.007-.859.009-1.718,0-2.577,0-.236.082-.311.316-.308q1.267.017,2.533,0c.25,0,.306.1.3.321C188.225,845.492,188.234,845.913,188.234,846.335Z" transform="translate(-167.641 -767.982)" fill="#fefefe"/>
  <path id="Path_385" data-name="Path 385" d="M395.557,844.749c.422,0,.844.009,1.266,0,.212-.006.3.064.295.281q-.011,1.311,0,2.622c0,.228-.1.274-.3.272-.844-.007-1.689-.009-2.533,0-.228,0-.318-.055-.315-.3q.02-1.288,0-2.577c0-.246.094-.308.32-.3C394.713,844.759,395.134,844.749,395.557,844.749Z" transform="translate(-357.737 -767.978)" fill="#fefefe"/>
  <path id="Path_386" data-name="Path 386" d="M808.439,79.773c0,1.076,0,1.076-1.06,1.076-.919,0-.919,0-.919-.954,0-1.175,0-1.175,1.113-1.175.866,0,.866,0,.866.872Z" transform="translate(-733.137 -70.837)" fill="#fdfdfd"/>
  <path id="Path_387" data-name="Path 387" d="M644.626,353c.984,0,.984,0,.984.969,0,1.024,0,1.024-1.023,1.024s-1.016,0-1.016-1S643.57,353,644.626,353Z" transform="translate(-584.894 -320.453)" fill="#fdfdfd"/>
  <path id="Path_388" data-name="Path 388" d="M110.262,350.1a4.957,4.957,0,0,1-.262,1.8,1.823,1.823,0,0,1-1.8,1.313,1.8,1.8,0,0,1-1.847-1.245,5.015,5.015,0,0,1-.013-3.575,1.944,1.944,0,0,1,3.657.048,3.187,3.187,0,0,1,.173.606A4.541,4.541,0,0,1,110.262,350.1Z" transform="translate(-95.678 -315.109)" fill="#505050"/>
  <path id="Path_389" data-name="Path 389" d="M316.166,384.445c.741-.046.741-.046.7.71a2.107,2.107,0,0,1-2.058,2.182,1.2,1.2,0,0,1-1.255-.889,1.352,1.352,0,0,1,.6-1.562,2.6,2.6,0,0,1,.975-.335C315.477,384.5,315.822,384.479,316.166,384.445Z" transform="translate(-284.504 -349.055)" fill="#505050"/>
  <path id="Path_390" data-name="Path 390" d="M214.624,347.87c-.573,0-1.146-.007-1.718,0-.232,0-.316-.046-.277-.306a2.01,2.01,0,0,1,2.576-1.716,2.04,2.04,0,0,1,1.4,1.819c.006.226-.128.2-.259.2C215.769,347.871,215.2,347.87,214.624,347.87Z" transform="translate(-192.695 -313.874)" fill="#515151"/>
  <path id="Path_391" data-name="Path 391" d="M102.914,137.643c-.574,0-1.147,0-1.72,0-.172,0-.277-.009-.254-.24a2,2,0,0,1,3.987.034c.006.218-.108.2-.248.2Z" transform="translate(-91.055 -122.559)" fill="#505050"/>
  <path id="Path_392" data-name="Path 392" d="M260.152,137.658c-.558,0-1.117-.006-1.675,0-.2,0-.3-.023-.262-.27a2.018,2.018,0,0,1,2.646-1.727,2.066,2.066,0,0,1,1.335,1.819c-.009.241-.165.17-.281.172C261.33,137.661,260.741,137.658,260.152,137.658Z" transform="translate(-234.184 -122.574)" fill="#505050"/>
  <path id="Path_393" data-name="Path 393" d="M608.81,139.858a4.774,4.774,0,0,1,.344-1.811,1.824,1.824,0,0,1,1.827-1.152,1.763,1.763,0,0,1,1.741,1.2,5.056,5.056,0,0,1,0,3.663,1.785,1.785,0,0,1-1.819,1.22,1.878,1.878,0,0,1-1.815-1.31A5.258,5.258,0,0,1,608.81,139.858Z" transform="translate(-553.26 -123.78)" fill="#505050"/>
</svg>
