<svg xmlns="http://www.w3.org/2000/svg" width="57.998" height="57.993" viewBox="0 0 57.998 57.993">
  <g id="Group_5351" data-name="Group 5351" transform="translate(-7967.4 -289)">
    <path id="Path_34627" data-name="Path 34627" d="M440.5.816c1.4,1.379,3.163,3.122,3.912,3.86,2.107-.827,4.411-1.506,6.626-2.18a1.647,1.647,0,0,1,1.718.348q.385.407.767.819h0a.545.545,0,0,1-.113.8c-1.731,1.222-3.774,2.152-5.522,3.39a.122.122,0,0,0-.028.177c.269.324,1.444,1.7,2.472,2.858a.3.3,0,0,0,.272.089c.7-.34,1.009-.453,1.7-.779h0a.736.736,0,0,1,.821.194c.379.422.816.906,1.212,1.352a.318.318,0,0,1-.076.489,23.029,23.029,0,0,0-3.265,2,1.311,1.311,0,0,0-.274.275,24.406,24.406,0,0,0-1.994,3.267.318.318,0,0,1-.493.089c-.453-.4-.932-.834-1.359-1.213h0a.741.741,0,0,1-.194-.822c.326-.693.446-1,.779-1.7h0a.3.3,0,0,0-.089-.272c-1.161-1.028-2.534-2.2-2.858-2.472h0a.122.122,0,0,0-.176.03c-1.238,1.747-2.168,3.79-3.391,5.522a.544.544,0,0,1-.8.108c-.275-.254-.547-.508-.819-.766a1.645,1.645,0,0,1-.347-1.718c.68-2.226,1.354-4.521,2.18-6.626-.74-.75-2.483-2.51-3.861-3.912a2.669,2.669,0,0,1-.288-3.487c.876-.879,2.6-.583,3.486.288Z" transform="translate(7568.87 289.003)" fill="#141418"/>
    <path id="Path_34628" data-name="Path 34628" d="M582.769,150.209a1.02,1.02,0,0,1-1.126-.557,17.988,17.988,0,0,0-1.184-2.093,1.019,1.019,0,0,1,1.7-1.12,19.9,19.9,0,0,1,1.318,2.33,1.02,1.02,0,0,1-.477,1.359,1.081,1.081,0,0,1-.23.082Z" transform="translate(7439.926 158.093)" fill="#141418"/>
    <path id="Path_34629" data-name="Path 34629" d="M585.237,302.558a1.019,1.019,0,0,0-1.28.665A18.188,18.188,0,0,1,582,307.429a1.019,1.019,0,1,0,1.725,1.086,20.265,20.265,0,0,0,2.172-4.68,1.02,1.02,0,0,0-.659-1.277Z" transform="translate(7438.571 17.818)" fill="#141418"/>
    <path id="Path_34630" data-name="Path 34630" d="M517.736,382.258a18.056,18.056,0,0,1-3.762,2.71,1.019,1.019,0,0,0,.692,1.895,1.039,1.039,0,0,0,.276-.1,20.077,20.077,0,0,0,4.191-3.017,1.019,1.019,0,0,0-1.394-1.487Z" transform="translate(7499.883 -53.433)" fill="#141418"/>
    <path id="Path_34631" data-name="Path 34631" d="M608.347,209.646l-.011-.05a1.019,1.019,0,0,0-2,.417l.01.05h0a18.15,18.15,0,0,1,.366,4.575,1.019,1.019,0,0,0,.97,1.067.971.971,0,0,0,.258-.02,1.019,1.019,0,0,0,.809-.949,20.224,20.224,0,0,0-.405-5.089Z" transform="translate(7416.623 101.837)" fill="#141418"/>
    <path id="Path_34632" data-name="Path 34632" d="M216.4,285.344a3.147,3.147,0,0,0-3.65-2.862l-2.945.492a.873.873,0,0,1-.459-.049l-4.09-1.614h0a3.158,3.158,0,0,0-1.653-.179l-6.41,1.025a3.127,3.127,0,0,0-2.617,2.673l-.4,2.931h0a3.131,3.131,0,0,0,1.773,3.271l2.973,1.4a3.17,3.17,0,0,0,1.34.3h1.406a.86.86,0,0,1,.86.906l-.31,5.317a3.117,3.117,0,0,0,.48,1.868l1.649,2.605a3.12,3.12,0,0,0,2.348,1.447c.105.01.211.016.315.016h0a3.121,3.121,0,0,0,2.265-.975l3.133-3.29h0a3.151,3.151,0,0,0,.855-1.89l.505-5.728h0a.866.866,0,0,1,.113-.356l2.233-3.86a3.134,3.134,0,0,0,.412-1.812Zm-6.244,5.159a5.21,5.21,0,0,0-.673,2.129l-.469,5.324-1.826,1.917-.654-1.032.289-4.944h0a5.165,5.165,0,0,0-5.157-5.466h-1.144l-1.966-.928.17-1.232,5.246-.839,3.8,1.5h0a5.172,5.172,0,0,0,2.742.288l1.693-.282v.018Z" transform="translate(7786.117 37.018)" fill="#141418"/>
    <path id="Path_34633" data-name="Path 34633" d="M93.24,111.191a23.238,23.238,0,1,0,23.24,23.237,23.239,23.239,0,0,0-23.24-23.237Zm0,4.3a19.058,19.058,0,0,1,4.265.48l-.214.306h0a1.069,1.069,0,0,1-1.061.453l-1.133-.179h0a3.38,3.38,0,0,0-3.589,1.881l-2.591,5.373a1.089,1.089,0,0,1-.793.6l-1.586.273a1.11,1.11,0,0,1-.85-.2l-2.006-1.492a3.4,3.4,0,0,0-2.808-.578l-2.786.654h0a19.355,19.355,0,0,1,1.767-2.023A18.817,18.817,0,0,1,93.24,115.5Zm13.389,32.325a18.946,18.946,0,0,1-31.255-19.693c.055-.009.113-.019.165-.033l.775-.195,5.137-1.2,1.668,1.246h0a5.419,5.419,0,0,0,4.129.989l1.586-.273a5.406,5.406,0,0,0,3.949-2.973l2.3-4.773.468.075h0a5.358,5.358,0,0,0,5.256-2.229l.9-1.275h0a18.947,18.947,0,0,1,4.922,30.338Z" transform="translate(7897.4 189.325)" fill="#141418"/>
  </g>
</svg>
