<svg xmlns="http://www.w3.org/2000/svg" width="51.658" height="51.61" viewBox="0 0 51.658 51.61">
  <g id="Group_5424" data-name="Group 5424" transform="translate(-720.716 -3738)">
    <path id="Path_34814" data-name="Path 34814" d="M239.681,166.25a3.431,3.431,0,1,0,3.431,3.431A3.441,3.441,0,0,0,239.681,166.25Zm0,5.147a1.716,1.716,0,1,1,1.716-1.716A1.721,1.721,0,0,1,239.681,171.4Z" transform="translate(499.206 3586.455)" fill="#fafafa"/>
    <path id="Path_34815" data-name="Path 34815" d="M166.687,142.105a14.644,14.644,0,0,0-19.814,0l-2.488,2.316,2.488,2.316a14.644,14.644,0,0,0,19.814,0l2.488-2.316Zm-1.115,3.345a12.82,12.82,0,0,1-17.413,0l-1.2-1.029,1.2-1.029a12.82,12.82,0,0,1,17.413,0l1.2,1.029Z" transform="translate(582.066 3611.715)" fill="#fafafa"/>
    <path id="Path_34816" data-name="Path 34816" d="M136.569,62.262,124.388,50.082a2.161,2.161,0,0,0-2.23-.515l-4.032-4.032A18.045,18.045,0,1,0,89.82,23.147a17.854,17.854,0,0,0,3,25.3,18.05,18.05,0,0,0,22.474,0l4.032,4.032a2.161,2.161,0,0,0,.515,2.23l12.181,12.181a3.262,3.262,0,0,0,4.632,0,3.343,3.343,0,0,0-.086-4.632ZM87.761,34.384a16.3,16.3,0,1,1,16.3,16.3A16.291,16.291,0,0,1,87.761,34.384ZM116.5,47.336l.515-.515,3.86,3.86-.515.515Zm17.756,18.785a1.631,1.631,0,0,1-1.115-.429L120.956,53.511a.322.322,0,0,1,0-.515l1.716-1.716a.322.322,0,0,1,.515,0l12.181,12.181a1.606,1.606,0,0,1,0,2.23A1.807,1.807,0,0,1,134.252,66.121Z" transform="translate(634.829 3721.752)" fill="#fafafa"/>
    <path id="Path_34817" data-name="Path 34817" d="M129.19,43.75a15.44,15.44,0,1,0,15.44,15.44A15.486,15.486,0,0,0,129.19,43.75Zm0,29.165A13.725,13.725,0,1,1,142.915,59.19,13.765,13.765,0,0,1,129.19,72.915Z" transform="translate(609.697 3696.946)" fill="#fafafa"/>
    <path id="Path_34818" data-name="Path 34818" d="M440.759,65.539V95.561h1.716V65.539a4.247,4.247,0,0,0-4.289-4.289H428.75v1.716h9.436A2.527,2.527,0,0,1,440.759,65.539Z" transform="translate(325.578 3681.162)" fill="#fafafa"/>
    <path id="Path_34819" data-name="Path 34819" d="M132.966,376.078V367.5H131.25v8.578a4.247,4.247,0,0,0,4.289,4.289h30.022v-1.716H135.539A2.527,2.527,0,0,1,132.966,376.078Z" transform="translate(593.913 3404.934)" fill="#fafafa"/>
    <path id="Path_34820" data-name="Path 34820" d="M463.75,105h6.862v1.716H463.75Z" transform="translate(294.009 3641.7)" fill="#fafafa"/>
    <path id="Path_34821" data-name="Path 34821" d="M463.75,148.75h6.862v1.716H463.75Z" transform="translate(294.009 3602.24)" fill="#fafafa"/>
    <path id="Path_34822" data-name="Path 34822" d="M463.75,192.5h6.862v1.716H463.75Z" transform="translate(294.009 3562.778)" fill="#fafafa"/>
    <path id="Path_34823" data-name="Path 34823" d="M463.75,236.25h6.862v1.716H463.75Z" transform="translate(294.009 3523.317)" fill="#fafafa"/>
    <path id="Path_34824" data-name="Path 34824" d="M446.25,280h8.578v1.716H446.25Z" transform="translate(309.793 3483.856)" fill="#fafafa"/>
    <path id="Path_34825" data-name="Path 34825" d="M446.25,323.75h8.578v1.716H446.25Z" transform="translate(309.793 3444.395)" fill="#fafafa"/>
    <path id="Path_34826" data-name="Path 34826" d="M507.5,367.5h2.573v1.716H507.5Z" transform="translate(254.548 3404.934)" fill="#fafafa"/>
    <path id="Path_34827" data-name="Path 34827" d="M166.25,393.75h23.16v1.716H166.25Z" transform="translate(562.344 3381.258)" fill="#fafafa"/>
    <path id="Path_34828" data-name="Path 34828" d="M166.25,437.5h26.591v1.716H166.25Z" transform="translate(562.344 3341.796)" fill="#fafafa"/>
    <path id="Path_34829" data-name="Path 34829" d="M192.5,280h15.44v1.716H192.5Z" transform="translate(538.667 3483.856)" fill="#fafafa"/>
    <path id="Path_34830" data-name="Path 34830" d="M192.5,105h15.44v1.716H192.5Z" transform="translate(538.667 3641.7)" fill="#fafafa"/>
  </g>
</svg>
