<?xml version="1.0" encoding="utf-8"?>
<!-- Generator: Adobe Illustrator 26.3.1, SVG Export Plug-In . SVG Version: 6.00 Build 0)  -->
<svg version="1.1" id="Layer_1" xmlns="http://www.w3.org/2000/svg" xmlns:xlink="http://www.w3.org/1999/xlink" x="0px" y="0px"
	 viewBox="0 0 2560 625" style="enable-background:new 0 0 2560 625;" xml:space="preserve">
<style type="text/css">
	.st0{fill:#159DD6;}
	.st1{fill:#83BBE4;}
	.st2{fill:#9BC6E9;}
	.st3{fill:#FFFFFF;}
	.st4{fill:#FEFFFF;}
	.st5{fill:#FEFEFF;}
	.st6{fill:#FDFEFF;}
	.st7{fill:#FDFEFE;}
</style>
<path class="st0" d="M0.1,187.7c20.5,0.1,41,0.2,61.5,0.2c6.8,0,6.8,0,6.8,6.6c0,68.5-0.1,137,0.1,205.6c0,17.8,0.6,35.6,4.7,53
	c4.2,18.1,11.5,34.4,27.1,45.7c9.4,6.8,20.1,10.3,31.4,12c19.9,3,39.2,0.5,57.5-8.1c21.6-10.2,35-27.3,42.3-49.8
	c6.4-19.8,10-40,10.6-60.6c1.8-65.5,0.4-131,0.8-196.6c0-1.3,0.1-2.7,0-4c-0.2-2.7,0.8-3.8,3.7-3.8c21,0.1,42,0.1,63,0
	c2.8,0,4,0.9,3.7,3.7c-0.1,0.8,0,1.7,0,2.5c0,116.9,0,233.8,0.1,350.7c0,5-1.2,6.4-6.3,6.3c-18.5-0.3-37-0.3-55.5,0
	c-4.3,0.1-5.3-1.3-5.2-5.3c0.2-14,0.1-27.9,0.1-41.9c0-1.7,0.6-3.6-0.6-5.3c-2.2,0.1-2.5,2-3.3,3.3c-22,33.2-53.4,51.6-92.1,58.2
	c-25.5,4.4-50.8,4.3-75.3-5.1c-34-13-55.2-38.2-66.9-72.1c-3.5-10.1-5.4-20.5-6.9-31.1c-0.1-0.9,0.1-2-1.1-2.6c0-1,0-2,0-3
	c0.8-2,0.8-4,0-6C0.1,356.1,0.1,271.9,0.1,187.7z"/>
<path class="st0" d="M2559.1,267.7c-4.5,37.1-19.7,67.8-53.7,87.8c-1.2-8.6,0.2-16.6,2.4-24.3c10.1-36,24.2-70.2,46.2-100.8
	c1.1-1.5,2.2-2.9,3.3-4.3c2,0.5,1.1,2.8,2.6,3.5c0,11,0,22,0,32.9C2558.7,264.2,2559.9,266.1,2559.1,267.7z"/>
<path class="st1" d="M0.1,440.3c1.4,2,1.7,4,0,6C0.1,444.2,0.1,442.3,0.1,440.3z"/>
<path class="st2" d="M2559.1,267.7c-0.1-1.8-0.7-3.6,0.8-5.1c0,1.7,0,3.3,0,5C2559.6,267.7,2559.4,267.7,2559.1,267.7z"/>
<path class="st0" d="M1961.7,246.6c-0.8-132.9,108.8-241.9,242.4-241.9c130.2,0,242.5,104.7,242.3,242.1
	c-0.1,137.1-112.3,241.8-242.9,241.6C2069.8,488.3,1961,378.9,1961.7,246.6z"/>
<path class="st0" d="M1417.7,381.3c-40.7,0-81.3,0-122-0.1c-3.3,0-5.3,0.5-5.5,4.3c-1.5,30.8,2.6,60.5,19.9,86.9
	c19.3,29.4,47.6,39.9,81.9,37.1c12-1,23.8-2.9,34.9-7.9c21-9.4,32.1-26.7,38-47.9c1.3-4.6,2.3-9.4,3.1-14.1c0.4-2.6,1.3-3.7,4.1-3.7
	c21.8,0.1,43.7,0.1,65.5,0c3.2,0,3.3,1.2,2.8,3.9c-10.3,59.3-45.1,96.6-102.9,111.8c-39.9,10.5-80.1,10.7-119.5-3
	c-39.5-13.7-66-41.4-82.1-79.4c-10.9-25.7-15.6-52.8-17-80.5c-1.6-30.6,0.7-60.8,9.1-90.3c8.5-29.9,22.5-56.8,45.3-78.6
	c22.6-21.6,49.8-34.2,80.5-39c33.5-5.2,66.5-2.9,98.4,9c39.9,14.9,66.3,43.3,80.8,83c8.1,22.1,11.4,45,11.9,68.4
	c0.3,11.6-0.1,23.3,0.2,34.9c0.1,4.4-1.4,5.1-5.4,5.1C1499,381.2,1458.4,381.3,1417.7,381.3z"/>
<path class="st0" d="M450,238.7c10.9-16.4,24.1-30.1,40.5-40.6c27.2-17.4,56.9-24.2,89.1-20.7c24.5,2.6,47.8,8.5,68.8,21.8
	c29.3,18.5,44.3,45.9,48.7,79.7c1.1,8.4,1.1,16.9,1.1,25.4c0,79.5,0,159,0,238.5c0,7.2,0.8,6.2-6.5,6.3c-18.2,0-36.3,0.1-54.5,0
	c-8.3,0-7.2,1.2-7.2-7c0-73.2,0-146.4,0-219.5c0-13.7-1.1-27.2-4.7-40.5c-8-29.5-29-47.5-59.3-51.6c-22.9-3.1-44.8-1.2-65.4,10.1
	c-27.6,15.2-43.3,38.4-47.6,69.6c-2.1,15.4-3,30.7-3,46.2c0.1,63,0,126.1,0.1,189.1c0,4.2-0.8,5.7-5.4,5.6
	c-19.7-0.3-39.3-0.2-59-0.1c-3.5,0-4.5-1-4.5-4.5c0.1-117.9,0.1-235.8,0-353.8c0-4.2,1.5-5,5.2-4.9c19.5,0.1,39,0.2,58.5,0
	c4.4-0.1,5.2,1.5,5.2,5.5C449.8,208.5,450,223.6,450,238.7z"/>
<path class="st0" d="M1152.1,303.4c-9,0-18-0.3-27,0.1c-5.1,0.2-6.8-1.2-7.3-6.4c-1.1-12.3-4.4-24.2-10.2-35.2
	c-10.2-19.3-26.4-30.4-47.9-33.5c-23.2-3.2-45.2-0.6-64.4,14.2c-13.6,10.5-22.1,24.6-28.2,40.4c-7.2,18.6-10.4,38.1-11.8,57.9
	c-2,29.3-1.3,58.5,4.8,87.3c3.5,16.4,8.8,32,18.2,46.1c14.6,21.8,35.4,32.6,61.3,33.7c22.8,1,43.3-4.6,59.1-22.2
	c11.7-13.1,17.2-28.9,20.2-45.9c0.3-1.5,0.5-2.9,0.7-4.4c1.5-9.2,1.5-9.2,10.8-9.2c18.2,0,36.3,0,54.5,0c2.8,0,4.3,0.3,3.9,3.8
	c-3,27.1-11.1,52.3-28.1,74c-21,26.9-48.9,42.5-82.1,49.2c-34.9,7-69.3,4.9-102.6-7.7c-39.1-14.7-64.7-43.3-79.9-81.6
	c-9.5-24-13.8-49.1-15.4-74.8c-2-31.8,0.5-63.1,9.4-93.7c11.3-38.9,31.6-71.6,66.3-94.2c19.9-12.9,41.9-20.2,65.3-23
	c26.5-3.2,52.9-2.5,78.4,6.8c47,17.2,74.2,51,83,99.9c0.8,4.4,1.1,8.9,1.9,13.3c0.7,4-0.4,5.6-4.9,5.4
	C1170.7,303.1,1161.4,303.4,1152.1,303.4z"/>
<path class="st0" d="M1623.1,391.3c0-50.4-0.1-100.8,0.1-151.2c0-4.5-1.3-5.5-5.6-5.5c-17.3,0.3-34.7,0-52,0.2c-3.5,0-5-0.6-4.9-4.6
	c0.3-12.6,0.2-25.3,0-37.9c-0.1-3.6,1.1-4.5,4.6-4.5c17.5,0.1,35-0.1,52.5,0.2c4.6,0.1,5.5-1.4,5.4-5.6c-0.2-23.6-0.3-47.2,0-70.9
	c0.3-21.3,4.7-41.6,17.2-59.4c15-21.4,36.5-32.4,61.3-38c27.1-6.1,53.9-3.8,80.5,3.3c2.9,0.8,3.6,2.2,3.5,4.9
	c-0.1,16.1-0.1,32.3,0,48.4c0,3.3-1,4.4-4.3,4.1c-6.8-0.6-13.6-1-20.4-1.5c-15.4-1.1-30.6-0.8-45.4,4.2c-15,5.1-23,16.1-23.5,31.4
	c-0.8,25.1-0.2,50.2-0.4,75.3c0,4.1,2.4,3.5,4.9,3.5c24.5,0,49,0.1,73.5-0.1c4.6,0,6,1.2,5.9,5.8c-0.3,12.1-0.3,24.3,0,36.4
	c0.1,3.7-1,4.8-4.8,4.7c-24.7-0.2-49.3,0-74-0.2c-4.5,0-5.5,1.2-5.5,5.6c0.1,100.3,0.1,200.6,0.2,300.9c0,4.8-1.2,6.1-6,6
	c-19-0.3-38-0.3-57,0c-5,0.1-5.9-1.5-5.9-6.1C1623.2,491.2,1623.1,441.3,1623.1,391.3z"/>
<path class="st0" d="M831.1,369.9c0,58.2,0,116.4,0,174.6c0,7.3,0.8,6.5-6.3,6.5c-18.5,0-37,0-55.5,0c-7.3,0-6.5,0.9-6.5-6.3
	c0-97.8,0-195.6,0-293.3c0-19.1,0.2-38.2-0.1-57.4c-0.1-5.3,1.6-6.2,6.4-6.2c18.8,0.3,37.6,0.3,56.5,0c4.4-0.1,5.6,1,5.6,5.5
	C831.1,252.2,831.1,311.1,831.1,369.9z"/>
<path class="st0" d="M2189.8,543c-13.1-5.7-25.5-9.7-38.7-11.2c-1.8-0.2-2.9,0.4-3.9,1.6c-13.6,15.7-32.1,19.4-51.4,20.5
	c-35.6,2.1-69.5-5-102-19.3c-0.4-0.2-0.8-0.5-2-1.3c12.5-2.8,24.3-5.7,36.2-8c25.4-4.9,51-7.6,76.9-7.1c32.6,0.7,64.6,5.5,95.4,16.8
	c3.2,1.2,5.9,1,9.1-0.2c21-7.9,42.7-12.4,65-14.8c45.6-5,90.3,0.4,134.6,11.2c2.7,0.7,5.5,1.2,9.3,2.1c-8.3,4-16.1,7-24,9.6
	c-26.4,8.6-53.4,12.4-81.2,10.9c-19.2-1-36.7-6.2-50.4-20.6c-1.5-1.6-3-1.6-4.9-1.4c-13.4,1.2-26,5.2-39.1,11c4.3,2.7,8,5,11.7,7.3
	c23.9,14.9,45.6,32.4,63.1,54.6c1.9,2.4,1.9,3.4-0.2,5.5c-9,8.8-9.4,8.9-17.6-0.3c-19.6-22.2-41.4-41.8-66.9-57.2
	c-3.3-2-5.6-2.1-8.9,0c-26.3,16.4-48.5,37.3-68.4,60.7c-3.3,3.9-5.5,4.1-9.3,1c-8.2-6.6-8.4-6.4-1.7-14.4
	c18.4-22.1,40.6-39.8,65.2-54.4C2186.8,545,2187.8,544.3,2189.8,543z"/>
<path class="st0" d="M796,102.1c-12.2,0-24.3-0.1-36.5,0.1c-3.3,0-4.7-0.6-4.7-4.3c0.2-21.9,0.1-43.9,0-65.8c0-2.9,0.7-4.1,3.9-4
	c24.8,0.1,49.6,0.1,74.4,0c3.2,0,3.9,1.1,3.9,4c-0.1,21.9-0.1,43.9,0,65.8c0,3.7-1.3,4.4-4.6,4.3C820.4,102,808.2,102.1,796,102.1z"
	/>
<path class="st0" d="M2549.7,333.2c-8.1,41.9-28.4,74.7-61.7,99.5c-9.8,7.3-20.8,12.4-32.6,15.7c-4.9,1.4-4.9-0.1-3.7-4.1
	c1.9-6.5,5.1-12.3,8.7-17.9c20.7-32.2,44.9-61.4,75.2-85.3C2539.4,338.1,2543.5,335.3,2549.7,333.2z"/>
<path class="st0" d="M1904.9,443.9c47.5,13.7,89.7,37,127.4,70.9C1979,525.7,1935.3,503.9,1904.9,443.9z"/>
<path class="st0" d="M2377.4,513.4c14.4-22.1,88.6-63.9,125.7-70.9c-5.5,15.3-29.4,46.1-50.1,58.8
	C2429.5,515.8,2404.2,518.4,2377.4,513.4z"/>
<path class="st0" d="M1959.4,340.6c12.5,15.6,19,33.3,25,51.3c6.5,19.7,12,39.7,14,60.4c0.4,4.4,0.8,8.9-0.5,13.3
	c-0.8,2.8-2,3.3-4.5,1.7c-22.3-14.2-37.8-33.3-42.4-59.9c-3.4-19.7-1.4-39,4.2-58c0.2-0.8,0.5-1.6,0.9-2.3
	C1957.1,345.1,1958.2,343.1,1959.4,340.6z"/>
<path class="st0" d="M1858.1,332.9c9,5.1,17,11.1,24.2,17.8c26.6,24.8,50.3,52.2,68.1,84.1c2.4,4.3,4.9,8.6,4.2,13.9
	c-4.7,0-9-1.9-13.2-3.8c-27-11.5-46.6-31.4-62.2-55.6c-9.2-14.3-16.3-29.7-20.5-46.2C1857.8,339.9,1857.9,336.7,1858.1,332.9z"/>
<path class="st0" d="M2448.2,340.7c5,6.7,5.8,14.3,7.1,21.8c3.5,19.2,4.3,38.2-2.2,57.1c-6.9,20.2-19.7,35.5-37.4,47.2
	c-3.9,2.6-5.4,1.6-6.1-2.6c-1.3-8,0-16,1.4-23.7c5.2-28.4,13.3-55.9,25.9-81.9C2440,352.2,2444.2,346.6,2448.2,340.7z"/>
<path class="st0" d="M2003.4,422.3c8,4.7,15.2,10.2,22.3,15.9c20.1,15.9,39.7,32.4,56.6,51.8c4.5,5.2,8.6,10.6,10.8,17.2
	c0.5,1.5,1.4,2.8-1.3,2.9c-20.3,1.2-40-0.5-56.8-13.8c-9.9-7.9-16.7-18-21.7-29.4c-5.3-12.1-8.3-24.9-10.3-37.8
	C2002.7,426.9,2002.2,424.8,2003.4,422.3z"/>
<path class="st0" d="M2311.9,508.2c3.7-10.9,10.8-18.5,17.8-25.9c21.2-22.1,44.2-42.3,69.4-59.8c1.2-0.8,2.2-2,4.2-1.9
	c0.5,5.2-1.3,10.1-2.5,15c-4.2,17.4-9.7,34.2-21.1,48.4c-12.1,15.2-28.1,22.9-47.4,24.1C2325.8,508.5,2319.1,508.2,2311.9,508.2z"/>
<path class="st0" d="M1904.3,353.5c-23.7-14.3-38.8-34.7-47.2-60.2c-7.4-22.5-9.2-45.5-5.9-69.8
	C1875.4,246.5,1909.4,332,1904.3,353.5z"/>
<path class="st0" d="M2474.1,391.8c-13.9-24.9-18.5-100-7.6-127.4c3,4.9,5.8,9.2,8.4,13.7c12.2,21.3,19.7,43.8,18.1,68.7
	C2492.2,361.4,2484.3,380.5,2474.1,391.8z"/>
<path class="st0" d="M1941.3,266.8c13.1,21.1,3.6,105.9-7.5,127.4c-8.5-12.1-15.2-24.8-17.8-39.2c-3.8-21.2,0.8-41.2,9.4-60.6
	C1929.8,284.8,1935.4,275.8,1941.3,266.8z"/>
<path class="st0" d="M2520.8,260.5c-1.5-6.4-3.6-11.6-3.8-16.9c-1.2-33.6,0.6-67,8.9-99.8c0.8-3,1.9-6,3-8.9
	c0.7-1.8,1.8-3.5,2.8-5.4c9.3,18.9,13.9,55.5,12,76.9c-1.5,16.5-6.4,31.8-16.7,45.1C2525.1,254,2523.3,256.8,2520.8,260.5z"/>
<path class="st0" d="M1873.2,130.8c14.7,20.3,21.6,99.6,12.2,130c-14.2-18.5-22.2-39.4-23.2-62.7
	C1861.3,175.3,1865.6,153.3,1873.2,130.8z"/>
<path class="st0" d="M1939.1,195.2c5.2,30.6-19.7,94.4-36.2,113c-5.2-12.1-7.1-24.5-5.4-37.5c3.2-24.7,15.4-45,31.5-63.3
	C1932.4,203.4,1936.6,200.1,1939.1,195.2z"/>
<path class="st0" d="M2505.5,308.4c-18.5-19.8-40-85.3-37.2-112.5c9.5,10.1,19,20.2,26.3,32.2c10.4,17.1,17.2,35.2,16.3,55.6
	C2510.6,292,2508,299.9,2505.5,308.4z"/>
<path class="st0" d="M2446.6,119c13.4,8.1,25.5,16.3,35.8,26.8c19.2,19.6,27.3,43,24.1,70.8c-7.3-3.7-12.5-9.6-17.4-15.5
	c-17.5-21.3-30.6-45.1-39.8-70.9C2448.1,126.8,2447.6,123.2,2446.6,119z"/>
<path class="st0" d="M1960.7,121.3c-2.3,25.6-40,85.7-59.5,95.3c-1.3-20,2.6-38.4,13.6-54.9C1926.3,144.3,1941.8,131.5,1960.7,121.3
	z"/>
<path class="st0" d="M1897.1,164.4c-4-13.1-3.6-25.3,0.3-37.4c6.8-20.9,20.1-37.3,36.1-51.7c2.9-2.6,5.1-6.6,10-7.5
	C1937.6,104.7,1926.1,138.3,1897.1,164.4z"/>
<path class="st0" d="M2510.9,162.4c-29.2-26.2-40.6-59.8-46.6-96.6c4.5,1,6.5,4.4,9.1,6.7c16.3,14.6,29.9,31.1,37,52.3
	C2514.5,136.9,2514.9,149.1,2510.9,162.4z"/>
<path class="st3" d="M1973.2,242.4c1.7-50.7,17-95.9,47.5-135.8c24.4-31.9,55.4-55.3,92.5-70.8c3.8-1.6,6.1-1.1,8.3,2.1
	c1.1,1.6,2.5,3.1,3.7,4.7c4.2,5.1,4.3,5.2-1,9.5c-8.2,6.7-16.5,13.4-25,20.2c2.9,2.6,6.6,2.5,9.6,4c1.9,0.9,2.7-0.8,3.8-1.6
	c7-5.6,14.1-11.2,21.1-16.8c2.4-1.9,4.2-2.3,6.8,0.1c4.2,4,9.5,6.7,14.8,9.2c2.9,1.3,3.6,2.5,1.8,5.5c-4.2,6.8-8,13.8-12,20.7
	c-1.3,2.2-1.8,3.8,1.3,4.9c2.3,0.8,4.4,3.3,6.4-0.8c3.7-7.6,8.1-14.9,11.9-22.5c1.4-2.9,2.7-3.9,6-2.6c7,2.8,14.4,4.1,21.9,4.4
	c2.5,0.1,3.5,0.8,3.5,3.5c-0.1,10.6-0.1,21.3,0,31.9c0,2.8-0.7,3.8-3.6,3.8c-6.8-0.1-13.6-0.3-20.4-1.7c-1.5-0.3-2.9-0.5-4.4-0.1
	c2.3,8.2,4,9.4,12.2,9.6c5.3,0.1,12.1-2.3,15.3,1.1c3,3.1,0.8,9.8,0.8,15c0.1,17.1,0.2,34.3-0.1,51.4c-0.1,4.5,2,4.5,5.4,4.7
	c3.8,0.2,5.2-1,4.7-4.7c-0.2-1.1,0-2.3,0-3.5c0-9.3,0-9.4,9.6-9.7c8.3-0.2,16.5-2,24.8-2.4c8.9-0.4,13-7.5,20.2-12.6
	c-10.5-0.9-19.4,1.5-28.4,2.2c-7.5,0.6-14.9,1.5-22.4,1.5c-3.2,0-3.9-1-3.9-4c0.1-12.3,0.2-24.6,0-36.9c-0.1-3.4,1.2-4.1,4.3-4.1
	c16-0.3,31.9-2,47.2-6.9c2.8-0.9,3.7,0,4.5,2.5c3.6,11.1,7.3,22.1,11,33.1c0.6,1.7,0.3,5.6,4.1,3.4c2.7-1.6,8.3-0.5,5.8-7
	c-4.1-10.9-7.4-22-11.2-33c-0.7-2.1-1.4-3.7,1.6-4.5c12.8-3.5,24.5-9.5,36.4-15.1c3-1.4,4.7-0.8,6.7,1.7c9.5,12,17.8,24.9,24.9,38.5
	c1.4,2.6,0.9,3.7-1.7,4.7c-4.9,1.9-9.8,3.9-14.6,6.4c6.8,0.6,12.9,5.2,20.1,2.3c0.8-0.3,1.4-0.2,2,0.7c4.7,6.5,4.9,6.6,15.1,9.9
	c-2.1-4.6-3.9-8.8-6.1-12.8c-1-1.8-0.7-2.6,1.1-3.3c12.8-5.7,24.9-12.7,36.4-20.8c2.8-2,3.3,0.2,4.3,1.7
	c13.6,20.8,23.4,43.3,28.6,67.6c9.5,44.6,10.7,89-4.4,132.8c-14.4,42-40,76.3-74.2,104.3c-1.5,1.2-2.8,2.5-5.2,0.9
	c-14.8-9.3-26-21.2-29.1-39.2c-0.5-2.8-0.6-5.6-0.2-8.4c1-7.2,2.9-8.4,10.2-7.9c11.3,0.8,22.5-0.7,32.7-5.5
	c26.8-12.7,48.3-31.4,58.5-59.8c15.3-42.4,7.6-80.8-24.3-113.5c-14.9-15.2-31.9-27.2-52.8-32.7c-27.8-7.4-52.3-0.6-74.1,17.4
	c-5.8,4.8-10.8,10.3-15.6,16.1c-7.9,9.6-18.8,13.4-30.5,15.4c-4.2,0.8-8.6,0.7-12.9,1.1c-8.2,0.7-10.9,4.9-7.9,12.5
	c0.8,2,1.9,3.9,2.7,5.9c2,4.6,0.2,8.3-4.7,8.5c-5.2,0.2-5.1,3.2-4.7,6.7c0.3,3.1,1.3,6.2-1.3,9c-1,1.1-2,2-3.6,2.4
	c-5.2,1.2-6.9,3.7-5.2,8.6c1.7,4.8,0.8,8-3.4,11.2c-6.3,4.8-7,18-1.7,25.1c5.8,7.9,13.9,13.3,21.6,19.1
	c11.9,8.9,18.3,20.1,18.1,35.3c-0.1,10.6,2.9,21,5,31.4c2.8,13.6-4.3,22.1-18.2,23.1c-17.4,1.3-33.9,6.7-50.2,12.4
	c-8.9,3.1-17.7,6.7-26.6,10.2c-16.3,6.3-33.1,8.5-50.4,5.4c-1.7-0.3-3.1-0.9-4.5-1.9c-6.6-4.8-12.8-10.1-19-15.4
	c-3.5-3.1-4.4-6.9-3.9-11.2c0.7-6.6,3.5-12.4,7-17.9c1.1-1.7,1.9-2.9,4.1-1c6,5.2,13.5,6.5,21.1,6.2c18.8-0.7,37.4-3.9,55.7-8.3
	c3.7-0.9,6.7-1.1,10.4,0.6c15.9,7.3,30.9,1.2,37.8-14.8c2.4-5.6,3.9-11.3,3.7-17.4c-0.2-6.3-3.8-8.9-10-7.3
	c-1.4,0.4-2.8,0.9-4.2,1.5c-1.5,0.6-3.1,1.8-4.7,0.7c-1.7-1.3,0.1-2.6,0.4-4c0.7-2.7-0.8-3.6-3.2-3.8c-6-0.5-11.4,1.8-15.7,5.5
	c-6.2,5.3-12.3,6.3-20.2,4.3c-8.5-2.1-17.6-0.9-26.3-2.6c-3.3-0.7-6.4-1.6-9.4-3.3c-4.2-2.4-6.5-5.6-7-10.7
	c-2.7-25.1-5.5-50.2-11-74.9c-2-9.1,3.3-15.1,12.8-15.3c8-0.1,15.3,3.1,23,4.4c9.4,1.6,17.6,0.2,23.6-7.9c1.2-1.6,2.7-3,4.7-3.5
	c3.6-0.8,3.6-3.6,5-6.2c2.3-4,3.6-7.7,4.1-12.1c0.1-0.9,2.2-1.9,3.6-2.4c4-1.4,4.9-4.3,3.8-8c-2.3-8.2-0.1-15.1,5.1-21.8
	c18.1-22.7,17.4-49-2.4-70.7c-16.4-18-36.3-30.2-61.1-33.9c-34.3-5.1-70.6,21.8-75.5,56.2c-2.3,16.1,0.1,31.8,3.5,47.4
	c2.5,11.6-1.4,21.2-11.6,26.6c-13.5,7.1-25.9,15.7-37.9,25C1975.3,241.1,1974.6,241.5,1973.2,242.4z"/>
<path class="st3" d="M2350.6,71.3c1.1,0.5,2.1,1,3.1,1.6c15,9.3,26.6,21.9,36.2,36.4c1.6,2.4,0.8,3.4-1.3,4.7
	c-11.1,6.6-22.3,13.2-33.3,19.9c-2.1,1.3-3.1,0.9-4.2-1.2c-7.3-14.2-15.9-27.6-26.1-39.9c-1.2-1.4-1.5-2.4,0.3-3.6
	c8.2-5,15.8-11,23.5-16.8C2349.4,72,2350,71.7,2350.6,71.3z"/>
<path class="st3" d="M2207.9,93.4c0-5.6,0.1-11.3,0-16.9c-0.1-2.5,0.6-3.5,3.3-3.6c8.5-0.2,16.9-1.8,24.9-4.6
	c2.3-0.8,3.6-0.5,4.9,1.6c6.6,10.6,11.5,22.1,16.6,33.4c1.3,2.9-0.3,3.3-2.6,3.8c-12.5,2.8-25.2,4.6-37.9,5.8
	c-9.1,0.9-9.1,0.7-9.1-8.5C2207.9,100.7,2207.9,97,2207.9,93.4z"/>
<path class="st3" d="M2308.9,86c-0.3,1.4-1.3,1.7-2.1,2.2c-11.5,6.4-24.1,10.2-36.2,15.3c-2.2,0.9-2.6-0.6-3.2-2
	c-5.1-11.7-10.1-23.5-17.1-34.2c-0.9-1.4-0.7-2.3,0.8-3.1c6.3-3.3,12.8-6.5,18.1-11.3c1.3-1.2,2.3-0.6,3.5,0.2
	c12.7,9.2,24.3,19.5,34.9,31.1C2308,84.8,2308.5,85.5,2308.9,86z"/>
<path class="st3" d="M2344.3,64.2c-0.4,0.3-1.1,0.7-1.7,1.3c-7,6.2-14.9,11.1-22.8,16c-1.7,1.1-2.8,1-4.2-0.6
	c-10.3-12.1-22.3-22.3-34.3-32.5c-2.2-1.9-2.6-3.1-0.8-5.6c7.9-11.2,8.6-11.4,21-5.7c14.4,6.6,28,14.6,40.5,24.3
	C2342.8,61.9,2344.1,62.2,2344.3,64.2z"/>
<path class="st4" d="M2207.9,24.4c10.4,10.4,17.5,21.5,24.2,32.9c1,1.7,0.4,2.3-1.3,2.7c-6.3,1.4-12.6,2.8-19.1,3.1
	c-2.7,0.1-3.8-0.6-3.8-3.5C2208,48.3,2207.9,37.1,2207.9,24.4z"/>
<path class="st4" d="M2198,26.2c0,11.1-0.1,22.2,0.1,33.3c0,2.8-0.8,3.8-3.7,3.6c-7.1-0.5-13.9-2.4-20.9-3.5c0.1-0.7,0-1.1,0.1-1.3
	C2182.1,47.9,2189.6,36.8,2198,26.2z"/>
<path class="st5" d="M2262.1,45.3c-0.5,0.9-0.6,1.1-0.7,1.2c-14.9,10.8-14.9,10.8-25.4-3.9c-4.4-6.2-8.8-12.4-12.9-19
	C2237.2,29,2249.8,36.7,2262.1,45.3z"/>
<path class="st6" d="M2279.8,28.1c-3,3.6-5.8,6.9-8.4,10.3c-1,1.4-1.9,0.9-3,0.3c-12-7-23.9-14.2-36.7-19.9
	C2248.3,19,2264.2,22.1,2279.8,28.1z"/>
<path class="st6" d="M2185.9,26.4c-5.8,6.8-11.7,13.3-16.3,20.7c-5.6,9-5.7,9-15.1,3.6c-2.3-1.3-5.9-2.3-6-4.7c0-2.6,3.8-3.1,6-4.3
	c8.7-4.8,17.6-9.4,26.4-14C2182.3,27,2183.6,25.8,2185.9,26.4z"/>
<path class="st7" d="M2176.4,17.3c-13.5,6.4-25.5,12.9-37.4,19.8c-1.2,0.7-2.1,0.4-3-0.6c-2.8-3-7.4-5.9-7.1-9.7
	c0.2-2.5,5.9-2.1,9.2-3c10.9-2.9,22-4.6,33.2-6.5C2172.5,17.1,2173.8,17.3,2176.4,17.3z"/>
<path class="st3" d="M1383.7,334.5c-28.7,0-57.3-0.1-86,0.1c-4,0-5-1.1-4.9-5c1.1-27.9,8.4-53.5,27.2-74.8
	c14.6-16.6,33.2-25.7,55.4-27.2c17.7-1.1,34.9,0.7,51.1,8.4c24.8,11.7,37.9,32.5,44.3,58.2c2.9,11.5,3.5,23.3,4,35.1
	c0.2,4.1-1,5.3-5.2,5.3C1441,334.4,1412.3,334.5,1383.7,334.5z"/>
</svg>
