<?xml version="1.0" encoding="utf-8"?>
<!-- Generator: Adobe Illustrator 26.3.1, SVG Export Plug-In . SVG Version: 6.00 Build 0)  -->
<svg version="1.1" id="Layer_1" xmlns="http://www.w3.org/2000/svg" xmlns:xlink="http://www.w3.org/1999/xlink" x="0px" y="0px"
	 viewBox="0 0 902 902" style="enable-background:new 0 0 902 902;" xml:space="preserve">
<style type="text/css">
	.st0{fill:#FEFEFE;}
	.st1{fill:#141418;}
	.st2{fill:#FBFBFB;}
	.st3{fill:#FAFAFA;}
	.st4{fill:#FE0057;}
	.st5{fill:#001385;}
	.st6{fill:#F57949;}
	.st7{fill:#D7D7D7;}
	.st8{fill:#090E2B;}
	.st9{fill:#DBDBDB;}
	.st10{fill:#E4E4E4;}
	.st11{fill:#DDDDDD;}
	.st12{fill:#E1E1E1;}
	.st13{fill:#E8E8E8;}
	.st14{fill:#E3E3E3;}
	.st15{fill:#0B0F2C;}
	.st16{fill:#E9E9E9;}
	.st17{fill:#0D0F20;}
	.st18{fill:#B55757;}
	.st19{fill:#FDFDFD;}
	.st20{fill:#FCFCFC;}
	.st21{fill:#402C32;}
	.st22{fill:#F90156;}
	.st23{fill:#FBFBFC;}
	.st24{fill:#1F202A;}
	.st25{fill:#DBDCE0;}
	.st26{fill:#F7F7F7;}
	.st27{fill:#747686;}
	.st28{fill:#090E2C;}
	.st29{fill:#F9F9F9;}
	.st30{fill:#0D0E2A;}
	.st31{fill:#020724;}
	.st32{fill:#060B28;}
	.st33{fill:#0D0D14;}
	.st34{fill:#A80741;}
	.st35{fill:#AA0665;}
	.st36{fill:#BD0547;}
	.st37{fill:#EA2F3F;}
	.st38{fill:#22222B;}
	.st39{fill:#CE2E38;}
	.st40{fill:#5F3527;}
	.st41{fill:#B65758;}
	.st42{fill:#F5F5F6;}
	.st43{fill:#0C102D;}
	.st44{fill:#B75959;}
	.st45{fill:#410F7A;}
	.st46{fill:#85404A;}
	.st47{fill:#FB0056;}
	.st48{fill:#FDB101;}
	.st49{fill:#DEDEE2;}
	.st50{fill:#070A27;}
	.st51{fill:#882421;}
	.st52{fill:#4A1D1F;}
	.st53{fill:#ECECEC;}
	.st54{fill:#F6F6F6;}
	.st55{fill:#F1F1F1;}
	.st56{fill:#6F7282;}
	.st57{fill:#EFEFEF;}
	.st58{fill:#F5F5F5;}
	.st59{fill:#F4F4F4;}
	.st60{fill:#150E2C;}
	.st61{fill:#19191D;}
	.st62{fill:#F46227;}
	.st63{fill:#1F1F23;}
	.st64{fill:#27272B;}
	.st65{fill:#202024;}
	.st66{fill:#212124;}
	.st67{fill:#242428;}
	.st68{fill:#626577;}
	.st69{fill:#747787;}
	.st70{fill:#F7F7F8;}
	.st71{fill:#F3E4E4;}
	.st72{fill:#954B4F;}
	.st73{fill:#311E34;}
	.st74{fill:#713A46;}
	.st75{fill:#4D2B3C;}
	.st76{fill:#6A3844;}
	.st77{fill:#773D47;}
	.st78{fill:#C7D2F1;}
	.st79{fill:#E3C0C1;}
	.st80{fill:#171319;}
	.st81{fill:#FA0156;}
	.st82{fill:#F04D30;}
	.st83{fill:#F0343C;}
	.st84{fill:#B55657;}
	.st85{fill:#EEF1FA;}
	.st86{fill:#FEB721;}
	.st87{fill:#FEB720;}
	.st88{fill:#22A2A7;}
	.st89{fill:#27A4A8;}
	.st90{fill:#26A3A7;}
	.st91{fill:#FCBB2F;}
	.st92{fill:#C9E9EA;}
	.st93{fill:#F0F3E9;}
	.st94{fill:#C3E6E8;}
	.st95{fill:#FEEFCD;}
	.st96{fill:#FEB8CF;}
	.st97{fill:#E7F2EA;}
	.st98{fill:#D9EFF0;}
	.st99{fill:#33ACB0;}
	.st100{fill:#A6DBDD;}
	.st101{fill:#FEE5AD;}
	.st102{fill:#FEC140;}
	.st103{fill:#FE557A;}
	.st104{fill:#A8DCDE;}
	.st105{fill:#3DAEB2;}
	.st106{fill:#733A47;}
	.st107{fill:#FEB101;}
	.st108{fill:#C6D1F1;}
	.st109{fill:#FEC340;}
	.st110{fill:#282828;}
	.st111{fill:#E6E6E6;}
	.st112{fill:#4C4C4C;}
	.st113{fill:#5E5E5E;}
	.st114{fill:#E5E5E5;}
	.st115{fill:#555555;}
	.st116{fill:#FE0A5B;}
	.st117{fill:#FEE1A0;}
	.st118{fill:#FEE6B0;}
	.st119{fill:#A5DBDC;}
	.st120{fill:#0D9CA1;}
	.st121{fill:#FAB82A;}
	.st122{fill:#B5E1E2;}
</style>
<g>
	<g>
		<path class="st0" d="M0.09,451C0.09,302.2,0.11,153.39,0,4.59C0,0.84,0.84,0,4.59,0C302.2,0.1,599.8,0.1,897.41,0
			c3.75,0,4.59,0.84,4.59,4.59c-0.1,297.61-0.1,595.21,0,892.82c0,3.75-0.84,4.59-4.59,4.59c-297.6-0.1-595.21-0.1-892.81,0
			c-3.75,0-4.6-0.84-4.59-4.59C0.11,748.61,0.09,599.8,0.09,451z"/>
		<path class="st1" d="M31.98,24.09c5.66-10.25,14.39-14.1,26-14.1c262.17,0.13,524.34,0.13,786.51,0.01
			c11.46-0.01,19.95,4.04,25.49,14.08c0.49,0.48,0.83,1.06,1.03,1.71c0.47,2.31,0.31,4.65,0.31,6.98
			c0.01,265.78,0.01,531.55,0.01,797.33c0,2,0.04,4-0.08,5.99c-0.09,2.08-1.1,3.79-2.2,5.46c-1.27,1.78-2.92,3.23-4.44,4.81
			c-0.84,0.82-1.7,1.62-2.66,2.3c-1.45,0.91-2.84,1.93-4.47,2.55c-2.36,0.87-4.69,1.83-7.23,2.08c-2.83,0.38-5.66,0.28-8.49,0.28
			c-260.84,0-521.67,0-782.51,0c-3.66,0-7.34,0.19-10.91-0.85c-1.12-0.25-2.29-0.31-3.38-0.73c-2.33-1-4.04-2.97-6.29-4.11
			c-1.42-1.04-2.39-2.53-3.63-3.76c-1.47-1.68-2.81-3.46-3.88-5.44c-1.75-3.6-1.49-7.46-1.49-11.29c0-77.79,0-155.58,0-233.37
			c0-185.4,0-370.8,0.01-556.2c0-3.16-0.1-6.33,0.12-9.49C29.87,26.57,30.89,25.31,31.98,24.09z"/>
		<path class="st2" d="M870.08,25.09c-0.03-0.34-0.06-0.67-0.09-1.01c1.74-1.26,2.93-0.44,4.31,0.83c3.74,3.44,6.74,7.44,8.54,12.14
			c2.82,7.38,5.22,14.69,5.22,22.96c-0.17,261.88,0.04,523.75-0.46,785.63c-0.04,21.92-11.89,36.85-32.77,41.98
			c-5.54,1.36-11.53,1.25-17.32,1.25c-257.71,0.06-515.42,0.07-773.13,0c-13.41,0-26.42-2.05-37.31-10.97
			c-0.64-0.52-1.53-0.87-1.93-1.53c-7.46-12.28-12.92-25.13-10.91-39.98c0.16-1.21,1.23-2.31,1.88-3.46
			c1.59-2.08,2.46-0.88,2.99,0.77c0.61,1.91,0.43,3.94,0.36,5.91c-0.16,4.81,0.17,9.56,1.3,14.24c1.55,9.58,6.99,16.71,14.36,22.61
			c5.5,4.21,11.87,5.76,18.62,6.13c2.15,0.12,4.33-0.06,6.46,0.47c1.42,0.38,2.84,0.69,4.26,1.05c2.13,0.61,4.31,0.39,6.47,0.39
			c253.39,0.01,506.78,0.01,760.17,0c2.16,0,4.34,0.23,6.44-0.46c1.46-0.44,2.92-0.86,4.4-1.22c5.64-0.51,11.55,0.42,16.67-3.04
			c14.59-5.76,20.78-17.23,21.86-32.15c0.12-1.66,0.03-3.33,0.03-4.99c0-261.46-0.02-522.92,0.09-784.38
			c0-9.96-2.68-18.62-8.53-26.48C870.19,29.89,870.73,27.31,870.08,25.09z"/>
		<path class="st3" d="M20.09,854.92c-2.95-6.09-1.67-12.61-2.07-18.97c-0.07-1.08,1.58-3.89-1.92-3.02
			c0-258.85-0.02-517.71,0.06-776.56c0-11.63,3.73-22.11,12.48-30.33c0.97-0.91,1.85-1.95,3.35-1.95c-0.33,1-0.67,2.01-1,3.01
			c-0.81,1.66,0.02,3.72-1.27,5.28c-6.29,7.05-8.29,15.69-9.1,24.74c-0.21,2.32-0.1,4.66-0.1,6.99c0,257.91,0,515.82,0.02,773.73
			c0,3.98-0.28,7.98,0.66,11.94C21.61,851.55,21.59,853.45,20.09,854.92z"/>
		<path class="st4" d="M247.86,399.1c-6.83-12.05-12.82-24.36-13.01-38.68c-0.12-9.01-2.39-17.7-4.25-26.46
			c-1.51-7.13-2.62-14.35-3.95-21.52c-0.35-1.9-0.53-3.65,1.5-4.76c3.82-6,9.49-8.08,16.32-7.67c3.56,1.33,3.37,4.66,3.81,7.51
			c2.05,13.15,4.52,26.2,7.35,39.21c2.36,10.84,7.89,20.03,14.01,28.97c1.46,1.79,3.29,3.45,3.8,5.74
			c1.26,5.65,5.45,8.44,10.06,10.87c1.96,1.03,4.2,2.93,6.16,0.29c1.73-2.33,1.44-5-0.1-7.45c-0.88-1.39-2.52-2.2-3.06-3.85
			c-0.33-1-0.18-1.96,0.62-2.75c0.44-0.3,0.91-0.5,1.42-0.64c1.8-0.38,3.62-0.27,5.44-0.31c6.7-0.14,9.53-2.23,11.65-8.56
			c1.35-4.03,1.44-8.23,0.76-12.27c-1-5.85-0.53-11.51,0.6-17.21c1.51-4.64,0.57-8.97-1.7-13.12c-0.35-3.85,1.6-6.95,3.39-10.08
			c1.55-2.71,3.3-5.3,4.36-8.27c0.58-1.37,1.59-2.44,2.42-3.64c2.18-2.27,2.24-5.22,2.62-8.07c0.74-2.18,2.41-2.54,4.41-2.27
			c4.83,1.63,9.73,3.09,13.81,6.36c1.64,1.94,1.46,3.79-0.28,5.57c-4.97,10.72-8.39,22.02-11.89,33.25
			c-4.91,15.74-11.45,30.9-16.32,46.63c-1.8,5.82-2.12,11.4,1.42,17.18c3.86,6.3,4.03,13.56,2.3,20.8
			c-1.35,5.66-2.35,11.41-3.76,17.05c-1.3,5.23-1,10.21,1.4,15.04c1.27,3.76-0.68,5.26-4,6.34c-5.45,1.77-11.16,2.53-16.55,4.48
			c-9.44,2.99-19.06,5.48-27.95,10.02c-3.54,2.15-7.29,3.88-10.99,5.7c-1.76,0.86-3.54,1.92-5.63,0.97
			c-2.9-2.26-2.02-4.83-0.57-7.41c2.47-4.41,4.97-8.8,7.46-13.19c4.75-11.66,6.17-23.83,5.65-36.31c-0.15-3.65-1.1-7.13-1.98-10.63
			C252.82,410.18,250.9,404.42,247.86,399.1z"/>
		<path class="st5" d="M244.03,483.53c5.67-1.81,10.62-5.13,16.01-7.54c10.34-4.3,21.15-7.19,31.74-10.73
			c6.15-1.08,11.91-3.7,18.13-4.48c9.97,0.34,19.76,1.82,29.49,4.03c3.81,0.86,7.02,2.84,10.54,4.23c4.73,2.75,7.08,6.94,8.66,12.17
			c3.75,12.41,6.37,25.03,8.39,37.81c4.18,20.02,8.43,40.03,12.49,60.07c0.71,3.49,1.63,7.08,0.54,10.71
			c-4.29,4.53-10.15,3.62-15.49,4.51c-4.4,0.47-7.14-1.7-9.02-5.49c-3.46-6.96-7.02-13.87-10.39-20.87
			c-1.95-5.14-4.91-9.78-7.49-14.58c-7.31-13.59-10.27-28.29-11.89-43.39c-0.55-5.11-0.47-5.26-5.28-3.28
			c-12.19,5.01-24.88,8.14-37.84,10.31c-4.39,0.73-8.74,0.39-13.06-0.49c-1.02-0.18-2.05-0.31-3.05-0.59
			c-2.07-0.69-4.16-1.36-6.22-2.12c-0.89-0.42-1.71-0.92-2.14-1.87C248.26,505.05,243.31,495.7,244.03,483.53z"/>
		<path class="st6" d="M562.93,590.95c0.33-0.7,0.65-1.41,0.98-2.11c1.46-1.83,3.16-3.44,4.93-4.97
			c10.44-6.15,19.08-3.11,24.93,8.82c2.11-0.55,1.84-2.49,2.28-3.97c3.23-10.74,6.88-21.28,15.18-29.39
			c16.71-16.33,38.39-12.06,47.87,9.38c5.16,11.67,4.43,23.79,2.25,35.84c-0.87,4.79-0.04,5.15,4.48,4.27
			c12.7-2.45,18.17,6.52,19.87,15.87c0.55,3.06-1.89,2.95-3.94,2.95c-10.83,0.02-21.66,0.05-32.49,0.05
			c-38.65,0-77.31-0.01-115.96-0.02c-6.2,0-7.09-0.78-6.2-6.92c1.01-7,3.39-13.62,10.71-16.21c6.99-2.47,13.47-0.8,18.74,4.68
			c0.56,0.58,1.26,1.01,2.15,1.71c1.64-3.38,0.72-6.77,1.34-9.93C560.69,597.58,560.79,593.98,562.93,590.95z"/>
		<path class="st7" d="M47.1,851.09c3.44,0.68,6.9,0.85,10.4,0.85c262.31-0.02,524.62-0.02,786.92-0.02c2.5,0,4.99-0.01,7.49-0.01
			c0.01,4.25-3.12,5.55-6.37,6.52c-4.7,1.4-9.57,1.11-14.39,1.11c-246.37,0.01-492.75,0.01-739.12,0c-9.66,0-19.32,0.19-28.98-0.15
			c-4.03-0.14-8-0.71-11.54-2.78C49.39,855.36,47.04,854.15,47.1,851.09z"/>
		<path class="st8" d="M436.09,427.08c-0.4-0.31-0.81-0.62-1.22-0.93c0.23-0.24,0.45-0.47,0.67-0.72c2.68-1.33,5.56-0.82,8.35-0.82
			c71.24-0.03,142.48-0.05,213.72,0.03c5.63,0.01,10.54-1.1,14.39-5.41c3.4-2.97,4.52-6.85,4.52-11.19
			c0.02-50.44-0.03-100.88,0.09-151.33c0.01-4.08-3.01-7.46-1.94-11.6c3.57,2.96,8.18,4.3,11.55,7.63c3.17,3.12,4.7,6.81,4.7,11.14
			c0.02,52.13,0.05,104.26-0.02,156.39c-0.01,8.57-7.98,15.68-17.35,15.7c-25.32,0.05-50.63,0.02-75.95,0.02
			c-48.13,0-96.27-0.07-144.4,0.07c-6.99,0.02-12.03-2.91-16.21-8.06c1.73-0.94,3.6-0.47,5.39-0.47
			c72.77-0.03,145.53-0.03,218.3,0.02c1.65,0,3.52-0.68,5.56,1.11c0,0-1.32-0.33-0.77-0.69c0.39-0.26,0.32-0.41-0.19-0.44
			c-1.66-0.09-3.33-0.05-4.99-0.05c-72.77,0-145.53,0-218.3-0.02C440.05,427.47,438.02,427.88,436.09,427.08z"/>
		<path class="st1" d="M265.83,514.9c1,0.09,2,0.18,3,0.27c-0.44,2.67-2.7,2.02-4.31,2.15c-3.48,0.28-6.98,0-10.47,0.14
			c-6.38,0.25-7.84,2.02-7.03,8.38c1.07,2.8,3.55,2.58,5.86,2.79c5.38,0.49,7.07,2.57,6.18,7.84c-0.3,1.81-0.59,3.59-0.63,5.43
			c-0.54,26.38-1.74,52.74-2.88,79.11c0.7-13.15,1.92-26.28,2.18-39.47c0.1-5.17,1.88-6.79,7.1-6.91
			c12.64-0.29,25.3,0.32,37.94-0.34c1.88-0.1,3.21,0.59,4.07,2.25c1.38,4.67-0.19,9.58,1.13,14.26c0.82,7.79,0.95,15.45-2.92,22.7
			c-1.3,2.44-1.73,5.33-1.62,8.2c-0.75,5.57-1.79,6.62-7.15,6.74c-13.45,0.3-26.91-0.45-40.35,0.4c-1.27,0.08-2.8,0.11-2.89-1.86
			c-0.08-1.13,0.2-2.57-1.33-2.87c-4.95-0.98-4.94-4.59-4.68-8.43c0.1-1.49,0.25-3.04-0.02-4.48c-1.57-8.11,2.65-15.32,3.53-23.04
			c0.09-0.8,0.97-1.77,0.73-2.31c-4.85-10.85-0.98-22.26-2.2-33.32c-0.11-0.99,0-1.99-0.02-2.99c-0.1-6.65,1.74-13.83-7.04-17.33
			c-3.27-1.3-5.18-4.95-5.73-8.82c-0.2-1.38-0.06-2.59,0.52-3.85c3.41-7.35,11.7-10.76,19.44-7.98c0.61,0.22,1.29,0.27,1.93,0.4
			c0.64,0.31,1.28,0.62,1.92,0.92C261.58,514.74,263.98,514.03,265.83,514.9z"/>
		<path class="st9" d="M47.1,851.09c3.87,5.09,9.48,6.29,15.37,6.81c0.99,0.09,2,0.01,3,0.01c257.06,0,514.12,0,771.18-0.02
			c5.82,0,11.79,0.12,15.27-5.99c2-0.63,4-1.26,6-1.89c1.69,2.58,0.14,4.55-1.48,6.19c-3.73,3.77-8.1,5.9-13.66,6.29
			c-27.28,1.92-54.57,0.83-81.86,0.84c-228.68,0.12-457.37,0.06-686.05,0.13c-6.18,0-12.23-1.15-18.38-1.3
			c-3.74-0.09-7.06-2.04-9.82-4.51c-1.93-1.73-3.95-3.76-2.54-6.87C45.12,850.9,46.11,850.99,47.1,851.09z"/>
		<path class="st10" d="M33.05,840.06c0.99,1.35,1.99,2.7,2.98,4.05c2.62,5.12,3.45,11.18,8.07,15.25
			c4.71,4.16,10.23,6.02,16.42,5.44c3.72-0.35,7.24,0.76,10.92,0.75c252.99-0.06,505.98-0.03,758.96-0.17
			c6.04,0,12.26,0.44,18.21-1.2c7.61-2.09,13.1-6.38,14.21-14.83c0.15-1.12,0.41-2.31,1.16-3.26c1.29-1.45,2.58-2.9,3.88-4.34
			c0.33,0.37,0.75,0.67,0.91,1.17c2.33,7.43-5.61,21.17-12.74,24.26c-9.54,4.13-19.35,4.15-29.31,4.15
			c-250.26-0.01-500.52-0.01-750.78,0.02c-9.67,0-19.29,0.01-28.59-3.1C36.51,864.27,29.04,849.52,33.05,840.06z"/>
		<path class="st11" d="M44.13,850.8c2.44,6.36,7.36,9.71,13.8,10.16c28.09,1.95,56.22,0.88,84.33,0.89
			c228.04,0.11,456.08,0.05,684.12,0.15c6.51,0,12.87-1.17,19.36-1.22c5.18-0.04,11.04-5.72,12.19-10.76
			c1.25-0.87,2.16-2.32,3.95-2.25c1.76,4.69-0.77,8.17-3.72,11.05c-4.44,4.33-10.08,6.47-16.33,6.15c-4.2-0.22-8.18,1.02-12.37,1.02
			c-252.24-0.09-504.49-0.06-756.73-0.19c-7.84,0-15.93,0.19-23.44-3.19c-6.57-2.96-10.76-9.2-10.19-15.46
			C41.02,848.01,43.12,848.64,44.13,850.8z"/>
		<path class="st12" d="M39.08,847.16c4.71,12.68,9.86,15.81,23.31,16.88c21.28,1.7,42.57,0.79,63.84,0.8
			c234.18,0.11,468.36,0.08,702.53,0.01c6.59,0,13.22-0.48,19.66-2.23c7.67-2.09,12.26-6.91,13.45-14.85c0.7-0.56,1.4-1.12,2.1-1.68
			c0.89,8.86-3.57,15.47-12.19,18.78c-6.52,2.51-13.36,1.88-19.95,1.88c-253.94,0.18-507.87,0.18-761.81-0.01
			c-5.63,0-11.41,0.37-17.1-0.96c-10.26-2.4-16.69-11.4-16.9-21.69C37.05,845.13,38.06,846.14,39.08,847.16z"/>
		<path class="st13" d="M46.08,866.91c44.98,6.48,90.2,2.01,135.3,2.82c45.28,0.81,90.59,0.18,135.89,0.18
			c172.7,0,345.4-0.02,518.09,0.07c7.89,0,15.21-2.14,22.33-4.8c3.89-1.46,5.77-5.77,7.2-9.76c1.58-4.43,3.94-8.69,2.96-13.68
			c-0.18-1.77,1.46-2.54,2.14-3.83c0.73-0.26,1.26-0.04,1.6,0.65c2.18,10.4-2.99,23.04-11.7,28.76c-6.77,4.45-14.25,6.12-22.24,5.97
			c-2-0.04-4,0.03-6,0.03c-253.82,0-507.65,0-761.47-0.01c-5.63,0-11.27,0.06-16.83-1.06C50.92,870.5,47,870.75,46.08,866.91z"/>
		<path class="st14" d="M870.91,837.92c-0.31,0-0.62,0-0.93,0c0.02-29.64,0.06-59.28,0.06-88.93
			c-0.02-240.81-0.05-481.61-0.07-722.42c0-0.5,0.07-0.99,0.11-1.49c0.61,1.67,1.23,3.33,1.84,5c0.99,1.57,1.48,3.26,1.38,5.13
			c-0.03,2.42,0.24,4.83,0.07,7.25c-0.19,5.02,0.35,10.04,0.02,15.06c-0.1,3-0.06,6-0.06,9c0,252.83,0,505.66-0.03,758.49
			C873.3,829.42,874.13,834.07,870.91,837.92z"/>
		<path class="st8" d="M543.98,93.08c8.59,0.01,10.99,2.32,10.99,10.84c0.01,43.7-0.01,87.41-0.02,131.11
			c-2.47,2.02-5.37,1.38-8.16,1.25c-2.58-0.12-3.85-1.69-4.09-4.18c-0.16-1.66-0.14-3.33-0.14-4.99
			c-0.01-42.13-0.02-84.27,0.03-126.4C542.6,98.13,541.91,95.33,543.98,93.08z"/>
		<path class="st15" d="M336.01,306.05c-0.24-1.71,1.39-3.6-0.5-5.15c-1.79-2.27-0.64-3.37,1.6-4.05
			c26.63-0.51,53.26-0.14,79.89-0.19c1.5,0,3.01,0.11,4.26,1.14c1.43,1.89,1.15,4.12,1.15,6.26c0.03,33.14,0.03,66.29-0.01,99.43
			c0,2.25,0.56,4.74-1.6,6.51l-0.39,0l-0.39,0c-0.93-1.73-0.46-3.59-0.46-5.38c-0.03-30.59-0.01-61.17-0.06-91.76
			c0-1.6,0.62-3.31-0.48-4.82c-25.87,0-51.75,0.02-77.62-0.07C339.52,307.96,336.85,309.29,336.01,306.05z"/>
		<path class="st16" d="M46.08,866.91c1.36,2.3,4.93,1.28,6,4c-5.71,1.86-9.5-1.96-13.2-4.97c-8.08-6.57-9.13-16.22-10.13-25.72
			c-0.3-2.81-0.07-5.66-0.07-8.49c0-255.36,0-510.72,0-766.08c0-2.66,0.03-5.33-0.05-7.99c-0.22-4.32,0.09-8.63,0.05-12.95
			c-0.07-1.47-0.01-2.94,0.03-4.41c-0.02-1.71,0.06-3.42,0.02-5.13c-0.03-1.48,0.61-2.76,1.21-4.05c0.27-1.36-0.27-2.94,1.04-4.03
			c-0.04,261.62-0.08,523.25-0.11,784.87c0,5.33,0.07,10.66-0.02,15.99c-0.07,4.2,0.29,8.29,2.21,12.11
			C32.86,851.21,36.14,860.68,46.08,866.91z"/>
		<path class="st17" d="M253.04,626.96c2.83,2.48,5.63-0.22,8.49-0.14c11.42,0.33,22.86-0.05,34.28,0.22
			c4.66,0.11,6.99-1.17,6.23-6.11c0.64-0.28,1.15-0.13,1.55,0.43c0.92,4.18,3.65,5.15,7.69,5.16c12.29,0.03,24.59-0.03,36.88,0.03
			c1.84,0.01,3.65-0.11,5.4-0.71c1.63-0.32,3.29-0.39,4.93-0.32c4.06,0.16,8.09,0.41,9.13-5c0.13-0.66,0.95-0.8,1.65-0.51
			c2.96,7.44,2.97,7.65,11.61,7.39c12.38-0.36,24.84,1.39,37.12-1.42c9.22,2.04,18.57,0.42,27.83,1.02
			c1.97,0.13,5.57-1.14,5.55,1.28c-0.03,3.03-3.68,1.61-5.68,1.61c-92.91,0.08-185.81,0.08-278.72,0.02c-2.16,0-6,1.12-6.06-1.47
			c-0.06-2.82,3.71-1.4,5.69-1.41C195.43,626.93,224.23,626.96,253.04,626.96z"/>
		<path class="st18" d="M243.8,300.86c-6.22-0.02-11.06,3.14-15.66,6.83c-0.03-10.65-1.17-21.2-2.81-31.7
			c-0.54-3.47-2.08-6.3-5.29-7.98c-5.49-2.87-5.65-8.49-6.88-13.49c-0.46-1.88,0.83-3.12,2.79-3.39c2.58-0.35,5.15-0.18,6.82,2.05
			c2.36,3.14,4.18,2.93,5.73-1.01c6.04,7.25,3.94,16.44,7.47,23.87c1.34,3.96,1.99,8.13,3.53,12.03c-0.26,2.06,1.39,3.38,1.98,5.11
			c0.17,0.41,0.3,0.83,0.41,1.26c0.3,1.66,0.59,3.33,1.72,4.69C243.94,299.68,244.31,300.22,243.8,300.86z"/>
		<path class="st19" d="M598.05,802.1c0,2.4-0.22,4.57,0.05,6.68c0.46,3.58-0.98,4.52-4.42,4.4c-2.73-0.1-3.27-1.06-3.24-3.52
			c0.12-9.3,0.02-18.6,0.06-27.9c0.02-4.45,2.57-6.09,6.58-3.89c1.26,0.69,1.86,1.11,3.34,0.54c6.56-2.51,12.5-1,16.04,3.78
			c3.56,4.81,3.38,12.53-0.4,17.22c-3.73,4.62-9.49,5.68-16.24,2.99C599.53,802.28,599.19,802.29,598.05,802.1z"/>
		<path class="st19" d="M291.95,786.43c0-4.66,0.07-9.32-0.03-13.97c-0.05-2.1,0.64-3.05,2.83-2.97c5.15,0.17,10.34-0.13,15.45,0.42
			c7.28,0.78,11.53,5.55,11.5,12.1c-0.03,6.38-4.06,10.68-11.17,11.9c-1.15,0.2-2.34,0.54-3.46,0.4c-5.14-0.62-8.41,0.41-7.25,6.73
			c0.56,3.07-1.96,2.8-3.98,2.83c-2.1,0.04-4.02,0.14-3.93-2.96C292.06,796.08,291.95,791.26,291.95,786.43z"/>
		<path class="st19" d="M529.61,786.52c0-4.49,0.17-8.99-0.06-13.47c-0.15-2.92,0.93-3.68,3.7-3.6c5.98,0.18,11.98,0.1,17.97,0.03
			c2.36-0.03,4.14-0.01,4.07,3.31c-0.07,3.5-2.22,3.04-4.36,3.04c-3.49,0-7,0.21-10.48-0.06c-3.25-0.25-3.33,1.48-3.37,3.93
			c-0.04,2.64,0.51,4.07,3.55,3.84c2.98-0.22,5.99,0,8.98-0.06c2.18-0.05,3.85,0.04,3.79,3.07c-0.05,2.82-1.67,2.75-3.59,2.73
			c-2.83-0.03-5.67,0.18-8.48-0.05c-3.19-0.26-4.28,0.73-4.32,4.12c-0.04,3.6,1.47,4.15,4.46,3.99c3.65-0.19,7.32,0.04,10.98-0.07
			c2.39-0.08,3.66,0.45,3.63,3.27c-0.03,2.7-1.07,3.41-3.57,3.36c-6.49-0.12-12.98-0.13-19.46,0.01c-2.57,0.06-3.57-0.77-3.48-3.41
			C529.72,795.84,529.61,791.18,529.61,786.52z"/>
		<path class="st20" d="M253.24,786.95c6.56-3.43,9.51-12.48,18.91-9.1c-1.54,2.87-3.86,5.2-6.34,7.17c-3.27,2.6-3.12,4.7-0.34,7.58
			c2.53,2.61,4.57,5.69,6.83,8.57c1.3,1.66,1.16,2.33-1.19,2.76c-5.48,1.02-8.07-2.46-10.9-6.08c-1.08-1.38-1.69-4.27-4.17-3.39
			c-2.39,0.85-3.16,3.24-2.8,5.81c0.42,2.94-1.05,3.66-3.75,3.66c-2.65,0.01-3.9-0.55-3.85-3.55c0.16-9.81,0.16-19.62,0-29.43
			c-0.05-3.05,1.27-3.5,3.87-3.51c2.77-0.01,3.88,0.84,3.78,3.72C253.11,776.22,253.24,781.3,253.24,786.95z"/>
		<path class="st21" d="M318.75,297.02c0.86,3.25-0.11,5.92-2.58,8.12c-0.38-5.31-3.74-5.69-8.18-5.66
			c-19.31,0.14-38.62,0.26-57.93-0.06c-2.42,0.03-4.54-0.7-6.27-2.43c-1.4-1.74-2.49-3.58-1.75-5.96
			c0.01-64.88,0.02-129.76,0.04-194.64c0-2.47,0.2-4.95,0.24-7.42c0.04-2.59,0.94-4.49,3.71-5.04c0.79-0.2,1.21,0.11,1.26,0.93
			c-1.49,3.22-1.87,6.59-1.87,10.15c0.06,63.72,0.04,127.44,0.04,191.16c0,0.67,0-0.17,0,0.5c0.03,8.14,0.8,8.96,8.77,8.97
			c19.3,0.02,38.6-0.02,57.9,0.04C314.39,295.66,316.84,295.12,318.75,297.02z"/>
		<path class="st22" d="M408.02,615.82c2.56,1.16,5.33,2.01,7.61,3.58c1.82,1.25,4.62,3,1.45,5.82c-0.62,0.24,0.25,0.19-0.4,0.29
			c-11.97,1.77-23.99,1.47-35.93,0.16c-3.76-0.41-6.31-4.68-10.24-5.76c-3.7-2.77-2.07-5.96-0.71-9.12
			c1.97-2.26,4.47-2.82,7.07-1.52c4.3,2.15,8.19,1.38,12.02-1.06c3.37-0.56,4.9,2.33,7.17,3.83c-0.42,3.14,0.77,4.54,4.02,3.7
			c0.88-0.35,1.75-0.71,2.72-0.71C404.55,615.18,406.31,615.38,408.02,615.82z"/>
		<path class="st2" d="M655.02,790.51c0-3-0.02-6,0-8.99c0.04-4.03,2.98-6.02,6.26-3.74c1.61,1.12,2.24,1.29,4.01,0.53
			c9.05-3.86,16.08,0.66,16.48,10.47c0.15,3.66-0.11,7.33,0.07,10.99c0.14,2.88-0.6,4.21-3.84,4.19c-3.14-0.02-4.09-1.14-3.92-4.12
			c0.19-3.32,0.06-6.66,0.04-9.99c-0.02-3.69-1.49-6.19-5.57-6.08c-3.88,0.11-5.65,2.49-5.76,6.15c-0.11,3.66-0.16,7.33,0.01,10.99
			c0.14,3.12-1.81,2.98-3.91,2.96c-2.02-0.02-4.09,0.35-3.91-2.87C655.17,797.51,655.02,794,655.02,790.51z"/>
		<path class="st2" d="M342.16,792.66c-1.99,0-3.99-0.08-5.98,0.03c-1.03,0.06-2.55-0.62-2.88,1.04c-0.27,1.31,0.84,2.17,1.79,2.76
			c3.05,1.88,6.37,2.19,9.43,0.33c2.92-1.77,4.13,0.47,5.1,2.09c1.29,2.17-1.16,2.73-2.44,3.43c-6.36,3.5-15.85,1.54-19.87-3.99
			c-3.87-5.33-3.11-13.22,1.86-17.69c4.19-3.76,9.12-4.55,14.41-2.8c5.03,1.67,7.73,5.26,8.77,10.48c0.68,3.43-0.33,4.62-3.71,4.35
			C346.49,792.52,344.32,792.66,342.16,792.66z"/>
		<path class="st2" d="M209.71,794.52c0,1.66,0.02,3.33,0,4.99c-0.06,4.08-2.4,6.01-5.88,4c-2.21-1.28-3.5-1-5.45-0.17
			c-3.07,1.32-6.23,0.94-9.21-0.4c-3.02-1.36-4.48-3.77-4.36-7.16c0.13-3.46,1.98-5.57,5.08-6.62c2.7-0.91,5.53-1.02,8.37-1.02
			c1.15,0,3.03,0.82,3.31-1.02c0.24-1.55-1.02-2.73-2.54-3.29c-2.8-1.03-5.67-0.89-8.22,0.48c-2.42,1.3-3.06,0.07-4.05-1.75
			c-1.37-2.51,0.16-3.29,1.97-4c3.96-1.55,8.07-2.02,12.23-1.16c4.7,0.98,7.73,3.81,8.38,8.68c0.37,2.79,0.36,5.62,0.52,8.44
			C209.8,794.51,209.76,794.51,209.71,794.52z"/>
		<path class="st23" d="M730.37,792.66c-1.83,0-3.68-0.15-5.49,0.05c-1.29,0.14-3.43-1.03-3.65,1.22c-0.15,1.51,1.42,2.56,2.83,3.18
			c2.74,1.21,5.62,1.33,8.16-0.21c2.79-1.7,4.18,0.11,5.19,1.9c1.42,2.53-1.28,2.99-2.66,3.7c-5.59,2.87-13.99,1.62-18.23-2.51
			c-3.79-3.69-4.85-10.19-2.5-15.27c2.5-5.39,8.7-8.53,14.97-7.57c5.84,0.89,10.06,5.08,11.09,10.67c0.66,3.58-0.13,5.45-4.21,4.89
			C734.06,792.45,732.2,792.65,730.37,792.66z"/>
		<path class="st2" d="M639.69,792.66c-1.83,0-3.67-0.11-5.49,0.04c-1.22,0.1-3.11-0.78-3.51,0.78c-0.46,1.84,1.24,2.88,2.8,3.58
			c2.72,1.23,5.63,1.47,8.13-0.14c2.77-1.79,4.11,0.08,5.2,1.75c1.65,2.55-1.07,3.03-2.46,3.7c-5.69,2.73-11.34,2.3-16.6-1.09
			c-4.31-2.78-5.88-7.05-5.51-12.06c0.47-6.41,5.79-11.56,12.48-12.14c7.13-0.62,13.14,3.46,14.74,9.98c0.9,3.68,0.61,6.3-4.29,5.63
			C643.38,792.45,641.52,792.66,639.69,792.66z"/>
		<path class="st2" d="M493.61,794.81c0,1.5,0.01,3,0,4.49c-0.05,4.47-2.95,6.41-6.5,3.83c-1.6-1.17-2.17-1.02-3.59-0.29
			c-2.58,1.34-5.4,1.64-8.25,0.87c-3.88-1.06-6.7-3.28-6.68-7.59c0.01-4.31,2.68-6.47,6.75-7.4c2.65-0.61,5.29-0.43,7.94-0.57
			c0.77-0.04,1.88-0.16,2.19-0.65c0.61-0.97-0.24-1.99-0.93-2.6c-2.89-2.56-6.39-2.2-9.38-0.76c-3.06,1.47-3.9-0.21-4.76-2.26
			c-1.18-2.81,1.44-2.96,2.91-3.54c2.47-0.98,5.1-1.37,7.82-1.32c8.04,0.17,11.94,3.78,12.44,11.79c0.12,1.99,0.02,3.99,0.02,5.99
			C493.59,794.81,493.6,794.81,493.61,794.81z"/>
		<path class="st20" d="M402.65,790.49c0.02-7.77,6.01-13.41,14.25-13.43c8.49-0.02,14.52,5.77,14.39,13.81
			c-0.13,7.71-6.29,13.33-14.52,13.24C408.55,804.01,402.63,798.3,402.65,790.49z"/>
		<path class="st24" d="M247.23,84.21c-0.4-0.1-0.8-0.2-1.21-0.3c1.56-1.41,3.48-0.88,5.26-0.88c94.5-0.02,188.99-0.02,283.49-0.01
			c6.89,0,8.63,1.95,8.32,9.09c0.56,1.1,0.37,2.28,0.37,3.44c0.01,45.14,0.01,90.29,0,135.43c0,1,0.08,2-0.26,2.97
			c-2.56,0.16-2.31-1.88-2.51-3.39c-0.26-1.98-0.12-3.99-0.12-5.98c0-43.08,0.01-86.17-0.03-129.25c0-2.45,0.55-5.03-1.08-7.25
			c-1.4-1.93-3.36-2.59-5.66-2.58c-2.17,0.01-4.33-0.02-6.5-0.02c-90.46,0-180.92,0.01-271.38-0.04
			C253.01,85.45,249.89,86.27,247.23,84.21z"/>
		<path class="st25" d="M674.68,245.13c2.75,4.76,3.34,9.89,3.33,15.33c-0.1,48.59-0.06,97.18-0.06,145.77
			c0,5.24-0.38,10.34-4.94,13.96c-0.43-0.51-0.66-1.11-0.69-1.78c3.88-8.15,3.03-16.88,3.03-25.49c0.01-43.29,0.01-86.58,0-129.87
			c0-2.16,0.08-4.33-0.14-6.49c-0.84-8.14-6.89-14.11-15-14.81c-2.16-0.18-4.33-0.12-6.49-0.12c-69.6,0-139.19,0.05-208.79-0.1
			c-5.25-0.01-10.13,1.48-15.22,2.01c-1.85-3.18,1.14-3.57,2.74-4.77c3.13-1.49,6.5-1.21,9.81-1.21c35.27,0.02,70.54-0.4,105.8,0.14
			c38.59,0.59,77.17,0.06,115.75,0.37c2,0,3.62,0.9,5.05,2.21C670.81,241.9,672.74,243.51,674.68,245.13z"/>
		<path class="st20" d="M436.65,790.45c0-2.99-0.03-5.98,0.01-8.98c0.05-4.07,3.33-6.18,6.2-3.52c1.83,1.7,2.53,0.97,4.02,0.35
			c9.28-3.89,16.25,0.83,16.31,10.98c0.02,3.49-0.12,6.99,0.04,10.47c0.13,2.74-0.27,4.33-3.68,4.21c-2.99-0.1-4.2-0.95-4.02-4.03
			c0.21-3.48,0.07-6.98,0.02-10.47c-0.04-3.21-1.25-5.56-4.85-5.69c-3.74-0.14-6.1,1.73-6.38,5.48c-0.27,3.64-0.25,7.32-0.07,10.96
			c0.14,2.88-0.99,3.74-3.76,3.72c-2.59-0.02-4.08-0.44-3.88-3.51C436.82,797.11,436.65,793.77,436.65,790.45z"/>
		<path class="st2" d="M148.06,769.5c3.66,0,7.33,0.12,10.98-0.05c2.64-0.12,3.44,0.88,3.42,3.46c-0.02,2.39-0.79,3.05-3.14,3.15
			c-7.84,0.33-7.84,0.44-7.84,8.28c0,5.33-0.13,10.66,0.05,15.97c0.1,3-1.24,3.61-3.89,3.6c-2.71-0.02-4.4-0.34-4.27-3.75
			c0.23-6.15-0.18-12.33,0.15-18.47c0.23-4.3-0.69-6.65-5.53-5.72c-0.96,0.18-2-0.04-2.99,0.03c-2.53,0.19-2.47-1.47-2.48-3.24
			c-0.02-1.85,0.16-3.32,2.57-3.28C139.41,769.55,143.74,769.51,148.06,769.5z"/>
		<path class="st2" d="M586.31,803.29c-5.73,1.5-9.4,0.31-11.69-4.31c-1.83-3.7-3.57-2.36-4.97,0.34c-2.28,4.4-5.83,5.45-10.7,4.11
			c1.43-4.03,4.57-6.82,7.04-10c1.73-2.23,1.9-3.78-0.03-5.99c-2.56-2.94-4.69-6.24-7.07-9.48c7.53-3.02,10.25,2.29,13.44,6.94
			c3.7-3.74,5.6-10.21,13.38-6.79c-2.39,3.2-4.58,6.43-7.08,9.39c-1.71,2.03-1.75,3.54-0.03,5.59
			C581.23,796.2,583.55,799.59,586.31,803.29z"/>
		<path class="st2" d="M699.24,776.94c2.38-0.07,4.64,0.46,6.87,1.15c1.48,0.46,3.03,1.04,2.12,3.08c-0.72,1.61-1.23,3.62-3.86,2.68
			c-2.69-0.96-5.46-1.56-8.28-0.53c-0.93,0.34-1.91,0.88-1.77,2.09c0.11,0.89,0.83,1.41,1.7,1.61c2.59,0.58,5.19,1.07,7.76,1.71
			c3.32,0.83,5.73,2.62,6.06,6.34c0.35,3.95-1.87,6.29-5.18,7.65c-5.36,2.2-10.73,1.59-16.05-0.35c-1.85-0.67-2.32-1.71-1.39-3.4
			c0.75-1.36,0.99-3.33,3.48-2.19c2.92,1.33,6.04,1.75,9.24,1.23c0.99-0.16,2.07-0.27,2.25-1.54c0.22-1.49-0.85-2.11-2.01-2.39
			c-1.77-0.44-3.59-0.67-5.38-1.02c-4.18-0.81-7.91-2.28-7.89-7.38c0.02-5.06,3.5-7.21,7.88-8.23
			C696.24,777.1,697.76,777.1,699.24,776.94z"/>
		<path class="st2" d="M389.13,776.83c1.79,0.31,3.78,0.52,5.69,1.01c1.62,0.42,4.06,0.4,3.25,3.19c-0.65,2.26-1.81,3.91-4.69,2.61
			c-1.99-0.9-4.21-1.07-6.37-0.65c-1.31,0.25-2.82,0.71-2.82,2.33c0,1.41,1.42,1.7,2.54,1.96c2.42,0.56,4.89,0.95,7.29,1.57
			c3.16,0.82,5.34,2.72,5.72,6.12c0.38,3.42-1.36,5.76-4.26,7.23c-5.77,2.93-11.59,2.15-17.4,0c-1.74-0.65-1.83-1.8-1.05-3.14
			c0.73-1.26,0.85-3.56,3.39-2.3c2.28,1.13,4.81,1.53,7.27,1.43c1.55-0.06,4.19,0.62,4.31-2.08c0.1-2.25-2.18-2.06-3.72-2.41
			c-1.3-0.3-2.64-0.4-3.93-0.69c-3.91-0.9-7.47-2.22-7.54-7.17c-0.06-4.88,2.95-7.13,7.19-8.21
			C385.6,777.23,387.27,777.12,389.13,776.83z"/>
		<path class="st2" d="M755.91,776.88c2.21,0.04,4.32,0.4,6.4,1.05c1.6,0.5,3.53,0.78,2.65,3.19c-0.68,1.86-1.37,3.83-4.21,2.64
			c-2.32-0.97-4.83-1.28-7.33-0.61c-1.11,0.3-2.38,0.68-2.31,2.17c0.05,1.18,1.06,1.6,2.07,1.82c2.58,0.59,5.2,1.05,7.76,1.72
			c3.14,0.82,5.33,2.66,5.63,6.13c0.31,3.62-1.46,6.09-4.62,7.51c-5.48,2.46-10.99,1.88-16.49-0.1c-1.74-0.63-2.51-1.53-1.55-3.33
			c0.77-1.43,1.23-3.24,3.59-2.24c2.96,1.25,6.05,1.71,9.25,1.17c1-0.17,2.11-0.36,2.31-1.52c0.25-1.47-0.92-2.08-2.06-2.36
			c-1.93-0.48-3.92-0.72-5.86-1.14c-3.98-0.86-7.44-2.4-7.46-7.24c-0.01-4.82,3.13-7.05,7.33-8.14
			C752.6,777.19,754.27,777.11,755.91,776.88z"/>
		<path class="st2" d="M222.83,790.26c-0.2,3.11,0.76,5.37,3.47,6.79c2.71,1.42,5.4,1.11,7.36-0.92c2.75-2.85,4.89-0.55,6.27,0.88
			c2,2.08-0.7,3.42-2.05,4.48c-5.32,4.18-14.93,3.12-19.63-1.98c-4.47-4.85-4.49-12.88-0.06-17.75c4.79-5.25,14.17-6.42,19.57-2.27
			c1.41,1.08,4.05,2.58,2.29,4.57c-1.36,1.54-3.66,4.03-6.54,0.91c-1.99-2.15-4.89-1.91-7.44-0.69
			C223.54,785.47,222.64,787.74,222.83,790.26z"/>
		<path class="st18" d="M388.88,608.2c-2.72,4.58-6.55,4.8-10.93,2.74c-2.22-1.05-4.43-2.2-6.73-0.19
			c-3.06-4.88-5.32-10.16-7.54-15.45c-0.33-0.78-0.3-1.61,0.49-2.21c5.38-0.66,10.79-1.11,15.86-3.28c1,3.66,2.13,7.3,2.96,11
			C383.79,604.28,385.44,606.9,388.88,608.2z"/>
		<path class="st17" d="M544.11,628.97c1.79,0,3.59,0,5.38,0c43.46,0,86.96,1.03,130.37-0.48c18.66-0.65,37.34-1,56.01-1.52
			c1.16-0.03,2.33-0.01,3.5,0.02c1.01,0.03,2.17,0.08,2.26,1.38c0.09,1.33-1.03,1.5-2.06,1.56c-0.83,0.04-1.66,0.03-2.5,0.03
			c-63.44,0-126.89,0-190.33,0c-0.81,0-1.62,0-2.43,0C544.24,629.63,544.17,629.3,544.11,628.97z"/>
		<path class="st26" d="M500.24,785.43c0-4.83,0.15-9.66-0.05-14.47c-0.13-3.1,1.42-3.51,3.97-3.53c2.61-0.03,3.96,0.52,3.91,3.55
			c-0.15,9.81-0.16,19.64,0.01,29.45c0.05,3.11-1.37,3.53-3.94,3.51c-2.53-0.02-4.08-0.41-3.95-3.53
			C500.4,795.42,500.24,790.42,500.24,785.43z"/>
		<path class="st27" d="M420.79,410c0.05-33.97,0.1-67.94,0.15-101.92c0.01-3.33,0.02-6.66,0.03-9.99
			c-1.03-11.9-0.22-23.82-0.42-35.73c-0.03-1.98-0.65-4.14,0.69-5.97c0.38-0.6,0.07,0.72-0.31,0.18c-0.24-0.35-0.4-0.28-0.41,0.2
			c-0.1,11.94,0.04,23.88-0.11,35.82c-0.02,1.52,1.3,3.77-1.39,4.6c-1.52-1.4-1.42-3.25-1.42-5.08c0-11.44-0.03-22.88,0.02-34.31
			c0.01-2.83,0.03-5.68,2.43-7.78c2.7-0.46,0.25,2.83,2.14,2.82c-0.28-2.16-0.28-2.16,1.54-2.12c0.7,1.38,0.86,2.87,0.83,4.37
			c-0.3,14.94,0.93,29.91-0.81,44.82c-0.23,1.98-0.14,3.98-0.14,5.98c0,31.25,0.07,62.49-0.07,93.74
			c-0.03,5.51,1.45,10.87,1.12,16.37c-1.05,1.74-1.87,1.34-2.54-0.29C421.68,413.81,421.24,411.91,420.79,410z"/>
		<path class="st28" d="M366.99,519.02c-2.79-6.24-2.86-13.16-4.87-19.61c-2.11-6.79-3.99-13.67-5.62-20.59
			c-0.99-4.2-4.16-6.67-6.56-9.78c9.76,3.72,16.04,10.4,18.62,20.74c0.84,3.36,0.04,6.48-0.76,9.21
			C365.83,505.72,366.32,512.31,366.99,519.02z"/>
		<path class="st3" d="M165.65,790.53c0-2.99-0.04-5.99,0.01-8.98c0.06-3.97,3.13-6.4,5.82-3.97c2.71,2.44,4.1,0.63,6.12,0.18
			c1.59-0.35,3.85-2.05,4.3,0.99c0.28,1.91,1.51,4.9-2.41,5.31c-4.84,0.5-6.21,3.79-6.17,8.1c0.03,2.66-0.13,5.33,0.04,7.98
			c0.18,2.79-0.84,3.79-3.69,3.82c-2.96,0.03-4.29-0.79-4.07-3.94C165.82,796.86,165.65,793.69,165.65,790.53z"/>
		<path class="st29" d="M357.69,790.34c0-2.99-0.04-5.97,0.01-8.96c0.06-3.71,3.58-6.18,5.96-3.77c2.28,2.32,3.35,1.01,5.24,0.38
			c1.57-0.52,4.02-2.58,4.75,0.68c0.45,2.05,1.43,5.1-2.76,5.48c-3.69,0.34-5.38,2.97-5.57,6.54c-0.16,2.98-0.3,5.97-0.21,8.94
			c0.08,2.65-0.16,4.37-3.62,4.33c-3.2-0.04-4-1.3-3.84-4.18C357.82,796.66,357.69,793.49,357.69,790.34z"/>
		<path class="st30" d="M370.03,618.94c2.85-0.38,5.5,0.58,7.14,2.65c2.51,3.16,5.62,3.49,9.21,3.48
			c10.23-0.04,20.46,0.09,30.69,0.15c0.31,0.26,0.62,0.52,0.93,0.78c-2.14,2.93-5.33,2.95-8.46,2.96
			c-10.43,0.03-20.87,0.01-31.3,0.01c-10.02,0-9.21,0.77-9.24-8.99C368.8,619.09,369.06,618.66,370.03,618.94z"/>
		<path class="st31" d="M436.09,427.08c76.55,0,153.11,0,229.66,0c0,0.31,0,0.62,0,0.93c-76.25,0-152.49,0-228.74,0
			C436.71,427.7,436.4,427.39,436.09,427.08z"/>
		<path class="st32" d="M542.88,234.16c0.04-40.54,0.08-81.07,0.13-121.61c0.01-6.81,0.05-13.62,0.07-20.43
			c0.3,0.32,0.6,0.65,0.89,0.97c0,44.66-0.02,89.32,0.01,133.97c0.01,9.08-1.13,7.87,7.96,7.99c1,0.01,2,0,3,0
			c0.01,0.66,0.01,1.31,0.02,1.97c-4.33,1.07-8.71,2.78-12.6-1.11C542.33,235.26,542.5,234.68,542.88,234.16z"/>
		<path class="st24" d="M542.87,234.9c0.57,2.94,2.93,2.02,4.73,2.1c2.45,0.1,4.92,0.01,7.38,0c35.64,0.01,71.28,0.03,106.92,0.02
			c2.87,0,5.81-0.32,6.98,3.25c-1.3-0.43-2.59-0.87-3.89-1.3c-1.74-0.85-3.6-0.43-5.4-0.43c-37.41-0.03-74.81-0.02-112.22-0.02
			c-1.33,0-2.74,0.29-3.97-0.09C541.07,237.72,540.4,236.47,542.87,234.9z"/>
		<path class="st33" d="M419,308.04c2.04,1.14,0.94,3.05,0.94,4.54c0.07,32.47,0.06,64.95,0.06,97.42c-0.07,0.63-0.13,1.27-0.2,1.9
			c-0.27,0-0.54-0.01-0.81-0.01C419,377.27,419,342.66,419,308.04z"/>
		<path class="st34" d="M255.01,415.02c3.77,16.41,3.32,32.46-4.09,47.91c1.27-5.29,2.74-10.55,3.78-15.88
			c2.07-10.7,1.99-21.4-0.74-32.01C254.3,414.69,254.65,414.67,255.01,415.02z"/>
		<path class="st35" d="M309.91,460.78c-5.7,2.63-12.01,3.16-17.87,5.25c-1.36,0.64-2.72,0.76-4.05-0.08
			c5.32-2.83,11.42-2.98,17.04-4.83c2.86-0.94,4.27-2.15,4.12-5.09C310.68,457.41,309.89,459.16,309.91,460.78z"/>
		<path class="st36" d="M255.01,415.02c-0.35,0.01-0.7,0.01-1.05,0.02c-2.03-5.31-4.07-10.63-6.1-15.94
			C252.04,403.6,252.85,409.61,255.01,415.02z"/>
		<path class="st37" d="M400.04,617.05c-2.35,1.41-3.98-0.9-5.81-1.49c-0.85-0.28,1.29-2.21,1.82-3.53
			c1.18-0.32,2.16,0.05,3.04,0.83c0.02,0.2,0.04,0.41,0.07,0.61C399.38,614.69,399.96,615.81,400.04,617.05z"/>
		<path class="st38" d="M239.14,289c-1.21-4.28-2.95-8.44-3.16-12.96c2.44,3.99,3.08,8.54,4.04,13
			C239.71,289.5,239.42,289.49,239.14,289z"/>
		<path class="st39" d="M408.02,615.82c-2,0.01-4,0.01-5.99,0.02c-1.36-0.54-3.1-0.63-3.19-2.68c0,0,0.25-0.29,0.25-0.29
			C402.27,613.22,405.25,614.21,408.02,615.82z"/>
		<path class="st40" d="M562.93,590.95c-0.96,3.36-1.93,6.72-2.89,10.08C559.64,597.28,559.9,593.72,562.93,590.95z"/>
		<path class="st8" d="M434.88,426.15c-3.33-0.04-6.12-1.13-7.96-4.07c0.19-0.16,0.37-0.31,0.56-0.47c3.07,0.49,6.08,1.09,7.54,4.37
			L434.88,426.15z"/>
		<path class="st8" d="M422.12,415.72c0.63,0.43,1.26,0.86,1.89,1.29c1.15,0.17,1.85,0.95,2.49,1.81c0.52,0.93,1.03,1.87,0.68,2.99
			c0,0-0.26,0.26-0.26,0.26C424.53,420.56,422.39,418.85,422.12,415.72z"/>
		<path class="st40" d="M568.83,583.88c-1.28,2.02-2.61,3.98-4.93,4.97C564.61,586.26,566.27,584.62,568.83,583.88z"/>
		<path class="st38" d="M242.03,291.02c0.67,1.68,1.34,3.36,2.01,5.04c-0.19,0.72-0.62,1.18-1.38,1.29
			c-1.82-0.44-0.49-2.52-1.69-3.28l0.01,0.01c-0.54-1.05-0.69-2.08,0.12-3.07C241.41,291.02,241.72,291.02,242.03,291.02z"/>
		<path class="st21" d="M241.1,291.02c-0.04,1.02-0.08,2.05-0.12,3.07c-1.23-1.47-1.55-3.27-1.84-5.08c0.29,0,0.59,0.02,0.88,0.03
			C240.38,289.7,240.74,290.36,241.1,291.02z"/>
		<path class="st29" d="M29.93,31.13c-0.01,1.33-0.02,2.66-0.03,3.99c-6.26,13.08-7.5,26.94-7.49,41.27
			c0.14,225.16,0.04,450.32,0.16,675.48c0.02,31.95-1.08,63.91,0.81,95.84c-0.53,13.98,10.16,27.83,23.24,30.21
			c7.88,1.44,15.72,2.58,23.73,2.58c253.9,0,507.81-0.01,761.71,0.01c8.86,0,17.64-0.91,26.13-3.27c9.49-2.64,14.77-9.98,17.95-18.7
			c2.69-7.38,3.19-15.21,3.19-23.09c-0.04-256.4-0.04-512.81,0-769.21c0-11.02-1.92-21.48-7.38-31.16
			c-0.01-1.66-0.02-3.33-0.04-4.99c6.27,6.23,9.24,13.92,9.98,22.59c0.07,0.83,0.01,1.66,0.01,2.5c0,263.51,0.01,527.03-0.03,790.54
			c0,15-5.87,26.9-19.68,34.07c-1.34,0.7-2.71,1.28-4.28,1.12c-3.02,2.36-6.73,1.95-10.2,2.48c-1.92,0.29-3.94-0.53-5.8,0.52
			c-1,0.33-2,0.67-3,1c-1.73,0.92-3.6,0.46-5.4,0.46c-255.01,0.02-510.03,0.02-765.04,0c-1.8,0-3.67,0.45-5.4-0.46
			c-1.1-0.03-2.28,0.18-3-1c-3.58-1.34-7.37-0.49-11.09-1.13c-5.5-0.94-10.21-3.23-14.9-5.87c-7.39-5.6-12.99-12.33-14-22
			C17.78,589.46,19.75,324,19.06,58.55c-0.02-8.35,2.93-15.85,6-23.36C25.96,33,27.99,32.1,29.93,31.13z"/>
		<path class="st3" d="M63.08,884.91c258.61,0,517.23,0,775.84,0c-1.48,1.64-3.43,0.97-5.18,0.97c-255.16,0.03-510.32,0.03-765.47,0
			C66.52,885.88,64.56,886.55,63.08,884.91z"/>
		<path class="st3" d="M34.09,876.91c8.09,4.49,17.11,5.46,25.99,7c-8.03,0.32-15.86-0.4-23.03-4.51
			C35.9,878.74,34.62,878.29,34.09,876.91z"/>
		<path class="st3" d="M841.92,883.91c3.89-1.88,8.29-0.65,12.27-1.99c1.22-0.41,2.48-0.68,3.72-1.01c-1.77,3.5-5.33,2.36-8.12,2.89
			C847.26,884.29,844.55,883.91,841.92,883.91z"/>
		<path class="st41" d="M307.97,339.29c-1.38,7.43-0.29,14.85,0.08,22.27c0.13,2.66-0.08,5.28-0.98,7.87
			c-2.62,7.55-5.67,9.79-13.6,9.62c-1.83-0.04-3.65-0.24-5.47-0.37c-2.09-1.1-4.42-1.56-6.69-2.58c1.67,1.56,4.16,1.23,5.58,2.95
			c-0.18,1.96,1.09,3,2.52,3.95c3.45,2.29,3.14,5.84,2.29,8.98c-0.8,2.96-2.87,4.75-6.42,2.72c-5.58-3.19-11.77-5.61-13.01-13.13
			c-0.3-1.82-1.79-3.12-3.05-4.44c2.63-4.3,1.17-8.49-0.32-12.69c-0.11-2.14-1.81-2.98-3.28-4.03c-1.78-1.26-3.24-2.82-3.97-4.93
			c-0.55-1.58-0.11-2.93,1.12-4.01c0.76-0.67,1.7-1.25,2.68-0.68c1.52,0.9,0.22,2.44,0.65,3.62c0.56,1.03,0.93,2.39,2.58,1.39
			c0.87-0.73,1.75-1.44,2.98-1.3c2.31-0.1,1.61-1.67,1.28-2.86c-0.76-2.72-1.52-5.45-1.81-8.25c-0.68-6.49,3.02-10.35,9.42-9.41
			c6.2,0.91,12.09,0.81,18.08-1.42C303.36,330.81,306.19,333.16,307.97,339.29z"/>
		<path class="st42" d="M247.23,84.21c12.32-0.04,24.64-0.11,36.96-0.11c82.59-0.01,165.19,0,247.78-0.01
			c3.34,0,6.77-0.37,8.97,3.01c0.92,1.37,0.51,2.91,0.51,4.37c0.03,46.93,0.02,93.86,0.02,140.78c0,4.82-0.5,5.27-6.64,5.27
			c-29.95,0.03-59.91,0.09-89.86-0.06c-4.98-0.03-9.83,1.41-14.81,0.81c-0.65-2.76,1.61-3.33,3.29-4.19
			c3.21-1.65,6.74-1.64,10.24-1.65c28.61,0,57.23,0.01,85.84-0.01c7.76,0,7.83-0.07,7.83-7.73c0.01-42.75,0.01-85.51,0.01-128.26
			c0-2-0.02-3.99-0.22-5.98c-0.15-2.11-1.54-2.78-3.38-2.9c-1.83-0.12-3.66-0.07-5.49-0.07c-90.57,0-181.15,0-271.72,0
			c-1.33,0-2.66-0.02-4,0.02c-5.18,0.16-6.07,0.97-6.08,6.24c-0.04,64.43-0.03,128.87-0.03,193.3c0,3.42,0.3,6.5,4.81,6.53
			c19.14-0.01,38.29,0,57.44-0.01c2.33,0,4.65,0.02,6.95-0.53c3.96-0.94,6.81-2.92,8.48-6.89c1.92-4.57,3.6-9.33,6.83-13.24
			c0.5-0.28,1.03-0.37,1.59-0.28c1.5,0.78,1.54,2.2,1.02,3.39c-2.59,6-4.63,12.27-8.39,17.72c-0.47,0.68-1.19,1.11-2.02,1.32
			c-1.92-0.33-3.96-0.94-4.44,1.97c-22.49,0.01-44.99,0.06-67.48,0.01c-5.73-0.01-7.37-1.72-7.37-7.56
			c-0.02-65.81,0-131.63-0.05-197.44C243.85,88.82,244.48,86.12,247.23,84.21z"/>
		<path class="st1" d="M269.95,364.16c0.92,3.11,2.93,5.93,2.07,9.5c-0.42,1.73-0.72,3.25-2.82,3.48
			c-12.52-14.7-16.08-32.78-19.2-51.03c-1.2-7.04-2.32-14.1-3.57-21.13c-0.29-1.66,0.07-3.92-2.64-4.11
			c-0.25-0.32-0.5-0.65-0.75-0.97c-0.69-0.93-0.75-1.88-0.06-2.85c0.35-0.33,0.69-0.66,1.04-0.99c1.58,0.99,3.02,2.3,5.08,2.18
			c4.05-0.09,7.11,0.79,8.61,5.39c1,3.07,4.59,2.82,7.41,2.84c13.95,0.07,27.89-0.01,41.84,0.06c2.44,0.01,5.04-0.43,7.09,1.51
			c-1.73,6.5-6.71,11.47-8.47,17.96c-3.66,1.73-4.77-1.06-5.67-3.5c-1.2-3.26-3.1-5.9-5.97-7.75c-3.42-2.2-7-3.22-10.55-0.16
			c-2.39,2.06-5.29,1.65-8.09,1.73c-3.33,0.11-6.01,0.82-5.66,5.07c0.15,1.88-1.2,2.96-2.51,4.05c-8.86,7.4-9.55,11.32-3.84,21.3
			c0.5,0.87,1,1.73,1.08,2.76c-3.82,5.27-3.47,7.08,2.34,11.12C268.12,361.56,269.3,362.59,269.95,364.16z"/>
		<path class="st5" d="M264.08,349.82c-7.27-9.64-7.69-14.59-2.08-21.86c1.07-1.39,2.47-2.21,3.8-3.14c1.79-1.25,3.38-1.97,2.5-4.99
			c-1.04-3.58,2.25-4.46,4.9-4.69c4.18-0.36,8.01-0.25,11.96-3.03c4.65-3.27,13.71,2.39,15.69,9.21c0.78,2.67,1.58,4.71,4.74,4.68
			c4.09,3.84,4.86,8.28,2.36,13.29c-0.94-1.35-1.81-2.76-2.83-4.05c-1.58-1.97-3.44-3.18-6.04-1.73c-5.73,3.2-11.8,2.87-17.99,1.8
			c-6.96-1.2-9.62,1.45-8.56,8.61c0.46,3.1,1.55,6.11,2.21,9.19c0.31,1.42,0.82,3.34-0.8,4.06c-1.54,0.68-1.73-1.66-2.88-2.21
			C268.38,353.74,266.98,350.76,264.08,349.82z"/>
		<path class="st43" d="M314.07,308.04c-16.72,0-33.44-0.07-50.15,0.03c-4.92,0.03-8.47-1.17-8.94-6.83c-0.33-3.97-4.42-0.99-5.87-3
			c21.64-0.03,43.28-0.03,64.91-0.15c3.45-0.02,4.81,0.78,2.89,4.23c-0.46,0.83-0.52,1.88-0.76,2.82
			C316.12,306.58,314.92,307.18,314.07,308.04z"/>
		<path class="st44" d="M323.19,295.05c3.91-7.06,7.63-14.21,9.95-21.99c-0.94-4.26-0.46-8.56-0.35-12.84
			c0.05-1.81,0.39-3.79,3.04-3.55c1.12,0.18,2.13,1.78,3.4,0.27c0.27-0.36,0.55-0.69,0.85-1.02c2.02-1.88,3.65-4.56,7.12-3.37
			c1.54,0.88,2.74,2.13,3.84,3.51c2.79,5.72,1.1,11.45-2.56,15.34c-6.69,7.11-9.05,15.68-11.15,24.6c-0.27,0.75-0.75,1.36-1.26,1.95
			c-1.28,0.78-0.42,1.96-0.55,2.95C331.4,298.95,327.29,297,323.19,295.05z"/>
		<path class="st45" d="M288,465.95c1.35,0.03,2.7,0.06,4.05,0.08c-10.67,3.32-21.34,6.64-32,9.96
			C268.73,470.9,278.45,468.66,288,465.95z"/>
		<path class="st46" d="M286.89,379.06c-3.51,0.17-6.18-1.44-8.38-4.14c3.44,0.57,7.25,0.1,9.49,3.76
			C287.63,378.81,287.26,378.93,286.89,379.06z"/>
		<path class="st8" d="M283.06,515.47c13.35-1.96,26.27-5.46,38.65-10.84c3.62-1.57,5.19-1.37,5.4,3.31
			c0.88,19.6,6.73,37.76,16.91,54.52c1.05,1.73,2.11,3.39,2.09,5.49c-2.15-0.66-3.49-0.54-4.52,2.12
			c-2.08,5.38-4.6,10.61-7.24,15.75c-1.49,2.89-3.21,5.47-6.99,5.44c-5.22,0.35-10.13-1.4-15.19-2.18c-0.56-0.15-1.07-0.4-1.55-0.73
			c-2-1.79-1.96-4.08-1.56-6.45c1.19-6.68,0.4-13.49,1.46-20.22c1.71-10.93,2.58-22.01,6.18-32.58c0.39-1.32,0.91-2.61,1.09-3.99
			c1.21-6.11,0.21-7.49-6.05-7.64c-7.66-0.18-15.33,0.04-22.99-0.1C286.72,517.34,284.33,517.95,283.06,515.47z"/>
		<path class="st1" d="M328,590.02c3.88-0.05,4.59-3.34,5.83-5.92c3.13-6.51,6.09-13.09,9.22-19.89c1.23,1.5,2.15,2.62,3.07,3.74
			c3.51,6.73,7.14,13.4,10.49,20.21c1.62,3.29,3.67,5.38,7.56,4.92c1.68,6.15,6.42,11.09,7.04,17.66c-1.62,2.55-2.37,5.24-1.19,8.2
			c-0.34,0.34-0.68,0.69-1.02,1.03c-2.53,6.99-2.53,6.99-11.01,6.99c-1.32,0-2.65,0-3.97,0c-0.87-0.69-1.43-1.64-2.13-2.47
			c-3.06-4.65-7.93-6.29-12.91-7.74c-1.93-0.72-3.9-1.3-5.85-1.97c-1.1-0.4-2.22-0.75-3.28-1.25c-2.07-1.26-4.1-2.59-5.8-4.35
			c-1.18-1.28-1.84-2.77-1.28-4.48C324.38,599.76,325.4,594.61,328,590.02z"/>
		<path class="st47" d="M283.06,515.47c9.47,0.2,18.94,0.34,28.41,0.62c9.31,0.28,10.04,1.33,7.4,9.93
			c-1.5,3.21-4.02,4.52-7.55,4.36c-2.95-0.14-5.92,0.07-8.88,0.02c-12.9-0.01-25.8,0.01-38.69,0c-1.8-0.05-3.62,0.09-5.39-0.34
			c-2.02-0.81-4.15-0.64-6.24-0.57c-2.99,0.1-5.37-0.9-7.05-3.43c-0.61-8.56,0.5-9.66,9.09-9.97c4.9-0.18,9.86,0.57,14.67-0.92
			C273.56,515.75,278.3,516.17,283.06,515.47z"/>
		<path class="st1" d="M265.83,514.9c-1.97-0.53-4.92,1.73-5.75-2.03C262.16,513.08,264.17,513.49,265.83,514.9z"/>
		<path class="st48" d="M606.45,626.96c-13.8,0-27.61-0.05-41.41,0.03c-3.8,0.02-5.6-0.73-4.3-5.2c2.15-7.37,8.81-10.04,14.6-6.49
			c2.77,1.69,3.41,1.42,4.01-1.7c0.55-2.85,0.75-5.83,2.73-8.41c4.39-5.74,10.93-6.16,15.62-0.67c0.61,0.71,0.81,2.05,2.07,1.69
			c1.12-0.32,0.98-1.56,1.26-2.51c1.59-5.45,3.61-10.69,7.62-14.92c5.2-5.5,11.28-8.05,18.78-5.48
			c5.93,2.03,11.34,10.19,11.56,17.37c0.12,3.82,0.25,7.67-0.08,11.47c-0.32,3.7,0.82,5.3,4.65,4.78c4.16-0.57,6.47,1.86,8.03,5.31
			c1.5,3.32,0.73,4.82-3.22,4.76c-10.97-0.16-21.95-0.05-32.93-0.05C612.44,626.96,609.45,626.96,606.45,626.96z"/>
		<path class="st49" d="M427.18,421.81c-0.45-0.91-0.91-1.81-1.36-2.72c1.53-1.13,2.93-0.33,4.13,0.5
			c3.62,2.53,7.67,2.84,11.91,2.84c71.92-0.04,143.83-0.1,215.75,0.12c5.63,0.02,10.16-2.57,15.27-3.68
			c0.05,0.44,0.09,0.88,0.14,1.31c-3.51,4.73-8.52,5.94-14.02,5.95c-16.8,0.01-33.59,0-50.39,0c-54.71,0-109.42,0-164.13-0.01
			c-3.15,0-6.3-0.1-9.46-0.16C432.41,424.59,429.79,423.2,427.18,421.81z"/>
		<path class="st50" d="M680.82,253.37c0,52.43,0,104.87,0,157.3c-0.17,0-0.33,0-0.5,0c0-52.5,0-105,0-157.5
			C680.48,253.24,680.65,253.31,680.82,253.37z"/>
		<path class="st51" d="M245.07,526.06c3.66,3.88,8.66,2.19,13.03,3.12c2.42,1.19,2.48,3.5,2.28,5.62
			c-1.28,13.55,0.1,27.26-2.54,40.71c-0.76,3.89,0.02,7.89-0.28,10.31c0.02-1.55-0.01-4.61,0-7.66c0.01-3.68,1.79-5.52,5.5-5.54
			c13.15-0.06,26.3-0.13,39.44,0.05c2.38,0.03,4.8,0.42,4.92,3.67c-0.23,0.73-0.71,0.95-1.41,0.66c-0.44-0.96-1.09-1.76-2.24-1.66
			c-13.29,1.23-26.61,0.34-39.91,0.48c-4.05,0.04-4.6,2.21-4.75,5.36c-0.66,13.77-1.37,27.54-2.11,41.31
			c-0.08,1.52,0.4,3.98-1.87,3.78c-1.79-0.16-1.02-2.51-0.98-3.85c0.97-27.73,1.99-55.46,3.04-83.19c0.04-1.15,0.41-2.28,0.62-3.43
			c0.73-4.14-0.51-6.34-5.21-5.97C249.54,530.06,246.04,530.35,245.07,526.06z"/>
		<path class="st52" d="M303.02,620.99c-0.33-0.01-0.65-0.03-0.98-0.05c-0.14-4.65,2.36-8.45,3.8-12.62
			c1.91-5.52,1.17-11.48,1.09-17.28c0.28-0.05,0.56-0.11,0.83-0.16c1.94,1.4,1.42,3.54,1.68,5.45c-0.01,4.71,0.32,9.46-1.38,13.99
			c-0.34,0.94-0.89,1.77-1.37,2.64c-1.46,2.65-1.95,4.97,1.7,6.35c1.15,0.44,2.51,1.28,1.39,3.01
			C307.29,623.04,305.06,622.48,303.02,620.99z"/>
		<path class="st52" d="M306.01,577c0.33,0,0.66,0.01,0.99,0.04c1.32,1.12,1.3,2.68,1.39,4.2c-0.35,3.23,0.98,6.69-1.27,9.68
			c0,0-0.19,0.12-0.19,0.12C305.14,586.45,306.38,581.67,306.01,577z"/>
		<path class="st53" d="M29.94,57.12c0.05,2.5,0.13,4.99,0.13,7.49c0.01,257.68-0.01,515.36,0.11,773.03c0,9.8,1.2,19.7,9.16,26.98
			c3.6,3.29,7.84,5.52,12.74,6.29c5.18,1.01,10.43,0.99,15.67,0.99c255.58,0.02,511.16,0.01,766.74,0.03c9.2,0,18.06-0.82,25.83-6.6
			c3.92-2.92,6.35-6.45,7.78-11.11c1.65-5.36,3.02-10.67,2.8-16.3c1.78-10.07,0.97-20.23,0.97-30.35c0.04-247.5,0.03-495,0.04-742.5
			c0-2.66,0.02-5.33,0.03-7.99c2.76,0.05,3.09,2.15,3.35,4.14c0.24,1.81,0.1,3.66,0.1,5.49c0,256.15,0,512.31,0.02,768.46
			c0,8.45-2.24,16.42-4.58,24.39c-3.03,5.5-7.81,9.14-13.09,12.27c-0.56,0.27-1.12,0.47-1.71,0.65c-6.13,2.57-12.55,2.97-19.11,2.96
			c-83.81-0.05-167.63-0.03-251.44-0.03c-173.46,0-346.92-0.01-520.38,0.04c-9.53,0-18.55-1.21-26.46-7.1
			c-4.45-3.31-7.53-7.53-9.03-12.78c-1.83-6.4-2.93-12.96-2.93-19.64C26.67,579.31,26.67,322.7,26.74,66.1
			C26.74,62.91,25.28,58.82,29.94,57.12z"/>
		<path class="st54" d="M871.96,35.08c3.41,1.69,4.75,5.04,5.75,8.23c2.69,8.58,3.27,17.45,3.27,26.46
			c-0.08,256.6-0.04,513.19-0.16,769.79c-0.01,12.24-2.76,23.8-11.99,33.09c-5.77,5.81-13.13,6.79-20.38,8.15
			c-8.18,1.54-16.54,1.11-24.85,1.11c-252.1-0.01-504.2-0.01-756.29-0.01c-8.32,0-16.8-0.65-24.46-3.5
			c-9.17-3.42-16.67-9.55-18.88-20.12c-0.72-3.44-3.62-6.48-1.88-10.37c2.55,0.03,1.95,2.42,2.79,3.73
			c0.86,2.91,1.77,5.81,2.85,8.65c0.69,1.87,1.57,3.62,2.99,5.06c1.96,2.11,3.99,4.15,6.13,6.07c3,2.46,6.44,3.96,10.22,4.74
			c1.14,0.35,2.28,0.69,3.44,1c1.77,0.6,3.64,0.38,5.45,0.71c0.6,0.08,1.18,0.21,1.76,0.37c2.33,0.42,4.67,0.24,6.99,0.24
			c257.48,0.01,514.97,0.01,772.45,0c2.33,0,4.66,0.13,6.97-0.22c0.55-0.19,1.12-0.31,1.69-0.41c1.79-0.36,3.71,0.01,5.43-0.86
			c1.11-0.53,2.24-1.01,3.48-1.19c10.46-1.51,20.29-12.04,20.42-21.91c-0.05-0.5-0.04-0.99,0.02-1.48c0.98-2.48,1.3-4.99,0.39-7.58
			c-0.29-3.17-0.15-6.34-0.15-9.5c-0.01-257.08-0.01-514.17,0-771.25c0-7.52-1.83-14.74-3.47-22
			C871.96,39.75,871.96,37.41,871.96,35.08z"/>
		<path class="st55" d="M875.91,852.92c0,0.33,0,0.67,0,1c-1.83,8.93-6.85,15.47-14.82,19.8c-3.5,1.85-7.82,1.29-11.09,3.82
			c-1.03,0.32-2.02,0.32-2.96-0.27c-0.38-0.39-0.53-0.86-0.44-1.4c2.88-3.69,7.85-2.6,11.31-4.96c4.33-2.6,8.93-4.91,11-10
			c2.46-9.38,5.08-18.64,5.07-28.54c-0.09-256.03-0.07-512.05-0.12-768.08c0-2.48,1.18-5.47-1.91-7.21c0-5,0-10,0-15
			c4.03,1.72,2.47,5.97,3.67,8.91c1.38,3.37,1.24,7.48,1.24,11.27c0.05,261.55,0.04,523.11,0.04,784.66
			C877.54,849.08,875.04,850.72,875.91,852.92z"/>
		<path class="st56" d="M336.06,297.95c0.03-0.59,0.05-1.18,0.08-1.77c1.2-0.82,2.56-0.57,3.88-0.57
			c24.14,0.02,48.27-0.02,72.41,0.03c2.12,0,4.37-0.41,6.21,1.19c2.26-1.11,1.33-3.2,1.34-4.86c0.08-11.92,0.04-23.84,1-35.77
			c0,13.96,0,27.92,0,41.88C392.67,298.05,364.37,298,336.06,297.95z"/>
		<path class="st57" d="M857.92,870.91c-2.97,3.19-7.91,2.05-11,5c-2.5,1.99-5.51,2.15-8.49,2.36c-1.99,0.14-4,0.05-6,0.05
			c-254.26,0-508.52-0.01-762.77,0.03c-6.35,0-12.71-0.32-18.83-1.72c-16.72-3.81-24.92-14.13-26.12-31.96
			c-0.16-2.33-0.11-4.66-0.11-7c0-257.76,0-515.51,0-773.27c0-4-0.04-8,0.67-11.95c-0.16-0.88-0.16-1.76,0-2.63
			c1.32-2.09,1.16-5.39,4.65-5.74c0.01,4.34,0.02,8.68,0.03,13.02c-2.38,2.25-1.84,5.2-1.84,7.98
			c-0.01,197.09-0.01,394.17-0.01,591.26c0,60.31-0.14,120.62,0.17,180.93c0.04,7.84,0.69,16.05,5.13,23.17
			c5.61,9.01,14.44,12.18,24.32,13.42c1.48,0.19,3,0.03,4.49,0.03c252.06,0,504.13,0.02,756.19-0.04
			C831.61,873.86,845.01,875.43,857.92,870.91z"/>
		<path class="st58" d="M26.09,49.08c0,0.67,0,1.33,0,2c-1.32,5.36-1.53,10.8-1.53,16.3c0.03,255.48,0.03,510.96,0.01,766.44
			c0,4.33,0.03,8.65,0.53,12.96c0.21,1.81,0.59,3.68-1.01,5.14c-1.62-0.86-0.38-3.14-2-4c-2.22-32.25-0.9-64.55-0.92-96.82
			c-0.15-228.55-0.1-457.1-0.01-685.65c0-9.98,1.75-19.77,7.05-28.55c0.41-0.68,1.12-1.19,1.69-1.77c0,1.66-0.01,3.31-0.01,4.97
			C27.83,42.75,27.19,46.02,26.09,49.08z"/>
		<path class="st59" d="M26.09,49.08c-0.13-3.59-0.4-7.24,3.8-8.99c0.01,1.34,0.01,2.68,0.02,4.01
			C27.6,44.97,28.58,48.36,26.09,49.08z"/>
		<path class="st60" d="M303.02,620.99c2.47-0.51,4.75,0.63,7.14,0.84c14.06,4.94,28.52,2.19,42.83,2.16
			c1.22,0.69,0.99,1.88,1.03,2.98c-1.79,1.11-3.79,1.01-5.78,1.01c-12.77-0.01-25.53-0.01-38.3-0.01
			C303.06,627.96,303.06,627.96,303.02,620.99z"/>
		<path class="st21" d="M243,297.04c0.02,0.95,0.04,1.9,0.06,2.85c-2.19-1.4-1.89-3.7-2.09-5.82
			C241.64,295.06,242.32,296.05,243,297.04z"/>
		<path class="st61" d="M604.74,797.86c-3.83,0.08-6.6-2.81-6.7-7c-0.12-4.64,2.38-7.4,6.68-7.37c3.94,0.03,6.6,2.9,6.56,7.09
			C611.25,794.72,608.5,797.78,604.74,797.86z"/>
		<path class="st61" d="M304.49,775.99c6.4,0.02,9.07,1.79,9.16,5.76c0.1,4.18-2.72,5.67-8.87,6.2c-6.32,0.55-4.61-3.59-4.96-6.92
			C299.39,776.96,300.66,774.99,304.49,775.99z"/>
		<path class="st62" d="M398.84,613.15c1.06,0.9,2.12,1.79,3.19,2.69c-0.66,0.4-1.32,0.81-1.98,1.21
			C398.58,616.08,397.11,615.11,398.84,613.15z"/>
		<path class="st63" d="M345.2,788.22c-3.69,0-6.83,0.02-9.98-0.02c-0.76-0.01-1.75,0.23-2.12-0.77c-0.4-1.11,0.37-1.9,1.03-2.62
			C337.37,781.33,342.32,782.55,345.2,788.22z"/>
		<path class="st64" d="M196.41,798.98c-2.17-0.14-4.45-0.73-4.12-3.25c0.48-3.67,3.82-2.93,6.34-3.12
			c1.62-0.12,3.75-0.29,3.27,2.33C201.37,797.83,199.15,798.88,196.41,798.98z"/>
		<path class="st65" d="M726.65,788.41c-1.96-0.87-5.44,1.16-5.64-1.39c-0.23-2.83,2.99-4.15,5.86-4.13
			c2.68,0.02,5.82,1.4,5.54,3.89C732.06,789.97,728.49,787.26,726.65,788.41z"/>
		<path class="st66" d="M636.45,788.41c-2.04-0.93-5.61,1.28-6-1.31c-0.41-2.77,2.83-4.14,5.64-4.19c2.83-0.05,6,1.2,5.77,4.06
			C641.66,789.65,638.26,787.48,636.45,788.41z"/>
		<path class="st67" d="M480.48,798.99c-2.19-0.17-4.49-0.55-4.33-3.09c0.25-3.84,3.62-3.09,6.07-3.24
			c1.38-0.09,3.78-0.91,3.62,1.82C485.66,797.72,483.15,798.64,480.48,798.99z"/>
		<path class="st61" d="M416.57,797.85c-3.98-0.23-6.48-3.52-6.15-8.04c0.32-4.27,3.06-6.65,7.23-6.29
			c3.84,0.33,6.42,3.57,6.08,7.63C423.4,795.22,420.35,798.08,416.57,797.85z"/>
		<path class="st68" d="M430.08,238.29c4.29-1.47,8.71-1.97,13.23-1.97c30.95,0.02,61.89-0.05,92.84,0.09
			c3.93,0.02,5.12-1.08,5.1-5.08c-0.14-46.25-0.09-92.51-0.11-138.76c0-1.82-0.13-3.65-0.21-5.47c2.22,1.6,1.29,3.97,1.29,5.98
			c0.06,45.07,0.05,90.14,0.08,135.22c0,1.96-0.5,4,0.57,5.87c-0.05,0.25-0.06,0.5-0.02,0.75c-1.74,2.9,0.21,3,2.28,3
			c4.82,0.02,9.64,0.04,14.45,0.04c32.89,0,65.79-0.01,98.68,0.04c2.25,0,4.68-0.69,6.71,0.99c-74.48-0.02-148.95-0.03-223.43-0.06
			c-3.17,0-6.33-0.06-9.3,1.32c-0.96,0.34-1.66-0.09-2.29-0.76C429.76,239.06,429.81,238.66,430.08,238.29z"/>
		<path class="st0" d="M672.88,418.87c-3.87,3.84-8.41,5.25-13.95,5.24c-69.87-0.14-139.74-0.1-209.61-0.07
			c-8.21,0-16.56,0.97-23.5-4.95c-0.6-0.7-1.21-1.39-1.81-2.09c-1.38-4.99-1.66-10.07-1.65-15.23c0.05-32.95-0.05-65.9,0.04-98.84
			c0.05-17.63,0.38-35.26,0.58-52.89c-1.47-3.39,1.04-4.92,3.11-6.66c0.9-0.45,1.81-0.82,2.83-0.4c7.07-3.89,14.79-2.96,22.37-2.96
			c68.75-0.01,137.49-0.01,206.24,0c12.58,0,19.29,6.77,19.29,19.45c0,47.94-0.07,95.88,0.09,143.82
			C676.93,408.99,676.04,414.14,672.88,418.87z"/>
		<path class="st69" d="M428.92,242.99c-0.64,0.32-1.29,0.64-1.93,0.96c-0.63-0.25-1.24-0.54-1.49-1.24c-0.28-1.25,0.25-2.2,1.14-3
			c0.96-0.64,1.95-1.13,3.15-0.72c0.83,0.42,1.66,0.84,2.48,1.25C431.24,241.27,429.55,241.48,428.92,242.99z"/>
		<path class="st70" d="M427.11,240.09c-0.49,0.92-0.97,1.83-1.46,2.75c-1.86,2.12-2.93,4.78-4.81,6.88
			c-1.55,2.5-1.68,5.27-1.68,8.1c0.02,11.21,0.03,22.43-0.02,33.64c-0.01,1.79-0.33,3.58-0.51,5.38
			c-25.37-0.02-50.74-0.04-76.11-0.07c-2.14,0-4.32,0.26-6.39-0.59c0.95-3.86,1.94-7.71,2.84-11.58c1-4.33,3.25-7.76,6.37-10.98
			c4.74-4.89,6.93-10.79,4.61-17.7c-2.58-4.09,0.81-4.11,3.15-4.25c6.65-0.38,13.31-0.1,19.97-0.16c1.83-0.02,3.67,0.07,5.46-0.4
			c1.6-0.42,2.7-1.34,2.67-3.12c-0.03-1.58-1.21-2.27-2.5-2.77c-1.58-0.61-3.26-0.64-4.93-0.64c-28.13-0.03-56.27-0.03-84.4,0
			c-2,0-4,0.02-5.85,0.97c-1.12,0.58-1.89,1.48-1.87,2.73c0.02,1.29,0.96,2.1,2.09,2.56c1.9,0.77,3.92,0.67,5.92,0.67
			c14.82,0.01,29.63-0.01,44.45,0.02c2.32,0,4.67-0.22,6.92,0.62c2.79,2.28-0.69,3.24-1.03,4.86l-0.01,0.01
			c-0.74,1.12-1.53,2.14-3.04,1.07c-2.81-1.98-2.64-0.1-2.82,1.97c-0.38,4.33,0.63,8.77-0.99,13c-0.37-0.01-0.75-0.02-1.12-0.03
			c-1.22-3.75-0.39-7.6-0.42-11.39c-0.03-3.58-1.46-4.88-4.99-5.24c-11.63-1.21-23.25,0.15-34.88-0.14
			c-3.18-0.08-6.33-0.08-9.37-1.12c-3.08-1.05-5.13-3.08-5.46-6.45c-0.34-3.43,1.47-5.65,4.3-7.25c2.07-1.17,4.3-1.81,6.68-1.82
			c29.14-0.11,58.28-0.14,87.43,0.02c2.55,0.01,4.93,0.76,7.09,2.15c5.28,3.38,5.12,9.84-0.37,12.94
			c-3.83,2.16-8.02,2.04-12.18,1.44c-3.82-0.56-7.6-0.78-11.43-0.16c-2.64,0.42-4.33,1.56-4.37,4.45
			c-0.1,7.12-3.42,12.69-8.27,17.61c-3.21,3.26-3.54,7.8-4.72,11.92c-0.55,1.93,0.47,3.18,2.55,3.43c1.33,0.16,2.66,0.13,3.99,0.13
			c19.98,0,39.97,0.02,59.95-0.01c7.67-0.01,8.97-1.34,8.99-9.06c0.02-9.49,0.08-18.99-0.02-28.48c-0.05-5.28,2.02-9.73,4.88-13.89
			C422.69,240.19,424.32,238.22,427.11,240.09z"/>
		<path class="st56" d="M420.85,249.72c0.33-3.18,1.34-5.89,4.81-6.88c0.44,0.37,0.88,0.75,1.33,1.12c-1.95,1.63-3.17,3.73-4,6.1
			c-1.18,0.62-0.71,2-1.65,3.39C421.13,251.92,420.99,250.82,420.85,249.72z"/>
		<path class="st71" d="M295.25,369.79c-2.66-0.73-6.31-1.57-5.77-4.84c0.59-3.58,4.41-1.57,6.79-1.72c1.9-0.12,5.04-0.75,4.68,2.6
			C300.66,368.62,298.06,369.61,295.25,369.79z"/>
		<path class="st72" d="M264.08,349.82c3.34,0.35,5.82,1.87,6.99,5.16c-0.67,0.7-1.34,1.39-2.01,2.09
			c-0.18-0.09-0.36-0.18-0.54-0.27c-0.93-0.67-1.55-1.84-2.94-1.75c-0.2,0.01-0.39,0.02-0.58,0.03c-2.09-1.23,0.87-2.43,0.08-3.69
			c-3.5,2.55-3.07,5.29,1.36,8.26c1.7,1.14,4.16,1.59,3.51,4.52c-1.94-1.52-3.95-2.96-5.81-4.57
			C260.23,356.19,260.25,353.37,264.08,349.82z"/>
		<path class="st73" d="M280.2,347.65c3.36-4.52,6.6-4.24,10.03-2.94c0.92,0.35,1.94,0.94,1.61,2.15c-0.4,1.47-1.51,0.85-2.4,0.51
			C286.73,346.35,283.99,347.37,280.2,347.65z"/>
		<path class="st74" d="M285.14,353.61c1.05-0.32,1.57-0.68,1.96-0.57c1.59,0.42,3.19-1.63,4.62-0.1c0.58,0.61,0.06,1.55-0.74,2.06
			C288.87,356.31,287.04,356.2,285.14,353.61z"/>
		<path class="st75" d="M304.55,344.83c-2.16,1.39-4.3,2.73-6.97,1.7c-0.15-0.06-0.19-1.07,0.04-1.29
			C299.78,343.21,302.19,344.69,304.55,344.83z"/>
		<path class="st76" d="M297.08,355.35c2.7,1.29,3.47,2.87,2.67,5.07c-0.3,0.83-1.41,1.6-1.87,1.06
			C296.4,359.74,297.82,357.65,297.08,355.35z"/>
		<path class="st77" d="M302.01,353.94c-1.16-0.03-2.09-0.2-2.26-1.14c-0.25-1.38,0.94-1.55,1.89-1.66
			c0.78-0.09,1.81-0.18,1.95,0.94C303.75,353.36,302.6,353.57,302.01,353.94z"/>
		<path class="st72" d="M269.07,357.06c-2.83,2.34-3-0.74-4.06-1.99c0,0,0.07-0.07,0.07-0.07c2.35-1.4,2.67,1.22,3.92,1.99
			L269.07,357.06z"/>
		<path class="st0" d="M427.11,240.09c-1.8-0.18-3.13,0.3-4.17,2c-2.77,4.55-5.22,9.01-5.03,14.71c0.32,9.82,0.09,19.65,0.09,29.48
			c0,7.53-1.22,8.75-8.68,8.75c-21.49,0-42.97,0-64.46,0c-6.26,0-6.47-1.55-5.15-7.45c1.59-7.09,6.34-11.75,10.2-17.15
			c2.71-3.8,2.48-8.09,2.54-12.28c0.02-1.72-0.35-2.87,1.84-3.1c5.25-0.55,10.38-1.72,15.78-0.31c3.3,0.87,6.93,0.73,10.31-0.65
			c2.64-1.08,4.49-2.65,4.67-5.78c0.18-3.01-1.51-4.49-3.9-5.74c-2.13-1.12-4.3-1.56-6.7-1.55c-28.65,0.05-57.3,0.05-85.95-0.01
			c-2.61-0.01-4.86,0.68-7.13,1.84c-2.57,1.31-3.73,3.25-3.3,6.06c0.46,2.97,2.23,4.76,5.24,5.12c8.26,0.97,16.51,0.74,24.82,0.32
			c7.5-0.38,15.07,0.45,22.6,0.74c1.39,0.05,2.27,0.74,2.2,2.14c-0.3,5.27,1.08,10.64-0.91,15.81c-2.07,4.42-4.46,8.72-6.14,13.28
			c-2.49,6.77-7.61,8.72-14.1,8.72c-19.91,0.01-39.82,0-59.73,0c-6-2.25-6-2.25-6-9.22c0-63.48,0-126.96,0-190.44
			c0-8.63,0.14-8.77,8.54-8.77c92.14,0,184.28,0,276.42-0.02c3.23,0,6.47-0.29,7.98,3.51c0,45.98-0.07,91.96,0.11,137.94
			c0.02,4.75-1.17,6.18-6.04,6.14c-30.65-0.22-61.3-0.11-91.96-0.11c-4.21,0-8.19,0.63-11.01,4.24c-0.02,0.27-0.12,0.5-0.3,0.7
			C428.89,239.35,428,239.72,427.11,240.09z"/>
		<path class="st70" d="M538.98,90.08c-2.52-2.48-5.5-3.08-9.03-3.07c-91.57,0.09-183.15,0.07-274.72,0.07
			c-8.19,0-8.19,0.01-8.19,8.39c0,61.44-0.03,122.87,0.04,184.31c0.01,5.52-2.23,11.98,4.97,15.25c-6.34-0.13-7-0.73-7-6.82
			c-0.01-65.09-0.01-130.18,0-195.28c0-6.08,0.79-6.85,6.98-6.85c93.73-0.01,187.45,0,281.18-0.01
			C536.06,86.07,539.23,85.61,538.98,90.08z"/>
		<path class="st78" d="M341.98,253.09c-17.96-0.02-35.93-0.03-53.89-0.05c-1.33,0-2.67,0.1-3.99-0.05
			c-2.58-0.3-4.53-1.87-4.79-4.32c-0.26-2.5,1.41-4.44,3.9-5.12c1.57-0.43,3.27-0.48,4.91-0.48c28.94-0.03,57.88-0.02,86.82-0.02
			c0.67,0,1.33-0.01,2,0c3.51,0.09,6.74,1.36,6.57,5.2c-0.16,3.65-3.11,4.94-6.84,4.85c-7.98-0.2-15.97,0.03-23.95-0.11
			c-2.35-0.04-3.48,0.41-2.78,2.94c-0.99-0.97-1.98-1.93-2.97-2.89C345.3,251.46,343.66,253.7,341.98,253.09z"/>
		<path class="st79" d="M341.98,253.09c1.66-0.68,3.31-2.07,5-0.06c-3.5-0.72-4.5,2.93-6.98,3.98
			C339.81,255.28,341.46,254.47,341.98,253.09z"/>
		<path class="st79" d="M336.95,258.09c1.01-0.36,2.03-0.71,3.04-1.07c0.03,1.26-0.34,2.37-1.67,2.63
			C337.27,259.87,337.01,258.97,336.95,258.09z"/>
		<path class="st51" d="M307.05,580.98c-0.02-1.31-0.03-2.63-0.05-3.94c-0.18-3.11-2.42-3.07-4.67-3.07
			c-13.13,0.01-26.26,0.08-39.39-0.05c-3.49-0.04-4.85,1.53-4.89,4.72c-0.04,3.44-0.01,6.87-0.55,10.29
			c-0.02-6.91-1.33-13.82,0.28-20.7c0.15-0.64,0.26-1.32,0.23-1.97c-0.57-10.62,0.83-21.18,1.03-31.78c0.03-1.83,0.12-3.67-0.94-5.3
			c1.65-0.05,3.29-0.1,4.94-0.15c0.21,0.57,0.22,1.15,0.04,1.74c-1.12,5.87-1.08,11.88-1.45,17.79c-0.38,6.11-0.78,12.23-1.19,18.35
			c-0.23,3.42,1.27,4.74,4.69,4.71c11.96-0.1,23.93-0.06,35.9-0.02c2.62,0.01,4.81-0.39,4.57-3.68c-0.9-12.37-1.71-24.76-2.75-37.12
			c-0.13-0.6-0.06-1.18,0.19-1.74c5.32-0.81,11.27,1.7,15.84-3.03c0.43,1.23-0.62,2.04-0.86,3.09c-0.89,1.33-2.16,2.17-3.73,2.18
			c-5.01,0.03-5.1,3.48-4.62,6.91c1.22,8.61,0.81,17.23,0.76,25.87c-0.99,5.67,0.18,11.42-0.74,17.09
			C308.69,582.97,307.87,582.04,307.05,580.98z"/>
		<path class="st80" d="M309.11,563.95c-0.21-9.42,0.2-18.86-1.04-28.24c-0.59-4.43,0.83-6.53,5.59-5.9
			c1.39,0.19,2.9-0.45,4.35-0.71c-2.12,7.95-3.14,16.12-4.73,24.14c-1.9,9.57-1.09,19.29-3.18,28.73
			c-1.16-4.18-0.27-8.46-0.56-12.68C309.41,567.51,309.94,565.68,309.11,563.95z"/>
		<path class="st52" d="M328,590.02c0.12,4.72-2.31,8.75-3.59,13.08c-0.63,2.11-1.17,4.04,0.63,5.81c-0.62,0.6-1.33,0.68-2.12,0.43
			c-3.05-2.32-1.42-5.09-0.62-7.68c2.64-8.56,2.68-8.55-6-10.6c-1.45-0.34-2.91-0.65-4.11-1.64c-0.4-0.41-0.46-0.86-0.18-1.35
			C317.42,588.05,322.53,590.52,328,590.02z"/>
		<path class="st51" d="M312,588.07c-0.01,0.24-0.02,0.48-0.02,0.72c-1.96,2.06-0.58,5.92-3.9,7.25c-0.39-1.69,0.46-3.62-0.96-5.12
			c-0.02-3.31-0.04-6.63-0.06-9.94c0.63,0.33,1.26,0.66,1.9,0.99c1.53,1.68-0.73,4.69,2.06,5.93
			C311.34,587.95,311.67,588.01,312,588.07z"/>
		<path class="st52" d="M311.01,587.9c-3.77-0.9-1.24-4-2.06-5.93c0.05-6.01,0.11-12.01,0.16-18.02c2.15,5.91,0.35,12.04,0.99,18.03
			C309.98,584.02,309.77,586.07,311.01,587.9z"/>
		<path class="st81" d="M323.09,608.82c0.65,0.03,1.3,0.06,1.95,0.09c1.73,1.31,3.45,2.63,5.18,3.94c0.35,1.5-1.51,4.08,1.98,4.02
			c2.42,0.25,4.52-1.58,6.97-1.05c5.5,1.21,10.65,3.01,13.82,8.17c-1.03,2.41-3.21,1.95-5.13,1.97c-8.43,0.08-16.86-0.09-25.28,0.2
			c-4.83,0.16-9.12-0.46-12.42-4.32c-0.46-0.45-0.85-1.09-1.4-1.32c-5.94-2.45-6.37-4.74-1.8-9.86c0.86-0.94,2-1.41,3.08-0.77
			C314.67,612.65,318.92,611.44,323.09,608.82z"/>
		<path class="st82" d="M339.17,615.82c-2.48,0.41-4.22,3.3-7.17,2.16c-0.99-1.68-2.64-3.52,1.01-4.05
			C335.22,614.04,337.29,614.61,339.17,615.82z"/>
		<path class="st83" d="M333.01,613.93c-2.35,0.85-0.98,2.62-1.01,4.05c-5.23-0.77-5.23-0.77-1.79-5.13
			C331.27,612.87,332.29,613.02,333.01,613.93z"/>
		<path class="st51" d="M262.96,529.91c0.03-0.29,0.06-0.59,0.07-0.88c13.33,0.01,26.67,0.02,40,0.02c0.01,0.3,0.03,0.6,0.06,0.89
			c-0.23,0.22-0.46,0.44-0.69,0.67c-1.82,1-3.82,0.91-5.79,0.92c-9.06,0.04-18.12,0.03-27.19,0c-1.97-0.01-3.97,0.08-5.79-0.93
			C263.41,530.37,263.19,530.14,262.96,529.91z"/>
		<path class="st84" d="M323.09,608.82c-3.94,5.03-5.73,5.47-11.87,2.68c-1.39-0.63-2.72-1.22-4.27-0.84
			c0.92-4.83,1.3-9.71,1.13-14.62c1.26-1.18,0.98-2.76,0.93-4.19c-0.08-2.17,1.07-2.93,2.97-3.06c4.03,0.74,8.03,1.71,12.09,2.13
			c2.76,0.28,2.86,1.3,2.04,3.46c-1.16,3.07-2.08,6.23-3.19,9.32C322.29,605.46,321.82,607.15,323.09,608.82z"/>
		<path class="st57" d="M868.91,860.92c-1.34,5.89-5.94,8.19-11,10C861.47,867.46,865.98,865.05,868.91,860.92z"/>
		<path class="st59" d="M24.09,851.92c-2.31-262.34-0.35-524.69-1-787.03c-0.01-4.82,0.11-9.61,3-13.8
			c1.78,3.18-0.13,6.37-0.13,9.55c0.14,162.44,0.12,324.88,0.12,487.33c0,97.97-0.02,195.93,0.05,293.9
			c0.01,7.67,1.36,15.06,5.95,21.68c5.38,7.75,13.23,10.89,21.89,12.28c10.86,1.75,21.88,1.09,32.85,1.09
			c248.41,0.01,496.82-0.01,745.24,0.08c5.02,0,9.9-0.88,14.86-1.07c0,0.33,0,0.67,0,1c0.59,0.67,0.59,1.33,0,2c-0.33,0-0.67,0-1,0
			c-1.73,0.92-3.6,0.46-5.4,0.46c-259.68,0.02-519.36,0.02-779.04,0c-1.8,0-3.67,0.45-5.4-0.46c-0.33,0-0.67,0-1,0
			c-1.38-1.76-3.38-0.43-5-1c-1.1-0.03-2.28,0.18-3-1c-3.97-0.99-7.27-3.47-11-5c-2.4-1.6-4.4-3.6-6-6c-1.06-1.63-1.18-3.83-3-5
			C25.32,858.17,24.42,855.14,24.09,851.92z"/>
		<path class="st58" d="M56.08,878.91c263.28,0,526.56,0,789.84,0c-1.48,1.64-3.43,0.97-5.18,0.97
			c-259.82,0.03-519.65,0.03-779.47,0C59.52,879.88,57.56,880.55,56.08,878.91z"/>
		<path class="st58" d="M860.92,872.91c7.57-4.3,11.28-11.65,15-19c1.73,4.91-1.19,8.29-3.87,11.75
			c-4.42,5.71-9.22,10.85-17.13,11.25C855.39,873.29,859.59,875.26,860.92,872.91z"/>
		<path class="st59" d="M860.92,872.91c-1.07,2.72-4.64,1.7-6,4c-1,0.33-2,0.67-3,1c-1.13,0.59-1.6-0.13-2-1
			C852.69,873.11,857.34,874.48,860.92,872.91z"/>
		<path class="st58" d="M36.09,871.91c4.49-0.14,7.37,3.26,11,5C42.69,876.84,39.05,875.11,36.09,871.91z"/>
		<path class="st58" d="M875.91,852.92c-1.89-2.37-0.09-4.12,1-6C879.2,849.35,876.29,850.93,875.91,852.92z"/>
		<path class="st58" d="M27.09,860.92c3.33,0.27,2.98,2.74,3,5C28.07,864.86,27.44,862.97,27.09,860.92z"/>
		<path class="st58" d="M50.08,877.91c1.84-0.55,3.99-2.6,5,1C53.4,878.67,51.48,879.58,50.08,877.91z"/>
		<path class="st58" d="M849.92,876.91c0.67,0.33,1.33,0.67,2,1c-1.4,1.67-3.31,0.76-5,1c0-0.67,0-1.33,0-2
			C847.92,876.91,848.92,876.91,849.92,876.91z"/>
		<path class="st85" d="M547.71,391.02c31.29,0,62.58,0,93.87,0c1.17,0,2.33-0.04,3.49,0.01c1.28,0.05,3.17-0.19,3.07,1.57
			c-0.09,1.66-1.98,1.35-3.28,1.4c-0.83,0.04-1.66,0.01-2.5,0.01c-63.25,0-126.49,0.01-189.74-0.05c-1.98,0-5.67,1.05-5.6-1.3
			c0.08-3.02,3.77-1.56,5.81-1.57C484.46,390.98,516.08,391.02,547.71,391.02z"/>
		<path class="st86" d="M583.04,323.04c2.47-4.29,4.82-8.66,7.45-12.86c4.38-6.98,9.97-12.72,17.5-16.37
			c0.73-0.42,1.45-0.4,2.17,0.01c1.04,1.24,1.46,2.63,1.06,4.23c-1.63,1.47-3.87,1.71-5.68,2.82c-4,1.96-6.8,5.15-9.04,8.9
			c-8.38,12.5-13.45,26.77-21.31,39.54c-4.78,7.77-10.35,14.67-19,18.52c-9.22,4.1-15.9,2.39-21.59-6
			c-2.52-3.72-4.76-7.64-5.66-12.14c-0.17-1.44-0.49-2.88-0.38-4.35c0.19-0.75,0.64-1.29,1.31-1.67c0.49-0.14,0.93-0.05,1.34,0.25
			c1.96,4.17,3.76,8.44,5.93,12.5c5.1,9.54,11.09,10.93,20.3,5.08c6.48-4.12,10.92-9.96,14.49-16.59
			C575.57,337.6,578.89,330.11,583.04,323.04z"/>
		<path class="st87" d="M530.01,343.96c-0.31,0.35-0.63,0.71-0.94,1.06c-2.1-1.27-2.44-3.86-4.12-5.45
			c-1.62-2.52-2.75-5.28-4.01-7.97c-5.78-12.34-13.71-13.4-25.53-6.49c-3.84,2.24-7.12,5.38-10.52,8.28
			c-2.26,2.2-4.78,4.16-6.26,7.05c-4.92,7.42-10.31,14.52-14.68,22.3c-0.79,1.35-1.47,2.75-2.16,4.16c-0.2,0.41-0.45,0.79-0.7,1.17
			c-0.99,1.33-1.62,2.9-2.66,4.18c-1.1,1.36-2.25,2.91-4.36,1.52c-0.43-1.92,0.32-3.55,1.2-5.19c6.69-12.43,13.88-24.53,23.23-35.2
			c4.72-5.39,9.97-10.2,16.32-13.66c14.56-7.93,25.5-3.7,31.28,12.05C527.29,335.88,530.33,339.38,530.01,343.96z"/>
		<path class="st88" d="M545.7,380.13l-0.37,0.1l-0.35-0.17c-2.79-1.04-5.27-2.77-8.16-3.58c-4.02-2.17-6.59-5.93-9.78-9
			c-2.64-2.54-5.39-4.83-8.64-6.51c-9.12-4.12-17.86-0.92-26.58,1.49c-2.35,0.65-4.67,1.57-6.98,2.46
			c-8.36,3.46-16.01,8.09-22.88,14c-1.63,1.1-2.74,2.93-4.54,3.69c-2.24,0.96-4.29,1.02-3.33-2.53l-0.04,0
			c3.13-4.31,7.78-6.92,11.62-10.44c0.94-0.72,2.01-1.19,3.11-1.6c2.11-0.59,3.8-1.88,5.42-3.28c11-6.66,22.78-10.82,35.75-11.04
			c5.31-0.09,10.1,1.64,14.34,4.84c4.21,5.07,8.71,9.86,14,13.85c0.6,0.4,1.17,0.84,1.72,1.29c3.88,3.87,9.02,2.67,13.68,3.41
			c0.72,0.27,1.29,0.69,1.51,1.47c-0.24,1.26-1.72,0.66-2.24,1.5l-0.34,0.17l-0.36-0.11C550.08,380.7,547.89,380.71,545.7,380.13z"
			/>
		<path class="st89" d="M554.96,378.93c-0.34-0.31-0.67-0.62-1.01-0.93c-0.23-2.01,1.73-2.2,2.67-3.25
			c8.28-3.34,14.8-8.71,19.7-16.23c5.92-9.1,14.69-12.2,25.12-10.64c5.21,0.78,10.23,1.25,15.11-1.28c0.74-0.38,1.63-0.21,2.39,0.25
			c-0.17,3.66-3.72,3.18-5.69,4.63c-3.56-0.02-7.12,0.18-9.43-0.02c2.29,0.37,5.86-0.05,9.41,0.07c2.09-0.08,3.51-3.03,6-1.4
			c-4.15,3.88-9.14,3.97-14.37,3.35c-6.05-0.72-12.18-1.95-17.87,1.56c-2.43,1.56-4.32,3.68-6.08,5.94
			c-3.97,4.65-6.92,10.31-12.79,13.1C563.94,376.27,559.84,378.65,554.96,378.93z"/>
		<path class="st90" d="M619.22,350.13c-2.06-0.23-3.53,1.35-5.37,1.78c-0.27-0.23-0.35-0.44-0.22-0.62
			c0.11-0.17,0.23-0.26,0.33-0.26c1.21-1.92,4.4-1.58,4.9-4.31c0.01-2.57,2.31-3.59,3.6-5.29c1.32-1.2,2.26-2.63,2.79-4.34
			c5.33-7.43,8.47-15.88,11.49-24.39c0.6-1.32,0.95-2.71,1.31-4.11c2.18-2.82,2.19-6.52,3.9-9.53c0.26-0.61,0.48-1.24,0.79-1.82
			c0.52-0.99,0.93-2.42,2.4-1.96c1.63,0.51,1.47,1.9,1.08,3.3c-1.48,5.24-2.91,10.5-4.35,15.76c-0.23,1.89-0.09,3.92-1.87,5.26
			c-0.69,1.47-1.38,2.94-2.07,4.41c-2.06,4.81-4.31,9.51-6.99,14.01C627.49,342.48,624.71,347.61,619.22,350.13z"/>
		<path class="st91" d="M640.01,319.59c0.24-1.89,0.39-3.82,1.87-5.27c4.66,7.84,8.13,16.22,11.27,24.74
			c0.45,1.21,1.2,2.58-0.08,3.65c-1.18,0.99-2.12-0.02-3-0.76c-1.92-4.22-3.27-8.67-5.13-12.92
			C643.36,325.86,642.45,322.32,640.01,319.59z"/>
		<path class="st92" d="M484.84,364.91c9.17-4.73,18.79-7.36,29.2-6.04c1.79,0.23,3.63,0.62,4.98,2.05c0.33,0.25,0.44,0.5,0.32,0.73
			c-0.12,0.23-0.24,0.35-0.35,0.35c-8.65-3.9-17.11-1.63-25.6,0.73C490.56,363.52,487.96,365.26,484.84,364.91z"/>
		<path class="st93" d="M641.96,299.05c-0.43,3.41-1.15,6.73-3,9.69c-1.21,1.03-1.85-0.14-2.3-0.8c-3.38-5-7.95-8.85-12.37-12.84
			c-0.88-1.58-1.77-3.17-0.5-4.97c4.24,5.54,10.28,9.39,14.27,15.26C640.89,304.12,638.88,300,641.96,299.05z"/>
		<path class="st94" d="M518.99,362.01c0.01-0.36,0.02-0.72,0.03-1.08c5.51,2,8.73,6.8,12.8,10.56c1.68,1.55,2.97,3.52,5.09,4.57
			c0.36,0.15,0.51,0.33,0.43,0.56c-0.08,0.24-0.18,0.36-0.28,0.36c-2.9-0.08-4.07-2.6-5.82-4.23
			C527.26,369.04,523.84,364.71,518.99,362.01z"/>
		<path class="st95" d="M583.04,323.04c-3.1,7.6-6.55,15.03-11.12,21.87C574.56,337.08,577.83,329.57,583.04,323.04z"/>
		<path class="st96" d="M609.53,293.9c-0.52-0.03-1.03-0.06-1.55-0.09c3.27-7.08,5.49-8.65,10.87-7.81
			c1.41,0.22,2.56,0.66,3.05,2.12c-0.56,0.51-1.23,0.64-1.96,0.59c-3.65-1-6.36,0.21-8.26,3.46
			C611.21,292.98,610.72,293.92,609.53,293.9z"/>
		<path class="st97" d="M466.18,370.12c-3.28,4.25-8.17,6.54-12.13,9.96c-0.17-2.85,2.6-3.4,3.95-5.05c0.05-0.23,0.11-0.46,0.16-0.7
			C460.5,372.29,462.04,368.72,466.18,370.12z"/>
		<path class="st98" d="M454.09,380.08c0.06,2.73,1.32,3.05,3.43,1.73c1.5-0.94,2.51-2.62,4.44-2.89c-1.17,2.25-2.83,4.09-5.2,4.96
			c-1.6,0.58-3.27,0.31-4.12-1.62C451.96,380.71,452.57,380.11,454.09,380.08z"/>
		<path class="st99" d="M554.96,378.93c4.38-1.62,8.76-3.24,13.15-4.86c-4.29,3.92-9.56,5.35-15.14,6
			C553.37,379.23,554.14,379.04,554.96,378.93z"/>
		<path class="st100" d="M630.95,338.01c1.8-4.93,4.13-9.61,6.99-14.01C636.95,329.34,634.65,334.03,630.95,338.01z"/>
		<path class="st101" d="M644.94,329.04c2.59,3.95,4.25,8.28,5.13,12.92C647.2,338.11,645.69,333.73,644.94,329.04z"/>
		<path class="st102" d="M530.01,343.96c-0.72-4.25-3.61-7.8-3.9-12.19c2.75,3.61,4.06,7.82,5.08,12.15
			C530.8,343.93,530.41,343.95,530.01,343.96z"/>
		<path class="st97" d="M454.09,373.77c4.73,0.16,3.89-5.2,6.79-6.85c2.04,3.76-1.7,5.47-2.88,8.09c0,0-0.01,0.01-0.01,0.01
			C456.63,374.81,454.92,375.65,454.09,373.77z"/>
		<path class="st103" d="M620.03,287.95c0.62,0.06,1.25,0.11,1.87,0.17c0.63,0.67,1.26,1.34,1.88,2.01c0.44,1.55,0.88,3.1,1.32,4.64
			c-0.28,0.47-0.69,0.7-1.24,0.7C621.29,293.62,620.09,291.08,620.03,287.95z"/>
		<path class="st104" d="M580.9,360.97c1.15-2.87,2.92-5.11,6.08-5.94C585.3,357.37,583.42,359.5,580.9,360.97z"/>
		<path class="st105" d="M537.06,376.96c0.02-0.32-0.03-0.62-0.15-0.91c3.02,0.67,5.74,1.95,8.07,4.01
			C541.91,380.15,539.65,378.13,537.06,376.96z"/>
		<path class="st99" d="M545.7,380.13c2.19,0,4.38,0,6.57,0.01C550.08,381.17,547.89,381.13,545.7,380.13z"/>
		<path class="st106" d="M269,356.98c-1.31-0.66-2.62-1.32-3.92-1.99C267.32,353.08,267.74,353.3,269,356.98z"/>
		<path class="st107" d="M286.9,184.15c-11.6-9.5-10.12-25.01,3.07-32.13c2.67-1,5.39-1.48,8.27-1.47
			c39.94,0.04,79.88,0.14,119.81-0.05c9.58-0.05,17.06,7.25,18.34,14.58c1.82,10.4-3.83,19.27-13.48,21.98
			c-1.98,0.56-3.95,0.47-5.94,0.47c-38.77,0.01-77.55-0.05-116.32,0.08C295.66,187.63,291.1,186.83,286.9,184.15z"/>
		<path class="st78" d="M366.99,212.09c26.14,0,52.28-0.01,78.43,0.02c1.81,0,3.66,0.11,5.42,0.48c2.74,0.59,3.64,2.94,3.76,5.28
			c0.12,2.39-1.52,4.08-3.79,4.66c-1.74,0.44-3.61,0.48-5.42,0.48c-52.28,0.02-104.57,0.02-156.85,0.02c-0.67,0-1.33-0.01-2,0
			c-3.76,0.09-7.06-1.27-7.19-5.25c-0.14-4.33,3.27-5.7,7.22-5.7c19.32,0.01,38.63,0,57.95,0
			C352.01,212.09,359.5,212.09,366.99,212.09z"/>
		<path class="st108" d="M466.96,168.5c-1.61-9.61,8.64-19.41,18.57-19.25c11.42,0.19,19.43,8.28,19.41,19.11
			c-0.03,12.09-8.43,19.13-19.02,19.5C475.76,188.21,465.33,178.33,466.96,168.5z"/>
		<path class="st109" d="M286.9,184.15c7.82,3.71,16.17,2.94,24.43,2.94c35.29,0,70.58,0.03,105.88-0.02
			c10.96-0.01,18.87-7.82,18.81-18.31c-0.05-9.53-7.58-17.58-17.33-17.62c-40.45-0.15-80.91-0.05-121.36-0.08
			c-2.52,0-4.79,1.54-7.36,0.97c2.03-2.23,4.78-2.17,7.41-2.17c40.48-0.04,80.95-0.11,121.43,0.02c10.98,0.04,18.59,8.28,18.53,19.3
			c-0.05,10.81-7.92,19.1-18.79,19.13c-40.31,0.11-80.62,0.05-120.93,0.03C293.55,188.33,289.7,187.51,286.9,184.15z"/>
		<path class="st110" d="M515.7,103.23c-1.22-0.73-2.28-1.63-2.85-2.99c-0.51-1.42,0.49-1.57,1.46-1.75
			c2.16,0.24,2.96,2.71,5.03,3.08c1.43,0.2,3.21-0.12,3.29,2.15c-0.11,1.31,0.57,2.48,0.65,3.76c-0.34,1.02-1.15,1.31-2.12,1.35
			c-1.11-0.25-2.19-0.62-3.31-0.85c-0.42-0.17-0.79-0.42-1.11-0.74C515.89,106.04,517.73,104.13,515.7,103.23z"/>
		<path class="st111" d="M518.2,107.24c0.87,0.32,1.73,0.63,2.6,0.95c1.35,0.07,2.85,2.67,4.03-0.24c0.39-0.29,0.77-0.32,1.17-0.03
			c1.1,1.36,2.84,2.77,0.85,4.5c-1.64,1.42-3.69,0.85-4.69-0.8c-1.95-3.24-4.18-0.7-6.28-0.67
			C515.57,109.04,516.81,108.09,518.2,107.24z"/>
		<path class="st112" d="M521.94,103.86c-0.43-2.41-2.28-0.32-3.25-1.03c-0.07-1.7,1.3-2.05,2.44-2.63l-0.02,0.02
			c0.83-1.84,2.1-3.17,4.25-2.42c1.75,0.61,1.35,1.99,0.64,3.28c-0.22,0.18-0.26,0.4-0.14,0.65
			C524.72,102.74,524.14,104.78,521.94,103.86z"/>
		<path class="st113" d="M518.2,107.24c-0.78,1.24-1.55,2.47-2.33,3.71c0,0,0.02,0,0.02,0c-0.8,1.71-2.41,2.24-3.63,1.18
			c-1.55-1.35-0.93-2.97,0.84-4.01c0.95-0.71,1.9-1.43,2.85-2.14c0.57,0.15,0.73,0.73,1.13,1.05
			C517.45,107.11,517.83,107.17,518.2,107.24z"/>
		<path class="st42" d="M521.94,103.86c1.53-0.31,2.13-2.31,3.92-2.14c-0.16,2.07-1.31,4.17,0.14,6.2
			c-0.29,0.04-0.59,0.08-0.88,0.11c-1.18,0.72-1.65-0.14-2.13-0.96C522.41,106.07,520.2,105.61,521.94,103.86z"/>
		<path class="st114" d="M521.13,100.2c-0.1,1.54-2.04,1.37-2.44,2.63c-1.27-1.24-2.55-2.47-3.82-3.71
			c-0.43-0.59-1.33-0.9-1.15-1.86C516.8,96.71,517.95,101.02,521.13,100.2z"/>
		<path class="st114" d="M526,101.07c-0.21-1.01,0.8-2.46-0.5-3c-2.05-0.84-2.71,1.84-4.39,2.14c-0.09-2.78,1.77-3.21,3.93-3.23
			c0.97-0.01,2.12-0.12,2.58,0.99C528.27,99.55,527.28,100.42,526,101.07z"/>
		<path class="st111" d="M513.1,108.12c-0.17,1.17-1.96,2.15-0.66,3.44c1.26,1.26,2.31-0.32,3.46-0.61c0,2.15-1.47,2.2-3.03,2.09
			c-1.13-0.08-1.76-0.73-1.85-1.86C510.88,109.62,510.99,108.19,513.1,108.12z"/>
		<path class="st115" d="M513.72,97.25c0.37,0.63,1.36,0.88,1.15,1.86c-0.67,0.38-1.35,0.75-2.02,1.13
			C511.2,98.68,511.73,97.76,513.72,97.25z"/>
		<path class="st115" d="M517.08,107.04c-0.38-0.35-0.76-0.7-1.13-1.05c-0.08-0.92-0.16-1.84-0.24-2.76
			C518.78,103.55,516.81,105.7,517.08,107.04z"/>
		<path class="st51" d="M303.09,529.94c1.27,0.71,2.01,1.77,1.92,3.25c-0.7,11.82,1.76,23.46,2.07,35.22
			c0.09,3.39-0.85,4.69-4.46,4.64c-12.99-0.19-25.99-0.21-38.98,0.01c-3.91,0.07-4.89-1.35-4.65-4.94
			c0.79-11.9,1.4-23.81,2.04-35.72c0.07-1.35,0.57-2.21,1.92-2.49c0,0,0.08,0.08,0.08,0.08c1.24,4.25,0.8,8.65,0.33,12.85
			c-0.79,7.12-0.49,14.28-1.43,21.37c-0.67,5.08,0.2,6.13,5.07,6.2c10.64,0.13,21.28-0.01,31.91,0.07c3.84,0.03,5.1-1.31,4.89-5.34
			c-0.52-10.28-1.5-20.54-1.61-30.84c-0.02-1.5-0.25-3,0.79-4.29L303.09,529.94z"/>
		<path class="st1" d="M303.01,530.01c1.35,10.89,1.66,21.84,2.07,32.79c0.35,9.18,0.25,9.18-9.11,9.18
			c-10.33,0-20.66-0.03-30.98,0.02c-2.75,0.01-5.12-0.17-4.88-3.87c0.79-12.25,1.55-24.51,2.36-36.76c0.03-0.47,0.38-0.92,0.58-1.37
			C276.36,529.99,289.68,530,303.01,530.01z"/>
		<path class="st0" d="M458,375.01c0.2-2.97,2.93-5.04,2.88-8.09c0,0,0,0.03,0,0.03c1.34-0.97,1.4-2.62,2.08-3.95
			c3.86-8.4,9.44-15.7,14.88-23.08c1.97-2.37,4.4-4.31,6.18-6.85c5.02-5.36,10.63-9.89,17.67-12.37c8.02-2.83,13.7-0.92,18.15,6.47
			c2.29,3.8,4.05,7.91,6.05,11.88c1.65,3.25,2.82,6.69,4.01,10.12c1.26,4.53,3.35,8.67,6.06,12.47c5.23,7.32,10.74,8.82,19.03,5.37
			c8.05-3.35,13.47-9.55,18.04-16.64c6.6-10.23,11.03-21.61,16.98-32.18c1.78-3.17,3.93-6.14,5.9-9.21c2.77-3.23,5.57-6.43,9.1-8.88
			c1.59-1.33,3.22-2.58,5.47-2.47c0.76-0.1,1.37,0.26,1.96,0.65c3.97,3.24,7.59,0.75,11.28-0.69c6.84,3.25,11.25,8.64,13.76,15.69
			c-2.36,8.94-6.12,17.22-11.55,24.73c-0.9,1.41-2.11,2.59-2.96,4.03c-1.37,1.56-2.74,3.12-4.12,4.68
			c-5.24,3.1-10.69,3.72-16.75,2.55c-10.42-2.02-19.14,1.15-25.04,10.32c-4.95,7.69-11.56,13.17-20.15,16.26
			c-6.34,2.83-12.32,2.14-17.95-1.86c-0.37-0.32-0.73-0.64-1.1-0.96c-4.97-4.01-8.89-9.12-13.86-13.13
			c-6.11-5.1-13.23-5.56-20.68-4.46c-10.49,1.55-20.15,5.4-29.34,10.58c-1.58,1.15-3.44,1.81-5.06,2.89c-0.92,0.4-1.85,0.8-2.77,1.2
			C462.72,370.53,460.91,373.68,458,375.01z"/>
		<path class="st116" d="M611.99,299.02c-0.5-0.46-1-0.92-1.51-1.38c-0.32-1.25-0.63-2.5-0.95-3.75c3.03-6.72,4.77-7.7,10.5-5.95
			c1.9,2.02,2.72,4.63,3.89,7.05c0.41,0.42,0.48,0.9,0.21,1.42C618.91,301.4,617.27,301.75,611.99,299.02z"/>
		<path class="st117" d="M605.01,300.11c-2.84,3.16-5.61,6.39-9.1,8.88C597.86,304.92,600.63,301.69,605.01,300.11z"/>
		<path class="st102" d="M529.9,349.17c-1.99-3.11-3.37-6.47-4.01-10.12c1.9,1.54,2.54,3.76,3.17,5.97
			C529.65,346.34,530.23,347.67,529.9,349.17z"/>
		<path class="st118" d="M484.03,333.07c-0.98,3.26-3.36,5.26-6.18,6.85C479.16,336.97,481.38,334.83,484.03,333.07z"/>
		<path class="st97" d="M462.96,363c0.14,1.76-0.1,3.31-2.08,3.95C460.99,365.32,461.72,364.03,462.96,363z"/>
		<path class="st105" d="M524.02,359.91c5.67,3.27,9.64,8.33,13.86,13.13C532.15,369.83,528.19,364.76,524.02,359.91z"/>
		<path class="st105" d="M538.98,373.99c5.76,2.81,11.72,3.62,17.95,1.86c-0.44,1.48-2.34,0.93-2.98,2.14
			C548.65,377.84,542.93,379.22,538.98,373.99z"/>
		<path class="st119" d="M468.95,368.91c1.2-1.82,2.9-2.75,5.06-2.89C472.78,367.79,471.09,368.75,468.95,368.91z"/>
		<path class="st120" d="M613.96,351.03c0,0.3-0.04,0.59-0.11,0.88c-3.57,0-7.14,0-10.71,0c0-0.29,0-0.59-0.01-0.88
			C606.75,351.03,610.36,351.03,613.96,351.03z"/>
		<path class="st121" d="M623.61,296.31c0.1-0.43,0.2-0.87,0.3-1.3c0.4-0.07,0.79-0.15,1.19-0.23c6.01,3.28,9.6,8.95,13.86,13.97
			c0.22,1.74-0.3,3.25-1.47,4.54c-4.26-5.33-7.68-11.43-13.72-15.16C623.33,297.55,623.41,296.94,623.61,296.31z"/>
		<path class="st122" d="M622.98,342.04c0.06-2.02,1.36-3.13,2.96-4.03C625.9,340.06,624.67,341.22,622.98,342.04z"/>
		<path class="st112" d="M522.99,107.07c0.71,0.32,1.42,0.64,2.13,0.96c0.29,1.17,2.05,2.36,0.52,3.48
			c-1.45,1.06-2.27-0.67-3.19-1.49c-0.61-0.54-1.1-1.22-1.64-1.84C521.58,107.93,522.56,108.04,522.99,107.07z"/>
		<path class="st103" d="M623.61,296.31c0.06,0.61,0.11,1.21,0.16,1.82c-5.27,4.18-7.94,4.39-11.78,0.9
			C616.54,301.02,620.4,300.04,623.61,296.31z"/>
	</g>
</g>
</svg>
