<svg xmlns="http://www.w3.org/2000/svg" xmlns:xlink="http://www.w3.org/1999/xlink" width="118" height="118" viewBox="0 0 118 118">
  <defs>
    <filter id="Ellipse_8" x="0" y="0" width="118" height="118" filterUnits="userSpaceOnUse">
      <feOffset dy="6" input="SourceAlpha"/>
      <feGaussianBlur stdDeviation="3" result="blur"/>
      <feFlood flood-opacity="0.161"/>
      <feComposite operator="in" in2="blur"/>
      <feComposite in="SourceGraphic"/>
    </filter>
  </defs>
  <g id="Group_13" data-name="Group 13" transform="translate(-109 -883)">
    <g transform="matrix(1, 0, 0, 1, 109, 883)" filter="url(#Ellipse_8)">
      <circle id="Ellipse_8-2" data-name="Ellipse 8" cx="50" cy="50" r="50" transform="translate(9 3)" fill="#fff"/>
    </g>
    <path id="Polygon_1" data-name="Polygon 1" d="M35.254,2.487a4,4,0,0,1,5.807,1.885l1.421,3.469a4,4,0,0,0,3.394,2.472l3.715.287a4,4,0,0,1,3.581,4.925l-.89,3.695a4,4,0,0,0,1.288,3.976l2.877,2.461a4,4,0,0,1,0,6.079L53.57,34.2a4,4,0,0,0-1.288,3.976l.89,3.695a4,4,0,0,1-3.581,4.925l-3.715.287a4,4,0,0,0-3.394,2.472L41.061,53.02A4,4,0,0,1,35.254,54.9l-3.148-1.949a4,4,0,0,0-4.211,0L24.746,54.9a4,4,0,0,1-5.807-1.885L17.518,49.55a4,4,0,0,0-3.394-2.472l-3.715-.287a4,4,0,0,1-3.581-4.925l.89-3.695A4,4,0,0,0,6.43,34.2L3.553,31.735a4,4,0,0,1,0-6.079L6.43,23.195a4,4,0,0,0,1.288-3.976l-.89-3.695A4,4,0,0,1,10.41,10.6l3.715-.287a4,4,0,0,0,3.394-2.472l1.421-3.469a4,4,0,0,1,5.807-1.885l3.148,1.949a4,4,0,0,0,4.211,0Z" transform="translate(138 907.304)" fill="#ffc03a"/>
  </g>
</svg>
